<svg xmlns="http://www.w3.org/2000/svg" viewBox="0 0 260.13 260.13"><defs><style>.cls-1{opacity:0.3;}.cls-2{fill:#ca9f81;}</style></defs><g id="Layer_2" data-name="Layer 2"><g id="Layer_1-2" data-name="Layer 1"><g id="Group_73" data-name="Group 73" class="cls-1"><path id="Path_143" data-name="Path 143" class="cls-2" d="M130.06,260.13A130.07,130.07,0,1,1,260.13,130.06,130.06,130.06,0,0,1,130.06,260.13m0-249.29A119.23,119.23,0,1,0,249.29,130.06h0A119.36,119.36,0,0,0,130.06,10.83"/><path id="Path_144" data-name="Path 144" class="cls-2" d="M130.07,233.58A103.52,103.52,0,1,1,233.59,130.06,103.52,103.52,0,0,1,130.07,233.58m0-196.2a92.69,92.69,0,1,0,92.69,92.68,92.68,92.68,0,0,0-92.69-92.68"/><path id="Path_145" data-name="Path 145" class="cls-2" d="M130.06,207.05a77,77,0,1,1,77-77,77,77,0,0,1-77,77m0-143.13a66.15,66.15,0,1,0,66.15,66.15h0a66.22,66.22,0,0,0-66.15-66.15"/><path id="Path_146" data-name="Path 146" class="cls-2" d="M130.06,180.51a50.45,50.45,0,1,1,50.45-50.45h0a50.5,50.5,0,0,1-50.45,50.45m0-90.06a39.61,39.61,0,1,0,39.61,39.61h0a39.64,39.64,0,0,0-39.61-39.61"/><path id="Path_147" data-name="Path 147" class="cls-2" d="M130.07,154A23.91,23.91,0,1,1,154,130.06h0A23.93,23.93,0,0,1,130.07,154m0-37a13.07,13.07,0,1,0,13.07,13.07A13.07,13.07,0,0,0,130.07,117"/></g></g></g></svg>