<svg xmlns="http://www.w3.org/2000/svg" viewBox="0 0 260.13 253.75"><defs><style>.cls-1{opacity:0.3;}.cls-2{fill:#e5193a;}</style></defs><g id="Layer_2" data-name="Layer 2"><g id="Layer_1-2" data-name="Layer 1"><g id="Group_69" data-name="Group 69" class="cls-1"><rect id="Rectangle_31" data-name="Rectangle 31" class="cls-2" x="35.77" y="157.04" width="42.57" height="10.55"/><rect id="Rectangle_32" data-name="Rectangle 32" class="cls-2" x="108.8" y="227.94" width="43.77" height="10.55"/><path id="Path_70" data-name="Path 70" class="cls-2" d="M20.52,41.05A20.53,20.53,0,1,1,41.05,20.52,20.53,20.53,0,0,1,20.52,41.05m0-30.5a10,10,0,1,0,10,10h0a10,10,0,0,0-10-10"/><path id="Path_71" data-name="Path 71" class="cls-2" d="M35.78,91.42A15.25,15.25,0,1,1,20.53,76.17h0A15.25,15.25,0,0,1,35.78,91.42"/><path id="Path_72" data-name="Path 72" class="cls-2" d="M20.52,111.94A20.53,20.53,0,1,1,41.05,91.42a20.52,20.52,0,0,1-20.53,20.52m0-30.5a10,10,0,1,0,10,10h0a10,10,0,0,0-10-10"/><path id="Path_73" data-name="Path 73" class="cls-2" d="M20.52,182.84a20.52,20.52,0,1,1,20.53-20.52,20.52,20.52,0,0,1-20.53,20.52m0-30.5a10,10,0,1,0,10,10h0a10,10,0,0,0-10-10"/><path id="Path_74" data-name="Path 74" class="cls-2" d="M35.78,233.21A15.25,15.25,0,1,1,20.53,218h0a15.25,15.25,0,0,1,15.25,15.25"/><path id="Path_75" data-name="Path 75" class="cls-2" d="M20.52,253.75a20.53,20.53,0,1,1,20.53-20.53,20.53,20.53,0,0,1-20.53,20.53m0-30.51a10,10,0,1,0,10,10h0a10,10,0,0,0-10-10"/><path id="Path_76" data-name="Path 76" class="cls-2" d="M108.8,20.52A15.25,15.25,0,1,1,93.55,5.27h0A15.24,15.24,0,0,1,108.8,20.52"/><path id="Path_77" data-name="Path 77" class="cls-2" d="M93.54,41.05a20.53,20.53,0,1,1,20.53-20.53A20.53,20.53,0,0,1,93.54,41.05m0-30.5a10,10,0,1,0,10,10h0a10,10,0,0,0-10-10"/><path id="Path_78" data-name="Path 78" class="cls-2" d="M93.54,111.94a20.53,20.53,0,1,1,20.53-20.52,20.52,20.52,0,0,1-20.53,20.52m0-30.5a10,10,0,1,0,10,10h0a10,10,0,0,0-10-10"/><path id="Path_79" data-name="Path 79" class="cls-2" d="M108.8,162.32a15.25,15.25,0,1,1-15.25-15.25h0a15.25,15.25,0,0,1,15.25,15.25"/><path id="Path_80" data-name="Path 80" class="cls-2" d="M93.54,182.84a20.52,20.52,0,1,1,20.53-20.52,20.52,20.52,0,0,1-20.53,20.52m0-30.5a10,10,0,1,0,10,10h0a10,10,0,0,0-10-10"/><path id="Path_81" data-name="Path 81" class="cls-2" d="M93.54,253.75a20.53,20.53,0,1,1,20.53-20.53,20.53,20.53,0,0,1-20.53,20.53m0-30.51a10,10,0,1,0,10,10h0a10,10,0,0,0-10-10"/><path id="Path_82" data-name="Path 82" class="cls-2" d="M166.57,41.05A20.53,20.53,0,1,1,187.1,20.52a20.53,20.53,0,0,1-20.53,20.53m0-30.5a10,10,0,1,0,10,10h0a10,10,0,0,0-10-10"/><path id="Path_83" data-name="Path 83" class="cls-2" d="M181.83,91.42a15.25,15.25,0,1,1-15.25-15.25h0a15.25,15.25,0,0,1,15.25,15.25"/><path id="Path_84" data-name="Path 84" class="cls-2" d="M166.57,111.94A20.53,20.53,0,1,1,187.1,91.42a20.52,20.52,0,0,1-20.53,20.52m0-30.5a10,10,0,1,0,10,10h0a10,10,0,0,0-10-10"/><path id="Path_85" data-name="Path 85" class="cls-2" d="M166.57,182.84a20.52,20.52,0,1,1,20.53-20.52,20.52,20.52,0,0,1-20.53,20.52m0-30.5a10,10,0,1,0,10,10h0a10,10,0,0,0-10-10"/><path id="Path_86" data-name="Path 86" class="cls-2" d="M181.83,233.21A15.25,15.25,0,1,1,166.58,218h0a15.25,15.25,0,0,1,15.25,15.25"/><path id="Path_87" data-name="Path 87" class="cls-2" d="M166.57,253.75a20.53,20.53,0,1,1,20.53-20.53,20.53,20.53,0,0,1-20.53,20.53m0-30.51a10,10,0,1,0,10,10h0a10,10,0,0,0-10-10"/><path id="Path_88" data-name="Path 88" class="cls-2" d="M254.87,20.52A15.25,15.25,0,1,1,239.62,5.27h0a15.25,15.25,0,0,1,15.25,15.25"/><path id="Path_89" data-name="Path 89" class="cls-2" d="M239.6,41.05a20.53,20.53,0,1,1,20.53-20.53A20.53,20.53,0,0,1,239.6,41.05m0-30.5a10,10,0,1,0,10,10h0a10,10,0,0,0-10-10"/><path id="Path_90" data-name="Path 90" class="cls-2" d="M239.6,111.94a20.53,20.53,0,1,1,20.53-20.52,20.52,20.52,0,0,1-20.53,20.52m0-30.5a10,10,0,1,0,10,10h0a10,10,0,0,0-10-10"/><path id="Path_91" data-name="Path 91" class="cls-2" d="M254.87,162.32a15.25,15.25,0,1,1-15.25-15.25h0a15.25,15.25,0,0,1,15.25,15.25"/><path id="Path_92" data-name="Path 92" class="cls-2" d="M239.6,182.84a20.52,20.52,0,1,1,20.53-20.52,20.52,20.52,0,0,1-20.53,20.52m0-30.5a10,10,0,1,0,10,10h0a10,10,0,0,0-10-10"/><path id="Path_93" data-name="Path 93" class="cls-2" d="M239.6,253.75a20.53,20.53,0,1,1,20.53-20.53,20.53,20.53,0,0,1-20.53,20.53m0-30.51a10,10,0,1,0,10,10h0a10,10,0,0,0-10-10"/><rect id="Rectangle_33" data-name="Rectangle 33" class="cls-2" x="234.27" y="35.77" width="10.55" height="39.7"/></g></g></g></svg>