<svg xmlns="http://www.w3.org/2000/svg" viewBox="0 0 150 146.32"><defs><style>.cls-1{fill:#e5193a;}</style></defs><g id="Layer_2" data-name="Layer 2"><g id="Layer_1-2" data-name="Layer 1"><g id="Group_69" data-name="Group 69"><rect id="Rectangle_31" data-name="Rectangle 31" class="cls-1" x="20.63" y="90.56" width="24.55" height="6.09"/><rect id="Rectangle_32" data-name="Rectangle 32" class="cls-1" x="62.74" y="131.44" width="25.24" height="6.09"/><path id="Path_70" data-name="Path 70" class="cls-1" d="M11.83,23.67A11.84,11.84,0,1,1,23.67,11.84,11.83,11.83,0,0,1,11.83,23.67m0-17.59a5.75,5.75,0,1,0,5.75,5.75h0a5.76,5.76,0,0,0-5.75-5.75"/><path id="Path_71" data-name="Path 71" class="cls-1" d="M20.63,52.72a8.8,8.8,0,1,1-8.79-8.8h0a8.79,8.79,0,0,1,8.79,8.8"/><path id="Path_72" data-name="Path 72" class="cls-1" d="M11.83,64.55A11.84,11.84,0,1,1,23.67,52.72,11.83,11.83,0,0,1,11.83,64.55m0-17.59a5.75,5.75,0,1,0,5.75,5.75h0A5.76,5.76,0,0,0,11.83,47"/><path id="Path_73" data-name="Path 73" class="cls-1" d="M11.83,105.44A11.84,11.84,0,1,1,23.67,93.6a11.84,11.84,0,0,1-11.84,11.84m0-17.59a5.75,5.75,0,1,0,5.75,5.75h0a5.74,5.74,0,0,0-5.75-5.75"/><path id="Path_74" data-name="Path 74" class="cls-1" d="M20.63,134.48a8.8,8.8,0,1,1-8.79-8.79h0a8.78,8.78,0,0,1,8.79,8.79"/><path id="Path_75" data-name="Path 75" class="cls-1" d="M11.83,146.32a11.84,11.84,0,1,1,11.84-11.83,11.83,11.83,0,0,1-11.84,11.83m0-17.59a5.75,5.75,0,1,0,5.75,5.75h0a5.76,5.76,0,0,0-5.75-5.75"/><path id="Path_76" data-name="Path 76" class="cls-1" d="M62.74,11.83A8.8,8.8,0,1,1,54,3h0a8.79,8.79,0,0,1,8.79,8.79"/><path id="Path_77" data-name="Path 77" class="cls-1" d="M53.94,23.67A11.84,11.84,0,1,1,65.78,11.84,11.83,11.83,0,0,1,53.94,23.67m0-17.59a5.75,5.75,0,1,0,5.75,5.75h0a5.76,5.76,0,0,0-5.75-5.75"/><path id="Path_78" data-name="Path 78" class="cls-1" d="M53.94,64.55A11.84,11.84,0,1,1,65.78,52.72,11.83,11.83,0,0,1,53.94,64.55m0-17.59a5.75,5.75,0,1,0,5.75,5.75h0A5.77,5.77,0,0,0,53.94,47"/><path id="Path_79" data-name="Path 79" class="cls-1" d="M62.74,93.6A8.8,8.8,0,1,1,54,84.81h0a8.79,8.79,0,0,1,8.79,8.79"/><path id="Path_80" data-name="Path 80" class="cls-1" d="M53.94,105.44A11.84,11.84,0,1,1,65.78,93.6a11.84,11.84,0,0,1-11.84,11.84m0-17.59a5.75,5.75,0,1,0,5.75,5.75h0a5.74,5.74,0,0,0-5.75-5.75"/><path id="Path_81" data-name="Path 81" class="cls-1" d="M53.94,146.32a11.84,11.84,0,1,1,11.84-11.83,11.83,11.83,0,0,1-11.84,11.83m0-17.59a5.75,5.75,0,1,0,5.75,5.75h0a5.76,5.76,0,0,0-5.75-5.75"/><path id="Path_82" data-name="Path 82" class="cls-1" d="M96.05,23.67a11.84,11.84,0,1,1,11.84-11.83A11.83,11.83,0,0,1,96.05,23.67m0-17.59a5.75,5.75,0,1,0,5.75,5.75h0a5.76,5.76,0,0,0-5.75-5.75"/><path id="Path_83" data-name="Path 83" class="cls-1" d="M104.85,52.72a8.8,8.8,0,1,1-8.79-8.8h0a8.8,8.8,0,0,1,8.79,8.8"/><path id="Path_84" data-name="Path 84" class="cls-1" d="M96.05,64.55a11.84,11.84,0,1,1,11.84-11.83A11.83,11.83,0,0,1,96.05,64.55m0-17.59a5.75,5.75,0,1,0,5.75,5.75h0A5.76,5.76,0,0,0,96.05,47"/><path id="Path_85" data-name="Path 85" class="cls-1" d="M96.05,105.44A11.84,11.84,0,1,1,107.89,93.6a11.84,11.84,0,0,1-11.84,11.84m0-17.59a5.75,5.75,0,1,0,5.75,5.75h0a5.74,5.74,0,0,0-5.75-5.75"/><path id="Path_86" data-name="Path 86" class="cls-1" d="M104.85,134.48a8.8,8.8,0,1,1-8.79-8.79h0a8.79,8.79,0,0,1,8.79,8.79"/><path id="Path_87" data-name="Path 87" class="cls-1" d="M96.05,146.32a11.84,11.84,0,1,1,11.84-11.83,11.83,11.83,0,0,1-11.84,11.83m0-17.59a5.75,5.75,0,1,0,5.75,5.75h0a5.76,5.76,0,0,0-5.75-5.75"/><path id="Path_88" data-name="Path 88" class="cls-1" d="M147,11.83A8.8,8.8,0,1,1,138.17,3h0a8.79,8.79,0,0,1,8.8,8.79"/><path id="Path_89" data-name="Path 89" class="cls-1" d="M138.16,23.67A11.84,11.84,0,1,1,150,11.84a11.83,11.83,0,0,1-11.84,11.83m0-17.59a5.75,5.75,0,1,0,5.75,5.75h0a5.76,5.76,0,0,0-5.75-5.75"/><path id="Path_90" data-name="Path 90" class="cls-1" d="M138.16,64.55A11.84,11.84,0,1,1,150,52.72a11.83,11.83,0,0,1-11.84,11.83m0-17.59a5.75,5.75,0,1,0,5.75,5.75h0A5.76,5.76,0,0,0,138.16,47"/><path id="Path_91" data-name="Path 91" class="cls-1" d="M147,93.6a8.8,8.8,0,1,1-8.8-8.79h0A8.79,8.79,0,0,1,147,93.6"/><path id="Path_92" data-name="Path 92" class="cls-1" d="M138.16,105.44A11.84,11.84,0,1,1,150,93.6a11.84,11.84,0,0,1-11.84,11.84m0-17.59a5.75,5.75,0,1,0,5.75,5.75h0a5.74,5.74,0,0,0-5.75-5.75"/><path id="Path_93" data-name="Path 93" class="cls-1" d="M138.16,146.32A11.84,11.84,0,1,1,150,134.49a11.83,11.83,0,0,1-11.84,11.83m0-17.59a5.75,5.75,0,1,0,5.75,5.75h0a5.76,5.76,0,0,0-5.75-5.75"/><rect id="Rectangle_33" data-name="Rectangle 33" class="cls-1" x="135.09" y="20.63" width="6.09" height="22.89"/></g></g></g></svg>