<svg xmlns="http://www.w3.org/2000/svg" viewBox="0 0 150 149"><defs><style>.cls-1{fill:#9d7cb7;}</style></defs><g id="Layer_2" data-name="Layer 2"><g id="Layer_1-2" data-name="Layer 1"><rect class="cls-1" width="13.33" height="13.33"/><rect class="cls-1" x="34.17" width="13.33" height="13.33"/><rect class="cls-1" x="68.34" width="13.33" height="13.33"/><rect class="cls-1" x="102.5" width="13.33" height="13.33"/><rect class="cls-1" x="136.67" width="13.33" height="13.33"/><rect class="cls-1" y="33.92" width="13.33" height="13.33"/><rect class="cls-1" x="34.17" y="33.92" width="13.33" height="13.33"/><rect class="cls-1" x="68.34" y="33.92" width="13.33" height="13.33"/><rect class="cls-1" x="102.5" y="33.92" width="13.33" height="13.33"/><rect class="cls-1" x="136.67" y="33.92" width="13.33" height="13.33"/><rect class="cls-1" y="67.83" width="13.33" height="13.33"/><rect class="cls-1" x="34.17" y="67.83" width="13.33" height="13.33"/><rect class="cls-1" x="68.34" y="67.83" width="13.33" height="13.33"/><rect class="cls-1" x="102.5" y="67.83" width="13.33" height="13.33"/><rect class="cls-1" x="136.67" y="67.83" width="13.33" height="13.33"/><rect class="cls-1" y="101.75" width="13.33" height="13.33"/><rect class="cls-1" x="34.17" y="101.75" width="13.33" height="13.33"/><rect class="cls-1" x="68.34" y="101.75" width="13.33" height="13.33"/><rect class="cls-1" x="102.5" y="101.75" width="13.33" height="13.33"/><rect class="cls-1" x="136.67" y="101.75" width="13.33" height="13.33"/><rect class="cls-1" y="135.67" width="13.33" height="13.33"/><rect class="cls-1" x="34.17" y="135.67" width="13.33" height="13.33"/><rect class="cls-1" x="68.34" y="135.67" width="13.33" height="13.33"/><rect class="cls-1" x="102.5" y="135.67" width="13.33" height="13.33"/><rect class="cls-1" x="136.67" y="135.67" width="13.33" height="13.33"/></g></g></svg>