<svg xmlns="http://www.w3.org/2000/svg" viewBox="0 0 260.13 258.39"><defs><style>.cls-1{opacity:0.3;}.cls-2{fill:#9d7cb7;}</style></defs><g id="Layer_2" data-name="Layer 2"><g id="Layer_1-2" data-name="Layer 1"><g class="cls-1"><rect class="cls-2" width="23.12" height="23.12"/><rect class="cls-2" x="59.26" width="23.12" height="23.12"/><rect class="cls-2" x="118.51" width="23.12" height="23.12"/><rect class="cls-2" x="177.76" width="23.12" height="23.12"/><rect class="cls-2" x="237.01" width="23.12" height="23.12"/><rect class="cls-2" y="58.82" width="23.12" height="23.12"/><rect class="cls-2" x="59.26" y="58.82" width="23.12" height="23.12"/><rect class="cls-2" x="118.51" y="58.82" width="23.12" height="23.12"/><rect class="cls-2" x="177.76" y="58.82" width="23.12" height="23.12"/><rect class="cls-2" x="237.01" y="58.82" width="23.12" height="23.12"/><rect class="cls-2" y="117.64" width="23.12" height="23.12"/><rect class="cls-2" x="59.26" y="117.64" width="23.12" height="23.12"/><rect class="cls-2" x="118.51" y="117.64" width="23.12" height="23.12"/><rect class="cls-2" x="177.76" y="117.64" width="23.12" height="23.12"/><rect class="cls-2" x="237.01" y="117.64" width="23.12" height="23.12"/><rect class="cls-2" y="176.45" width="23.12" height="23.12"/><rect class="cls-2" x="59.26" y="176.45" width="23.12" height="23.12"/><rect class="cls-2" x="118.51" y="176.45" width="23.12" height="23.12"/><rect class="cls-2" x="177.76" y="176.45" width="23.12" height="23.12"/><rect class="cls-2" x="237.01" y="176.45" width="23.12" height="23.12"/><rect class="cls-2" y="235.28" width="23.12" height="23.12"/><rect class="cls-2" x="59.26" y="235.28" width="23.12" height="23.12"/><rect class="cls-2" x="118.51" y="235.28" width="23.12" height="23.12"/><rect class="cls-2" x="177.76" y="235.28" width="23.12" height="23.12"/><rect class="cls-2" x="237.01" y="235.28" width="23.12" height="23.12"/></g></g></g></svg>