<svg xmlns="http://www.w3.org/2000/svg" viewBox="0 0 150 148.44"><defs><style>.cls-1{fill:#f2bf4b;}</style></defs><g id="Layer_2" data-name="Layer 2"><g id="Layer_1-2" data-name="Layer 1"><g id="Group_74" data-name="Group 74"><path id="Path_63" data-name="Path 63" class="cls-1" d="M146.17,61.13a3.82,3.82,0,0,1-2.7-1.12l-5.72-5.72a3.74,3.74,0,0,0-5.27,0,11.37,11.37,0,0,1-16.08,0h0l-.27-.28a3.83,3.83,0,0,0-5.27,0l-.3.3a11.37,11.37,0,0,1-16.08,0L94.18,54a3.84,3.84,0,0,0-5.26,0l-.38.39a11.38,11.38,0,0,1-16.09,0l-.28-.28a3.8,3.8,0,0,0-5.26,0l-.3.29a11.37,11.37,0,0,1-16.08,0L50.05,54a3.78,3.78,0,0,0-5.26,0l-.39.38a11.38,11.38,0,0,1-16.09,0l-.18-.18a3.79,3.79,0,0,0-5.27,0l-.2.19a11.37,11.37,0,0,1-16.08,0L1.25,49a3.83,3.83,0,0,1,5.41-5.41L12,48.88a3.84,3.84,0,0,0,5.26,0l.2-.2a11.37,11.37,0,0,1,16.08,0l.19.19a3.83,3.83,0,0,0,5.27,0l.38-.39a11.38,11.38,0,0,1,16.09,0l.47.47a3.79,3.79,0,0,0,5.27,0l.3-.29a11.36,11.36,0,0,1,16.07,0l.28.27a3.79,3.79,0,0,0,5.27,0l.39-.38a11.37,11.37,0,0,1,16.07,0h0l.29.29a3.8,3.8,0,0,0,5.26,0l.3-.3a11.39,11.39,0,0,1,16.08,0l.28.28a3.79,3.79,0,0,0,5.27,0,11.4,11.4,0,0,1,16.09,0l5.73,5.73a3.83,3.83,0,0,1-2.71,6.53"/><path id="Path_64" data-name="Path 64" class="cls-1" d="M146.17,82.92a3.85,3.85,0,0,1-2.7-1.11l-5.72-5.73a3.74,3.74,0,0,0-5.27,0,11.38,11.38,0,0,1-16.09,0l-.28-.28a3.71,3.71,0,0,0-5.26,0l-.29.29a11.4,11.4,0,0,1-16.09,0l-.29-.29a3.72,3.72,0,0,0-5.26,0l-.38.38a11.38,11.38,0,0,1-16.09,0l-.29-.28a3.82,3.82,0,0,0-5.26,0l-.3.29a11.39,11.39,0,0,1-16.08,0l-.47-.48a3.74,3.74,0,0,0-5.27,0l-.39.39a11.39,11.39,0,0,1-16.08,0l-.2-.2a3.74,3.74,0,0,0-5.26,0l-.19.2a11.4,11.4,0,0,1-16.09,0L1.25,70.75a3.83,3.83,0,1,1,5.41-5.42L12,70.65a3.72,3.72,0,0,0,5.26,0l.19-.19a11.38,11.38,0,0,1,16.09,0l.2.19a3.72,3.72,0,0,0,5.26,0l.38-.39a11.4,11.4,0,0,1,16.09,0l.48.49a3.72,3.72,0,0,0,5.26,0l.29-.3a11.39,11.39,0,0,1,16.08,0l.29.29a3.72,3.72,0,0,0,5.26,0l.39-.39a11.39,11.39,0,0,1,16.08,0l.3.3a3.71,3.71,0,0,0,5.25,0l.29-.3a11.4,11.4,0,0,1,16.09,0l.28.29a3.72,3.72,0,0,0,5.26,0,11.38,11.38,0,0,1,16.09,0l5.73,5.72a3.83,3.83,0,0,1-2.7,6.54"/><path id="Path_65" data-name="Path 65" class="cls-1" d="M146.17,18.83a3.86,3.86,0,0,1-2.7-1.12L137.75,12a3.75,3.75,0,0,0-5.27,0,11.36,11.36,0,0,1-16.08,0h0l-.27-.27a3.83,3.83,0,0,0-5.27,0l-.3.3a11.39,11.39,0,0,1-16.08,0l-.29-.29a3.82,3.82,0,0,0-5.26,0l-.38.38a11.38,11.38,0,0,1-16.09,0l-.28-.28a3.8,3.8,0,0,0-5.26,0l-.3.3a11.39,11.39,0,0,1-16.08,0l-.48-.48a3.8,3.8,0,0,0-5.26,0L44.4,12a11.38,11.38,0,0,1-16.09,0l-.18-.19a3.79,3.79,0,0,0-5.27,0l-.2.19A11.37,11.37,0,0,1,6.58,12L1.25,6.66A3.83,3.83,0,0,1,6.41,1a3,3,0,0,1,.25.25L12,6.57a3.82,3.82,0,0,0,5.26,0l.2-.19a11.37,11.37,0,0,1,16.08,0l.19.18a3.83,3.83,0,0,0,5.27,0l.38-.38a11.38,11.38,0,0,1,16.09,0l.47.47a3.81,3.81,0,0,0,5.27,0l.3-.3a11.36,11.36,0,0,1,16.07,0l.28.28a3.81,3.81,0,0,0,5.27,0l.39-.39a11.37,11.37,0,0,1,16.07,0h0l.29.29a3.8,3.8,0,0,0,5.26,0l.3-.3a11.37,11.37,0,0,1,16.08,0l.28.28a3.79,3.79,0,0,0,5.27,0,11.4,11.4,0,0,1,16.09,0l5.73,5.72a3.84,3.84,0,0,1-2.71,6.54"/><path id="Path_66" data-name="Path 66" class="cls-1" d="M146.17,40.62a3.82,3.82,0,0,1-2.7-1.12l-5.73-5.72a3.71,3.71,0,0,0-5.26,0,11.4,11.4,0,0,1-16.09,0l-.28-.29a3.74,3.74,0,0,0-5.27,0l-.29.29a11.37,11.37,0,0,1-16.08,0l-.3-.29a3.71,3.71,0,0,0-5.25,0l-.39.38a11.38,11.38,0,0,1-16.09,0l-.28-.28a3.83,3.83,0,0,0-5.27,0l-.29.29a11.39,11.39,0,0,1-16.08,0L50,33.4a3.74,3.74,0,0,0-5.27,0l-.38.39a11.4,11.4,0,0,1-16.09,0l-.19-.2a3.72,3.72,0,0,0-5.26,0l-.19.2a11.4,11.4,0,0,1-16.09,0L1.25,28.45A3.83,3.83,0,0,1,6.66,23L12,28.36a3.72,3.72,0,0,0,5.26,0l.19-.19a11.38,11.38,0,0,1,16.09,0l.2.19a3.72,3.72,0,0,0,5.26,0l.38-.38a11.38,11.38,0,0,1,16.09,0l.48.48a3.72,3.72,0,0,0,5.26,0l.29-.3a11.39,11.39,0,0,1,16.08,0l.29.29a3.72,3.72,0,0,0,5.26,0l.39-.39a11.39,11.39,0,0,1,16.08,0l.3.3a3.71,3.71,0,0,0,5.25,0l.29-.3a11.4,11.4,0,0,1,16.09,0l.28.29a3.72,3.72,0,0,0,5.26,0,11.38,11.38,0,0,1,16.09,0l5.73,5.72a3.83,3.83,0,0,1-2.7,6.54"/><path id="Path_67" data-name="Path 67" class="cls-1" d="M146.17,105a3.82,3.82,0,0,1-2.7-1.12l-5.73-5.72a3.82,3.82,0,0,0-5.26,0,11.4,11.4,0,0,1-16.09,0l-.28-.28a3.83,3.83,0,0,0-5.27,0l-.29.29a11.39,11.39,0,0,1-16.08,0l-.3-.29a3.83,3.83,0,0,0-5.25,0l-.39.38a11.38,11.38,0,0,1-16.09,0L72.16,98a3.83,3.83,0,0,0-5.27,0l-.29.29a11.39,11.39,0,0,1-16.08,0L50,97.77a3.74,3.74,0,0,0-5.27,0l-.38.38a11.38,11.38,0,0,1-16.09,0L28.11,98a3.84,3.84,0,0,0-5.26,0l-.19.19a11.38,11.38,0,0,1-16.09,0L1.25,92.82a3.83,3.83,0,0,1,5.41-5.41L12,92.73a3.72,3.72,0,0,0,5.26,0l.19-.19a11.38,11.38,0,0,1,16.09,0l.2.19a3.72,3.72,0,0,0,5.26,0l.38-.38a11.38,11.38,0,0,1,16.09,0l.48.48a3.72,3.72,0,0,0,5.26,0l.29-.3a11.37,11.37,0,0,1,16.08,0l.29.29a3.72,3.72,0,0,0,5.26,0l.39-.38a11.35,11.35,0,0,1,16.08,0l.3.29a3.71,3.71,0,0,0,5.25,0l.29-.29a11.38,11.38,0,0,1,16.09,0l.28.28a3.72,3.72,0,0,0,5.26,0,11.38,11.38,0,0,1,16.09,0l5.73,5.72a3.83,3.83,0,0,1-2.7,6.54"/><path id="Path_68" data-name="Path 68" class="cls-1" d="M146.17,126.71a3.82,3.82,0,0,1-2.7-1.12l-5.72-5.73a3.74,3.74,0,0,0-5.27,0,11.36,11.36,0,0,1-16.08,0h0l-.27-.27a3.83,3.83,0,0,0-5.27,0l-.3.3a11.39,11.39,0,0,1-16.08,0l-.29-.29a3.82,3.82,0,0,0-5.26,0l-.38.38a11.36,11.36,0,0,1-16.09,0l-.28-.28a3.83,3.83,0,0,0-5.27,0l-.29.29a11.37,11.37,0,0,1-16.08,0l-.48-.47a3.83,3.83,0,0,0-5.27,0l-.39.38a11.37,11.37,0,0,1-16.08,0l-.19-.19a3.72,3.72,0,0,0-5.26,0l-.19.19a11.36,11.36,0,0,1-16.09,0l-5.33-5.36a3.83,3.83,0,0,1,5.41-5.41L12,114.45a3.82,3.82,0,0,0,5.26,0l.19-.19a11.38,11.38,0,0,1,16.09,0l.2.19a3.82,3.82,0,0,0,5.26,0l.38-.39a11.4,11.4,0,0,1,16.09,0l.47.48a3.81,3.81,0,0,0,5.27,0l.29-.3a11.39,11.39,0,0,1,16.08,0l.29.28a3.8,3.8,0,0,0,5.26,0l.4-.38a11.36,11.36,0,0,1,16.07,0h0l.29.29a3.82,3.82,0,0,0,5.26,0l.3-.3a11.36,11.36,0,0,1,16.07,0l.28.28a3.79,3.79,0,0,0,5.27,0,11.4,11.4,0,0,1,16.09,0l5.73,5.73a3.83,3.83,0,0,1-2.71,6.53"/><path id="Path_69" data-name="Path 69" class="cls-1" d="M146.17,148.44a3.85,3.85,0,0,1-2.7-1.13l-5.72-5.73a3.75,3.75,0,0,0-5.27,0,11.36,11.36,0,0,1-16.08,0h0l-.27-.27a3.83,3.83,0,0,0-5.27,0l-.3.3a11.37,11.37,0,0,1-16.08,0h0l-.29-.29a3.84,3.84,0,0,0-5.26,0l-.38.39a11.37,11.37,0,0,1-16.08,0h0l-.28-.28a3.8,3.8,0,0,0-5.26,0l-.3.3a11.37,11.37,0,0,1-16.08,0h0l-.48-.47a3.78,3.78,0,0,0-5.26,0l-.39.38a11.36,11.36,0,0,1-16.08,0h0l-.18-.18a3.83,3.83,0,0,0-5.27,0l-.2.2a11.37,11.37,0,0,1-16.08,0h0l-5.33-5.4a3.83,3.83,0,0,1,5.41-5.41L12,136.18a3.84,3.84,0,0,0,5.26,0l.2-.2a11.37,11.37,0,0,1,16.08,0l.19.18a3.83,3.83,0,0,0,5.27,0l.38-.39a11.37,11.37,0,0,1,16.08,0h0l.47.48a3.81,3.81,0,0,0,5.27,0l.3-.3a11.36,11.36,0,0,1,16.07,0l.28.28a3.81,3.81,0,0,0,5.27,0l.39-.39a11.37,11.37,0,0,1,16.08,0h0l.29.29a3.84,3.84,0,0,0,5.26,0l.3-.3a11.37,11.37,0,0,1,16.08,0l.28.28a3.79,3.79,0,0,0,5.27,0,11.38,11.38,0,0,1,16.09,0l5.73,5.73a3.83,3.83,0,0,1-2.71,6.53"/></g></g></g></svg>