<svg xmlns="http://www.w3.org/2000/svg" viewBox="0 0 150 150"><defs><style>.cls-1{fill:#ca9f81;}</style></defs><g id="Layer_2" data-name="Layer 2"><g id="Layer_1-2" data-name="Layer 1"><g id="Group_73" data-name="Group 73"><path id="Path_143" data-name="Path 143" class="cls-1" d="M75,150a75,75,0,1,1,75-75,75,75,0,0,1-75,75M75,6.25A68.75,68.75,0,1,0,143.75,75h0A68.84,68.84,0,0,0,75,6.24"/><path id="Path_144" data-name="Path 144" class="cls-1" d="M75,134.69A59.69,59.69,0,1,1,134.7,75,59.69,59.69,0,0,1,75,134.69M75,21.55A53.45,53.45,0,1,0,128.45,75,53.45,53.45,0,0,0,75,21.55"/><path id="Path_145" data-name="Path 145" class="cls-1" d="M75,119.39A44.39,44.39,0,1,1,119.39,75,44.38,44.38,0,0,1,75,119.39m0-82.53A38.15,38.15,0,1,0,113.15,75h0A38.19,38.19,0,0,0,75,36.86"/><path id="Path_146" data-name="Path 146" class="cls-1" d="M75,104.09A29.1,29.1,0,1,1,104.09,75h0A29.12,29.12,0,0,1,75,104.09m0-51.93A22.84,22.84,0,1,0,97.84,75h0A22.86,22.86,0,0,0,75,52.16"/><path id="Path_147" data-name="Path 147" class="cls-1" d="M75,88.79A13.79,13.79,0,1,1,88.79,75h0A13.81,13.81,0,0,1,75,88.79m0-21.32A7.54,7.54,0,1,0,82.54,75,7.53,7.53,0,0,0,75,67.47"/></g></g></g></svg>