<svg xmlns="http://www.w3.org/2000/svg" viewBox="0 0 150 149.73"><defs><style>.cls-1{fill:#67c2bd;}</style></defs><g id="Layer_2" data-name="Layer 2"><g id="Layer_1-2" data-name="Layer 1"><g id="Group_78" data-name="Group 78"><path id="Path_113" data-name="Path 113" class="cls-1" d="M75.68,78.93A3.82,3.82,0,0,1,73.44,72l46.28-33.49,6.53-13.22a3.82,3.82,0,1,1,7.06,2.94,2.82,2.82,0,0,1-.23.46l-6.94,14.06a3.72,3.72,0,0,1-1.18,1.4l-47,34a3.81,3.81,0,0,1-2.23.73"/><path id="Path_114" data-name="Path 114" class="cls-1" d="M122.72,44.9a3.83,3.83,0,0,1-.24-7.62l16.27-1a3.83,3.83,0,0,1,1.07,7.58,3.9,3.9,0,0,1-.59,0l-16.27,1h-.24"/><path id="Path_115" data-name="Path 115" class="cls-1" d="M145.43,71.16a3.73,3.73,0,0,1-.94-.12L101.11,60A3.83,3.83,0,0,1,103,52.64l43.36,11a3.83,3.83,0,0,1-.94,7.51"/><path id="Path_116" data-name="Path 116" class="cls-1" d="M131.36,67.77a3.83,3.83,0,0,1-2.49-6.7l11-9.48a3.82,3.82,0,0,1,5,5.77l-11,9.49a3.83,3.83,0,0,1-2.49.92"/><path id="Path_117" data-name="Path 117" class="cls-1" d="M101.86,59.35h-.25a3.81,3.81,0,0,1-3.55-4.05L101,10.64a3.83,3.83,0,0,1,7.61.49l-2.9,44.67a3.81,3.81,0,0,1-3.8,3.56"/><path id="Path_118" data-name="Path 118" class="cls-1" d="M103.65,29.12a3.83,3.83,0,0,1-2-7.07l12.44-7.55a3.83,3.83,0,0,1,4.51,6.18,4,4,0,0,1-.56.34l-12.42,7.55a3.8,3.8,0,0,1-2,.55"/><path id="Path_119" data-name="Path 119" class="cls-1" d="M75.66,78.93A3.81,3.81,0,0,1,72,76.3L54.33,22,43.74,11.75A3.83,3.83,0,0,1,49,6.28L60.31,17.2a3.83,3.83,0,0,1,1,1.55L79.3,74a3.82,3.82,0,0,1-2.47,4.81,3.74,3.74,0,0,1-1.15.18"/><path id="Path_120" data-name="Path 120" class="cls-1" d="M57.66,23.74a3.83,3.83,0,0,1-3.81-3.84A4.06,4.06,0,0,1,54,19L58,3.19a3.82,3.82,0,1,1,7.54,1.27,3.76,3.76,0,0,1-.15.6l-4,15.8a3.82,3.82,0,0,1-3.69,2.88"/><path id="Path_121" data-name="Path 121" class="cls-1" d="M65.85,48.08a3.83,3.83,0,0,1-3.8-3.85,4,4,0,0,1,.57-2L86.38,4.31a3.82,3.82,0,1,1,6.8,3.5,3.87,3.87,0,0,1-.34.55L69.08,46.29a3.85,3.85,0,0,1-3.23,1.79"/><path id="Path_122" data-name="Path 122" class="cls-1" d="M82.08,22.51a3.83,3.83,0,0,1-3.52-2.33L72.9,6.79a3.82,3.82,0,0,1,7-3L85.59,17.2a3.84,3.84,0,0,1-2.06,5,3.79,3.79,0,0,1-1.45.29"/><path id="Path_123" data-name="Path 123" class="cls-1" d="M65,48a4.19,4.19,0,0,1-1.4-.27L22,31.32A3.82,3.82,0,1,1,24.19,24a3.61,3.61,0,0,1,.62.24L66.44,40.66A3.82,3.82,0,0,1,65,48"/><path id="Path_124" data-name="Path 124" class="cls-1" d="M36.8,37.07a3.83,3.83,0,0,1-3.7-2.93L29.7,20A3.82,3.82,0,0,1,37,17.59a3.5,3.5,0,0,1,.15.64l3.4,14.13A3.83,3.83,0,0,1,37.67,37a3.7,3.7,0,0,1-.87.11"/><path id="Path_125" data-name="Path 125" class="cls-1" d="M3.78,86.6A3.83,3.83,0,0,1,2,79.42L15.81,72a3.71,3.71,0,0,1,1.78-.45l58.07-.28h0a3.83,3.83,0,0,1,0,7.63l-57.12.27-13,6.94a3.9,3.9,0,0,1-1.8.45"/><path id="Path_126" data-name="Path 126" class="cls-1" d="M17.61,79.21a3.82,3.82,0,0,1-2-.58L1.77,70a3.82,3.82,0,0,1,4.05-6.46l13.82,8.64a3.83,3.83,0,0,1-2,7"/><path id="Path_127" data-name="Path 127" class="cls-1" d="M43.3,78.85a3.8,3.8,0,0,1-2.92-1.35L11.53,43.28a3.83,3.83,0,0,1,5.83-4.91L46.21,72.58a3.83,3.83,0,0,1-.5,5.39,3.87,3.87,0,0,1-2.42.88"/><path id="Path_128" data-name="Path 128" class="cls-1" d="M9.43,56.88a3.83,3.83,0,0,1-.33-7.61L23.57,48a3.83,3.83,0,0,1,1.3,7.54,3.15,3.15,0,0,1-.61.06L9.78,56.87H9.44"/><path id="Path_129" data-name="Path 129" class="cls-1" d="M14.62,114.22a3.82,3.82,0,0,1-3.79-3.86,3.74,3.74,0,0,1,.85-2.37L40,73.38a3.82,3.82,0,0,1,5.9,4.83L17.57,112.82a3.81,3.81,0,0,1-3,1.4"/><path id="Path_130" data-name="Path 130" class="cls-1" d="M23.93,103.14h-.3L9.14,102.05a3.83,3.83,0,1,1,0-7.65,4.17,4.17,0,0,1,.61,0l14.5,1.1a3.82,3.82,0,0,1-.28,7.61"/><path id="Path_131" data-name="Path 131" class="cls-1" d="M61,149.73a3.83,3.83,0,0,1-3.75-3.13l-2.8-15.44a3.87,3.87,0,0,1,.11-1.82L72,74a3.82,3.82,0,1,1,7.46,1.69,3.31,3.31,0,0,1-.19.61l-17.2,54.48,2.64,14.5a3.82,3.82,0,0,1-3.07,4.43,3.91,3.91,0,0,1-.68.06"/><path id="Path_132" data-name="Path 132" class="cls-1" d="M45.72,144.81a3.83,3.83,0,0,1-2.46-6.73l12.46-10.51a3.83,3.83,0,0,1,4.92,5.83L48.17,143.91a3.82,3.82,0,0,1-2.46.9"/><path id="Path_133" data-name="Path 133" class="cls-1" d="M24.3,126.74a3.82,3.82,0,0,1-1.45-7.34l41.39-17a3.83,3.83,0,0,1,2.9,7.06l-41.39,17a3.79,3.79,0,0,1-1.45.29"/><path id="Path_134" data-name="Path 134" class="cls-1" d="M34.43,135.26a4,4,0,0,1-.85-.09,3.84,3.84,0,0,1-2.89-4.56l3.2-14.18a3.82,3.82,0,1,1,7.57,1.06,3.42,3.42,0,0,1-.13.62l-3.2,14.18a3.82,3.82,0,0,1-3.71,3"/><path id="Path_135" data-name="Path 135" class="cls-1" d="M90.6,147.86a3.84,3.84,0,0,1-3.21-1.74L63.11,108.53a3.83,3.83,0,0,1,6.4-4.14L93.8,142a3.83,3.83,0,0,1-1.17,5.28,3.76,3.76,0,0,1-2,.6"/><path id="Path_136" data-name="Path 136" class="cls-1" d="M77.42,149.08a3.84,3.84,0,0,1-3.81-3.85,3.93,3.93,0,0,1,.28-1.4l5.48-13.47a3.83,3.83,0,0,1,7.06,2.88L80.94,146.7a3.84,3.84,0,0,1-3.53,2.38"/><path id="Path_137" data-name="Path 137" class="cls-1" d="M138.59,114.56l-.5,0-15.55-2.06a3.8,3.8,0,0,1-1.7-.67L73.48,78.22a3.82,3.82,0,0,1,3.86-6.6,3,3,0,0,1,.55.39l46.6,33L139.1,107a3.82,3.82,0,0,1-.49,7.59"/><path id="Path_138" data-name="Path 138" class="cls-1" d="M129.24,127.6a3.84,3.84,0,0,1-3.53-2.37l-6.18-15.07a3.82,3.82,0,0,1,7-2.9l6.19,15.08a3.82,3.82,0,0,1-3.52,5.26"/><path id="Path_139" data-name="Path 139" class="cls-1" d="M105.48,142.47a3.83,3.83,0,0,1-3.8-3.51L98.15,94.33a3.83,3.83,0,1,1,7.55-1.24,2.72,2.72,0,0,1,0,.64l3.53,44.63a3.83,3.83,0,0,1-3.5,4.1h-.3"/><path id="Path_140" data-name="Path 140" class="cls-1" d="M116.69,135.44a3.74,3.74,0,0,1-1.93-.53l-12.53-7.37a3.82,3.82,0,0,1,3.86-6.57l12.53,7.37a3.83,3.83,0,0,1-1.94,7.1"/><path id="Path_141" data-name="Path 141" class="cls-1" d="M102.64,97.43a3.83,3.83,0,0,1-1-7.5l43.22-11.61a3.82,3.82,0,1,1,2.61,7.19,3.68,3.68,0,0,1-.63.17L103.63,97.3a4.14,4.14,0,0,1-1,.13"/><path id="Path_142" data-name="Path 142" class="cls-1" d="M143,98.72a3.9,3.9,0,0,1-2.45-.89L129.4,88.51a3.82,3.82,0,0,1,4.89-5.84L145.43,92A3.82,3.82,0,0,1,143,98.75"/></g></g></g></svg>