<svg xmlns="http://www.w3.org/2000/svg" viewBox="0 0 260.13 257.41"><defs><style>.cls-1{opacity:0.3;}.cls-2{fill:#f2bf4b;}</style></defs><g id="Layer_2" data-name="Layer 2"><g id="Layer_1-2" data-name="Layer 1"><g id="Group_74" data-name="Group 74" class="cls-1"><path id="Path_63" data-name="Path 63" class="cls-2" d="M253.49,106a6.61,6.61,0,0,1-4.69-2l-9.92-9.92a6.46,6.46,0,0,0-9.13,0,19.72,19.72,0,0,1-27.89,0h0l-.48-.48a6.64,6.64,0,0,0-9.14,0l-.51.52a19.74,19.74,0,0,1-27.89,0l-.5-.51a6.66,6.66,0,0,0-9.12,0l-.67.68a19.74,19.74,0,0,1-27.9,0l-.48-.49a6.59,6.59,0,0,0-9.13,0l-.52.51a19.73,19.73,0,0,1-27.88,0l-.83-.83a6.59,6.59,0,0,0-9.13,0l-.67.67a19.72,19.72,0,0,1-27.9,0l-.32-.32a6.6,6.6,0,0,0-9.14,0l-.35.34a19.71,19.71,0,0,1-27.88,0L2.16,84.91a6.64,6.64,0,0,1,9.39-9.38l9.23,9.23a6.64,6.64,0,0,0,9.12,0l.34-.34a19.72,19.72,0,0,1,27.89,0l.33.33a6.65,6.65,0,0,0,9.13,0l.68-.67a19.71,19.71,0,0,1,27.88,0l.83.82a6.59,6.59,0,0,0,9.13,0l.52-.52a19.72,19.72,0,0,1,27.87,0l.49.48a6.6,6.6,0,0,0,9.14,0l.68-.67a19.71,19.71,0,0,1,27.87,0h0l.5.51a6.61,6.61,0,0,0,9.13,0l.52-.52a19.73,19.73,0,0,1,27.88,0l.49.49a6.59,6.59,0,0,0,9.13,0,19.75,19.75,0,0,1,27.9,0l9.94,9.92a6.65,6.65,0,0,1-4.7,11.34"/><path id="Path_64" data-name="Path 64" class="cls-2" d="M253.49,143.81a6.64,6.64,0,0,1-4.69-1.94l-9.92-9.93a6.46,6.46,0,0,0-9.13,0,19.75,19.75,0,0,1-27.9,0l-.5-.49a6.45,6.45,0,0,0-9.12,0l-.51.5a19.74,19.74,0,0,1-27.89,0l-.51-.5a6.45,6.45,0,0,0-9.11,0l-.67.67a19.77,19.77,0,0,1-27.91,0l-.48-.5a6.66,6.66,0,0,0-9.14,0l-.51.51a19.74,19.74,0,0,1-27.89,0l-.82-.83a6.47,6.47,0,0,0-9.14,0L77,132a19.75,19.75,0,0,1-27.9,0l-.34-.34a6.46,6.46,0,0,0-9.12,0l-.33.34a19.75,19.75,0,0,1-27.9,0L2.16,122.7a6.65,6.65,0,0,1,9.39-9.41l9.23,9.23a6.45,6.45,0,0,0,9.12,0l.33-.33a19.74,19.74,0,0,1,27.9,0l.34.33a6.45,6.45,0,0,0,9.12,0l.67-.67a19.76,19.76,0,0,1,27.89,0l.84.84a6.46,6.46,0,0,0,9.12,0l.51-.51a19.73,19.73,0,0,1,27.88,0l.51.49a6.45,6.45,0,0,0,9.12,0l.67-.67a19.74,19.74,0,0,1,27.89,0l.51.52a6.46,6.46,0,0,0,9.12,0l.5-.51a19.74,19.74,0,0,1,27.89,0l.5.49a6.46,6.46,0,0,0,9.13,0,19.75,19.75,0,0,1,27.9,0l9.93,9.93a6.64,6.64,0,0,1-4.69,11.33"/><path id="Path_65" data-name="Path 65" class="cls-2" d="M253.49,32.65a6.64,6.64,0,0,1-4.69-1.94l-9.92-9.93a6.48,6.48,0,0,0-9.13,0,19.72,19.72,0,0,1-27.89,0h0l-.48-.48a6.66,6.66,0,0,0-9.14,0l-.51.52a19.72,19.72,0,0,1-27.89,0l-.5-.5a6.64,6.64,0,0,0-9.12,0l-.67.67a19.74,19.74,0,0,1-27.9,0l-.48-.49a6.59,6.59,0,0,0-9.13,0l-.52.51a19.71,19.71,0,0,1-27.88,0l-.83-.83a6.61,6.61,0,0,0-9.13,0l-.67.68a19.74,19.74,0,0,1-27.9,0l-.32-.33a6.6,6.6,0,0,0-9.14,0l-.35.34a19.71,19.71,0,0,1-27.88,0L2.16,11.54a6.64,6.64,0,0,1,9-9.8c.15.13.29.28.43.42l9.23,9.24a6.66,6.66,0,0,0,9.12,0l.34-.34a19.72,19.72,0,0,1,27.89,0l.33.32a6.63,6.63,0,0,0,9.13,0l.68-.67a19.71,19.71,0,0,1,27.88,0l.83.82a6.59,6.59,0,0,0,9.13,0l.52-.52a19.72,19.72,0,0,1,27.87,0l.49.48a6.6,6.6,0,0,0,9.14,0l.68-.67a19.7,19.7,0,0,1,27.87,0h0l.5.5a6.61,6.61,0,0,0,9.13,0l.52-.51a19.71,19.71,0,0,1,27.88,0l.49.48a6.57,6.57,0,0,0,9.13,0,19.77,19.77,0,0,1,27.9,0l9.94,9.93a6.64,6.64,0,0,1-4.7,11.33"/><path id="Path_66" data-name="Path 66" class="cls-2" d="M253.49,70.44a6.64,6.64,0,0,1-4.69-1.94l-9.93-9.93a6.48,6.48,0,0,0-9.13,0,19.75,19.75,0,0,1-27.9,0l-.49-.49a6.46,6.46,0,0,0-9.13,0l-.5.51a19.77,19.77,0,0,1-27.9,0l-.51-.52a6.47,6.47,0,0,0-9.11,0l-.67.67a19.75,19.75,0,0,1-27.9,0l-.49-.49a6.64,6.64,0,0,0-9.14,0l-.51.51a19.75,19.75,0,0,1-27.88,0l-.83-.84a6.47,6.47,0,0,0-9.14,0L77,58.6a19.75,19.75,0,0,1-27.9,0l-.33-.34a6.46,6.46,0,0,0-9.12,0l-.34.34a19.75,19.75,0,0,1-27.9,0L2.16,49.33A6.64,6.64,0,0,1,11.55,40l9.23,9.24a6.46,6.46,0,0,0,9.12,0l.33-.34a19.74,19.74,0,0,1,27.9,0l.34.34a6.46,6.46,0,0,0,9.12,0l.67-.68a19.76,19.76,0,0,1,27.89,0l.84.84a6.46,6.46,0,0,0,9.12,0l.51-.51a19.73,19.73,0,0,1,27.88,0l.51.49a6.45,6.45,0,0,0,9.12,0l.67-.67a19.74,19.74,0,0,1,27.89,0l.51.52a6.46,6.46,0,0,0,9.12,0l.5-.51a19.74,19.74,0,0,1,27.89,0l.5.49a6.46,6.46,0,0,0,9.13,0,19.75,19.75,0,0,1,27.9,0l9.93,9.93a6.64,6.64,0,0,1-4.69,11.33"/><path id="Path_67" data-name="Path 67" class="cls-2" d="M253.49,182.06a6.64,6.64,0,0,1-4.69-1.94l-9.93-9.93a6.65,6.65,0,0,0-9.13,0,19.75,19.75,0,0,1-27.9,0l-.49-.49a6.65,6.65,0,0,0-9.13,0l-.5.51a19.75,19.75,0,0,1-27.9,0l-.51-.51a6.64,6.64,0,0,0-9.11,0l-.67.67a19.75,19.75,0,0,1-27.9,0l-.49-.49a6.64,6.64,0,0,0-9.14,0l-.51.51a19.75,19.75,0,0,1-27.88,0l-.83-.84a6.49,6.49,0,0,0-9.14,0l-.66.67a19.75,19.75,0,0,1-27.9,0l-.33-.33a6.64,6.64,0,0,0-9.12,0l-.34.33a19.75,19.75,0,0,1-27.9,0L2.16,161a6.64,6.64,0,0,1,9.39-9.38l9.23,9.24a6.46,6.46,0,0,0,9.12,0l.33-.34a19.74,19.74,0,0,1,27.9,0l.34.34a6.46,6.46,0,0,0,9.12,0l.67-.68a19.76,19.76,0,0,1,27.89,0L97,161a6.46,6.46,0,0,0,9.12,0l.51-.51a19.71,19.71,0,0,1,27.88,0l.51.49a6.45,6.45,0,0,0,9.12,0l.67-.66a19.72,19.72,0,0,1,27.89,0l.51.51a6.46,6.46,0,0,0,9.12,0l.5-.51a19.72,19.72,0,0,1,27.89,0l.5.49a6.46,6.46,0,0,0,9.13,0,19.74,19.74,0,0,1,27.9,0l9.93,9.93a6.64,6.64,0,0,1-4.69,11.33"/><path id="Path_68" data-name="Path 68" class="cls-2" d="M253.49,219.73a6.6,6.6,0,0,1-4.69-1.94l-9.92-9.92a6.46,6.46,0,0,0-9.13,0,19.72,19.72,0,0,1-27.89,0h0l-.48-.48a6.64,6.64,0,0,0-9.14,0l-.51.51a19.72,19.72,0,0,1-27.89,0l-.5-.5a6.64,6.64,0,0,0-9.12,0l-.67.67a19.72,19.72,0,0,1-27.9,0l-.49-.49a6.63,6.63,0,0,0-9.13,0l-.51.51a19.72,19.72,0,0,1-27.89,0l-.82-.83a6.64,6.64,0,0,0-9.14,0l-.67.67a19.72,19.72,0,0,1-27.9,0l-.33-.33a6.46,6.46,0,0,0-9.12,0l-.33.33a19.72,19.72,0,0,1-27.9,0l-9.25-9.3a6.64,6.64,0,0,1,9.39-9.38l9.23,9.23a6.64,6.64,0,0,0,9.12,0l.33-.33a19.74,19.74,0,0,1,27.9,0l.34.33a6.64,6.64,0,0,0,9.12,0l.68-.67a19.71,19.71,0,0,1,27.88,0l.83.82a6.59,6.59,0,0,0,9.13,0l.51-.52a19.75,19.75,0,0,1,27.88,0l.51.5a6.6,6.6,0,0,0,9.12,0l.68-.68a19.72,19.72,0,0,1,27.88,0h0l.5.51a6.6,6.6,0,0,0,9.12,0l.53-.51a19.71,19.71,0,0,1,27.88,0l.48.48a6.58,6.58,0,0,0,9.14,0,19.77,19.77,0,0,1,27.9,0l9.93,9.93a6.64,6.64,0,0,1-4.69,11.33"/><path id="Path_69" data-name="Path 69" class="cls-2" d="M253.49,257.41a6.64,6.64,0,0,1-4.69-1.94l-9.92-9.94a6.48,6.48,0,0,0-9.13,0,19.7,19.7,0,0,1-27.88,0l0,0-.48-.48a6.66,6.66,0,0,0-9.14,0l-.51.52a19.72,19.72,0,0,1-27.89,0h0l-.5-.49a6.64,6.64,0,0,0-9.12,0l-.67.67a19.73,19.73,0,0,1-27.89,0h0l-.48-.48a6.59,6.59,0,0,0-9.13,0l-.52.51a19.72,19.72,0,0,1-27.88,0h0L86.8,245a6.59,6.59,0,0,0-9.13,0l-.67.68a19.72,19.72,0,0,1-27.89,0h0l-.32-.33a6.64,6.64,0,0,0-9.14,0l-.35.35a19.71,19.71,0,0,1-27.88,0h0l-9.25-9.35a6.64,6.64,0,0,1,9.39-9.39l9.23,9.23a6.64,6.64,0,0,0,9.12,0l.34-.34a19.72,19.72,0,0,1,27.89,0l.33.31a6.63,6.63,0,0,0,9.13,0l.68-.67a19.71,19.71,0,0,1,27.88,0h0l.83.83a6.59,6.59,0,0,0,9.13,0l.52-.52a19.72,19.72,0,0,1,27.87,0l.49.48a6.58,6.58,0,0,0,9.14,0l.68-.67a19.71,19.71,0,0,1,27.88,0h0l.5.5a6.65,6.65,0,0,0,9.13,0l.52-.51a19.71,19.71,0,0,1,27.88,0l.49.48a6.57,6.57,0,0,0,9.13,0,19.75,19.75,0,0,1,27.9,0l9.94,9.93a6.64,6.64,0,0,1-4.7,11.33"/></g></g></g></svg>