<svg xmlns="http://www.w3.org/2000/svg" viewBox="0 0 450 113.71"><defs><style>.cls-1{fill:#242425;}</style></defs><g id="Layer_2" data-name="Layer 2"><g id="Layer_1-2" data-name="Layer 1"><g id="Group_198" data-name="Group 198"><g id="Path_1" data-name="Path 1"><path class="cls-1" d="M279.41,71.75l7.46,20.5h-15Zm-3.82-14.81-22.48,56.13h11l4.37-12.2h21.81l4.33,12.2H305.5L283.14,56.94Z"/></g><g id="Path_2" data-name="Path 2"><path class="cls-1" d="M313.21,56.94h19.48c8.53,0,18,3.89,18,15.13a12.71,12.71,0,0,1-6.24,11,15.59,15.59,0,0,1,9,13.74c0,10.45-8.78,16.29-18.32,16.29H313.22Zm20.42,22.6c3.94,0,7.75-1.39,7.75-6.91,0-4.37-3.74-6.6-8.53-6.6h-9.54V79.54Zm1.63,23.91c5.2,0,8.22-2.5,8.22-7.78a7.83,7.83,0,0,0-8.19-7.46l-.43,0H323.31v15.21Z"/></g><g id="Path_3" data-name="Path 3"><path class="cls-1" d="M363.82,56.94h19.47c8.53,0,17.95,3.89,17.95,15.13A12.68,12.68,0,0,1,395,83a15.57,15.57,0,0,1,9,13.74c0,10.45-8.78,16.29-18.31,16.29h-21.9Zm20.42,22.6c3.93,0,7.74-1.39,7.74-6.91,0-4.37-3.73-6.6-8.53-6.6h-9.53V79.54Zm1.63,23.91c5.2,0,8.22-2.5,8.22-7.78a7.84,7.84,0,0,0-8.19-7.46,3.11,3.11,0,0,0-.43,0H373.92v15.21Z"/></g><g id="Path_4" data-name="Path 4"><path class="cls-1" d="M409,97.22l10-2.54a10.69,10.69,0,0,0,11.25,10.11l.39,0c6,0,9.25-3.18,9.25-7.15,0-11.64-27.17-7.75-27.17-26,0-9.94,8.07-15.5,17.52-15.5A18.81,18.81,0,0,1,447.32,66l-8.38,5.14a10.16,10.16,0,0,0-9.05-6,6.4,6.4,0,0,0-7,5.68c0,.11,0,.21,0,.32,0,10.56,27.17,7,27.17,25.62,0,10.61-8.78,17-19.51,17-9.93,0-19.7-5.44-21.49-16.49"/></g><g id="Path_5" data-name="Path 5"><path class="cls-1" d="M173.3,0,146.22,46.86,119.14,0,92.05,46.87,65,0,0,112.45H238.28ZM119.14,18.74,140.8,56.22,119.14,93.71,97.44,56.19ZM146.22,65.6l21.66,37.48H124.55Zm-32.49,37.48H70.4L92,65.55Zm-97.49,0L65,18.74,86.66,56.21,59.57,103.08Zm162.47,0L151.64,56.22,173.3,18.74,222,103.08Z"/></g></g></g></g></svg>