<svg xmlns="http://www.w3.org/2000/svg" width="200" height="200" viewBox="0 0 200 200">
  <g id="Group_248" data-name="Group 248" transform="translate(0.363 0.125)">
    <rect id="Rectangle_332" data-name="Rectangle 332" width="200" height="200" transform="translate(-0.363 -0.125)" fill="none"/>
    <g id="Group_236" data-name="Group 236" transform="translate(28.683 31.208)">
      <path id="Path_377" data-name="Path 377" d="M2308.531,778.252c-3.247,14.905-3.623,20.816-12.476,32.3,1.829,0,3.465-.028,5.1.006a6.894,6.894,0,0,1,.153,13.786c-2.491.066-4.986.013-7.546.1a7.6,7.6,0,0,1,4.708,4.724,6.859,6.859,0,0,1-1.334,6.6c2.247,4.17,2.247,5.586-.021,9.375a7.015,7.015,0,0,1,1.61,5.592,6.9,6.9,0,0,1-6.827,5.843c-3.07.04-6.138.015-9.207,0a6.337,6.337,0,0,1-4.455-1.713,1.226,1.226,0,0,0-1.724-.246,16.135,16.135,0,0,1-8.144,1.972c-7.865-.023-15.73-.037-23.595,0a44.269,44.269,0,0,1-20.378-4.729,2.416,2.416,0,0,0-2.413-.176,3.9,3.9,0,0,1-1.68.279c-2.927.026-5.851.034-8.777.006a4.566,4.566,0,0,1-4.793-4.8q-.03-13.6,0-27.193a4.577,4.577,0,0,1,4.771-4.823c2.926-.029,5.851-.008,8.777,0a2.078,2.078,0,0,1,.992.075c1.646,1.012,2.937-.019,4.4-.562,3.8-1.412,7.664-2.655,11.595-4-.083-.121-.358-.522-.638-.921-3.346-4.787-7.142-9.326-9.945-14.413-5.733-10.4-7.713-21.594-4.982-33.343a39.133,39.133,0,0,1,33.755-29.453c2.092-.193,4.2-.239,6.443-.361v10l9.268-.973V723.074c2.877,0,5.6-.03,8.318.018a1.466,1.466,0,0,0,1.6-1.014,5.737,5.737,0,0,1,5.036-3.555c7.634-.378,15.13.252,22.226,3.453a43.576,43.576,0,0,1,16.943,13.65c2.6,3.418,5.543,6.585,8.4,9.806a2.575,2.575,0,0,0,1.721.646c3.117.059,6.236-.007,9.352.027a4.528,4.528,0,0,1,4.677,4.621q.052,11.51,0,23.02a4.516,4.516,0,0,1-4.587,4.564c-3.068.047-6.139.041-9.208,0a4.509,4.509,0,0,1-4.2-2.76,4.046,4.046,0,0,0-.645-1.093c-2.732-2.761-5.395-5.6-8.288-8.186a8.566,8.566,0,0,0-3.985-1.689,47.786,47.786,0,0,0-5.841-.438v9.472H2271.2V759.907c-1.533,0-2.912-.007-4.29,0a9.444,9.444,0,0,1-7.728-3.747,2.517,2.517,0,0,0-1.6-.82c-1.478-.113-2.971-.048-4.457-.036-2.919.023-4.983,1.959-4.961,4.64a4.639,4.639,0,0,0,4.9,4.561c2.915.02,5.831,0,8.853,0v13.741Zm-60.3,50.716c.645,0,1.124,0,1.6,0a7.661,7.661,0,0,0,7.641-5.4,2.032,2.032,0,0,1,1.936-1.51c3.076-.46,6.146-.971,9.211-1.5a2.753,2.753,0,0,0,2.546-2.939,2.716,2.716,0,0,0-3.012-2.448c-8.577,0-17.156-.09-25.731.058a36.338,36.338,0,0,0-16.485,4.451,1.617,1.617,0,0,0-.759,1.158q-.066,12.722,0,25.445a1.611,1.611,0,0,0,.725,1.178,29.957,29.957,0,0,0,11.635,3.9c6.1.465,12.237.451,18.359.637.455.014.911,0,1.826,0-5.736-5.392-5-12.123-4.934-18.54h-4.557Zm13.845-23.026v4.615c2.25,0,4.4-.038,6.552.008a7.263,7.263,0,0,1,1.338,14.382,46.913,46.913,0,0,1-6.371,1.061c-1.982.126-2.951,1.165-3.667,2.957,5.284,0,10.488.012,15.694-.03a1.347,1.347,0,0,0,.9-.69,7.253,7.253,0,0,1,5.394-3.876,1.618,1.618,0,0,0,1.036-.886,49.183,49.183,0,0,1,9.612-16.048c6.109-6.992,8.75-15.447,10.132-24.405h-40.647v4.508c1.635,0,3.2-.035,4.772.006a9.2,9.2,0,0,1-.027,18.393c-1.531.04-3.062.006-4.715.006m13.765-50.639V769h32.125v-6.1a2.5,2.5,0,0,0-.3-.18c-.4-.164-.8-.319-1.2-.481a31.141,31.141,0,0,1-15.769-13.666,7.723,7.723,0,0,1,6.592-11.683,8.732,8.732,0,0,0,.872-.117l.137-.415a46.711,46.711,0,0,0-4.88-2.612c-2.663-1.061-5.482-1.736-8.125-2.839a22.014,22.014,0,0,1-3.824-2.609c-.29-.2-.572-.574-.868-.585-1.564-.059-3.132-.028-4.85-.028V746.1c-3.025,0-5.9-.01-8.764,0-2.937.013-5,1.917-5.007,4.59s2.073,4.6,4.987,4.612c2.871.015,5.743,0,8.871,0m-18.525-18.281c-20.769,1.344-35.741,21.028-31.476,41.216h31.43v-9.125a42.965,42.965,0,0,1-4.541-.036,12.8,12.8,0,0,1-4.006-.954,9.029,9.029,0,0,1-4.9-10.312,9.177,9.177,0,0,1,8.824-7.1c1.559-.03,3.119,0,4.67,0Zm73.376,30.917.346-.187V766.2c0-5.227.031-10.453-.021-15.679a2.84,2.84,0,0,0-.71-1.84,76.95,76.95,0,0,1-9.109-10.72,35.316,35.316,0,0,0-12.438-10.673c-6.912-3.694-14.355-4.56-22.021-4.146a2.431,2.431,0,0,0-1.646,1.424c-.329.925.377,1.612,1.292,1.921,2.9.982,5.846,1.851,8.705,2.941a18.318,18.318,0,0,1,11.9,13.381,3.58,3.58,0,0,0,2.87,2.9,12.4,12.4,0,0,0,2.834.369c1.469.059,2.943.016,4.437.016v4.6c-1,0-1.908-.045-2.809.007-6.12.353-10.807-1.877-13.8-7.41a3.419,3.419,0,0,0-4.847-1.291c-1.58,1.005-1.92,2.826-.764,4.659,5.268,8.362,12.865,12.815,22.73,13.2a12.291,12.291,0,0,1,8.964,3.855c1.343,1.426,2.722,2.817,4.086,4.223m-73.3,15.071h-30.667c.1.464.167.84.273,1.2a44.227,44.227,0,0,0,6.539,13.662c2.632,3.653,5.442,7.178,8.025,10.864a3.9,3.9,0,0,0,3.773,1.854c3.96-.131,7.928-.042,12.047-.042v-9.208c3.069,0,5.986.065,8.9-.037a6.228,6.228,0,0,0,2.833-.8,4.334,4.334,0,0,0,1.882-5,4.528,4.528,0,0,0-4.341-3.358c-3.051-.045-6.1-.011-9.26-.011Zm-45.965,64.259h9.036V819.827h-9.036Zm133.315-96.453h-9.027v22.839h9.027ZM2257.6,842.782a11.381,11.381,0,0,0,7.085,8.377,10.979,10.979,0,0,0,10.655-1.235,1.377,1.377,0,0,0,.447-.678c.5-1.418.966-2.847,1.509-4.462a14.323,14.323,0,0,0-.884-1.448,1.3,1.3,0,0,0-.852-.531c-5.934-.031-11.868-.023-17.96-.023m19.75-6.843c-.493-2.369-2.128-2.437-4.016-2.4-4.788.1-9.579.032-14.37.032h-1.476v4.6c5.385,0,10.654-.078,15.919.041,1.943.043,3.478-.155,3.942-2.278m9.948-2.37c1.487,0,2.973.032,4.459-.009a2.293,2.293,0,1,0,0-4.578q-4.459-.055-8.917,0a2.293,2.293,0,1,0,0,4.578c1.485.041,2.972.009,4.458.009m.113,4.608c-1.486,0-2.973-.023-4.458.006a2.319,2.319,0,0,0-2.549,2.324,2.292,2.292,0,0,0,2.465,2.26q4.458.051,8.916,0a2.275,2.275,0,0,0,2.407-2.317,2.306,2.306,0,0,0-2.467-2.26c-1.437-.037-2.875-.008-4.314-.01m-.169,13.809c1.486,0,2.973.028,4.458-.007a2.3,2.3,0,1,0-.035-4.584q-4.384-.044-8.771,0a2.3,2.3,0,1,0,.033,4.585c1.438.033,2.876.007,4.314.006m2.31-32.227c3.985,0,7.627.017,11.269-.008a2.31,2.31,0,1,0-.005-4.587c-2.542-.026-5.084-.031-7.625.016a1.632,1.632,0,0,0-1.18.527c-.826,1.217-1.539,2.511-2.458,4.052" transform="translate(-2206.717 -718.425)" fill="#1b4698"/>
    </g>
  </g>
</svg>
