<svg xmlns="http://www.w3.org/2000/svg" width="200" height="200" viewBox="0 0 200 200">
  <g id="Group_246" data-name="Group 246" transform="translate(0.477 0.125)">
    <rect id="Rectangle_330" data-name="Rectangle 330" width="200" height="200" transform="translate(-0.477 -0.125)" fill="none"/>
    <g id="Group_235" data-name="Group 235" transform="translate(39.057 23.527)">
      <path id="Path_366" data-name="Path 366" d="M860.12,709.044c3.9,1.287,7.781,2.606,11.689,3.854q16.515,5.275,33.045,10.507a13.043,13.043,0,0,1,1.256.464,4.654,4.654,0,0,1,2.905,4.881,4.574,4.574,0,0,1-3.729,4.124q-6.075,1.137-12.183,2.085c-1.089.169-1.521.506-1.479,1.672a64.676,64.676,0,0,1-.032,7.449,14.787,14.787,0,0,1-1.237,3.544,5.762,5.762,0,0,0-.554,1.741c-.04,5.367-.066,10.736,0,16.1.04,3.25-1.185,5.55-4.338,6.706a1.529,1.529,0,0,0-.784,1.048,25.939,25.939,0,0,1-9.532,16.828,2.752,2.752,0,0,0,.286,3.96c6.023,3.946,12.011,7.949,18.115,11.766a19.843,19.843,0,0,0,4.9,1.674c3.945,1.174,7.972,2.137,11.363,4.662a22.677,22.677,0,0,1,9.548,18.938q.087,10.362,0,20.725c-.039,5.988-4.084,9.957-10.085,9.959q-50.322.009-100.644,0c-6.092,0-10.085-3.97-10.148-10.053-.012-1.192-.033-2.387.008-3.578.057-1.647.913-2.561,2.3-2.532,1.345.027,2.113.888,2.154,2.493.035,1.341-.027,2.685.023,4.025a5.03,5.03,0,0,0,5.348,5.169c3.031.016,6.063-.011,9.094-.025.087,0,.173-.074.416-.184,0-2.6,0-5.269,0-7.938a12.629,12.629,0,0,1,.035-1.638,2.282,2.282,0,0,1,2.315-2.085,2.187,2.187,0,0,1,2.1,2.269c.04,3.124.013,6.25.013,9.49h73.258q0-3.771,0-7.55c0-.6-.016-1.194.009-1.789a2.228,2.228,0,1,1,4.442-.038c.06,2.583.021,5.168.023,7.753,0,.531,0,1.063,0,1.695,3.623,0,7.1.136,10.552-.047a4.679,4.679,0,0,0,4.278-4.78c.05-7.8.211-15.615-.154-23.4a17.747,17.747,0,0,0-12.741-15.833c-2.509-.783-5.035-1.524-7.581-2.177a2.775,2.775,0,0,0-1.906.263c-10.351,6.1-20.7,12.212-30.983,18.42a4.245,4.245,0,0,1-5.03.05c-10.193-6.172-20.471-12.2-30.694-18.326a3.057,3.057,0,0,0-2.78-.34c-2.167.711-4.377,1.29-6.556,1.967a18.358,18.358,0,0,0-13.466,18.106c-.021,2.037.026,4.076-.029,6.112a2.145,2.145,0,0,1-2.075,2.278,2.1,2.1,0,0,1-2.308-2.044c-.073-4.807-.478-9.657,1.232-14.311a22.637,22.637,0,0,1,15.338-14.44c1.753-.544,3.509-1.087,5.289-1.531a18.9,18.9,0,0,0,6.061-2.714c5.109-3.437,10.294-6.761,15.45-10.13a2.715,2.715,0,0,0,.323-4.677,25.941,25.941,0,0,1-9.037-16.151,2.019,2.019,0,0,0-.963-1.387,6.083,6.083,0,0,1-4.173-6.214c.008-5.368.034-10.736-.045-16.1a9.586,9.586,0,0,0-.825-2.532,13.474,13.474,0,0,1-.95-3.208c-.141-2.577-.014-5.167-.08-7.75-.01-.412-.4-1.112-.709-1.172-3.36-.642-6.738-1.182-10.245-1.773v10.211a28.367,28.367,0,0,1,3.751,2.681,3.533,3.533,0,0,1,.839,2.454c-.376,7.191,1.583,14.081,2.591,21.092a32.423,32.423,0,0,1,.459,3.24,4.8,4.8,0,0,1-4.674,5.142q-5.288.151-10.584,0a4.924,4.924,0,0,1-4.672-5.988c.884-5.388,1.915-10.754,2.711-16.154a49.571,49.571,0,0,0,.227-6.538c.042-3.178,1.462-4.863,4.754-5.4,0-3.887.011-7.8-.022-11.717,0-.288-.3-.6-.5-.857-2.43-3.041-1.369-6.729,2.35-7.924q14.877-4.78,29.774-9.493,7.445-2.372,14.887-4.753a4.016,4.016,0,0,0,.632-.332Zm-17.838,40.025c0,1.515.038,3.038-.007,4.557a7.082,7.082,0,0,1-7.057,7c-.833.024-1.666,0-2.631,0,0,2.071-.1,4,.07,5.906.044.487.882,1.146,1.467,1.3,2.283.594,3.146,1.454,3.357,3.721a21.521,21.521,0,0,0,42.886.1c.235-2.414,1.026-3.208,3.407-3.833.577-.152,1.388-.836,1.433-1.335.169-1.9.068-3.824.068-5.857-.811,0-1.448,0-2.084,0-4.673-.034-7.59-2.957-7.625-7.648-.01-1.28,0-2.559,0-3.92ZM813.3,728.082c.013.11.026.219.038.329.41.1.816.23,1.232.3,2.689.469,5.377.94,8.071,1.38,2.1.344,4.248,1.061,6.311.884,5.882-.506,11.734-1.358,17.592-2.122,6.261-.816,12.512-1.653,18.843-.736,2.554.37,5.127.61,7.685.953a2.309,2.309,0,0,1,2.2,2.375,2.267,2.267,0,0,1-2.6,2.063c-.495-.018-.987-.1-1.48-.157-5.37-.659-10.73-1.593-16.17-1.006-4.393.475-8.774,1.057-13.159,1.6q-5.528.682-11.059,1.38V744.4h56.286v-9.034c-1.45-.214-2.835-.348-4.187-.636a2.18,2.18,0,0,1,.52-4.3,22.2,22.2,0,0,1,2.225.185,22.022,22.022,0,0,0,4.277.332c2.856-.318,5.682-.906,8.519-1.4,2.027-.35,4.05-.722,6.075-1.084a2.086,2.086,0,0,0-1.139-.831q-21.764-6.925-43.54-13.812a3.511,3.511,0,0,0-1.987.041q-21.636,6.828-43.25,13.724c-.442.141-.87.325-1.3.489m34.557,65.206a38.786,38.786,0,0,0,1.282,11.886,1.481,1.481,0,0,0,1.016.8,49.159,49.159,0,0,0,17.471.021c.379-.067.957-.327,1.031-.607a37.85,37.85,0,0,0,1.315-12.06,27.607,27.607,0,0,1-10.94,2.433,26.9,26.9,0,0,1-11.175-2.475m26.523,5.374a51.905,51.905,0,0,1-7.756,22.694l22.242-13.221-14.486-9.473m-30.912.019-14.475,9.455,22.245,13.214a52.077,52.077,0,0,1-7.77-22.669m-24.95-24.922-2.784-16.373h-5.727c-.886,5.145-1.758,10.221-2.638,15.3-.135.781.172,1.1.954,1.082,1.19-.025,2.381-.005,3.571-.005h6.624m32.174,37.249,8.143,13.563c2.958-4.713,6.139-8.794,7.907-13.563ZM832.621,756.13a8.389,8.389,0,0,0,2.844-.068c.864-.342,2.007-1.12,2.16-1.881a26.178,26.178,0,0,0,.1-5.079h-5.105Zm47.44-7.069c0,1.63-.046,3.156.015,4.679a2.31,2.31,0,0,0,1.976,2.295,17.622,17.622,0,0,0,3.161.039v-7.013ZM810.409,752.7h4.863v-3.92h-4.863Z" transform="translate(-798.453 -709.044)" fill="#1b4698"/>
    </g>
  </g>
</svg>
