<svg xmlns="http://www.w3.org/2000/svg" width="200" height="200" viewBox="0 0 200 200">
  <g id="Group_244" data-name="Group 244" transform="translate(0 0.4)">
    <rect id="Rectangle_325" data-name="Rectangle 325" width="200" height="200" transform="translate(0 -0.401)" fill="none"/>
    <g id="Group_238" data-name="Group 238" transform="translate(28.685 28.455)">
      <path id="Path_385" data-name="Path 385" d="M209.038,3.644a3.071,3.071,0,0,1,1.747,3.177c-.071,2.693-.007,5.389-.025,8.084-.014,2.158-.809,2.972-2.92,2.985q-4.251.026-8.5,0c-1.7-.012-2.747-.885-2.807-2.266-.061-1.416,1.046-2.441,2.776-2.47,2.174-.037,4.349-.009,6.609-.009V8.461h-11.7c-.027.535-.072,1.027-.072,1.52-.006,4,.043,7.993-.031,11.987a2.6,2.6,0,0,0,1.456,2.642c10.7,6.351,21.353,12.772,32.019,19.174a11.661,11.661,0,0,1,1.173.747,2.413,2.413,0,0,1,.637,3.222,2.271,2.271,0,0,1-3.058.783c-.747-.367-1.45-.827-2.166-1.256q-15.585-9.348-31.152-18.726a2.149,2.149,0,0,0-2.6.047q-16.032,9.685-32.11,19.3c-2.074,1.244-3.424,1.17-4.252-.226s-.259-2.622,1.812-3.864Q172,34.134,188.133,24.484a2.192,2.192,0,0,0,1.26-2.191c-.061-5.017,0-10.036-.043-15.054-.012-1.472.248-2.743,1.567-3.595Z" transform="translate(-120.382 -3.644)" fill="#1b4698"/>
      <path id="Path_386" data-name="Path 386" d="M37,331.084c.28-2.574.509-5.154.852-7.72.665-4.975,1.5-9.934,3.957-14.395a14.673,14.673,0,0,1,3.272-4.08c2.908-2.457,7.031-1.547,9.567,1.9a26.456,26.456,0,0,1,4.2,10.359A74.391,74.391,0,0,1,60.695,335.1a11.487,11.487,0,0,1-8.189,10.635,1.469,1.469,0,0,0-1.28,1.713c.062,3.527.043,7.056.01,10.583a2.376,2.376,0,0,1-2.331,2.589,2.464,2.464,0,0,1-2.39-2.426c-.037-.368-.017-.742-.017-1.113q0-4.735,0-9.47V346.6a60.149,60.149,0,0,1-5.609-3.446c-2.26-1.746-3.184-4.371-3.889-7.05Zm4.766.315c0,.743.012,1.485,0,2.227-.086,4.589,2.887,8,7.088,7.964a7.094,7.094,0,0,0,7.124-7.877c-.523-5.16-.923-10.349-1.823-15.446a30.238,30.238,0,0,0-2.973-8.171c-1.242-2.461-3.216-2.372-4.645.023a21.668,21.668,0,0,0-1.954,4.436A69.355,69.355,0,0,0,41.766,331.4" transform="translate(-37 -217.895)" fill="#1b4698"/>
      <path id="Path_387" data-name="Path 387" d="M37,188.8c.663-1.195,1.577-2.031,3.03-1.6s1.791,1.607,1.722,2.98c-.025.5,0,1,0,1.657H43.37q11.7,0,23.4,0a10.107,10.107,0,0,1,1.39.04,2.321,2.321,0,0,1,.323,4.557,6.606,6.606,0,0,1-1.652.148q-11.7.013-23.4.006H41.749v1.584q0,8.495,0,16.99a2.425,2.425,0,0,1-1.616,2.632,2.24,2.24,0,0,1-2.7-.884c-.133-.18-.293-.34-.441-.509V188.8" transform="translate(-37 -134.712)" fill="#1b4698"/>
      <path id="Path_388" data-name="Path 388" d="M160.906,382.163V358.424c-.832-.04-1.611-.046-2.382-.123a2.329,2.329,0,0,1-.145-4.648,8.871,8.871,0,0,1,1.387-.075q20.2-.006,40.407,0a8.715,8.715,0,0,1,1.523.1,2.208,2.208,0,0,1,2.012,2.408,2.164,2.164,0,0,1-2.1,2.188c-.818.089-1.645.1-2.534.146v23.742h1.561q9.335,0,18.671,0a8,8,0,0,1,1.527.065,2.165,2.165,0,0,1,1.9,2.092,2.106,2.106,0,0,1-1.524,2.363,5.9,5.9,0,0,1-1.779.221q-39.431.015-78.863,0a6.412,6.412,0,0,1-1.649-.171,2.125,2.125,0,0,1-1.682-2.388,2.174,2.174,0,0,1,2.011-2.137,8.872,8.872,0,0,1,1.39-.048q9.336,0,18.671,0Zm4.948-23.73v23.635H177.59c0-2.965.03-5.837-.041-8.707-.008-.329-.522-.749-.9-.947-1.635-.866-2.025-3.251-.423-3.942,1.573-.677,1.348-1.715,1.362-2.864.013-1.114,0-2.227,0-3.341v-3.835Zm28.306,23.647V358.458H182.376c0,2.984-.019,5.854.031,8.723,0,.281.383.673.682.81a2.383,2.383,0,0,1,1.609,2.224,2.329,2.329,0,0,1-1.56,2.251c-.31.14-.723.52-.728.8-.053,2.911-.033,5.823-.033,8.816Z" transform="translate(-108.612 -253.673)" fill="#1b4698"/>
      <path id="Path_389" data-name="Path 389" d="M449.06,196.624h-4.635q-10.243,0-20.487-.009a6.109,6.109,0,0,1-1.783-.2,2.116,2.116,0,0,1-1.561-2.465,2.149,2.149,0,0,1,1.969-2.02,9.51,9.51,0,0,1,1.53-.052q11.637,0,23.274,0h1.706c0-.879-.045-1.654.01-2.423a2.352,2.352,0,0,1,4.7-.073,11.328,11.328,0,0,1,.024,1.253q0,41.67,0,83.34c0,2.354-.83,3.545-2.432,3.5-1.556-.043-2.316-1.178-2.316-3.471q0-37.768,0-75.536Z" transform="translate(-311.067 -134.752)" fill="#1b4698"/>
      <path id="Path_390" data-name="Path 390" d="M156.031,486.984h48.622c.464,0,.931-.021,1.392.021a2.352,2.352,0,0,1,.033,4.7,11.914,11.914,0,0,1-1.253.023H107.3c-2.393,0-3.562-.774-3.575-2.361s1.166-2.387,3.542-2.387h48.762" transform="translate(-84.676 -348.993)" fill="#1b4698"/>
      <path id="Path_391" data-name="Path 391" d="M391.7,208.609q0,17.138,0,34.276a9.967,9.967,0,0,1-.115,1.8,2.3,2.3,0,0,1-4.484.107,7.612,7.612,0,0,1-.159-1.655q-.011-34.624,0-69.248a6.008,6.008,0,0,1,.2-1.787,2.132,2.132,0,0,1,2.339-1.573,2.1,2.1,0,0,1,2.082,1.726,8.879,8.879,0,0,1,.136,1.938q.011,17.207.005,34.415" transform="translate(-287.029 -122.882)" fill="#1b4698"/>
      <path id="Path_392" data-name="Path 392" d="M170.352,215.627q0-16.579,0-33.159a10.3,10.3,0,0,1,.111-1.8,2.139,2.139,0,0,1,2.258-1.865,2.112,2.112,0,0,1,2.224,1.733,8.383,8.383,0,0,1,.164,1.794q.011,33.3.006,66.6c0,2.37-.8,3.549-2.393,3.552s-2.373-1.156-2.374-3.551q0-16.649,0-33.3" transform="translate(-132.281 -128.795)" fill="#1b4698"/>
      <path id="Path_393" data-name="Path 393" d="M220.381,263.115c0-2.23-.023-4.461.006-6.691.025-1.941.884-2.8,2.828-2.812q4.321-.036,8.642,0a2.459,2.459,0,0,1,2.774,2.752q.048,6.76,0,13.521c-.014,1.834-.924,2.7-2.784,2.721q-4.39.043-8.781,0a2.366,2.366,0,0,1-2.674-2.66c-.037-2.276-.009-4.553-.01-6.83m4.849,4.631h4.547v-9.358h-4.547Z" transform="translate(-168.021 -182.235)" fill="#1b4698"/>
      <path id="Path_394" data-name="Path 394" d="M317.864,263.089c0,2.23.019,4.461-.006,6.691-.023,1.974-.84,2.815-2.787,2.834q-4.321.043-8.642,0c-1.932-.018-2.807-.888-2.818-2.83q-.038-6.621,0-13.242c.01-2.022.894-2.909,2.888-2.925q4.251-.033,8.5,0c2.006.015,2.841.874,2.862,2.921.022,2.184,0,4.368,0,6.551m-9.438,4.681H313v-9.346h-4.578Z" transform="translate(-227.483 -182.24)" fill="#1b4698"/>
      <path id="Path_395" data-name="Path 395" d="M437.026,371.433c0-2.183-.025-4.367.005-6.55.028-2.053.862-2.888,2.879-2.9q4.251-.029,8.5,0c1.921.014,2.864.889,2.881,2.789q.056,6.69,0,13.38c-.014,1.928-.923,2.8-2.84,2.817q-4.32.035-8.641,0c-1.888-.016-2.739-.831-2.775-2.706-.044-2.276-.01-4.553-.012-6.829m4.862,4.668h4.577V366.8h-4.577Z" transform="translate(-322.815 -259.669)" fill="#1b4698"/>
      <path id="Path_396" data-name="Path 396" d="M220.38,163.226c0-2.23-.018-4.46,0-6.69.021-1.993.813-2.843,2.755-2.87q4.39-.06,8.781,0c1.84.028,2.7.926,2.713,2.795q.04,6.69,0,13.38c-.012,1.9-.932,2.811-2.85,2.833q-4.32.05-8.641,0a2.454,2.454,0,0,1-2.754-2.758c-.032-2.23-.008-4.46-.008-6.69m4.886,4.615H229.8v-9.359h-4.531Z" transform="translate(-168.021 -110.814)" fill="#1b4698"/>
      <path id="Path_397" data-name="Path 397" d="M317.856,163.153c0,2.23.021,4.46-.007,6.69-.024,1.933-.884,2.812-2.82,2.835q-4.32.051-8.641,0a2.477,2.477,0,0,1-2.783-2.757q-.049-6.76,0-13.52c.013-1.839.9-2.708,2.775-2.732q4.39-.058,8.78,0c1.867.029,2.665.885,2.689,2.793.028,2.23.007,4.46.007,6.69m-4.83-4.646h-4.588v9.317h4.588Z" transform="translate(-227.475 -110.816)" fill="#1b4698"/>
      <path id="Path_398" data-name="Path 398" d="M437.026,271.368c0-2.184-.025-4.368.008-6.551.03-1.983.828-2.823,2.783-2.853q4.32-.068,8.642,0c1.937.029,2.822.908,2.836,2.831q.049,6.691,0,13.382c-.016,1.891-.957,2.789-2.882,2.812q-4.251.053-8.5,0c-2-.024-2.849-.9-2.876-2.93-.03-2.23-.007-4.46-.007-6.69m4.832,4.765h4.61v-9.314h-4.61Z" transform="translate(-322.815 -188.192)" fill="#1b4698"/>
      <path id="Path_399" data-name="Path 399" d="M96.356,258.385H91.592c0,.743.029,1.464-.006,2.181a2.356,2.356,0,1,1-4.707.165,38.494,38.494,0,0,1,0-4.732,2.342,2.342,0,0,1,2.556-2.388c3.064-.044,6.13-.05,9.194,0a2.273,2.273,0,0,1,2.459,2.453q.074,7.034,0,14.069a2.249,2.249,0,0,1-2.308,2.438c-1.414.015-2.374-.962-2.4-2.664-.055-3.249-.019-6.5-.02-9.751,0-.548,0-1.1,0-1.775" transform="translate(-72.586 -182.224)" fill="#1b4698"/>
    </g>
  </g>
</svg>
