<svg xmlns="http://www.w3.org/2000/svg" width="200" height="200" viewBox="0 0 200 200">
  <g id="Group_243" data-name="Group 243" transform="translate(0.477 0.4)">
    <rect id="Rectangle_326" data-name="Rectangle 326" width="200" height="200" transform="translate(-0.477 -0.401)" fill="none"/>
    <g id="Group_234" data-name="Group 234" transform="translate(28.838 28.455)">
      <path id="Path_363" data-name="Path 363" d="M698.988,146.789c1.761-4.53,3.55-9.049,5.279-13.591,5.161-13.564,10.28-27.145,15.488-40.691a4.919,4.919,0,0,1,2-2.3c6.668-3.854,13.4-7.6,20.1-11.388.4-.226.793-.468,1.324-.781-.253-.429-.47-.818-.707-1.195-2.025-3.223-4.1-6.416-6.074-9.668-14.827-24.405.409-56.231,28.707-59.993a39.737,39.737,0,0,1,44.466,33.167,38.6,38.6,0,0,1-5.092,26.521c-1.968,3.31-4.086,6.531-6.134,9.794-.267.425-.516.86-.828,1.381,3.723,2.105,7.348,4.16,10.978,6.207,3.516,1.983,7.067,3.906,10.531,5.978a4.8,4.8,0,0,1,1.9,2.215q10.246,26.76,20.373,53.566c.7,1.85.556,2.356-.978,3.564H838.93c-.059-.068-.106-.159-.18-.2q-16.421-9.251-32.832-18.518a1.761,1.761,0,0,0-2.01.112c-7.667,4.339-15.351,8.648-23.016,12.989-3.252,1.842-6.469,3.743-9.7,5.617h-1.673a3.1,3.1,0,0,0-.49-.432q-16.233-9.156-32.464-18.318a1.546,1.546,0,0,0-1.763.052c-4.593,2.616-9.206,5.195-13.806,7.8q-9.614,5.441-19.218,10.9h-2.788ZM805.959,46.535c-.143-1.617-.224-3.243-.438-4.851a35.572,35.572,0,0,0-40.215-30.312c-24.973,3.683-38.542,31.6-25.553,53.147,9.249,15.341,19.039,30.356,28.6,45.506,1.159,1.835,2.821,1.855,3.966.041,9.588-15.19,19.206-30.362,28.7-45.61a34.114,34.114,0,0,0,4.934-17.921M747.182,84.342c-.143.536-.208.745-.254.957-1.01,4.717-2.006,9.438-3.036,14.151a2.107,2.107,0,0,1-2.6,1.852,2.136,2.136,0,0,1-1.453-2.749c.449-2.181.92-4.357,1.381-6.536.622-2.937,1.243-5.874,1.893-8.944a4.7,4.7,0,0,0-.686.227c-6.025,3.392-12.054,6.776-18.054,10.21a2.757,2.757,0,0,0-1.065,1.346q-8.845,23.2-17.633,46.429c-.147.389-.255.793-.44,1.374.388-.169.518-.212.635-.278q13.585-7.65,27.15-15.335a2.662,2.662,0,0,0,1.062-1.6c1.338-6.023,2.6-12.063,3.9-18.092.327-1.507,1.293-2.171,2.56-1.882,1.239.284,1.794,1.321,1.475,2.828-1.21,5.718-2.409,11.439-3.667,17.147a1.656,1.656,0,0,0,.955,2.179c9.125,5.073,18.208,10.22,27.305,15.344.469.264.947.514,1.5.814a4.562,4.562,0,0,0,.133-.693c.007-9.012.017-18.025-.021-27.037,0-.391-.4-.832-.713-1.16a21.737,21.737,0,0,1-2.78-2.834c-5.584-8.716-11.082-17.487-16.607-26.24-.257-.407-.518-.81-.945-1.476m25.332,59.451c.555-.278.966-.462,1.356-.682,9.138-5.146,18.26-10.32,27.426-15.415a1.81,1.81,0,0,0,1.023-2.4c-2.243-10.336-4.42-20.686-6.62-31.031-.681-3.2-1.375-6.4-2.144-9.971-.465.722-.73,1.128-.989,1.538-5.473,8.677-10.925,17.367-16.444,26.014a9.591,9.591,0,0,1-2.633,2.784,2.049,2.049,0,0,0-1.057,2c.023,8.548.013,17.1.016,25.644,0,.449.038.9.066,1.517m63-1.046c-.19-.62-.256-.886-.352-1.141Q826.28,118.2,817.368,94.8a3.175,3.175,0,0,0-1.318-1.474c-5.758-3.3-11.546-6.538-17.329-9.789-.3-.169-.628-.291-1.063-.488.036.372.036.6.083.822q4.436,20.891,8.917,41.773a2.652,2.652,0,0,0,1.2,1.505c6.767,3.868,13.564,7.682,20.355,11.507,2.338,1.317,4.681,2.626,7.294,4.092" transform="translate(-698.988 -6.832)" fill="#1b4698"/>
      <path id="Path_364" data-name="Path 364" d="M914.417,88.41A22.986,22.986,0,1,1,891.3,65.476,23.021,23.021,0,0,1,914.417,88.41m-4.182,0a18.8,18.8,0,1,0-18.712,18.876,18.822,18.822,0,0,0,18.712-18.876" transform="translate(-820.067 -48.733)" fill="#1b4698"/>
      <path id="Path_365" data-name="Path 365" d="M927,109.609A14.611,14.611,0,1,1,912.721,94.79,14.624,14.624,0,0,1,927,109.609m-4.174-.215a10.435,10.435,0,1,0-10.415,10.472,10.444,10.444,0,0,0,10.415-10.472" transform="translate(-841.024 -69.677)" fill="#1b4698"/>
    </g>
  </g>
</svg>
