<svg xmlns="http://www.w3.org/2000/svg" width="200" height="200" viewBox="0 0 200 200">
  <g id="Group_241" data-name="Group 241" transform="translate(0.363 0.4)">
    <rect id="Rectangle_328" data-name="Rectangle 328" width="200" height="200" transform="translate(-0.363 -0.401)" fill="none"/>
    <g id="Group_232" data-name="Group 232" transform="translate(28.683 28.455)">
      <path id="Path_367" data-name="Path 367" d="M2284.524,16.848c-3.939.282-7.771.2-11.464.878-25,4.576-41.961,18.771-49.066,43.3-9.78,33.765,12.154,68.53,46.724,74.71,19.256,3.443,36.359-1.465,51.152-14.324a5.8,5.8,0,0,1,2.061-1.318,2.542,2.542,0,0,1,3.129,1.427,2.662,2.662,0,0,1-.752,3.527,109.123,109.123,0,0,1-9.915,7.538,65.59,65.59,0,0,1-99.139-43.059c-7.085-35.275,16.367-70.121,51.788-76.9a63.853,63.853,0,0,1,7.58-1.031c2.537-.176,5.1-.039,7.9-.039,0-2.608,0-4.905,0-7.2,0-4.017.716-4.629,4.686-4.255a75.3,75.3,0,0,1,23.684,6.14,75.866,75.866,0,0,1,37.68,35.654,79.717,79.717,0,0,1,8.132,28.609c.242,2.358-1.037,3.688-3.426,3.651-2.6-.039-5.2-.009-7.852-.009-.149,2.968-.222,5.8-.444,8.63a64.123,64.123,0,0,1-6.144,22.557c-.874,1.843-2.513,2.508-4.057,1.738-1.464-.732-1.961-2.366-1.118-4.137a61.9,61.9,0,0,0,5.958-26.729c.007-1.756-.531-2.16-2.219-2.147-13.311.1-26.623.105-39.934.131-3.921.007-7.842-.018-11.763-.019-2.156,0-3.186-1.129-3.187-3.539q0-25.6,0-51.194Zm22.212,51.069c.063.15.125.3.188.45,5.033,0,10.065.015,15.1-.03a2.034,2.034,0,0,0,1.181-.669q10.932-10.887,21.814-21.824c.306-.307.594-1.051.434-1.339-1.77-3.189-3.629-6.328-5.609-9.729-3.5,3.551-6.648,6.791-9.853,9.973-1.4,1.389-3.075,1.379-4.255.129-1.141-1.211-1.084-2.736.231-4.134,1.14-1.212,2.343-2.366,3.521-3.541,2.22-2.209,4.442-4.414,6.733-6.691l-8.025-8.006a6.824,6.824,0,0,0-.587.442q-18.292,18.284-36.573,36.58c-.319.32-.736.75-.747,1.138-.067,2.532-.034,5.067-.034,7.715,2.361,0,4.5.1,6.623-.048a4.208,4.208,0,0,0,2.45-1.035c3.346-3.21,6.58-6.535,9.876-9.8,1.561-1.545,3.109-1.683,4.391-.468,1.319,1.248,1.208,2.931-.376,4.52-2.138,2.144-4.318,4.244-6.481,6.364m-16.5-16.323c11.02-11.011,22-21.981,33.131-33.107-2.886-1.686-5.876-3.5-8.949-5.154a2.152,2.152,0,0,0-1.882.518q-10.778,10.654-21.445,21.42a2.709,2.709,0,0,0-.819,1.646c-.063,4.924-.036,9.848-.036,14.677m.086-24.141L2307.9,9.936l-17.577-4.379Zm58.418,23.58-17.205,17.209h21.519c-1.491-5.954-2.924-11.667-4.313-17.209" transform="translate(-2215.991 -0.004)" fill="#1b4698"/>
      <path id="Path_368" data-name="Path 368" d="M2319.16,324.883a47.058,47.058,0,0,1-22.079-8.872,48.075,48.075,0,0,1-19.469-32.2c-.414-2.581.914-4.41,3.012-4.112,1.75.249,2.358,1.468,2.636,3.107,2.781,16.38,11.844,27.8,27.271,33.98,2.993,1.2,6.283,1.671,9.45,2.414,1.8.422,2.922,1.609,2.78,3.143-.151,1.615-1.437,2.623-3.6,2.54" transform="translate(-2259.966 -199.827)" fill="#1b4698"/>
      <path id="Path_369" data-name="Path 369" d="M2529.859,282.758a48.511,48.511,0,0,1-9.144,22.843,47.8,47.8,0,0,1-20.507,16.04,2.855,2.855,0,0,1-4.007-1.442c-.6-1.5.053-2.94,1.729-3.772.266-.132.54-.246.811-.365a42.44,42.44,0,0,0,19.728-17.37,44.057,44.057,0,0,0,5.716-16.358,2.8,2.8,0,0,1,3.185-2.624,2.876,2.876,0,0,1,2.489,3.048" transform="translate(-2416.045 -199.835)" fill="#1b4698"/>
      <path id="Path_370" data-name="Path 370" d="M2290.6,134.942a2.71,2.71,0,0,1-2.541-3.979,68.751,68.751,0,0,1,5.816-10.365,47.418,47.418,0,0,1,32.413-19.368c2.045-.3,3.478.622,3.743,2.334.248,1.592-.8,2.942-2.788,3.243a43.307,43.307,0,0,0-21.97,9.811,42.008,42.008,0,0,0-11.65,15.746c-.584,1.365-1.272,2.589-3.022,2.577" transform="translate(-2267.257 -72.291)" fill="#1b4698"/>
      <path id="Path_371" data-name="Path 371" d="M2615.838,390.486a2.76,2.76,0,0,1,2.77,2.848,2.845,2.845,0,0,1-2.829,2.821,2.879,2.879,0,0,1-2.788-2.88,2.793,2.793,0,0,1,2.848-2.789" transform="translate(-2499.651 -279.008)" fill="#1b4698"/>
      <path id="Path_372" data-name="Path 372" d="M2572.34,174.631a2.851,2.851,0,0,1-2.876-2.769,2.814,2.814,0,0,1,5.626-.128,2.834,2.834,0,0,1-2.75,2.9" transform="translate(-2468.549 -120.774)" fill="#1b4698"/>
    </g>
  </g>
</svg>
