<svg xmlns="http://www.w3.org/2000/svg" width="200" height="200" viewBox="0 0 200 200">
  <g id="Group_245" data-name="Group 245" transform="translate(0 0.125)">
    <rect id="Rectangle_329" data-name="Rectangle 329" width="200" height="200" transform="translate(0 -0.125)" fill="none"/>
    <g id="Group_239" data-name="Group 239" transform="translate(36.716 36.945)">
      <path id="Path_373" data-name="Path 373" d="M125.456,899.232c-.321,2.3-.561,4.608-.977,6.887a62.247,62.247,0,0,1-22.531,38.127c-1.385,1.132-2.874,1.09-3.805-.037-.945-1.143-.735-2.583.692-3.736a57.618,57.618,0,0,0,21.5-41.96c.156-3.289.025-6.591.025-9.964-1.332,1.616-2.406,3.1-3.665,4.4-1.662,1.722-3.62,1.222-4.46-1.041-.766-2.063-1.629-4.1-2.216-6.216-.712-2.562-2.394-4.42-4.127-6.247a3.483,3.483,0,0,0-1.949-.594c.684,1.787.019,2.918-1.192,4.028a34.325,34.325,0,0,1-12.032,7.1c-1.89.661-2.878.292-3.816-1.49-1.955-3.717-3.9-7.436-5.808-11.179a4.323,4.323,0,0,1-.488-1.973,2.954,2.954,0,0,0-.966-2.226,11.257,11.257,0,0,0-5.622-3.468A2.489,2.489,0,0,1,72,867.73a2.325,2.325,0,0,1,2.744-2.879c2.465.652,5.016,1.215,6.8,3.33a11.812,11.812,0,0,0,1.765,1.695,4.857,4.857,0,0,1,2.171,4.74,1.473,1.473,0,0,0,.139.828c1.607,3.111,3.233,6.21,5.015,9.619l8.012-4.76c-.357-.72-.612-1.136-.777-1.584a3.48,3.48,0,0,1,3.03-4.7,36.446,36.446,0,0,1,4.65.019,6.65,6.65,0,0,1,4.356,2.46,20.178,20.178,0,0,1,5.326,9.265,8.411,8.411,0,0,1,2.966-5.019,1.274,1.274,0,0,0,.137-1.065,56.226,56.226,0,0,0-14.272-24.742,56.89,56.89,0,0,0-35.073-16.98,1.847,1.847,0,0,0-1.389.581q-2.973,3.578-5.812,7.267a5.733,5.733,0,0,1-2.832,2q-6.94,2.375-13.837,4.876A2.55,2.55,0,0,0,43.8,853.9q-1.534,3.4-2.848,6.891a2.091,2.091,0,0,0,.15,1.629c.932,1.473,2,2.859,3.08,4.365a10.639,10.639,0,0,1,5.865-4.575,21.848,21.848,0,0,1,4.933-.648,2.381,2.381,0,0,1,2.52,2.445,2.516,2.516,0,0,1-2.587,2.41,17.14,17.14,0,0,0-2.671.227,6.04,6.04,0,0,0-4.475,4.048c1.68-.085,3.24-.236,4.8-.222a20,20,0,0,1,4.236.355c2.273.519,3.11,1.721,3.29,4.068a1.307,1.307,0,0,0,.511.838c.695.5,1.447.91,2.235,1.392,1.83-2.364,4.135-2.617,6.763-1.628,1.1.416,2.254.711,3.393,1.023a9.52,9.52,0,0,1,6.415,5.9c1.067,2.513,2.123,5.031,3.228,7.528a24.548,24.548,0,0,0,1.342,2.466,4.307,4.307,0,0,0,3.476,2.187,13.258,13.258,0,0,1,2.736.612,3.6,3.6,0,0,1,2.312,5.266,22.925,22.925,0,0,1-3.158,4.309c-1.414,1.629-3.015,3.1-4.483,4.682a3.791,3.791,0,0,0-.822,3.986c.089.271.141.554.235.823,1.1,3.136.3,5.793-1.841,8.254a38.305,38.305,0,0,0-2.493,3.854c-1.568,2.323-2.535,4.971-3.885,7.365a11.729,11.729,0,0,1-8.934,6.181,4.543,4.543,0,0,1-4.449-2.023,14.226,14.226,0,0,1-1.592-2.742c-1.486-3.573-2.91-7.172-4.322-10.776a9.35,9.35,0,0,1-.085-6.7c.2-.575.359-1.168.508-1.76a4.149,4.149,0,0,0-1.009-4.191,8.07,8.07,0,0,1-2.448-6.057c.02-1.427-.686-1.93-2.145-1.679a43.538,43.538,0,0,1-4.568.821c-5.822.362-10.423-1.881-13.247-7.03-2.839-5.177-2.448-10.433.831-15.281,2.1-3.1,4.6-5.92,6.932-8.864.251-.317.527-.617.831-.972-2.052-2.876-4.049-5.753-6.137-8.564a3.394,3.394,0,0,1-.46-3.743c1.386-3.174,2.679-6.389,3.968-9.6a3.788,3.788,0,0,1,2.484-2.313q7.29-2.487,14.536-5.1a3.84,3.84,0,0,0,1.543-1.088c1.238-1.453,2.393-2.976,3.609-4.509C54.2,836.1,33.92,843.238,27.414,849.7a35.306,35.306,0,0,1,3.709,4.949c1.868,3.646,1.7,7.542-1.034,10.554-3.68,4.061-6.133,8.815-8.805,13.466a10.981,10.981,0,0,1-3.824,4.174c-.793.478-1.517,1.073-2.35,1.671.944,1.39,1.843,2.691,2.72,4.008,1.342,2.015.608,3.851-1.75,4.254-2.251.385-4.514.708-6.78,1-2.018.257-2.27.141-4.215-1.414v6.459c1.815-.583,3.526-1.051,5.173-1.687a3.843,3.843,0,0,1,4.179.7c2.733,2.2,5.626,4.2,8.339,6.428a8.985,8.985,0,0,0,4.268,1.6c2.189.442,4.449.674,6.223,2.281a7.136,7.136,0,0,1,2.46,6.932,8.959,8.959,0,0,0,.4,4.77,7.377,7.377,0,0,1-1.881,8.31,21.6,21.6,0,0,1-3.1,1.883,2.089,2.089,0,0,0-.93,1.069q-1.027,4.908-1.885,9.849a1.448,1.448,0,0,0,.469,1.173,56.4,56.4,0,0,0,27.976,10.751,57.65,57.65,0,0,0,25.76-3.24c2.139-.77,3.463-.373,4.031,1.13.575,1.519-.264,2.727-2.454,3.508A62.694,62.694,0,1,1,58.116,832.8a7.2,7.2,0,0,0,.948-.191h7.35c.356.073.709.16,1.068.216,3.258.51,6.568.8,9.766,1.554A62.356,62.356,0,0,1,124.5,884.636c.4,2.32.642,4.667.956,7ZM87.5,899.6c-4.359-.717-6.237-1.423-9.043-7.065-.942-1.893-1.714-3.872-2.531-5.826-2.058-4.922-2.055-4.908-7.263-6.376a1.435,1.435,0,0,0-1.779.482,3.566,3.566,0,0,1-4.268,1.287c-2.114-.906-4.1-2.107-6.146-3.182-1.418-.746-2.537-1.684-2.015-3.729-2.658.22-5.094.355-7.506.667a3.178,3.178,0,0,0-1.807,1.114c-2.106,2.542-4.135,5.149-6.166,7.753a8.849,8.849,0,0,0-1.017,1.665c-1.664,3.532-1.569,7,.8,10.157,2.321,3.09,5.538,3.945,9.262,3.194A40.068,40.068,0,0,1,52,899.092c2.91-.287,6.14,1.832,6.412,4.675a12.041,12.041,0,0,0,2.513,6.254c1.814,2.478,1.722,5.409.691,8.2a7.749,7.749,0,0,0,.258,6.033c1.1,2.585,2.1,5.211,3.18,7.807a14.984,14.984,0,0,0,1.21,2.394,1.227,1.227,0,0,0,1.045.481c1.93-.776,3.914-1.895,4.605-3.788a20.656,20.656,0,0,1,3.436-6.514,5.512,5.512,0,0,0,.32-.656,34.483,34.483,0,0,1,2.821-4.364,3.907,3.907,0,0,0,1.008-4.305,9.045,9.045,0,0,1,2.156-9.718c1.13-1.23,2.368-2.362,3.541-3.553.735-.747,1.44-1.522,2.3-2.437m-81.931,4.24a58.515,58.515,0,0,0,18.277,34.275c.654-3.364,1.3-6.465,1.845-9.583a2.936,2.936,0,0,1,2.315-2.657c.473-.118.932-.3,1.394-.456,2.063-.716,2.763-2,2.054-4.088a11.652,11.652,0,0,1-.568-6.942,2.484,2.484,0,0,0-2.1-3.174,35.234,35.234,0,0,0-3.6-.713A10.3,10.3,0,0,1,19.8,908.14c-2.421-2-4.973-3.841-7.494-5.718a1.629,1.629,0,0,0-1.173-.373c-1.833.527-3.636,1.157-5.566,1.79m17.39-50.373a3.281,3.281,0,0,0-.265.21q-.686.7-1.368,1.4A57.422,57.422,0,0,0,5.912,885.211a1.758,1.758,0,0,0,.055,1.141c1.477,2.252,3.174,2.834,5.786,2.016-.269-.42-.518-.831-.788-1.228-2.475-3.647-2.5-4.088,1.169-6.47a18.777,18.777,0,0,0,6.517-7.209c1.941-3.653,3.855-7.328,6.858-10.35,3.272-3.292,1.922-8.038-2.551-9.644" transform="translate(0 -832.605)" fill="#1b4698"/>
      <path id="Path_374" data-name="Path 374" d="M341.4,1163.2c.349-1.219.763-2.495,1.067-3.8a8.31,8.31,0,0,0,.317-2.6c-.29-3.049.652-5.217,3.423-6.538a6.98,6.98,0,0,0,3.789-4.043,6.206,6.206,0,0,1,.549-1.09,2.352,2.352,0,0,1,2.36-1.214,2.248,2.248,0,0,1,2.057,1.664c.463,1.518.872,3.055,1.22,4.6a3.2,3.2,0,0,1-.094,1.565c-1.233,4.05-2.48,8.1-3.784,12.124a12.671,12.671,0,0,1-1.27,2.631c-1.02,1.676-2.374,3.01-4.5,2.849-2.281-.172-3.615-1.734-4.511-3.665a13.8,13.8,0,0,1-.622-2.489m9.036-9.284-.259-.235a8.746,8.746,0,0,0-1.6.844c-.4.323-.958.907-.889,1.269.451,2.364-.24,4.5-1.051,6.64a5.082,5.082,0,0,0-.1,1.479l.567.1,3.326-10.1" transform="translate(-255.742 -1065.796)" fill="#1b4698"/>
      <path id="Path_375" data-name="Path 375" d="M252.733,952.849a2.579,2.579,0,0,1-2.586-2.42,2.505,2.505,0,0,1,2.509-2.472,2.57,2.57,0,0,1,2.508,2.5,2.4,2.4,0,0,1-2.431,2.39" transform="translate(-187.383 -919.013)" fill="#1b4698"/>
      <path id="Path_376" data-name="Path 376" d="M360.265,1283.278a2.451,2.451,0,1,1,4.9.051,2.536,2.536,0,0,1-2.575,2.41,2.335,2.335,0,0,1-2.326-2.461" transform="translate(-269.87 -1168.38)" fill="#1b4698"/>
    </g>
  </g>
</svg>
