<svg xmlns="http://www.w3.org/2000/svg" width="200" height="200" viewBox="0 0 200 200">
  <g id="Group_247" data-name="Group 247" transform="translate(-0.125 0.125)">
    <rect id="Rectangle_331" data-name="Rectangle 331" width="200" height="200" transform="translate(0.125 -0.125)" fill="none"/>
    <g id="Group_237" data-name="Group 237" transform="translate(20.011 51.002)">
      <path id="Path_400" data-name="Path 400" d="M1575.295,924.632a7.061,7.061,0,0,1-4.554,3.9c-3.483,1.243-6.912,2.641-10.33,4.056-2.086.864-4.013.976-5.888-.5a1.315,1.315,0,0,0-1.2-.012c-2.788,1.731-5.538,3.522-8.271,5.277,1.8,8.885-2.3,13.788-10.93,13.19-1.762,6.46-4.233,8.375-11.254,8.615a9.53,9.53,0,0,1-4.164,7.447,9.752,9.752,0,0,1-8.491,1.1c-.9,4.332-3.314,7.167-7.689,8.1-4.452.953-7.528-1.691-10.823-4.234-.733.837-1.419,1.665-2.15,2.45a8.243,8.243,0,0,1-8.651,2.619,8.343,8.343,0,0,1-6.212-6.578,1.7,1.7,0,0,0-1.054-1.106c-4.974-.568-7.281-2.56-8.517-7.491a3.981,3.981,0,0,0-.154-.417c-6.012-.771-8.4-2.818-9.4-8.052-8.235-1.346-11.332-6.226-8.218-13.248-.532-.39-1.079-.84-1.673-1.218-3.036-1.933-6.065-3.878-9.148-5.733a3.545,3.545,0,0,0-1.77-.1c-1.362.048-2.865.548-4.06.137-4.283-1.472-8.457-3.264-12.685-4.9a6.183,6.183,0,0,1-3.109-3.311v-2.506c.922-2.194,1.885-4.372,2.76-6.584q6.642-16.793,13.246-33.6c1.489-3.779,3.766-4.794,7.524-3.329,3.787,1.478,7.562,2.984,11.35,4.462a5.063,5.063,0,0,1,3.575,5.134,1.493,1.493,0,0,0,.728,1.084,21.73,21.73,0,0,0,9.458,2.248c6.549.117,13.172,0,19.542,2.068a1.787,1.787,0,0,0,1.336-.356,12.186,12.186,0,0,0,1.577-1.516,12.266,12.266,0,0,1,11.549-3.7c2.519.428,5.045.809,7.569,1.215,1.689.272,2.638,1.284,2.49,2.648-.156,1.447-1.346,2.262-3.132,2.011-2.84-.4-5.67-.874-8.5-1.313a6.844,6.844,0,0,0-6.152,2,145.814,145.814,0,0,1-21.958,18.34c-1.386.921-1.374,1.8-.086,2.86,2.718,2.238,5.787,2.422,9.013,1.452,4.144-1.245,7.527-3.771,10.746-6.54s5.739-2.7,8.748.228c6.392,6.213,13.96,9.186,22.913,8.04a5.835,5.835,0,0,1,4.6,1.281c6,4.522,12.071,8.949,18.194,13.47l10.081-6.475c-4.462-11.308-8.89-22.532-13.361-33.867-1.557.561-3.01.977-4.371,1.6a22.462,22.462,0,0,1-14.681,1.365c-1.167-.265-2.37-.366-3.55-.581a2.361,2.361,0,0,1-2.23-2.689c.165-1.362,1.231-2.155,2.859-1.953q3.259.4,6.494,1a13.526,13.526,0,0,0,7.226-.723c2.147-.783,4.285-1.591,6.387-2.373.025-3.687.783-4.8,4.213-6.173q5.588-2.236,11.2-4.419c3.1-1.206,5.555-.134,6.8,2.984q2.937,7.33,5.816,14.681c.675,1.714.268,2.985-1.085,3.565-1.38.592-2.582-.084-3.309-1.911-1.984-4.984-3.952-9.974-6-15.143l-12.956,5.1c5.381,13.644,10.723,27.184,16.131,40.894l12.956-5.1c-1.839-4.684-3.627-9.234-5.415-13.785-.153-.388-.344-.765-.46-1.163a2.368,2.368,0,0,1,1.321-2.982,2.287,2.287,0,0,1,3,1.257c.573,1.226,1.02,2.51,1.531,3.765q2.35,5.767,4.706,11.531Zm-87.273,28.328c8.421-.224,12.45,8.955,6.66,15.222a37.172,37.172,0,0,0,4.977,2.889,4.365,4.365,0,0,0,5.356-2.4,4.138,4.138,0,0,0-1.357-5.38c-1.278-.991-2.593-1.941-3.82-2.992a2.279,2.279,0,0,1,.143-3.835,2.477,2.477,0,0,1,3.028.377c2.483,1.908,4.94,3.852,7.488,5.671a4.709,4.709,0,0,0,6.785-.986c1.461-2.109.936-4.685-1.313-6.423-1.941-1.5-3.9-2.971-5.823-4.5a2.353,2.353,0,0,1-.6-3.43c.855-1.1,2.14-1.206,3.469-.264.681.482,1.323,1.019,1.986,1.525,2.243,1.706,4.442,3.474,6.743,5.1a4.712,4.712,0,0,0,6.67-1.012,4.625,4.625,0,0,0-1.232-6.459,65.235,65.235,0,0,1-6.807-5.261,3.073,3.073,0,0,1-.916-2.409,2.637,2.637,0,0,1,1.71-1.707,3.434,3.434,0,0,1,2.383.753c3.242,2.372,6.381,4.886,9.624,7.257a6.621,6.621,0,0,0,2.815,1.2,4.505,4.505,0,0,0,4.733-2.861,4.905,4.905,0,0,0-1.917-5.8q-8.736-6.484-17.534-12.883a3.42,3.42,0,0,0-2.136-.577c-10.161.923-18.776-2.415-26.041-9.421-.97-.936-1.537-.982-2.55-.08a33.637,33.637,0,0,1-12.061,7.371c-4.631,1.474-9.065,1.2-13.106-1.76-4.485-3.282-4.28-7.92.219-11.163,4.481-3.229,8.757-6.742,13.114-10.142a10.961,10.961,0,0,0,1.01-1.059,20.867,20.867,0,0,0-2.407-.457c-4.944-.315-9.887-.7-14.836-.839a19.861,19.861,0,0,1-7.616-1.454c-1.08-.475-2.181-.9-3.373-1.387-4.585,11.622-9.108,23.09-13.659,34.627l12.636,8.021c1.294-1.5,2.471-2.965,3.757-4.326a8.552,8.552,0,0,1,14.6,3.966c.109.443.241.881.36,1.318a9.016,9.016,0,0,1,6.343,2.06,9.386,9.386,0,0,1,3.071,5.893c5.613.341,8.451,2.757,9.428,8.021M1432.54,928.6l16.133-40.9-12.965-5.107-16.132,40.893,12.964,5.11m22.567,19.574a5.4,5.4,0,0,0,2.043-.992c2.286-2.493,4.516-5.051,6.582-7.728a3.586,3.586,0,0,0-.8-4.912,3.657,3.657,0,0,0-4.986.135c-2.26,2.448-4.413,5-6.49,7.608a3.4,3.4,0,0,0-.149,3.851c.688,1.293,1.823,1.957,3.8,2.037m18.9-2.468a4.445,4.445,0,0,0-2.528-3.7,3.8,3.8,0,0,0-4.416,1.016c-1.94,2.18-3.831,4.405-5.692,6.654a3.85,3.85,0,1,0,5.825,5.021c1.9-2.149,3.769-4.323,5.565-6.556a13.081,13.081,0,0,0,1.246-2.437m9.6,26.579a6.489,6.489,0,0,0,2.128-1.156c2.189-2.371,4.3-4.826,6.3-7.36a3.8,3.8,0,0,0-5.731-4.944c-2.223,2.41-4.338,4.928-6.384,7.492a3.43,3.43,0,0,0-.157,3.982c.717,1.288,1.868,1.911,3.847,1.987m-.131-18.618a4.408,4.408,0,0,0-2.6-3.654,3.644,3.644,0,0,0-4.274.984q-2.971,3.32-5.794,6.77a3.774,3.774,0,0,0,.36,5.566,3.889,3.889,0,0,0,5.558-.661c1.86-2.112,3.7-4.24,5.459-6.438a13.6,13.6,0,0,0,1.295-2.567" transform="translate(-1414.9 -877.95)" fill="#1b4698"/>
    </g>
  </g>
</svg>
