<svg xmlns="http://www.w3.org/2000/svg" width="200" height="200" viewBox="0 0 200 200">
  <g id="Group_241" data-name="Group 241" transform="translate(14825 21735)">
    <rect id="Rectangle_297" data-name="Rectangle 297" width="200" height="200" transform="translate(-14825 -21735)" fill="none"/>
    <g id="Group_227" data-name="Group 227" transform="translate(-14791 -21701)">
      <path id="Path_710" data-name="Path 710" d="M413.605,166.445q0-3.411,0-6.82c0-1.95-.8-2.747-2.757-2.751q-4.433-.009-8.865,0h-5.445v-7.042q0-6.418,0-12.837c0-2.123-.758-2.876-2.889-2.879q-5.789-.006-11.579,0H375.85v-6.924q0-6.478,0-12.955c0-2.124-.758-2.878-2.89-2.879q-25.212,0-50.424,0c-2.187,0-2.925.751-2.926,2.971q0,6.42,0,12.837v6.95h-6.1q-5.83,0-11.661,0c-2.187,0-2.926.751-2.927,2.97q0,6.419,0,12.837v6.951h-1.731q-1.741,0-3.483.009c-2.844.012-5.784.023-8.677-.037a3.12,3.12,0,0,0-3.18,1.594v25.711h130.2a3.2,3.2,0,0,0,1.6-3.187c-.044-4.839-.039-9.758-.034-14.515m-89.425-50.51h47.049v18.083H324.18Zm84.842,63.592H286.455V161.386l75.523,0a8.523,8.523,0,0,0,1.009-.023,2.246,2.246,0,0,0-.026-4.482,8.581,8.581,0,0,0-.905-.016l-.359,0H303.492v-6.864l22.745,0c.242,0,.486,0,.727-.009a2.3,2.3,0,0,0,2.321-2.292A2.232,2.232,0,0,0,326.9,145.5c-3.8-.018-7.6-.015-11.4-.013l-11.99,0v-6.758h88.422v18.142H391.6q-1.195,0-2.389-.005c-1.869-.006-3.8-.013-5.7.018a2.235,2.235,0,0,0-2.263,2.207,2.305,2.305,0,0,0,2.214,2.282c.241.018.485.015.728.012l.279,0h24.55Z" transform="translate(-281.845 -52.367)" fill="#1b4698"/>
      <path id="Path_711" data-name="Path 711" d="M349.9,73.488q19.2.006,38.393,0c4.128,0,6.311-2.178,6.314-6.3q.01-14.09,0-28.181c0-4.1-2.188-6.269-6.318-6.279-1.392,0-2.783,0-4.219,0h-2.416l0-2.021c0-1.182.006-2.318-.007-3.454a5.618,5.618,0,0,0-5.866-5.867c-4.544-.026-9.022-.025-13.311,0a5.63,5.63,0,0,0-5.827,5.772c-.018,1.138-.014,2.276-.009,3.482,0,.569,0,1.154,0,1.759v.328l-2.457,0-1.993,0c-.834,0-1.658,0-2.483.007-3.765.022-6.017,2.284-6.024,6.052-.015,8.845-.016,18.19,0,28.568.006,3.9,2.271,6.132,6.216,6.133m40.141-5.759c-.006.372-.343.724-1.127,1.174a.939.939,0,0,1-.476.109c-.11,0-.219-.011-.323-.021a2.5,2.5,0,0,0-.256-.018H350.378c-2.035,0-2.178-.144-2.18-2.212V55.376l4.661,0c2.259,0,4.518.006,6.775-.014a1.467,1.467,0,0,1,1.541,1,7.424,7.424,0,0,0,7.356,4.682h0a7.534,7.534,0,0,0,7.405-4.665,1.73,1.73,0,0,1,1.226-.967c3.289-.041,6.531-.039,9.964-.036h2.957l0,2.82c0,3.281.007,6.381-.045,9.532M371.938,51.264c.017.892.033,1.736-.034,2.6-.128,1.649-1.426,2.667-3.394,2.667h-.064c-1.955-.022-3.192-1.082-3.309-2.836-.052-.8-.041-1.594-.028-2.434.007-.382.013-.772.013-1.174v-.328h6.8v.328c0,.4.007.792.014,1.182M361.23,27.038c.029-.5.858-1.092,1.377-1.1,4.488-.058,8.874-.056,13.035,0,.524.008,1.4.65,1.435,1.173.084,1.27.073,2.521.062,3.846,0,.458-.009.919-.009,1.386v.328H361.18v-.328c0-.456,0-.908-.006-1.358-.01-1.358-.02-2.641.056-3.951M348.586,37.659a1.775,1.775,0,0,1,1.436-.429c12.833.029,25.708.029,38.268,0a1.539,1.539,0,0,1,1.826,1.823c-.037,2.726-.03,5.512-.024,8.207q0,1.595.005,3.2v.328H376.459l0-1.215c0-.625.007-1.234-.006-1.842a2.292,2.292,0,0,0-2.583-2.547c-3.857-.021-7.367-.021-10.727,0-1.674.012-2.507.861-2.549,2.6-.014.58-.01,1.161-.007,1.77l0,1.217H348.355l-.036-.286c-.011-.085-.025-.174-.04-.265a4.511,4.511,0,0,1-.075-.707q0-1.768,0-3.534c0-2.274.008-4.625-.026-6.935a1.834,1.834,0,0,1,.406-1.382" transform="translate(-303.146 -21.372)" fill="#1b4698"/>
      <path id="Path_712" data-name="Path 712" d="M305.484,62.975c.887.03,1.792.023,2.669.016.4,0,.792-.006,1.188-.006l1.116.006c.9.007,1.831.015,2.743-.011a2.621,2.621,0,0,0,1.775-.7,2.126,2.126,0,0,0,.647-1.607,2.291,2.291,0,0,0-2.41-2.191c-2.815-.031-5.343-.031-7.728,0a2.211,2.211,0,0,0-2.332,2.238,2.244,2.244,0,0,0,2.332,2.253" transform="translate(-289.185 -34.148)" fill="#1b4698"/>
      <path id="Path_713" data-name="Path 713" d="M442.5,60.693a2.1,2.1,0,0,0,.685,1.613,2.849,2.849,0,0,0,1.884.68c.857.015,1.714.011,2.572.007l1.161,0h.1c.365,0,.73,0,1.095,0,.848.006,1.694.009,2.541-.012a2.26,2.26,0,1,0-.045-4.5c-2.407-.022-4.922-.022-7.475,0a2.315,2.315,0,0,0-2.516,2.213" transform="translate(-337.19 -34.148)" fill="#1b4698"/>
      <path id="Path_714" data-name="Path 714" d="M319.482,44.5a1.691,1.691,0,0,0,2.218.187,5.44,5.44,0,0,0,1.127-1.3c.122-.172.243-.345.368-.51-.094-.224-.174-.433-.246-.627a2.928,2.928,0,0,0-.49-.976c-2.327-2.432-4.152-4.259-5.917-5.924a1.977,1.977,0,0,0-1.366-.549,2.285,2.285,0,0,0-1.579.675,2.137,2.137,0,0,0-.218,2.931c1.775,1.886,3.771,3.881,6.1,6.1" transform="translate(-292.541 -25.995)" fill="#1b4698"/>
      <path id="Path_715" data-name="Path 715" d="M321.7,73.771a2.13,2.13,0,0,0-2.589.516c-2.071,2.035-3.782,3.746-5.383,5.386a2.275,2.275,0,0,0-.15,3.335,2.218,2.218,0,0,0,3.331-.167c1.6-1.562,3.482-3.413,5.276-5.3a4.313,4.313,0,0,0,.685-1.106c.044-.092.084-.175.121-.246a2.3,2.3,0,0,0-1.29-2.419" transform="translate(-292.552 -39.341)" fill="#1b4698"/>
      <path id="Path_716" data-name="Path 716" d="M438.494,44.961a2.585,2.585,0,0,0,1.906-.878c1.672-1.632,3.457-3.392,5.187-5.2a4.721,4.721,0,0,0,.715-1.1c.047-.091.089-.173.128-.242a2.327,2.327,0,0,0-1.238-2.45,2.3,2.3,0,0,0-1.033-.265,2.208,2.208,0,0,0-1.554.713c-1.807,1.768-3.62,3.576-5.388,5.375a2.3,2.3,0,0,0-.237,3.342,2.138,2.138,0,0,0,1.514.712" transform="translate(-335.077 -26.004)" fill="#1b4698"/>
      <path id="Path_717" data-name="Path 717" d="M442.886,83.184a1.7,1.7,0,0,0,2.215.228,5.745,5.745,0,0,0,1.152-1.274c.12-.162.239-.322.359-.473-.074-.222-.132-.427-.184-.614a2.128,2.128,0,0,0-.34-.831c-2.194-2.28-4.183-4.328-6.286-6.28a1.674,1.674,0,0,0-1.161-.449,2.4,2.4,0,0,0-1.662.734,2.151,2.151,0,0,0-.189,2.847c1.775,1.889,3.712,3.831,6.1,6.111" transform="translate(-335.066 -39.326)" fill="#1b4698"/>
      <path id="Path_718" data-name="Path 718" d="M365.5,163.445a2.219,2.219,0,0,0-1.639.614,2.254,2.254,0,0,0-.718,1.605,2.249,2.249,0,1,0,2.357-2.219" transform="translate(-309.852 -70.311)" fill="#1b4698"/>
      <path id="Path_719" data-name="Path 719" d="M420.033,180.8h-.026a2.261,2.261,0,1,0,2.243,2.2,2.21,2.21,0,0,0-2.218-2.2" transform="translate(-328.681 -76.294)" fill="#1b4698"/>
    </g>
  </g>
</svg>
