<svg xmlns="http://www.w3.org/2000/svg" width="200" height="200" viewBox="0 0 200 200">
  <g id="Group_243" data-name="Group 243" transform="translate(15046 21510)">
    <rect id="Rectangle_301" data-name="Rectangle 301" width="200" height="200" transform="translate(-15046 -21510)" fill="none"/>
    <g id="Group_228" data-name="Group 228" transform="translate(-15018 -21485)">
      <path id="Path_720" data-name="Path 720" d="M25.557,132.959c3-3.013,5.962-5.9,8.828-8.876a13.485,13.485,0,0,1,10.4-4.311c5.843.084,11.688.054,17.532.009a13.612,13.612,0,0,1,9.572,3.722,4.985,4.985,0,0,0,2.986,1.2c6.049.11,12.1.054,18.151.054s9.04,2.088,11.141,7.9c.54-.288,1.067-.552,1.577-.846,7.7-4.436,15.368-8.926,23.1-13.3a9.83,9.83,0,0,1,14.985,7.983c.255,4.159-1.692,7.245-5.27,9.313q-12.21,7.057-24.429,14.1c-4.385,2.531-8.779,5.045-13.146,7.606a14.4,14.4,0,0,1-7.526,2.014c-10.085-.041-20.17.02-30.254-.05a5.131,5.131,0,0,0-4.364,1.792,32.654,32.654,0,0,1-2.914,2.655,28.473,28.473,0,0,1,2.534,2.016,2.442,2.442,0,0,1,.049,3.82q-9.463,9.517-18.981,18.977c-1.38,1.371-2.619,1.252-4.158-.285Q24.18,177.272,13,166.072q-5.757-5.761-11.515-11.523c-1.968-1.971-1.976-3-.038-4.939q8.831-8.83,17.668-17.656c2.275-2.273,3.087-2.271,5.38,0,.292.288.595.566,1.063,1.009m27.555,27.252c.721-.785,1.512-1.6,2.254-2.464a9.308,9.308,0,0,1,7.691-3.233q15.2.159,30.409-.02a10.749,10.749,0,0,0,4.987-1.312c12.531-7.121,24.992-14.366,37.466-21.586,2.869-1.66,3.805-4.528,2.353-7.061-1.44-2.512-4.471-3.184-7.29-1.561q-13.363,7.694-26.7,15.44a4.331,4.331,0,0,0-1.392,1.367,9.9,9.9,0,0,1-8.67,4.833c-2.637.032-5.275.008-7.913.007-2.741,0-5.492.123-8.217-.082a3.305,3.305,0,0,1-2.278-1.641,2.876,2.876,0,0,1,.566-2.461,3.193,3.193,0,0,1,2.221-.747c5.171-.062,10.343-.034,15.515-.033a4.807,4.807,0,0,0,4.588-2.621,4.89,4.89,0,0,0-4.478-7.294c-6.361-.059-12.723-.075-19.084.008a8.844,8.844,0,0,1-6.948-2.786,6.909,6.909,0,0,0-5.137-2.195c-6.465-.021-12.931-.088-19.392.059a6.694,6.694,0,0,0-4.13,1.424c-3.532,3.31-6.8,6.9-10.09,10.291l23.669,23.667m-.1,7.69L21.871,136.722,6.412,152.231l30.837,31.408L53.017,167.9" transform="translate(0 -40.336)" fill="#1b4698"/>
      <path id="Path_721" data-name="Path 721" d="M134.542,0A39.726,39.726,0,1,1,94.715,39.538,39.744,39.744,0,0,1,134.542,0m-.062,4.965a34.756,34.756,0,1,0,34.714,34.292c-.024-18.735-15.805-34.325-34.714-34.292" transform="translate(-32.63 0)" fill="#1b4698"/>
      <path id="Path_722" data-name="Path 722" d="M139.66,74.741a29.792,29.792,0,1,1,29.785-29.793A29.861,29.861,0,0,1,139.66,74.741m-.1-4.973a24.824,24.824,0,1,0-24.731-24.993,24.835,24.835,0,0,0,24.731,24.993" transform="translate(-37.85 -5.222)" fill="#1b4698"/>
      <path id="Path_723" data-name="Path 723" d="M160.247,38.236h-8.154a7.408,7.408,0,0,1,2.768,5.041h5.387v2.471H154.91c-.494,5.041-4.5,8.253-10.823,8.451,3.855,4,8.055,9.043,12.207,14.134h-4.745c-3.854-4.646-7.462-8.945-12.108-13.887V51.382h2.718c5.337,0,8.2-2.224,8.55-5.634H139.441V43.277h11.12c-.692-2.866-3.312-4.3-7.611-4.3h-3.509V35.765h20.806Z" transform="translate(-48.038 -12.32)" fill="#1b4698"/>
    </g>
  </g>
</svg>
