<svg xmlns="http://www.w3.org/2000/svg" width="60.596" height="57.957" viewBox="0 0 60.596 57.957"><defs><style>.a{fill:#1b4698;}</style></defs><path class="a" d="M219.382,28.376a28.706,28.706,0,0,0-8.811,13.5c1.007-10.691,6.4-18.439,15.828-23.509-.111-.24-.221-.49-.341-.736s-.263-.516-.395-.775a2.04,2.04,0,0,0-.206.076c-8.859,4.62-14.356,11.78-16.3,21.611-.221,1.117-.323,2.258-.481,3.387v3.788c.034.19.086.378.1.569a29.644,29.644,0,0,0,6.911,16.9c.634.765,1.334,1.475,1.908,2.106l1.355-1.165c-.132-.14-.224-.242-.321-.34a27.224,27.224,0,0,1-5.871-8.729,15.713,15.713,0,0,1-1.282-4.091,20.3,20.3,0,0,1,.16-4.889,26.061,26.061,0,0,1,19.775-21.913c.99-.237,1.994-.41,3.026-.62-.074-.582-.143-1.134-.216-1.7a27.74,27.74,0,0,0-14.844,6.534" transform="translate(-208.678 -7.335)"/><path class="a" d="M291.326,15.117a15.973,15.973,0,1,0-31.89,1.895,15.549,15.549,0,0,0,5.517,11.075,15.35,15.35,0,0,0,7.608,3.6c.106-.617.2-1.152.3-1.722a14.093,14.093,0,0,1-6.467-3c.82-1.24,1.6-2.4,2.348-3.574.176-.278.324-.334.613-.223.431.165.876.3,1.341.454l.565-1.653-1.515-.554c.307-1.526.6-3,.917-4.56h1.624v-1.8h-1.628l-.915-4.52,1.52-.548-.573-1.659-1.643.547-2.651-3.83a13.977,13.977,0,0,1,17.974,0L281.71,8.866l-1.646-.543L279.5,9.981l1.517.542-.92,4.567h-1.642v1.763h1.642c.313,1.556.611,3.035.918,4.564l-1.517.554.571,1.646,1.645-.53,2.687,3.859a14.26,14.26,0,0,1-6.51,3.02l.3,1.675a15.806,15.806,0,0,0,13.133-16.524M267.318,9.453l-1.657.6.561,1.648,1.818-.582c.273,1.312.536,2.572.817,3.922h-1.8v1.8h1.8l-.807,3.98-1.81-.585-.587,1.646,1.658.6-2.219,3.166c-4.962-4.776-5.408-13.967-.008-19.356l2.236,3.159m18.425,16.193c-.4-.494-.786-.937-1.125-1.416-.385-.544-.724-1.121-1.125-1.749l1.6-.6-.564-1.645-1.817.591-.818-3.974h1.819V15.1H281.9c.276-1.37.532-2.642.8-3.987l1.82.6c.2-.561.375-1.074.575-1.649l-1.656-.612L285.658,6.3c4.782,4.629,5.563,13.55.085,19.343" transform="translate(-230.752 0)"/><path class="a" d="M251.818,13.256V11.5a29.711,29.711,0,0,0-10.01,2.217l.675,1.639a28.887,28.887,0,0,1,9.335-2.1" transform="translate(-223.096 -5.006)"/><rect class="a" width="1.7" height="1.718" transform="translate(42.001 3.864)"/><rect class="a" width="1.698" height="1.72" transform="translate(45.55 3.863)"/><rect class="a" width="1.696" height="1.72" transform="translate(43.776 30.214)"/></svg>