<svg xmlns="http://www.w3.org/2000/svg" width="58.362" height="58.375" viewBox="0 0 58.362 58.375"><defs><style>.a{fill:#1b4698;}</style></defs><path class="a" d="M160.717,145.868a19.56,19.56,0,0,0-7.506-13.762,20.469,20.469,0,0,0-24.7-.483,1.067,1.067,0,0,1-.984.2,20.145,20.145,0,0,0-24.907,22.009,20.732,20.732,0,0,0,9.35,15.158c.132.09.255.192.417.315-1.863,1.858-3.7,3.673-5.517,5.508a2.892,2.892,0,0,0,0,4.267c.811.827,1.636,1.641,2.457,2.459a2.942,2.942,0,0,0,4.593-.02q3.971-3.967,7.937-7.939c.573-.575,1.092-1.211,2.013-1.22a2.158,2.158,0,0,0,.531-.194c1.285-.394,2.554-.867,3.863-1.157a12.012,12.012,0,0,1,8.666,1.113,1.5,1.5,0,0,1,.474.445,9.643,9.643,0,0,0,.863,1.3c3.57,3.6,7.168,7.177,10.745,10.772a4.957,4.957,0,0,0,2.124,1.455h1.14a5.573,5.573,0,0,0,2.223-1.606c.574-.608,1.18-1.184,1.769-1.777a2.939,2.939,0,0,0,.014-4.555q-4.795-4.8-9.6-9.586a6.185,6.185,0,0,0-.576-.444c.259-.127.379-.2.506-.246q11.6-4.485,13.953-16.7c.115-.593.172-1.2.257-1.8v-2.963c-.036-.183-.086-.366-.107-.55m-46.452,32.421c-.588-.607-1.21-1.266-1.852-1.9a.965.965,0,0,0-1.331-.151.944.944,0,0,0-.055,1.489c.635.647,1.3,1.27,2.058,2.012-.306.25-.553.454-.8.652a.968.968,0,0,1-1.345-.013q-1.414-1.364-2.779-2.777a.853.853,0,0,1-.056-1.241c1.14-1.188,2.328-2.331,3.546-3.54.622.637,1.225,1.266,1.839,1.881.54.542,1.112.593,1.542.158s.38-.976-.179-1.54c-.612-.617-1.231-1.229-1.865-1.862.412-.408.786-.78,1.042-1.033l6.121,1.976-5.884,5.894m9.04-7.991a1.174,1.174,0,0,1-1.1.261,19.048,19.048,0,0,1-13.542-7.187A18.5,18.5,0,0,1,104.4,151.9c.022-9.386,6.279-16.909,14.919-18.451a19.28,19.28,0,0,1,21.988,14.46,27.124,27.124,0,0,1,.479,3.375,1.1,1.1,0,0,1-.292.785q-9.086,9.126-18.189,18.233m4.012-1.091h0m10.562,1.191A14.639,14.639,0,0,0,127.4,169.19l13.036-13.038a14.618,14.618,0,0,0,1.378,10.754c-1.164,1.159-2.3,2.3-3.458,3.425a.524.524,0,0,1-.479.068m12.362,4.6c-.625.616-1.286,1.263-1.942,1.916a.973.973,0,1,0,1.362,1.378c.663-.649,1.3-1.324,1.96-2,1.222,1.208,2.41,2.351,3.556,3.535a.835.835,0,0,1-.017,1.2q-1.4,1.464-2.858,2.862a.893.893,0,0,1-1.289-.016c-.243-.209-.464-.443-.755-.724.675-.655,1.321-1.268,1.952-1.9.531-.53.572-1.127.132-1.544-.424-.4-.988-.345-1.505.17-.63.628-1.251,1.267-1.846,1.871l-4.159-4.162c.591-.578,1.217-1.18,1.832-1.794.556-.554.613-1.1.179-1.542s-1.013-.367-1.547.166c-.616.615-1.223,1.239-1.81,1.836l-4.046-4.054,4-4.015,1.306,1.353c-.624.6-1.333,1.257-2,1.947a.94.94,0,0,0,.007,1.375.984.984,0,0,0,1.343,0c.145-.122.275-.263.408-.4.544-.554,1.087-1.111,1.587-1.622L150.241,175m8.548-25.476a19.267,19.267,0,0,1-13.62,16.764,1.491,1.491,0,0,1-1.9-.8,12.586,12.586,0,0,1-.846-9.244,12.428,12.428,0,0,1,.749-2.383,7.319,7.319,0,0,0,.387-4.673,21.147,21.147,0,0,0-12.649-16.275c-.136-.063-.274-.126-.493-.225a17.459,17.459,0,0,1,6.5-2.641c6.63-1.19,12.411.51,17.065,5.427a17.5,17.5,0,0,1,4.805,14.049" transform="translate(-102.462 -127.714)"/><path class="a" d="M144.265,197.068A5.835,5.835,0,0,0,139,207.092a7.012,7.012,0,0,0,3.081,1.48h1.6a1.458,1.458,0,0,1,.255-.1,5.834,5.834,0,0,0,.331-11.4m-1.428,9.561a3.884,3.884,0,1,1,3.926-3.891,3.888,3.888,0,0,1-3.926,3.891" transform="translate(-113.702 -150.198)"/><path class="a" d="M110.942,164.3c-.722-1.839-.527-3.77-.6-5.679a10.869,10.869,0,0,1,.641-3.847c.076-.234.179-.462.234-.7a.976.976,0,0,0-1.06-1.183,1.026,1.026,0,0,0-.84.768,16.428,16.428,0,0,0-1.061,4.872,16.849,16.849,0,0,0,1.25,7.511.97.97,0,0,0,1.291.608.991.991,0,0,0,.509-1.331c-.114-.342-.232-.682-.363-1.017" transform="translate(-104.333 -135.896)"/><path class="a" d="M149.785,146.148a5.2,5.2,0,0,0-.865-.568c-.311.268-.715.45-.788.722a1.446,1.446,0,0,0,.2,1.083c.625.879,1.4,1.655,2,2.545a15.011,15.011,0,0,1,2.39,6.572.925.925,0,0,0,1.122.856.97.97,0,0,0,.784-1.138,17.091,17.091,0,0,0-4.841-10.072" transform="translate(-117.291 -133.519)"/><path class="a" d="M178.681,149.037a15.1,15.1,0,0,1,.832,5.87,13.993,13.993,0,0,1-.938,5.168.981.981,0,0,0,.5,1.418c.558.218,1.037-.049,1.315-.736a17.364,17.364,0,0,0,1.242-6.33,16.652,16.652,0,0,0-1.131-6.007.956.956,0,0,0-1.269-.635.915.915,0,0,0-.554,1.253" transform="translate(-127.157 -134.213)"/><path class="a" d="M143.732,202.682a.949.949,0,0,0-.921.963.982.982,0,0,0,.986.971.992.992,0,0,0,.953-1.008.957.957,0,0,0-1.018-.926" transform="translate(-115.573 -152.074)"/></svg>