<svg xmlns="http://www.w3.org/2000/svg" width="50.008" height="58.369" viewBox="0 0 50.008 58.369"><defs><style>.a{fill:#1b4698;}</style></defs><path class="a" d="M63.712,257.013a4,4,0,0,0-2.83-3.971.483.483,0,0,1-.385-.568c.014-.931.039-1.864-.016-2.792a1.179,1.179,0,0,0-.427-.845A6.2,6.2,0,0,1,58.137,247a.844.844,0,0,0-1.194-.272.861.861,0,0,0-.194,1.251c.134.217.282.425.438.658h-19.2c.595-1.253,1.29-2.477,1.774-3.781a44.669,44.669,0,0,0,2.27-12.274c.075-.979.113-1.961.169-2.972H52.75c.192,2.2.342,4.356.576,6.5a39.052,39.052,0,0,0,1.754,8.338c.209.619.6.866,1.1.718.527-.156.738-.614.532-1.241a51.189,51.189,0,0,1-2.155-13.907.621.621,0,0,1,.488-.729,3.664,3.664,0,0,0,2.4-2.877,3.9,3.9,0,0,0-.881-3.248c.11-.064.188-.115.27-.158a5.6,5.6,0,0,0,3.115-4.719q.531-5.9,1.081-11.8c.07-.758-.263-1.137-1.04-1.141q-1.881-.009-3.761,0c-.749,0-1,.232-1.1,1-.223,1.636-.422,3.276-.684,4.906a1.417,1.417,0,0,1-.536.926,1.52,1.52,0,0,1-1.107.053,1.017,1.017,0,0,1-.606-1.068c0-1.577,0-3.154,0-4.731,0-.807-.286-1.085-1.1-1.085q-3.562,0-7.124,0c-.876,0-1.138.269-1.139,1.167,0,1.5,0,3,0,4.5,0,.813-.4,1.326-1.052,1.38s-1.119-.425-1.225-1.22q-.327-2.455-.666-4.909c-.094-.679-.365-.917-1.057-.919-1.273,0-2.546-.007-3.819,0-.768,0-1.081.387-1.011,1.162q.545,5.929,1.081,11.856a5.55,5.55,0,0,0,2.586,4.337c.252.165.52.3.793.463-.057.081-.1.142-.142.2a3.806,3.806,0,0,0,1.781,5.971c.373.14.371.345.362.639a59.059,59.059,0,0,1-1.2,10.453,20.8,20.8,0,0,1-2.136,6.157c-.194.336-.429.647-.685,1.027a11.192,11.192,0,0,1-1.717-6.076,3.476,3.476,0,0,0,2.609-3.173,3.515,3.515,0,0,0-2.594-3.706c.13-.182.228-.318.326-.456A8.283,8.283,0,0,0,23.165,222.92c-.664.534-.826,1.034-.479,1.477.369.47.834.433,1.526-.12l.045-.035a6.565,6.565,0,0,1,8.516,9.981,1.389,1.389,0,0,1-.844.349q-3.619.042-7.238,0a1.239,1.239,0,0,1-.756-.282,6.162,6.162,0,0,1-2.172-4.828,25.108,25.108,0,0,1,.422-2.507,1.227,1.227,0,0,0-.238-.908.953.953,0,0,0-.863-.138,1.255,1.255,0,0,0-.565.718,8.168,8.168,0,0,0,1.055,7.588c.1.151.208.3.325.466-.206.083-.348.134-.485.2a3.408,3.408,0,0,0-2.123,3.059,3.011,3.011,0,0,0,1.682,3.121c1.079.47.955,1.139.836,1.956-.024.169-.048.338-.076.506-.5,2.9-1.776,5.271-4.541,6.618a.991.991,0,0,0-.589,1.009c.018.909,0,1.819,0,2.724a3.931,3.931,0,0,0-2.883,4.332c.061,1.459.028,2.926,0,4.388a1.116,1.116,0,0,0,.6,1.123H63.119a1.121,1.121,0,0,0,.6-1.123c-.022-1.862,0-3.723-.012-5.585M36.781,218.3q-.492-5.416-.992-10.831c-.01-.111,0-.224,0-.381h2.479c.2,1.477.391,2.939.583,4.4a2.886,2.886,0,0,0,2.469,2.606,2.777,2.777,0,0,0,2.921-1.626,4.085,4.085,0,0,0,.278-1.434c.041-1.27.02-2.544.026-3.816,0-.032.028-.065.068-.155h5.871c0,1.42-.011,2.782,0,4.143a2.843,2.843,0,0,0,5.678.281c.184-1.449.383-2.9.581-4.382h2.5c-.082.973-.158,1.947-.247,2.919q-.378,4.139-.765,8.279a3.884,3.884,0,0,1-3.887,3.578q-6.837.023-13.674,0a3.9,3.9,0,0,1-3.886-3.582m2.421,7.434a2.169,2.169,0,0,1,2.321-2.134c2.012-.006,4.025,0,6.038,0,2.032,0,4.064-.01,6.1.007a2.109,2.109,0,0,1,2.106,1.732,2.074,2.074,0,0,1-1.171,2.3,2.7,2.7,0,0,1-1.046.213q-6.038.021-12.076,0a2.133,2.133,0,0,1-2.267-2.122M36.253,250.44H58.774V252.8H36.253Zm-15.228-12a1.76,1.76,0,0,1,1.078-1.979,2.466,2.466,0,0,1,.886-.157q5.324-.015,10.648,0a1.817,1.817,0,0,1,1.917,1.3,1.657,1.657,0,0,1-.67,1.95,2.671,2.671,0,0,1-1.277.358c-1.764.039-3.53.016-5.3.016v-.007c-1.86,0-3.72.016-5.58-.006a1.738,1.738,0,0,1-1.708-1.47m-.475,11.418a11.3,11.3,0,0,0,3.02-7.312c.1-1.122,0-.9.957-.908,2.6-.011,5.2,0,7.806,0h.649a13.237,13.237,0,0,0,2.007,6.905c-.223.518-.421.976-.66,1.53H20.414a1.361,1.361,0,0,1,.136-.212m10.8,12.124H15.467c0-1.611-.049-3.186.018-4.754a1.958,1.958,0,0,1,2.137-1.709q6.038-.007,12.076,0h1.657Zm.024-8.169c-4.121-.013-8.241-.006-12.362-.006h-.66v-1.952h16.15a4.084,4.084,0,0,1-.014.778.671.671,0,0,1-.305.373c-.209.125-.493.143-.672.295a3,3,0,0,1-2.139.512m30.6,8.163H33.034c0-1.844-.053-3.663.021-5.477a2.2,2.2,0,0,1,1.975-1.913,5.212,5.212,0,0,1,.624-.033q11.847,0,23.693-.006a2.4,2.4,0,0,1,2.079.836,2.272,2.272,0,0,1,.529,1.164c.056,1.8.024,3.6.024,5.429" transform="translate(-13.717 -205.352)"/></svg>