<svg xmlns="http://www.w3.org/2000/svg" width="58.373" height="58.373" viewBox="0 0 58.373 58.373"><defs><style>.a{fill:#1b4698;}</style></defs><path class="a" d="M433.677,369.549c-2.061-10.539-8.078-17.9-17.923-22.119a26.341,26.341,0,0,0-8.6-2,3.85,3.85,0,0,1-.5-.1h-3.42c-1.126.151-2.262.246-3.376.461a28.751,28.751,0,0,0-20.673,15.039,27.045,27.045,0,0,0-3.377,14.913c.682,10.976,5.895,19.194,15.5,24.543a26.737,26.737,0,0,0,14.859,3.362c10.953-.675,19.151-5.88,24.527-15.438a27.015,27.015,0,0,0,3.337-11.5,3.881,3.881,0,0,1,.1-.491v-3.42c-.148-1.086-.241-2.182-.451-3.256m-17.909-19.7a.957.957,0,0,1,.682.016,26.953,26.953,0,0,1,10.875,9.183.943.943,0,0,1,.114.672c-.585,2.57-1.2,5.132-1.786,7.7a.824.824,0,0,1-.63.687q-4.835,1.588-9.656,3.218a.849.849,0,0,1-.919-.171q-4.057-3.272-8.139-6.513a.92.92,0,0,1-.395-.813c.018-1.6.008-3.191.008-4.786s.01-3.191-.007-4.786a.6.6,0,0,1,.445-.671c3.139-1.239,6.269-2.5,9.409-3.738m-2.525,24.566c-.8,2.768-1.441,5.579-2.122,8.379-.1.4-.259.5-.65.5q-5.526-.023-11.052,0c-.392,0-.552-.1-.649-.5-.766-3.13-1.564-6.252-2.332-9.383a.766.766,0,0,1,.115-.64c2.77-2.247,5.561-4.471,8.393-6.735,2.519,2.016,4.956,4.046,7.488,5.949a1.909,1.909,0,0,1,.809,2.431m.106-25.735c-.181.082-.32.153-.464.211q-3.775,1.515-7.553,3.022a.892.892,0,0,1-.585.062c-2.738-1.065-5.469-2.15-8.289-3.265a26.352,26.352,0,0,1,16.891-.029m-30.808,10.4a27.076,27.076,0,0,1,10.907-9.226.822.822,0,0,1,.585-.006c3.194,1.252,6.379,2.525,9.574,3.776a.53.53,0,0,1,.367.6c-.008,1.613,0,3.227,0,4.841,0,1.594.016,3.19-.016,4.784a1.115,1.115,0,0,1-.36.75c-2.727,2.211-5.477,4.4-8.211,6.6a.759.759,0,0,1-.823.128q-4.848-1.632-9.709-3.228a.826.826,0,0,1-.615-.7c-.588-2.568-1.2-5.13-1.789-7.7a.874.874,0,0,1,.095-.624m-1.659,2.714c.076.24.125.369.157.5.452,1.919.908,3.837,1.341,5.76a.8.8,0,0,1-.1.606c-1.431,1.748-2.883,3.479-4.332,5.212a1.83,1.83,0,0,1-.217.168,27.252,27.252,0,0,1,3.156-12.249m1.952,27.762a1.247,1.247,0,0,1-.982-.626,26.946,26.946,0,0,1-3.957-11.519.9.9,0,0,1,.167-.608q2.769-3.364,5.581-6.692a.7.7,0,0,1,.606-.152q4.892,1.595,9.765,3.246a.869.869,0,0,1,.475.525q1.27,4.959,2.482,9.931a.891.891,0,0,1-.123.66q-2.351,3.184-4.744,6.337a1.854,1.854,0,0,1-.346.3c-1.166-.181-2.234-.346-3.3-.514-1.874-.3-3.746-.6-5.622-.882m1.175,2.149c1.326.205,2.654.407,3.979.616,1.123.177,2.245.355,3.365.549a.753.753,0,0,1,.47.24c1.532,2.369,3.047,4.748,4.526,7.17a25.628,25.628,0,0,1-12.34-8.576m26.958,9.348a26.934,26.934,0,0,1-11.021.242,1.373,1.373,0,0,1-1.02-.68q-2.558-4.075-5.176-8.111a.613.613,0,0,1,.025-.844q2.3-3.011,4.545-6.059a.866.866,0,0,1,.8-.387c1.937.015,3.874.007,5.812.007,1.956,0,3.913.008,5.868-.007a.825.825,0,0,1,.755.371q2.3,3.078,4.642,6.129a.6.6,0,0,1,.06.794c-1.547,2.677-3.065,5.372-4.617,8.047a1.182,1.182,0,0,1-.677.5m3.171-.91c.6-1.058,1.124-1.976,1.647-2.893.732-1.283,1.476-2.56,2.192-3.853a1,1,0,0,1,.81-.587c2.267-.337,4.528-.71,6.792-1.068a3.428,3.428,0,0,1,.428,0,27.466,27.466,0,0,1-11.869,8.4m13.723-10.968a.721.721,0,0,1-.433.293q-4.519.74-9.044,1.439a.652.652,0,0,1-.514-.218q-2.462-3.207-4.882-6.443a.689.689,0,0,1-.093-.51q1.245-5.051,2.527-10.092a.68.68,0,0,1,.377-.408q4.954-1.674,9.923-3.3a.589.589,0,0,1,.508.155q2.827,3.351,5.62,6.73a1.4,1.4,0,0,1,.186.371,26.987,26.987,0,0,1-4.175,11.985M431.8,373.7c-1.364-1.632-2.72-3.269-4.09-4.9A.815.815,0,0,1,427.5,368c.5-2.02.959-4.048,1.433-6.073a25.443,25.443,0,0,1,3.233,12.124,4.837,4.837,0,0,1-.365-.344" transform="translate(-375.756 -345.333)"/></svg>