<svg xmlns="http://www.w3.org/2000/svg" width="55.385" height="58.367" viewBox="0 0 55.385 58.367"><defs><style>.a{fill:#1b4698;}</style></defs><path class="a" d="M469.723,108.451c.541-.1,1.088-.18,1.619-.313a.59.59,0,0,1,.713.243,2.7,2.7,0,0,0,2.719,1.059c2.611-.481,5.217-.99,7.822-1.5a2.256,2.256,0,0,0,1.835-1.382,1.83,1.83,0,0,1,1.878-1.308,4.566,4.566,0,0,0,.614-.12,2.918,2.918,0,1,0-1.228-5.7c-.522.1-1.04.219-1.565.3-.161.024-.423,0-.5-.107a3.962,3.962,0,0,0-1.777-1.252h-1.139a2.394,2.394,0,0,1-.319.108q-3.574.693-7.149,1.376A2.991,2.991,0,0,0,470.772,102a.655.655,0,0,1-.4.366c-.661.168-1.344.252-2,.435a2.885,2.885,0,0,0-2.024,3.465,2.922,2.922,0,0,0,3.375,2.186m16.5-7.127a.945.945,0,0,1,1.1.759.97.97,0,0,1-.787,1.14c-.607.138-1.224.235-1.884.358-.123-.64-.239-1.245-.365-1.9.676-.128,1.3-.273,1.937-.358m-12.777.47q3.794-.749,7.595-1.468a.947.947,0,0,1,1.141.782c.256,1.244.5,2.492.711,3.743a.938.938,0,0,1-.813,1.214c-2.511.495-5.027.968-7.541,1.449-.056.011-.112.019-.175.029a.94.94,0,0,1-.98-.777c-.263-1.281-.522-2.564-.745-3.853a.93.93,0,0,1,.807-1.12m-4.537,2.868c.637-.159,1.289-.261,1.988-.4.128.639.247,1.241.379,1.9-.7.135-1.357.29-2.022.381a.942.942,0,0,1-1.025-.785.955.955,0,0,1,.681-1.1" transform="translate(-439.679 -98.359)"/><path class="a" d="M478.433,112.681a4.849,4.849,0,0,0-5.554,3.033c-.877,2.243-1.706,4.5-2.556,6.758-.072.188-.151.372-.261.643a9.789,9.789,0,0,0-15.943-3.609c0-1.515-.011-2.919,0-4.321a4.89,4.89,0,0,0-2.311-4.485c-.041-.026-.06-.089-.084-.13a2.983,2.983,0,0,0-2.909-4.519c-.416.032-.836-.013-1.254.01a.566.566,0,0,1-.612-.361,2.828,2.828,0,0,0-2.639-1.583q-3.818-.02-7.638,0a2.823,2.823,0,0,0-2.635,1.588.573.573,0,0,1-.618.354c-.57-.018-1.141-.022-1.71,0a2.864,2.864,0,0,0-2.846,2.593,9.585,9.585,0,0,0,.294,2.053,4.8,4.8,0,0,0-2.279,4.2q-.005,20.773,0,41.547A1.955,1.955,0,0,0,429,158.59c1.729.005,3.457,0,5.186,0s2.41-.675,2.411-2.411V113.892h7.8v12.414q0,14.989,0,29.978c0,1.585.717,2.306,2.285,2.307q2.537,0,5.072,0c1.648,0,2.364-.712,2.364-2.353q0-11.028,0-22.056v-.691a9.952,9.952,0,0,0,11.441,1.6c-.1.275-.16.466-.23.655q-3.754,9.985-7.508,19.969a1.965,1.965,0,0,0,1.984,2.88q2.793.005,5.585,0a2.068,2.068,0,0,0,2.351-1.625q7.071-18.8,14.129-37.6a5.841,5.841,0,0,0,.385-1.71,4.833,4.833,0,0,0-3.825-4.978m-46.7-4.668c.622-.032,1.246-.007,1.941-.007v1.919c-.718,0-1.412.032-2.1-.011a.919.919,0,0,1-.8-.957.985.985,0,0,1,.958-.944m2.924,47.854v.753h-5.778a2.563,2.563,0,0,1-.051-.367q0-20.689,0-41.378a2.893,2.893,0,0,1,1.946-2.8,2.756,2.756,0,0,1,3.179.886,6.129,6.129,0,0,1,.684,1.7,2.238,2.238,0,0,1,.018.68q0,20.262,0,40.523m10.7-45.116c0,.8-.338,1.132-1.149,1.138-1.232.009-2.465,0-3.7,0s-2.465.007-3.7,0c-.842-.006-1.161-.333-1.164-1.179-.005-1.176-.008-2.352,0-3.527a.99.99,0,0,1,1.118-1.125q3.726-.015,7.453,0c.784,0,1.133.371,1.137,1.166q.01,1.763,0,3.527m1.966-2.693a21.053,21.053,0,0,1,2.186.02.846.846,0,0,1,.714.956.907.907,0,0,1-.867.892c-.658.031-1.318.007-2.034.007Zm4.711,22.356a1.741,1.741,0,0,1,.141.655q.011,12.589,0,25.179c0,.111-.012.221-.024.4-1.865,0-3.668,0-5.47,0-.09,0-.182-.014-.338-.028v-.633q0-20.423,0-40.846a2.92,2.92,0,0,1,2.45-3.193,2.876,2.876,0,0,1,3.367,2.783c.045,2.43.016,4.861.008,7.291a1.453,1.453,0,0,1-.134.543,9.606,9.606,0,0,0-.006,7.847m5.907,3.227c-.154-1.4-.709-1.725-1.92-.984l-1.2-1.264c.623-1.323.3-1.878-1-1.883-1.3-2.252-.7-5.97,1.315-8.213a7.751,7.751,0,0,1,8.761-1.975c-.439.707-.438,1.188-.015,1.563.455.4.875.293,1.91-.56l1.3,1.366c-.537.568-1.2,1.1-.5,1.9.357.406.817.369,1.486-.052,1.285,2.4.616,6.082-1.511,8.314a7.7,7.7,0,0,1-8.624,1.787m22.1-14.942q-4.182,11.222-8.415,22.425-2.824,7.508-5.639,15.02a.647.647,0,0,1-.725.516c-1.767-.026-3.535-.011-5.3-.012-.108,0-.218-.014-.381-.026.1-.284.178-.531.268-.775q4.326-11.5,8.659-23a4.158,4.158,0,0,1,.437-.856,9.66,9.66,0,0,0,1.624-4.326,3,3,0,0,1,.163-.718q1.963-5.249,3.945-10.491a2.889,2.889,0,0,1,2.986-1.915,2.8,2.8,0,0,1,2.61,2.445,3.745,3.745,0,0,1-.23,1.715" transform="translate(-426.879 -100.226)"/><path class="a" d="M470.807,137.607a2.337,2.337,0,0,0-1.637,1.11.869.869,0,0,0,.059,1.234.916.916,0,0,0,1.279.1,3.42,3.42,0,0,0,.863-.885,1.288,1.288,0,0,0,.091-.994c-.112-.273-.493-.435-.655-.565" transform="translate(-440.547 -111.113)"/><path class="a" d="M473.549,136.019a1.194,1.194,0,0,0,.987-.016,2.658,2.658,0,0,0,.952-.942,1.257,1.257,0,0,0,.047-.992c-.11-.259-.482-.406-.621-.512-.773,0-1.9,1.066-1.838,1.645a1.168,1.168,0,0,0,.473.817" transform="translate(-441.89 -109.796)"/><path class="a" d="M479.277,129.671a1.279,1.279,0,0,0-1,.054,2.494,2.494,0,0,0-.915.913,1.228,1.228,0,0,0-.048,1,1.157,1.157,0,0,0,.811.484c.6.074,1.664-1.032,1.668-1.823-.109-.14-.259-.514-.52-.623" transform="translate(-443.242 -108.509)"/><path class="a" d="M479.29,137.837a1.2,1.2,0,0,0-.988.028,2.642,2.642,0,0,0-.947.947,1.25,1.25,0,0,0-.028.991c.113.257.483.4.621.506.774-.008,1.9-1.082,1.829-1.663a1.157,1.157,0,0,0-.486-.81" transform="translate(-443.243 -111.157)"/><path class="a" d="M475.193,141.94a1.268,1.268,0,0,0-.994.029,2.468,2.468,0,0,0-.914.908,1.231,1.231,0,0,0-.065.989,1.163,1.163,0,0,0,.8.513c.6.087,1.657-1,1.665-1.821-.1-.131-.235-.506-.489-.618" transform="translate(-441.913 -112.492)"/><path class="a" d="M483.363,133.79a1.108,1.108,0,0,0-.94-.026,3.446,3.446,0,0,0-1.061,1.069,1.057,1.057,0,0,0,.053.936,1.211,1.211,0,0,0,.841.432c.556.038,1.561-1.029,1.594-1.771-.1-.142-.233-.506-.487-.64" transform="translate(-444.556 -109.833)"/></svg>