<svg xmlns="http://www.w3.org/2000/svg" width="58.374" height="58.365" viewBox="0 0 58.374 58.365"><defs><style>.a{fill:#1b4698;}</style></defs><path class="a" d="M513.77,267.413c-1.083-.5-2.183-.971-3.288-1.425a.611.611,0,0,1-.442-.674c.021-1.5.01-3,.008-4.5,0-.782-.128-.961-.862-1.193-1.41-.448-2.816-.9-4.236-1.32a.75.75,0,0,1-.61-.687c-.3-1.682-.633-3.356-.928-5.038a1.129,1.129,0,0,0-1.029-1.031c-1.7-.3-3.393-.633-5.092-.939a.675.675,0,0,1-.619-.54c-.422-1.437-.885-2.863-1.334-4.292-.23-.729-.416-.867-1.19-.868-1.5,0-3-.012-4.5.007a.613.613,0,0,1-.679-.437c-.462-1.122-.955-2.232-1.44-3.344-.315-.721-.566-.847-1.33-.728-1.368.212-2.733.483-4.111.6a1.816,1.816,0,0,0-1.79,1.4c-.757,2.186-1.619,4.335-2.428,6.5-.263.7.04,1.293.669,1.322.52.024.775-.306.943-.753.787-2.095,1.589-4.184,2.367-6.282a.635.635,0,0,1,.583-.5c1.11-.143,2.214-.339,3.325-.475a.615.615,0,0,1,.486.294c.429.909.8,1.843,1.226,2.754a.877.877,0,0,1-.065.9q-7.528,13.369-15.041,26.746c-.078.138-.175.266-.326.493a5.017,5.017,0,0,0-.608-.7.929.929,0,0,1-.286-1.261c2.249-5.861,4.459-11.736,6.679-17.607.315-.832.215-1.3-.321-1.511-.558-.221-.964.069-1.287.923-2.174,5.747-4.4,11.477-6.489,17.253a9.764,9.764,0,0,1-2.6,3.416c-.24-.254-.438-.485-.658-.693a.863.863,0,0,0-1.389.012c-1.9,1.891-3.837,3.742-5.667,5.7a11.745,11.745,0,0,0,4.524,19.057,27.883,27.883,0,0,0,2.9.743h2.28a2.852,2.852,0,0,1,.38-.1,10.459,10.459,0,0,0,5.919-2.552c2.2-2.008,4.268-4.16,6.379-6.263a.815.815,0,0,0-.01-1.262c-.228-.244-.5-.448-.782-.7.6-.6,1.095-1.123,1.634-1.6a3.48,3.48,0,0,1,1.029-.662q14.136-5.374,28.279-10.725c2.09-.795,1.727-.336,2.092-2.65.183-1.159.377-2.317.566-3.474v-.684a4.657,4.657,0,0,0-.832-.643m-17.655-14.781a.828.828,0,0,1,.956-.35c1.407.309,2.826.568,4.247.807.376.063.488.221.55.573.26,1.476.535,2.949.849,4.413.092.435-.179.576-.419.772q-7.215,5.89-14.431,11.776l-9.621,7.849c-.175.142-.353.281-.538.428l-1.629-1.653c.081-.109.175-.247.28-.375q9.881-12.117,19.757-24.24m-18.207,29.06-1.459,1.429-1.678-1.674,1.461-1.43,1.677,1.675m-1.6-12.316q6.264-11.142,12.518-22.29a.808.808,0,0,1,.838-.486c1.234.03,2.469.024,3.7,0a.514.514,0,0,1,.591.438c.362,1.218.765,2.424,1.117,3.645a.831.831,0,0,1-.115.656q-9.978,12.267-19.981,24.515a.969.969,0,0,0-.1.225l-1.482-1.521c.96-1.711,1.934-3.448,2.909-5.184m-3.018,7.677,1.629,1.729-1.41,1.411-1.675-1.719,1.456-1.422m-3.329-3.3,1.982,1.981-1.455,1.372-2.015-2.029,1.488-1.324M475.64,293.4l-2.709-2.737c-.174-.175-.342-.357-.527-.52a.85.85,0,1,0-1.2,1.2c.926.953,1.87,1.889,2.816,2.823a3.6,3.6,0,0,0,.525.36,10.017,10.017,0,0,1-14.109-14.16,2.873,2.873,0,0,0,.339.55q3.615,3.636,7.247,7.256a3.114,3.114,0,0,0,.462.419.841.841,0,0,0,1.172-1.162,3.012,3.012,0,0,0-.419-.464q-3.643-3.648-7.289-7.294c-.132-.133-.259-.271-.422-.441l1.455-1.449,14.14,14.148L475.64,293.4m2.835-2.884L464.36,276.4l1.36-1.35,14.169,14.173-1.414,1.291m1.441-4.025-2.093-2.085,1.374-1.316,2.036,2.053-1.316,1.349m32.849-17.272q-.267,1.629-.488,3.267a.691.691,0,0,1-.522.63q-13.042,4.919-26.072,9.867c-.8.3-1.6.591-2.39.916a.639.639,0,0,1-.844-.175,9.588,9.588,0,0,0-.928-.815c.6-.344,1.07-.614,1.542-.88q4.441-2.5,8.884-4.991c.05-.028.1-.059.146-.088.622-.361.818-.811.558-1.289s-.751-.559-1.382-.205q-3.723,2.089-7.444,4.185c-1.025.577-2.055,1.147-3.074,1.736-.282.163-.481.2-.729-.08-.338-.383-.734-.714-1.16-1.119,1.941-1.585,3.792-3.1,5.645-4.611q9.448-7.709,18.891-15.427a1.017,1.017,0,0,1,1.119-.2c1.13.387,2.277.726,3.423,1.064a.481.481,0,0,1,.408.557c-.02,1.272-.028,2.546,0,3.819a.726.726,0,0,1-.459.741q-6.212,3.472-12.411,6.966a3.781,3.781,0,0,0-.629.386.769.769,0,0,0-.21,1.023.782.782,0,0,0,1.006.416,3.434,3.434,0,0,0,.61-.3q6.229-3.5,12.452-7.01a1.055,1.055,0,0,1,1.1-.059c.852.414,1.732.771,2.608,1.135.261.109.395.231.344.545" transform="translate(-456.228 -240.361)"/></svg>