<svg xmlns="http://www.w3.org/2000/svg" width="58.374" height="58.378" viewBox="0 0 58.374 58.378"><defs><style>.a{fill:#1b4698;}</style></defs><path class="a" d="M343.572,96.464a29.176,29.176,0,0,0-57.238-5.687c-.471,1.7-.64,3.491-.95,5.24-.026.146-.071.288-.107.432v4.1c.11.783.213,1.567.331,2.348a28.341,28.341,0,0,0,5.921,13.635,28.919,28.919,0,0,0,16.917,10.538c1.16.254,2.357.337,3.537.5a4.073,4.073,0,0,1,.431.108h4.1c.783-.111,1.567-.219,2.349-.335a29.146,29.146,0,0,0,24.7-30.888M334.532,80.1a27.225,27.225,0,0,1,5.853,10.033l-6.235.174c-.415-1.529-.19-7.986.381-10.207m-2.01-1.96a.771.771,0,0,1,.223.608,43.161,43.161,0,0,0-.636,11.228c.01.146,0,.294,0,.463l-6.075.631C322.68,83,317.82,76.129,310.021,71.661a26.923,26.923,0,0,1,22.5,6.483m-35.4-.6a26.934,26.934,0,0,1,9.291-5.024,1.242,1.242,0,0,1,.8.04,28.528,28.528,0,0,1,10.456,8.068,41.382,41.382,0,0,1,6.112,10.093c.09.207.159.423.218.581-2.652.572-5.249,1.121-7.839,1.7a.6.6,0,0,1-.791-.366,27.032,27.032,0,0,0-9.873-10.417,21.938,21.938,0,0,0-9.726-3.1c-.071-.005-.142-.022-.349-.055.617-.551,1.144-1.055,1.7-1.518m-9.441,25.8a25.462,25.462,0,0,1-.342-7.14,26.907,26.907,0,0,1,6.056-14.87,1.073,1.073,0,0,1,.758-.337c7.945.2,13.792,4.071,18.2,10.437.432.623.806,1.286,1.2,1.931a2.148,2.148,0,0,1,.111.268,67.555,67.555,0,0,0-25.237,12.969c-.267-1.142-.549-2.193-.752-3.258m24.848,22.3a26.168,26.168,0,0,1-9.971-2.677,27.269,27.269,0,0,1-13.128-13.751.794.794,0,0,1,.253-1.127A63.365,63.365,0,0,1,310.1,96.8c1.417-.485,2.857-.9,4.287-1.347a1.357,1.357,0,0,1,.217-.024,29.789,29.789,0,0,1,2.477,8.165,35.726,35.726,0,0,1-.787,14.515,25.835,25.835,0,0,1-3.032,7.15.694.694,0,0,1-.728.385m14.451-3.264a.806.806,0,0,1-.4.483,26.262,26.262,0,0,1-9.1,2.668c-.688.07-1.379.112-2.071.167a36.459,36.459,0,0,0,1.152-30.882l8.207-1.637c.348,1.057.7,2.03.991,3.02a57.893,57.893,0,0,1,2.316,16.29,54.6,54.6,0,0,1-1.095,9.89m2.145-.928a56.415,56.415,0,0,0-2.365-28.509l5.544-.554c1.021,6.082,2.6,11.832,7.5,16.134a27.573,27.573,0,0,1-10.674,12.928m11.333-14.916c-3.965-3.973-5.288-8.96-6.184-14.234.852-.053,1.638-.127,2.425-.146,1.271-.032,2.544-.025,3.816-.046.275,0,.437.036.523.358a27.3,27.3,0,0,1-.58,14.068" transform="translate(-285.277 -69.308)"/><path class="a" d="M315.421,142.921a31.844,31.844,0,0,1-5.527-2.779.942.942,0,0,0-1.389.273.975.975,0,0,0,.387,1.371,10.4,10.4,0,0,0,1.211.743c1.515.735,3.031,1.47,4.571,2.15.741.327,1.427-.111,1.452-1.064-.155-.159-.377-.569-.705-.694" transform="translate(-292.778 -92.264)"/><path class="a" d="M298.614,128.916a2.75,2.75,0,0,0-.643-.5c-.965.022-1.42.842-.946,1.536.888,1.3,1.853,2.54,2.818,3.781a.969.969,0,0,0,1.481.269c.462-.4.458-.919.005-1.513-.905-1.192-1.792-2.4-2.715-3.576" transform="translate(-289.033 -88.516)"/></svg>