<svg xmlns="http://www.w3.org/2000/svg" width="58.377" height="58.366" viewBox="0 0 58.377 58.366"><defs><style>.a{fill:#1b4698;}</style></defs><path class="a" d="M305.781,331.882a4.387,4.387,0,0,0-.051-.794,3.235,3.235,0,0,0-3.379-2.691H250.82c-.1,0-.19,0-.285,0a3.12,3.12,0,0,0-2.543,1.4,9.2,9.2,0,0,0-.586,1.214v53.008c.026.026.064.049.076.08a3.278,3.278,0,0,0,3.578,2.533h25.082c.739,0,1.123-.259,1.123-.75s-.362-.735-1.123-.737H251.117c-1.588,0-2.22-.626-2.22-2.2V332.061c0-1.544.633-2.174,2.178-2.174h51.018c1.58,0,2.2.622,2.2,2.211v50.836c0,1.582-.63,2.218-2.2,2.218H284.707c-.19,0-.427-.063-.56.026a1.466,1.466,0,0,0-.608.637.617.617,0,0,0,.493.777,1.951,1.951,0,0,0,.563.046q8.864,0,17.728,0a3.252,3.252,0,0,0,3.458-3.463q0-25.647,0-51.292" transform="translate(-247.406 -328.396)"/><path class="a" d="M295.286,412.555a.852.852,0,0,0,.11,1.291c.069.061.141.117.211.176h.57c.076-.055.155-.105.225-.165a.862.862,0,1,0-1.117-1.3" transform="translate(-262.884 -355.657)"/><path class="a" d="M320.523,353.583a6.772,6.772,0,0,0-.056-.965,2.7,2.7,0,0,0-2.548-2.273,2.762,2.762,0,0,0-2.891,3.01q-.006,11.277,0,22.554a4.84,4.84,0,0,0,.069.85,2.746,2.746,0,0,0,5.425-.793q.011-5.666,0-11.334,0-5.525,0-11.049m-2.718-1.748A1.249,1.249,0,0,1,319,353.1a1.214,1.214,0,0,1-1.27,1.123,1.158,1.158,0,0,1-1.187-1.187,1.231,1.231,0,0,1,1.258-1.2m1.172,21.558H316.57V356.06h2.407Zm-1.171,4.069a1.249,1.249,0,0,1-.027-2.5,1.22,1.22,0,0,1,1.228,1.229,1.253,1.253,0,0,1-1.2,1.268" transform="translate(-269.379 -335.528)"/><path class="a" d="M258.119,375.723a6.386,6.386,0,0,0,.057.965,2.721,2.721,0,0,0,3.239,2.207,2.785,2.785,0,0,0,2.2-3.03q0-11.219,0-22.44a5.284,5.284,0,0,0-.055-.793,2.712,2.712,0,0,0-3.381-2.2,2.752,2.752,0,0,0-2.059,2.909q-.008,5.638,0,11.277,0,5.553,0,11.106m2.778-23.889a1.252,1.252,0,0,1,1.2,1.272,1.216,1.216,0,0,1-1.276,1.118,1.157,1.157,0,0,1-1.182-1.191,1.231,1.231,0,0,1,1.262-1.2m1.169,21.559h-2.409V356.059h2.409Zm-1.193,1.572A1.219,1.219,0,0,1,262.1,376.2a1.256,1.256,0,0,1-1.208,1.263,1.249,1.249,0,0,1-.013-2.5" transform="translate(-250.886 -335.526)"/><path class="a" d="M272.51,401.351q11.23,0,22.46,0a5.232,5.232,0,0,0,.907-.072,2.736,2.736,0,0,0-.793-5.406q-5.673-.01-11.344,0-5.558,0-11.116,0a7.174,7.174,0,0,0-.91.042,2.717,2.717,0,0,0-2.274,3.144,2.794,2.794,0,0,0,3.07,2.294m22.842-3.973a1.228,1.228,0,1,1-.07,2.453,1.229,1.229,0,0,1-1.191-1.268,1.2,1.2,0,0,1,1.262-1.185m-20.225.02h17.384v2.4H275.127Zm-2.977-.02a1.194,1.194,0,0,1,1.137,1.25,1.152,1.152,0,0,1-1.167,1.2,1.227,1.227,0,1,1,.03-2.454" transform="translate(-254.552 -350.321)"/><path class="a" d="M295.085,339.078q-11.344,0-22.688,0c-.133,0-.267,0-.4.008a2.734,2.734,0,1,0,.284,5.461q5.729.009,11.458,0,4.019,0,8.038,0c1.254,0,2.509.03,3.761-.018a2.69,2.69,0,0,0,2.488-3.217,2.76,2.76,0,0,0-2.943-2.235M272.1,343.05a1.234,1.234,0,0,1-1.2-1.26,1.277,1.277,0,0,1,1.278-1.2,1.228,1.228,0,0,1,1.117,1.283,1.149,1.149,0,0,1-1.189,1.181m20.416-.022H275.121V340.59h17.394Zm2.811.024a1.234,1.234,0,0,1-.016-2.469,1.272,1.272,0,0,1,1.277,1.262,1.238,1.238,0,0,1-1.26,1.207" transform="translate(-254.552 -331.867)"/><path class="a" d="M313.825,399.95A3.732,3.732,0,1,0,315,394.026a.691.691,0,0,1-.956-.179c-1.829-1.851-3.677-3.684-5.52-5.521-.834-.832-1.65-1.683-2.519-2.476a1.048,1.048,0,0,0-.858-.176.8.8,0,0,0-.416.642,1.343,1.343,0,0,0,.428.753q3.918,3.94,7.865,7.849a.651.651,0,0,1,.156.91,3.643,3.643,0,0,0,.65,4.122m2.711-4.786a2.24,2.24,0,1,1-2.232,2.265,2.261,2.261,0,0,1,2.232-2.265" transform="translate(-266.032 -346.999)"/><path class="a" d="M305.276,348.514c-.161.16-.405.324-.431.51a1.157,1.157,0,0,0,.161.849,1.065,1.065,0,0,0,.8.137c.172-.024.326-.242.473-.388q3.935-3.922,7.86-7.854a.594.594,0,0,1,.817-.143,11.106,11.106,0,0,0,1.615.489,3.981,3.981,0,0,0,3.617-2.828,3.736,3.736,0,0,0-6.069-3.8,3.641,3.641,0,0,0-.9,4.4.62.62,0,0,1-.157.865q-3.908,3.869-7.791,7.76m11.283-12.453a2.247,2.247,0,0,1,2.276,2.218,2.248,2.248,0,0,1-4.5.05,2.235,2.235,0,0,1,2.221-2.267" transform="translate(-266.066 -330.4)"/><path class="a" d="M259.521,335.279a3.732,3.732,0,0,0-5.307,5.085c1.126,1.665,2.976,2.057,5.244,1.05.132.154.246.307.379.44q3.751,3.746,7.506,7.486c.2.2.4.412.615.593a.676.676,0,0,0,.978-.025.711.711,0,0,0,.049-1.025,3.669,3.669,0,0,0-.356-.369l-7.746-7.731c-.144-.144-.281-.295-.41-.43.991-2.051.628-3.924-.953-5.075m-2.191,5.253a2.24,2.24,0,0,1-2.24-2.25,2.207,2.207,0,0,1,2.251-2.224,2.232,2.232,0,0,1,2.222,2.208,2.258,2.258,0,0,1-2.232,2.266" transform="translate(-249.414 -330.399)"/><path class="a" d="M268.59,387.173a3.636,3.636,0,0,0,.427-.457.7.7,0,0,0-.078-.979.685.685,0,0,0-.936-.062,3.307,3.307,0,0,0-.415.388q-3.874,3.864-7.743,7.734a2.342,2.342,0,0,0-.3.473c-2.332-1.03-4.162-.658-5.293.964a3.734,3.734,0,0,0,5.087,5.266c1.694-1.076,2.083-2.814,1.129-5.315.158-.13.362-.274.536-.448q3.8-3.778,7.59-7.564M257.323,399.6a2.241,2.241,0,1,1,2.238-2.259,2.242,2.242,0,0,1-2.238,2.259" transform="translate(-249.414 -346.958)"/><path class="a" d="M287.948,374.432a5.6,5.6,0,1,0-5.6-5.627,5.6,5.6,0,0,0,5.6,5.627m-.014-9.7a4.1,4.1,0,1,1-4.095,4.147,4.11,4.11,0,0,1,4.095-4.147" transform="translate(-258.76 -339.715)"/><path class="a" d="M301.716,352.071c.456-.364.541-.821.238-1.17-.286-.33-.712-.329-1.171,0a4.607,4.607,0,0,0-1.636,5.123,4.735,4.735,0,0,0,4.634,3.2,4.507,4.507,0,0,0,3.447-1.82c.411-.527.421-.95.053-1.256s-.8-.2-1.241.344c-.036.045-.069.091-.107.133a3.021,3.021,0,0,1-3.188.988,2.952,2.952,0,0,1-2.252-2.39,3.032,3.032,0,0,1,1.222-3.155" transform="translate(-264.146 -335.629)"/><path class="a" d="M275.5,386.94c-.464.36-.552.75-.283,1.123s.737.412,1.2.053a4.469,4.469,0,0,0,1.865-3.5,4.629,4.629,0,0,0-8.342-2.96c-.36.5-.355.934.015,1.2.4.292.786.207,1.167-.281a3.035,3.035,0,0,1,3.274-1.2,2.916,2.916,0,0,1,2.309,2.34,3.025,3.025,0,0,1-1.208,3.219" transform="translate(-254.643 -345.097)"/><path class="a" d="M303.139,381.322a3.041,3.041,0,0,1,2.976,1.287c.445.584,1.16.58,1.34-.03a1.227,1.227,0,0,0-.2-.921A4.584,4.584,0,0,0,302.135,380a4.62,4.62,0,0,0-1.3,8.142c.455.313.9.292,1.153-.084a.734.734,0,0,0-.224-1.089,3.825,3.825,0,0,1-.309-.252,3,3,0,0,1-.876-3.268,2.945,2.945,0,0,1,2.563-2.13" transform="translate(-264.146 -345.094)"/><path class="a" d="M275.706,356.954a3.14,3.14,0,0,1-4.479-.373c-.165-.2-.354-.49-.561-.518a1.142,1.142,0,0,0-.851.25c-.324.317-.129.7.108,1.025a4.629,4.629,0,0,0,8.352-2.7,4.588,4.588,0,0,0-1.988-3.834.728.728,0,0,0-1.063.138.7.7,0,0,0,.165,1.051,6.728,6.728,0,0,1,.556.486,3.118,3.118,0,0,1-.239,4.48" transform="translate(-254.633 -335.622)"/><path class="a" d="M290.046,372.167a1.228,1.228,0,1,0-1.248-1.21,1.236,1.236,0,0,0,1.248,1.21" transform="translate(-260.856 -341.821)"/></svg>