<svg xmlns="http://www.w3.org/2000/svg" width="58.423" height="48.601" viewBox="0 0 58.423 48.601"><defs><style>.a{fill:#1b4698;}</style></defs><path class="a" d="M56.228,375.474A17.909,17.909,0,0,0,44.491,366.1a17.511,17.511,0,0,0-7.958-.256.745.745,0,0,1-.979-.5,24.766,24.766,0,0,0-2.159-3.86,17.9,17.9,0,0,0-13.649-7.534A17.892,17.892,0,0,0,6.87,358.03,17.791,17.791,0,0,0,.694,367.5c-.323,1.221-.468,2.489-.694,3.736v2.28c.141.915.238,1.841.432,2.745a18.1,18.1,0,0,0,4.714,8.882,18.218,18.218,0,0,0,9.771,5.367,17.826,17.826,0,0,0,7.019.013c.344-.068.608-.106.791.356a17.769,17.769,0,0,0,6.239,8.028,17.957,17.957,0,0,0,15.074,3.077,18.452,18.452,0,0,0,12.189-26.509m-8.466-6.245c-6.624,6.945-14.9,10.286-24.339,11.449a16.733,16.733,0,0,1,24.339-11.449M21.972,388.7c-6.086,1.7-15.325-1.14-18.953-9.875a16.745,16.745,0,1,1,31.087-12.444A18.582,18.582,0,0,0,21.972,388.7m6.495,7.588A16.575,16.575,0,0,1,23.2,382.423a46.039,46.039,0,0,0,14.147-3.738A36.52,36.52,0,0,0,49.275,370.1a16.831,16.831,0,0,1,7.243,11.94,1.165,1.165,0,0,1-.179.731c-4.708,7.05-11.347,11.169-19.575,12.876a41.438,41.438,0,0,1-7.686.831.945.945,0,0,1-.611-.19m20.281,1.949a16.662,16.662,0,0,1-17.811-.095c10.273-.728,19.035-4.326,25.531-12.565-.026,3.812-2.576,9.466-7.721,12.66" transform="translate(0 -353.896)"/><path class="a" d="M83.37,365.665l-.966-1.02L78.34,368.4l.914,1.084,4.116-3.817" transform="translate(-25.457 -357.389)"/><path class="a" d="M61.59,362.1c-.181-1.916-.356-3.773-.534-5.661l-1.693.182c.178,1.907.35,3.751.526,5.637l1.7-.159" transform="translate(-19.29 -354.723)"/><path class="a" d="M73.3,358.181l-1.609-.572-1.894,5.354,1.609.564,1.894-5.346" transform="translate(-22.68 -355.103)"/><path class="a" d="M13.2,367.121a8.706,8.706,0,1,0,8.684,8.715,8.723,8.723,0,0,0-8.684-8.715m-.009,15.7a7,7,0,1,1,6.982-6.946,7,7,0,0,1-6.982,6.946" transform="translate(-1.463 -358.194)"/><path class="a" d="M41.153,365.488l1.341-1.041a16,16,0,0,0-6.467-4.947l-.653,1.568a14.682,14.682,0,0,1,5.778,4.42" transform="translate(-11.495 -355.717)"/><path class="a" d="M30.116,359.568l2.114.446.482-1.633-2.369-.5c-.08.6-.151,1.131-.226,1.692" transform="translate(-9.786 -355.19)"/><path class="a" d="M64.617,397.588a7.479,7.479,0,1,0-7.486,7.5,7.482,7.482,0,0,0,7.486-7.5m-13.247-.07a5.851,5.851,0,0,1,5.863-5.687,5.763,5.763,0,0,1,5.631,5.768l-.491-.845-1.255.57-2.186-4.467c-.606.333-1.318.4-1.615,1.189a6.97,6.97,0,0,1-.869,1.3l.606,1.235,1.281-1.464L59.744,398l-1.407.715c.2.411.379.781.581,1.2l3.916-1.9c.014,2.847-2.736,5.371-5.769,5.36a5.859,5.859,0,0,1-5.695-5.859" transform="translate(-16.137 -365.667)"/><path class="a" d="M15.077,373.3c-1.508.019-3.186,1.515-1.825,3.411-.107.045-.207.1-.313.13a2.351,2.351,0,0,0-1.3,3.653,3.742,3.742,0,0,0,4.11,1.449,2.36,2.36,0,0,0,1.651-2.8,7.093,7.093,0,0,0-.558-1.22,2.023,2.023,0,0,0,.933-3.529,3.489,3.489,0,0,0-2.7-1.1m-.57,7.243a1.594,1.594,0,0,1-1.616-1.445,1.316,1.316,0,0,1,1.346-1.2,1.6,1.6,0,0,1,1.628,1.428,1.238,1.238,0,0,1-1.358,1.22m1.161-3.676a1.3,1.3,0,0,1-1.319-1.15.961.961,0,0,1,1.067-.927,1.3,1.3,0,0,1,1.345,1.117.962.962,0,0,1-1.093.959" transform="translate(-3.64 -360.201)"/><path class="a" d="M57.44,402l-2.23-4.541a6.538,6.538,0,0,0-1.361.909,11.527,11.527,0,0,0-1.057,1.709l.594,1.185,1.269-1.476,1.408,2.894-1.411.715.6,1.193,4.052-1.979-.591-1.185L57.44,402" transform="translate(-17.155 -368.051)"/></svg>