<svg xmlns="http://www.w3.org/2000/svg" width="48.851" height="58.386" viewBox="0 0 48.851 58.386"><defs><style>.a{fill:#1b4698;}</style></defs><path class="a" d="M385.762,273.934h7.169c1.976,0,3.952.005,5.928,0,.858,0,1.486-.448,1.516-1.228.059-1.553.049-3.113-.005-4.667a1.22,1.22,0,0,0-1.208-1.16c-1.709-.032-3.419-.027-5.128,0a.746.746,0,0,0-.753.778.788.788,0,0,0,.653.874,2.511,2.511,0,0,0,.622.037c1.364,0,2.729,0,4.127,0v3.627H385.8v-3.627c1.385,0,2.732,0,4.079,0,.7,0,1.113-.34,1.1-.876-.011-.519-.4-.829-1.077-.831-1.292,0-2.584.011-3.875-.016a.735.735,0,0,1-.547-.32,3.759,3.759,0,0,0-3.65-2.253h-1.621v-2.748c.1-.026.175-.048.248-.063a3.252,3.252,0,0,0,2.887-3.5c0-.836.022-1.673-.009-2.508a.559.559,0,0,1,.453-.642,3.776,3.776,0,0,0,2.56-3.553c.022-.892.025-1.786,0-2.678a4.916,4.916,0,0,0-4.959-4.84c-1.843-.017-3.689-.057-5.527.026a3.171,3.171,0,0,0-1.88.639,4.172,4.172,0,0,1-3.258,1.064,2.67,2.67,0,0,0-2.829,2.717c-.037,1.8-.029,3.61,0,5.415a2.724,2.724,0,0,0,2.135,2.681c.311.07.633.095,1.013.148,0,.62-.011,1.242,0,1.865a3.185,3.185,0,0,0,2.633,3.13c.161.031.318.081.46.118v2.735c-.649,0-1.255-.022-1.858,0a3.6,3.6,0,0,0-3.308,2.132.668.668,0,0,1-.717.459c-2.945-.017-5.89-.009-8.834-.009-1.349,0-2.7-.011-4.047.008a1.349,1.349,0,0,0-1.428,1.381q-.035,2.165,0,4.331a1.288,1.288,0,0,0,1.178,1.324c1.708.053,3.419.043,5.128.014a.761.761,0,0,0,.755-.844.8.8,0,0,0-.774-.832,7.51,7.51,0,0,0-.855-.011h-3.7V268.6h12.894v3.619H364.51c-.813,0-1.218.293-1.208.867s.408.842,1.237.843H368.6v.758c0,1.9-.009,3.8,0,5.7a1.831,1.831,0,0,0,2.024,2.006c.45,0,.9,0,1.376,0v12.348c-.568,0-1.1,0-1.623,0a1.563,1.563,0,0,0-1.779,1.79c-.009,1.216.024,2.433-.011,3.648a1.758,1.758,0,0,0,1.206,1.906H384.62a1.874,1.874,0,0,0,1.153-2c-.05-1.176-.009-2.355-.012-3.533,0-1.233-.571-1.8-1.817-1.807-.525,0-1.05,0-1.568,0V282.4c.514,0,.987.006,1.459,0a1.813,1.813,0,0,0,1.924-1.931c.009-1.52,0-3.04,0-4.56v-1.972M371.036,254.31a2.939,2.939,0,0,1-.026.308c-.959.057-1.406-.323-1.413-1.191q-.019-2.534,0-5.069c.005-.823.419-1.28,1.24-1.2a4.56,4.56,0,0,0,4.072-1.354,1.58,1.58,0,0,1,1.036-.356c1.822-.034,3.645-.029,5.467-.011a3.2,3.2,0,0,1,3.225,3.158c.026.891.022,1.785,0,2.676a2.041,2.041,0,0,1-1.121,1.795,1.411,1.411,0,0,1-1.351.079c-1.863-.8-3.748-1.549-5.614-2.342a3.011,3.011,0,0,0-3.03.234q-.427.282-.874.534a2.871,2.871,0,0,0-1.609,2.737m1.713,3.72c-.006-1.234.014-2.468-.008-3.7a1.3,1.3,0,0,1,.714-1.252c1.858-1.091,1.391-1.118,3.418-.275,1.418.589,2.833,1.183,4.26,1.748a.66.66,0,0,1,.514.74c-.036.891-.007,1.784-.012,2.676a1.6,1.6,0,0,1-1.829,1.811c-.873.005-1.746,0-2.619,0-.892,0-1.784.007-2.676,0a1.559,1.559,0,0,1-1.762-1.746m5.688,6.2h-2.513v-2.7h2.513Zm5.595,36.112H370.356v-3.832h13.676Zm-7.75-5.631h-2.5V287.64h2.5Zm-2.472-8.865v-3.42h2.509v3.42Zm6.771,8.857h-2.528v-7.082h2.528Zm-2.515-12.272h2.512v3.418h-2.512Zm5.985-2.362c0,.185-.016.371-.026.587H370.348c-.012-.219-.033-.421-.033-.622q0-5.868,0-11.736a2.033,2.033,0,0,1,2.3-2.318q4.587,0,9.173,0a2.02,2.02,0,0,1,2.263,2.239q0,5.926,0,11.851" transform="translate(-353.924 -243.704)"/><path class="a" d="M419.078,314.693a7.458,7.458,0,1,0-9.4,8.048c.362.1.729.184,1.094.274h1.824a4.423,4.423,0,0,1,.427-.119,7.5,7.5,0,0,0,6.06-8.2m-8.813-4.54a.506.506,0,0,1,.34-.23c.351-.067.71-.092,1.009-.127.248.02.437.027.624.051.883.113,1.013.3.8,1.162a1.417,1.417,0,0,1-1.765,1,1.547,1.547,0,0,1-1.01-1.852m-2.552,9.321a.38.38,0,0,1-.327-.118c-.4-.637-.781-1.281-1.137-1.942a.44.44,0,0,1,.117-.414,9.544,9.544,0,0,1,1.009-.464,1.544,1.544,0,0,1,1.449,1.287,1.573,1.573,0,0,1-1.11,1.651m9.384-2.058c-.379.728-.778,1.446-1.185,2.191-.891-.4-1.458-.834-1.39-1.729a1.413,1.413,0,0,1,.967-1.215,1.764,1.764,0,0,1,1.584.4.41.41,0,0,1,.024.355m-2.579-2.166a4.166,4.166,0,0,0-1.343,1.331c-.789,1.339-.433,2.622,1.025,4.129a5.681,5.681,0,0,1-5.051.007c1.509-1.652,1.783-2.966.932-4.345-.822-1.332-2.162-1.734-4.05-1.212a5.09,5.09,0,0,1,2.448-4.3c.718,2.137,1.75,3.019,3.406,2.913,1.521-.1,2.583-1.15,2.953-3a5.81,5.81,0,0,1,2.565,4.434,3.127,3.127,0,0,0-2.886.043" transform="translate(-370.268 -264.629)"/></svg>