<svg xmlns="http://www.w3.org/2000/svg" width="58.345" height="58.385" viewBox="0 0 58.345 58.385"><defs><style>.a{fill:#1b4698;}</style></defs><path class="a" d="M165.747,231.527h3.42c.732.086,1.467.158,2.2.262a29.236,29.236,0,0,1,25,32.816,27.979,27.979,0,0,1-7.966,16.4,28.621,28.621,0,0,1-18.062,8.742,27.36,27.36,0,0,1-13.934-2.052c-9.679-4.214-15.6-11.529-17.659-21.906-.221-1.11-.311-2.245-.462-3.369V259a3.879,3.879,0,0,0,.1-.491,26.338,26.338,0,0,1,2.078-8.817c4.231-9.694,11.532-15.628,21.924-17.7,1.11-.221,2.248-.311,3.373-.462m-17.9,20.924c.283.163.379.221.477.275a47.974,47.974,0,0,0,8.1,3.452.768.768,0,0,0,.89-.209c2.235-2.029,4.409-4.135,6.757-6.025a55.417,55.417,0,0,1,19.566-10.412,3.534,3.534,0,0,0,.373-.161,26.553,26.553,0,0,0-6.761-3.838.954.954,0,0,0-.549-.019c-2.237.579-4.513,1.047-6.7,1.783a46.515,46.515,0,0,0-15.511,9.007c-2.256,1.939-4.374,4.038-6.643,6.148m29.564,33.364a26.56,26.56,0,0,0,7.2-4.245.98.98,0,0,0,.269-.419A37.039,37.039,0,0,0,187,266.036a73.129,73.129,0,0,0-1.444-9.62c-.4-1.987-.834-3.969-1.251-5.944-.074,0-.118-.013-.148,0-2.342,1.247-4.687,2.49-7.014,3.763a.683.683,0,0,0-.171.6,66.376,66.376,0,0,1,2.151,13.3,54.962,54.962,0,0,1-.687,12.657c-.294,1.658-.673,3.3-1.028,5.022m-11.381,1.875a27.205,27.205,0,0,0,8.531-.92.7.7,0,0,0,.366-.431,50.259,50.259,0,0,0,2.1-12.831,57.551,57.551,0,0,0-.915-12.532c-.323-1.748-.724-3.482-1.1-5.288-.232.158-.381.24-.509.348q-2.777,2.359-5.552,4.72a1,1,0,0,0-.368.886c.1,3.075.236,6.151.24,9.227a47.535,47.535,0,0,1-1.5,12.688c-.374,1.368-.842,2.71-1.289,4.132m-.355-6.636a3.427,3.427,0,0,0,.078-.338c.292-2.62.57-5.242.882-7.859.062-.523-.113-.707-.6-.855-2.812-.852-5.641-1.659-8.407-2.641a45.819,45.819,0,0,1-16.812-10.195,1.96,1.96,0,0,0-.294-.187c-.021.159-.039.249-.045.341a26.1,26.1,0,0,0,.52,6.8,3.92,3.92,0,0,0,.522,1.649,36.063,36.063,0,0,0,9.468,8.115,41.639,41.639,0,0,0,11.9,4.569c.918.214,1.842.4,2.786.605M190.11,246a25.139,25.139,0,0,0-3.855-4.679.67.67,0,0,0-.562-.078c-2.3.753-4.657,1.4-6.892,2.319a58.089,58.089,0,0,0-15.832,10.076c-1.244,1.08-2.442,2.214-3.743,3.4.335.109.546.18.759.245,2.195.67,4.394,1.324,6.58,2.017a.892.892,0,0,0,1.043-.227,51.294,51.294,0,0,1,7.365-6,54.172,54.172,0,0,1,14.453-6.838c.214-.065.423-.144.682-.233m-23.447,24.026c0-.345.005-.533,0-.722-.074-2.353-.171-4.7-.207-7.058a.85.85,0,0,0-.722-.977q-4.366-1.272-8.71-2.622a44.763,44.763,0,0,1-13.122-6.158c-.568-.409-1.123-.836-1.708-1.272a2.373,2.373,0,0,0-.156.329c-.372,1.331-.734,2.664-1.11,3.994a.9.9,0,0,0,.279.957,44.58,44.58,0,0,0,18.275,11.263c2.344.8,4.727,1.494,7.181,2.264m5.937-35.813a26.944,26.944,0,0,0-29.527,14.948l3,2.234c7.359-8.011,15.78-14.256,26.524-17.183m15.614,43.7c6.8-7.648,8.437-20.4,2.987-29.995l-4.838,1.615c.028.215.041.363.068.508.8,4.23,1.673,8.448,2.382,12.693a34.968,34.968,0,0,1,.211,9.882c-.213,1.8-.544,3.587-.809,5.3m-22.952,5.25c-8.177-1.545-15.623-4.473-21.76-10.191-.037.085-.053.1-.049.115.057.12.113.24.176.356a26.782,26.782,0,0,0,9.339,10.076,26.37,26.37,0,0,0,10.3,3.878c.25.038.456.105.574-.245.442-1.306.919-2.6,1.415-3.99" transform="translate(-138.274 -231.527)"/></svg>