<?xml version="1.0" standalone="no"?>
<!DOCTYPE svg PUBLIC "-//W3C//DTD SVG 1.1//EN" "http://www.w3.org/Graphics/SVG/1.1/DTD/svg11.dtd" >
<svg xmlns="http://www.w3.org/2000/svg" xmlns:xlink="http://www.w3.org/1999/xlink" version="1.1">
<metadata>
Created by FontForge 20170731 at Wed Nov  7 06:08:40 2018
 By Aleksey,,,
Copyright 2017 The Barlow Project Authors (https://github.com/jpt/barlow)
</metadata>
<defs>
<font id="BarlowSemiCondensed-ExtraBold" horiz-adv-x="0" >
  <font-face 
    font-family="Barlow Semi Condensed ExtraBold"
    font-weight="800"
    font-stretch="semi-condensed"
    units-per-em="1000"
    panose-1="0 0 9 6 0 0 0 0 0 0"
    ascent="800"
    descent="-200"
    x-height="517"
    cap-height="700"
    bbox="-586 -248 1091 1087"
    underline-thickness="50"
    underline-position="-150"
    unicode-range="U+000D-FB02"
  />
<missing-glyph horiz-adv-x="460" 
d="M5 0h450q5 0 5 5v690q0 5 -5 5h-450q-5 0 -5 -5v-690q0 -5 5 -5zM167.5 258.5q-3.5 3.5 -3.5 8.5v13q0 38 17.5 61t50.5 47q24 17 35.5 30t11.5 31q0 19 -12 30t-32 11q-23 0 -36 -12.5t-13 -31.5v-5q0 -11 -12 -11l-95 4q-5 0 -8.5 3.5t-3.5 8.5q0 67 47.5 109.5
t123.5 42.5q73 0 117 -39.5t44 -104.5q0 -45 -19 -71t-54 -50q-24 -18 -34.5 -30t-10.5 -30v-6q0 -5 -3.5 -8.5t-8.5 -3.5h-93q-5 0 -8.5 3.5zM176.5 106q-17.5 18 -17.5 45t17 44.5t45 17.5q27 0 44.5 -17.5t17.5 -44.5t-18 -45t-44 -18q-27 0 -44.5 18z" />
    <glyph glyph-name="fi" unicode="fi" horiz-adv-x="589" 
d="M327.5 513.5q3.5 -3.5 3.5 -8.5v-101q0 -5 -3.5 -8.5t-8.5 -3.5h-71q-5 0 -5 -5v-375q0 -5 -3.5 -8.5t-8.5 -3.5h-142q-5 0 -8.5 3.5t-3.5 8.5v375q0 5 -5 5h-41q-5 0 -8.5 3.5t-3.5 8.5v101q0 5 3.5 8.5t8.5 3.5h41q5 0 5 5v29q0 60 22.5 93.5t68 46.5t120.5 10h20
q5 0 8.5 -3.5t3.5 -8.5v-92q0 -5 -3.5 -8.5t-8.5 -3.5h-19q-24 -1 -35 -13t-11 -35v-15q0 -5 5 -5h71q5 0 8.5 -3.5zM407.5 587.5q-24.5 24.5 -24.5 62.5q0 39 24.5 63t62.5 24t62.5 -24t24.5 -63q0 -37 -24.5 -62t-62.5 -25t-62.5 24.5zM390.5 3.5q-3.5 3.5 -3.5 8.5v493
q0 5 3.5 8.5t8.5 3.5h142q5 0 8.5 -3.5t3.5 -8.5v-493q0 -5 -3.5 -8.5t-8.5 -3.5h-142q-5 0 -8.5 3.5z" />
    <glyph glyph-name="fl" unicode="fl" horiz-adv-x="585" 
d="M327.5 513.5q3.5 -3.5 3.5 -8.5v-101q0 -5 -3.5 -8.5t-8.5 -3.5h-71q-5 0 -5 -5v-375q0 -5 -3.5 -8.5t-8.5 -3.5h-142q-5 0 -8.5 3.5t-3.5 8.5v375q0 5 -5 5h-41q-5 0 -8.5 3.5t-3.5 8.5v101q0 5 3.5 8.5t8.5 3.5h41q5 0 5 5v29q0 60 22.5 93.5t68 46.5t120.5 10h20
q5 0 8.5 -3.5t3.5 -8.5v-92q0 -5 -3.5 -8.5t-8.5 -3.5h-19q-24 -1 -35 -13t-11 -35v-15q0 -5 5 -5h71q5 0 8.5 -3.5zM388.5 3.5q-3.5 3.5 -3.5 8.5v676q0 5 3.5 8.5t8.5 3.5h142q5 0 8.5 -3.5t3.5 -8.5v-676q0 -5 -3.5 -8.5t-8.5 -3.5h-142q-5 0 -8.5 3.5z" />
    <glyph glyph-name="I_J.liga" unicode="IJ" horiz-adv-x="773" 
d="M45.5 3.5q-3.5 3.5 -3.5 8.5v676q0 5 3.5 8.5t8.5 3.5h142q5 0 8.5 -3.5t3.5 -8.5v-676q0 -5 -3.5 -8.5t-8.5 -3.5h-142q-5 0 -8.5 3.5zM373.5 18.5q-52.5 26.5 -81.5 75.5t-29 112v62q0 5 3.5 8.5t8.5 3.5h142q5 0 8.5 -3.5t3.5 -8.5v-62q0 -32 18 -52t49 -20t50.5 20
t19.5 52v482q0 5 3.5 8.5t8.5 3.5h141q5 0 8.5 -3.5t3.5 -8.5v-482q0 -63 -29.5 -111.5t-83 -75.5t-122.5 -27q-70 0 -122.5 26.5z" />
    <glyph glyph-name="f_f_i.liga" unicode="ffi" horiz-adv-x="891" 
d="M709.5 587.5q-24.5 24.5 -24.5 62.5q0 39 24.5 63t62.5 24t62.5 -24t24.5 -63q0 -37 -24.5 -62t-62.5 -25t-62.5 24.5zM544 522q0 -5 5 -5h71q5 0 8.5 -3.5t3.5 -8.5v-100q0 -5 -3.5 -8.5t-8.5 -3.5h-71q-5 0 -5 -5v-376q0 -5 -3.5 -8.5t-8.5 -3.5h-142q-5 0 -8.5 3.5
t-3.5 8.5v376q0 5 -5 5h-125q-5 0 -5 -5v-376q0 -5 -3.5 -8.5t-8.5 -3.5h-142q-5 0 -8.5 3.5t-3.5 8.5v376q0 5 -5 5h-41q-5 0 -8.5 3.5t-3.5 8.5v100q0 5 3.5 8.5t8.5 3.5h41q5 0 5 5v33q0 80 43.5 113.5t138.5 33.5l29 -1h19q5 0 8.5 -3.5t3.5 -8.5v-88q0 -5 -3.5 -8.5
t-8.5 -3.5h-19q-45 -3 -45 -49v-18q0 -5 5 -5h125q5 0 5 5v33q0 80 43.5 113.5t138.5 33.5l29 -1h19q5 0 8.5 -3.5t3.5 -8.5v-88q0 -5 -3.5 -8.5t-8.5 -3.5h-19q-45 -3 -45 -49v-18zM692.5 3.5q-3.5 3.5 -3.5 8.5v493q0 5 3.5 8.5t8.5 3.5h142q5 0 8.5 -3.5t3.5 -8.5v-493
q0 -5 -3.5 -8.5t-8.5 -3.5h-142q-5 0 -8.5 3.5z" />
    <glyph glyph-name="f_f_l.liga" unicode="ffl" horiz-adv-x="885" 
d="M547 522q0 -5 5 -5h71q5 0 8.5 -3.5t3.5 -8.5v-100q0 -5 -3.5 -8.5t-8.5 -3.5h-71q-5 0 -5 -5v-376q0 -5 -3.5 -8.5t-8.5 -3.5h-142q-5 0 -8.5 3.5t-3.5 8.5v376q0 5 -5 5h-128q-5 0 -5 -5v-376q0 -5 -3.5 -8.5t-8.5 -3.5h-142q-5 0 -8.5 3.5t-3.5 8.5v376q0 5 -5 5h-41
q-5 0 -8.5 3.5t-3.5 8.5v100q0 5 3.5 8.5t8.5 3.5h41q5 0 5 5v33q0 80 43.5 113.5t138.5 33.5l29 -1h19q5 0 8.5 -3.5t3.5 -8.5v-88q0 -5 -3.5 -8.5t-8.5 -3.5h-19q-45 -3 -45 -49v-18q0 -5 5 -5h128q5 0 5 5v33q0 80 43.5 113.5t138.5 33.5l29 -1h19q5 0 8.5 -3.5t3.5 -8.5
v-88q0 -5 -3.5 -8.5t-8.5 -3.5h-19q-45 -3 -45 -49v-18zM688.5 696.5q3.5 3.5 8.5 3.5h142q5 0 8.5 -3.5t3.5 -8.5v-676q0 -5 -3.5 -8.5t-8.5 -3.5h-142q-5 0 -8.5 3.5t-3.5 8.5v676q0 5 3.5 8.5z" />
    <glyph glyph-name="g_j.liga" unicode="gj" horiz-adv-x="740" 
d="M559.5 587.5q-24.5 24.5 -24.5 62.5q0 39 24.5 63t62.5 24t62.5 -24t24.5 -63q0 -37 -24.5 -62t-62.5 -25t-62.5 24.5zM469.5 513.5q3.5 -3.5 3.5 -8.5v-461q0 -125 -70.5 -185.5t-199.5 -60.5q-38 0 -70 4q-12 0 -12 12l4 122q0 13 13 11q27 -3 50 -3q62 0 90.5 26
t28.5 82l-7 -8q-34 -40 -97 -40q-66 0 -111 37.5t-58 114.5q-8 28 -8 105q0 28 2.5 59.5t6.5 47.5q1 2 1 6q12 71 54.5 111t109.5 40q65 0 101 -45q2 -3 4 -2t2 4v23q0 5 3.5 8.5t8.5 3.5h142q5 0 8.5 -3.5zM539 505q0 5 3.5 8.5t8.5 3.5h142q5 0 8.5 -3.5t3.5 -8.5v-490
q0 -84 -17 -130.5t-65 -67.5t-141 -19q-12 0 -12 12l5 116q0 11 12 11q31 -1 41.5 16.5t10.5 60.5v491zM307 261q0 49 -5 76q-4 21 -17.5 33.5t-34.5 12.5q-19 0 -31.5 -12.5t-17.5 -32.5q-8 -37 -8 -78q0 -42 6 -75q5 -21 18.5 -33t33.5 -12q21 0 34.5 12t17.5 33
q4 29 4 76z" />
    <glyph glyph-name="i_j.liga" unicode="ij" horiz-adv-x="474" 
d="M56.5 587.5q-24.5 24.5 -24.5 62.5q0 39 24.5 63t62.5 24t62.5 -24t24.5 -63q0 -37 -24.5 -62t-62.5 -25t-62.5 24.5zM290.5 587.5q-24.5 24.5 -24.5 62.5q0 39 24.5 63t62.5 24t62.5 -24t24.5 -63q0 -37 -24.5 -62t-62.5 -25t-62.5 24.5zM42.5 3.5q-3.5 3.5 -3.5 8.5
v493q0 5 3.5 8.5t8.5 3.5h142q5 0 8.5 -3.5t3.5 -8.5v-493q0 -5 -3.5 -8.5t-8.5 -3.5h-142q-5 0 -8.5 3.5zM166 -190v116q0 13 13 11q54 -2 74 16t20 61v491q0 5 3.5 8.5t8.5 3.5h142q5 0 8.5 -3.5t3.5 -8.5v-490q0 -85 -19 -131t-75 -67.5t-167 -18.5q-12 0 -12 12z" />
    <glyph glyph-name="hyphen_hyphen.liga" unicode="&#x2d;&#x2d;" horiz-adv-x="621" 
d="M26.5 221.5q-3.5 3.5 -3.5 8.5v118q0 5 3.5 8.5t8.5 3.5h551q5 0 8.5 -3.5t3.5 -8.5v-118q0 -5 -3.5 -8.5t-8.5 -3.5h-551q-5 0 -8.5 3.5z" />
    <glyph glyph-name=".notdef" horiz-adv-x="460" 
d="M5 0h450q5 0 5 5v690q0 5 -5 5h-450q-5 0 -5 -5v-690q0 -5 5 -5zM167.5 258.5q-3.5 3.5 -3.5 8.5v13q0 38 17.5 61t50.5 47q24 17 35.5 30t11.5 31q0 19 -12 30t-32 11q-23 0 -36 -12.5t-13 -31.5v-5q0 -11 -12 -11l-95 4q-5 0 -8.5 3.5t-3.5 8.5q0 67 47.5 109.5
t123.5 42.5q73 0 117 -39.5t44 -104.5q0 -45 -19 -71t-54 -50q-24 -18 -34.5 -30t-10.5 -30v-6q0 -5 -3.5 -8.5t-8.5 -3.5h-93q-5 0 -8.5 3.5zM176.5 106q-17.5 18 -17.5 45t17 44.5t45 17.5q27 0 44.5 -17.5t17.5 -44.5t-18 -45t-44 -18q-27 0 -44.5 18z" />
    <glyph glyph-name=".null" 
 />
    <glyph glyph-name="nonmarkingreturn" unicode="&#xd;" horiz-adv-x="200" 
 />
    <glyph glyph-name="NULL" 
 />
    <glyph glyph-name="NULL" 
 />
    <glyph glyph-name="space" unicode=" " horiz-adv-x="200" 
 />
    <glyph glyph-name="exclam" unicode="!" horiz-adv-x="321" 
d="M97.5 247.5q-3.5 3.5 -3.5 8.5l-17 432q0 12 12 12h142q12 0 12 -12l-17 -432q0 -5 -3.5 -8.5t-8.5 -3.5h-108q-5 0 -8.5 3.5zM95.5 25.5q-24.5 24.5 -24.5 62.5t24 62t62 24t62.5 -24t24.5 -62q0 -37 -24.5 -62t-62.5 -25q-37 0 -61.5 24.5z" />
    <glyph glyph-name="quotedbl" unicode="&#x22;" horiz-adv-x="389" 
d="M30.5 468.5q-3.5 3.5 -4.5 8.5l-15 210v2q0 10 11 10h134q13 0 11 -12l-16 -210q-1 -5 -4.5 -8.5t-8.5 -3.5h-99q-5 0 -8.5 3.5zM243.5 468.5q-3.5 3.5 -4.5 8.5l-15 210v2q0 10 11 10h134q13 0 11 -12l-16 -210q-1 -5 -4.5 -8.5t-8.5 -3.5h-99q-5 0 -8.5 3.5z" />
    <glyph glyph-name="numbersign" unicode="#" horiz-adv-x="661" 
d="M625.5 398.5q-3.5 -3.5 -8.5 -3.5h-69q-6 0 -6 -5l-11 -78q0 -5 4 -5h46q5 0 8.5 -3.5t3.5 -8.5l-1 -117q0 -5 -3.5 -8.5t-8.5 -3.5h-67q-6 0 -6 -5l-17 -119q-1 -11 -13 -11h-142q-12 0 -11 13l17 117q0 5 -4 5h-70q-6 0 -6 -5l-17 -119q-1 -11 -13 -11h-142
q-12 0 -11 13l17 117q0 5 -4 5h-47q-5 0 -8.5 3.5t-3.5 8.5v117q0 5 3.5 8.5t8.5 3.5h69q6 0 6 5l11 78q0 5 -4 5h-46q-5 0 -8.5 3.5t-3.5 8.5v118q0 5 3.5 8.5t8.5 3.5h67q6 0 6 5l18 120q1 11 13 11l142 -1q12 0 11 -13l-17 -117q0 -5 4 -5h69q6 0 6 5l18 120q1 11 13 11
l142 -1q12 0 11 -13l-17 -117q0 -5 4 -5h47q5 0 8.5 -3.5t3.5 -8.5v-118q0 -5 -3.5 -8.5zM365 312l11 78q0 5 -4 5h-70q-6 0 -6 -5l-11 -78q0 -5 4 -5h70q6 0 6 5z" />
    <glyph glyph-name="dollar" unicode="$" horiz-adv-x="515" 
d="M446.5 65q-44.5 -52 -121.5 -67q-5 -2 -5 -6l1 -58q0 -5 -3.5 -8.5t-8.5 -3.5h-110q-5 0 -8.5 3.5t-3.5 8.5l2 61q0 5 -4 6q-74 18 -115.5 68.5t-41.5 123.5v26q0 5 3.5 8.5t8.5 3.5h136q5 0 8.5 -3.5t3.5 -8.5v-18q0 -28 22 -47.5t58 -19.5q30 0 46 16t16 39
q0 19 -11.5 32.5t-30.5 24.5t-68 36q-56 28 -95 54.5t-67 69.5t-28 103q0 73 42 123.5t113 67.5q4 1 4 6l-2 69q0 5 3.5 8.5t8.5 3.5h110q5 0 8.5 -3.5t3.5 -8.5l-2 -69q0 -5 4 -6q75 -17 119.5 -71t44.5 -131v-19q0 -5 -3.5 -8.5t-8.5 -3.5h-136q-5 0 -8.5 3.5t-3.5 8.5v17
q0 29 -20.5 49.5t-55.5 20.5q-29 0 -45 -15t-16 -41q0 -19 11 -33.5t33.5 -28.5t70.5 -38l27 -15q55 -31 85.5 -53.5t52 -58.5t21.5 -88q0 -78 -44.5 -130z" />
    <glyph glyph-name="percent" unicode="%" horiz-adv-x="789" 
d="M123.5 403q-37.5 22 -59.5 59.5t-22 82.5t22 82.5t59.5 59t81.5 21.5t81 -22t59 -59.5t22 -81.5q0 -45 -21.5 -82.5t-59 -59.5t-81.5 -22t-81.5 22zM149 4q-2 4 1 10l370 678q5 8 15 8h92q7 0 9 -4t-1 -10l-370 -678q-5 -8 -15 -8h-92q-7 0 -9 4zM255 492.5
q20 21.5 20 52.5t-20.5 52t-49.5 21q-30 0 -50.5 -21t-20.5 -52t20.5 -52.5t50.5 -21.5t50 21.5zM506.5 14q-37.5 22 -59.5 59.5t-22 82.5q0 44 22 81.5t59.5 59.5t81.5 22t81.5 -22t59 -59.5t21.5 -81.5q0 -45 -21.5 -82.5t-58.5 -59.5t-82 -22q-44 0 -81.5 22z
M638.5 103.5q20.5 21.5 20.5 52.5q0 30 -21 51.5t-50 21.5t-50 -21.5t-21 -51.5q0 -31 21 -52.5t50 -21.5q30 0 50.5 21.5z" />
    <glyph glyph-name="ampersand" unicode="&#x26;" horiz-adv-x="673" 
d="M638 7q0 -7 -10 -7h-156q-9 0 -15 6l-27 31q-2 2 -7 1q-84 -47 -181 -47q-96 0 -156 46t-60 136q0 64 31 109t84 79q4 4 1 7q-45 56 -59 87.5t-14 69.5q0 52 26 94t73 65.5t108 23.5q62 0 111.5 -24.5t77.5 -68t28 -100.5q0 -62 -31.5 -106.5t-84.5 -79.5q-3 -3 -1 -7
q33 -41 61 -72q4 -4 8 0q34 41 52 75q6 11 17 5l105 -60q10 -7 4 -16q-38 -70 -82 -120q-3 -3 0 -6l51 -62l43 -51q3 -4 3 -8zM247 545.5q-12 -12.5 -12 -32.5q0 -13 6.5 -25.5t30.5 -43.5q3 -4 7 -1q23 16 35.5 32.5t12.5 36.5q0 21 -13 33.5t-34 12.5t-33 -12.5zM322 150
q6 4 1 7l-30 34l-48 55q-3 3 -7 0q-41 -28 -44 -59q-3 -23 13 -39.5t46 -16.5q11 0 17 1q26 5 52 18z" />
    <glyph glyph-name="quotesingle" unicode="'" horiz-adv-x="185" 
d="M30.5 469.5q-3.5 3.5 -4.5 8.5l-15 210v2q0 10 11 10h142q14 0 12 -12l-17 -211q-2 -11 -13 -11h-107q-5 0 -8.5 3.5z" />
    <glyph glyph-name="parenleft" unicode="(" horiz-adv-x="360" 
d="M130 -80q-129 169 -129 415q0 248 129 415q4 7 14 7h139q7 0 9.5 -4t-1.5 -10q-46 -86 -75 -184.5t-29 -223.5t29 -223.5t75 -184.5q2 -4 2 -7q0 -7 -10 -7h-139q-10 0 -14 7z" />
    <glyph glyph-name="parenright" unicode=")" horiz-adv-x="360" 
d="M231 750q128 -168 128 -414q0 -249 -129 -416q-4 -7 -14 -7h-139q-7 0 -9.5 4t1.5 10q46 87 75.5 185t29.5 223t-29 223t-76 185q-2 4 -2 7q0 7 10 7h140q10 0 14 -7z" />
    <glyph glyph-name="asterisk" unicode="*" horiz-adv-x="381" 
d="M147.5 398.5q-3.5 3.5 -3.5 8.5l1 75q0 3 -2 4t-4 -1l-69 -40q-4 -2 -6 -2q-7 0 -11 7l-34 62q-2 4 -2 7q0 7 7 10l72 39q5 3 0 6l-72 37q-5 2 -6.5 7t1.5 10l34 64q3 5 7.5 6.5t9.5 -1.5l69 -40q2 -2 4 -1t2 4l-1 74q0 5 3.5 8.5t8.5 3.5h69q5 0 8.5 -3.5t3.5 -8.5
l-1 -74q0 -3 2 -4t4 1l68 40q4 2 6 2q7 0 11 -7l35 -64q2 -4 2 -7q0 -7 -7 -10l-72 -37q-4 -3 0 -6l72 -39q5 -2 6.5 -7t-1.5 -10l-35 -64q-6 -11 -16 -5l-69 42q-2 2 -4 1t-2 -4l1 -75q0 -5 -3.5 -8.5t-8.5 -3.5h-69q-5 0 -8.5 3.5z" />
    <glyph glyph-name="plus" unicode="+" horiz-adv-x="459" 
d="M432.5 365.5q3.5 -3.5 3.5 -8.5v-109q0 -5 -3.5 -8.5t-8.5 -3.5h-123q-5 0 -5 -5v-123q0 -5 -3.5 -8.5t-8.5 -3.5h-109q-5 0 -8.5 3.5t-3.5 8.5v123q0 5 -5 5h-123q-5 0 -8.5 3.5t-3.5 8.5v109q0 5 3.5 8.5t8.5 3.5h123q5 0 5 5v123q0 5 3.5 8.5t8.5 3.5h109
q5 0 8.5 -3.5t3.5 -8.5v-123q0 -5 5 -5h123q5 0 8.5 -3.5z" />
    <glyph glyph-name="comma" unicode="," horiz-adv-x="244" 
d="M31.5 -101.5q-3.5 3.5 -2.5 9.5l25 240q1 11 12 11h123q14 0 11 -13l-59 -241q-3 -10 -14 -10h-86q-6 0 -9.5 3.5z" />
    <glyph glyph-name="hyphen" unicode="-" horiz-adv-x="376" 
d="M26.5 222.5q-3.5 3.5 -3.5 8.5v118q0 5 3.5 8.5t8.5 3.5h306q5 0 8.5 -3.5t3.5 -8.5v-118q0 -5 -3.5 -8.5t-8.5 -3.5h-306q-5 0 -8.5 3.5z" />
    <glyph glyph-name="period" unicode="." horiz-adv-x="251" 
d="M60.5 18.5q-24.5 24.5 -24.5 62.5q0 39 24.5 63t62.5 24t62 -24t24 -63q0 -38 -24.5 -62.5t-61.5 -24.5q-38 0 -62.5 24.5z" />
    <glyph glyph-name="slash" unicode="/" horiz-adv-x="471" 
d="M18 14l252 676q3 10 14 10h140q15 0 10 -14l-251 -676q-3 -10 -14 -10h-141q-15 0 -10 14z" />
    <glyph glyph-name="zero" unicode="0" horiz-adv-x="514" 
d="M91.5 49q-61.5 61 -61.5 164v274q0 102 61.5 162.5t164.5 60.5q104 0 166 -60.5t62 -162.5v-274q0 -103 -62 -164t-166 -61q-103 0 -164.5 61zM301.5 150.5q16.5 19.5 16.5 53.5v290q0 34 -16.5 53.5t-45.5 19.5q-27 0 -43.5 -19.5t-16.5 -53.5v-290q0 -34 16.5 -53.5
t43.5 -19.5q29 0 45.5 19.5z" />
    <glyph glyph-name="one" unicode="1" horiz-adv-x="325" 
d="M132 700h146q5 0 8.5 -3.5t3.5 -8.5v-676q0 -5 -3.5 -8.5t-8.5 -3.5h-142q-5 0 -8.5 3.5t-3.5 8.5v529q0 6 -5 4l-86 -13h-3q-10 0 -10 11l-2 105q0 10 9 14l90 35q7 3 15 3z" />
    <glyph glyph-name="two" unicode="2" horiz-adv-x="510" 
d="M242 144q1 -2 4 -2h228q5 0 8.5 -3.5t3.5 -8.5v-118q0 -5 -3.5 -8.5t-8.5 -3.5h-431q-5 0 -8.5 3.5t-3.5 8.5v116q0 9 6 15q125 134 201 227q34 42 52.5 75t18.5 60q0 28 -15.5 44.5t-41.5 16.5q-25 0 -41 -16.5t-16 -42.5v-34q0 -5 -3.5 -8.5t-8.5 -3.5h-144
q-5 0 -8.5 3.5t-3.5 8.5v50q3 55 33.5 97t81.5 65t114 23q66 0 116 -26.5t77.5 -72.5t27.5 -103q0 -48 -18.5 -91.5t-56.5 -92.5q-41 -53 -136 -150l-23 -24q-2 -2 -1 -4z" />
    <glyph glyph-name="three" unicode="3" horiz-adv-x="496" 
d="M467 229q0 -75 -29 -130q-26 -52 -74.5 -79.5t-116.5 -27.5q-85 0 -143.5 43.5t-72.5 115.5q-7 33 -9 68q0 12 12 12h143q12 0 12 -12q2 -25 7 -41q5 -21 18 -32.5t33 -11.5q18 0 31.5 11t18.5 31q8 29 8 65q0 35 -8 61q-16 45 -51 45q-20 0 -43 -17q-3 -2 -7 -2
q-6 0 -10 4l-72 80q-3 5 -3 8q0 5 4 9l136 123q2 2 1.5 4t-3.5 2h-199q-5 0 -8.5 3.5t-3.5 8.5v118q0 5 3.5 8.5t8.5 3.5h400q5 0 8.5 -3.5t3.5 -8.5v-121q0 -9 -6 -15l-120 -116q-2 -2 -1.5 -4t3.5 -2q75 -17 107 -87q22 -49 22 -114z" />
    <glyph glyph-name="four" unicode="4" horiz-adv-x="566" 
d="M536.5 318.5q3.5 -3.5 3.5 -8.5v-125q0 -5 -3.5 -8.5t-8.5 -3.5h-38q-5 0 -5 -5v-156q0 -5 -3.5 -8.5t-8.5 -3.5h-142q-5 0 -8.5 3.5t-3.5 8.5v156q0 5 -5 5h-283q-5 0 -8.5 3.5t-3.5 8.5v98q0 6 3 15l149 393q3 9 14 9h152q15 0 10 -14l-135 -358q-1 -6 4 -6h98q5 0 5 5
v99q0 5 3.5 8.5t8.5 3.5h142q5 0 8.5 -3.5t3.5 -8.5v-99q0 -5 5 -5h38q5 0 8.5 -3.5z" />
    <glyph glyph-name="five" unicode="5" horiz-adv-x="498" 
d="M476 224q0 -50 -13 -90q-20 -68 -74.5 -104.5t-136.5 -36.5t-138.5 39t-74.5 112q-6 21 -9 45v2q0 10 12 10h145q10 0 12 -11q2 -10 4 -15q12 -40 49 -40q18 0 31.5 11t17.5 30q7 23 7 46q0 28 -7 48q-12 36 -49 36q-36 0 -50 -28q-4 -9 -14 -9h-146q-5 0 -8.5 3.5
t-3.5 8.5v407q0 5 3.5 8.5t8.5 3.5h408q5 0 8.5 -3.5t3.5 -8.5v-118q0 -5 -3.5 -8.5t-8.5 -3.5h-249q-5 0 -5 -5v-127q0 -3 2 -4t4 1q39 27 88 27q61 0 103 -28t62 -79q21 -52 21 -119z" />
    <glyph glyph-name="six" unicode="6" horiz-adv-x="498" 
d="M476 224q0 -54 -15 -96q-21 -65 -75 -100t-134 -35q-62 0 -109 24t-74 68q-39 55 -39 131l-1 310q0 83 60 132.5t159 49.5q63 0 111.5 -22.5t75.5 -63.5t27 -95v-35q0 -5 -3.5 -8.5t-8.5 -3.5h-142q-5 0 -8.5 3.5t-3.5 8.5v17q0 24 -14 39.5t-34 15.5q-23 0 -37.5 -15.5
t-14.5 -39.5v-86q0 -3 2 -4t4 1q35 29 86 29q59 0 101.5 -31t64.5 -84q22 -50 22 -110zM308 227q0 39 -10 59q-13 32 -46 32q-31 0 -46 -31q-10 -20 -10 -60q0 -31 7 -52q11 -40 49 -40q19 0 31 11t18 30q7 19 7 51z" />
    <glyph glyph-name="seven" unicode="7" horiz-adv-x="463" 
d="M91 3.5q-3 3.5 -1 10.5l186 538q2 6 -4 6h-121q-5 0 -5 -5v-40q0 -5 -3.5 -8.5t-8.5 -3.5h-110q-5 0 -8.5 3.5t-3.5 8.5l1 175q0 5 3.5 8.5t8.5 3.5h416q5 0 8.5 -3.5t3.5 -8.5v-122q0 -9 -2 -15l-188 -541q-3 -10 -13 -10h-150q-6 0 -9 3.5z" />
    <glyph glyph-name="eight" unicode="8" horiz-adv-x="498" 
d="M471 207q0 -52 -19 -95q-25 -55 -78 -87.5t-124 -32.5q-70 0 -124.5 31t-80.5 89q-19 42 -19 95q0 55 21 99q15 35 46 55q4 3 0 7q-26 19 -44 55q-19 38 -19 88q0 63 30 108q27 45 76.5 70t112.5 25t112 -24.5t76 -69.5q31 -48 31 -109q0 -51 -21 -90q-16 -31 -44 -51
q-4 -4 0 -7q30 -20 47 -56q21 -44 21 -100zM194 499q0 -23 7 -40q6 -17 18.5 -26.5t29.5 -9.5t30 10t19 27q7 15 7 39q0 19 -6 34q-5 18 -18.5 28.5t-31.5 10.5t-31 -10.5t-18 -28.5q-6 -16 -6 -34zM306 220q0 23 -7 46q-13 40 -50 40q-19 0 -31.5 -10.5t-17.5 -30.5
q-7 -17 -7 -45q0 -26 8 -47q13 -39 48 -39q17 0 29.5 10t18.5 28q9 20 9 48z" />
    <glyph glyph-name="nine" unicode="9" horiz-adv-x="490" 
d="M461 484v-310q0 -83 -60 -132.5t-159 -49.5q-63 0 -111.5 22.5t-75.5 63.5t-27 96v35q0 5 3.5 8.5t8.5 3.5h142q5 0 8.5 -3.5t3.5 -8.5v-18q0 -24 14 -39.5t35 -15.5q23 0 37.5 15.5t14.5 39.5v86q0 3 -2 4t-4 -1q-18 -14 -40.5 -21.5t-46.5 -7.5q-58 0 -101 31t-65 84
q-21 48 -21 110q0 58 15 96q21 65 74.5 100t133.5 35q62 0 109 -24t74 -68q40 -54 40 -131zM284 413q11 23 11 60q0 26 -7 52q-13 40 -49 40t-50 -41q-7 -22 -7 -51q0 -36 10 -59q13 -32 47 -32q32 0 45 31z" />
    <glyph glyph-name="colon" unicode=":" horiz-adv-x="335" 
d="M104.5 350.5q-24.5 24.5 -24.5 62.5q0 39 24.5 63t62.5 24t62 -24t24 -63q0 -38 -24.5 -62.5t-61.5 -24.5q-38 0 -62.5 24.5zM104.5 26.5q-24.5 24.5 -24.5 62.5q0 39 24.5 63t62.5 24t62 -24t24 -63q0 -38 -24.5 -62.5t-61.5 -24.5q-38 0 -62.5 24.5z" />
    <glyph glyph-name="semicolon" unicode=";" horiz-adv-x="282" 
d="M70.5 329q-27.5 28 -27.5 69q0 39 30 67.5t68 28.5q39 0 69 -28.5t30 -67.5q0 -40 -28 -68.5t-71 -28.5t-70.5 28zM51 -92l19 239q2 11 13 11h123q14 0 11 -13l-56 -239q-3 -10 -13 -10h-85q-13 0 -12 12z" />
    <glyph glyph-name="less" unicode="&#x3c;" horiz-adv-x="459" 
d="M432 36.5q-4 -2.5 -10 0.5l-390 172q-9 5 -9 14v122q0 10 9 14l390 172q4 2 6 2q8 0 8 -11v-132q0 -10 -9 -14l-231 -89q-6 -3 0 -6l231 -88q9 -4 9 -14v-133q0 -7 -4 -9.5z" />
    <glyph glyph-name="equal" unicode="=" horiz-adv-x="459" 
d="M26.5 328.5q-3.5 3.5 -3.5 8.5v109q0 5 3.5 8.5t8.5 3.5h389q5 0 8.5 -3.5t3.5 -8.5v-109q0 -5 -3.5 -8.5t-8.5 -3.5h-389q-5 0 -8.5 3.5zM26.5 146.5q-3.5 3.5 -3.5 8.5v109q0 5 3.5 8.5t8.5 3.5h389q5 0 8.5 -3.5t3.5 -8.5v-109q0 -5 -3.5 -8.5t-8.5 -3.5h-389
q-5 0 -8.5 3.5z" />
    <glyph glyph-name="greater" unicode="&#x3e;" horiz-adv-x="459" 
d="M31 35q-8 0 -8 11v133q0 10 9 14l231 88q6 3 0 6l-231 89q-9 4 -9 14v132q0 7 4 9.5t10 -0.5l390 -172q9 -4 9 -14v-122q0 -9 -9 -14l-390 -172q-4 -2 -6 -2z" />
    <glyph glyph-name="question" unicode="?" horiz-adv-x="502" 
d="M156.5 232.5q-3.5 3.5 -3.5 8.5v24q0 38 13.5 65.5t32.5 45t50 40.5q34 24 50 42t16 43q0 27 -16.5 42.5t-45.5 15.5q-32 0 -50 -17.5t-18 -45.5v-11q0 -11 -12 -11l-142 6q-5 0 -8.5 4t-3.5 9v3q0 63 30 111.5t84 75.5t124 27q68 0 119 -25t79 -70.5t28 -105.5
q0 -45 -14.5 -76.5t-35 -51.5t-52.5 -43q-32 -22 -47.5 -40t-15.5 -43v-14q0 -5 -3.5 -8.5t-8.5 -3.5h-141q-5 0 -8.5 3.5zM170.5 20.5q-24.5 24.5 -24.5 62.5q0 39 24.5 63t62.5 24t62.5 -24t24.5 -63q0 -37 -24.5 -62t-62.5 -25t-62.5 24.5z" />
    <glyph glyph-name="at" unicode="@" horiz-adv-x="783" 
d="M603 632.5q73 -37.5 113 -106t40 -158.5q0 -25 -3 -52q-13 -101 -64.5 -156.5t-134.5 -55.5q-69 0 -107 38q-4 4 -7 0q-35 -39 -112 -39q-49 0 -79 33t-30 91q0 13 5 65q5 39 15 70q15 55 47 83.5t79 28.5q42 0 67 -22q6 -4 6 3v2q1 11 13 11h86q12 0 11 -13l-23 -169
q-1 -7 -1 -19q0 -28 11.5 -44t32.5 -16q28 0 45.5 29.5t23.5 78.5q3 23 3 43q0 101 -57 156t-155 55q-72 0 -133.5 -36t-102.5 -100t-51 -144q-3 -24 -3 -46q0 -69 28 -118.5t75.5 -75t103.5 -25.5q41 0 75 11t59 28q5 3 8 3q6 0 9 -6l42 -62q2 -3 2 -8t-5 -9
q-40 -28 -94 -45t-115 -17q-84 0 -152 40t-107.5 112t-39.5 165q0 30 4 57q15 112 72.5 197.5t145 132.5t187.5 47q94 0 167 -37.5zM403 229q8 28 12 59q2 21 2 35t1 23q0 15 -9 24t-23 9q-15 0 -25.5 -9t-15.5 -24q-9 -25 -12 -61q-4 -20 -4 -42q0 -11 1 -14q2 -15 10 -24
t23 -9q28 0 40 33z" />
    <glyph glyph-name="A" unicode="A" horiz-adv-x="601" 
d="M409 11l-20 88q-1 4 -5 4h-169q-4 0 -5 -4l-20 -88q-2 -11 -13 -11h-147q-13 0 -10 13l179 677q3 10 14 10h175q11 0 14 -10l179 -677l1 -4q0 -9 -11 -9h-149q-11 0 -13 11zM245 231h107q2 0 4 1.5t1 4.5l-56 248q-1 4 -3 4t-3 -4l-55 -249q-1 -5 5 -5z" />
    <glyph glyph-name="B" unicode="B" horiz-adv-x="547" 
d="M453 50q-64 -50 -165 -50h-234q-5 0 -8.5 3.5t-3.5 8.5v676q0 5 3.5 8.5t8.5 3.5h217q113 0 174 -47.5t61 -147.5q0 -96 -70 -140q-6 -3 -1 -6q82 -52 82 -162q0 -97 -64 -147zM208 553v-127q0 -5 5 -5h59q35 0 53.5 17.5t18.5 50.5t-19 51t-53 18h-59q-5 0 -5 -5z
M332.5 162.5q18.5 19.5 18.5 55.5q0 35 -18 55t-51 20h-69q-5 0 -5 -5v-140q0 -5 5 -5h68q33 0 51.5 19.5z" />
    <glyph glyph-name="C" unicode="C" horiz-adv-x="539" 
d="M145.5 20q-54.5 28 -84 80t-29.5 120v262q0 68 29.5 119t84 79t125.5 28t125.5 -27t84 -77t29.5 -116v-4q0 -5 -3.5 -9t-8.5 -4l-142 -6q-12 0 -12 11v14q0 34 -20 55t-53 21t-53 -21t-20 -55v-280q0 -34 20 -55t53 -21t53 21t20 55v14q0 11 12 11l142 -6q5 0 8.5 -4
t3.5 -9v-2q0 -66 -29.5 -116.5t-84 -78t-125.5 -27.5t-125.5 28z" />
    <glyph glyph-name="D" unicode="D" horiz-adv-x="549" 
d="M45.5 3.5q-3.5 3.5 -3.5 8.5v676q0 5 3.5 8.5t8.5 3.5h223q71 0 125 -26t83.5 -73t29.5 -109v-284q0 -62 -29.5 -109t-83.5 -73t-125 -26h-223q-5 0 -8.5 3.5zM213 142l66 1q30 0 49.5 23t20.5 62v245q0 38 -19.5 61.5t-51.5 23.5h-65q-5 0 -5 -5v-406q0 -5 5 -5z" />
    <glyph glyph-name="E" unicode="E" horiz-adv-x="509" 
d="M479.5 561.5q-3.5 -3.5 -8.5 -3.5h-258q-5 0 -5 -5v-125q0 -5 5 -5h156q5 0 8.5 -3.5t3.5 -8.5v-118q0 -5 -3.5 -8.5t-8.5 -3.5h-156q-5 0 -5 -5v-129q0 -5 5 -5h258q5 0 8.5 -3.5t3.5 -8.5v-118q0 -5 -3.5 -8.5t-8.5 -3.5h-417q-5 0 -8.5 3.5t-3.5 8.5v676q0 5 3.5 8.5
t8.5 3.5h417q5 0 8.5 -3.5t3.5 -8.5v-118q0 -5 -3.5 -8.5z" />
    <glyph glyph-name="F" unicode="F" horiz-adv-x="492" 
d="M478.5 561.5q-3.5 -3.5 -8.5 -3.5h-257q-5 0 -5 -5v-125q0 -5 5 -5h155q5 0 8.5 -3.5t3.5 -8.5v-118q0 -5 -3.5 -8.5t-8.5 -3.5h-155q-5 0 -5 -5v-264q0 -5 -3.5 -8.5t-8.5 -3.5h-142q-5 0 -8.5 3.5t-3.5 8.5v676q0 5 3.5 8.5t8.5 3.5h416q5 0 8.5 -3.5t3.5 -8.5v-118
q0 -5 -3.5 -8.5z" />
    <glyph glyph-name="G" unicode="G" horiz-adv-x="542" 
d="M146 20q-54 28 -84 79.5t-30 118.5v264q0 68 30 119t84 79t125 28q70 0 124.5 -27.5t84.5 -76t30 -110.5v-21q0 -5 -3.5 -8.5t-8.5 -3.5h-142q-5 0 -8.5 3.5t-3.5 8.5v19q0 32 -19.5 53t-53.5 21q-33 0 -53 -22.5t-20 -58.5v-270q0 -36 22 -58.5t55 -22.5q32 0 51.5 19.5
t19.5 52.5v46q0 5 -5 5h-64q-5 0 -8.5 3.5t-3.5 8.5v108q0 5 3.5 8.5t8.5 3.5h221q5 0 8.5 -3.5t3.5 -8.5v-161q0 -67 -30 -118t-84 -78.5t-125 -27.5t-125 28z" />
    <glyph glyph-name="H" unicode="H" horiz-adv-x="551" 
d="M350.5 696.5q3.5 3.5 8.5 3.5h142q5 0 8.5 -3.5t3.5 -8.5v-676q0 -5 -3.5 -8.5t-8.5 -3.5h-142q-5 0 -8.5 3.5t-3.5 8.5v264q0 5 -5 5h-129q-5 0 -5 -5v-264q0 -5 -3.5 -8.5t-8.5 -3.5h-142q-5 0 -8.5 3.5t-3.5 8.5v676q0 5 3.5 8.5t8.5 3.5h142q5 0 8.5 -3.5t3.5 -8.5
v-260q0 -5 5 -5h129q5 0 5 5v260q0 5 3.5 8.5z" />
    <glyph glyph-name="I" unicode="I" horiz-adv-x="250" 
d="M45.5 3.5q-3.5 3.5 -3.5 8.5v676q0 5 3.5 8.5t8.5 3.5h142q5 0 8.5 -3.5t3.5 -8.5v-676q0 -5 -3.5 -8.5t-8.5 -3.5h-142q-5 0 -8.5 3.5z" />
    <glyph glyph-name="J" unicode="J" horiz-adv-x="523" 
d="M123.5 18.5q-52.5 26.5 -81.5 75.5t-29 112v62q0 5 3.5 8.5t8.5 3.5h142q5 0 8.5 -3.5t3.5 -8.5v-62q0 -32 18 -52t49 -20t50.5 20t19.5 52v482q0 5 3.5 8.5t8.5 3.5h141q5 0 8.5 -3.5t3.5 -8.5v-482q0 -63 -29.5 -111.5t-83 -75.5t-122.5 -27q-70 0 -122.5 26.5z" />
    <glyph glyph-name="K" unicode="K" horiz-adv-x="568" 
d="M45.5 3.5q-3.5 3.5 -3.5 8.5v676q0 5 3.5 8.5t8.5 3.5h142q5 0 8.5 -3.5t3.5 -8.5v-243q0 -4 2 -4.5t4 2.5l153 249q4 8 14 8h156q7 0 9.5 -3.5t-1.5 -10.5l-180 -292q-1 -3 0 -7l189 -373q2 -4 2 -6q0 -8 -11 -8h-155q-9 0 -14 9l-125 250q-4 6 -7 0l-34 -54
q-2 -4 -2 -6v-187q0 -5 -3.5 -8.5t-8.5 -3.5h-142q-5 0 -8.5 3.5z" />
    <glyph glyph-name="L" unicode="L" horiz-adv-x="505" 
d="M45.5 3.5q-3.5 3.5 -3.5 8.5v676q0 5 3.5 8.5t8.5 3.5h142q5 0 8.5 -3.5t3.5 -8.5v-541q0 -5 5 -5h262q5 0 8.5 -3.5t3.5 -8.5v-118q0 -5 -3.5 -8.5t-8.5 -3.5h-421q-5 0 -8.5 3.5z" />
    <glyph glyph-name="M" unicode="M" horiz-adv-x="636" 
d="M443 700h141q5 0 8.5 -3.5t3.5 -8.5v-676q0 -5 -3.5 -8.5t-8.5 -3.5h-142q-5 0 -8.5 3.5t-3.5 8.5v415q0 4 -2 4.5t-4 -2.5l-78 -130q-4 -8 -14 -8h-28q-10 0 -14 8l-78 130q-2 3 -4 2.5t-2 -4.5v-415q0 -5 -3.5 -8.5t-8.5 -3.5h-142q-5 0 -8.5 3.5t-3.5 8.5v676
q0 5 3.5 8.5t8.5 3.5h141q10 0 14 -8l108 -182q3 -6 6 0l108 182q4 8 14 8z" />
    <glyph glyph-name="N" unicode="N" horiz-adv-x="592" 
d="M387.5 696.5q3.5 3.5 8.5 3.5h142q5 0 8.5 -3.5t3.5 -8.5v-676q0 -5 -3.5 -8.5t-8.5 -3.5h-148q-10 0 -14 9l-165 370q-2 3 -4 2.5t-2 -4.5l2 -365q0 -5 -3.5 -8.5t-8.5 -3.5h-141q-5 0 -8.5 3.5t-3.5 8.5v676q0 5 3.5 8.5t8.5 3.5h147q10 0 14 -9l164 -368q2 -3 4 -3
t2 4l-1 364q0 5 3.5 8.5z" />
    <glyph glyph-name="O" unicode="O" horiz-adv-x="550" 
d="M148 19q-55 29 -85.5 82t-30.5 123v252q0 69 30.5 121.5t85.5 81.5t127 29t127 -29t85.5 -81.5t30.5 -121.5v-252q0 -70 -30.5 -123t-85.5 -82t-127 -29t-127 29zM331 156.5q21 23.5 21 61.5v262q0 38 -21.5 62t-55.5 24q-35 0 -56 -23.5t-21 -62.5v-262q0 -38 21 -61.5
t56 -23.5t56 23.5z" />
    <glyph glyph-name="P" unicode="P" horiz-adv-x="536" 
d="M415.5 672.5q48.5 -27.5 75 -78t26.5 -115.5q0 -64 -26.5 -113t-75 -75.5t-111.5 -26.5h-94q-5 0 -5 -5v-247q0 -5 -3.5 -8.5t-8.5 -3.5h-142q-5 0 -8.5 3.5t-3.5 8.5v676q0 5 3.5 8.5t8.5 3.5h253q63 0 111.5 -27.5zM331 416.5q21 21.5 21 58.5q0 38 -21 60.5t-55 22.5
h-66q-5 0 -5 -5v-153q0 -5 5 -5h66q34 0 55 21.5z" />
    <glyph glyph-name="Q" unicode="Q" horiz-adv-x="534" 
d="M390 678.5q54 -29.5 83.5 -83.5t29.5 -124v-248q0 -80 -40 -137.5t-109 -80.5q-4 -1 -4 -5v-80q0 -5 -3.5 -8.5t-8.5 -3.5h-142q-5 0 -8.5 3.5t-3.5 8.5v80q0 4 -4 5q-70 23 -109.5 80.5t-39.5 137.5v248q0 70 29.5 124t82.5 83.5t123 29.5t124 -29.5zM197 216
q0 -37 19 -59.5t50 -22.5q32 0 51.5 22.5t19.5 59.5v268q0 37 -19.5 59.5t-51.5 22.5q-31 0 -50 -22.5t-19 -59.5v-268z" />
    <glyph glyph-name="R" unicode="R" horiz-adv-x="548" 
d="M352 10l-94 265q-2 4 -5 4h-40q-5 0 -5 -5v-262q0 -5 -3.5 -8.5t-8.5 -3.5h-142q-5 0 -8.5 3.5t-3.5 8.5v676q0 5 3.5 8.5t8.5 3.5h256q62 0 109.5 -27.5t73.5 -76.5t26 -113q0 -63 -27 -110t-75 -71q-4 -1 -2 -6l109 -282q1 -2 1 -5q0 -9 -11 -9h-149q-10 0 -13 10z
M208 553v-142q0 -5 5 -5h70q32 0 51.5 20t19.5 55q0 36 -19.5 56.5t-51.5 20.5h-70q-5 0 -5 -5z" />
    <glyph glyph-name="S" unicode="S" horiz-adv-x="526" 
d="M140.5 17q-53.5 25 -83 70.5t-29.5 105.5v26q0 5 3.5 8.5t8.5 3.5h140q5 0 8.5 -3.5t3.5 -8.5v-18q0 -28 22 -47.5t59 -19.5q31 0 47 16t16 39q0 19 -11.5 32.5t-31.5 24.5t-69 36q-57 28 -97 54.5t-68.5 69.5t-28.5 103t29 105t81 69.5t119 24.5q69 0 123 -26.5
t84.5 -74t30.5 -109.5v-19q0 -5 -3.5 -8.5t-8.5 -3.5h-140q-5 0 -8.5 3.5t-3.5 8.5v17q0 29 -21 49.5t-57 20.5q-29 0 -45 -15t-16 -41q0 -19 11 -33.5t34.5 -28.5t71.5 -38l29 -16q54 -30 86 -53t53.5 -59t21.5 -87q0 -94 -64.5 -148.5t-170.5 -54.5q-72 0 -125.5 25z" />
    <glyph glyph-name="T" unicode="T" horiz-adv-x="537" 
d="M512.5 696.5q3.5 -3.5 3.5 -8.5v-119q0 -5 -3.5 -8.5t-8.5 -3.5h-150q-5 0 -5 -5v-540q0 -5 -3.5 -8.5t-8.5 -3.5h-142q-5 0 -8.5 3.5t-3.5 8.5v540q0 5 -5 5h-144q-5 0 -8.5 3.5t-3.5 8.5v119q0 5 3.5 8.5t8.5 3.5h470q5 0 8.5 -3.5z" />
    <glyph glyph-name="U" unicode="U" horiz-adv-x="551" 
d="M151 20.5q-54 28.5 -83.5 80.5t-29.5 120v467q0 5 3.5 8.5t8.5 3.5h142q5 0 8.5 -3.5t3.5 -8.5v-475q0 -35 20 -57t52 -22t51.5 22t19.5 57v475q0 5 3.5 8.5t8.5 3.5h142q5 0 8.5 -3.5t3.5 -8.5v-467q0 -68 -29.5 -120t-83 -80.5t-124.5 -28.5t-125 28.5z" />
    <glyph glyph-name="V" unicode="V" horiz-adv-x="570" 
d="M193 10l-172 677v4q0 9 11 9h154q11 0 13 -11l86 -427q1 -3 3 -3t3 3l84 427q1 11 13 11h150q14 0 11 -13l-174 -677q-3 -10 -14 -10h-154q-11 0 -14 10z" />
    <glyph glyph-name="W" unicode="W" horiz-adv-x="804" 
d="M182 10l-162 677v4q0 9 11 9h149q12 0 13 -11l66 -347q1 -3 3 -3t3 3l62 347q1 11 13 11h128q12 0 13 -11l68 -347q1 -3 3 -3t3 3l60 347q1 11 13 11h145q14 0 11 -13l-149 -676q-2 -11 -13 -11h-135q-12 0 -13 11l-69 365q-1 3 -3 3t-3 -3l-60 -365q-1 -11 -13 -11h-131
q-10 0 -13 10z" />
    <glyph glyph-name="X" unicode="X" horiz-adv-x="568" 
d="M24.5 3.5q-2.5 3.5 0.5 10.5l161 333q1 3 0 6l-161 333q-2 4 -2 6q0 8 11 8h150q10 0 14 -9l83 -187q3 -6 6 0l84 187q4 9 14 9h149q7 0 9.5 -3.5t-0.5 -10.5l-161 -333q-1 -3 0 -6l161 -333q2 -4 2 -6q0 -8 -11 -8h-148q-10 0 -14 9l-85 187q-3 6 -6 0l-84 -187
q-4 -9 -14 -9h-149q-7 0 -9.5 3.5z" />
    <glyph glyph-name="Y" unicode="Y" horiz-adv-x="564" 
d="M201.5 5.5q-3.5 3.5 -3.5 8.5v241l-1 6l-173 425q-1 2 -1 6q0 8 10 8h153q10 0 13 -10l80 -237q1 -3 3 -3t3 3l80 237q3 10 13 10h152q7 0 9 -4t0 -10l-174 -425l-1 -6v-241q0 -5 -3.5 -8.5t-8.5 -3.5h-142q-5 0 -8.5 3.5z" />
    <glyph glyph-name="Z" unicode="Z" horiz-adv-x="489" 
d="M25.5 3.5q-3.5 3.5 -3.5 8.5v126q0 8 4 15l255 399q3 6 -3 6h-244q-5 0 -8.5 3.5t-3.5 8.5v118q0 5 3.5 8.5t8.5 3.5h418q5 0 8.5 -3.5t3.5 -8.5v-126q0 -8 -4 -15l-256 -399q-3 -6 3 -6h245q5 0 8.5 -3.5t3.5 -8.5v-118q0 -5 -3.5 -8.5t-8.5 -3.5h-418q-5 0 -8.5 3.5z
" />
    <glyph glyph-name="bracketleft" unicode="[" horiz-adv-x="395" 
d="M35.5 -152.5q-3.5 3.5 -3.5 8.5v942q0 5 3.5 8.5t8.5 3.5h239q5 0 8.5 -3.5t3.5 -8.5v-119q0 -5 -3.5 -8.5t-8.5 -3.5h-80q-5 0 -5 -5v-670q0 -5 5 -5h80q5 0 8.5 -3.5t3.5 -8.5v-119q0 -5 -3.5 -8.5t-8.5 -3.5h-239q-5 0 -8.5 3.5z" />
    <glyph glyph-name="backslash" unicode="\" horiz-adv-x="471" 
d="M454 9q0 -9 -11 -9h-141q-11 0 -14 10l-251 676q-1 2 -1 5q0 9 11 9h141q11 0 14 -10l251 -676q1 -2 1 -5z" />
    <glyph glyph-name="bracketright" unicode="]" horiz-adv-x="395" 
d="M358.5 -152.5q-3.5 -3.5 -8.5 -3.5h-239q-5 0 -8.5 3.5t-3.5 8.5v119q0 5 3.5 8.5t8.5 3.5h80q5 0 5 5v670q0 5 -5 5h-80q-5 0 -8.5 3.5t-3.5 8.5v119q0 5 3.5 8.5t8.5 3.5h239q5 0 8.5 -3.5t3.5 -8.5v-942q0 -5 -3.5 -8.5z" />
    <glyph glyph-name="asciicircum" unicode="^" horiz-adv-x="456" 
d="M28.5 297.5q-2.5 3.5 -0.5 10.5l127 382q3 10 13 10h118q10 0 13 -10l129 -382q1 -2 1 -5q0 -9 -10 -9h-115q-11 0 -14 10l-59 214q-1 3 -3 3t-3 -3l-59 -214q-3 -10 -14 -10h-115q-6 0 -8.5 3.5z" />
    <glyph glyph-name="underscore" unicode="_" horiz-adv-x="487" 
d="M16.5 3.5q-3.5 3.5 -3.5 8.5v100q0 5 3.5 8.5t8.5 3.5h437q5 0 8.5 -3.5t3.5 -8.5v-100q0 -5 -3.5 -8.5t-8.5 -3.5h-437q-5 0 -8.5 3.5z" />
    <glyph glyph-name="grave" unicode="`" horiz-adv-x="240" 
d="M221 586q0 -8 -10 -8h-97q-8 0 -14 7l-76 100q-3 5 -3 8q0 7 10 7h117q10 0 15 -8l56 -100q2 -4 2 -6z" />
    <glyph glyph-name="a" unicode="a" horiz-adv-x="496" 
d="M357 503q50 -22 78.5 -60.5t28.5 -87.5v-343q0 -5 -3.5 -8.5t-8.5 -3.5h-142q-5 0 -8.5 3.5t-3.5 8.5v29q0 3 -2 4t-4 -2q-35 -50 -116 -51q-69 0 -113.5 35t-44.5 117q0 87 52.5 124t153.5 37h69q5 0 5 5v22q0 23 -14 37t-39 14q-19 0 -31.5 -8.5t-17.5 -22.5
q-3 -11 -13 -10l-145 9q-12 2 -12 11q3 48 31.5 85t77 57.5t108.5 20.5q64 0 114 -22zM278.5 128.5q19.5 15.5 19.5 40.5v30q0 5 -5 5h-45q-29 0 -45.5 -12.5t-16.5 -35.5q0 -20 12.5 -31.5t33.5 -11.5q27 0 46.5 15.5z" />
    <glyph glyph-name="b" unicode="b" horiz-adv-x="513" 
d="M477 267q0 -68 -9 -110q-16 -78 -55 -121.5t-101 -43.5q-67 0 -103 39q-2 2 -4 1.5t-2 -3.5v-17q0 -5 -3.5 -8.5t-8.5 -3.5h-142q-5 0 -8.5 3.5t-3.5 8.5v676q0 5 3.5 8.5t8.5 3.5h142q5 0 8.5 -3.5t3.5 -8.5v-198q0 -3 2 -3.5t4 1.5q34 37 102 37q64 0 103.5 -41.5
t54.5 -117.5q8 -43 8 -99zM306 334q-5 23 -18 36t-31 13q-20 0 -32.5 -13.5t-16.5 -36.5q-5 -27 -5 -73q0 -50 5 -73q5 -24 17.5 -38.5t31.5 -14.5q20 0 32.5 14.5t17.5 38.5q4 29 4 92q0 38 -5 55z" />
    <glyph glyph-name="c" unicode="c" horiz-adv-x="494" 
d="M107 35.5q-57 43.5 -71 120.5q-9 45 -9 104q0 57 9 104q14 74 71.5 117.5t145.5 43.5q85 0 143 -42t72 -113q2 -10 4 -32v-2q0 -9 -11 -11l-141 -14h-3q-7 0 -9 8v6l-3 16q-5 19 -18.5 30.5t-34.5 11.5q-42 0 -53 -47q-5 -25 -5 -76q0 -56 6 -81q5 -21 18 -33t34 -12
q23 0 36 12.5t16 32.5q2 10 2 15q2 13 13 11l141 -12q12 -2 11 -13q0 -9 -2 -23q-11 -78 -69 -121.5t-147 -43.5t-146 43.5z" />
    <glyph glyph-name="d" unicode="d" horiz-adv-x="513" 
d="M313.5 696.5q3.5 3.5 8.5 3.5h142q5 0 8.5 -3.5t3.5 -8.5v-676q0 -5 -3.5 -8.5t-8.5 -3.5h-142q-5 0 -8.5 3.5t-3.5 8.5v17q0 3 -2 3.5t-4 -1.5q-36 -39 -103 -39q-62 0 -101 43.5t-55 121.5q-9 42 -9 110q0 56 8 99q15 76 54.5 117.5t103.5 41.5q68 0 102 -37
q2 -2 4 -1.5t2 3.5v198q0 5 3.5 8.5zM310 260q0 46 -5 73q-4 23 -16.5 36.5t-32.5 13.5q-18 0 -31 -13t-18 -36q-5 -21 -5 -55q0 -63 4 -92q5 -24 17.5 -38.5t32.5 -14.5q19 0 31.5 14.5t17.5 38.5q5 23 5 73z" />
    <glyph glyph-name="e" unicode="e" horiz-adv-x="499" 
d="M476 264l-1 -40q0 -12 -12 -12h-262q-4 0 -4 -4q0 -11 4 -29q5 -21 19.5 -33t37.5 -12q42 0 57 34q4 10 15 8l128 -25q14 -2 9 -14q-24 -71 -76.5 -108t-129.5 -37q-187 0 -223 163q-9 39 -9 119q0 47 6 78q11 79 69 126t146 47q96 0 156.5 -54t67.5 -142q2 -42 2 -65z
M217.5 370.5q-13.5 -12.5 -18.5 -34.5l-3 -28q0 -5 5 -5h102q5 0 5 5q-2 18 -4 28q-3 21 -17 34t-35 13t-34.5 -12.5z" />
    <glyph glyph-name="f" unicode="f" horiz-adv-x="351" 
d="M327.5 513.5q3.5 -3.5 3.5 -8.5v-101q0 -5 -3.5 -8.5t-8.5 -3.5h-71q-5 0 -5 -5v-375q0 -5 -3.5 -8.5t-8.5 -3.5h-142q-5 0 -8.5 3.5t-3.5 8.5v375q0 5 -5 5h-41q-5 0 -8.5 3.5t-3.5 8.5v101q0 5 3.5 8.5t8.5 3.5h41q5 0 5 5v29q0 60 22.5 93.5t68 46.5t120.5 10h20
q5 0 8.5 -3.5t3.5 -8.5v-92q0 -5 -3.5 -8.5t-8.5 -3.5h-19q-24 -1 -35 -13t-11 -35v-15q0 -5 5 -5h71q5 0 8.5 -3.5z" />
    <glyph glyph-name="g" unicode="g" horiz-adv-x="507" 
d="M310.5 513.5q3.5 3.5 8.5 3.5h142q5 0 8.5 -3.5t3.5 -8.5v-461q0 -125 -70.5 -185.5t-199.5 -60.5q-38 0 -70 4q-12 0 -12 12l4 122q0 13 13 11q27 -3 50 -3q62 0 90.5 26t28.5 82l-7 -8q-34 -40 -97 -40q-66 0 -111 37.5t-58 114.5q-8 28 -8 105q0 28 2.5 59.5t6.5 47.5
q1 2 1 6q12 71 54.5 111t109.5 40q65 0 101 -45q2 -3 4 -2t2 4v23q0 5 3.5 8.5zM307 261q0 49 -5 76q-4 21 -17.5 33.5t-34.5 12.5q-19 0 -31.5 -12.5t-17.5 -32.5q-8 -37 -8 -78q0 -42 6 -75q5 -21 18.5 -33t33.5 -12q21 0 34.5 12t17.5 33q4 29 4 76z" />
    <glyph glyph-name="h" unicode="h" horiz-adv-x="502" 
d="M428 477.5q42 -47.5 42 -132.5v-333q0 -5 -3.5 -8.5t-8.5 -3.5h-142q-5 0 -8.5 3.5t-3.5 8.5v309q0 28 -14 45t-37 17t-37 -17t-14 -45v-309q0 -5 -3.5 -8.5t-8.5 -3.5h-142q-5 0 -8.5 3.5t-3.5 8.5v676q0 5 3.5 8.5t8.5 3.5h142q5 0 8.5 -3.5t3.5 -8.5v-211
q0 -3 2.5 -3.5t4.5 3.5q36 48 102 48q75 0 117 -47.5z" />
    <glyph glyph-name="i" unicode="i" horiz-adv-x="238" 
d="M56.5 587.5q-24.5 24.5 -24.5 62.5q0 39 24.5 63t62.5 24t62.5 -24t24.5 -63q0 -37 -24.5 -62t-62.5 -25t-62.5 24.5zM39.5 3.5q-3.5 3.5 -3.5 8.5v493q0 5 3.5 8.5t8.5 3.5h142q5 0 8.5 -3.5t3.5 -8.5v-493q0 -5 -3.5 -8.5t-8.5 -3.5h-142q-5 0 -8.5 3.5z" />
    <glyph glyph-name="j" unicode="j" horiz-adv-x="240" 
d="M59.5 587.5q-24.5 24.5 -24.5 62.5q0 39 24.5 63t62.5 24t62 -24t24 -63q0 -38 -24.5 -62.5t-61.5 -24.5q-38 0 -62.5 24.5zM-67 -190v116q0 13 13 11q54 -2 74 16t20 61l-1 491q0 5 3.5 8.5t8.5 3.5h142q5 0 8.5 -3.5t3.5 -8.5v-490q0 -85 -18.5 -131t-74.5 -67.5
t-167 -18.5q-12 0 -12 12z" />
    <glyph glyph-name="k" unicode="k" horiz-adv-x="505" 
d="M39.5 3.5q-3.5 3.5 -3.5 8.5v676q0 5 3.5 8.5t8.5 3.5h142q5 0 8.5 -3.5t3.5 -8.5v-309q0 -3 2.5 -4t3.5 2l88 132q5 8 14 8h154q7 0 9.5 -4.5t-1.5 -10.5l-121 -173q-2 -3 0 -7l136 -308q2 -4 2 -6q0 -8 -11 -8h-148q-11 0 -14 10l-72 192q-1 3 -3 3t-4 -2l-33 -51
q-2 -4 -2 -6v-134q0 -5 -3.5 -8.5t-8.5 -3.5h-142q-5 0 -8.5 3.5z" />
    <glyph glyph-name="l" unicode="l" horiz-adv-x="234" 
d="M37.5 3.5q-3.5 3.5 -3.5 8.5v676q0 5 3.5 8.5t8.5 3.5h142q5 0 8.5 -3.5t3.5 -8.5v-676q0 -5 -3.5 -8.5t-8.5 -3.5h-142q-5 0 -8.5 3.5z" />
    <glyph glyph-name="m" unicode="m" horiz-adv-x="763" 
d="M691 478q39 -47 39 -133v-333q0 -5 -3.5 -8.5t-8.5 -3.5h-141q-5 0 -8.5 3.5t-3.5 8.5v309q0 28 -13 45t-35 17q-23 0 -36.5 -17t-13.5 -45v-309q0 -5 -3.5 -8.5t-8.5 -3.5h-142q-5 0 -8.5 3.5t-3.5 8.5v309q0 28 -13 45t-36 17t-37 -17t-14 -45v-309q0 -5 -3.5 -8.5
t-8.5 -3.5h-141q-5 0 -8.5 3.5t-3.5 8.5v493q0 5 3.5 8.5t8.5 3.5h141q5 0 8.5 -3.5t3.5 -8.5v-28q0 -3 2 -4t4 2q39 50 108 50q91 0 130 -73q3 -5 8 3q21 38 54 54t71 16q74 0 113 -47z" />
    <glyph glyph-name="n" unicode="n" horiz-adv-x="502" 
d="M428 477.5q42 -47.5 42 -132.5v-333q0 -5 -3.5 -8.5t-8.5 -3.5h-142q-5 0 -8.5 3.5t-3.5 8.5v309q0 28 -14 45t-37 17t-37 -17t-14 -45v-309q0 -5 -3.5 -8.5t-8.5 -3.5h-142q-5 0 -8.5 3.5t-3.5 8.5v493q0 5 3.5 8.5t8.5 3.5h142q5 0 8.5 -3.5t3.5 -8.5v-28
q0 -3 2.5 -3.5t4.5 3.5q36 48 102 48q75 0 117 -47.5z" />
    <glyph glyph-name="o" unicode="o" horiz-adv-x="505" 
d="M102 38.5q-58 46.5 -69 128.5q-6 39 -6 92q0 59 7 95q11 79 69 125t150 46t149.5 -46t68.5 -124q7 -38 7 -95q0 -48 -5 -91q-11 -83 -69 -130t-151 -47t-151 46.5zM289.5 149.5q14.5 15.5 19.5 41.5q3 32 3 68q0 26 -4 70q-4 25 -18.5 39.5t-36.5 14.5q-23 0 -37.5 -14.5
t-18.5 -39.5q-4 -29 -4 -70q0 -36 3 -68q5 -26 19.5 -41.5t37.5 -15.5q22 0 36.5 15.5z" />
    <glyph glyph-name="p" unicode="p" horiz-adv-x="515" 
d="M479 251q0 -57 -8 -100q-15 -76 -54.5 -117.5t-103.5 -41.5q-68 0 -102 38q-2 2 -4 1.5t-2 -3.5v-199q0 -5 -3.5 -8.5t-8.5 -3.5h-142q-5 0 -8.5 3.5t-3.5 8.5v676q0 5 3.5 8.5t8.5 3.5h142q5 0 8.5 -3.5t3.5 -8.5v-17q0 -3 2 -3.5t4 1.5q36 39 103 39q63 0 101.5 -43.5
t54.5 -121.5q9 -42 9 -109zM313 238q0 64 -4 92q-5 25 -17.5 39t-32.5 14t-32 -14t-17 -39q-5 -22 -5 -72q0 -45 5 -74q4 -23 16.5 -36.5t32.5 -13.5q18 0 31 13.5t18 36.5q5 17 5 54z" />
    <glyph glyph-name="q" unicode="q" horiz-adv-x="515" 
d="M313.5 513.5q3.5 3.5 8.5 3.5h142q5 0 8.5 -3.5t3.5 -8.5v-676q0 -5 -3.5 -8.5t-8.5 -3.5h-142q-5 0 -8.5 3.5t-3.5 8.5v199q0 3 -2 3.5t-4 -1.5q-34 -38 -102 -38q-64 0 -103.5 41.5t-54.5 117.5q-8 43 -8 100q0 67 9 109q16 78 54.5 121.5t101.5 43.5q67 0 103 -39
q2 -2 4 -1.5t2 3.5v17q0 5 3.5 8.5zM310 258q0 50 -5 72q-5 25 -17 39t-32 14t-32.5 -14t-17.5 -39q-4 -28 -4 -92q0 -33 5 -54q5 -23 18 -36.5t31 -13.5q20 0 32.5 13.5t16.5 36.5q5 29 5 74z" />
    <glyph glyph-name="r" unicode="r" horiz-adv-x="363" 
d="M348 512q8 -5 6 -15l-23 -140q-1 -11 -14 -8q-16 4 -30 4q-16 0 -28 -4q-24 -5 -41 -24.5t-17 -47.5v-265q0 -5 -3.5 -8.5t-8.5 -3.5h-142q-5 0 -8.5 3.5t-3.5 8.5v493q0 5 3.5 8.5t8.5 3.5h142q5 0 8.5 -3.5t3.5 -8.5v-33q0 -4 1.5 -4.5t3.5 2.5q32 54 93 54
q29 0 49 -12z" />
    <glyph glyph-name="s" unicode="s" horiz-adv-x="468" 
d="M125 12q-49 20 -75.5 55.5t-26.5 81.5v8q0 5 3.5 8.5t8.5 3.5h135q5 0 8.5 -3.5t3.5 -8.5v-1q0 -18 16 -29.5t40 -11.5q21 0 33.5 9t12.5 23q0 16 -16.5 24.5t-53.5 17.5q-39 9 -65 20q-52 20 -86 54t-34 95q0 77 56 122t148 45q94 0 150.5 -47.5t56.5 -125.5
q0 -11 -12 -11h-130q-5 0 -8.5 3.5t-3.5 8.5v4q0 17 -14 28t-36 11q-21 0 -34.5 -10t-13.5 -25q0 -19 18.5 -28t59.5 -20q24 -5 43 -12q65 -21 103.5 -54.5t38.5 -95.5q0 -75 -57.5 -117t-154.5 -42q-65 0 -114 20z" />
    <glyph glyph-name="t" unicode="t" horiz-adv-x="343" 
d="M319.5 396.5q-3.5 -3.5 -8.5 -3.5h-71q-5 0 -5 -5v-198q0 -26 10 -37.5t31 -10.5h22q5 0 8.5 -3.5t3.5 -8.5v-118q0 -12 -12 -12q-40 -2 -58 -2q-83 0 -123.5 26t-40.5 99v265q0 5 -5 5h-45q-5 0 -8.5 3.5t-3.5 8.5v100q0 5 3.5 8.5t8.5 3.5h45q5 0 5 5v116q0 5 3.5 8.5
t8.5 3.5h135q5 0 8.5 -3.5t3.5 -8.5v-116q0 -5 5 -5h71q5 0 8.5 -3.5t3.5 -8.5v-100q0 -5 -3.5 -8.5z" />
    <glyph glyph-name="u" unicode="u" horiz-adv-x="502" 
d="M303.5 513.5q3.5 3.5 8.5 3.5h142q5 0 8.5 -3.5t3.5 -8.5v-493q0 -5 -3.5 -8.5t-8.5 -3.5h-142q-5 0 -8.5 3.5t-3.5 8.5v24q0 3 -2 3.5t-4 -2.5q-34 -45 -106 -45q-68 0 -111.5 42.5t-43.5 124.5v346q0 5 3.5 8.5t8.5 3.5h142q5 0 8.5 -3.5t3.5 -8.5v-309q0 -29 13 -45
t37 -16q21 0 34.5 12.5t16.5 35.5v322q0 5 3.5 8.5z" />
    <glyph glyph-name="v" unicode="v" horiz-adv-x="496" 
d="M155 10l-138 495l-1 4q0 9 11 9h155q12 0 13 -11l50 -268q1 -3 3 -3t3 3l50 268q1 11 13 11l155 -2q13 0 10 -13l-137 -493q-3 -10 -14 -10h-159q-11 0 -14 10z" />
    <glyph glyph-name="w" unicode="w" horiz-adv-x="720" 
d="M142 10l-126 495v4q0 9 11 9h140q12 0 13 -11l47 -256q1 -3 3 -3t3 3l49 256q1 11 13 11h125q11 0 13 -11l52 -257q1 -3 3 -3t3 3l50 257q1 11 13 11l139 -2q14 0 11 -13l-127 -493q-3 -10 -14 -10h-142q-11 0 -13 11l-50 225q-1 4 -3 4t-3 -4l-44 -225q-1 -11 -13 -11
h-139q-11 0 -14 10z" />
    <glyph glyph-name="x" unicode="x" horiz-adv-x="511" 
d="M17 4q-2 4 1 10l136 242q2 3 0 6l-136 241q-2 4 -2 6q0 8 10 8h153q11 0 15 -9l56 -105q3 -4 6 1l55 104q5 9 15 9h159q7 0 9 -4t-1 -10l-136 -241q-1 -3 0 -6l136 -242q2 -4 2 -6q0 -8 -10 -8h-154q-9 0 -14 9l-56 107q-3 5 -6 0l-57 -107q-4 -9 -14 -9h-158q-7 0 -9 4z
" />
    <glyph glyph-name="y" unicode="y" horiz-adv-x="481" 
d="M37 -195.5q-2 3.5 -2 8.5v112q0 5 3 8.5t7 3.5q59 0 84 12t29 48l-1 6l-143 502l-1 4q0 9 11 9h152q12 0 13 -11l50 -280q1 -3 3 -3t3 3l49 280q1 11 13 11l151 -1q6 0 8.5 -3.5t1.5 -9.5l-149 -514q-23 -75 -49 -113.5t-77 -57t-145 -18.5h-6q-3 0 -5 3.5z" />
    <glyph glyph-name="z" unicode="z" horiz-adv-x="421" 
d="M20.5 3.5q-3.5 3.5 -3.5 8.5v130q0 9 5 14l172 205q4 6 -3 6h-156q-5 0 -8.5 3.5t-3.5 8.5v126q0 5 3.5 8.5t8.5 3.5h349q5 0 8.5 -3.5t3.5 -8.5v-130q0 -8 -6 -14l-179 -205q-4 -6 3 -6h177q5 0 8.5 -3.5t3.5 -8.5v-126q0 -5 -3.5 -8.5t-8.5 -3.5h-362q-5 0 -8.5 3.5z
" />
    <glyph glyph-name="braceleft" unicode="{" horiz-adv-x="386" 
d="M142 -122.5q-36 33.5 -36 93.5v203q0 83 -62 89q-12 2 -12 13v106q0 12 12 13q62 6 62 88v200q0 60 36 93.5t101 33.5h99q5 0 8.5 -3.5t3.5 -8.5v-119q0 -5 -3.5 -8.5t-8.5 -3.5h-20q-21 0 -35.5 -16.5t-14.5 -42.5v-149q0 -97 -59 -127q-6 -3 0 -6q59 -29 59 -127v-153
q0 -26 14.5 -42.5t35.5 -16.5h20q5 0 8.5 -3.5t3.5 -8.5v-119q0 -5 -3.5 -8.5t-8.5 -3.5h-99q-65 0 -101 33.5z" />
    <glyph glyph-name="bar" unicode="|" horiz-adv-x="209" 
d="M24.5 -76.5q-3.5 3.5 -3.5 8.5v816q0 5 3.5 8.5t8.5 3.5h142q5 0 8.5 -3.5t3.5 -8.5v-816q0 -5 -3.5 -8.5t-8.5 -3.5h-142q-5 0 -8.5 3.5z" />
    <glyph glyph-name="braceright" unicode="}" horiz-adv-x="386" 
d="M44 -156q-5 0 -8.5 3.5t-3.5 8.5v119q0 5 3.5 8.5t8.5 3.5h20q21 0 35.5 16.5t14.5 42.5v153q0 98 59 127q6 3 0 6q-59 30 -59 127v149q0 26 -14.5 42.5t-35.5 16.5h-20q-5 0 -8.5 3.5t-3.5 8.5v119q0 5 3.5 8.5t8.5 3.5h99q65 0 101 -33.5t36 -93.5v-200q0 -42 15 -63.5
t47 -24.5q12 -1 12 -13v-106q0 -11 -12 -13q-32 -3 -47 -25t-15 -64v-203q0 -60 -36 -93.5t-101 -33.5h-99z" />
    <glyph glyph-name="asciitilde" unicode="~" horiz-adv-x="523" 
d="M304.5 197.5q-18.5 6.5 -38.5 18.5q-6 3 -21.5 12t-29.5 14t-27 5q-36 0 -61 -35q-8 -10 -17 -4l-78 51q-9 6 -6 16q17 49 59.5 82t92.5 33q38 0 80 -25q5 -3 21 -12.5t29 -14.5t25 -5q30 0 54 35q7 10 16 4l88 -55q9 -6 5 -16q-21 -47 -62.5 -78.5t-88.5 -31.5
q-22 0 -40.5 6.5z" />
    <glyph glyph-name="uni00A0" unicode="&#xa0;" horiz-adv-x="200" 
 />
    <glyph glyph-name="exclamdown" unicode="&#xa1;" horiz-adv-x="321" 
d="M219.5 683.5q24.5 -24.5 24.5 -62.5t-24.5 -62.5t-62.5 -24.5t-62 24.5t-24 62.5t24.5 62.5t61.5 24.5q38 0 62.5 -24.5zM97.5 460.5q3.5 3.5 8.5 3.5h108q5 0 8.5 -3.5t3.5 -8.5l17 -431q0 -12 -12 -12h-142q-12 0 -12 12l17 431q0 5 3.5 8.5z" />
    <glyph glyph-name="cent" unicode="&#xa2;" horiz-adv-x="494" 
d="M306 284q2 13 13 11l141 -12q12 -2 11 -13q0 -9 -2 -23q-9 -61 -47.5 -102t-99.5 -55q-4 -1 -4 -6l3 -75q0 -5 -3.5 -8.5t-8.5 -3.5h-118q-11 0 -11 12l3 76q0 5 -4 6q-59 16 -96 55.5t-47 99.5q-9 45 -9 104q0 57 9 104q10 57 47 96t94 55q4 1 4 5l-3 76q0 5 3.5 8.5
t8.5 3.5h118q11 0 11 -12l-3 -73q0 -5 4 -6q59 -14 98 -52.5t50 -94.5q2 -10 4 -32v-2q0 -9 -11 -11l-141 -14h-3q-7 0 -9 8v6l-3 16q-5 19 -18.5 30.5t-34.5 11.5q-42 0 -53 -47q-5 -25 -5 -76q0 -56 6 -81q5 -21 18 -33t34 -12q23 0 36 12.5t16 32.5q2 10 2 15z" />
    <glyph glyph-name="sterling" unicode="&#xa3;" horiz-adv-x="568" 
d="M254 148q-2 -2 -1 -4t4 -2h277q5 0 8.5 -3.5t3.5 -8.5v-118q0 -5 -3.5 -8.5t-8.5 -3.5h-446q-5 0 -8.5 3.5t-3.5 8.5v121q0 8 7 15q19 16 26 36t7 50v41q0 5 -5 5h-57q-5 0 -8.5 3.5t-3.5 8.5v109q0 5 3.5 8.5t8.5 3.5h57q5 0 5 5v64q0 107 58.5 166.5t158.5 59.5
q83 0 136.5 -45.5t74.5 -126.5l1 -4q0 -8 -11 -10l-135 -18h-3q-8 0 -11 9q-14 53 -52 53q-51 -2 -51 -78v-70q0 -5 5 -5h153q5 0 8.5 -3.5t3.5 -8.5v-109q0 -5 -3.5 -8.5t-8.5 -3.5h-153q-5 0 -5 -5v-41q0 -53 -28 -86z" />
    <glyph glyph-name="currency" unicode="&#xa4;" horiz-adv-x="590" 
d="M497 205q-1 -4 1 -7l67 -67q4 -4 4 -9q0 -4 -4 -8l-88 -77q-4 -4 -9 -4q-4 0 -8 4l-62 61q-3 3 -7 1q-47 -22 -99 -22q-50 0 -95 20q-5 1 -7 -1l-60 -59q-4 -4 -8 -4q-5 0 -9 4l-88 77q-4 4 -4 8q0 5 4 9l63 62q3 3 1 7q-26 47 -26 104q0 53 23 99q2 5 -1 7l-66 66
q-4 4 -4 9q0 4 4 8l88 77q4 4 9 4t8 -4l61 -61q3 -3 7 -1q46 23 100 23q55 0 103 -25q5 -1 7 1l64 63q4 4 8 4q5 0 9 -4l88 -77q4 -4 4 -8q0 -5 -4 -9l-71 -70q-2 -2 -1 -7q21 -43 21 -95q0 -53 -23 -99zM230 243q26 -26 62 -26q35 0 60.5 25.5t26.5 61.5q-1 36 -26.5 61.5
t-60.5 25.5q-36 0 -62 -25.5t-26 -61.5q0 -35 26 -61z" />
    <glyph glyph-name="yen" unicode="&#xa5;" horiz-adv-x="609" 
d="M564 696q2 -4 0 -10l-143 -347q-1 -2 0.5 -4t3.5 -2h84q5 0 8.5 -3.5t3.5 -8.5v-66q0 -5 -3.5 -8.5t-8.5 -3.5h-116q-5 0 -5 -5v-34q0 -5 5 -5h116q5 0 8.5 -3.5t3.5 -8.5v-66q0 -5 -3.5 -8.5t-8.5 -3.5h-116q-5 0 -5 -5v-90q0 -5 -3.5 -8.5t-8.5 -3.5h-141
q-5 0 -8.5 3.5t-3.5 8.5v90q0 5 -5 5h-117q-5 0 -8.5 3.5t-3.5 8.5v66q0 5 3.5 8.5t8.5 3.5h117q5 0 5 5v34q0 5 -5 5h-117q-5 0 -8.5 3.5t-3.5 8.5v66q0 5 3.5 8.5t8.5 3.5h85q2 0 3.5 2t0.5 4l-141 347q-1 2 -1 6q0 8 10 8h152q10 0 13 -10l80 -237q1 -3 3 -3t3 3l80 237
q3 10 13 10h153q7 0 9 -4z" />
    <glyph glyph-name="brokenbar" unicode="&#xa6;" horiz-adv-x="209" 
d="M24.5 397.5q-3.5 3.5 -3.5 8.5v342q0 5 3.5 8.5t8.5 3.5h142q5 0 8.5 -3.5t3.5 -8.5v-342q0 -5 -3.5 -8.5t-8.5 -3.5h-142q-5 0 -8.5 3.5zM24.5 -76.5q-3.5 3.5 -3.5 8.5v341q0 5 3.5 8.5t8.5 3.5h142q5 0 8.5 -3.5t3.5 -8.5v-341q0 -5 -3.5 -8.5t-8.5 -3.5h-142
q-5 0 -8.5 3.5z" />
    <glyph glyph-name="section" unicode="&#xa7;" horiz-adv-x="482" 
d="M89 -159q-55 46 -57 123l-1 30q0 12 11 12h142q5 0 8.5 -3.5t3.5 -8.5v-10q0 -21 13 -34t34 -13q19 0 32 12t13 30q0 16 -14 29.5t-33.5 24t-68.5 33.5q-48 23 -77.5 45.5t-45.5 52.5q-20 35 -20 80q0 55 29 95q20 26 53 44q3 1 3 3t-2 4q-40 28 -62 62.5t-22 80.5
q0 49 27 89t75.5 63t110.5 23q61 0 108.5 -22t74.5 -62.5t27 -93.5v-19q0 -5 -3.5 -8.5t-8.5 -3.5h-142q-5 0 -8.5 3.5t-3.5 8.5v6q0 21 -13 35t-33 14q-19 0 -32 -12.5t-13 -31.5q0 -27 22 -43t73 -37q49 -22 79.5 -39t51.5 -41q36 -39 36 -98q0 -48 -24 -90
q-23 -41 -60 -58q-3 -1 -3 -2.5t2 -3.5q43 -30 63 -62.5t20 -79.5q0 -79 -61 -126t-155 -47t-149 46zM282 220q8 13 8 32q0 20 -10 33q-14 17 -38 17q-12 0 -22.5 -5t-15.5 -14q-9 -13 -9 -32q0 -18 9 -32q12 -17 39 -17t39 18z" />
    <glyph glyph-name="dieresis" unicode="&#xa8;" horiz-adv-x="402" 
d="M240.5 591.5q-24.5 24.5 -24.5 62.5q0 39 24.5 63t62.5 24t62 -24t24 -63q0 -38 -24.5 -62.5t-61.5 -24.5q-38 0 -62.5 24.5zM37.5 591.5q-24.5 24.5 -24.5 62.5q0 39 24.5 63t62.5 24t62 -24t24 -63q0 -38 -24.5 -62.5t-61.5 -24.5q-38 0 -62.5 24.5z" />
    <glyph glyph-name="copyright" unicode="&#xa9;" horiz-adv-x="787" 
d="M208 39q-82 47 -129 129.5t-47 186.5q0 99 47 180t129.5 127t184.5 46t185 -46t130 -127t47 -180q0 -104 -47 -186.5t-129.5 -129.5t-185.5 -47t-185 47zM526.5 126q59.5 34 93 93.5t33.5 134.5q0 72 -33.5 130t-93 91t-133.5 33t-133 -33t-92.5 -91t-33.5 -130
q0 -75 33.5 -134.5t92.5 -93.5t133 -34t133.5 34zM310.5 208q-31.5 30 -31.5 79v128q0 50 31.5 79t84.5 29t85 -28.5t32 -76.5q0 -4 -3.5 -6.5t-8.5 -2.5l-62 -3q-12 0 -12 12v2q0 14 -8.5 22.5t-22.5 8.5q-13 0 -21.5 -8.5t-8.5 -22.5v-139q0 -14 8 -22.5t22 -8.5t22.5 8.5
t8.5 22.5v2q0 5 3.5 8.5t8.5 3.5l62 -3q12 0 12 -8q0 -48 -32 -77t-85 -29t-84.5 30z" />
    <glyph glyph-name="ordfeminine" unicode="&#xaa;" horiz-adv-x="315" 
d="M189 567q5 0 5 5v11q0 19 -11 30.5t-30 11.5q-26 0 -37 -18l-2 -6q-3 -7 -12 -7l-73 4q-5 0 -8.5 3.5t-2.5 9.5q4 42 41 69.5t92 27.5q61 0 100.5 -31.5t39.5 -80.5v-222q0 -5 -3.5 -8.5t-8.5 -3.5h-73q-5 0 -8.5 3t-3.5 7v2q0 3 -2 3.5t-4 -1.5q-23 -19 -64 -19
q-49 0 -82 24.5t-33 78.5q0 56 37.5 81.5t102.5 25.5h40zM179.5 446q14.5 12 14.5 29v14q0 5 -5 5h-33q-49 0 -49 -32q0 -28 36 -28q22 0 36.5 12zM12.5 308.5q3.5 3.5 8.5 3.5h266q5 0 8.5 -3.5t3.5 -8.5v-51q0 -5 -3.5 -8.5t-8.5 -3.5h-266q-5 0 -8.5 3.5t-3.5 8.5v51
q0 5 3.5 8.5z" />
    <glyph glyph-name="guillemotleft" unicode="&#xab;" horiz-adv-x="476" 
d="M261 115q0 -8 -10 -8h-114q-9 0 -14 9l-80 157q-2 6 -2 8q0 4 2 8l80 157q5 9 14 9h114q7 0 9 -4t-1 -10l-82 -157q-1 -3 0 -6l82 -157q2 -4 2 -6zM432 115q0 -8 -10 -8h-114q-9 0 -14 9l-80 157q-2 6 -2 8q0 4 2 8l80 157q5 9 14 9h114q7 0 9 -4t-1 -10l-82 -157
q-1 -3 0 -6l82 -157q2 -4 2 -6z" />
    <glyph glyph-name="logicalnot" unicode="&#xac;" horiz-adv-x="459" 
d="M26.5 364.5q3.5 3.5 8.5 3.5h389q5 0 8.5 -3.5t3.5 -8.5v-207q0 -5 -3.5 -8.5t-8.5 -3.5h-109q-5 0 -8.5 3.5t-3.5 8.5v81q0 5 -5 5h-263q-5 0 -8.5 3.5t-3.5 8.5v109q0 5 3.5 8.5z" />
    <glyph glyph-name="uni00AD" unicode="&#xad;" horiz-adv-x="376" 
d="M26.5 222.5q-3.5 3.5 -3.5 8.5v118q0 5 3.5 8.5t8.5 3.5h306q5 0 8.5 -3.5t3.5 -8.5v-118q0 -5 -3.5 -8.5t-8.5 -3.5h-306q-5 0 -8.5 3.5z" />
    <glyph glyph-name="registered" unicode="&#xae;" horiz-adv-x="438" 
d="M324 683q47 -26 74 -71.5t27 -101.5q0 -60 -27 -107.5t-74 -74.5t-105 -27t-105 27t-74 74.5t-27 107.5q0 56 27 101.5t74 71.5t105 26t105 -26zM318.5 407q39.5 40 39.5 103q0 56 -40 94.5t-99 38.5t-98.5 -38.5t-39.5 -94.5q0 -63 39 -103t99 -40t99.5 40zM269 493
q-2 -1 -3 -2.5t0 -3.5l20 -59q1 -2 1 -5q0 -9 -10 -9h-31q-10 0 -13 10l-17 55q-2 4 -4 4q-4 0 -4 -5v-52q0 -5 -3.5 -8.5t-8.5 -3.5h-28q-5 0 -8.5 3.5t-3.5 8.5v163q0 5 3.5 8.5t8.5 3.5h63q27 0 44 -17t17 -44q0 -32 -23 -47zM208 552v-26q0 -5 5 -5h10q8 0 12.5 5.5
t4.5 12.5q0 18 -17 18h-10q-5 0 -5 -5z" />
    <glyph glyph-name="macron" unicode="&#xaf;" horiz-adv-x="291" 
d="M16.5 577.5q-3.5 3.5 -3.5 8.5v87q0 5 3.5 8.5t8.5 3.5h241q5 0 8.5 -3.5t3.5 -8.5v-87q0 -5 -3.5 -8.5t-8.5 -3.5h-241q-5 0 -8.5 3.5z" />
    <glyph glyph-name="degree" unicode="&#xb0;" horiz-adv-x="367" 
d="M97 488q-39 23 -61.5 62.5t-22.5 87.5q0 47 22.5 86t61.5 61.5t86 22.5t86.5 -22.5t62 -61.5t22.5 -86q0 -48 -22.5 -87.5t-62 -62.5t-86.5 -23t-86 23zM229.5 590q18.5 19 18.5 48t-18.5 48t-46.5 19q-27 0 -46 -19.5t-19 -47.5t19 -47.5t46 -19.5q28 0 46.5 19z" />
    <glyph glyph-name="plusminus" unicode="&#xb1;" horiz-adv-x="459" 
d="M432.5 469.5q3.5 -3.5 3.5 -8.5v-109q0 -5 -3.5 -8.5t-8.5 -3.5h-123q-5 0 -5 -5v-123q0 -5 -3.5 -8.5t-8.5 -3.5h-109q-5 0 -8.5 3.5t-3.5 8.5v123q0 5 -5 5h-123q-5 0 -8.5 3.5t-3.5 8.5v109q0 5 3.5 8.5t8.5 3.5h123q5 0 5 5v123q0 5 3.5 8.5t8.5 3.5h109
q5 0 8.5 -3.5t3.5 -8.5v-123q0 -5 5 -5h123q5 0 8.5 -3.5zM26.5 6.5q-3.5 3.5 -3.5 8.5v109q0 5 3.5 8.5t8.5 3.5h389q5 0 8.5 -3.5t3.5 -8.5v-109q0 -5 -3.5 -8.5t-8.5 -3.5h-389q-5 0 -8.5 3.5z" />
    <glyph glyph-name="uni00B2" unicode="&#xb2;" horiz-adv-x="311" 
d="M24.5 410.5q-3.5 3.5 -3.5 8.5v69q0 9 6 15q85 89 118 128q42 49 42 77q0 16 -8.5 25t-22.5 9t-23 -9t-9 -24v-15q0 -5 -3.5 -8.5t-8.5 -3.5h-82q-5 0 -8.5 3.5t-3.5 8.5v26q4 52 42 82t97 30q62 0 99 -33.5t37 -92.5q0 -28 -9 -51.5t-28 -50.5q-11 -14 -29.5 -35.5
t-28.5 -33.5l-29 -32q-2 -2 -1.5 -4t3.5 -2h115q5 0 8.5 -3.5t3.5 -8.5v-66q0 -5 -3.5 -8.5t-8.5 -3.5h-253q-5 0 -8.5 3.5z" />
    <glyph glyph-name="uni00B3" unicode="&#xb3;" horiz-adv-x="307" 
d="M293 544q0 -29 -5 -47q-11 -45 -44 -70.5t-85 -25.5q-51 0 -86.5 26.5t-44.5 69.5q-4 16 -6 37q0 12 12 12h81q12 0 13 -12q0 -10 3 -18q9 -25 28 -25t27 21q5 14 5 39q0 28 -6 43q-8 18 -26 18q-12 0 -24 -9q-3 -2 -7 -2q-6 0 -10 4l-39 45q-4 6 -4 8q0 4 5 9l76 63
q2 2 1 4t-4 2h-109q-5 0 -8.5 3.5t-3.5 8.5v66q0 5 3.5 8.5t8.5 3.5h233q5 0 8.5 -3.5t3.5 -8.5v-69q0 -9 -6 -15l-56 -52q-2 -2 -2 -4t3 -3q20 -8 34.5 -26t22.5 -43q8 -27 8 -58z" />
    <glyph glyph-name="acute" unicode="&#xb4;" horiz-adv-x="240" 
d="M20 582q-2 4 1 10l56 100q5 8 15 8h117q10 0 10 -7q0 -3 -3 -8l-76 -100q-6 -7 -14 -7h-97q-7 0 -9 4z" />
    <glyph glyph-name="uni00B5" unicode="&#xb5;" horiz-adv-x="505" 
d="M306.5 513.5q3.5 3.5 8.5 3.5h142q5 0 8.5 -3.5t3.5 -8.5v-493q0 -5 -3.5 -8.5t-8.5 -3.5h-142q-5 0 -8.5 3.5t-3.5 8.5v24q0 3 -2 3.5t-4 -2.5q-29 -40 -90 -45q-5 0 -5 -5v-175q0 -5 -3.5 -8.5t-8.5 -3.5h-142q-5 0 -8.5 3.5t-3.5 8.5v693q0 5 3.5 8.5t8.5 3.5h142
q5 0 8.5 -3.5t3.5 -8.5v-309q0 -29 13 -45t37 -16q21 0 34.5 12.5t16.5 35.5v322q0 5 3.5 8.5z" />
    <glyph glyph-name="paragraph" unicode="&#xb6;" horiz-adv-x="586" 
d="M536 700q5 0 8.5 -3.5t3.5 -8.5v-876q0 -5 -3.5 -8.5t-8.5 -3.5h-105q-5 0 -8.5 3.5t-3.5 8.5v758q0 5 -5 5h-62q-5 0 -5 -5v-758q0 -5 -3.5 -8.5t-8.5 -3.5h-105q-5 0 -8.5 3.5t-3.5 8.5v435q0 4 -5 6q-88 11 -141 70.5t-53 151.5q0 66 27.5 117t79.5 79.5t123 28.5h287
z" />
    <glyph glyph-name="periodcentered" unicode="&#xb7;" horiz-adv-x="240" 
d="M57.5 232.5q-24.5 24.5 -24.5 62.5q0 39 24.5 63t62.5 24t62 -24t24 -63q0 -38 -24.5 -62.5t-61.5 -24.5q-38 0 -62.5 24.5z" />
    <glyph glyph-name="cedilla" unicode="&#xb8;" horiz-adv-x="171" 
d="M4 -170l8 60q1 6 4.5 8t10.5 0q8 -2 11 -2q20 0 26 20q4 14 -7 32t-34 37q-6 4 -6 9q0 6 10 6h79q8 0 12 -4q3 -1 4 -4q49 -46 49 -97q0 -13 -3 -25q-9 -35 -35 -49.5t-60 -14.5q-30 0 -60 10q-11 3 -9 14z" />
    <glyph glyph-name="uni00B9" unicode="&#xb9;" horiz-adv-x="179" 
d="M62 827h85q5 0 8.5 -3.5t3.5 -8.5v-396q0 -5 -3.5 -8.5t-8.5 -3.5h-81q-5 0 -8.5 3.5t-3.5 8.5v312q0 5 -5 5l-20 -1q-5 0 -8.5 3.5t-3.5 8.5v53q0 10 9 14l21 10q6 3 15 3z" />
    <glyph glyph-name="ordmasculine" unicode="&#xba;" horiz-adv-x="328" 
d="M70.5 385.5q-36.5 27.5 -46.5 78.5q-6 30 -6 69q0 42 6 70q9 49 46 77t94 28q55 0 91.5 -28t45.5 -77q8 -32 8 -69q0 -38 -8 -70q-10 -50 -46 -78t-91 -28q-57 0 -93.5 27.5zM185 456.5q9 8.5 13 23.5q5 21 5 53q0 31 -4 52q-4 16 -13.5 24.5t-22.5 8.5t-22 -8.5
t-14 -24.5q-4 -20 -4 -52q0 -30 4 -53q4 -15 13.5 -23.5t23.5 -8.5q12 0 21 8.5zM22.5 240.5q-3.5 3.5 -3.5 8.5v52q0 5 3.5 8.5t8.5 3.5h269q5 0 8.5 -3.5t3.5 -8.5v-52q0 -5 -3.5 -8.5t-8.5 -3.5h-269q-5 0 -8.5 3.5z" />
    <glyph glyph-name="guillemotright" unicode="&#xbb;" horiz-adv-x="476" 
d="M48.5 111q-2.5 4 0.5 10l82 157q1 3 0 6l-82 157q-2 4 -2 6q0 8 11 8h114q10 0 14 -9l80 -157q2 -2 2 -8q0 -5 -2 -8l-80 -157q-4 -9 -14 -9h-114q-7 0 -9.5 4zM219.5 111q-2.5 4 0.5 10l82 157q1 3 0 6l-82 157q-2 4 -2 6q0 8 11 8h114q10 0 14 -9l80 -157q2 -2 2 -8
q0 -5 -2 -8l-80 -157q-4 -9 -14 -9h-114q-7 0 -9.5 4z" />
    <glyph glyph-name="onequarter" unicode="&#xbc;" horiz-adv-x="784" 
d="M62 700h85q5 0 8.5 -3.5t3.5 -8.5v-396q0 -5 -3.5 -8.5t-8.5 -3.5h-81q-5 0 -8.5 3.5t-3.5 8.5v312q0 5 -5 5l-20 -1q-5 0 -8.5 3.5t-3.5 8.5v53q0 10 9 14l21 10q6 3 15 3zM82 4q-3 4 1 10l393 678q4 8 15 8h91q7 0 10 -4t-1 -10l-393 -678q-4 -8 -15 -8h-91q-7 0 -10 4
zM764.5 193.5q3.5 -3.5 3.5 -8.5v-71q0 -5 -3.5 -8.5t-8.5 -3.5h-15q-5 0 -5 -5v-85q0 -5 -3.5 -8.5t-8.5 -3.5h-82q-5 0 -8.5 3.5t-3.5 8.5v85q0 5 -5 5h-164q-5 0 -8.5 3.5t-3.5 8.5v56q0 6 3 15l86 226q3 9 14 9h85q6 0 9 -3.5t1 -10.5l-74 -203q-1 -6 4 -6h48q5 0 5 5
v50q0 5 3.5 8.5t8.5 3.5h82q5 0 8.5 -3.5t3.5 -8.5v-50q0 -5 5 -5h15q5 0 8.5 -3.5z" />
    <glyph glyph-name="onehalf" unicode="&#xbd;" horiz-adv-x="752" 
d="M62 700h85q5 0 8.5 -3.5t3.5 -8.5v-396q0 -5 -3.5 -8.5t-8.5 -3.5h-81q-5 0 -8.5 3.5t-3.5 8.5v312q0 5 -5 5l-20 -1q-5 0 -8.5 3.5t-3.5 8.5v53q0 10 9 14l21 10q6 3 15 3zM82 4q-3 4 1 10l393 678q4 8 15 8h91q7 0 10 -4t-1 -10l-393 -678q-4 -8 -15 -8h-91q-7 0 -10 4
zM464.5 3.5q-3.5 3.5 -3.5 8.5v69q0 9 6 15q85 89 118 128q42 49 42 77q0 16 -8.5 25t-22.5 9t-23 -9t-9 -24v-15q0 -5 -3.5 -8.5t-8.5 -3.5h-82q-5 0 -8.5 3.5t-3.5 8.5v26q4 52 42 82t97 30q62 0 99 -33.5t37 -92.5q0 -28 -9 -51.5t-28 -50.5q-11 -14 -29.5 -35.5
t-28.5 -33.5l-29 -32q-2 -2 -1.5 -4t3.5 -2h115q5 0 8.5 -3.5t3.5 -8.5v-66q0 -5 -3.5 -8.5t-8.5 -3.5h-253q-5 0 -8.5 3.5z" />
    <glyph glyph-name="threequarters" unicode="&#xbe;" horiz-adv-x="868" 
d="M293 419q0 -29 -5 -47q-11 -45 -44 -70.5t-85 -25.5q-51 0 -86.5 26.5t-44.5 69.5q-4 16 -6 37q0 12 12 12h81q12 0 13 -12q0 -10 3 -18q9 -25 28 -25t27 21q5 14 5 39q0 28 -6 43q-8 18 -26 18q-12 0 -24 -9q-3 -2 -7 -2q-6 0 -10 4l-39 45q-4 6 -4 8q0 4 5 9l76 63
q2 2 1 4t-4 2h-109q-5 0 -8.5 3.5t-3.5 8.5v66q0 5 3.5 8.5t8.5 3.5h233q5 0 8.5 -3.5t3.5 -8.5v-69q0 -9 -6 -15l-56 -52q-2 -2 -2 -4t3 -3q20 -8 34.5 -26t22.5 -43q8 -27 8 -58zM166 4q-3 4 1 10l393 678q4 8 15 8h91q7 0 10 -4t-1 -10l-393 -678q-4 -8 -15 -8h-91
q-7 0 -10 4zM848.5 193.5q3.5 -3.5 3.5 -8.5v-71q0 -5 -3.5 -8.5t-8.5 -3.5h-15q-5 0 -5 -5v-85q0 -5 -3.5 -8.5t-8.5 -3.5h-82q-5 0 -8.5 3.5t-3.5 8.5v85q0 5 -5 5h-164q-5 0 -8.5 3.5t-3.5 8.5v56q0 6 3 15l86 226q3 9 14 9h85q6 0 9 -3.5t1 -10.5l-74 -203q-1 -6 4 -6
h48q5 0 5 5v50q0 5 3.5 8.5t8.5 3.5h82q5 0 8.5 -3.5t3.5 -8.5v-50q0 -5 5 -5h15q5 0 8.5 -3.5z" />
    <glyph glyph-name="questiondown" unicode="&#xbf;" horiz-adv-x="502" 
d="M331.5 479.5q24.5 -24.5 24.5 -62.5q0 -39 -24.5 -63t-62.5 -24t-62 24t-24 63q0 37 24.5 62t61.5 25q38 0 62.5 -24.5zM345.5 267.5q3.5 -3.5 3.5 -8.5v-24q0 -38 -13.5 -65.5t-32.5 -45t-50 -40.5q-34 -24 -50 -42t-16 -43q0 -27 17 -42.5t45 -15.5q32 0 50.5 17.5
t18.5 45.5v11q0 11 12 11l142 -6q5 0 8.5 -4t3.5 -9v-3q0 -63 -30 -111.5t-84.5 -75.5t-124.5 -27q-68 0 -119 25t-79 70.5t-28 105.5q0 45 14.5 76.5t35 51.5t52.5 43q32 22 47.5 40t15.5 43v14q0 5 3.5 8.5t8.5 3.5h141q5 0 8.5 -3.5z" />
    <glyph glyph-name="Agrave" unicode="&#xc0;" horiz-adv-x="601" 
d="M409 11l-20 88q-1 4 -5 4h-169q-4 0 -5 -4l-20 -88q-2 -11 -13 -11h-147q-13 0 -10 13l179 677q3 10 14 10h175q11 0 14 -10l179 -677l1 -4q0 -9 -11 -9h-149q-11 0 -13 11zM245 231h107q2 0 4 1.5t1 4.5l-56 248q-1 4 -3 4t-3 -4l-55 -249q-1 -5 5 -5zM358 769
q0 -8 -10 -8h-97q-8 0 -14 7l-76 100q-3 5 -3 8q0 7 10 7h117q10 0 15 -8l56 -100q2 -4 2 -6z" />
    <glyph glyph-name="Aacute" unicode="&#xc1;" horiz-adv-x="601" 
d="M409 11l-20 88q-1 4 -5 4h-169q-4 0 -5 -4l-20 -88q-2 -11 -13 -11h-147q-13 0 -10 13l179 677q3 10 14 10h175q11 0 14 -10l179 -677l1 -4q0 -9 -11 -9h-149q-11 0 -13 11zM245 231h107q2 0 4 1.5t1 4.5l-56 248q-1 4 -3 4t-3 -4l-55 -249q-1 -5 5 -5zM227 765
q-2 4 1 10l56 100q5 8 15 8h117q10 0 10 -7q0 -3 -3 -8l-76 -100q-6 -7 -14 -7h-97q-7 0 -9 4z" />
    <glyph glyph-name="Acircumflex" unicode="&#xc2;" horiz-adv-x="601" 
d="M409 11l-20 88q-1 4 -5 4h-169q-4 0 -5 -4l-20 -88q-2 -11 -13 -11h-147q-13 0 -10 13l179 677q3 10 14 10h175q11 0 14 -10l179 -677l1 -4q0 -9 -11 -9h-149q-11 0 -13 11zM245 231h107q2 0 4 1.5t1 4.5l-56 248q-1 4 -3 4t-3 -4l-55 -249q-1 -5 5 -5zM135.5 758.5
q-2.5 3.5 1.5 10.5l68 106q5 8 14 8h157q9 0 14 -8l70 -105q2 -3 2 -7q0 -8 -9 -8h-107q-10 0 -15 8l-29 53q-3 5 -6 0l-29 -53q-5 -8 -15 -8h-107q-7 0 -9.5 3.5z" />
    <glyph glyph-name="Atilde" unicode="&#xc3;" horiz-adv-x="601" 
d="M409 11l-20 88q-1 4 -5 4h-169q-4 0 -5 -4l-20 -88q-2 -11 -13 -11h-147q-13 0 -10 13l179 677q3 10 14 10h175q11 0 14 -10l179 -677l1 -4q0 -9 -11 -9h-149q-11 0 -13 11zM245 231h107q2 0 4 1.5t1 4.5l-56 248q-1 4 -3 4t-3 -4l-55 -249q-1 -5 5 -5zM336 757
q-13 4 -32 13q-4 2 -14.5 7t-17 7t-13.5 2q-26 0 -44 -20q-5 -6 -9 -6t-8 4l-49 44q-8 7 -4 17q14 34 41 52.5t61 18.5q19 0 35 -5.5t37 -17.5q5 -3 14 -7.5t16 -7t15 -2.5q27 0 41 21q5 7 10 7q3 0 7 -4l47 -46q7 -7 3 -17q-15 -31 -43 -47.5t-63 -16.5q-17 0 -30 4z" />
    <glyph glyph-name="Adieresis" unicode="&#xc4;" horiz-adv-x="601" 
d="M409 11l-20 88q-1 4 -5 4h-169q-4 0 -5 -4l-20 -88q-2 -11 -13 -11h-147q-13 0 -10 13l179 677q3 10 14 10h175q11 0 14 -10l179 -677l1 -4q0 -9 -11 -9h-149q-11 0 -13 11zM245 231h107q2 0 4 1.5t1 4.5l-56 248q-1 4 -3 4t-3 -4l-55 -249q-1 -5 5 -5zM339.5 774.5
q-24.5 24.5 -24.5 62.5q0 39 24.5 63t62.5 24t62 -24t24 -63q0 -38 -24.5 -62.5t-61.5 -24.5q-38 0 -62.5 24.5zM136.5 774.5q-24.5 24.5 -24.5 62.5q0 39 24.5 63t62.5 24t62 -24t24 -63q0 -38 -24.5 -62.5t-61.5 -24.5q-38 0 -62.5 24.5z" />
    <glyph glyph-name="Aring" unicode="&#xc5;" horiz-adv-x="601" 
d="M409 11l-20 88q-1 4 -5 4h-169q-4 0 -5 -4l-20 -88q-2 -11 -13 -11h-147q-13 0 -10 13l179 677q3 10 14 10h175q11 0 14 -10l179 -677l1 -4q0 -9 -11 -9h-149q-11 0 -13 11zM245 231h107q2 0 4 1.5t1 4.5l-56 248q-1 4 -3 4t-3 -4l-55 -249q-1 -5 5 -5zM207 777.5
q-37 37.5 -37 92.5t37.5 92t92.5 37t92.5 -37t37.5 -92t-37.5 -92.5t-92.5 -37.5q-56 0 -93 37.5zM332 838q13 13 13 32t-13 32.5t-32 13.5q-18 0 -31.5 -13.5t-13.5 -32.5t13.5 -32t31.5 -13q19 0 32 13z" />
    <glyph glyph-name="AE" unicode="&#xc6;" horiz-adv-x="875" 
d="M844.5 561.5q-3.5 -3.5 -8.5 -3.5h-256q-5 0 -5 -5v-125q0 -5 5 -5h154q5 0 8.5 -3.5t3.5 -8.5v-118q0 -5 -3.5 -8.5t-8.5 -3.5h-154q-5 0 -5 -5v-129q0 -5 5 -5h256q5 0 8.5 -3.5t3.5 -8.5v-118q0 -5 -3.5 -8.5t-8.5 -3.5h-415q-5 0 -8.5 3.5t-3.5 8.5v86q0 5 -5 5h-161
q-4 0 -6 -4l-38 -90q-4 -9 -14 -9h-154q-7 0 -9.5 3.5t0.5 10.5l307 677q4 9 14 9h493q5 0 8.5 -3.5t3.5 -8.5v-118q0 -5 -3.5 -8.5zM295.5 233q1.5 -2 3.5 -2h105q5 0 5 5v251q0 4 -2 4t-4 -3l-108 -251q-1 -2 0.5 -4z" />
    <glyph glyph-name="Ccedilla" unicode="&#xc7;" horiz-adv-x="539" 
d="M506.5 473.5q-3.5 -2.5 -8.5 -2.5l-142 -6q-12 0 -12 11v14q0 34 -20 55t-53 21t-53 -21t-20 -55v-280q0 -34 20 -55t53 -21t53 21t20 55v14q0 11 12 11l142 -6q5 0 8.5 -4t3.5 -9v-2q0 -87 -50 -145.5t-136 -72.5q-6 -2 -2 -6q37 -41 37 -86q0 -14 -3 -26
q-16 -63 -94 -63q-31 0 -61 10q-11 3 -9 14l8 60q1 6 4.5 8t10.5 0q8 -2 12 -2q19 0 25 19q4 15 -7.5 34t-36.5 39l-6 3q-79 18 -124.5 76.5t-45.5 143.5v262q0 68 29.5 119t84 79t125.5 28t125.5 -27t84 -77t29.5 -116v-8q0 -4 -3.5 -6.5z" />
    <glyph glyph-name="Egrave" unicode="&#xc8;" horiz-adv-x="509" 
d="M479.5 561.5q-3.5 -3.5 -8.5 -3.5h-258q-5 0 -5 -5v-125q0 -5 5 -5h156q5 0 8.5 -3.5t3.5 -8.5v-118q0 -5 -3.5 -8.5t-8.5 -3.5h-156q-5 0 -5 -5v-129q0 -5 5 -5h258q5 0 8.5 -3.5t3.5 -8.5v-118q0 -5 -3.5 -8.5t-8.5 -3.5h-417q-5 0 -8.5 3.5t-3.5 8.5v676q0 5 3.5 8.5
t8.5 3.5h417q5 0 8.5 -3.5t3.5 -8.5v-118q0 -5 -3.5 -8.5zM320 769q0 -8 -10 -8h-97q-8 0 -14 7l-76 100q-3 5 -3 8q0 7 10 7h117q10 0 15 -8l56 -100q2 -4 2 -6z" />
    <glyph glyph-name="Eacute" unicode="&#xc9;" horiz-adv-x="509" 
d="M479.5 561.5q-3.5 -3.5 -8.5 -3.5h-258q-5 0 -5 -5v-125q0 -5 5 -5h156q5 0 8.5 -3.5t3.5 -8.5v-118q0 -5 -3.5 -8.5t-8.5 -3.5h-156q-5 0 -5 -5v-129q0 -5 5 -5h258q5 0 8.5 -3.5t3.5 -8.5v-118q0 -5 -3.5 -8.5t-8.5 -3.5h-417q-5 0 -8.5 3.5t-3.5 8.5v676q0 5 3.5 8.5
t8.5 3.5h417q5 0 8.5 -3.5t3.5 -8.5v-118q0 -5 -3.5 -8.5zM189 765q-2 4 1 10l56 100q5 8 15 8h117q10 0 10 -7q0 -3 -3 -8l-76 -100q-6 -7 -14 -7h-97q-7 0 -9 4z" />
    <glyph glyph-name="Ecircumflex" unicode="&#xca;" horiz-adv-x="509" 
d="M479.5 561.5q-3.5 -3.5 -8.5 -3.5h-258q-5 0 -5 -5v-125q0 -5 5 -5h156q5 0 8.5 -3.5t3.5 -8.5v-118q0 -5 -3.5 -8.5t-8.5 -3.5h-156q-5 0 -5 -5v-129q0 -5 5 -5h258q5 0 8.5 -3.5t3.5 -8.5v-118q0 -5 -3.5 -8.5t-8.5 -3.5h-417q-5 0 -8.5 3.5t-3.5 8.5v676q0 5 3.5 8.5
t8.5 3.5h417q5 0 8.5 -3.5t3.5 -8.5v-118q0 -5 -3.5 -8.5zM97.5 758.5q-2.5 3.5 1.5 10.5l68 106q5 8 14 8h157q9 0 14 -8l70 -105q2 -3 2 -7q0 -8 -9 -8h-107q-10 0 -15 8l-29 53q-3 5 -6 0l-29 -53q-5 -8 -15 -8h-107q-7 0 -9.5 3.5z" />
    <glyph glyph-name="Edieresis" unicode="&#xcb;" horiz-adv-x="509" 
d="M479.5 561.5q-3.5 -3.5 -8.5 -3.5h-258q-5 0 -5 -5v-125q0 -5 5 -5h156q5 0 8.5 -3.5t3.5 -8.5v-118q0 -5 -3.5 -8.5t-8.5 -3.5h-156q-5 0 -5 -5v-129q0 -5 5 -5h258q5 0 8.5 -3.5t3.5 -8.5v-118q0 -5 -3.5 -8.5t-8.5 -3.5h-417q-5 0 -8.5 3.5t-3.5 8.5v676q0 5 3.5 8.5
t8.5 3.5h417q5 0 8.5 -3.5t3.5 -8.5v-118q0 -5 -3.5 -8.5zM301.5 774.5q-24.5 24.5 -24.5 62.5q0 39 24.5 63t62.5 24t62 -24t24 -63q0 -38 -24.5 -62.5t-61.5 -24.5q-38 0 -62.5 24.5zM98.5 774.5q-24.5 24.5 -24.5 62.5q0 39 24.5 63t62.5 24t62 -24t24 -63
q0 -38 -24.5 -62.5t-61.5 -24.5q-38 0 -62.5 24.5z" />
    <glyph glyph-name="Igrave" unicode="&#xcc;" horiz-adv-x="250" 
d="M45.5 3.5q-3.5 3.5 -3.5 8.5v676q0 5 3.5 8.5t8.5 3.5h142q5 0 8.5 -3.5t3.5 -8.5v-676q0 -5 -3.5 -8.5t-8.5 -3.5h-142q-5 0 -8.5 3.5zM183 769q0 -8 -10 -8h-97q-8 0 -14 7l-76 100q-3 5 -3 8q0 7 10 7h117q10 0 15 -8l56 -100q2 -4 2 -6z" />
    <glyph glyph-name="Iacute" unicode="&#xcd;" horiz-adv-x="250" 
d="M45.5 3.5q-3.5 3.5 -3.5 8.5v676q0 5 3.5 8.5t8.5 3.5h142q5 0 8.5 -3.5t3.5 -8.5v-676q0 -5 -3.5 -8.5t-8.5 -3.5h-142q-5 0 -8.5 3.5zM53 765q-2 4 1 10l56 100q5 8 15 8h117q10 0 10 -7q0 -3 -3 -8l-76 -100q-6 -7 -14 -7h-97q-7 0 -9 4z" />
    <glyph glyph-name="Icircumflex" unicode="&#xce;" horiz-adv-x="250" 
d="M45.5 3.5q-3.5 3.5 -3.5 8.5v676q0 5 3.5 8.5t8.5 3.5h142q5 0 8.5 -3.5t3.5 -8.5v-676q0 -5 -3.5 -8.5t-8.5 -3.5h-142q-5 0 -8.5 3.5zM-39.5 758.5q-2.5 3.5 1.5 10.5l68 106q5 8 14 8h157q9 0 14 -8l70 -105q2 -3 2 -7q0 -8 -9 -8h-107q-10 0 -15 8l-29 53q-3 5 -6 0
l-29 -53q-5 -8 -15 -8h-107q-7 0 -9.5 3.5z" />
    <glyph glyph-name="Idieresis" unicode="&#xcf;" horiz-adv-x="250" 
d="M45.5 3.5q-3.5 3.5 -3.5 8.5v676q0 5 3.5 8.5t8.5 3.5h142q5 0 8.5 -3.5t3.5 -8.5v-676q0 -5 -3.5 -8.5t-8.5 -3.5h-142q-5 0 -8.5 3.5zM164.5 774.5q-24.5 24.5 -24.5 62.5q0 39 24.5 63t62.5 24t62 -24t24 -63q0 -38 -24.5 -62.5t-61.5 -24.5q-38 0 -62.5 24.5z
M-38.5 774.5q-24.5 24.5 -24.5 62.5q0 39 24.5 63t62.5 24t62 -24t24 -63q0 -38 -24.5 -62.5t-61.5 -24.5q-38 0 -62.5 24.5z" />
    <glyph glyph-name="Eth" unicode="&#xd0;" horiz-adv-x="585" 
d="M438 674q54 -26 83.5 -73t29.5 -109v-284q0 -62 -29.5 -109t-83.5 -73t-125 -26h-223q-5 0 -8.5 3.5t-3.5 8.5v295q0 5 -5 5h-19q-5 0 -8.5 3.5t-3.5 8.5v78q0 5 3.5 8.5t8.5 3.5h19q5 0 5 5v269q0 5 3.5 8.5t8.5 3.5h223q71 0 125 -26zM385 473q0 38 -19.5 61.5
t-51.5 23.5h-65q-5 0 -5 -5v-134q0 -5 5 -5h46q5 0 8.5 -3.5t3.5 -8.5v-78q0 -5 -3.5 -8.5t-8.5 -3.5h-46q-5 0 -5 -5v-160q0 -5 5 -5l66 1q30 0 49.5 23t20.5 62v245z" />
    <glyph glyph-name="Ntilde" unicode="&#xd1;" horiz-adv-x="591" 
d="M387.5 696.5q3.5 3.5 8.5 3.5h142q5 0 8.5 -3.5t3.5 -8.5v-676q0 -5 -3.5 -8.5t-8.5 -3.5h-148q-10 0 -14 9l-165 370q-2 3 -4 2.5t-2 -4.5l2 -365q0 -5 -3.5 -8.5t-8.5 -3.5h-141q-5 0 -8.5 3.5t-3.5 8.5v676q0 5 3.5 8.5t8.5 3.5h147q10 0 14 -9l164 -368q2 -3 4 -3
t2 4l-1 364q0 5 3.5 8.5zM326 757q-13 4 -32 13q-4 2 -14.5 7t-17 7t-13.5 2q-26 0 -44 -20q-5 -6 -9 -6t-8 4l-49 44q-8 7 -4 17q14 34 41 52.5t61 18.5q19 0 35 -5.5t37 -17.5q5 -3 14 -7.5t16 -7t15 -2.5q27 0 41 21q5 7 10 7q3 0 7 -4l47 -46q7 -7 3 -17
q-15 -31 -43 -47.5t-63 -16.5q-17 0 -30 4z" />
    <glyph glyph-name="Ograve" unicode="&#xd2;" horiz-adv-x="550" 
d="M148 19q-55 29 -85.5 82t-30.5 123v252q0 69 30.5 121.5t85.5 81.5t127 29t127 -29t85.5 -81.5t30.5 -121.5v-252q0 -70 -30.5 -123t-85.5 -82t-127 -29t-127 29zM331 156.5q21 23.5 21 61.5v262q0 38 -21.5 62t-55.5 24q-35 0 -56 -23.5t-21 -62.5v-262q0 -38 21 -61.5
t56 -23.5t56 23.5zM333 769q0 -8 -10 -8h-97q-8 0 -14 7l-76 100q-3 5 -3 8q0 7 10 7h117q10 0 15 -8l56 -100q2 -4 2 -6z" />
    <glyph glyph-name="Oacute" unicode="&#xd3;" horiz-adv-x="550" 
d="M148 19q-55 29 -85.5 82t-30.5 123v252q0 69 30.5 121.5t85.5 81.5t127 29t127 -29t85.5 -81.5t30.5 -121.5v-252q0 -70 -30.5 -123t-85.5 -82t-127 -29t-127 29zM331 156.5q21 23.5 21 61.5v262q0 38 -21.5 62t-55.5 24q-35 0 -56 -23.5t-21 -62.5v-262q0 -38 21 -61.5
t56 -23.5t56 23.5zM202 765q-2 4 1 10l56 100q5 8 15 8h117q10 0 10 -7q0 -3 -3 -8l-76 -100q-6 -7 -14 -7h-97q-7 0 -9 4z" />
    <glyph glyph-name="Ocircumflex" unicode="&#xd4;" horiz-adv-x="550" 
d="M148 19q-55 29 -85.5 82t-30.5 123v252q0 69 30.5 121.5t85.5 81.5t127 29t127 -29t85.5 -81.5t30.5 -121.5v-252q0 -70 -30.5 -123t-85.5 -82t-127 -29t-127 29zM331 156.5q21 23.5 21 61.5v262q0 38 -21.5 62t-55.5 24q-35 0 -56 -23.5t-21 -62.5v-262q0 -38 21 -61.5
t56 -23.5t56 23.5zM110.5 758.5q-2.5 3.5 1.5 10.5l68 106q5 8 14 8h157q9 0 14 -8l70 -105q2 -3 2 -7q0 -8 -9 -8h-107q-10 0 -15 8l-29 53q-3 5 -6 0l-29 -53q-5 -8 -15 -8h-107q-7 0 -9.5 3.5z" />
    <glyph glyph-name="Otilde" unicode="&#xd5;" horiz-adv-x="550" 
d="M148 19q-55 29 -85.5 82t-30.5 123v252q0 69 30.5 121.5t85.5 81.5t127 29t127 -29t85.5 -81.5t30.5 -121.5v-252q0 -70 -30.5 -123t-85.5 -82t-127 -29t-127 29zM331 156.5q21 23.5 21 61.5v262q0 38 -21.5 62t-55.5 24q-35 0 -56 -23.5t-21 -62.5v-262q0 -38 21 -61.5
t56 -23.5t56 23.5zM311 757q-13 4 -32 13q-4 2 -14.5 7t-17 7t-13.5 2q-26 0 -44 -20q-5 -6 -9 -6t-8 4l-49 44q-8 7 -4 17q14 34 41 52.5t61 18.5q19 0 35 -5.5t37 -17.5q5 -3 14 -7.5t16 -7t15 -2.5q27 0 41 21q5 7 10 7q3 0 7 -4l47 -46q7 -7 3 -17q-15 -31 -43 -47.5
t-63 -16.5q-17 0 -30 4z" />
    <glyph glyph-name="Odieresis" unicode="&#xd6;" horiz-adv-x="550" 
d="M148 19q-55 29 -85.5 82t-30.5 123v252q0 69 30.5 121.5t85.5 81.5t127 29t127 -29t85.5 -81.5t30.5 -121.5v-252q0 -70 -30.5 -123t-85.5 -82t-127 -29t-127 29zM331 156.5q21 23.5 21 61.5v262q0 38 -21.5 62t-55.5 24q-35 0 -56 -23.5t-21 -62.5v-262q0 -38 21 -61.5
t56 -23.5t56 23.5zM314.5 774.5q-24.5 24.5 -24.5 62.5q0 39 24.5 63t62.5 24t62 -24t24 -63q0 -38 -24.5 -62.5t-61.5 -24.5q-38 0 -62.5 24.5zM111.5 774.5q-24.5 24.5 -24.5 62.5q0 39 24.5 63t62.5 24t62 -24t24 -63q0 -38 -24.5 -62.5t-61.5 -24.5q-38 0 -62.5 24.5z
" />
    <glyph glyph-name="multiply" unicode="&#xd7;" horiz-adv-x="432" 
d="M405 410q0 -4 -4 -8l-87 -87q-2 -2 -2 -4t2 -4l87 -87q4 -3 4 -8q0 -4 -4 -8l-78 -78q-4 -4 -8 -4q-2 0 -8 4l-87 87q-2 2 -4 2t-4 -2l-87 -87q-4 -4 -8 -4q-2 0 -8 4l-78 78q-4 6 -4 8q0 4 4 8l87 87q2 2 2 4t-2 4l-87 87q-4 6 -4 8q0 4 4 8l78 78q4 4 8 4q5 0 8 -4
l87 -87q2 -2 4 -2t4 2l87 87q4 4 8 4q5 0 8 -4l78 -78q4 -3 4 -8z" />
    <glyph glyph-name="Oslash" unicode="&#xd8;" horiz-adv-x="567" 
d="M535 671l-45 -74q-1 -3 0 -6q26 -50 26 -115v-252q0 -70 -30.5 -123t-85.5 -82t-127 -29q-65 0 -113 22q-4 1 -6 -2l-35 -55q-7 -10 -16 -4l-88 61q-10 7 -4 17l45 73q2 3 0 6q-26 52 -26 116v252q0 69 30.5 121.5t85.5 81.5t127 29q63 0 111 -21q4 -1 6 2l35 56
q7 10 16 4l90 -61q10 -7 4 -17zM350 480q0 39 -21 62.5t-56 23.5t-56 -23.5t-21 -62.5v-262q0 -38 21 -61.5t56 -23.5t56 23.5t21 61.5v262z" />
    <glyph glyph-name="Ugrave" unicode="&#xd9;" horiz-adv-x="551" 
d="M151 20.5q-54 28.5 -83.5 80.5t-29.5 120v467q0 5 3.5 8.5t8.5 3.5h142q5 0 8.5 -3.5t3.5 -8.5v-475q0 -35 20 -57t52 -22t51.5 22t19.5 57v475q0 5 3.5 8.5t8.5 3.5h142q5 0 8.5 -3.5t3.5 -8.5v-467q0 -68 -29.5 -120t-83 -80.5t-124.5 -28.5t-125 28.5zM334 769
q0 -8 -10 -8h-97q-8 0 -14 7l-76 100q-3 5 -3 8q0 7 10 7h117q10 0 15 -8l56 -100q2 -4 2 -6z" />
    <glyph glyph-name="Uacute" unicode="&#xda;" horiz-adv-x="551" 
d="M151 20.5q-54 28.5 -83.5 80.5t-29.5 120v467q0 5 3.5 8.5t8.5 3.5h142q5 0 8.5 -3.5t3.5 -8.5v-475q0 -35 20 -57t52 -22t51.5 22t19.5 57v475q0 5 3.5 8.5t8.5 3.5h142q5 0 8.5 -3.5t3.5 -8.5v-467q0 -68 -29.5 -120t-83 -80.5t-124.5 -28.5t-125 28.5zM204 765
q-2 4 1 10l56 100q5 8 15 8h117q10 0 10 -7q0 -3 -3 -8l-76 -100q-6 -7 -14 -7h-97q-7 0 -9 4z" />
    <glyph glyph-name="Ucircumflex" unicode="&#xdb;" horiz-adv-x="551" 
d="M151 20.5q-54 28.5 -83.5 80.5t-29.5 120v467q0 5 3.5 8.5t8.5 3.5h142q5 0 8.5 -3.5t3.5 -8.5v-475q0 -35 20 -57t52 -22t51.5 22t19.5 57v475q0 5 3.5 8.5t8.5 3.5h142q5 0 8.5 -3.5t3.5 -8.5v-467q0 -68 -29.5 -120t-83 -80.5t-124.5 -28.5t-125 28.5zM111.5 758.5
q-2.5 3.5 1.5 10.5l68 106q5 8 14 8h157q9 0 14 -8l70 -105q2 -3 2 -7q0 -8 -9 -8h-107q-10 0 -15 8l-29 53q-3 5 -6 0l-29 -53q-5 -8 -15 -8h-107q-7 0 -9.5 3.5z" />
    <glyph glyph-name="Udieresis" unicode="&#xdc;" horiz-adv-x="551" 
d="M151 20.5q-54 28.5 -83.5 80.5t-29.5 120v467q0 5 3.5 8.5t8.5 3.5h142q5 0 8.5 -3.5t3.5 -8.5v-475q0 -35 20 -57t52 -22t51.5 22t19.5 57v475q0 5 3.5 8.5t8.5 3.5h142q5 0 8.5 -3.5t3.5 -8.5v-467q0 -68 -29.5 -120t-83 -80.5t-124.5 -28.5t-125 28.5zM315.5 774.5
q-24.5 24.5 -24.5 62.5q0 39 24.5 63t62.5 24t62 -24t24 -63q0 -38 -24.5 -62.5t-61.5 -24.5q-38 0 -62.5 24.5zM112.5 774.5q-24.5 24.5 -24.5 62.5q0 39 24.5 63t62.5 24t62 -24t24 -63q0 -38 -24.5 -62.5t-61.5 -24.5q-38 0 -62.5 24.5z" />
    <glyph glyph-name="Yacute" unicode="&#xdd;" horiz-adv-x="564" 
d="M201.5 5.5q-3.5 3.5 -3.5 8.5v241l-1 6l-173 425q-1 2 -1 6q0 8 10 8h153q10 0 13 -10l80 -237q1 -3 3 -3t3 3l80 237q3 10 13 10h152q7 0 9 -4t0 -10l-174 -425l-1 -6v-241q0 -5 -3.5 -8.5t-8.5 -3.5h-142q-5 0 -8.5 3.5zM209 765q-2 4 1 10l56 100q5 8 15 8h117
q10 0 10 -7q0 -3 -3 -8l-76 -100q-6 -7 -14 -7h-97q-7 0 -9 4z" />
    <glyph glyph-name="Thorn" unicode="&#xde;" horiz-adv-x="529" 
d="M408.5 539q48.5 -28 75.5 -78t27 -114q0 -63 -27.5 -111.5t-76.5 -75t-110 -26.5h-87q-5 0 -5 -5v-117q0 -5 -3.5 -8.5t-8.5 -3.5h-142q-5 0 -8.5 3.5t-3.5 8.5v676q0 5 3.5 8.5t8.5 3.5h142q5 0 8.5 -3.5t3.5 -8.5v-116q0 -5 5 -5h87q63 0 111.5 -28zM324.5 286
q20.5 20 20.5 58q0 39 -20.5 59.5t-55.5 20.5h-59q-5 0 -5 -5v-148q0 -5 5 -5h59q35 0 55.5 20z" />
    <glyph glyph-name="germandbls" unicode="&#xdf;" horiz-adv-x="526" 
d="M40.5 4.5q-3.5 3.5 -3.5 8.5v462q0 111 58 172t164 61q103 0 165 -52.5t62 -141.5q1 -87 -64 -129q-6 -3 0 -6q36 -24 56.5 -68t20.5 -102q0 -99 -63 -154t-179 -55h-10q-5 0 -8.5 3.5t-3.5 8.5v117q0 5 3.5 8.5t8.5 3.5l19 1q30 0 49.5 23t19.5 62q0 40 -18.5 63
t-47.5 23h-18q-5 0 -8.5 3.5t-3.5 8.5v105q0 5 3.5 8.5t8.5 3.5h15q24 0 40 17.5t16 45.5q0 27 -14.5 44.5t-42.5 17.5q-27 0 -44.5 -19t-17.5 -52v-484q0 -5 -3.5 -8.5t-8.5 -3.5l-142 1q-5 0 -8.5 3.5z" />
    <glyph glyph-name="agrave" unicode="&#xe0;" horiz-adv-x="495" 
d="M357 503q50 -22 78.5 -60.5t28.5 -87.5v-343q0 -5 -3.5 -8.5t-8.5 -3.5h-142q-5 0 -8.5 3.5t-3.5 8.5v29q0 3 -2 4t-4 -2q-35 -50 -116 -51q-69 0 -113.5 35t-44.5 117q0 87 52.5 124t153.5 37h69q5 0 5 5v22q0 23 -14 37t-39 14q-19 0 -31.5 -8.5t-17.5 -22.5
q-3 -11 -13 -10l-145 9q-12 2 -12 11q3 48 31.5 85t77 57.5t108.5 20.5q64 0 114 -22zM278.5 128.5q19.5 15.5 19.5 40.5v30q0 5 -5 5h-45q-29 0 -45.5 -12.5t-16.5 -35.5q0 -20 12.5 -31.5t33.5 -11.5q27 0 46.5 15.5zM306 586q0 -8 -10 -8h-97q-8 0 -14 7l-76 100
q-3 5 -3 8q0 7 10 7h117q10 0 15 -8l56 -100q2 -4 2 -6z" />
    <glyph glyph-name="aacute" unicode="&#xe1;" horiz-adv-x="495" 
d="M357 503q50 -22 78.5 -60.5t28.5 -87.5v-343q0 -5 -3.5 -8.5t-8.5 -3.5h-142q-5 0 -8.5 3.5t-3.5 8.5v29q0 3 -2 4t-4 -2q-35 -50 -116 -51q-69 0 -113.5 35t-44.5 117q0 87 52.5 124t153.5 37h69q5 0 5 5v22q0 23 -14 37t-39 14q-19 0 -31.5 -8.5t-17.5 -22.5
q-3 -11 -13 -10l-145 9q-12 2 -12 11q3 48 31.5 85t77 57.5t108.5 20.5q64 0 114 -22zM278.5 128.5q19.5 15.5 19.5 40.5v30q0 5 -5 5h-45q-29 0 -45.5 -12.5t-16.5 -35.5q0 -20 12.5 -31.5t33.5 -11.5q27 0 46.5 15.5zM176 582q-2 4 1 10l56 100q5 8 15 8h117q10 0 10 -7
q0 -3 -3 -8l-76 -100q-6 -7 -14 -7h-97q-7 0 -9 4z" />
    <glyph glyph-name="acircumflex" unicode="&#xe2;" horiz-adv-x="495" 
d="M357 503q50 -22 78.5 -60.5t28.5 -87.5v-343q0 -5 -3.5 -8.5t-8.5 -3.5h-142q-5 0 -8.5 3.5t-3.5 8.5v29q0 3 -2 4t-4 -2q-35 -50 -116 -51q-69 0 -113.5 35t-44.5 117q0 87 52.5 124t153.5 37h69q5 0 5 5v22q0 23 -14 37t-39 14q-19 0 -31.5 -8.5t-17.5 -22.5
q-3 -11 -13 -10l-145 9q-12 2 -12 11q3 48 31.5 85t77 57.5t108.5 20.5q64 0 114 -22zM278.5 128.5q19.5 15.5 19.5 40.5v30q0 5 -5 5h-45q-29 0 -45.5 -12.5t-16.5 -35.5q0 -20 12.5 -31.5t33.5 -11.5q27 0 46.5 15.5zM83.5 575.5q-2.5 3.5 1.5 10.5l68 106q5 8 14 8h157
q9 0 14 -8l70 -105q2 -3 2 -7q0 -8 -9 -8h-107q-10 0 -15 8l-29 53q-3 5 -6 0l-29 -53q-5 -8 -15 -8h-107q-7 0 -9.5 3.5z" />
    <glyph glyph-name="atilde" unicode="&#xe3;" horiz-adv-x="495" 
d="M357 503q50 -22 78.5 -60.5t28.5 -87.5v-343q0 -5 -3.5 -8.5t-8.5 -3.5h-142q-5 0 -8.5 3.5t-3.5 8.5v29q0 3 -2 4t-4 -2q-35 -50 -116 -51q-69 0 -113.5 35t-44.5 117q0 87 52.5 124t153.5 37h69q5 0 5 5v22q0 23 -14 37t-39 14q-19 0 -31.5 -8.5t-17.5 -22.5
q-3 -11 -13 -10l-145 9q-12 2 -12 11q3 48 31.5 85t77 57.5t108.5 20.5q64 0 114 -22zM278.5 128.5q19.5 15.5 19.5 40.5v30q0 5 -5 5h-45q-29 0 -45.5 -12.5t-16.5 -35.5q0 -20 12.5 -31.5t33.5 -11.5q27 0 46.5 15.5zM284 574q-13 4 -32 13q-4 2 -14.5 7t-17 7t-13.5 2
q-26 0 -44 -20q-5 -6 -9 -6t-8 4l-49 44q-8 7 -4 17q14 34 41 52.5t61 18.5q19 0 35 -5.5t37 -17.5q5 -3 14 -7.5t16 -7t15 -2.5q27 0 41 21q5 7 10 7q3 0 7 -4l47 -46q7 -7 3 -17q-15 -31 -43 -47.5t-63 -16.5q-17 0 -30 4z" />
    <glyph glyph-name="adieresis" unicode="&#xe4;" horiz-adv-x="495" 
d="M357 503q50 -22 78.5 -60.5t28.5 -87.5v-343q0 -5 -3.5 -8.5t-8.5 -3.5h-142q-5 0 -8.5 3.5t-3.5 8.5v29q0 3 -2 4t-4 -2q-35 -50 -116 -51q-69 0 -113.5 35t-44.5 117q0 87 52.5 124t153.5 37h69q5 0 5 5v22q0 23 -14 37t-39 14q-19 0 -31.5 -8.5t-17.5 -22.5
q-3 -11 -13 -10l-145 9q-12 2 -12 11q3 48 31.5 85t77 57.5t108.5 20.5q64 0 114 -22zM278.5 128.5q19.5 15.5 19.5 40.5v30q0 5 -5 5h-45q-29 0 -45.5 -12.5t-16.5 -35.5q0 -20 12.5 -31.5t33.5 -11.5q27 0 46.5 15.5zM287.5 591.5q-24.5 24.5 -24.5 62.5q0 39 24.5 63
t62.5 24t62 -24t24 -63q0 -38 -24.5 -62.5t-61.5 -24.5q-38 0 -62.5 24.5zM84.5 591.5q-24.5 24.5 -24.5 62.5q0 39 24.5 63t62.5 24t62 -24t24 -63q0 -38 -24.5 -62.5t-61.5 -24.5q-38 0 -62.5 24.5z" />
    <glyph glyph-name="aring" unicode="&#xe5;" horiz-adv-x="495" 
d="M357 503q50 -22 78.5 -60.5t28.5 -87.5v-343q0 -5 -3.5 -8.5t-8.5 -3.5h-142q-5 0 -8.5 3.5t-3.5 8.5v29q0 3 -2 4t-4 -2q-35 -50 -116 -51q-69 0 -113.5 35t-44.5 117q0 87 52.5 124t153.5 37h69q5 0 5 5v22q0 23 -14 37t-39 14q-19 0 -31.5 -8.5t-17.5 -22.5
q-3 -11 -13 -10l-145 9q-12 2 -12 11q3 48 31.5 85t77 57.5t108.5 20.5q64 0 114 -22zM278.5 128.5q19.5 15.5 19.5 40.5v30q0 5 -5 5h-45q-29 0 -45.5 -12.5t-16.5 -35.5q0 -20 12.5 -31.5t33.5 -11.5q27 0 46.5 15.5zM155 594.5q-37 37.5 -37 92.5t37.5 92t92.5 37
t92.5 -37t37.5 -92t-37.5 -92.5t-92.5 -37.5q-56 0 -93 37.5zM280 655q13 13 13 32t-13 32.5t-32 13.5q-18 0 -31.5 -13.5t-13.5 -32.5t13.5 -32t31.5 -13q19 0 32 13z" />
    <glyph glyph-name="ae" unicode="&#xe6;" horiz-adv-x="770" 
d="M68.5 27.5q-50.5 35.5 -50.5 120.5q0 82 52 118.5t153 36.5h69q5 0 5 5v23q0 24 -14 38t-39 14q-19 0 -32.5 -8t-18.5 -22q-3 -11 -13 -10l-144 10q-12 2 -11 13q4 46 33 82.5t75.5 56.5t100.5 20q47 0 84.5 -16t62.5 -42q4 -4 7 0q22 25 59.5 41.5t83.5 16.5
q79 0 137 -45t70 -118q9 -61 9 -144q0 -12 -12 -12h-259q-5 0 -5 -5q0 -9 1 -17q4 -24 22.5 -36.5t46.5 -12.5q43 0 67 33q7 10 16 5l101 -43q11 -5 7 -15q-21 -59 -69.5 -91t-120.5 -32q-58 0 -101 20t-57 48q-4 6 -4 3q-16 -30 -65.5 -50.5t-117.5 -20.5
q-78 0 -128.5 35.5zM475 303h99q5 0 5 5t-1 13.5t-2 14.5q-4 21 -17.5 34t-33.5 13q-21 0 -35 -13t-17 -34q-3 -13 -3 -28q0 -5 5 -5zM277.5 125.5q19.5 15.5 19.5 40.5v35q0 5 -5 5h-45q-29 0 -45.5 -13t-16.5 -37q0 -21 13 -33.5t35 -12.5q25 0 44.5 15.5z" />
    <glyph glyph-name="ccedilla" unicode="&#xe7;" horiz-adv-x="494" 
d="M306 194q2 13 13 11l141 -12q12 -2 11 -13q0 -9 -2 -23q-10 -64 -50.5 -105t-105.5 -55q-3 0 -3.5 -2t1.5 -4q38 -41 38 -85q0 -9 -4 -27q-9 -35 -34.5 -49.5t-59.5 -14.5q-30 0 -60 10q-11 3 -9 14l8 60q1 6 4.5 8t10.5 0q8 -2 12 -2q9 0 15.5 5t8.5 14q1 3 1 9
q0 28 -42 62l-6 3q-64 12 -105.5 53t-52.5 105q-9 45 -9 104q0 57 9 104q14 74 71.5 117.5t145.5 43.5q85 0 143 -42t72 -113q2 -10 4 -32v-2q0 -9 -11 -11l-141 -14h-3q-7 0 -9 8v6l-3 16q-5 19 -18.5 30.5t-34.5 11.5q-42 0 -53 -47q-5 -25 -5 -76q0 -56 6 -81
q5 -21 18 -33t34 -12q23 0 36 12.5t16 32.5q2 10 2 15z" />
    <glyph glyph-name="egrave" unicode="&#xe8;" horiz-adv-x="497" 
d="M476 264l-1 -40q0 -12 -12 -12h-262q-4 0 -4 -4q0 -11 4 -29q5 -21 19.5 -33t37.5 -12q42 0 57 34q4 10 15 8l128 -25q14 -2 9 -14q-24 -71 -76.5 -108t-129.5 -37q-187 0 -223 163q-9 39 -9 119q0 47 6 78q11 79 69 126t146 47q96 0 156.5 -54t67.5 -142q2 -42 2 -65z
M217.5 370.5q-13.5 -12.5 -18.5 -34.5l-3 -28q0 -5 5 -5h102q5 0 5 5q-2 18 -4 28q-3 21 -17 34t-35 13t-34.5 -12.5zM307 586q0 -8 -10 -8h-97q-8 0 -14 7l-76 100q-3 5 -3 8q0 7 10 7h117q10 0 15 -8l56 -100q2 -4 2 -6z" />
    <glyph glyph-name="eacute" unicode="&#xe9;" horiz-adv-x="497" 
d="M476 264l-1 -40q0 -12 -12 -12h-262q-4 0 -4 -4q0 -11 4 -29q5 -21 19.5 -33t37.5 -12q42 0 57 34q4 10 15 8l128 -25q14 -2 9 -14q-24 -71 -76.5 -108t-129.5 -37q-187 0 -223 163q-9 39 -9 119q0 47 6 78q11 79 69 126t146 47q96 0 156.5 -54t67.5 -142q2 -42 2 -65z
M217.5 370.5q-13.5 -12.5 -18.5 -34.5l-3 -28q0 -5 5 -5h102q5 0 5 5q-2 18 -4 28q-3 21 -17 34t-35 13t-34.5 -12.5zM176 582q-2 4 1 10l56 100q5 8 15 8h117q10 0 10 -7q0 -3 -3 -8l-76 -100q-6 -7 -14 -7h-97q-7 0 -9 4z" />
    <glyph glyph-name="ecircumflex" unicode="&#xea;" horiz-adv-x="497" 
d="M476 264l-1 -40q0 -12 -12 -12h-262q-4 0 -4 -4q0 -11 4 -29q5 -21 19.5 -33t37.5 -12q42 0 57 34q4 10 15 8l128 -25q14 -2 9 -14q-24 -71 -76.5 -108t-129.5 -37q-187 0 -223 163q-9 39 -9 119q0 47 6 78q11 79 69 126t146 47q96 0 156.5 -54t67.5 -142q2 -42 2 -65z
M217.5 370.5q-13.5 -12.5 -18.5 -34.5l-3 -28q0 -5 5 -5h102q5 0 5 5q-2 18 -4 28q-3 21 -17 34t-35 13t-34.5 -12.5zM83.5 575.5q-2.5 3.5 1.5 10.5l68 106q5 8 14 8h157q9 0 14 -8l70 -105q2 -3 2 -7q0 -8 -9 -8h-107q-10 0 -15 8l-29 53q-3 5 -6 0l-29 -53q-5 -8 -15 -8
h-107q-7 0 -9.5 3.5z" />
    <glyph glyph-name="edieresis" unicode="&#xeb;" horiz-adv-x="497" 
d="M476 264l-1 -40q0 -12 -12 -12h-262q-4 0 -4 -4q0 -11 4 -29q5 -21 19.5 -33t37.5 -12q42 0 57 34q4 10 15 8l128 -25q14 -2 9 -14q-24 -71 -76.5 -108t-129.5 -37q-187 0 -223 163q-9 39 -9 119q0 47 6 78q11 79 69 126t146 47q96 0 156.5 -54t67.5 -142q2 -42 2 -65z
M217.5 370.5q-13.5 -12.5 -18.5 -34.5l-3 -28q0 -5 5 -5h102q5 0 5 5q-2 18 -4 28q-3 21 -17 34t-35 13t-34.5 -12.5zM287.5 591.5q-24.5 24.5 -24.5 62.5q0 39 24.5 63t62.5 24t62 -24t24 -63q0 -38 -24.5 -62.5t-61.5 -24.5q-38 0 -62.5 24.5zM84.5 591.5
q-24.5 24.5 -24.5 62.5q0 39 24.5 63t62.5 24t62 -24t24 -63q0 -38 -24.5 -62.5t-61.5 -24.5q-38 0 -62.5 24.5z" />
    <glyph glyph-name="igrave" unicode="&#xec;" horiz-adv-x="222" 
d="M31.5 3.5q-3.5 3.5 -3.5 8.5v493q0 5 3.5 8.5t8.5 3.5h142q5 0 8.5 -3.5t3.5 -8.5v-493q0 -5 -3.5 -8.5t-8.5 -3.5h-142q-5 0 -8.5 3.5zM169 586q0 -8 -10 -8h-97q-8 0 -14 7l-76 100q-3 5 -3 8q0 7 10 7h117q10 0 15 -8l56 -100q2 -4 2 -6z" />
    <glyph glyph-name="iacute" unicode="&#xed;" horiz-adv-x="222" 
d="M31.5 3.5q-3.5 3.5 -3.5 8.5v493q0 5 3.5 8.5t8.5 3.5h142q5 0 8.5 -3.5t3.5 -8.5v-493q0 -5 -3.5 -8.5t-8.5 -3.5h-142q-5 0 -8.5 3.5zM38 582q-2 4 1 10l56 100q5 8 15 8h117q10 0 10 -7q0 -3 -3 -8l-76 -100q-6 -7 -14 -7h-97q-7 0 -9 4z" />
    <glyph glyph-name="icircumflex" unicode="&#xee;" horiz-adv-x="222" 
d="M31.5 3.5q-3.5 3.5 -3.5 8.5v493q0 5 3.5 8.5t8.5 3.5h142q5 0 8.5 -3.5t3.5 -8.5v-493q0 -5 -3.5 -8.5t-8.5 -3.5h-142q-5 0 -8.5 3.5zM-53.5 575.5q-2.5 3.5 1.5 10.5l68 106q5 8 14 8h157q9 0 14 -8l70 -105q2 -3 2 -7q0 -8 -9 -8h-107q-10 0 -15 8l-29 53q-3 5 -6 0
l-29 -53q-5 -8 -15 -8h-107q-7 0 -9.5 3.5z" />
    <glyph glyph-name="idieresis" unicode="&#xef;" horiz-adv-x="222" 
d="M31.5 3.5q-3.5 3.5 -3.5 8.5v493q0 5 3.5 8.5t8.5 3.5h142q5 0 8.5 -3.5t3.5 -8.5v-493q0 -5 -3.5 -8.5t-8.5 -3.5h-142q-5 0 -8.5 3.5zM150.5 591.5q-24.5 24.5 -24.5 62.5q0 39 24.5 63t62.5 24t62 -24t24 -63q0 -38 -24.5 -62.5t-61.5 -24.5q-38 0 -62.5 24.5z
M-52.5 591.5q-24.5 24.5 -24.5 62.5q0 39 24.5 63t62.5 24t62 -24t24 -63q0 -38 -24.5 -62.5t-61.5 -24.5q-38 0 -62.5 24.5z" />
    <glyph glyph-name="eth" unicode="&#xf0;" horiz-adv-x="506" 
d="M473 236q0 -50 -9 -89q-13 -72 -69.5 -113.5t-144.5 -41.5q-87 0 -143.5 41.5t-70.5 113.5q-9 36 -9 89q0 47 9 89q7 53 43.5 89.5t88.5 44.5q31 7 56 7q33 0 54 -9q7 -2 4 4q-11 32 -30 64q-1 2 -2.5 3t-3.5 0l-89 -22l-4 -1q-8 0 -11 10l-14 53l-1 4q0 8 10 11l61 15
q2 1 3 3t-1 4q-41 56 -60 80q-4 6 -4 8q0 7 11 7h141q10 0 14 -7q6 -9 12 -16.5t10 -13.5l18 -24q1 -2 2.5 -3t3.5 0l80 20l4 1q8 0 11 -10l12 -55l1 -4q0 -8 -9 -11l-51 -13q-6 -2 -3 -7q31 -54 49 -106t23 -108q8 -53 8 -107zM306 234q0 30 -6 61q-5 21 -18 33t-32 12
t-32.5 -12t-18.5 -33q-5 -27 -5 -61q0 -31 6 -63q4 -21 17.5 -33.5t32.5 -12.5t32 12.5t18 33.5q6 32 6 63z" />
    <glyph glyph-name="ntilde" unicode="&#xf1;" horiz-adv-x="502" 
d="M172 583q-4 -6 -9 -6q-4 0 -8 4l-49 44q-8 7 -4 17q13 33 40.5 52t60.5 19q19 0 35.5 -6t35.5 -17q5 -3 14 -7.5t16 -7t15 -2.5q26 0 40 21q5 6 9 6t8 -4l47 -45q7 -7 3 -16q-15 -32 -43 -48.5t-62 -16.5q-17 0 -30 4t-31 13q-6 3 -16 7.5t-16.5 6.5t-13.5 2
q-25 0 -42 -20zM428 477.5q42 -47.5 42 -132.5v-333q0 -5 -3.5 -8.5t-8.5 -3.5h-142q-5 0 -8.5 3.5t-3.5 8.5v309q0 28 -14 45t-37 17t-37 -17t-14 -45v-309q0 -5 -3.5 -8.5t-8.5 -3.5h-142q-5 0 -8.5 3.5t-3.5 8.5v493q0 5 3.5 8.5t8.5 3.5h142q5 0 8.5 -3.5t3.5 -8.5v-28
q0 -3 2.5 -3.5t4.5 3.5q36 48 102 48q75 0 117 -47.5z" />
    <glyph glyph-name="ograve" unicode="&#xf2;" horiz-adv-x="503" 
d="M102 38.5q-58 46.5 -69 128.5q-6 39 -6 92q0 59 7 95q11 79 69 125t150 46t149.5 -46t68.5 -124q7 -38 7 -95q0 -48 -5 -91q-11 -83 -69 -130t-151 -47t-151 46.5zM289.5 149.5q14.5 15.5 19.5 41.5q3 32 3 68q0 26 -4 70q-4 25 -18.5 39.5t-36.5 14.5q-23 0 -37.5 -14.5
t-18.5 -39.5q-4 -29 -4 -70q0 -36 3 -68q5 -26 19.5 -41.5t37.5 -15.5q22 0 36.5 15.5zM310 586q0 -8 -10 -8h-97q-8 0 -14 7l-76 100q-3 5 -3 8q0 7 10 7h117q10 0 15 -8l56 -100q2 -4 2 -6z" />
    <glyph glyph-name="oacute" unicode="&#xf3;" horiz-adv-x="503" 
d="M102 38.5q-58 46.5 -69 128.5q-6 39 -6 92q0 59 7 95q11 79 69 125t150 46t149.5 -46t68.5 -124q7 -38 7 -95q0 -48 -5 -91q-11 -83 -69 -130t-151 -47t-151 46.5zM289.5 149.5q14.5 15.5 19.5 41.5q3 32 3 68q0 26 -4 70q-4 25 -18.5 39.5t-36.5 14.5q-23 0 -37.5 -14.5
t-18.5 -39.5q-4 -29 -4 -70q0 -36 3 -68q5 -26 19.5 -41.5t37.5 -15.5q22 0 36.5 15.5zM179 582q-2 4 1 10l56 100q5 8 15 8h117q10 0 10 -7q0 -3 -3 -8l-76 -100q-6 -7 -14 -7h-97q-7 0 -9 4z" />
    <glyph glyph-name="ocircumflex" unicode="&#xf4;" horiz-adv-x="503" 
d="M102 38.5q-58 46.5 -69 128.5q-6 39 -6 92q0 59 7 95q11 79 69 125t150 46t149.5 -46t68.5 -124q7 -38 7 -95q0 -48 -5 -91q-11 -83 -69 -130t-151 -47t-151 46.5zM289.5 149.5q14.5 15.5 19.5 41.5q3 32 3 68q0 26 -4 70q-4 25 -18.5 39.5t-36.5 14.5q-23 0 -37.5 -14.5
t-18.5 -39.5q-4 -29 -4 -70q0 -36 3 -68q5 -26 19.5 -41.5t37.5 -15.5q22 0 36.5 15.5zM87.5 575.5q-2.5 3.5 1.5 10.5l68 106q5 8 14 8h157q9 0 14 -8l70 -105q2 -3 2 -7q0 -8 -9 -8h-107q-10 0 -15 8l-29 53q-3 5 -6 0l-29 -53q-5 -8 -15 -8h-107q-7 0 -9.5 3.5z" />
    <glyph glyph-name="otilde" unicode="&#xf5;" horiz-adv-x="503" 
d="M102 38.5q-58 46.5 -69 128.5q-6 39 -6 92q0 59 7 95q11 79 69 125t150 46t149.5 -46t68.5 -124q7 -38 7 -95q0 -48 -5 -91q-11 -83 -69 -130t-151 -47t-151 46.5zM289.5 149.5q14.5 15.5 19.5 41.5q3 32 3 68q0 26 -4 70q-4 25 -18.5 39.5t-36.5 14.5q-23 0 -37.5 -14.5
t-18.5 -39.5q-4 -29 -4 -70q0 -36 3 -68q5 -26 19.5 -41.5t37.5 -15.5q22 0 36.5 15.5zM288 574q-13 4 -32 13q-4 2 -14.5 7t-17 7t-13.5 2q-26 0 -44 -20q-5 -6 -9 -6t-8 4l-49 44q-8 7 -4 17q14 34 41 52.5t61 18.5q19 0 35 -5.5t37 -17.5q5 -3 14 -7.5t16 -7t15 -2.5
q27 0 41 21q5 7 10 7q3 0 7 -4l47 -46q7 -7 3 -17q-15 -31 -43 -47.5t-63 -16.5q-17 0 -30 4z" />
    <glyph glyph-name="odieresis" unicode="&#xf6;" horiz-adv-x="503" 
d="M102 38.5q-58 46.5 -69 128.5q-6 39 -6 92q0 59 7 95q11 79 69 125t150 46t149.5 -46t68.5 -124q7 -38 7 -95q0 -48 -5 -91q-11 -83 -69 -130t-151 -47t-151 46.5zM289.5 149.5q14.5 15.5 19.5 41.5q3 32 3 68q0 26 -4 70q-4 25 -18.5 39.5t-36.5 14.5q-23 0 -37.5 -14.5
t-18.5 -39.5q-4 -29 -4 -70q0 -36 3 -68q5 -26 19.5 -41.5t37.5 -15.5q22 0 36.5 15.5zM291.5 591.5q-24.5 24.5 -24.5 62.5q0 39 24.5 63t62.5 24t62 -24t24 -63q0 -38 -24.5 -62.5t-61.5 -24.5q-38 0 -62.5 24.5zM88.5 591.5q-24.5 24.5 -24.5 62.5q0 39 24.5 63t62.5 24
t62 -24t24 -63q0 -38 -24.5 -62.5t-61.5 -24.5q-38 0 -62.5 24.5z" />
    <glyph glyph-name="divide" unicode="&#xf7;" horiz-adv-x="459" 
d="M177 430q-22 22 -22 53q0 30 22 51.5t53 21.5q30 0 52 -21.5t22 -51.5q0 -31 -22 -53t-52 -22q-31 0 -53 22zM26.5 243.5q-3.5 3.5 -3.5 8.5v109q0 5 3.5 8.5t8.5 3.5h389q5 0 8.5 -3.5t3.5 -8.5v-109q0 -5 -3.5 -8.5t-8.5 -3.5h-389q-5 0 -8.5 3.5zM177 84
q-22 22 -22 53q0 30 22 52t53 22q30 0 52 -22t22 -52q0 -31 -22 -53t-52 -22q-31 0 -53 22z" />
    <glyph glyph-name="oslash" unicode="&#xf8;" horiz-adv-x="502" 
d="M444 428q19 -32 25 -73q7 -47 7 -95q0 -52 -6 -91q-11 -83 -68.5 -130t-150.5 -47q-39 0 -79 10q-4 1 -6 -3l-36 -58q-3 -4 -7.5 -5t-9.5 2l-91 64q-10 7 -4 17l40 62q2 3 0 6q-21 36 -27 80q-6 39 -6 92q0 56 6 95q12 79 70 125t150 46q41 0 79 -11q4 -1 6 3l37 59
q3 5 8 6t9 -3l91 -64q10 -7 4 -17l-41 -64q-1 -3 0 -6zM309 259q0 37 -3 70q-5 25 -19.5 39.5t-36.5 14.5q-23 0 -37 -14.5t-19 -39.5q-3 -33 -3 -70q0 -36 3 -68q4 -26 19 -41.5t38 -15.5q22 0 36.5 15.5t18.5 41.5q3 32 3 68z" />
    <glyph glyph-name="ugrave" unicode="&#xf9;" horiz-adv-x="502" 
d="M303.5 513.5q3.5 3.5 8.5 3.5h142q5 0 8.5 -3.5t3.5 -8.5v-493q0 -5 -3.5 -8.5t-8.5 -3.5h-142q-5 0 -8.5 3.5t-3.5 8.5v24q0 3 -2 3.5t-4 -2.5q-34 -45 -106 -45q-68 0 -111.5 42.5t-43.5 124.5v346q0 5 3.5 8.5t8.5 3.5h142q5 0 8.5 -3.5t3.5 -8.5v-309q0 -29 13 -45
t37 -16q21 0 34.5 12.5t16.5 35.5v322q0 5 3.5 8.5zM307 586q0 -8 -10 -8h-97q-8 0 -14 7l-76 100q-3 5 -3 8q0 7 10 7h117q10 0 15 -8l56 -100q2 -4 2 -6z" />
    <glyph glyph-name="uacute" unicode="&#xfa;" horiz-adv-x="502" 
d="M303.5 513.5q3.5 3.5 8.5 3.5h142q5 0 8.5 -3.5t3.5 -8.5v-493q0 -5 -3.5 -8.5t-8.5 -3.5h-142q-5 0 -8.5 3.5t-3.5 8.5v24q0 3 -2 3.5t-4 -2.5q-34 -45 -106 -45q-68 0 -111.5 42.5t-43.5 124.5v346q0 5 3.5 8.5t8.5 3.5h142q5 0 8.5 -3.5t3.5 -8.5v-309q0 -29 13 -45
t37 -16q21 0 34.5 12.5t16.5 35.5v322q0 5 3.5 8.5zM177 582q-2 4 1 10l56 100q5 8 15 8h117q10 0 10 -7q0 -3 -3 -8l-76 -100q-6 -7 -14 -7h-97q-7 0 -9 4z" />
    <glyph glyph-name="ucircumflex" unicode="&#xfb;" horiz-adv-x="502" 
d="M303.5 513.5q3.5 3.5 8.5 3.5h142q5 0 8.5 -3.5t3.5 -8.5v-493q0 -5 -3.5 -8.5t-8.5 -3.5h-142q-5 0 -8.5 3.5t-3.5 8.5v24q0 3 -2 3.5t-4 -2.5q-34 -45 -106 -45q-68 0 -111.5 42.5t-43.5 124.5v346q0 5 3.5 8.5t8.5 3.5h142q5 0 8.5 -3.5t3.5 -8.5v-309q0 -29 13 -45
t37 -16q21 0 34.5 12.5t16.5 35.5v322q0 5 3.5 8.5zM84.5 575.5q-2.5 3.5 1.5 10.5l68 106q5 8 14 8h157q9 0 14 -8l70 -105q2 -3 2 -7q0 -8 -9 -8h-107q-10 0 -15 8l-29 53q-3 5 -6 0l-29 -53q-5 -8 -15 -8h-107q-7 0 -9.5 3.5z" />
    <glyph glyph-name="udieresis" unicode="&#xfc;" horiz-adv-x="502" 
d="M303.5 513.5q3.5 3.5 8.5 3.5h142q5 0 8.5 -3.5t3.5 -8.5v-493q0 -5 -3.5 -8.5t-8.5 -3.5h-142q-5 0 -8.5 3.5t-3.5 8.5v24q0 3 -2 3.5t-4 -2.5q-34 -45 -106 -45q-68 0 -111.5 42.5t-43.5 124.5v346q0 5 3.5 8.5t8.5 3.5h142q5 0 8.5 -3.5t3.5 -8.5v-309q0 -29 13 -45
t37 -16q21 0 34.5 12.5t16.5 35.5v322q0 5 3.5 8.5zM288.5 591.5q-24.5 24.5 -24.5 62.5q0 39 24.5 63t62.5 24t62 -24t24 -63q0 -38 -24.5 -62.5t-61.5 -24.5q-38 0 -62.5 24.5zM85.5 591.5q-24.5 24.5 -24.5 62.5q0 39 24.5 63t62.5 24t62 -24t24 -63q0 -38 -24.5 -62.5
t-61.5 -24.5q-38 0 -62.5 24.5z" />
    <glyph glyph-name="yacute" unicode="&#xfd;" horiz-adv-x="481" 
d="M37 -195.5q-2 3.5 -2 8.5v112q0 5 3 8.5t7 3.5q59 0 84 12t29 48l-1 6l-143 502l-1 4q0 9 11 9h152q12 0 13 -11l50 -280q1 -3 3 -3t3 3l49 280q1 11 13 11l151 -1q6 0 8.5 -3.5t1.5 -9.5l-149 -514q-23 -75 -49 -113.5t-77 -57t-145 -18.5h-6q-3 0 -5 3.5zM167 588
q-2 4 1 10l56 100q5 8 15 8h117q10 0 10 -7q0 -3 -3 -8l-76 -100q-6 -7 -14 -7h-97q-7 0 -9 4z" />
    <glyph glyph-name="thorn" unicode="&#xfe;" horiz-adv-x="503" 
d="M467 367q4 -16 6.5 -47.5t2.5 -60.5q0 -76 -7 -103q-11 -77 -53.5 -120.5t-111.5 -43.5q-61 0 -98 44q-2 3 -4 2t-2 -4v-222q0 -5 -3.5 -8.5t-8.5 -3.5h-142q-5 0 -8.5 3.5t-3.5 8.5v876q0 5 3.5 8.5t8.5 3.5h142q5 0 8.5 -3.5t3.5 -8.5v-201q0 -3 2 -4t4 2q34 40 95 40
q69 0 111 -40.5t54 -111.5q0 -4 1 -6zM306 258q0 49 -7 81q-4 20 -17 32t-33 12q-18 0 -31 -11.5t-17 -29.5q-1 -2 -1 -6v-154q0 -4 1 -6q4 -19 17 -30.5t31 -11.5q20 0 33 12t17 33q7 32 7 79z" />
    <glyph glyph-name="ydieresis" unicode="&#xff;" horiz-adv-x="481" 
d="M37 -195.5q-2 3.5 -2 8.5v112q0 5 3 8.5t7 3.5q59 0 84 12t29 48l-1 6l-143 502l-1 4q0 9 11 9h152q12 0 13 -11l50 -280q1 -3 3 -3t3 3l49 280q1 11 13 11l151 -1q6 0 8.5 -3.5t1.5 -9.5l-149 -514q-23 -75 -49 -113.5t-77 -57t-145 -18.5h-6q-3 0 -5 3.5zM279.5 597.5
q-24.5 24.5 -24.5 62.5q0 39 24.5 63t62.5 24t62 -24t24 -63q0 -38 -24.5 -62.5t-61.5 -24.5q-38 0 -62.5 24.5zM76.5 597.5q-24.5 24.5 -24.5 62.5q0 39 24.5 63t62.5 24t62 -24t24 -63q0 -38 -24.5 -62.5t-61.5 -24.5q-38 0 -62.5 24.5z" />
    <glyph glyph-name="Amacron" unicode="&#x100;" horiz-adv-x="601" 
d="M409 11l-20 88q-1 4 -5 4h-169q-4 0 -5 -4l-20 -88q-2 -11 -13 -11h-147q-13 0 -10 13l179 677q3 10 14 10h175q11 0 14 -10l179 -677l1 -4q0 -9 -11 -9h-149q-11 0 -13 11zM245 231h107q2 0 4 1.5t1 4.5l-56 248q-1 4 -3 4t-3 -4l-55 -249q-1 -5 5 -5zM168.5 760.5
q-3.5 3.5 -3.5 8.5v87q0 5 3.5 8.5t8.5 3.5h241q5 0 8.5 -3.5t3.5 -8.5v-87q0 -5 -3.5 -8.5t-8.5 -3.5h-241q-5 0 -8.5 3.5z" />
    <glyph glyph-name="amacron" unicode="&#x101;" horiz-adv-x="495" 
d="M357 503q50 -22 78.5 -60.5t28.5 -87.5v-343q0 -5 -3.5 -8.5t-8.5 -3.5h-142q-5 0 -8.5 3.5t-3.5 8.5v29q0 3 -2 4t-4 -2q-35 -50 -116 -51q-69 0 -113.5 35t-44.5 117q0 87 52.5 124t153.5 37h69q5 0 5 5v22q0 23 -14 37t-39 14q-19 0 -31.5 -8.5t-17.5 -22.5
q-3 -11 -13 -10l-145 9q-12 2 -12 11q3 48 31.5 85t77 57.5t108.5 20.5q64 0 114 -22zM278.5 128.5q19.5 15.5 19.5 40.5v30q0 5 -5 5h-45q-29 0 -45.5 -12.5t-16.5 -35.5q0 -20 12.5 -31.5t33.5 -11.5q27 0 46.5 15.5zM116.5 577.5q-3.5 3.5 -3.5 8.5v87q0 5 3.5 8.5
t8.5 3.5h241q5 0 8.5 -3.5t3.5 -8.5v-87q0 -5 -3.5 -8.5t-8.5 -3.5h-241q-5 0 -8.5 3.5z" />
    <glyph glyph-name="Abreve" unicode="&#x102;" horiz-adv-x="601" 
d="M409 11l-20 88q-1 4 -5 4h-169q-4 0 -5 -4l-20 -88q-2 -11 -13 -11h-147q-13 0 -10 13l179 677q3 10 14 10h175q11 0 14 -10l179 -677l1 -4q0 -9 -11 -9h-149q-11 0 -13 11zM245 231h107q2 0 4 1.5t1 4.5l-56 248q-1 4 -3 4t-3 -4l-55 -249q-1 -5 5 -5zM197.5 765.5
q-40.5 32.5 -45.5 85.5v2q0 10 11 10h72q10 0 12 -11q4 -19 18 -30.5t34 -11.5q21 0 35 11.5t18 30.5q2 11 12 11h72q12 0 12 -11q-5 -53 -46 -86t-103 -33q-61 0 -101.5 32.5z" />
    <glyph glyph-name="abreve" unicode="&#x103;" horiz-adv-x="495" 
d="M357 503q50 -22 78.5 -60.5t28.5 -87.5v-343q0 -5 -3.5 -8.5t-8.5 -3.5h-142q-5 0 -8.5 3.5t-3.5 8.5v29q0 3 -2 4t-4 -2q-35 -50 -116 -51q-69 0 -113.5 35t-44.5 117q0 87 52.5 124t153.5 37h69q5 0 5 5v22q0 23 -14 37t-39 14q-19 0 -31.5 -8.5t-17.5 -22.5
q-3 -11 -13 -10l-145 9q-12 2 -12 11q3 48 31.5 85t77 57.5t108.5 20.5q64 0 114 -22zM278.5 128.5q19.5 15.5 19.5 40.5v30q0 5 -5 5h-45q-29 0 -45.5 -12.5t-16.5 -35.5q0 -20 12.5 -31.5t33.5 -11.5q27 0 46.5 15.5zM145.5 583.5q-40.5 32.5 -45.5 85.5v2q0 10 11 10h72
q10 0 12 -11q4 -19 18 -30.5t34 -11.5q21 0 35 11.5t18 30.5q2 11 12 11h72q12 0 12 -11q-5 -53 -46 -86t-103 -33q-61 0 -101.5 32.5z" />
    <glyph glyph-name="Aogonek" unicode="&#x104;" horiz-adv-x="601" 
d="M409 11l-20 88q-1 4 -5 4h-169q-4 0 -5 -4l-20 -88q-2 -11 -13 -11h-147q-13 0 -10 13l179 677q3 10 14 10h175q11 0 14 -10l179 -677l1 -4q0 -9 -11 -9h-149q-11 0 -13 11zM245 231h107q2 0 4 1.5t1 4.5l-56 248q-1 4 -3 4t-3 -4l-55 -249q-1 -5 5 -5zM584 -173
q0 -8 -9 -11q-30 -10 -60 -10q-34 0 -60 14.5t-35 49.5q-3 12 -3 25q0 51 49 97l4 4t12 4h79q10 0 10 -6q0 -5 -6 -9q-23 -19 -34 -37t-7 -32q6 -20 26 -20q3 0 11 2q2 1 6 1q8 0 9 -9l8 -60v-3z" />
    <glyph glyph-name="aogonek" unicode="&#x105;" horiz-adv-x="495" 
d="M456 -6q-53 -39 -53 -69q0 -6 1 -9q4 -20 25 -20q3 0 11 2q2 1 6 1q8 0 9 -9l8 -60v-3q0 -8 -9 -11q-30 -10 -60 -10q-34 0 -59.5 14.5t-34.5 49.5q-4 18 -4 27q0 51 50 97q2 2 1.5 4t-3.5 2h-34q-5 0 -8.5 3.5t-3.5 8.5v29q0 3 -2 4t-4 -2q-35 -50 -116 -51
q-69 0 -113.5 35t-44.5 117q0 87 52.5 124t153.5 37h69q5 0 5 5v22q0 23 -14 37t-39 14q-19 0 -31.5 -8.5t-17.5 -22.5q-3 -11 -13 -10l-145 9q-12 2 -11 13q3 47 31.5 84t76.5 57t108 20q64 0 114 -22t78.5 -60.5t28.5 -87.5v-346q0 -10 -8 -15zM278.5 128.5
q19.5 15.5 19.5 40.5v30q0 5 -5 5h-45q-29 0 -45.5 -12.5t-16.5 -35.5q0 -20 12.5 -31.5t33.5 -11.5q27 0 46.5 15.5z" />
    <glyph glyph-name="Cacute" unicode="&#x106;" horiz-adv-x="539" 
d="M145.5 20q-54.5 28 -84 80t-29.5 120v262q0 68 29.5 119t84 79t125.5 28t125.5 -27t84 -77t29.5 -116v-4q0 -5 -3.5 -9t-8.5 -4l-142 -6q-12 0 -12 11v14q0 34 -20 55t-53 21t-53 -21t-20 -55v-280q0 -34 20 -55t53 -21t53 21t20 55v14q0 11 12 11l142 -6q5 0 8.5 -4
t3.5 -9v-2q0 -66 -29.5 -116.5t-84 -78t-125.5 -27.5t-125.5 28zM199 765q-2 4 1 10l56 100q5 8 15 8h117q10 0 10 -7q0 -3 -3 -8l-76 -100q-6 -7 -14 -7h-97q-7 0 -9 4z" />
    <glyph glyph-name="cacute" unicode="&#x107;" horiz-adv-x="494" 
d="M107 35.5q-57 43.5 -71 120.5q-9 45 -9 104q0 57 9 104q14 74 71.5 117.5t145.5 43.5q85 0 143 -42t72 -113q2 -10 4 -32v-2q0 -9 -11 -11l-141 -14h-3q-7 0 -9 8v6l-3 16q-5 19 -18.5 30.5t-34.5 11.5q-42 0 -53 -47q-5 -25 -5 -76q0 -56 6 -81q5 -21 18 -33t34 -12
q23 0 36 12.5t16 32.5q2 10 2 15q2 13 13 11l141 -12q12 -2 11 -13q0 -9 -2 -23q-11 -78 -69 -121.5t-147 -43.5t-146 43.5zM178 582q-2 4 1 10l56 100q5 8 15 8h117q10 0 10 -7q0 -3 -3 -8l-76 -100q-6 -7 -14 -7h-97q-7 0 -9 4z" />
    <glyph glyph-name="Ccircumflex" unicode="&#x108;" horiz-adv-x="539" 
d="M145.5 20q-54.5 28 -84 80t-29.5 120v262q0 68 29.5 119t84 79t125.5 28t125.5 -27t84 -77t29.5 -116v-4q0 -5 -3.5 -9t-8.5 -4l-142 -6q-12 0 -12 11v14q0 34 -20 55t-53 21t-53 -21t-20 -55v-280q0 -34 20 -55t53 -21t53 21t20 55v14q0 11 12 11l142 -6q5 0 8.5 -4
t3.5 -9v-2q0 -66 -29.5 -116.5t-84 -78t-125.5 -27.5t-125.5 28zM106.5 758.5q-2.5 3.5 1.5 10.5l68 106q5 8 14 8h157q9 0 14 -8l70 -105q2 -3 2 -7q0 -8 -9 -8h-107q-10 0 -15 8l-29 53q-3 5 -6 0l-29 -53q-5 -8 -15 -8h-107q-7 0 -9.5 3.5z" />
    <glyph glyph-name="ccircumflex" unicode="&#x109;" horiz-adv-x="494" 
d="M107 35.5q-57 43.5 -71 120.5q-9 45 -9 104q0 57 9 104q14 74 71.5 117.5t145.5 43.5q85 0 143 -42t72 -113q2 -10 4 -32v-2q0 -9 -11 -11l-141 -14h-3q-7 0 -9 8v6l-3 16q-5 19 -18.5 30.5t-34.5 11.5q-42 0 -53 -47q-5 -25 -5 -76q0 -56 6 -81q5 -21 18 -33t34 -12
q23 0 36 12.5t16 32.5q2 10 2 15q2 13 13 11l141 -12q12 -2 11 -13q0 -9 -2 -23q-11 -78 -69 -121.5t-147 -43.5t-146 43.5zM86.5 575.5q-2.5 3.5 1.5 10.5l68 106q5 8 14 8h157q9 0 14 -8l70 -105q2 -3 2 -7q0 -8 -9 -8h-107q-10 0 -15 8l-29 53q-3 5 -6 0l-29 -53
q-5 -8 -15 -8h-107q-7 0 -9.5 3.5z" />
    <glyph glyph-name="Cdotaccent" unicode="&#x10a;" horiz-adv-x="539" 
d="M145.5 20q-54.5 28 -84 80t-29.5 120v262q0 68 29.5 119t84 79t125.5 28t125.5 -27t84 -77t29.5 -116v-4q0 -5 -3.5 -9t-8.5 -4l-142 -6q-12 0 -12 11v14q0 34 -20 55t-53 21t-53 -21t-20 -55v-280q0 -34 20 -55t53 -21t53 21t20 55v14q0 11 12 11l142 -6q5 0 8.5 -4
t3.5 -9v-2q0 -66 -29.5 -116.5t-84 -78t-125.5 -27.5t-125.5 28zM209.5 770.5q-24.5 24.5 -24.5 62.5q0 39 24.5 63t62.5 24t62 -24t24 -63q0 -38 -24.5 -62.5t-61.5 -24.5q-38 0 -62.5 24.5z" />
    <glyph glyph-name="cdotaccent" unicode="&#x10b;" horiz-adv-x="494" 
d="M107 35.5q-57 43.5 -71 120.5q-9 45 -9 104q0 57 9 104q14 74 71.5 117.5t145.5 43.5q85 0 143 -42t72 -113q2 -10 4 -32v-2q0 -9 -11 -11l-141 -14h-3q-7 0 -9 8v6l-3 16q-5 19 -18.5 30.5t-34.5 11.5q-42 0 -53 -47q-5 -25 -5 -76q0 -56 6 -81q5 -21 18 -33t34 -12
q23 0 36 12.5t16 32.5q2 10 2 15q2 13 13 11l141 -12q12 -2 11 -13q0 -9 -2 -23q-11 -78 -69 -121.5t-147 -43.5t-146 43.5zM188.5 587.5q-24.5 24.5 -24.5 62.5q0 39 24.5 63t62.5 24t62 -24t24 -63q0 -38 -24.5 -62.5t-61.5 -24.5q-38 0 -62.5 24.5z" />
    <glyph glyph-name="Ccaron" unicode="&#x10c;" horiz-adv-x="539" 
d="M145.5 20q-54.5 28 -84 80t-29.5 120v262q0 68 29.5 119t84 79t125.5 28t125.5 -27t84 -77t29.5 -116v-4q0 -5 -3.5 -9t-8.5 -4l-142 -6q-12 0 -12 11v14q0 34 -20 55t-53 21t-53 -21t-20 -55v-280q0 -34 20 -55t53 -21t53 21t20 55v14q0 11 12 11l142 -6q5 0 8.5 -4
t3.5 -9v-2q0 -66 -29.5 -116.5t-84 -78t-125.5 -27.5t-125.5 28zM114 876q0 7 10 7h107q10 0 15 -8l29 -53q3 -4 6 0l29 53q5 8 15 8h107q7 0 9 -4.5t-2 -10.5l-70 -105q-5 -8 -14 -8h-157q-9 0 -14 8l-68 106q-2 6 -2 7z" />
    <glyph glyph-name="ccaron" unicode="&#x10d;" horiz-adv-x="494" 
d="M107 35.5q-57 43.5 -71 120.5q-9 45 -9 104q0 57 9 104q14 74 71.5 117.5t145.5 43.5q85 0 143 -42t72 -113q2 -10 4 -32v-2q0 -9 -11 -11l-141 -14h-3q-7 0 -9 8v6l-3 16q-5 19 -18.5 30.5t-34.5 11.5q-42 0 -53 -47q-5 -25 -5 -76q0 -56 6 -81q5 -21 18 -33t34 -12
q23 0 36 12.5t16 32.5q2 10 2 15q2 13 13 11l141 -12q12 -2 11 -13q0 -9 -2 -23q-11 -78 -69 -121.5t-147 -43.5t-146 43.5zM93 693q0 7 10 7h107q10 0 15 -8l29 -53q3 -4 6 0l29 53q5 8 15 8h107q7 0 9 -4.5t-2 -10.5l-70 -105q-5 -8 -14 -8h-157q-9 0 -14 8l-68 106
q-2 6 -2 7z" />
    <glyph glyph-name="Dcaron" unicode="&#x10e;" horiz-adv-x="549" 
d="M45.5 3.5q-3.5 3.5 -3.5 8.5v676q0 5 3.5 8.5t8.5 3.5h223q71 0 125 -26t83.5 -73t29.5 -109v-284q0 -62 -29.5 -109t-83.5 -73t-125 -26h-223q-5 0 -8.5 3.5zM213 142l66 1q30 0 49.5 23t20.5 62v245q0 38 -19.5 61.5t-51.5 23.5h-65q-5 0 -5 -5v-406q0 -5 5 -5z
M106 875q0 7 10 7h107q10 0 15 -8l29 -53q3 -4 6 0l29 53q5 8 15 8h107q7 0 9 -4.5t-2 -10.5l-70 -105q-5 -8 -14 -8h-157q-9 0 -14 8l-68 106q-2 6 -2 7z" />
    <glyph glyph-name="dcaron" unicode="&#x10f;" horiz-adv-x="513" 
d="M313.5 696.5q3.5 3.5 8.5 3.5h142q5 0 8.5 -3.5t3.5 -8.5v-676q0 -5 -3.5 -8.5t-8.5 -3.5h-142q-5 0 -8.5 3.5t-3.5 8.5v17q0 3 -2 3.5t-4 -1.5q-36 -39 -103 -39q-62 0 -101 43.5t-55 121.5q-9 42 -9 110q0 56 8 99q15 76 54.5 117.5t103.5 41.5q68 0 102 -37
q2 -2 4 -1.5t2 3.5v198q0 5 3.5 8.5zM310 260q0 46 -5 73q-4 23 -16.5 36.5t-32.5 13.5q-18 0 -31 -13t-18 -36q-5 -21 -5 -55q0 -63 4 -92q5 -24 17.5 -38.5t32.5 -14.5q19 0 31.5 14.5t17.5 38.5q5 23 5 73zM499 582q-2 4 1 10l56 100q5 8 15 8h117q10 0 10 -7q0 -3 -3 -8
l-76 -100q-6 -7 -14 -7h-97q-7 0 -9 4z" />
    <glyph glyph-name="Dcroat" unicode="&#x110;" horiz-adv-x="585" 
d="M438 674q54 -26 83.5 -73t29.5 -109v-284q0 -62 -29.5 -109t-83.5 -73t-125 -26h-223q-5 0 -8.5 3.5t-3.5 8.5v295q0 5 -5 5h-19q-5 0 -8.5 3.5t-3.5 8.5v78q0 5 3.5 8.5t8.5 3.5h19q5 0 5 5v269q0 5 3.5 8.5t8.5 3.5h223q71 0 125 -26zM385 473q0 38 -19.5 61.5
t-51.5 23.5h-65q-5 0 -5 -5v-134q0 -5 5 -5h46q5 0 8.5 -3.5t3.5 -8.5v-78q0 -5 -3.5 -8.5t-8.5 -3.5h-46q-5 0 -5 -5v-160q0 -5 5 -5l66 1q30 0 49.5 23t20.5 62v245z" />
    <glyph glyph-name="dcroat" unicode="&#x111;" horiz-adv-x="513" 
d="M512.5 646.5q3.5 -3.5 3.5 -8.5v-74q0 -5 -3.5 -8.5t-8.5 -3.5h-23q-5 0 -5 -5v-535q0 -5 -3.5 -8.5t-8.5 -3.5h-142q-5 0 -8.5 3.5t-3.5 8.5v17q0 3 -2 3.5t-4 -1.5q-36 -39 -103 -39q-62 0 -101 43.5t-55 121.5q-9 42 -9 110q0 56 8 99q15 76 54.5 117.5t103.5 41.5
q68 0 102 -37q2 -2 4 -1.5t2 3.5v57q0 5 -5 5h-106q-5 0 -8.5 3.5t-3.5 8.5v74q0 5 3.5 8.5t8.5 3.5h106q5 0 5 5v33q0 5 3.5 8.5t8.5 3.5h142q5 0 8.5 -3.5t3.5 -8.5v-33q0 -5 5 -5h23q5 0 8.5 -3.5zM310 260q0 46 -5 73q-4 23 -16.5 36.5t-32.5 13.5q-18 0 -31 -13
t-18 -36q-5 -21 -5 -55q0 -63 4 -92q5 -24 17.5 -38.5t32.5 -14.5q19 0 31.5 14.5t17.5 38.5q5 23 5 73z" />
    <glyph glyph-name="Emacron" unicode="&#x112;" horiz-adv-x="509" 
d="M479.5 561.5q-3.5 -3.5 -8.5 -3.5h-258q-5 0 -5 -5v-125q0 -5 5 -5h156q5 0 8.5 -3.5t3.5 -8.5v-118q0 -5 -3.5 -8.5t-8.5 -3.5h-156q-5 0 -5 -5v-129q0 -5 5 -5h258q5 0 8.5 -3.5t3.5 -8.5v-118q0 -5 -3.5 -8.5t-8.5 -3.5h-417q-5 0 -8.5 3.5t-3.5 8.5v676q0 5 3.5 8.5
t8.5 3.5h417q5 0 8.5 -3.5t3.5 -8.5v-118q0 -5 -3.5 -8.5zM130.5 760.5q-3.5 3.5 -3.5 8.5v87q0 5 3.5 8.5t8.5 3.5h241q5 0 8.5 -3.5t3.5 -8.5v-87q0 -5 -3.5 -8.5t-8.5 -3.5h-241q-5 0 -8.5 3.5z" />
    <glyph glyph-name="emacron" unicode="&#x113;" horiz-adv-x="497" 
d="M476 264l-1 -40q0 -12 -12 -12h-262q-4 0 -4 -4q0 -11 4 -29q5 -21 19.5 -33t37.5 -12q42 0 57 34q4 10 15 8l128 -25q14 -2 9 -14q-24 -71 -76.5 -108t-129.5 -37q-187 0 -223 163q-9 39 -9 119q0 47 6 78q11 79 69 126t146 47q96 0 156.5 -54t67.5 -142q2 -42 2 -65z
M217.5 370.5q-13.5 -12.5 -18.5 -34.5l-3 -28q0 -5 5 -5h102q5 0 5 5q-2 18 -4 28q-3 21 -17 34t-35 13t-34.5 -12.5zM117.5 587.5q-3.5 3.5 -3.5 8.5v87q0 5 3.5 8.5t8.5 3.5h240q5 0 8.5 -3.5t3.5 -8.5v-87q0 -5 -3.5 -8.5t-8.5 -3.5h-240q-5 0 -8.5 3.5z" />
    <glyph glyph-name="Edotaccent" unicode="&#x116;" horiz-adv-x="509" 
d="M479.5 561.5q-3.5 -3.5 -8.5 -3.5h-258q-5 0 -5 -5v-125q0 -5 5 -5h156q5 0 8.5 -3.5t3.5 -8.5v-118q0 -5 -3.5 -8.5t-8.5 -3.5h-156q-5 0 -5 -5v-129q0 -5 5 -5h258q5 0 8.5 -3.5t3.5 -8.5v-118q0 -5 -3.5 -8.5t-8.5 -3.5h-417q-5 0 -8.5 3.5t-3.5 8.5v676q0 5 3.5 8.5
t8.5 3.5h417q5 0 8.5 -3.5t3.5 -8.5v-118q0 -5 -3.5 -8.5zM199.5 770.5q-24.5 24.5 -24.5 62.5q0 39 24.5 63t62.5 24t62 -24t24 -63q0 -38 -24.5 -62.5t-61.5 -24.5q-38 0 -62.5 24.5z" />
    <glyph glyph-name="edotaccent" unicode="&#x117;" horiz-adv-x="497" 
d="M476 264l-1 -40q0 -12 -12 -12h-262q-4 0 -4 -4q0 -11 4 -29q5 -21 19.5 -33t37.5 -12q42 0 57 34q4 10 15 8l128 -25q14 -2 9 -14q-24 -71 -76.5 -108t-129.5 -37q-187 0 -223 163q-9 39 -9 119q0 47 6 78q11 79 69 126t146 47q96 0 156.5 -54t67.5 -142q2 -42 2 -65z
M217.5 370.5q-13.5 -12.5 -18.5 -34.5l-3 -28q0 -5 5 -5h102q5 0 5 5q-2 18 -4 28q-3 21 -17 34t-35 13t-34.5 -12.5zM186.5 587.5q-24.5 24.5 -24.5 62.5q0 39 24.5 63t62.5 24t62 -24t24 -63q0 -38 -24.5 -62.5t-61.5 -24.5q-38 0 -62.5 24.5z" />
    <glyph glyph-name="Eogonek" unicode="&#x118;" horiz-adv-x="509" 
d="M479.5 561.5q-3.5 -3.5 -8.5 -3.5h-258q-5 0 -5 -5v-125q0 -5 5 -5h156q5 0 8.5 -3.5t3.5 -8.5v-118q0 -5 -3.5 -8.5t-8.5 -3.5h-156q-5 0 -5 -5v-129q0 -5 5 -5h258q5 0 8.5 -3.5t3.5 -8.5v-118q0 -5 -3.5 -8.5t-8.5 -3.5h-154q-2 0 -6 -2q-19 -16 -30 -31.5t-11 -28.5
q0 -6 1 -9q4 -20 25 -20q3 0 11 2q2 1 6 1q8 0 9 -9l8 -60v-3q0 -8 -9 -11q-30 -10 -60 -10q-34 0 -59.5 14.5t-34.5 49.5q-4 18 -4 27q0 42 37 84q2 2 1.5 4t-3.5 2h-144q-5 0 -8.5 3.5t-3.5 8.5v676q0 5 3.5 8.5t8.5 3.5h417q5 0 8.5 -3.5t3.5 -8.5v-118q0 -5 -3.5 -8.5z
" />
    <glyph glyph-name="eogonek" unicode="&#x119;" horiz-adv-x="497" 
d="M476 264l-1 -40q0 -12 -12 -12h-262q-4 0 -4 -4q0 -11 4 -29q5 -21 19.5 -33t37.5 -12q42 0 57 34q4 10 15 8l128 -25q14 -2 9 -14q-20 -58 -58.5 -94t-94.5 -46l-6 -3q-23 -19 -34.5 -37.5t-7.5 -32.5q6 -20 26 -20q3 0 11 2q2 1 6 1q8 0 9 -9l8 -60v-3q0 -8 -9 -11
q-30 -10 -60 -10q-34 0 -60 14.5t-35 49.5q-3 12 -3 26q0 45 39 87q2 2 1.5 4t-3.5 2q-128 26 -158 158q-9 39 -9 119q0 47 6 78q11 79 69 126t146 47q96 0 156.5 -54t67.5 -142q2 -42 2 -65zM217.5 370.5q-13.5 -12.5 -18.5 -34.5l-3 -28q0 -5 5 -5h102q5 0 5 5
q-2 18 -4 28q-3 21 -17 34t-35 13t-34.5 -12.5z" />
    <glyph glyph-name="Ecaron" unicode="&#x11a;" horiz-adv-x="509" 
d="M479.5 561.5q-3.5 -3.5 -8.5 -3.5h-258q-5 0 -5 -5v-125q0 -5 5 -5h156q5 0 8.5 -3.5t3.5 -8.5v-118q0 -5 -3.5 -8.5t-8.5 -3.5h-156q-5 0 -5 -5v-129q0 -5 5 -5h258q5 0 8.5 -3.5t3.5 -8.5v-118q0 -5 -3.5 -8.5t-8.5 -3.5h-417q-5 0 -8.5 3.5t-3.5 8.5v676q0 5 3.5 8.5
t8.5 3.5h417q5 0 8.5 -3.5t3.5 -8.5v-118q0 -5 -3.5 -8.5zM104 876q0 7 10 7h107q10 0 15 -8l29 -53q3 -4 6 0l29 53q5 8 15 8h107q7 0 9 -4.5t-2 -10.5l-70 -105q-5 -8 -14 -8h-157q-9 0 -14 8l-68 106q-2 6 -2 7z" />
    <glyph glyph-name="ecaron" unicode="&#x11b;" horiz-adv-x="497" 
d="M476 264l-1 -40q0 -12 -12 -12h-262q-4 0 -4 -4q0 -11 4 -29q5 -21 19.5 -33t37.5 -12q42 0 57 34q4 10 15 8l128 -25q14 -2 9 -14q-24 -71 -76.5 -108t-129.5 -37q-187 0 -223 163q-9 39 -9 119q0 47 6 78q11 79 69 126t146 47q96 0 156.5 -54t67.5 -142q2 -42 2 -65z
M217.5 370.5q-13.5 -12.5 -18.5 -34.5l-3 -28q0 -5 5 -5h102q5 0 5 5q-2 18 -4 28q-3 21 -17 34t-35 13t-34.5 -12.5zM89 693q0 7 10 7h107q10 0 15 -8l29 -53q3 -4 6 0l29 53q5 8 15 8h107q7 0 9 -4.5t-2 -10.5l-70 -105q-5 -8 -14 -8h-157q-9 0 -14 8l-68 106q-2 6 -2 7z
" />
    <glyph glyph-name="Gcircumflex" unicode="&#x11c;" horiz-adv-x="542" 
d="M146 20q-54 28 -84 79.5t-30 118.5v264q0 68 30 119t84 79t125 28q70 0 124.5 -27.5t84.5 -76t30 -110.5v-21q0 -5 -3.5 -8.5t-8.5 -3.5h-142q-5 0 -8.5 3.5t-3.5 8.5v19q0 32 -19.5 53t-53.5 21q-33 0 -53 -22.5t-20 -58.5v-270q0 -36 22 -58.5t55 -22.5q32 0 51.5 19.5
t19.5 52.5v46q0 5 -5 5h-64q-5 0 -8.5 3.5t-3.5 8.5v108q0 5 3.5 8.5t8.5 3.5h221q5 0 8.5 -3.5t3.5 -8.5v-161q0 -67 -30 -118t-84 -78.5t-125 -27.5t-125 28zM106.5 761.5q-2.5 3.5 1.5 10.5l68 106q5 8 14 8h157q9 0 14 -8l70 -105q2 -3 2 -7q0 -8 -9 -8h-107
q-10 0 -15 8l-29 53q-3 5 -6 0l-29 -53q-5 -8 -15 -8h-107q-7 0 -9.5 3.5z" />
    <glyph glyph-name="gcircumflex" unicode="&#x11d;" horiz-adv-x="507" 
d="M310.5 513.5q3.5 3.5 8.5 3.5h142q5 0 8.5 -3.5t3.5 -8.5v-461q0 -125 -70.5 -185.5t-199.5 -60.5q-38 0 -70 4q-12 0 -12 12l4 122q0 13 13 11q27 -3 50 -3q62 0 90.5 26t28.5 82l-7 -8q-34 -40 -97 -40q-66 0 -111 37.5t-58 114.5q-8 28 -8 105q0 28 2.5 59.5t6.5 47.5
q1 2 1 6q12 71 54.5 111t109.5 40q65 0 101 -45q2 -3 4 -2t2 4v23q0 5 3.5 8.5zM307 261q0 49 -5 76q-4 21 -17.5 33.5t-34.5 12.5q-19 0 -31.5 -12.5t-17.5 -32.5q-8 -37 -8 -78q0 -42 6 -75q5 -21 18.5 -33t33.5 -12q21 0 34.5 12t17.5 33q4 29 4 76zM96.5 575.5
q-2.5 3.5 1.5 10.5l68 106q5 8 14 8h157q9 0 14 -8l70 -105q2 -3 2 -7q0 -8 -9 -8h-107q-10 0 -15 8l-29 53q-3 5 -6 0l-29 -53q-5 -8 -15 -8h-107q-7 0 -9.5 3.5z" />
    <glyph glyph-name="Gbreve" unicode="&#x11e;" horiz-adv-x="542" 
d="M146 20q-54 28 -84 79.5t-30 118.5v264q0 68 30 119t84 79t125 28q70 0 124.5 -27.5t84.5 -76t30 -110.5v-21q0 -5 -3.5 -8.5t-8.5 -3.5h-142q-5 0 -8.5 3.5t-3.5 8.5v19q0 32 -19.5 53t-53.5 21q-33 0 -53 -22.5t-20 -58.5v-270q0 -36 22 -58.5t55 -22.5q32 0 51.5 19.5
t19.5 52.5v46q0 5 -5 5h-64q-5 0 -8.5 3.5t-3.5 8.5v108q0 5 3.5 8.5t8.5 3.5h221q5 0 8.5 -3.5t3.5 -8.5v-161q0 -67 -30 -118t-84 -78.5t-125 -27.5t-125 28zM169.5 769.5q-40.5 32.5 -45.5 85.5v2q0 10 11 10h72q10 0 12 -11q4 -19 18 -30.5t34 -11.5q21 0 35 11.5
t18 30.5q2 11 12 11h72q12 0 12 -11q-5 -53 -46 -86t-103 -33q-61 0 -101.5 32.5z" />
    <glyph glyph-name="gbreve" unicode="&#x11f;" horiz-adv-x="507" 
d="M310.5 513.5q3.5 3.5 8.5 3.5h142q5 0 8.5 -3.5t3.5 -8.5v-461q0 -125 -70.5 -185.5t-199.5 -60.5q-38 0 -70 4q-12 0 -12 12l4 122q0 13 13 11q27 -3 50 -3q62 0 90.5 26t28.5 82l-7 -8q-34 -40 -97 -40q-66 0 -111 37.5t-58 114.5q-8 28 -8 105q0 28 2.5 59.5t6.5 47.5
q1 2 1 6q12 71 54.5 111t109.5 40q65 0 101 -45q2 -3 4 -2t2 4v23q0 5 3.5 8.5zM307 261q0 49 -5 76q-4 21 -17.5 33.5t-34.5 12.5q-19 0 -31.5 -12.5t-17.5 -32.5q-8 -37 -8 -78q0 -42 6 -75q5 -21 18.5 -33t33.5 -12q21 0 34.5 12t17.5 33q4 29 4 76zM159.5 583.5
q-40.5 32.5 -45.5 85.5v2q0 10 11 10h72q10 0 12 -11q4 -19 18 -30.5t34 -11.5q21 0 35 11.5t18 30.5q2 11 12 11h72q12 0 12 -11q-5 -53 -46 -86t-103 -33q-61 0 -101.5 32.5z" />
    <glyph glyph-name="Gdotaccent" unicode="&#x120;" horiz-adv-x="542" 
d="M146 20q-54 28 -84 79.5t-30 118.5v264q0 68 30 119t84 79t125 28q70 0 124.5 -27.5t84.5 -76t30 -110.5v-21q0 -5 -3.5 -8.5t-8.5 -3.5h-142q-5 0 -8.5 3.5t-3.5 8.5v19q0 32 -19.5 53t-53.5 21q-33 0 -53 -22.5t-20 -58.5v-270q0 -36 22 -58.5t55 -22.5q32 0 51.5 19.5
t19.5 52.5v46q0 5 -5 5h-64q-5 0 -8.5 3.5t-3.5 8.5v108q0 5 3.5 8.5t8.5 3.5h221q5 0 8.5 -3.5t3.5 -8.5v-161q0 -67 -30 -118t-84 -78.5t-125 -27.5t-125 28zM209.5 773.5q-24.5 24.5 -24.5 62.5q0 39 24.5 63t62.5 24t62 -24t24 -63q0 -38 -24.5 -62.5t-61.5 -24.5
q-38 0 -62.5 24.5z" />
    <glyph glyph-name="gdotaccent" unicode="&#x121;" horiz-adv-x="507" 
d="M310.5 513.5q3.5 3.5 8.5 3.5h142q5 0 8.5 -3.5t3.5 -8.5v-461q0 -125 -70.5 -185.5t-199.5 -60.5q-38 0 -70 4q-12 0 -12 12l4 122q0 13 13 11q27 -3 50 -3q62 0 90.5 26t28.5 82l-7 -8q-34 -40 -97 -40q-66 0 -111 37.5t-58 114.5q-8 28 -8 105q0 28 2.5 59.5t6.5 47.5
q1 2 1 6q12 71 54.5 111t109.5 40q65 0 101 -45q2 -3 4 -2t2 4v23q0 5 3.5 8.5zM307 261q0 49 -5 76q-4 21 -17.5 33.5t-34.5 12.5q-19 0 -31.5 -12.5t-17.5 -32.5q-8 -37 -8 -78q0 -42 6 -75q5 -21 18.5 -33t33.5 -12q21 0 34.5 12t17.5 33q4 29 4 76zM199.5 587.5
q-24.5 24.5 -24.5 62.5q0 39 24.5 63t62.5 24t62 -24t24 -63q0 -38 -24.5 -62.5t-61.5 -24.5q-38 0 -62.5 24.5z" />
    <glyph glyph-name="uni0122" unicode="&#x122;" horiz-adv-x="542" 
d="M146 20q-54 28 -84 79.5t-30 118.5v264q0 68 30 119t84 79t125 28q70 0 124.5 -27.5t84.5 -76t30 -110.5v-21q0 -5 -3.5 -8.5t-8.5 -3.5h-142q-5 0 -8.5 3.5t-3.5 8.5v19q0 32 -19.5 53t-53.5 21q-33 0 -53 -22.5t-20 -58.5v-270q0 -36 22 -58.5t55 -22.5q32 0 51.5 19.5
t19.5 52.5v46q0 5 -5 5h-64q-5 0 -8.5 3.5t-3.5 8.5v108q0 5 3.5 8.5t8.5 3.5h221q5 0 8.5 -3.5t3.5 -8.5v-161q0 -67 -30 -118t-84 -78.5t-125 -27.5t-125 28zM157 -172q-2 4 1 10l56 100q5 8 15 8h117q10 0 10 -7q0 -3 -3 -8l-76 -100q-6 -7 -14 -7h-97q-7 0 -9 4z" />
    <glyph glyph-name="uni0123" unicode="&#x123;" horiz-adv-x="507" 
d="M373 681q2 -4 -1 -10l-55 -100q-5 -8 -15 -8h-118q-10 0 -10 7q0 4 3 8l76 100q6 7 15 7h96q7 0 9 -4zM310.5 513.5q3.5 3.5 8.5 3.5h142q5 0 8.5 -3.5t3.5 -8.5v-461q0 -125 -70.5 -185.5t-199.5 -60.5q-38 0 -70 4q-12 0 -12 12l4 122q0 13 13 11q27 -3 50 -3
q62 0 90.5 26t28.5 82l-7 -8q-34 -40 -97 -40q-66 0 -111 37.5t-58 114.5q-8 28 -8 105q0 28 2.5 59.5t6.5 47.5q1 2 1 6q12 71 54.5 111t109.5 40q65 0 101 -45q2 -3 4 -2t2 4v23q0 5 3.5 8.5zM307 261q0 49 -5 76q-4 21 -17.5 33.5t-34.5 12.5q-19 0 -31.5 -12.5
t-17.5 -32.5q-8 -37 -8 -78q0 -42 6 -75q5 -21 18.5 -33t33.5 -12q21 0 34.5 12t17.5 33q4 29 4 76z" />
    <glyph glyph-name="Hcircumflex" unicode="&#x124;" horiz-adv-x="551" 
d="M350.5 696.5q3.5 3.5 8.5 3.5h142q5 0 8.5 -3.5t3.5 -8.5v-676q0 -5 -3.5 -8.5t-8.5 -3.5h-142q-5 0 -8.5 3.5t-3.5 8.5v264q0 5 -5 5h-129q-5 0 -5 -5v-264q0 -5 -3.5 -8.5t-8.5 -3.5h-142q-5 0 -8.5 3.5t-3.5 8.5v676q0 5 3.5 8.5t8.5 3.5h142q5 0 8.5 -3.5t3.5 -8.5
v-260q0 -5 5 -5h129q5 0 5 5v260q0 5 3.5 8.5zM113.5 759.5q-2.5 3.5 1.5 10.5l68 106q5 8 14 8h157q9 0 14 -8l70 -105q2 -3 2 -7q0 -8 -9 -8h-107q-10 0 -15 8l-29 53q-3 5 -6 0l-29 -53q-5 -8 -15 -8h-107q-7 0 -9.5 3.5z" />
    <glyph glyph-name="hcircumflex" unicode="&#x125;" horiz-adv-x="502" 
d="M428 477.5q42 -47.5 42 -132.5v-333q0 -5 -3.5 -8.5t-8.5 -3.5h-142q-5 0 -8.5 3.5t-3.5 8.5v309q0 28 -14 45t-37 17t-37 -17t-14 -45v-309q0 -5 -3.5 -8.5t-8.5 -3.5h-142q-5 0 -8.5 3.5t-3.5 8.5v676q0 5 3.5 8.5t8.5 3.5h142q5 0 8.5 -3.5t3.5 -8.5v-211
q0 -3 2.5 -3.5t4.5 3.5q36 48 102 48q75 0 117 -47.5zM96.5 754.5q-2.5 3.5 1.5 10.5l68 106q5 8 14 8h157q9 0 14 -8l70 -105q2 -3 2 -7q0 -8 -9 -8h-107q-10 0 -15 8l-29 53q-3 5 -6 0l-29 -53q-5 -8 -15 -8h-107q-7 0 -9.5 3.5z" />
    <glyph glyph-name="Hbar" unicode="&#x126;" horiz-adv-x="551" 
d="M562.5 614.5q3.5 -3.5 3.5 -8.5v-87q0 -5 -3.5 -8.5t-8.5 -3.5h-36q-5 0 -5 -5v-490q0 -5 -3.5 -8.5t-8.5 -3.5h-142q-5 0 -8.5 3.5t-3.5 8.5v264q0 5 -5 5h-129q-5 0 -5 -5v-264q0 -5 -3.5 -8.5t-8.5 -3.5h-142q-5 0 -8.5 3.5t-3.5 8.5v490q0 5 -5 5h-35q-5 0 -8.5 3.5
t-3.5 8.5v87q0 5 3.5 8.5t8.5 3.5h35q5 0 5 5v65q0 5 3.5 8.5t8.5 3.5h142q5 0 8.5 -3.5t3.5 -8.5v-65q0 -5 5 -5h129q5 0 5 5v65q0 5 3.5 8.5t8.5 3.5h142q5 0 8.5 -3.5t3.5 -8.5v-65q0 -5 5 -5h36q5 0 8.5 -3.5zM347 428v74q0 5 -5 5h-129q-5 0 -5 -5v-74q0 -5 5 -5h129
q5 0 5 5z" />
    <glyph glyph-name="hbar" unicode="&#x127;" horiz-adv-x="502" 
d="M428 477.5q42 -47.5 42 -132.5v-333q0 -5 -3.5 -8.5t-8.5 -3.5h-142q-5 0 -8.5 3.5t-3.5 8.5v309q0 28 -14 45t-37 17t-37 -17t-14 -45v-309q0 -5 -3.5 -8.5t-8.5 -3.5h-142q-5 0 -8.5 3.5t-3.5 8.5v530q0 5 -5 5h-35q-5 0 -8.5 3.5t-3.5 8.5v74q0 5 3.5 8.5t8.5 3.5h35
q5 0 5 5v38q0 5 3.5 8.5t8.5 3.5h142q5 0 8.5 -3.5t3.5 -8.5v-38q0 -5 5 -5h94q5 0 8.5 -3.5t3.5 -8.5v-74q0 -5 -3.5 -8.5t-8.5 -3.5h-94q-5 0 -5 -5v-65q0 -3 2.5 -3.5t4.5 3.5q36 48 102 48q75 0 117 -47.5z" />
    <glyph glyph-name="Itilde" unicode="&#x128;" horiz-adv-x="250" 
d="M45.5 3.5q-3.5 3.5 -3.5 8.5v676q0 5 3.5 8.5t8.5 3.5h142q5 0 8.5 -3.5t3.5 -8.5v-676q0 -5 -3.5 -8.5t-8.5 -3.5h-142q-5 0 -8.5 3.5zM161 757q-13 4 -32 13q-4 2 -14.5 7t-17 7t-13.5 2q-26 0 -44 -20q-5 -6 -9 -6t-8 4l-49 44q-8 7 -4 17q14 34 41 52.5t61 18.5
q19 0 35 -5.5t37 -17.5q5 -3 14 -7.5t16 -7t15 -2.5q27 0 41 21q5 7 10 7q3 0 7 -4l47 -46q7 -7 3 -17q-15 -31 -43 -47.5t-63 -16.5q-17 0 -30 4z" />
    <glyph glyph-name="itilde" unicode="&#x129;" horiz-adv-x="222" 
d="M31.5 3.5q-3.5 3.5 -3.5 8.5v493q0 5 3.5 8.5t8.5 3.5h142q5 0 8.5 -3.5t3.5 -8.5v-493q0 -5 -3.5 -8.5t-8.5 -3.5h-142q-5 0 -8.5 3.5zM147 574q-13 4 -32 13q-4 2 -14.5 7t-17 7t-13.5 2q-26 0 -44 -20q-5 -6 -9 -6t-8 4l-49 44q-8 7 -4 17q14 34 41 52.5t61 18.5
q19 0 35 -5.5t37 -17.5q5 -3 14 -7.5t16 -7t15 -2.5q27 0 41 21q5 7 10 7q3 0 7 -4l47 -46q7 -7 3 -17q-15 -31 -43 -47.5t-63 -16.5q-17 0 -30 4z" />
    <glyph glyph-name="Imacron" unicode="&#x12a;" horiz-adv-x="250" 
d="M45.5 3.5q-3.5 3.5 -3.5 8.5v676q0 5 3.5 8.5t8.5 3.5h142q5 0 8.5 -3.5t3.5 -8.5v-676q0 -5 -3.5 -8.5t-8.5 -3.5h-142q-5 0 -8.5 3.5zM-6.5 760.5q-3.5 3.5 -3.5 8.5v87q0 5 3.5 8.5t8.5 3.5h241q5 0 8.5 -3.5t3.5 -8.5v-87q0 -5 -3.5 -8.5t-8.5 -3.5h-241
q-5 0 -8.5 3.5z" />
    <glyph glyph-name="imacron" unicode="&#x12b;" horiz-adv-x="222" 
d="M31.5 3.5q-3.5 3.5 -3.5 8.5v493q0 5 3.5 8.5t8.5 3.5h142q5 0 8.5 -3.5t3.5 -8.5v-493q0 -5 -3.5 -8.5t-8.5 -3.5h-142q-5 0 -8.5 3.5zM-20.5 577.5q-3.5 3.5 -3.5 8.5v87q0 5 3.5 8.5t8.5 3.5h241q5 0 8.5 -3.5t3.5 -8.5v-87q0 -5 -3.5 -8.5t-8.5 -3.5h-241
q-5 0 -8.5 3.5z" />
    <glyph glyph-name="ibreve" unicode="&#x12d;" horiz-adv-x="222" 
d="M31.5 3.5q-3.5 3.5 -3.5 8.5v493q0 5 3.5 8.5t8.5 3.5h142q5 0 8.5 -3.5t3.5 -8.5v-493q0 -5 -3.5 -8.5t-8.5 -3.5h-142q-5 0 -8.5 3.5zM8.5 591.5q-40.5 31.5 -44.5 83.5v2q0 10 11 10l67 -1q10 0 12 -11q4 -19 19.5 -30.5t37.5 -11.5t37.5 11.5t20.5 31.5q2 11 12 11
h67q13 0 11 -11q-4 -52 -45 -84t-103 -32t-102.5 31.5z" />
    <glyph glyph-name="Iogonek" unicode="&#x12e;" horiz-adv-x="245" 
d="M43.5 3.5q-3.5 3.5 -3.5 8.5v676q0 5 3.5 8.5t8.5 3.5h142q5 0 8.5 -3.5t3.5 -8.5v-676q0 -5 -3.5 -8.5t-8.5 -3.5h-142q-5 0 -8.5 3.5zM205 -173q0 -8 -9 -11q-30 -10 -60 -10q-34 0 -60 14.5t-35 49.5q-3 12 -3 26q0 51 49 96l4 4t12 4h79q10 0 10 -6q0 -5 -6 -9
q-23 -19 -34 -37t-7 -32q6 -20 25 -20q4 0 12 2q2 1 6 1q8 0 9 -9l8 -60v-3z" />
    <glyph glyph-name="iogonek" unicode="&#x12f;" horiz-adv-x="242" 
d="M43.5 3.5q-3.5 3.5 -3.5 8.5v493q0 5 3.5 8.5t8.5 3.5h142q5 0 8.5 -3.5t3.5 -8.5v-493q0 -5 -3.5 -8.5t-8.5 -3.5h-142q-5 0 -8.5 3.5zM61.5 587.5q-24.5 24.5 -24.5 62.5q0 39 24.5 63t62.5 24t62 -24t24 -63q0 -38 -24.5 -62.5t-61.5 -24.5q-38 0 -62.5 24.5z
M206 -173q0 -8 -9 -11q-30 -10 -60 -10q-34 0 -60 14.5t-35 49.5q-3 12 -3 26q0 51 49 96l4 4t12 4h79q10 0 10 -6q0 -5 -6 -9q-23 -19 -34 -37t-7 -32q6 -20 25 -20q4 0 12 2q2 1 6 1q8 0 9 -9l8 -60v-3z" />
    <glyph glyph-name="Idotaccent" unicode="&#x130;" horiz-adv-x="250" 
d="M45.5 3.5q-3.5 3.5 -3.5 8.5v676q0 5 3.5 8.5t8.5 3.5h142q5 0 8.5 -3.5t3.5 -8.5v-676q0 -5 -3.5 -8.5t-8.5 -3.5h-142q-5 0 -8.5 3.5zM63.5 770.5q-24.5 24.5 -24.5 62.5q0 39 24.5 63t62.5 24t62 -24t24 -63q0 -38 -24.5 -62.5t-61.5 -24.5q-38 0 -62.5 24.5z" />
    <glyph glyph-name="dotlessi" unicode="&#x131;" horiz-adv-x="222" 
d="M31.5 3.5q-3.5 3.5 -3.5 8.5v493q0 5 3.5 8.5t8.5 3.5h142q5 0 8.5 -3.5t3.5 -8.5v-493q0 -5 -3.5 -8.5t-8.5 -3.5h-142q-5 0 -8.5 3.5z" />
    <glyph glyph-name="ij" unicode="&#x133;" horiz-adv-x="468" 
d="M56.5 587.5q-24.5 24.5 -24.5 62.5q0 39 24.5 63t62.5 24t62.5 -24t24.5 -63q0 -37 -24.5 -62t-62.5 -25t-62.5 24.5zM39.5 3.5q-3.5 3.5 -3.5 8.5v493q0 5 3.5 8.5t8.5 3.5h142q5 0 8.5 -3.5t3.5 -8.5v-493q0 -5 -3.5 -8.5t-8.5 -3.5h-142q-5 0 -8.5 3.5zM287.5 587.5
q-24.5 24.5 -24.5 62.5q0 39 24.5 63t62.5 24t62 -24t24 -63q0 -38 -24.5 -62.5t-61.5 -24.5q-38 0 -62.5 24.5zM161 -190v116q0 13 13 11q54 -2 74 16t20 61l-1 491q0 5 3.5 8.5t8.5 3.5h142q5 0 8.5 -3.5t3.5 -8.5v-490q0 -85 -18.5 -131t-74.5 -67.5t-167 -18.5
q-12 0 -12 12z" />
    <glyph glyph-name="Jcircumflex" unicode="&#x134;" horiz-adv-x="523" 
d="M123.5 18.5q-52.5 26.5 -81.5 75.5t-29 112v62q0 5 3.5 8.5t8.5 3.5h142q5 0 8.5 -3.5t3.5 -8.5v-62q0 -32 18 -52t49 -20t50.5 20t19.5 52v482q0 5 3.5 8.5t8.5 3.5h141q5 0 8.5 -3.5t3.5 -8.5v-482q0 -63 -29.5 -111.5t-83 -75.5t-122.5 -27q-70 0 -122.5 26.5z
M233.5 759.5q-2.5 3.5 1.5 10.5l68 106q5 8 14 8h157q9 0 14 -8l70 -105q2 -3 2 -7q0 -8 -9 -8h-107q-10 0 -15 8l-29 53q-3 5 -6 0l-29 -53q-5 -8 -15 -8h-107q-7 0 -9.5 3.5z" />
    <glyph glyph-name="jcircumflex" unicode="&#x135;" horiz-adv-x="245" 
d="M-67 -190v116q0 13 13 11q54 -2 74 16t20 61l-1 491q0 5 3.5 8.5t8.5 3.5h143q5 0 8.5 -3.5t3.5 -8.5v-490q0 -85 -19 -131t-75 -67.5t-167 -18.5q-12 0 -12 12zM-41.5 575.5q-2.5 3.5 1.5 10.5l68 106q5 8 14 8h157q9 0 14 -8l70 -105q2 -3 2 -7q0 -8 -9 -8h-107
q-10 0 -15 8l-29 53q-3 5 -6 0l-29 -53q-5 -8 -15 -8h-107q-7 0 -9.5 3.5z" />
    <glyph glyph-name="uni0136" unicode="&#x136;" horiz-adv-x="568" 
d="M45.5 3.5q-3.5 3.5 -3.5 8.5v676q0 5 3.5 8.5t8.5 3.5h142q5 0 8.5 -3.5t3.5 -8.5v-243q0 -4 2 -4.5t4 2.5l153 249q4 8 14 8h156q7 0 9.5 -3.5t-1.5 -10.5l-180 -292q-1 -3 0 -7l189 -373q2 -4 2 -6q0 -8 -11 -8h-155q-9 0 -14 9l-125 250q-4 6 -7 0l-34 -54
q-2 -4 -2 -6v-187q0 -5 -3.5 -8.5t-8.5 -3.5h-142q-5 0 -8.5 3.5zM177 -164q-2 4 1 10l56 100q5 8 15 8h117q10 0 10 -7q0 -3 -3 -8l-76 -100q-6 -7 -14 -7h-97q-7 0 -9 4z" />
    <glyph glyph-name="uni0137" unicode="&#x137;" horiz-adv-x="505" 
d="M39.5 3.5q-3.5 3.5 -3.5 8.5v676q0 5 3.5 8.5t8.5 3.5h142q5 0 8.5 -3.5t3.5 -8.5v-309q0 -3 2.5 -4t3.5 2l88 132q5 8 14 8h154q7 0 9.5 -4.5t-1.5 -10.5l-121 -173q-2 -3 0 -7l136 -308q2 -4 2 -6q0 -8 -11 -8h-148q-11 0 -14 10l-72 192q-1 3 -3 3t-4 -2l-33 -51
q-2 -4 -2 -6v-134q0 -5 -3.5 -8.5t-8.5 -3.5h-142q-5 0 -8.5 3.5zM145 -164q-2 4 1 10l56 100q5 8 15 8h117q10 0 10 -7q0 -3 -3 -8l-76 -100q-6 -7 -14 -7h-97q-7 0 -9 4z" />
    <glyph glyph-name="Lacute" unicode="&#x139;" horiz-adv-x="505" 
d="M45.5 3.5q-3.5 3.5 -3.5 8.5v676q0 5 3.5 8.5t8.5 3.5h142q5 0 8.5 -3.5t3.5 -8.5v-541q0 -5 5 -5h262q5 0 8.5 -3.5t3.5 -8.5v-118q0 -5 -3.5 -8.5t-8.5 -3.5h-421q-5 0 -8.5 3.5zM54 765q-2 4 1 10l56 100q5 8 15 8h117q10 0 10 -7q0 -3 -3 -8l-76 -100q-6 -7 -14 -7
h-97q-7 0 -9 4z" />
    <glyph glyph-name="lacute" unicode="&#x13a;" horiz-adv-x="234" 
d="M37.5 3.5q-3.5 3.5 -3.5 8.5v676q0 5 3.5 8.5t8.5 3.5h142q5 0 8.5 -3.5t3.5 -8.5v-676q0 -5 -3.5 -8.5t-8.5 -3.5h-142q-5 0 -8.5 3.5zM46 765q-2 4 1 10l56 100q5 8 15 8h117q10 0 10 -7q0 -3 -3 -8l-76 -100q-6 -7 -14 -7h-97q-7 0 -9 4z" />
    <glyph glyph-name="uni013B" unicode="&#x13b;" horiz-adv-x="505" 
d="M45.5 3.5q-3.5 3.5 -3.5 8.5v676q0 5 3.5 8.5t8.5 3.5h142q5 0 8.5 -3.5t3.5 -8.5v-541q0 -5 5 -5h262q5 0 8.5 -3.5t3.5 -8.5v-118q0 -5 -3.5 -8.5t-8.5 -3.5h-421q-5 0 -8.5 3.5zM128 -164q-2 4 1 10l56 100q5 8 15 8h117q10 0 10 -7q0 -3 -3 -8l-76 -100q-6 -7 -14 -7
h-97q-7 0 -9 4z" />
    <glyph glyph-name="uni013C" unicode="&#x13c;" horiz-adv-x="234" 
d="M37.5 3.5q-3.5 3.5 -3.5 8.5v676q0 5 3.5 8.5t8.5 3.5h142q5 0 8.5 -3.5t3.5 -8.5v-676q0 -5 -3.5 -8.5t-8.5 -3.5h-142q-5 0 -8.5 3.5zM-25 -164q-2 4 1 10l56 100q5 8 15 8h117q10 0 10 -7q0 -3 -3 -8l-76 -100q-6 -7 -14 -7h-97q-7 0 -9 4z" />
    <glyph glyph-name="Lcaron" unicode="&#x13d;" horiz-adv-x="507" 
d="M45.5 3.5q-3.5 3.5 -3.5 8.5v676q0 5 3.5 8.5t8.5 3.5h142q5 0 8.5 -3.5t3.5 -8.5v-541q0 -5 5 -5h262q5 0 8.5 -3.5t3.5 -8.5v-118q0 -5 -3.5 -8.5t-8.5 -3.5h-421q-5 0 -8.5 3.5zM247 582q-2 4 1 10l56 100q5 8 15 8h117q10 0 10 -7q0 -3 -3 -8l-76 -100q-6 -7 -14 -7
h-97q-7 0 -9 4z" />
    <glyph glyph-name="lcaron" unicode="&#x13e;" horiz-adv-x="447" 
d="M37.5 3.5q-3.5 3.5 -3.5 8.5v676q0 5 3.5 8.5t8.5 3.5h142q5 0 8.5 -3.5t3.5 -8.5v-676q0 -5 -3.5 -8.5t-8.5 -3.5h-142q-5 0 -8.5 3.5zM222 582q-2 4 1 10l56 100q5 8 15 8h117q10 0 10 -7q0 -3 -3 -8l-76 -100q-6 -7 -14 -7h-97q-7 0 -9 4z" />
    <glyph glyph-name="ldot" unicode="&#x140;" horiz-adv-x="243" 
d="M41.5 3.5q-3.5 3.5 -3.5 8.5v676q0 5 3.5 8.5t8.5 3.5h142q5 0 8.5 -3.5t3.5 -8.5v-676q0 -5 -3.5 -8.5t-8.5 -3.5h-142q-5 0 -8.5 3.5zM60.5 770.5q-24.5 24.5 -24.5 62.5q0 39 24.5 63t62.5 24t62 -24t24 -63q0 -38 -24.5 -62.5t-61.5 -24.5q-38 0 -62.5 24.5z" />
    <glyph glyph-name="Lslash" unicode="&#x141;" horiz-adv-x="590" 
d="M298 142h262q5 0 8.5 -3.5t3.5 -8.5v-118q0 -5 -3.5 -8.5t-8.5 -3.5h-421q-5 0 -8.5 3.5t-3.5 8.5v156q0 3 -2 4t-4 -1l-51 -44q-6 -4 -8 -4q-4 0 -9 5l-65 76q-4 6 -4 8q0 4 5 9l135 116q3 2 3 6v345q0 5 3.5 8.5t8.5 3.5h142q5 0 8.5 -3.5t3.5 -8.5v-198q0 -3 2 -4t4 1
l134 115q6 4 8 4q4 0 9 -5l66 -76q4 -6 4 -8q0 -4 -5 -9l-219 -188q-3 -1 -3 -6v-167q0 -5 5 -5z" />
    <glyph glyph-name="lslash" unicode="&#x142;" horiz-adv-x="444" 
d="M431 401q0 -7 -7 -11l-123 -67q-4 -3 -4 -6v-305q0 -5 -3.5 -8.5t-8.5 -3.5h-142q-5 0 -8.5 3.5t-3.5 8.5v213q0 3 -2 4.5t-4 -0.5l-49 -27q-4 -2 -7 -2q-7 0 -10 7l-44 83q-1 2 -1 6q0 7 6 11l107 58q4 3 4 6v317q0 5 3.5 8.5t8.5 3.5h142q5 0 8.5 -3.5t3.5 -8.5v-222
q0 -3 2 -4t4 0l63 34q4 2 6 2q5 0 10 -6l47 -85q2 -4 2 -6z" />
    <glyph glyph-name="Nacute" unicode="&#x143;" horiz-adv-x="591" 
d="M387.5 696.5q3.5 3.5 8.5 3.5h142q5 0 8.5 -3.5t3.5 -8.5v-676q0 -5 -3.5 -8.5t-8.5 -3.5h-148q-10 0 -14 9l-165 370q-2 3 -4 2.5t-2 -4.5l2 -365q0 -5 -3.5 -8.5t-8.5 -3.5h-141q-5 0 -8.5 3.5t-3.5 8.5v676q0 5 3.5 8.5t8.5 3.5h147q10 0 14 -9l164 -368q2 -3 4 -3
t2 4l-1 364q0 5 3.5 8.5zM218 765q-2 4 1 10l56 100q5 8 15 8h117q10 0 10 -7q0 -3 -3 -8l-76 -100q-6 -7 -14 -7h-97q-7 0 -9 4z" />
    <glyph glyph-name="nacute" unicode="&#x144;" horiz-adv-x="502" 
d="M428 477.5q42 -47.5 42 -132.5v-333q0 -5 -3.5 -8.5t-8.5 -3.5h-142q-5 0 -8.5 3.5t-3.5 8.5v309q0 28 -14 45t-37 17t-37 -17t-14 -45v-309q0 -5 -3.5 -8.5t-8.5 -3.5h-142q-5 0 -8.5 3.5t-3.5 8.5v493q0 5 3.5 8.5t8.5 3.5h142q5 0 8.5 -3.5t3.5 -8.5v-28
q0 -3 2.5 -3.5t4.5 3.5q36 48 102 48q75 0 117 -47.5zM183 582q-2 4 1 10l56 100q5 8 15 8h117q10 0 10 -7q0 -3 -3 -8l-76 -100q-6 -7 -14 -7h-97q-7 0 -9 4z" />
    <glyph glyph-name="uni0145" unicode="&#x145;" horiz-adv-x="591" 
d="M387.5 696.5q3.5 3.5 8.5 3.5h142q5 0 8.5 -3.5t3.5 -8.5v-676q0 -5 -3.5 -8.5t-8.5 -3.5h-148q-10 0 -14 9l-165 370q-2 3 -4 2.5t-2 -4.5l2 -365q0 -5 -3.5 -8.5t-8.5 -3.5h-141q-5 0 -8.5 3.5t-3.5 8.5v676q0 5 3.5 8.5t8.5 3.5h147q10 0 14 -9l164 -368q2 -3 4 -3
t2 4l-1 364q0 5 3.5 8.5zM187 -164q-2 4 1 10l56 100q5 8 15 8h117q10 0 10 -7q0 -3 -3 -8l-76 -100q-6 -7 -14 -7h-97q-7 0 -9 4z" />
    <glyph glyph-name="uni0146" unicode="&#x146;" horiz-adv-x="502" 
d="M428 477.5q42 -47.5 42 -132.5v-333q0 -5 -3.5 -8.5t-8.5 -3.5h-142q-5 0 -8.5 3.5t-3.5 8.5v309q0 28 -14 45t-37 17t-37 -17t-14 -45v-309q0 -5 -3.5 -8.5t-8.5 -3.5h-142q-5 0 -8.5 3.5t-3.5 8.5v493q0 5 3.5 8.5t8.5 3.5h142q5 0 8.5 -3.5t3.5 -8.5v-28
q0 -3 2.5 -3.5t4.5 3.5q36 48 102 48q75 0 117 -47.5zM142 -164q-2 4 1 10l56 100q5 8 15 8h117q10 0 10 -7q0 -3 -3 -8l-76 -100q-6 -7 -14 -7h-97q-7 0 -9 4z" />
    <glyph glyph-name="Ncaron" unicode="&#x147;" horiz-adv-x="591" 
d="M387.5 696.5q3.5 3.5 8.5 3.5h142q5 0 8.5 -3.5t3.5 -8.5v-676q0 -5 -3.5 -8.5t-8.5 -3.5h-148q-10 0 -14 9l-165 370q-2 3 -4 2.5t-2 -4.5l2 -365q0 -5 -3.5 -8.5t-8.5 -3.5h-141q-5 0 -8.5 3.5t-3.5 8.5v676q0 5 3.5 8.5t8.5 3.5h147q10 0 14 -9l164 -368q2 -3 4 -3
t2 4l-1 364q0 5 3.5 8.5zM133 876q0 7 10 7h107q10 0 15 -8l29 -53q3 -4 6 0l29 53q5 8 15 8h107q7 0 9 -4.5t-2 -10.5l-70 -105q-5 -8 -14 -8h-157q-9 0 -14 8l-68 106q-2 6 -2 7z" />
    <glyph glyph-name="ncaron" unicode="&#x148;" horiz-adv-x="502" 
d="M428 477.5q42 -47.5 42 -132.5v-333q0 -5 -3.5 -8.5t-8.5 -3.5h-142q-5 0 -8.5 3.5t-3.5 8.5v309q0 28 -14 45t-37 17t-37 -17t-14 -45v-309q0 -5 -3.5 -8.5t-8.5 -3.5h-142q-5 0 -8.5 3.5t-3.5 8.5v493q0 5 3.5 8.5t8.5 3.5h142q5 0 8.5 -3.5t3.5 -8.5v-28
q0 -3 2.5 -3.5t4.5 3.5q36 48 102 48q75 0 117 -47.5zM98 693q0 7 10 7h107q10 0 15 -8l29 -53q3 -4 6 0l29 53q5 8 15 8h107q7 0 9 -4.5t-2 -10.5l-70 -105q-5 -8 -14 -8h-157q-9 0 -14 8l-68 106q-2 6 -2 7z" />
    <glyph glyph-name="Eng" unicode="&#x14a;" horiz-adv-x="591" 
d="M387.5 696.5q3.5 3.5 8.5 3.5h142q5 0 8.5 -3.5t3.5 -8.5v-688q-2 -76 -21.5 -118t-73 -61.5t-158.5 -17.5q-12 0 -12 12v117q0 11 13 11q45 -2 60.5 12.5t17.5 50.5l-1 6l-164 367q-2 3 -4 3t-2 -4l2 -366q0 -5 -3.5 -8.5t-8.5 -3.5h-141q-5 0 -8.5 3.5t-3.5 8.5v676
q0 5 3.5 8.5t8.5 3.5h147q10 0 14 -9l155 -348q2 -3 4 -3t2 4v37q0 12 5 12q4 0 4 5l-1 290q0 5 3.5 8.5z" />
    <glyph glyph-name="eng" unicode="&#x14b;" horiz-adv-x="503" 
d="M428 477.5q42 -47.5 42 -132.5v-345q-1 -71 -17.5 -111.5t-67.5 -62.5t-154 -21q-12 0 -12 12v111q0 12 12 12q32 1 47.5 9.5t20.5 24.5t5 45v302q0 28 -14 45t-37 17t-37 -17t-14 -45v-309q0 -5 -3.5 -8.5t-8.5 -3.5h-142q-5 0 -8.5 3.5t-3.5 8.5v493q0 5 3.5 8.5
t8.5 3.5h142q5 0 8.5 -3.5t3.5 -8.5v-28q0 -3 2.5 -3.5t4.5 3.5q36 48 102 48q75 0 117 -47.5z" />
    <glyph glyph-name="Omacron" unicode="&#x14c;" horiz-adv-x="550" 
d="M148 19q-55 29 -85.5 82t-30.5 123v252q0 69 30.5 121.5t85.5 81.5t127 29t127 -29t85.5 -81.5t30.5 -121.5v-252q0 -70 -30.5 -123t-85.5 -82t-127 -29t-127 29zM331 156.5q21 23.5 21 61.5v262q0 38 -21.5 62t-55.5 24q-35 0 -56 -23.5t-21 -62.5v-262q0 -38 21 -61.5
t56 -23.5t56 23.5zM143.5 760.5q-3.5 3.5 -3.5 8.5v87q0 5 3.5 8.5t8.5 3.5h241q5 0 8.5 -3.5t3.5 -8.5v-87q0 -5 -3.5 -8.5t-8.5 -3.5h-241q-5 0 -8.5 3.5z" />
    <glyph glyph-name="omacron" unicode="&#x14d;" horiz-adv-x="503" 
d="M102 38.5q-58 46.5 -69 128.5q-6 39 -6 92q0 59 7 95q11 79 69 125t150 46t149.5 -46t68.5 -124q7 -38 7 -95q0 -48 -5 -91q-11 -83 -69 -130t-151 -47t-151 46.5zM289.5 149.5q14.5 15.5 19.5 41.5q3 32 3 68q0 26 -4 70q-4 25 -18.5 39.5t-36.5 14.5q-23 0 -37.5 -14.5
t-18.5 -39.5q-4 -29 -4 -70q0 -36 3 -68q5 -26 19.5 -41.5t37.5 -15.5q22 0 36.5 15.5zM120.5 577.5q-3.5 3.5 -3.5 8.5v87q0 5 3.5 8.5t8.5 3.5h241q5 0 8.5 -3.5t3.5 -8.5v-87q0 -5 -3.5 -8.5t-8.5 -3.5h-241q-5 0 -8.5 3.5z" />
    <glyph glyph-name="obreve" unicode="&#x14f;" horiz-adv-x="503" 
d="M102 38.5q-58 46.5 -69 128.5q-6 39 -6 92q0 59 7 95q11 79 69 125t150 46t149.5 -46t68.5 -124q7 -38 7 -95q0 -48 -5 -91q-11 -83 -69 -130t-151 -47t-151 46.5zM289.5 149.5q14.5 15.5 19.5 41.5q3 32 3 68q0 26 -4 70q-4 25 -18.5 39.5t-36.5 14.5q-23 0 -37.5 -14.5
t-18.5 -39.5q-4 -29 -4 -70q0 -36 3 -68q5 -26 19.5 -41.5t37.5 -15.5q22 0 36.5 15.5zM149.5 591.5q-40.5 31.5 -44.5 83.5v2q0 10 11 10l67 -1q10 0 12 -11q4 -19 19.5 -30.5t37.5 -11.5t37.5 11.5t20.5 31.5q2 11 12 11h67q13 0 11 -11q-4 -52 -45 -84t-103 -32
t-102.5 31.5z" />
    <glyph glyph-name="Ohungarumlaut" unicode="&#x150;" horiz-adv-x="550" 
d="M148 19q-55 29 -85.5 82t-30.5 123v252q0 69 30.5 121.5t85.5 81.5t127 29t127 -29t85.5 -81.5t30.5 -121.5v-252q0 -70 -30.5 -123t-85.5 -82t-127 -29t-127 29zM331 156.5q21 23.5 21 61.5v262q0 38 -21.5 62t-55.5 24q-35 0 -56 -23.5t-21 -62.5v-262q0 -38 21 -61.5
t56 -23.5t56 23.5zM128.5 764.5q-2.5 3.5 0.5 10.5l45 99q4 9 14 9h120q7 0 9.5 -3.5t-0.5 -10.5l-52 -99q-5 -9 -14 -9h-113q-7 0 -9.5 3.5zM305.5 765q-2.5 4 0.5 10l52 99q4 9 15 9h112q7 0 9.5 -3.5t-0.5 -10.5l-52 -99q-5 -9 -14 -9h-113q-7 0 -9.5 4z" />
    <glyph glyph-name="ohungarumlaut" unicode="&#x151;" horiz-adv-x="503" 
d="M102 38.5q-58 46.5 -69 128.5q-6 39 -6 92q0 59 7 95q11 79 69 125t150 46t149.5 -46t68.5 -124q7 -38 7 -95q0 -48 -5 -91q-11 -83 -69 -130t-151 -47t-151 46.5zM289.5 149.5q14.5 15.5 19.5 41.5q3 32 3 68q0 26 -4 70q-4 25 -18.5 39.5t-36.5 14.5q-23 0 -37.5 -14.5
t-18.5 -39.5q-4 -29 -4 -70q0 -36 3 -68q5 -26 19.5 -41.5t37.5 -15.5q22 0 36.5 15.5zM105.5 581.5q-2.5 3.5 0.5 10.5l45 99q4 9 14 9h120q7 0 9.5 -3.5t-0.5 -10.5l-52 -99q-5 -9 -14 -9h-113q-7 0 -9.5 3.5zM282.5 582q-2.5 4 0.5 10l52 99q4 9 15 9h112q7 0 9.5 -3.5
t-0.5 -10.5l-52 -99q-5 -9 -14 -9h-113q-7 0 -9.5 4z" />
    <glyph glyph-name="OE" unicode="&#x152;" horiz-adv-x="813" 
d="M783.5 561.5q-3.5 -3.5 -8.5 -3.5h-255q-5 0 -5 -5v-125q0 -5 5 -5h153q5 0 8.5 -3.5t3.5 -8.5v-118q0 -5 -3.5 -8.5t-8.5 -3.5h-153q-5 0 -5 -5v-129q0 -5 5 -5h255q5 0 8.5 -3.5t3.5 -8.5v-118q0 -5 -3.5 -8.5t-8.5 -3.5h-414q-5 0 -8.5 3.5t-3.5 8.5v8q0 3 -2 4t-4 -1
q-52 -33 -113 -33q-52 0 -97.5 29.5t-73 82.5t-27.5 121v254q0 67 27.5 120t73 82t97.5 29q61 0 113 -33q2 -2 4 -1t2 4v10q0 5 3.5 8.5t8.5 3.5h414q5 0 8.5 -3.5t3.5 -8.5v-118q0 -5 -3.5 -8.5zM328 156q21 23 21 61v264q0 38 -21 61.5t-55 23.5t-54.5 -23.5t-20.5 -61.5
v-264q0 -38 20.5 -61t54.5 -23t55 23z" />
    <glyph glyph-name="oe" unicode="&#x153;" horiz-adv-x="790" 
d="M598 142q17 10 27 27q7 10 16 6l102 -42q11 -5 7 -15q-44 -126 -200 -126q-92 0 -149 63q-4 4 -7 0q-57 -63 -144 -63q-88 0 -144.5 43.5t-69.5 119.5q-9 41 -9 104q0 60 9 105q13 74 70 117.5t144 43.5q86 0 143 -63q4 -4 8 0q58 63 142 63q88 0 145.5 -44.5
t69.5 -117.5q7 -58 9 -140q0 -12 -12 -12h-261q-4 0 -4 -4q0 -14 3 -25q9 -50 68 -50q20 0 37 10zM306 260q0 47 -7 79q-4 20 -17 32t-32 12t-32.5 -12t-18.5 -32q-6 -34 -6 -79q0 -41 7 -81q4 -20 17.5 -32.5t32.5 -12.5t32 12.5t17 32.5q7 32 7 81zM510.5 370
q-13.5 -13 -17.5 -34q-2 -8 -4 -26q0 -5 5 -5h100q4 0 4 5l-2 26q-5 22 -18.5 34.5t-33.5 12.5t-33.5 -13z" />
    <glyph glyph-name="Racute" unicode="&#x154;" horiz-adv-x="548" 
d="M352 10l-94 265q-2 4 -5 4h-40q-5 0 -5 -5v-262q0 -5 -3.5 -8.5t-8.5 -3.5h-142q-5 0 -8.5 3.5t-3.5 8.5v676q0 5 3.5 8.5t8.5 3.5h256q62 0 109.5 -27.5t73.5 -76.5t26 -113q0 -63 -27 -110t-75 -71q-4 -1 -2 -6l109 -282q1 -2 1 -5q0 -9 -11 -9h-149q-10 0 -13 10z
M208 553v-142q0 -5 5 -5h70q32 0 51.5 20t19.5 55q0 36 -19.5 56.5t-51.5 20.5h-70q-5 0 -5 -5zM184 765q-2 4 1 10l56 100q5 8 15 8h117q10 0 10 -7q0 -3 -3 -8l-76 -100q-6 -7 -14 -7h-97q-7 0 -9 4z" />
    <glyph glyph-name="racute" unicode="&#x155;" horiz-adv-x="363" 
d="M348 512q8 -5 6 -15l-23 -140q-1 -11 -14 -8q-16 4 -30 4q-16 0 -28 -4q-24 -5 -41 -24.5t-17 -47.5v-265q0 -5 -3.5 -8.5t-8.5 -3.5h-142q-5 0 -8.5 3.5t-3.5 8.5v493q0 5 3.5 8.5t8.5 3.5h142q5 0 8.5 -3.5t3.5 -8.5v-33q0 -4 1.5 -4.5t3.5 2.5q32 54 93 54
q29 0 49 -12zM126 582q-2 4 1 10l56 100q5 8 15 8h117q10 0 10 -7q0 -3 -3 -8l-76 -100q-6 -7 -14 -7h-97q-7 0 -9 4z" />
    <glyph glyph-name="uni0156" unicode="&#x156;" horiz-adv-x="548" 
d="M352 10l-94 265q-2 4 -5 4h-40q-5 0 -5 -5v-262q0 -5 -3.5 -8.5t-8.5 -3.5h-142q-5 0 -8.5 3.5t-3.5 8.5v676q0 5 3.5 8.5t8.5 3.5h256q62 0 109.5 -27.5t73.5 -76.5t26 -113q0 -63 -27 -110t-75 -71q-4 -1 -2 -6l109 -282q1 -2 1 -5q0 -9 -11 -9h-149q-10 0 -13 10z
M208 553v-142q0 -5 5 -5h70q32 0 51.5 20t19.5 55q0 36 -19.5 56.5t-51.5 20.5h-70q-5 0 -5 -5zM157 -164q-2 4 1 10l56 100q5 8 15 8h117q10 0 10 -7q0 -3 -3 -8l-76 -100q-6 -7 -14 -7h-97q-7 0 -9 4z" />
    <glyph glyph-name="uni0157" unicode="&#x157;" horiz-adv-x="363" 
d="M348 512q8 -5 6 -15l-23 -140q-1 -11 -14 -8q-16 4 -30 4q-16 0 -28 -4q-24 -5 -41 -24.5t-17 -47.5v-265q0 -5 -3.5 -8.5t-8.5 -3.5h-142q-5 0 -8.5 3.5t-3.5 8.5v493q0 5 3.5 8.5t8.5 3.5h142q5 0 8.5 -3.5t3.5 -8.5v-33q0 -4 1.5 -4.5t3.5 2.5q32 54 93 54
q29 0 49 -12zM-28 -164q-2 4 1 10l56 100q5 8 15 8h117q10 0 10 -7q0 -3 -3 -8l-76 -100q-6 -7 -14 -7h-97q-7 0 -9 4z" />
    <glyph glyph-name="Rcaron" unicode="&#x158;" horiz-adv-x="548" 
d="M352 10l-94 265q-2 4 -5 4h-40q-5 0 -5 -5v-262q0 -5 -3.5 -8.5t-8.5 -3.5h-142q-5 0 -8.5 3.5t-3.5 8.5v676q0 5 3.5 8.5t8.5 3.5h256q62 0 109.5 -27.5t73.5 -76.5t26 -113q0 -63 -27 -110t-75 -71q-4 -1 -2 -6l109 -282q1 -2 1 -5q0 -9 -11 -9h-149q-10 0 -13 10z
M208 553v-142q0 -5 5 -5h70q32 0 51.5 20t19.5 55q0 36 -19.5 56.5t-51.5 20.5h-70q-5 0 -5 -5zM99 876q0 7 10 7h107q10 0 15 -8l29 -53q3 -4 6 0l29 53q5 8 15 8h107q7 0 9 -4.5t-2 -10.5l-70 -105q-5 -8 -14 -8h-157q-9 0 -14 8l-68 106q-2 6 -2 7z" />
    <glyph glyph-name="rcaron" unicode="&#x159;" horiz-adv-x="363" 
d="M348 512q8 -5 6 -15l-23 -140q-1 -11 -14 -8q-16 4 -30 4q-16 0 -28 -4q-24 -5 -41 -24.5t-17 -47.5v-265q0 -5 -3.5 -8.5t-8.5 -3.5h-142q-5 0 -8.5 3.5t-3.5 8.5v493q0 5 3.5 8.5t8.5 3.5h142q5 0 8.5 -3.5t3.5 -8.5v-33q0 -4 1.5 -4.5t3.5 2.5q32 54 93 54
q29 0 49 -12zM41 693q0 7 10 7h107q10 0 15 -8l29 -53q3 -4 6 0l29 53q5 8 15 8h107q7 0 9 -4.5t-2 -10.5l-70 -105q-5 -8 -14 -8h-157q-9 0 -14 8l-68 106q-2 6 -2 7z" />
    <glyph glyph-name="Sacute" unicode="&#x15a;" horiz-adv-x="526" 
d="M140.5 17q-53.5 25 -83 70.5t-29.5 105.5v26q0 5 3.5 8.5t8.5 3.5h140q5 0 8.5 -3.5t3.5 -8.5v-18q0 -28 22 -47.5t59 -19.5q31 0 47 16t16 39q0 19 -11.5 32.5t-31.5 24.5t-69 36q-57 28 -97 54.5t-68.5 69.5t-28.5 103t29 105t81 69.5t119 24.5q69 0 123 -26.5
t84.5 -74t30.5 -109.5v-19q0 -5 -3.5 -8.5t-8.5 -3.5h-140q-5 0 -8.5 3.5t-3.5 8.5v17q0 29 -21 49.5t-57 20.5q-29 0 -45 -15t-16 -41q0 -19 11 -33.5t34.5 -28.5t71.5 -38l29 -16q54 -30 86 -53t53.5 -59t21.5 -87q0 -94 -64.5 -148.5t-170.5 -54.5q-72 0 -125.5 25z
M189 765q-2 4 1 10l56 100q5 8 15 8h117q10 0 10 -7q0 -3 -3 -8l-76 -100q-6 -7 -14 -7h-97q-7 0 -9 4z" />
    <glyph glyph-name="sacute" unicode="&#x15b;" horiz-adv-x="469" 
d="M125 12q-49 20 -75.5 55.5t-26.5 81.5v8q0 5 3.5 8.5t8.5 3.5h135q5 0 8.5 -3.5t3.5 -8.5v-1q0 -18 16 -29.5t40 -11.5q21 0 33.5 9t12.5 23q0 16 -16.5 24.5t-53.5 17.5q-39 9 -65 20q-52 20 -86 54t-34 95q0 77 56 122t148 45q94 0 150.5 -47.5t56.5 -125.5
q0 -11 -12 -11h-130q-5 0 -8.5 3.5t-3.5 8.5v4q0 17 -14 28t-36 11q-21 0 -34.5 -10t-13.5 -25q0 -19 18.5 -28t59.5 -20q24 -5 43 -12q65 -21 103.5 -54.5t38.5 -95.5q0 -75 -57.5 -117t-154.5 -42q-65 0 -114 20zM160 582q-2 4 1 10l56 100q5 8 15 8h117q10 0 10 -7
q0 -3 -3 -8l-76 -100q-6 -7 -14 -7h-97q-7 0 -9 4z" />
    <glyph glyph-name="Scircumflex" unicode="&#x15c;" horiz-adv-x="526" 
d="M140.5 17q-53.5 25 -83 70.5t-29.5 105.5v26q0 5 3.5 8.5t8.5 3.5h140q5 0 8.5 -3.5t3.5 -8.5v-18q0 -28 22 -47.5t59 -19.5q31 0 47 16t16 39q0 19 -11.5 32.5t-31.5 24.5t-69 36q-57 28 -97 54.5t-68.5 69.5t-28.5 103t29 105t81 69.5t119 24.5q69 0 123 -26.5
t84.5 -74t30.5 -109.5v-19q0 -5 -3.5 -8.5t-8.5 -3.5h-140q-5 0 -8.5 3.5t-3.5 8.5v17q0 29 -21 49.5t-57 20.5q-29 0 -45 -15t-16 -41q0 -19 11 -33.5t34.5 -28.5t71.5 -38l29 -16q54 -30 86 -53t53.5 -59t21.5 -87q0 -94 -64.5 -148.5t-170.5 -54.5q-72 0 -125.5 25z
M97.5 758.5q-2.5 3.5 1.5 10.5l68 106q5 8 14 8h157q9 0 14 -8l70 -105q2 -3 2 -7q0 -8 -9 -8h-107q-10 0 -15 8l-29 53q-3 5 -6 0l-29 -53q-5 -8 -15 -8h-107q-7 0 -9.5 3.5z" />
    <glyph glyph-name="scircumflex" unicode="&#x15d;" horiz-adv-x="469" 
d="M125 12q-49 20 -75.5 55.5t-26.5 81.5v8q0 5 3.5 8.5t8.5 3.5h135q5 0 8.5 -3.5t3.5 -8.5v-1q0 -18 16 -29.5t40 -11.5q21 0 33.5 9t12.5 23q0 16 -16.5 24.5t-53.5 17.5q-39 9 -65 20q-52 20 -86 54t-34 95q0 77 56 122t148 45q94 0 150.5 -47.5t56.5 -125.5
q0 -11 -12 -11h-130q-5 0 -8.5 3.5t-3.5 8.5v4q0 17 -14 28t-36 11q-21 0 -34.5 -10t-13.5 -25q0 -19 18.5 -28t59.5 -20q24 -5 43 -12q65 -21 103.5 -54.5t38.5 -95.5q0 -75 -57.5 -117t-154.5 -42q-65 0 -114 20zM67.5 575.5q-2.5 3.5 1.5 10.5l68 106q5 8 14 8h157
q9 0 14 -8l70 -105q2 -3 2 -7q0 -8 -9 -8h-107q-10 0 -15 8l-29 53q-3 5 -6 0l-29 -53q-5 -8 -15 -8h-107q-7 0 -9.5 3.5z" />
    <glyph glyph-name="Scedilla" unicode="&#x15e;" horiz-adv-x="526" 
d="M454.5 64q-46.5 -52 -126.5 -67q-6 -2 -2 -6q38 -43 38 -86q0 -14 -3 -26q-9 -35 -35 -49.5t-60 -14.5q-30 0 -60 10q-11 3 -9 14l8 60q1 6 4.5 8t10.5 0q8 -2 12 -2q19 0 25 19q7 29 -40 70l-6 3q-85 13 -134 65.5t-49 130.5v26q0 5 3.5 8.5t8.5 3.5h140q5 0 8.5 -3.5
t3.5 -8.5v-18q0 -28 22 -47.5t59 -19.5q31 0 47 16t16 39q0 19 -11.5 32.5t-31.5 24.5t-69 36q-57 28 -97 54.5t-68.5 69.5t-28.5 103t29 105t81 69.5t119 24.5q69 0 123 -26.5t84.5 -74t30.5 -109.5v-19q0 -5 -3.5 -8.5t-8.5 -3.5h-140q-5 0 -8.5 3.5t-3.5 8.5v17
q0 29 -21 49.5t-57 20.5q-29 0 -45 -15t-16 -41q0 -19 11 -33.5t34.5 -28.5t71.5 -38l29 -16q54 -30 86 -53t53.5 -59t21.5 -87q0 -79 -46.5 -131z" />
    <glyph glyph-name="scedilla" unicode="&#x15f;" horiz-adv-x="469" 
d="M411.5 50q-39.5 -40 -108.5 -53q-6 -2 -2 -6q38 -41 38 -85q0 -9 -4 -27q-9 -35 -34.5 -49.5t-59.5 -14.5q-30 0 -60 10q-11 3 -9 14l8 60q1 6 4.5 8t10.5 0q8 -2 11 -2q21 0 25 20q1 3 1 9q0 27 -40 59q-4 2 -6 2q-76 11 -119.5 52.5t-43.5 101.5v8q0 5 3.5 8.5t8.5 3.5
h135q5 0 8.5 -3.5t3.5 -8.5v-1q0 -18 16 -29.5t40 -11.5q21 0 33.5 9t12.5 23q0 16 -16.5 24.5t-53.5 17.5q-39 9 -65 20q-52 20 -86 54t-34 95q0 77 56 122t148 45q94 0 150.5 -47.5t56.5 -125.5q0 -11 -12 -11h-130q-5 0 -8.5 3.5t-3.5 8.5v4q0 17 -14 28t-36 11
q-21 0 -34.5 -10t-13.5 -25q0 -19 18.5 -28t59.5 -20q24 -5 43 -12q65 -21 103.5 -54.5t38.5 -95.5q0 -61 -39.5 -101z" />
    <glyph glyph-name="Scaron" unicode="&#x160;" horiz-adv-x="526" 
d="M140.5 17q-53.5 25 -83 70.5t-29.5 105.5v26q0 5 3.5 8.5t8.5 3.5h140q5 0 8.5 -3.5t3.5 -8.5v-18q0 -28 22 -47.5t59 -19.5q31 0 47 16t16 39q0 19 -11.5 32.5t-31.5 24.5t-69 36q-57 28 -97 54.5t-68.5 69.5t-28.5 103t29 105t81 69.5t119 24.5q69 0 123 -26.5
t84.5 -74t30.5 -109.5v-19q0 -5 -3.5 -8.5t-8.5 -3.5h-140q-5 0 -8.5 3.5t-3.5 8.5v17q0 29 -21 49.5t-57 20.5q-29 0 -45 -15t-16 -41q0 -19 11 -33.5t34.5 -28.5t71.5 -38l29 -16q54 -30 86 -53t53.5 -59t21.5 -87q0 -94 -64.5 -148.5t-170.5 -54.5q-72 0 -125.5 25z
M104 876q0 7 10 7h107q10 0 15 -8l29 -53q3 -4 6 0l29 53q5 8 15 8h107q7 0 9 -4.5t-2 -10.5l-70 -105q-5 -8 -14 -8h-157q-9 0 -14 8l-68 106q-2 6 -2 7z" />
    <glyph glyph-name="scaron" unicode="&#x161;" horiz-adv-x="469" 
d="M125 12q-49 20 -75.5 55.5t-26.5 81.5v8q0 5 3.5 8.5t8.5 3.5h135q5 0 8.5 -3.5t3.5 -8.5v-1q0 -18 16 -29.5t40 -11.5q21 0 33.5 9t12.5 23q0 16 -16.5 24.5t-53.5 17.5q-39 9 -65 20q-52 20 -86 54t-34 95q0 77 56 122t148 45q94 0 150.5 -47.5t56.5 -125.5
q0 -11 -12 -11h-130q-5 0 -8.5 3.5t-3.5 8.5v4q0 17 -14 28t-36 11q-21 0 -34.5 -10t-13.5 -25q0 -19 18.5 -28t59.5 -20q24 -5 43 -12q65 -21 103.5 -54.5t38.5 -95.5q0 -75 -57.5 -117t-154.5 -42q-65 0 -114 20zM75 693q0 7 10 7h107q10 0 15 -8l29 -53q3 -4 6 0l29 53
q5 8 15 8h107q7 0 9 -4.5t-2 -10.5l-70 -105q-5 -8 -14 -8h-157q-9 0 -14 8l-68 106q-2 6 -2 7z" />
    <glyph glyph-name="uni0162" unicode="&#x162;" horiz-adv-x="537" 
d="M512.5 696.5q3.5 -3.5 3.5 -8.5v-119q0 -5 -3.5 -8.5t-8.5 -3.5h-150q-5 0 -5 -5v-540q0 -5 -3.5 -8.5t-8.5 -3.5h-142q-5 0 -8.5 3.5t-3.5 8.5v540q0 5 -5 5h-144q-5 0 -8.5 3.5t-3.5 8.5v119q0 5 3.5 8.5t8.5 3.5h470q5 0 8.5 -3.5zM239 -170l8 60q1 11 14 8
q8 -2 12 -2q20 0 26 20q4 14 -7 32t-34 37q-6 4 -6 9q0 6 10 6h79q7 0 12 -4q3 -1 4 -4q49 -46 49 -97q0 -13 -3 -25q-9 -35 -35 -49.5t-60 -14.5q-30 0 -60 10q-11 3 -9 14z" />
    <glyph glyph-name="uni0163" unicode="&#x163;" horiz-adv-x="343" 
d="M319.5 396.5q-3.5 -3.5 -8.5 -3.5h-71q-5 0 -5 -5v-198q0 -26 10 -37.5t31 -10.5h22q5 0 8.5 -3.5t3.5 -8.5v-118q0 -10 -9 -12h-6q-3 -1 -9 -1q-3 0 -3.5 -2t1.5 -4q30 -38 30 -77q0 -9 -4 -27q-16 -63 -93 -63q-31 0 -61 10q-11 3 -9 14l8 60q1 6 4.5 8t10.5 0
q8 -2 12 -2q10 0 17.5 7t7.5 20q0 27 -37 59l-6 3q-44 10 -66 37t-22 81v265q0 5 -5 5h-45q-5 0 -8.5 3.5t-3.5 8.5v100q0 5 3.5 8.5t8.5 3.5h45q5 0 5 5v116q0 5 3.5 8.5t8.5 3.5h135q5 0 8.5 -3.5t3.5 -8.5v-116q0 -5 5 -5h71q5 0 8.5 -3.5t3.5 -8.5v-100q0 -5 -3.5 -8.5z
" />
    <glyph glyph-name="Tcaron" unicode="&#x164;" horiz-adv-x="537" 
d="M512.5 696.5q3.5 -3.5 3.5 -8.5v-119q0 -5 -3.5 -8.5t-8.5 -3.5h-150q-5 0 -5 -5v-540q0 -5 -3.5 -8.5t-8.5 -3.5h-142q-5 0 -8.5 3.5t-3.5 8.5v540q0 5 -5 5h-144q-5 0 -8.5 3.5t-3.5 8.5v119q0 5 3.5 8.5t8.5 3.5h470q5 0 8.5 -3.5zM109 875q0 7 10 7h107q10 0 15 -8
l29 -53q3 -4 6 0l29 53q5 8 15 8h107q7 0 9 -4.5t-2 -10.5l-70 -105q-5 -8 -14 -8h-157q-9 0 -14 8l-68 106q-2 6 -2 7z" />
    <glyph glyph-name="tcaron" unicode="&#x165;" horiz-adv-x="343" 
d="M319.5 396.5q-3.5 -3.5 -8.5 -3.5h-71q-5 0 -5 -5v-198q0 -26 10 -37.5t31 -10.5h22q5 0 8.5 -3.5t3.5 -8.5v-118q0 -12 -12 -12q-40 -2 -58 -2q-83 0 -123.5 26t-40.5 99v265q0 5 -5 5h-45q-5 0 -8.5 3.5t-3.5 8.5v100q0 5 3.5 8.5t8.5 3.5h45q5 0 5 5v116q0 5 3.5 8.5
t8.5 3.5h135q5 0 8.5 -3.5t3.5 -8.5v-116q0 -5 5 -5h71q5 0 8.5 -3.5t3.5 -8.5v-100q0 -5 -3.5 -8.5zM253 582q-2 4 1 10l56 100q5 8 15 8h117q10 0 10 -7q0 -3 -3 -8l-76 -100q-6 -7 -14 -7h-97q-7 0 -9 4z" />
    <glyph glyph-name="Tbar" unicode="&#x166;" horiz-adv-x="537" 
d="M512.5 560.5q-3.5 -3.5 -8.5 -3.5h-150q-5 0 -5 -5v-141q0 -5 5 -5h65q5 0 8.5 -3.5t3.5 -8.5v-74q0 -5 -3.5 -8.5t-8.5 -3.5h-65q-5 0 -5 -5v-291q0 -5 -3.5 -8.5t-8.5 -3.5h-142q-5 0 -8.5 3.5t-3.5 8.5v291q0 5 -5 5h-64q-5 0 -8.5 3.5t-3.5 8.5v74q0 5 3.5 8.5
t8.5 3.5h64q5 0 5 5v141q0 5 -5 5h-144q-5 0 -8.5 3.5t-3.5 8.5v119q0 5 3.5 8.5t8.5 3.5h470q5 0 8.5 -3.5t3.5 -8.5v-119q0 -5 -3.5 -8.5z" />
    <glyph glyph-name="tbar" unicode="&#x167;" horiz-adv-x="343" 
d="M321.5 255.5q-3.5 -3.5 -8.5 -3.5h-73q-5 0 -5 -5v-57q0 -26 10 -37.5t31 -10.5h22q5 0 8.5 -3.5t3.5 -8.5v-118q0 -12 -12 -12q-40 -2 -58 -2q-83 0 -123.5 26t-40.5 99v124q0 5 -5 5h-44q-5 0 -8.5 3.5t-3.5 8.5v74q0 5 3.5 8.5t8.5 3.5h44q5 0 5 5v33q0 5 -5 5h-45
q-5 0 -8.5 3.5t-3.5 8.5v100q0 5 3.5 8.5t8.5 3.5h45q5 0 5 5v116q0 5 3.5 8.5t8.5 3.5h135q5 0 8.5 -3.5t3.5 -8.5v-116q0 -5 5 -5h71q5 0 8.5 -3.5t3.5 -8.5v-100q0 -5 -3.5 -8.5t-8.5 -3.5h-71q-5 0 -5 -5v-33q0 -5 5 -5h73q5 0 8.5 -3.5t3.5 -8.5v-74q0 -5 -3.5 -8.5z
" />
    <glyph glyph-name="Utilde" unicode="&#x168;" horiz-adv-x="551" 
d="M151 20.5q-54 28.5 -83.5 80.5t-29.5 120v467q0 5 3.5 8.5t8.5 3.5h142q5 0 8.5 -3.5t3.5 -8.5v-475q0 -35 20 -57t52 -22t51.5 22t19.5 57v475q0 5 3.5 8.5t8.5 3.5h142q5 0 8.5 -3.5t3.5 -8.5v-467q0 -68 -29.5 -120t-83 -80.5t-124.5 -28.5t-125 28.5zM312 757
q-13 4 -32 13q-4 2 -14.5 7t-17 7t-13.5 2q-26 0 -44 -20q-5 -6 -9 -6t-8 4l-49 44q-8 7 -4 17q14 34 41 52.5t61 18.5q19 0 35 -5.5t37 -17.5q5 -3 14 -7.5t16 -7t15 -2.5q27 0 41 21q5 7 10 7q3 0 7 -4l47 -46q7 -7 3 -17q-15 -31 -43 -47.5t-63 -16.5q-17 0 -30 4z" />
    <glyph glyph-name="utilde" unicode="&#x169;" horiz-adv-x="502" 
d="M303.5 513.5q3.5 3.5 8.5 3.5h142q5 0 8.5 -3.5t3.5 -8.5v-493q0 -5 -3.5 -8.5t-8.5 -3.5h-142q-5 0 -8.5 3.5t-3.5 8.5v24q0 3 -2 3.5t-4 -2.5q-34 -45 -106 -45q-68 0 -111.5 42.5t-43.5 124.5v346q0 5 3.5 8.5t8.5 3.5h142q5 0 8.5 -3.5t3.5 -8.5v-309q0 -29 13 -45
t37 -16q21 0 34.5 12.5t16.5 35.5v322q0 5 3.5 8.5zM285 574q-13 4 -32 13q-4 2 -14.5 7t-17 7t-13.5 2q-26 0 -44 -20q-5 -6 -9 -6t-8 4l-49 44q-8 7 -4 17q14 34 41 52.5t61 18.5q19 0 35 -5.5t37 -17.5q5 -3 14 -7.5t16 -7t15 -2.5q27 0 41 21q5 7 10 7q3 0 7 -4l47 -46
q7 -7 3 -17q-15 -31 -43 -47.5t-63 -16.5q-17 0 -30 4z" />
    <glyph glyph-name="Umacron" unicode="&#x16a;" horiz-adv-x="551" 
d="M151 20.5q-54 28.5 -83.5 80.5t-29.5 120v467q0 5 3.5 8.5t8.5 3.5h142q5 0 8.5 -3.5t3.5 -8.5v-475q0 -35 20 -57t52 -22t51.5 22t19.5 57v475q0 5 3.5 8.5t8.5 3.5h142q5 0 8.5 -3.5t3.5 -8.5v-467q0 -68 -29.5 -120t-83 -80.5t-124.5 -28.5t-125 28.5zM144.5 760.5
q-3.5 3.5 -3.5 8.5v87q0 5 3.5 8.5t8.5 3.5h241q5 0 8.5 -3.5t3.5 -8.5v-87q0 -5 -3.5 -8.5t-8.5 -3.5h-241q-5 0 -8.5 3.5z" />
    <glyph glyph-name="umacron" unicode="&#x16b;" horiz-adv-x="502" 
d="M303.5 513.5q3.5 3.5 8.5 3.5h142q5 0 8.5 -3.5t3.5 -8.5v-493q0 -5 -3.5 -8.5t-8.5 -3.5h-142q-5 0 -8.5 3.5t-3.5 8.5v24q0 3 -2 3.5t-4 -2.5q-34 -45 -106 -45q-68 0 -111.5 42.5t-43.5 124.5v346q0 5 3.5 8.5t8.5 3.5h142q5 0 8.5 -3.5t3.5 -8.5v-309q0 -29 13 -45
t37 -16q21 0 34.5 12.5t16.5 35.5v322q0 5 3.5 8.5zM117.5 577.5q-3.5 3.5 -3.5 8.5v87q0 5 3.5 8.5t8.5 3.5h241q5 0 8.5 -3.5t3.5 -8.5v-87q0 -5 -3.5 -8.5t-8.5 -3.5h-241q-5 0 -8.5 3.5z" />
    <glyph glyph-name="Ubreve" unicode="&#x16c;" horiz-adv-x="551" 
d="M151 20.5q-54 28.5 -83.5 80.5t-29.5 120v467q0 5 3.5 8.5t8.5 3.5h142q5 0 8.5 -3.5t3.5 -8.5v-475q0 -35 20 -57t52 -22t51.5 22t19.5 57v475q0 5 3.5 8.5t8.5 3.5h142q5 0 8.5 -3.5t3.5 -8.5v-467q0 -68 -29.5 -120t-83 -80.5t-124.5 -28.5t-125 28.5zM173.5 774.5
q-40.5 31.5 -44.5 83.5v2q0 10 11 10l67 -1q10 0 12 -11q4 -19 19.5 -30.5t37.5 -11.5t37.5 11.5t20.5 31.5q2 11 12 11h67q13 0 11 -11q-4 -52 -45 -84t-103 -32t-102.5 31.5z" />
    <glyph glyph-name="ubreve" unicode="&#x16d;" horiz-adv-x="502" 
d="M303.5 513.5q3.5 3.5 8.5 3.5h142q5 0 8.5 -3.5t3.5 -8.5v-493q0 -5 -3.5 -8.5t-8.5 -3.5h-142q-5 0 -8.5 3.5t-3.5 8.5v24q0 3 -2 3.5t-4 -2.5q-34 -45 -106 -45q-68 0 -111.5 42.5t-43.5 124.5v346q0 5 3.5 8.5t8.5 3.5h142q5 0 8.5 -3.5t3.5 -8.5v-309q0 -29 13 -45
t37 -16q21 0 34.5 12.5t16.5 35.5v322q0 5 3.5 8.5zM146.5 591.5q-40.5 31.5 -44.5 83.5v2q0 10 11 10l67 -1q10 0 12 -11q4 -19 19.5 -30.5t37.5 -11.5t37.5 11.5t20.5 31.5q2 11 12 11h67q13 0 11 -11q-4 -52 -45 -84t-103 -32t-102.5 31.5z" />
    <glyph glyph-name="Uring" unicode="&#x16e;" horiz-adv-x="551" 
d="M151 20.5q-54 28.5 -83.5 80.5t-29.5 120v467q0 5 3.5 8.5t8.5 3.5h142q5 0 8.5 -3.5t3.5 -8.5v-475q0 -35 20 -57t52 -22t51.5 22t19.5 57v475q0 5 3.5 8.5t8.5 3.5h142q5 0 8.5 -3.5t3.5 -8.5v-467q0 -68 -29.5 -120t-83 -80.5t-124.5 -28.5t-125 28.5zM183 777.5
q-37 37.5 -37 92.5t37.5 92t92.5 37t92.5 -37t37.5 -92t-37.5 -92.5t-92.5 -37.5q-56 0 -93 37.5zM308 838q13 13 13 32t-13 32.5t-32 13.5q-18 0 -31.5 -13.5t-13.5 -32.5t13.5 -32t31.5 -13q19 0 32 13z" />
    <glyph glyph-name="uring" unicode="&#x16f;" horiz-adv-x="502" 
d="M303.5 513.5q3.5 3.5 8.5 3.5h142q5 0 8.5 -3.5t3.5 -8.5v-493q0 -5 -3.5 -8.5t-8.5 -3.5h-142q-5 0 -8.5 3.5t-3.5 8.5v24q0 3 -2 3.5t-4 -2.5q-34 -45 -106 -45q-68 0 -111.5 42.5t-43.5 124.5v346q0 5 3.5 8.5t8.5 3.5h142q5 0 8.5 -3.5t3.5 -8.5v-309q0 -29 13 -45
t37 -16q21 0 34.5 12.5t16.5 35.5v322q0 5 3.5 8.5zM156 594.5q-37 37.5 -37 92.5t37.5 92t92.5 37t92.5 -37t37.5 -92t-37.5 -92.5t-92.5 -37.5q-56 0 -93 37.5zM281 655q13 13 13 32t-13 32.5t-32 13.5q-18 0 -31.5 -13.5t-13.5 -32.5t13.5 -32t31.5 -13q19 0 32 13z" />
    <glyph glyph-name="Uhungarumlaut" unicode="&#x170;" horiz-adv-x="551" 
d="M151 20.5q-54 28.5 -83.5 80.5t-29.5 120v467q0 5 3.5 8.5t8.5 3.5h142q5 0 8.5 -3.5t3.5 -8.5v-475q0 -35 20 -57t52 -22t51.5 22t19.5 57v475q0 5 3.5 8.5t8.5 3.5h142q5 0 8.5 -3.5t3.5 -8.5v-467q0 -68 -29.5 -120t-83 -80.5t-124.5 -28.5t-125 28.5zM130.5 764.5
q-2.5 3.5 0.5 10.5l45 99q4 9 14 9h120q7 0 9.5 -3.5t-0.5 -10.5l-52 -99q-5 -9 -14 -9h-113q-7 0 -9.5 3.5zM307.5 765q-2.5 4 0.5 10l52 99q4 9 15 9h112q7 0 9.5 -3.5t-0.5 -10.5l-52 -99q-5 -9 -14 -9h-113q-7 0 -9.5 4z" />
    <glyph glyph-name="uhungarumlaut" unicode="&#x171;" horiz-adv-x="502" 
d="M303.5 513.5q3.5 3.5 8.5 3.5h142q5 0 8.5 -3.5t3.5 -8.5v-493q0 -5 -3.5 -8.5t-8.5 -3.5h-142q-5 0 -8.5 3.5t-3.5 8.5v24q0 3 -2 3.5t-4 -2.5q-34 -45 -106 -45q-68 0 -111.5 42.5t-43.5 124.5v346q0 5 3.5 8.5t8.5 3.5h142q5 0 8.5 -3.5t3.5 -8.5v-309q0 -29 13 -45
t37 -16q21 0 34.5 12.5t16.5 35.5v322q0 5 3.5 8.5zM103.5 581.5q-2.5 3.5 0.5 10.5l45 99q4 9 14 9h120q7 0 9.5 -3.5t-0.5 -10.5l-52 -99q-5 -9 -14 -9h-113q-7 0 -9.5 3.5zM280.5 582q-2.5 4 0.5 10l52 99q4 9 15 9h112q7 0 9.5 -3.5t-0.5 -10.5l-52 -99q-5 -9 -14 -9
h-113q-7 0 -9.5 4z" />
    <glyph glyph-name="Uogonek" unicode="&#x172;" horiz-adv-x="551" 
d="M350.5 696.5q3.5 3.5 8.5 3.5h142q5 0 8.5 -3.5t3.5 -8.5v-467q0 -90 -50.5 -150t-136.5 -74l-6 -3q-35 -30 -35 -56q0 -6 1 -9q4 -20 25 -20q3 0 11 2q2 1 6 1q8 0 9 -9l8 -60v-3q0 -8 -9 -11q-30 -10 -60 -10q-34 0 -59.5 14.5t-34.5 49.5q-4 18 -4 27q0 41 35 82
q2 2 1.5 4t-3.5 2q-80 18 -126.5 77.5t-46.5 145.5v467q0 5 3.5 8.5t8.5 3.5h142q5 0 8.5 -3.5t3.5 -8.5v-475q0 -35 20 -57t52 -22t51.5 22t19.5 57v475q0 5 3.5 8.5z" />
    <glyph glyph-name="uogonek" unicode="&#x173;" horiz-adv-x="502" 
d="M432 -104q4 0 12 2l6 1q8 0 9 -10l7 -59v-3q0 -8 -9 -11q-30 -10 -60 -10q-34 0 -59.5 14.5t-34.5 49.5q-3 13 -3 26q0 52 50 98q2 2 1.5 4t-3.5 2h-36q-5 0 -8.5 3.5t-3.5 8.5v24q0 3 -2 3.5t-4 -2.5q-34 -45 -106 -45q-68 0 -111.5 42.5t-43.5 124.5v346q0 5 3.5 8.5
t8.5 3.5h142q5 0 8.5 -3.5t3.5 -8.5v-309q0 -29 13 -45t37 -16q21 0 34.5 12.5t16.5 35.5v322q0 5 3.5 8.5t8.5 3.5h142q5 0 8.5 -3.5t3.5 -8.5v-505l-14 -12q-25 -20 -37 -38.5t-8 -33.5q6 -20 25 -20z" />
    <glyph glyph-name="Wcircumflex" unicode="&#x174;" horiz-adv-x="815" 
d="M182 10l-162 677v4q0 9 11 9h149q12 0 13 -11l66 -347q1 -3 3 -3t3 3l62 347q1 11 13 11h128q12 0 13 -11l68 -347q1 -3 3 -3t3 3l60 347q1 11 13 11h145q14 0 11 -13l-149 -676q-2 -11 -13 -11h-135q-12 0 -13 11l-69 365q-1 3 -3 3t-3 -3l-60 -365q-1 -11 -13 -11h-131
q-10 0 -13 10zM241.5 758.5q-2.5 3.5 1.5 10.5l68 106q5 8 14 8h157q9 0 14 -8l70 -105q2 -3 2 -7q0 -8 -9 -8h-107q-10 0 -15 8l-29 53q-3 5 -6 0l-29 -53q-5 -8 -15 -8h-107q-7 0 -9.5 3.5z" />
    <glyph glyph-name="wcircumflex" unicode="&#x175;" horiz-adv-x="720" 
d="M142 10l-126 495v4q0 9 11 9h140q12 0 13 -11l47 -256q1 -3 3 -3t3 3l49 256q1 11 13 11h125q11 0 13 -11l52 -257q1 -3 3 -3t3 3l50 257q1 11 13 11l139 -2q14 0 11 -13l-127 -493q-3 -10 -14 -10h-142q-11 0 -13 11l-50 225q-1 4 -3 4t-3 -4l-44 -225q-1 -11 -13 -11
h-139q-11 0 -14 10zM191.5 575.5q-2.5 3.5 1.5 10.5l68 106q5 8 14 8h157q9 0 14 -8l70 -105q2 -3 2 -7q0 -8 -9 -8h-107q-10 0 -15 8l-29 53q-3 5 -6 0l-29 -53q-5 -8 -15 -8h-107q-7 0 -9.5 3.5z" />
    <glyph glyph-name="Ycircumflex" unicode="&#x176;" horiz-adv-x="564" 
d="M201.5 5.5q-3.5 3.5 -3.5 8.5v241l-1 6l-173 425q-1 2 -1 6q0 8 10 8h153q10 0 13 -10l80 -237q1 -3 3 -3t3 3l80 237q3 10 13 10h152q7 0 9 -4t0 -10l-174 -425l-1 -6v-241q0 -5 -3.5 -8.5t-8.5 -3.5h-142q-5 0 -8.5 3.5zM117.5 758.5q-2.5 3.5 1.5 10.5l68 106
q5 8 14 8h157q9 0 14 -8l70 -105q2 -3 2 -7q0 -8 -9 -8h-107q-10 0 -15 8l-29 53q-3 5 -6 0l-29 -53q-5 -8 -15 -8h-107q-7 0 -9.5 3.5z" />
    <glyph glyph-name="ycircumflex" unicode="&#x177;" horiz-adv-x="481" 
d="M37 -195.5q-2 3.5 -2 8.5v112q0 5 3 8.5t7 3.5q59 0 84 12t29 48l-1 6l-143 502l-1 4q0 9 11 9h152q12 0 13 -11l50 -280q1 -3 3 -3t3 3l49 280q1 11 13 11l151 -1q6 0 8.5 -3.5t1.5 -9.5l-149 -514q-23 -75 -49 -113.5t-77 -57t-145 -18.5h-6q-3 0 -5 3.5zM75.5 581.5
q-2.5 3.5 1.5 10.5l68 106q5 8 14 8h157q9 0 14 -8l70 -105q2 -3 2 -7q0 -8 -9 -8h-107q-10 0 -15 8l-29 53q-3 5 -6 0l-29 -53q-5 -8 -15 -8h-107q-7 0 -9.5 3.5z" />
    <glyph glyph-name="Ydieresis" unicode="&#x178;" horiz-adv-x="564" 
d="M201.5 5.5q-3.5 3.5 -3.5 8.5v241l-1 6l-173 425q-1 2 -1 6q0 8 10 8h153q10 0 13 -10l80 -237q1 -3 3 -3t3 3l80 237q3 10 13 10h152q7 0 9 -4t0 -10l-174 -425l-1 -6v-241q0 -5 -3.5 -8.5t-8.5 -3.5h-142q-5 0 -8.5 3.5zM321.5 774.5q-24.5 24.5 -24.5 62.5
q0 39 24.5 63t62.5 24t62 -24t24 -63q0 -38 -24.5 -62.5t-61.5 -24.5q-38 0 -62.5 24.5zM118.5 774.5q-24.5 24.5 -24.5 62.5q0 39 24.5 63t62.5 24t62 -24t24 -63q0 -38 -24.5 -62.5t-61.5 -24.5q-38 0 -62.5 24.5z" />
    <glyph glyph-name="Zacute" unicode="&#x179;" horiz-adv-x="489" 
d="M25.5 3.5q-3.5 3.5 -3.5 8.5v126q0 8 4 15l255 399q3 6 -3 6h-244q-5 0 -8.5 3.5t-3.5 8.5v118q0 5 3.5 8.5t8.5 3.5h418q5 0 8.5 -3.5t3.5 -8.5v-126q0 -8 -4 -15l-256 -399q-3 -6 3 -6h245q5 0 8.5 -3.5t3.5 -8.5v-118q0 -5 -3.5 -8.5t-8.5 -3.5h-418q-5 0 -8.5 3.5z
M172 765q-2 4 1 10l56 100q5 8 15 8h117q10 0 10 -7q0 -3 -3 -8l-76 -100q-6 -7 -14 -7h-97q-7 0 -9 4z" />
    <glyph glyph-name="zacute" unicode="&#x17a;" horiz-adv-x="421" 
d="M20.5 3.5q-3.5 3.5 -3.5 8.5v130q0 9 5 14l172 205q4 6 -3 6h-156q-5 0 -8.5 3.5t-3.5 8.5v126q0 5 3.5 8.5t8.5 3.5h349q5 0 8.5 -3.5t3.5 -8.5v-130q0 -8 -6 -14l-179 -205q-4 -6 3 -6h177q5 0 8.5 -3.5t3.5 -8.5v-126q0 -5 -3.5 -8.5t-8.5 -3.5h-362q-5 0 -8.5 3.5z
M136 582q-2 4 1 10l56 100q5 8 15 8h117q10 0 10 -7q0 -3 -3 -8l-76 -100q-6 -7 -14 -7h-97q-7 0 -9 4z" />
    <glyph glyph-name="Zdotaccent" unicode="&#x17b;" horiz-adv-x="489" 
d="M25.5 3.5q-3.5 3.5 -3.5 8.5v126q0 8 4 15l255 399q3 6 -3 6h-244q-5 0 -8.5 3.5t-3.5 8.5v118q0 5 3.5 8.5t8.5 3.5h418q5 0 8.5 -3.5t3.5 -8.5v-126q0 -8 -4 -15l-256 -399q-3 -6 3 -6h245q5 0 8.5 -3.5t3.5 -8.5v-118q0 -5 -3.5 -8.5t-8.5 -3.5h-418q-5 0 -8.5 3.5z
M182.5 770.5q-24.5 24.5 -24.5 62.5q0 39 24.5 63t62.5 24t62 -24t24 -63q0 -38 -24.5 -62.5t-61.5 -24.5q-38 0 -62.5 24.5z" />
    <glyph glyph-name="zdotaccent" unicode="&#x17c;" horiz-adv-x="421" 
d="M20.5 3.5q-3.5 3.5 -3.5 8.5v130q0 9 5 14l172 205q4 6 -3 6h-156q-5 0 -8.5 3.5t-3.5 8.5v126q0 5 3.5 8.5t8.5 3.5h349q5 0 8.5 -3.5t3.5 -8.5v-130q0 -8 -6 -14l-179 -205q-4 -6 3 -6h177q5 0 8.5 -3.5t3.5 -8.5v-126q0 -5 -3.5 -8.5t-8.5 -3.5h-362q-5 0 -8.5 3.5z
M146.5 587.5q-24.5 24.5 -24.5 62.5q0 39 24.5 63t62.5 24t62 -24t24 -63q0 -38 -24.5 -62.5t-61.5 -24.5q-38 0 -62.5 24.5z" />
    <glyph glyph-name="Zcaron" unicode="&#x17d;" horiz-adv-x="489" 
d="M25.5 3.5q-3.5 3.5 -3.5 8.5v126q0 8 4 15l255 399q3 6 -3 6h-244q-5 0 -8.5 3.5t-3.5 8.5v118q0 5 3.5 8.5t8.5 3.5h418q5 0 8.5 -3.5t3.5 -8.5v-126q0 -8 -4 -15l-256 -399q-3 -6 3 -6h245q5 0 8.5 -3.5t3.5 -8.5v-118q0 -5 -3.5 -8.5t-8.5 -3.5h-418q-5 0 -8.5 3.5z
M87 876q0 7 10 7h107q10 0 15 -8l29 -53q3 -4 6 0l29 53q5 8 15 8h107q7 0 9 -4.5t-2 -10.5l-70 -105q-5 -8 -14 -8h-157q-9 0 -14 8l-68 106q-2 6 -2 7z" />
    <glyph glyph-name="zcaron" unicode="&#x17e;" horiz-adv-x="421" 
d="M20.5 3.5q-3.5 3.5 -3.5 8.5v130q0 9 5 14l172 205q4 6 -3 6h-156q-5 0 -8.5 3.5t-3.5 8.5v126q0 5 3.5 8.5t8.5 3.5h349q5 0 8.5 -3.5t3.5 -8.5v-130q0 -8 -6 -14l-179 -205q-4 -6 3 -6h177q5 0 8.5 -3.5t3.5 -8.5v-126q0 -5 -3.5 -8.5t-8.5 -3.5h-362q-5 0 -8.5 3.5z
M51 693q0 7 10 7h107q10 0 15 -8l29 -53q3 -4 6 0l29 53q5 8 15 8h107q7 0 9 -4.5t-2 -10.5l-70 -105q-5 -8 -14 -8h-157q-9 0 -14 8l-68 106q-2 6 -2 7z" />
    <glyph glyph-name="uni018F" unicode="&#x18f;" horiz-adv-x="615" 
d="M582 347q0 -88 -9 -141q-16 -101 -84.5 -159t-180.5 -58q-126 0 -195 66.5t-80 183.5q-4 44 -4 103l1 49q0 12 12 12h369q5 0 5 5l-7 53q-8 42 -38 67t-76 25q-42 0 -71.5 -20.5t-44.5 -56.5q-5 -11 -15 -7l-115 45q-11 5 -8 15q26 81 92 124t168 43q111 0 180.5 -55.5
t88.5 -154.5q12 -60 12 -139zM377 157.5q27 25.5 34 68.5q3 14 5 47q0 5 -5 5h-209q-5 0 -5 -5q0 -24 3 -45q6 -43 35 -69.5t73 -26.5q42 0 69 25.5z" />
    <glyph glyph-name="florin" unicode="&#x192;" horiz-adv-x="519" 
d="M387 532l-16 -101q0 -5 4 -5h62q5 0 8.5 -3.5t3.5 -8.5v-109q0 -5 -3.5 -8.5t-8.5 -3.5h-83q-6 0 -6 -5l-54 -340q-9 -57 -32.5 -89.5t-68.5 -47t-121 -14.5q-26 0 -41 1q-12 1 -12 13v92q0 5 3.5 8.5t8.5 3.5h44q22 1 36.5 14t18.5 39l51 320q0 5 -4 5h-50
q-5 0 -8.5 3.5t-3.5 8.5v109q0 5 3.5 8.5t8.5 3.5h72q6 0 6 5l19 121q9 59 32 91t66.5 46t118.5 14q29 0 45 -1q12 -1 12 -13v-92q0 -5 -3.5 -8.5t-8.5 -3.5h-45q-46 -3 -54 -53z" />
    <glyph glyph-name="Ohorn" unicode="&#x1a0;" horiz-adv-x="550" 
d="M451 644q67 -64 67 -168v-252q0 -70 -30.5 -123t-85.5 -82t-127 -29t-127 29t-85.5 82t-30.5 123v252q0 69 30.5 121.5t85.5 81.5t127 29q37 0 72 -8l6 -1v1q26 0 47 16t24 60q0 12 12 12h68q6 0 9 -4.5t2 -13.5q-3 -42 -19.5 -72t-43.5 -47q-4 -3 -1 -7zM352 480
q0 38 -21.5 62t-55.5 24q-35 0 -56 -23.5t-21 -62.5v-262q0 -38 21 -61.5t56 -23.5t56 23.5t21 61.5v262z" />
    <glyph glyph-name="ohorn" unicode="&#x1a1;" horiz-adv-x="503" 
d="M419 464q41 -39 52 -109q7 -38 7 -95q0 -48 -5 -91q-11 -83 -69 -130t-151 -47t-151 46.5t-69 128.5q-6 39 -6 92q0 59 7 95q11 79 69 125t150 46q31 0 66 -7q2 -1 6 -1q55 7 61 76q0 12 12 12h68q6 0 9 -4.5t2 -13.5q-6 -78 -58 -116q-3 -3 0 -7zM312 259q0 26 -4 70
q-4 25 -18.5 39.5t-36.5 14.5q-23 0 -37.5 -14.5t-18.5 -39.5q-4 -29 -4 -70q0 -36 3 -68q5 -26 19.5 -41.5t37.5 -15.5q22 0 36.5 15.5t19.5 41.5q3 32 3 68z" />
    <glyph glyph-name="Uhorn" unicode="&#x1af;" horiz-adv-x="551" 
d="M611 776q-3 -56 -28.5 -90.5t-65.5 -50.5q-4 -1 -4 -5v-409q0 -68 -29.5 -120t-83 -80.5t-124.5 -28.5t-125 28.5t-83.5 80.5t-29.5 120v467q0 5 3.5 8.5t8.5 3.5h142q5 0 8.5 -3.5t3.5 -8.5v-475q0 -35 20 -57t52 -22t51.5 22t19.5 57v475q0 5 3.5 8.5t8.5 3.5h88
q26 0 47 16t24 60q0 12 12 12h69q12 0 12 -12z" />
    <glyph glyph-name="uhorn" unicode="&#x1b0;" horiz-adv-x="502" 
d="M559 593q-3 -54 -27 -88.5t-62 -49.5q-4 -3 -4 -6v-437q0 -5 -3.5 -8.5t-8.5 -3.5h-142q-5 0 -8.5 3.5t-3.5 8.5v24q0 3 -2 3.5t-4 -2.5q-34 -45 -106 -45q-68 0 -111.5 42.5t-43.5 124.5v346q0 5 3.5 8.5t8.5 3.5h142q5 0 8.5 -3.5t3.5 -8.5v-309q0 -29 13 -45t37 -16
q21 0 34.5 12.5t16.5 35.5v322q0 5 3.5 8.5t8.5 3.5h84q26 0 47 16t24 60q0 12 12 12h68q12 0 12 -12z" />
    <glyph glyph-name="uni01CD" unicode="&#x1cd;" horiz-adv-x="601" 
d="M409 11l-20 88q-1 4 -5 4h-169q-4 0 -5 -4l-20 -88q-2 -11 -13 -11h-147q-13 0 -10 13l179 677q3 10 14 10h175q11 0 14 -10l179 -677l1 -4q0 -9 -11 -9h-149q-11 0 -13 11zM245 231h107q2 0 4 1.5t1 4.5l-56 248q-1 4 -3 4t-3 -4l-55 -249q-1 -5 5 -5zM141 875q0 7 10 7
h107q10 0 15 -8l29 -53q3 -4 6 0l29 53q5 8 15 8h107q7 0 9 -4.5t-2 -10.5l-70 -105q-5 -8 -14 -8h-157q-9 0 -14 8l-68 106q-2 6 -2 7z" />
    <glyph glyph-name="uni01CE" unicode="&#x1ce;" horiz-adv-x="495" 
d="M357 503q50 -22 78.5 -60.5t28.5 -87.5v-343q0 -5 -3.5 -8.5t-8.5 -3.5h-142q-5 0 -8.5 3.5t-3.5 8.5v29q0 3 -2 4t-4 -2q-35 -50 -116 -51q-69 0 -113.5 35t-44.5 117q0 87 52.5 124t153.5 37h69q5 0 5 5v22q0 23 -14 37t-39 14q-19 0 -31.5 -8.5t-17.5 -22.5
q-3 -11 -13 -10l-145 9q-12 2 -12 11q3 48 31.5 85t77 57.5t108.5 20.5q64 0 114 -22zM278.5 128.5q19.5 15.5 19.5 40.5v30q0 5 -5 5h-45q-29 0 -45.5 -12.5t-16.5 -35.5q0 -20 12.5 -31.5t33.5 -11.5q27 0 46.5 15.5zM89 693q0 7 10 7h107q10 0 15 -8l29 -53q3 -4 6 0
l29 53q5 8 15 8h107q7 0 9 -4.5t-2 -10.5l-70 -105q-5 -8 -14 -8h-157q-9 0 -14 8l-68 106q-2 6 -2 7z" />
    <glyph glyph-name="uni01D4" unicode="&#x1d4;" horiz-adv-x="502" 
d="M303.5 513.5q3.5 3.5 8.5 3.5h142q5 0 8.5 -3.5t3.5 -8.5v-493q0 -5 -3.5 -8.5t-8.5 -3.5h-142q-5 0 -8.5 3.5t-3.5 8.5v24q0 3 -2 3.5t-4 -2.5q-34 -45 -106 -45q-68 0 -111.5 42.5t-43.5 124.5v346q0 5 3.5 8.5t8.5 3.5h142q5 0 8.5 -3.5t3.5 -8.5v-309q0 -29 13 -45
t37 -16q21 0 34.5 12.5t16.5 35.5v322q0 5 3.5 8.5zM90 693q0 7 10 7h107q10 0 15 -8l29 -53q3 -4 6 0l29 53q5 8 15 8h107q7 0 9 -4.5t-2 -10.5l-70 -105q-5 -8 -14 -8h-157q-9 0 -14 8l-68 106q-2 6 -2 7z" />
    <glyph glyph-name="uni01E5" unicode="&#x1e5;" horiz-adv-x="526" 
d="M516.5 306.5q3.5 -3.5 3.5 -8.5v-74q0 -5 -3.5 -8.5t-8.5 -3.5h-30q-5 0 -5 -5v-163q0 -125 -70.5 -185.5t-199.5 -60.5q-38 0 -70 4q-12 0 -12 12l4 122q0 13 13 11q27 -3 50 -3q62 0 90.5 26t28.5 82l-7 -8q-34 -40 -97 -40q-66 0 -111 37.5t-58 114.5q-8 28 -8 105
q0 28 2.5 59.5t6.5 47.5q1 2 1 6q12 71 54.5 111t109.5 40q65 0 101 -45q2 -3 4 -2t2 4v23q0 5 3.5 8.5t8.5 3.5h142q5 0 8.5 -3.5t3.5 -8.5v-190q0 -5 5 -5h30q5 0 8.5 -3.5zM285.5 152q13.5 12 17.5 33l2 22q0 5 -4 5h-52q-5 0 -8.5 3.5t-3.5 8.5v74q0 5 3.5 8.5t8.5 3.5
h51q5 0 5 5q0 12 -3 22q-4 21 -17.5 33.5t-34.5 12.5q-19 0 -31.5 -12.5t-17.5 -32.5q-8 -37 -8 -78q0 -42 6 -75q5 -21 18.5 -33t33.5 -12q21 0 34.5 12z" />
    <glyph glyph-name="gcaron" unicode="&#x1e7;" horiz-adv-x="507" 
d="M310.5 513.5q3.5 3.5 8.5 3.5h142q5 0 8.5 -3.5t3.5 -8.5v-461q0 -125 -70.5 -185.5t-199.5 -60.5q-38 0 -70 4q-12 0 -12 12l4 122q0 13 13 11q27 -3 50 -3q62 0 90.5 26t28.5 82l-7 -8q-34 -40 -97 -40q-66 0 -111 37.5t-58 114.5q-8 28 -8 105q0 28 2.5 59.5t6.5 47.5
q1 2 1 6q12 71 54.5 111t109.5 40q65 0 101 -45q2 -3 4 -2t2 4v23q0 5 3.5 8.5zM307 261q0 49 -5 76q-4 21 -17.5 33.5t-34.5 12.5q-19 0 -31.5 -12.5t-17.5 -32.5q-8 -37 -8 -78q0 -42 6 -75q5 -21 18.5 -33t33.5 -12q21 0 34.5 12t17.5 33q4 29 4 76zM102 693q0 7 10 7
h107q10 0 15 -8l29 -53q3 -4 6 0l29 53q5 8 15 8h107q7 0 9 -4.5t-2 -10.5l-70 -105q-5 -8 -14 -8h-157q-9 0 -14 8l-68 106q-2 6 -2 7z" />
    <glyph glyph-name="uni01E9" unicode="&#x1e9;" horiz-adv-x="505" 
d="M39.5 3.5q-3.5 3.5 -3.5 8.5v676q0 5 3.5 8.5t8.5 3.5h142q5 0 8.5 -3.5t3.5 -8.5v-309q0 -3 2.5 -4t3.5 2l88 132q5 8 14 8h154q7 0 9.5 -4.5t-1.5 -10.5l-121 -173q-2 -3 0 -7l136 -308q2 -4 2 -6q0 -8 -11 -8h-148q-11 0 -14 10l-72 192q-1 3 -3 3t-4 -2l-33 -51
q-2 -4 -2 -6v-134q0 -5 -3.5 -8.5t-8.5 -3.5h-142q-5 0 -8.5 3.5zM84 875q0 7 10 7h107q10 0 15 -8l29 -53q3 -4 6 0l29 53q5 8 15 8h107q7 0 9 -4.5t-2 -10.5l-70 -105q-5 -8 -14 -8h-157q-9 0 -14 8l-68 106q-2 6 -2 7z" />
    <glyph glyph-name="uni01EF" unicode="&#x1ef;" horiz-adv-x="445" 
d="M253 254q0 -2 3 -3q81 -19 123 -79t42 -134q0 -68 -34.5 -122.5t-95 -85.5t-136.5 -31q-54 0 -114 18q-10 3 -10 14l4 122q0 6 4 8.5t11 0.5q43 -15 86 -15q53 0 86 26t33 78q0 44 -25.5 75.5t-65.5 31.5q-29 0 -59 -17q-4 -2 -6 -2q-6 0 -11 7l-47 81q-1 2 -1 6
q0 6 5 11l143 117q2 2 1 4t-4 2h-146q-5 0 -8.5 3.5t-3.5 8.5v126q0 5 3.5 8.5t8.5 3.5h336q5 0 8.5 -3.5t3.5 -8.5v-125q0 -8 -7 -15l-125 -107q-2 -2 -2 -4zM47 693q0 7 10 7h107q10 0 15 -8l29 -53q3 -4 6 0l29 53q5 8 15 8h107q7 0 9 -4.5t-2 -10.5l-70 -105
q-5 -8 -14 -8h-157q-9 0 -14 8l-68 106q-2 6 -2 7z" />
    <glyph glyph-name="oslashacute" unicode="&#x1ff;" horiz-adv-x="494" 
d="M444 428q19 -32 25 -73q7 -47 7 -95q0 -52 -6 -91q-11 -83 -68.5 -130t-150.5 -47q-39 0 -79 10q-4 1 -6 -3l-36 -58q-3 -4 -7.5 -5t-9.5 2l-91 64q-10 7 -4 17l40 62q2 3 0 6q-21 36 -27 80q-6 39 -6 92q0 56 6 95q12 79 70 125t150 46q41 0 79 -11q4 -1 6 3l37 59
q3 5 8 6t9 -3l91 -64q10 -7 4 -17l-41 -64q-1 -3 0 -6zM309 259q0 37 -3 70q-5 25 -19.5 39.5t-36.5 14.5q-23 0 -37 -14.5t-19 -39.5q-3 -33 -3 -70q0 -36 3 -68q4 -26 19 -41.5t38 -15.5q22 0 36.5 15.5t18.5 41.5q3 32 3 68zM175 582q-2 4 1 10l56 100q5 8 15 8h117
q10 0 10 -7q0 -3 -3 -8l-76 -100q-6 -7 -14 -7h-97q-7 0 -9 4z" />
    <glyph glyph-name="uni0218" unicode="&#x218;" horiz-adv-x="526" 
d="M140.5 17q-53.5 25 -83 70.5t-29.5 105.5v26q0 5 3.5 8.5t8.5 3.5h140q5 0 8.5 -3.5t3.5 -8.5v-18q0 -28 22 -47.5t59 -19.5q31 0 47 16t16 39q0 19 -11.5 32.5t-31.5 24.5t-69 36q-57 28 -97 54.5t-68.5 69.5t-28.5 103t29 105t81 69.5t119 24.5q69 0 123 -26.5
t84.5 -74t30.5 -109.5v-19q0 -5 -3.5 -8.5t-8.5 -3.5h-140q-5 0 -8.5 3.5t-3.5 8.5v17q0 29 -21 49.5t-57 20.5q-29 0 -45 -15t-16 -41q0 -19 11 -33.5t34.5 -28.5t71.5 -38l29 -16q54 -30 86 -53t53.5 -59t21.5 -87q0 -94 -64.5 -148.5t-170.5 -54.5q-72 0 -125.5 25z
M153 -172q-2 4 1 10l56 100q5 8 15 8h117q10 0 10 -7q0 -3 -3 -8l-76 -100q-6 -7 -14 -7h-97q-7 0 -9 4z" />
    <glyph glyph-name="uni0219" unicode="&#x219;" horiz-adv-x="469" 
d="M125 12q-49 20 -75.5 55.5t-26.5 81.5v8q0 5 3.5 8.5t8.5 3.5h135q5 0 8.5 -3.5t3.5 -8.5v-1q0 -18 16 -29.5t40 -11.5q21 0 33.5 9t12.5 23q0 16 -16.5 24.5t-53.5 17.5q-39 9 -65 20q-52 20 -86 54t-34 95q0 77 56 122t148 45q94 0 150.5 -47.5t56.5 -125.5
q0 -11 -12 -11h-130q-5 0 -8.5 3.5t-3.5 8.5v4q0 17 -14 28t-36 11q-21 0 -34.5 -10t-13.5 -25q0 -19 18.5 -28t59.5 -20q24 -5 43 -12q65 -21 103.5 -54.5t38.5 -95.5q0 -75 -57.5 -117t-154.5 -42q-65 0 -114 20zM127 -171q-2 4 1 10l56 100q5 8 15 8h117q10 0 10 -7
q0 -3 -3 -8l-76 -100q-6 -7 -14 -7h-97q-7 0 -9 4z" />
    <glyph glyph-name="uni021A" unicode="&#x21a;" horiz-adv-x="537" 
d="M512.5 696.5q3.5 -3.5 3.5 -8.5v-119q0 -5 -3.5 -8.5t-8.5 -3.5h-150q-5 0 -5 -5v-540q0 -5 -3.5 -8.5t-8.5 -3.5h-142q-5 0 -8.5 3.5t-3.5 8.5v540q0 5 -5 5h-144q-5 0 -8.5 3.5t-3.5 8.5v119q0 5 3.5 8.5t8.5 3.5h470q5 0 8.5 -3.5zM122 -164q-2 4 1 10l56 100
q5 8 15 8h117q10 0 10 -7q0 -3 -3 -8l-76 -100q-6 -7 -14 -7h-97q-7 0 -9 4z" />
    <glyph glyph-name="uni021B" unicode="&#x21b;" horiz-adv-x="343" 
d="M319.5 396.5q-3.5 -3.5 -8.5 -3.5h-71q-5 0 -5 -5v-198q0 -26 10 -37.5t31 -10.5h22q5 0 8.5 -3.5t3.5 -8.5v-118q0 -12 -12 -12q-40 -2 -58 -2q-83 0 -123.5 26t-40.5 99v265q0 5 -5 5h-45q-5 0 -8.5 3.5t-3.5 8.5v100q0 5 3.5 8.5t8.5 3.5h45q5 0 5 5v116q0 5 3.5 8.5
t8.5 3.5h135q5 0 8.5 -3.5t3.5 -8.5v-116q0 -5 5 -5h71q5 0 8.5 -3.5t3.5 -8.5v-100q0 -5 -3.5 -8.5zM102 -163q-2 4 1 10l56 100q5 8 15 8h117q10 0 10 -7q0 -3 -3 -8l-76 -100q-6 -7 -14 -7h-97q-7 0 -9 4z" />
    <glyph glyph-name="uni021F" unicode="&#x21f;" horiz-adv-x="502" 
d="M428 477.5q42 -47.5 42 -132.5v-333q0 -5 -3.5 -8.5t-8.5 -3.5h-142q-5 0 -8.5 3.5t-3.5 8.5v309q0 28 -14 45t-37 17t-37 -17t-14 -45v-309q0 -5 -3.5 -8.5t-8.5 -3.5h-142q-5 0 -8.5 3.5t-3.5 8.5v676q0 5 3.5 8.5t8.5 3.5h142q5 0 8.5 -3.5t3.5 -8.5v-211
q0 -3 2.5 -3.5t4.5 3.5q36 48 102 48q75 0 117 -47.5zM86 875q0 7 10 7h107q10 0 15 -8l29 -53q3 -4 6 0l29 53q5 8 15 8h107q7 0 9 -4.5t-2 -10.5l-70 -105q-5 -8 -14 -8h-157q-9 0 -14 8l-68 106q-2 6 -2 7z" />
    <glyph glyph-name="uni0228" unicode="&#x228;" horiz-adv-x="509" 
d="M479.5 561.5q-3.5 -3.5 -8.5 -3.5h-258q-5 0 -5 -5v-125q0 -5 5 -5h156q5 0 8.5 -3.5t3.5 -8.5v-118q0 -5 -3.5 -8.5t-8.5 -3.5h-156q-5 0 -5 -5v-129q0 -5 5 -5h258q5 0 8.5 -3.5t3.5 -8.5v-118q0 -5 -3.5 -8.5t-8.5 -3.5h-141q-3 0 -3.5 -2t1.5 -4q32 -38 32 -81
q0 -13 -3 -26q-9 -35 -34.5 -49.5t-59.5 -14.5q-30 0 -60 10q-11 3 -9 14l8 60q1 6 4.5 8t10.5 0q8 -2 12 -2q9 0 15.5 5t8.5 14q1 3 1 9q0 26 -36 57q-4 2 -7 2h-157q-5 0 -8.5 3.5t-3.5 8.5v676q0 5 3.5 8.5t8.5 3.5h417q5 0 8.5 -3.5t3.5 -8.5v-118q0 -5 -3.5 -8.5z" />
    <glyph glyph-name="uni0229" unicode="&#x229;" horiz-adv-x="497" 
d="M476 264l-1 -40q0 -12 -12 -12h-262q-4 0 -4 -4q0 -11 4 -29q5 -21 19.5 -33t37.5 -12q42 0 57 34q4 10 15 8l128 -25q14 -2 9 -14q-38 -113 -145 -139q-3 0 -3.5 -2t1.5 -4q37 -42 37 -84q0 -8 -4 -26q-9 -35 -35 -49.5t-60 -14.5q-30 0 -60 10q-11 3 -9 14l8 60
q1 6 4.5 8t10.5 0q8 -2 11 -2q20 0 26 20q7 26 -36 65l-6 3q-137 20 -169 159q-9 39 -9 119q0 47 6 78q11 79 69 126t146 47q96 0 156.5 -54t67.5 -142q2 -42 2 -65zM217.5 370.5q-13.5 -12.5 -18.5 -34.5l-3 -28q0 -5 5 -5h102q5 0 5 5q-2 18 -4 28q-3 21 -17 34t-35 13
t-34.5 -12.5z" />
    <glyph glyph-name="uni0237" unicode="&#x237;" horiz-adv-x="245" 
d="M-67 -190v116q0 13 13 11q54 -2 74 16t20 61l-1 491q0 5 3.5 8.5t8.5 3.5h143q5 0 8.5 -3.5t3.5 -8.5v-490q0 -85 -19 -131t-75 -67.5t-167 -18.5q-12 0 -12 12z" />
    <glyph glyph-name="uni0259" unicode="&#x259;" horiz-adv-x="497" 
d="M463 165q-12 -79 -70 -126t-146 -47q-95 0 -155.5 54.5t-67.5 141.5q-2 36 -2 105q0 12 12 12h263q4 0 4 4q0 13 -4 29q-5 22 -19.5 34t-37.5 12q-42 0 -58 -35q-4 -10 -15 -8l-128 25q-13 2 -8 14q23 71 75.5 108t129.5 37q187 0 223 -162q10 -46 10 -104q2 -45 -6 -94z
M280.5 147q13.5 13 17.5 35q2 7 4 27q0 5 -5 5h-103q-5 0 -5 -5q2 -20 4 -27q4 -22 18 -35t35 -13t34.5 13z" />
    <glyph glyph-name="uni0292" unicode="&#x292;" horiz-adv-x="445" 
d="M253 254q0 -2 3 -3q81 -19 123 -79t42 -134q0 -68 -34.5 -122.5t-95 -85.5t-136.5 -31q-54 0 -114 18q-10 3 -10 14l4 122q0 6 4 8.5t11 0.5q43 -15 86 -15q53 0 86 26t33 78q0 44 -25.5 75.5t-65.5 31.5q-29 0 -59 -17q-4 -2 -6 -2q-6 0 -11 7l-47 81q-1 2 -1 6
q0 6 5 11l143 117q2 2 1 4t-4 2h-146q-5 0 -8.5 3.5t-3.5 8.5v126q0 5 3.5 8.5t8.5 3.5h336q5 0 8.5 -3.5t3.5 -8.5v-125q0 -8 -7 -15l-125 -107q-2 -2 -2 -4z" />
    <glyph glyph-name="uni02BB" unicode="&#x2bb;" horiz-adv-x="218" 
d="M4 691q0 9 11 9h141q11 0 13 -11l46 -209v-4q0 -9 -11 -9h-107q-11 0 -14 10l-78 209q-1 2 -1 5z" />
    <glyph glyph-name="uni02BC" unicode="&#x2bc;" horiz-adv-x="218" 
d="M213 686l-78 -209q-3 -10 -14 -10h-107q-14 0 -11 13l47 209q2 11 13 11h140q15 0 10 -14z" />
    <glyph glyph-name="circumflex" unicode="&#x2c6;" horiz-adv-x="336" 
d="M19.5 575.5q-2.5 3.5 1.5 10.5l68 106q5 8 14 8h157q9 0 14 -8l70 -105q2 -3 2 -7q0 -8 -9 -8h-107q-10 0 -15 8l-29 53q-3 5 -6 0l-29 -53q-5 -8 -15 -8h-107q-7 0 -9.5 3.5z" />
    <glyph glyph-name="caron" unicode="&#x2c7;" horiz-adv-x="368" 
d="M20 693q0 7 10 7h107q10 0 15 -8l29 -53q3 -4 6 0l29 53q5 8 15 8h107q7 0 9 -4.5t-2 -10.5l-70 -105q-5 -8 -14 -8h-157q-9 0 -14 8l-68 106q-2 6 -2 7z" />
    <glyph glyph-name="uni02C9" unicode="&#x2c9;" horiz-adv-x="264" 
d="M3.5 591.5q-3.5 3.5 -3.5 8.5v87q0 5 3.5 8.5t8.5 3.5h240q5 0 8.5 -3.5t3.5 -8.5v-87q0 -5 -3.5 -8.5t-8.5 -3.5h-240q-5 0 -8.5 3.5z" />
    <glyph glyph-name="breve" unicode="&#x2d8;" horiz-adv-x="322" 
d="M59.5 583.5q-40.5 32.5 -45.5 85.5v2q0 10 11 10h72q10 0 12 -11q4 -19 18 -30.5t34 -11.5q21 0 35 11.5t18 30.5q2 11 12 11h72q12 0 12 -11q-5 -53 -46 -86t-103 -33q-61 0 -101.5 32.5z" />
    <glyph glyph-name="dotaccent" unicode="&#x2d9;" horiz-adv-x="200" 
d="M37.5 587.5q-24.5 24.5 -24.5 62.5q0 39 24.5 63t62.5 24t62 -24t24 -63q0 -38 -24.5 -62.5t-61.5 -24.5q-38 0 -62.5 24.5z" />
    <glyph glyph-name="ring" unicode="&#x2da;" horiz-adv-x="286" 
d="M50 594.5q-37 37.5 -37 92.5t37.5 92t92.5 37t92.5 -37t37.5 -92t-37.5 -92.5t-92.5 -37.5q-56 0 -93 37.5zM175 655q13 13 13 32t-13 32.5t-32 13.5q-18 0 -31.5 -13.5t-13.5 -32.5t13.5 -32t31.5 -13q19 0 32 13z" />
    <glyph glyph-name="ogonek" unicode="&#x2db;" horiz-adv-x="171" 
d="M167 -173q0 -8 -9 -11q-30 -10 -60 -10q-34 0 -60 14.5t-35 49.5q-3 12 -3 25q0 51 49 97l4 4t12 4h79q10 0 10 -6q0 -5 -6 -9q-23 -19 -34 -37t-7 -32q6 -20 26 -20q3 0 11 2q2 1 6 1q8 0 9 -9l8 -60v-3z" />
    <glyph glyph-name="tilde" unicode="&#x2dc;" horiz-adv-x="361" 
d="M208 574q-13 4 -32 13q-4 2 -14.5 7t-17 7t-13.5 2q-26 0 -44 -20q-5 -6 -9 -6t-8 4l-49 44q-8 7 -4 17q14 34 41 52.5t61 18.5q19 0 35 -5.5t37 -17.5q5 -3 14 -7.5t16 -7t15 -2.5q27 0 41 21q5 7 10 7q3 0 7 -4l47 -46q7 -7 3 -17q-15 -31 -43 -47.5t-63 -16.5
q-17 0 -30 4z" />
    <glyph glyph-name="hungarumlaut" unicode="&#x2dd;" horiz-adv-x="422" 
d="M20 590q-2 4 1 10l54 100q5 8 15 8h115q10 0 10 -7q0 -3 -3 -8l-75 -100q-6 -7 -14 -7h-94q-7 0 -9 4zM206 590q-2 4 1 10l54 100q5 8 15 8h115q10 0 10 -7q0 -3 -3 -8l-75 -100q-6 -7 -14 -7h-94q-7 0 -9 4z" />
    <glyph glyph-name="gravecomb" unicode="&#x300;" 
d="M-14 586q0 -8 -10 -8h-97q-8 0 -14 7l-76 100q-3 5 -3 8q0 7 10 7h117q10 0 15 -8l56 -100q2 -4 2 -6z" />
    <glyph glyph-name="acutecomb" unicode="&#x301;" 
d="M-227 582q-2 4 1 10l56 100q5 8 15 8h117q10 0 10 -7q0 -3 -3 -8l-76 -100q-6 -7 -14 -7h-97q-7 0 -9 4z" />
    <glyph glyph-name="uni0302" unicode="&#x302;" 
d="M-347.5 575.5q-2.5 3.5 1.5 10.5l68 106q5 8 14 8h157q9 0 14 -8l70 -105q2 -3 2 -7q0 -8 -9 -8h-107q-10 0 -15 8l-29 53q-3 5 -6 0l-29 -53q-5 -8 -15 -8h-107q-7 0 -9.5 3.5z" />
    <glyph glyph-name="tildecomb" unicode="&#x303;" 
d="M-142 574q-13 4 -32 13q-4 2 -14.5 7t-17 7t-13.5 2q-26 0 -44 -20q-5 -6 -9 -6t-8 4l-49 44q-8 7 -4 17q14 34 41 52.5t61 18.5q19 0 35 -5.5t37 -17.5q5 -3 14 -7.5t16 -7t15 -2.5q27 0 41 21q5 7 10 7q3 0 7 -4l47 -46q7 -7 3 -17q-15 -31 -43 -47.5t-63 -16.5
q-17 0 -30 4z" />
    <glyph glyph-name="uni0304" unicode="&#x304;" 
d="M-260.5 587.5q-3.5 3.5 -3.5 8.5v87q0 5 3.5 8.5t8.5 3.5h240q5 0 8.5 -3.5t3.5 -8.5v-87q0 -5 -3.5 -8.5t-8.5 -3.5h-240q-5 0 -8.5 3.5z" />
    <glyph glyph-name="uni0306" unicode="&#x306;" 
d="M-263.5 589.5q-40.5 31.5 -44.5 83.5v2q0 10 11 10l67 -1q10 0 12 -11q4 -19 19.5 -30.5t37.5 -11.5t37.5 11.5t20.5 31.5q2 11 12 11h67q13 0 11 -11q-4 -52 -45 -84t-103 -32t-102.5 31.5z" />
    <glyph glyph-name="uni0307" unicode="&#x307;" 
d="M-158.5 587.5q-24.5 24.5 -24.5 62.5q0 39 24.5 63t62.5 24t62 -24t24 -63q0 -38 -24.5 -62.5t-61.5 -24.5q-38 0 -62.5 24.5z" />
    <glyph glyph-name="uni0308" unicode="&#x308;" 
d="M-148.5 591.5q-24.5 24.5 -24.5 62.5q0 39 24.5 63t62.5 24t62 -24t24 -63q0 -38 -24.5 -62.5t-61.5 -24.5q-38 0 -62.5 24.5zM-351.5 591.5q-24.5 24.5 -24.5 62.5q0 39 24.5 63t62.5 24t62 -24t24 -63q0 -38 -24.5 -62.5t-61.5 -24.5q-38 0 -62.5 24.5z" />
    <glyph glyph-name="hookabovecomb" unicode="&#x309;" 
d="M-342.5 566q-2.5 4 0.5 10q10 28 32 52q9 10 13 17.5t4 20.5q0 8 -7 14t-17 6q-11 0 -20 -6t-23 -23q-5 -5 -9 -5t-8 3l-41 30q-9 8 -3 17q23 33 47.5 47t61.5 14q48 0 76 -25.5t28 -71.5q0 -24 -9.5 -39.5t-28.5 -35.5q-21 -23 -26 -32q-6 -8 -15 -7l-47 9q-6 1 -8.5 5z
" />
    <glyph glyph-name="uni030A" unicode="&#x30a;" 
d="M-202 594.5q-37 37.5 -37 92.5t37.5 92t92.5 37t92.5 -37t37.5 -92t-37.5 -92.5t-92.5 -37.5q-56 0 -93 37.5zM-77 655q13 13 13 32t-13 32.5t-32 13.5q-18 0 -31.5 -13.5t-13.5 -32.5t13.5 -32t31.5 -13q19 0 32 13z" />
    <glyph glyph-name="uni030B" unicode="&#x30b;" 
d="M-385.5 581.5q-2.5 3.5 0.5 10.5l45 99q4 9 14 9h120q7 0 9.5 -3.5t-0.5 -10.5l-52 -99q-5 -9 -14 -9h-113q-7 0 -9.5 3.5zM-208.5 582q-2.5 4 0.5 10l52 99q4 9 15 9h112q7 0 9.5 -3.5t-0.5 -10.5l-52 -99q-5 -9 -14 -9h-113q-7 0 -9.5 4z" />
    <glyph glyph-name="uni030C" unicode="&#x30c;" 
d="M-348 693q0 7 10 7h107q10 0 15 -8l29 -53q3 -4 6 0l29 53q5 8 15 8h107q7 0 9 -4.5t-2 -10.5l-70 -105q-5 -8 -14 -8h-157q-9 0 -14 8l-68 106q-2 6 -2 7z" />
    <glyph glyph-name="uni0312" unicode="&#x312;" 
d="M-20 696q2 -4 -1 -10l-56 -100q-5 -8 -15 -8h-117q-10 0 -10 7q0 4 3 8l76 100q6 7 14 7h97q7 0 9 -4z" />
    <glyph glyph-name="uni0313" unicode="&#x313;" 
d="M-214 582q-2 4 1 10l56 100q5 8 15 8h117q10 0 10 -7q0 -3 -3 -8l-76 -100q-6 -7 -14 -7h-97q-7 0 -9 4z" />
    <glyph glyph-name="uni031B" unicode="&#x31b;" 
d="M-150 453v52q0 11 11 13q54 7 60 75q0 12 12 12h68q6 0 9 -4.5t2 -13.5q-6 -72 -48 -107.5t-102 -38.5q-12 0 -12 12z" />
    <glyph glyph-name="dotbelowcomb" unicode="&#x323;" 
d="M-159.5 -219.5q-23.5 23.5 -23.5 59.5q0 37 23.5 60.5t60.5 23.5q36 0 59.5 -23.5t23.5 -60.5q0 -36 -23.5 -59.5t-59.5 -23.5q-37 0 -60.5 23.5z" />
    <glyph glyph-name="uni0326" unicode="&#x326;" 
d="M-236 -164q-2 4 1 10l56 100q5 8 15 8h117q10 0 10 -7q0 -3 -3 -8l-76 -100q-6 -7 -14 -7h-97q-7 0 -9 4z" />
    <glyph glyph-name="uni0327" unicode="&#x327;" 
d="M-167 -170l8 60q1 11 14 8q8 -2 12 -2q20 0 26 20q4 14 -7 32t-34 37q-6 4 -6 9q0 6 10 6h79q7 0 12 -4q3 -1 4 -4q49 -46 49 -97q0 -13 -3 -25q-9 -35 -35 -49.5t-60 -14.5q-30 0 -60 10q-11 3 -9 14z" />
    <glyph glyph-name="uni0328" unicode="&#x328;" 
d="M-4 -173q0 -8 -9 -11q-30 -10 -60 -10q-34 0 -60 14.5t-35 49.5q-3 12 -3 26q0 51 49 96l4 4t12 4h79q10 0 10 -6q0 -5 -6 -9q-23 -19 -34 -37t-7 -32q6 -20 25 -20q4 0 12 2q2 1 6 1q8 0 9 -9l8 -60v-3z" />
    <glyph glyph-name="uni0335" unicode="&#x335;" 
d="M-331.5 646.5q3.5 3.5 8.5 3.5h305q5 0 8.5 -3.5t3.5 -8.5v-74q0 -5 -3.5 -8.5t-8.5 -3.5h-305q-5 0 -8.5 3.5t-3.5 8.5v74q0 5 3.5 8.5z" />
    <glyph glyph-name="uni0336" unicode="&#x336;" 
d="M-572.5 510.5q-3.5 3.5 -3.5 8.5v87q0 5 3.5 8.5t8.5 3.5h552q5 0 8.5 -3.5t3.5 -8.5v-87q0 -5 -3.5 -8.5t-8.5 -3.5h-552q-5 0 -8.5 3.5z" />
    <glyph glyph-name="uni0337" unicode="&#x337;" 
d="M-396 29q-4 0 -9 5l-65 76q-4 6 -4 8q0 4 5 9l445 381q6 4 8 4q4 0 9 -5l65 -77q4 -6 4 -8q0 -4 -5 -9l-445 -380q-6 -4 -8 -4z" />
    <glyph glyph-name="uni0338" unicode="&#x338;" 
d="M-440.5 -30.5q-2.5 3.5 0.5 10.5l355 746q4 9 14 9h55q7 0 9.5 -3.5t-0.5 -10.5l-356 -746q-5 -9 -14 -9h-54q-7 0 -9.5 3.5z" />
    <glyph glyph-name="uni0394" unicode="&#x394;" horiz-adv-x="612" 
d="M19.5 3.5q-3.5 3.5 -3.5 8.5v122q0 6 3 15l224 542q3 9 14 9h97q11 0 14 -9l225 -543q3 -9 3 -15v-121q0 -5 -3.5 -8.5t-8.5 -3.5h-556q-5 0 -8.5 3.5zM184 143h244q6 0 4 6l-123 330q-1 3 -3 3t-3 -3l-123 -330q-1 -6 4 -6z" />
    <glyph glyph-name="uni03A9" unicode="&#x3a9;" horiz-adv-x="567" 
d="M35.5 3.5q-3.5 3.5 -3.5 8.5v118q0 5 3.5 8.5t8.5 3.5h30q3 0 4 2t-1 4q-36 52 -36 125v203q0 69 30.5 121.5t85.5 81.5t127 29t127 -29t85.5 -81.5t30.5 -121.5v-203q0 -74 -37 -125q-1 -2 0 -4t4 -2h28q5 0 8.5 -3.5t3.5 -8.5v-118q0 -5 -3.5 -8.5t-8.5 -3.5h-209
q-5 0 -8.5 3.5t-3.5 8.5v121q0 10 10 13q23 8 36.5 30t13.5 52v253q0 38 -21 61.5t-56 23.5t-56 -23.5t-21 -61.5v-253q0 -30 13.5 -51.5t35.5 -29.5q10 -5 10 -14v-121q0 -5 -3.5 -8.5t-8.5 -3.5h-210q-5 0 -8.5 3.5z" />
    <glyph glyph-name="uni03BC" unicode="&#x3bc;" horiz-adv-x="505" 
d="M306.5 513.5q3.5 3.5 8.5 3.5h142q5 0 8.5 -3.5t3.5 -8.5v-493q0 -5 -3.5 -8.5t-8.5 -3.5h-142q-5 0 -8.5 3.5t-3.5 8.5v24q0 3 -2 3.5t-4 -2.5q-29 -40 -90 -45q-5 0 -5 -5v-175q0 -5 -3.5 -8.5t-8.5 -3.5h-142q-5 0 -8.5 3.5t-3.5 8.5v693q0 5 3.5 8.5t8.5 3.5h142
q5 0 8.5 -3.5t3.5 -8.5v-309q0 -29 13 -45t37 -16q21 0 34.5 12.5t16.5 35.5v322q0 5 3.5 8.5z" />
    <glyph glyph-name="pi" unicode="&#x3c0;" horiz-adv-x="608" 
d="M581.5 379.5q-3.5 -3.5 -8.5 -3.5h-47q-5 0 -5 -5v-165q0 -39 8.5 -53t24.5 -14l10 1h2q10 0 10 -12v-116q0 -12 -12 -12q-60 -3 -67 -3q-64 0 -103.5 24t-38.5 92v258q0 5 -5 5h-92q-5 0 -5 -5v-359q0 -5 -3.5 -8.5t-8.5 -3.5h-142q-5 0 -8.5 3.5t-3.5 8.5v359q0 5 -5 5
h-47q-5 0 -8.5 3.5t-3.5 8.5v117q0 5 3.5 8.5t8.5 3.5h538q5 0 8.5 -3.5t3.5 -8.5v-117q0 -5 -3.5 -8.5z" />
    <glyph glyph-name="Wgrave" unicode="&#x1e80;" horiz-adv-x="815" 
d="M182 10l-162 677v4q0 9 11 9h149q12 0 13 -11l66 -347q1 -3 3 -3t3 3l62 347q1 11 13 11h128q12 0 13 -11l68 -347q1 -3 3 -3t3 3l60 347q1 11 13 11h145q14 0 11 -13l-149 -676q-2 -11 -13 -11h-135q-12 0 -13 11l-69 365q-1 3 -3 3t-3 -3l-60 -365q-1 -11 -13 -11h-131
q-10 0 -13 10zM464 769q0 -8 -10 -8h-97q-8 0 -14 7l-76 100q-3 5 -3 8q0 7 10 7h117q10 0 15 -8l56 -100q2 -4 2 -6z" />
    <glyph glyph-name="wgrave" unicode="&#x1e81;" horiz-adv-x="720" 
d="M142 10l-126 495v4q0 9 11 9h140q12 0 13 -11l47 -256q1 -3 3 -3t3 3l49 256q1 11 13 11h125q11 0 13 -11l52 -257q1 -3 3 -3t3 3l50 257q1 11 13 11l139 -2q14 0 11 -13l-127 -493q-3 -10 -14 -10h-142q-11 0 -13 11l-50 225q-1 4 -3 4t-3 -4l-44 -225q-1 -11 -13 -11
h-139q-11 0 -14 10zM415 586q0 -8 -10 -8h-97q-8 0 -14 7l-76 100q-3 5 -3 8q0 7 10 7h117q10 0 15 -8l56 -100q2 -4 2 -6z" />
    <glyph glyph-name="Wacute" unicode="&#x1e82;" horiz-adv-x="815" 
d="M182 10l-162 677v4q0 9 11 9h149q12 0 13 -11l66 -347q1 -3 3 -3t3 3l62 347q1 11 13 11h128q12 0 13 -11l68 -347q1 -3 3 -3t3 3l60 347q1 11 13 11h145q14 0 11 -13l-149 -676q-2 -11 -13 -11h-135q-12 0 -13 11l-69 365q-1 3 -3 3t-3 -3l-60 -365q-1 -11 -13 -11h-131
q-10 0 -13 10zM333 765q-2 4 1 10l56 100q5 8 15 8h117q10 0 10 -7q0 -3 -3 -8l-76 -100q-6 -7 -14 -7h-97q-7 0 -9 4z" />
    <glyph glyph-name="wacute" unicode="&#x1e83;" horiz-adv-x="720" 
d="M142 10l-126 495v4q0 9 11 9h140q12 0 13 -11l47 -256q1 -3 3 -3t3 3l49 256q1 11 13 11h125q11 0 13 -11l52 -257q1 -3 3 -3t3 3l50 257q1 11 13 11l139 -2q14 0 11 -13l-127 -493q-3 -10 -14 -10h-142q-11 0 -13 11l-50 225q-1 4 -3 4t-3 -4l-44 -225q-1 -11 -13 -11
h-139q-11 0 -14 10zM284 582q-2 4 1 10l56 100q5 8 15 8h117q10 0 10 -7q0 -3 -3 -8l-76 -100q-6 -7 -14 -7h-97q-7 0 -9 4z" />
    <glyph glyph-name="Wdieresis" unicode="&#x1e84;" horiz-adv-x="815" 
d="M182 10l-162 677v4q0 9 11 9h149q12 0 13 -11l66 -347q1 -3 3 -3t3 3l62 347q1 11 13 11h128q12 0 13 -11l68 -347q1 -3 3 -3t3 3l60 347q1 11 13 11h145q14 0 11 -13l-149 -676q-2 -11 -13 -11h-135q-12 0 -13 11l-69 365q-1 3 -3 3t-3 -3l-60 -365q-1 -11 -13 -11h-131
q-10 0 -13 10zM445.5 774.5q-24.5 24.5 -24.5 62.5q0 39 24.5 63t62.5 24t62 -24t24 -63q0 -38 -24.5 -62.5t-61.5 -24.5q-38 0 -62.5 24.5zM242.5 774.5q-24.5 24.5 -24.5 62.5q0 39 24.5 63t62.5 24t62 -24t24 -63q0 -38 -24.5 -62.5t-61.5 -24.5q-38 0 -62.5 24.5z" />
    <glyph glyph-name="wdieresis" unicode="&#x1e85;" horiz-adv-x="720" 
d="M142 10l-126 495v4q0 9 11 9h140q12 0 13 -11l47 -256q1 -3 3 -3t3 3l49 256q1 11 13 11h125q11 0 13 -11l52 -257q1 -3 3 -3t3 3l50 257q1 11 13 11l139 -2q14 0 11 -13l-127 -493q-3 -10 -14 -10h-142q-11 0 -13 11l-50 225q-1 4 -3 4t-3 -4l-44 -225q-1 -11 -13 -11
h-139q-11 0 -14 10zM395.5 591.5q-24.5 24.5 -24.5 62.5q0 39 24.5 63t62.5 24t62 -24t24 -63q0 -38 -24.5 -62.5t-61.5 -24.5q-38 0 -62.5 24.5zM192.5 591.5q-24.5 24.5 -24.5 62.5q0 39 24.5 63t62.5 24t62 -24t24 -63q0 -38 -24.5 -62.5t-61.5 -24.5q-38 0 -62.5 24.5z
" />
    <glyph glyph-name="uni1EA0" unicode="&#x1ea0;" horiz-adv-x="601" 
d="M409 11l-20 88q-1 4 -5 4h-169q-4 0 -5 -4l-20 -88q-2 -11 -13 -11h-147q-13 0 -10 13l179 677q3 10 14 10h175q11 0 14 -10l179 -677l1 -4q0 -9 -11 -9h-149q-11 0 -13 11zM245 231h107q2 0 4 1.5t1 4.5l-56 248q-1 4 -3 4t-3 -4l-55 -249q-1 -5 5 -5zM240.5 -219.5
q-23.5 23.5 -23.5 59.5q0 37 23.5 60.5t60.5 23.5q36 0 59.5 -23.5t23.5 -60.5q0 -36 -23.5 -59.5t-59.5 -23.5q-37 0 -60.5 23.5z" />
    <glyph glyph-name="uni1EA1" unicode="&#x1ea1;" horiz-adv-x="495" 
d="M357 503q50 -22 78.5 -60.5t28.5 -87.5v-343q0 -5 -3.5 -8.5t-8.5 -3.5h-142q-5 0 -8.5 3.5t-3.5 8.5v29q0 3 -2 4t-4 -2q-35 -50 -116 -51q-69 0 -113.5 35t-44.5 117q0 87 52.5 124t153.5 37h69q5 0 5 5v22q0 23 -14 37t-39 14q-19 0 -31.5 -8.5t-17.5 -22.5
q-3 -11 -13 -10l-145 9q-12 2 -12 11q3 48 31.5 85t77 57.5t108.5 20.5q64 0 114 -22zM278.5 128.5q19.5 15.5 19.5 40.5v30q0 5 -5 5h-45q-29 0 -45.5 -12.5t-16.5 -35.5q0 -20 12.5 -31.5t33.5 -11.5q27 0 46.5 15.5zM188.5 -219.5q-23.5 23.5 -23.5 59.5q0 37 23.5 60.5
t60.5 23.5q36 0 59.5 -23.5t23.5 -60.5q0 -36 -23.5 -59.5t-59.5 -23.5q-37 0 -60.5 23.5z" />
    <glyph glyph-name="uni1EA2" unicode="&#x1ea2;" horiz-adv-x="601" 
d="M409 11l-20 88q-1 4 -5 4h-169q-4 0 -5 -4l-20 -88q-2 -11 -13 -11h-147q-13 0 -10 13l179 677q3 10 14 10h175q11 0 14 -10l179 -677l1 -4q0 -9 -11 -9h-149q-11 0 -13 11zM245 231h107q2 0 4 1.5t1 4.5l-56 248q-1 4 -3 4t-3 -4l-55 -249q-1 -5 5 -5zM275.5 749
q-2.5 4 0.5 10q10 28 32 52q9 10 13 17.5t4 20.5q0 8 -7 14t-17 6q-11 0 -20 -6t-23 -23q-5 -5 -9 -5t-8 3l-41 30q-9 8 -3 17q23 33 47.5 47t61.5 14q48 0 76 -25.5t28 -71.5q0 -24 -9.5 -39.5t-28.5 -35.5q-21 -23 -26 -32q-6 -8 -15 -7l-47 9q-6 1 -8.5 5z" />
    <glyph glyph-name="uni1EA3" unicode="&#x1ea3;" horiz-adv-x="495" 
d="M357 503q50 -22 78.5 -60.5t28.5 -87.5v-343q0 -5 -3.5 -8.5t-8.5 -3.5h-142q-5 0 -8.5 3.5t-3.5 8.5v29q0 3 -2 4t-4 -2q-35 -50 -116 -51q-69 0 -113.5 35t-44.5 117q0 87 52.5 124t153.5 37h69q5 0 5 5v22q0 23 -14 37t-39 14q-19 0 -31.5 -8.5t-17.5 -22.5
q-3 -11 -13 -10l-145 9q-12 2 -12 11q3 48 31.5 85t77 57.5t108.5 20.5q64 0 114 -22zM278.5 128.5q19.5 15.5 19.5 40.5v30q0 5 -5 5h-45q-29 0 -45.5 -12.5t-16.5 -35.5q0 -20 12.5 -31.5t33.5 -11.5q27 0 46.5 15.5zM223.5 566q-2.5 4 0.5 10q10 28 32 52q9 10 13 17.5
t4 20.5q0 8 -7 14t-17 6q-11 0 -20 -6t-23 -23q-5 -5 -9 -5t-8 3l-41 30q-9 8 -3 17q23 33 47.5 47t61.5 14q48 0 76 -25.5t28 -71.5q0 -24 -9.5 -39.5t-28.5 -35.5q-21 -23 -26 -32q-6 -8 -15 -7l-47 9q-6 1 -8.5 5z" />
    <glyph glyph-name="uni1EA4" unicode="&#x1ea4;" horiz-adv-x="601" 
d="M409 11l-20 88q-1 4 -5 4h-169q-4 0 -5 -4l-20 -88q-2 -11 -13 -11h-147q-13 0 -10 13l179 677q3 10 14 10h175q11 0 14 -10l179 -677l1 -4q0 -9 -11 -9h-149q-11 0 -13 11zM245 231h107q2 0 4 1.5t1 4.5l-56 248q-1 4 -3 4t-3 -4l-55 -249q-1 -5 5 -5zM135.5 758.5
q-2.5 3.5 1.5 10.5l68 106q5 8 14 8h157q9 0 14 -8l70 -105q2 -3 2 -7q0 -8 -9 -8h-107q-10 0 -15 8l-29 53q-3 5 -6 0l-29 -53q-5 -8 -15 -8h-107q-7 0 -9.5 3.5zM452 844q-2 4 1 10l56 100q5 8 15 8h117q10 0 10 -7q0 -3 -3 -8l-76 -100q-6 -7 -14 -7h-97q-7 0 -9 4z" />
    <glyph glyph-name="uni1EA5" unicode="&#x1ea5;" horiz-adv-x="495" 
d="M357 503q50 -22 78.5 -60.5t28.5 -87.5v-343q0 -5 -3.5 -8.5t-8.5 -3.5h-142q-5 0 -8.5 3.5t-3.5 8.5v29q0 3 -2 4t-4 -2q-35 -50 -116 -51q-69 0 -113.5 35t-44.5 117q0 87 52.5 124t153.5 37h69q5 0 5 5v22q0 23 -14 37t-39 14q-19 0 -31.5 -8.5t-17.5 -22.5
q-3 -11 -13 -10l-145 9q-12 2 -12 11q3 48 31.5 85t77 57.5t108.5 20.5q64 0 114 -22zM278.5 128.5q19.5 15.5 19.5 40.5v30q0 5 -5 5h-45q-29 0 -45.5 -12.5t-16.5 -35.5q0 -20 12.5 -31.5t33.5 -11.5q27 0 46.5 15.5zM83.5 575.5q-2.5 3.5 1.5 10.5l68 106q5 8 14 8h157
q9 0 14 -8l70 -105q2 -3 2 -7q0 -8 -9 -8h-107q-10 0 -15 8l-29 53q-3 5 -6 0l-29 -53q-5 -8 -15 -8h-107q-7 0 -9.5 3.5zM400 661q-2 4 1 10l56 100q5 8 15 8h117q10 0 10 -7q0 -3 -3 -8l-76 -100q-6 -7 -14 -7h-97q-7 0 -9 4z" />
    <glyph glyph-name="uni1EA6" unicode="&#x1ea6;" horiz-adv-x="601" 
d="M409 11l-20 88q-1 4 -5 4h-169q-4 0 -5 -4l-20 -88q-2 -11 -13 -11h-147q-13 0 -10 13l179 677q3 10 14 10h175q11 0 14 -10l179 -677l1 -4q0 -9 -11 -9h-149q-11 0 -13 11zM245 231h107q2 0 4 1.5t1 4.5l-56 248q-1 4 -3 4t-3 -4l-55 -249q-1 -5 5 -5zM135.5 758.5
q-2.5 3.5 1.5 10.5l68 106q5 8 14 8h157q9 0 14 -8l70 -105q2 -3 2 -7q0 -8 -9 -8h-107q-10 0 -15 8l-29 53q-3 5 -6 0l-29 -53q-5 -8 -15 -8h-107q-7 0 -9.5 3.5zM546 888q0 -8 -10 -8h-97q-8 0 -14 7l-76 100q-3 5 -3 8q0 7 10 7h117q10 0 15 -8l56 -100q2 -4 2 -6z" />
    <glyph glyph-name="uni1EA7" unicode="&#x1ea7;" horiz-adv-x="495" 
d="M357 503q50 -22 78.5 -60.5t28.5 -87.5v-343q0 -5 -3.5 -8.5t-8.5 -3.5h-142q-5 0 -8.5 3.5t-3.5 8.5v29q0 3 -2 4t-4 -2q-35 -50 -116 -51q-69 0 -113.5 35t-44.5 117q0 87 52.5 124t153.5 37h69q5 0 5 5v22q0 23 -14 37t-39 14q-19 0 -31.5 -8.5t-17.5 -22.5
q-3 -11 -13 -10l-145 9q-12 2 -12 11q3 48 31.5 85t77 57.5t108.5 20.5q64 0 114 -22zM278.5 128.5q19.5 15.5 19.5 40.5v30q0 5 -5 5h-45q-29 0 -45.5 -12.5t-16.5 -35.5q0 -20 12.5 -31.5t33.5 -11.5q27 0 46.5 15.5zM83.5 575.5q-2.5 3.5 1.5 10.5l68 106q5 8 14 8h157
q9 0 14 -8l70 -105q2 -3 2 -7q0 -8 -9 -8h-107q-10 0 -15 8l-29 53q-3 5 -6 0l-29 -53q-5 -8 -15 -8h-107q-7 0 -9.5 3.5zM494 705q0 -8 -10 -8h-97q-8 0 -14 7l-76 100q-3 5 -3 8q0 7 10 7h117q10 0 15 -8l56 -100q2 -4 2 -6z" />
    <glyph glyph-name="uni1EA8" unicode="&#x1ea8;" horiz-adv-x="601" 
d="M409 11l-20 88q-1 4 -5 4h-169q-4 0 -5 -4l-20 -88q-2 -11 -13 -11h-147q-13 0 -10 13l179 677q3 10 14 10h175q11 0 14 -10l179 -677l1 -4q0 -9 -11 -9h-149q-11 0 -13 11zM245 231h107q2 0 4 1.5t1 4.5l-56 248q-1 4 -3 4t-3 -4l-55 -249q-1 -5 5 -5zM440 880
q11 26 30 48q9 10 13 18t4 20q0 8 -6.5 13.5t-15.5 5.5q-11 0 -19.5 -5.5t-21.5 -21.5q-5 -6 -9 -6q-3 0 -8 3l-40 29q-5 5 -5 9t3 8q22 32 45.5 45t58.5 13q47 0 73.5 -25t26.5 -68q0 -23 -9 -38t-27 -34q-17 -17 -25 -31q-6 -8 -15 -7l-45 9q-14 3 -8 15zM135.5 758.5
q-2.5 3.5 1.5 10.5l68 106q5 8 14 8h157q9 0 14 -8l70 -105q2 -3 2 -7q0 -8 -9 -8h-107q-10 0 -15 8l-29 53q-3 5 -6 0l-29 -53q-5 -8 -15 -8h-107q-7 0 -9.5 3.5z" />
    <glyph glyph-name="uni1EA9" unicode="&#x1ea9;" horiz-adv-x="495" 
d="M357 503q50 -22 78.5 -60.5t28.5 -87.5v-343q0 -5 -3.5 -8.5t-8.5 -3.5h-142q-5 0 -8.5 3.5t-3.5 8.5v29q0 3 -2 4t-4 -2q-35 -50 -116 -51q-69 0 -113.5 35t-44.5 117q0 87 52.5 124t153.5 37h69q5 0 5 5v22q0 23 -14 37t-39 14q-19 0 -31.5 -8.5t-17.5 -22.5
q-3 -11 -13 -10l-145 9q-12 2 -12 11q3 48 31.5 85t77 57.5t108.5 20.5q64 0 114 -22zM278.5 128.5q19.5 15.5 19.5 40.5v30q0 5 -5 5h-45q-29 0 -45.5 -12.5t-16.5 -35.5q0 -20 12.5 -31.5t33.5 -11.5q27 0 46.5 15.5zM388 697q11 26 30 48q9 10 13 18t4 20q0 8 -6.5 13.5
t-15.5 5.5q-11 0 -19.5 -5.5t-21.5 -21.5q-5 -6 -9 -6q-3 0 -8 3l-40 29q-5 5 -5 9t3 8q22 32 45.5 45t58.5 13q47 0 73.5 -25t26.5 -68q0 -23 -9 -38t-27 -34q-17 -17 -25 -31q-6 -8 -15 -7l-45 9q-14 3 -8 15zM83.5 575.5q-2.5 3.5 1.5 10.5l68 106q5 8 14 8h157
q9 0 14 -8l70 -105q2 -3 2 -7q0 -8 -9 -8h-107q-10 0 -15 8l-29 53q-3 5 -6 0l-29 -53q-5 -8 -15 -8h-107q-7 0 -9.5 3.5z" />
    <glyph glyph-name="uni1EAA" unicode="&#x1eaa;" horiz-adv-x="601" 
d="M409 11l-20 88q-1 4 -5 4h-169q-4 0 -5 -4l-20 -88q-2 -11 -13 -11h-147q-13 0 -10 13l179 677q3 10 14 10h175q11 0 14 -10l179 -677l1 -4q0 -9 -11 -9h-149q-11 0 -13 11zM245 231h107q2 0 4 1.5t1 4.5l-56 248q-1 4 -3 4t-3 -4l-55 -249q-1 -5 5 -5zM135.5 758.5
q-2.5 3.5 1.5 10.5l68 106q5 8 14 8h157q9 0 14 -8l70 -105q2 -3 2 -7q0 -8 -9 -8h-107q-10 0 -15 8l-29 53q-3 5 -6 0l-29 -53q-5 -8 -15 -8h-107q-7 0 -9.5 3.5zM325 922q-13 4 -32 13q-4 2 -14.5 7t-17 7t-13.5 2q-26 0 -44 -20q-5 -6 -9 -6t-8 4l-49 44q-8 7 -4 17
q14 34 41 52.5t61 18.5q19 0 35 -5.5t37 -17.5q5 -3 14 -7.5t16 -7t15 -2.5q27 0 41 21q5 7 10 7q3 0 7 -4l47 -46q7 -7 3 -17q-15 -31 -43 -47.5t-63 -16.5q-17 0 -30 4z" />
    <glyph glyph-name="uni1EAB" unicode="&#x1eab;" horiz-adv-x="495" 
d="M357 503q50 -22 78.5 -60.5t28.5 -87.5v-343q0 -5 -3.5 -8.5t-8.5 -3.5h-142q-5 0 -8.5 3.5t-3.5 8.5v29q0 3 -2 4t-4 -2q-35 -50 -116 -51q-69 0 -113.5 35t-44.5 117q0 87 52.5 124t153.5 37h69q5 0 5 5v22q0 23 -14 37t-39 14q-19 0 -31.5 -8.5t-17.5 -22.5
q-3 -11 -13 -10l-145 9q-12 2 -12 11q3 48 31.5 85t77 57.5t108.5 20.5q64 0 114 -22zM278.5 128.5q19.5 15.5 19.5 40.5v30q0 5 -5 5h-45q-29 0 -45.5 -12.5t-16.5 -35.5q0 -20 12.5 -31.5t33.5 -11.5q27 0 46.5 15.5zM83.5 575.5q-2.5 3.5 1.5 10.5l68 106q5 8 14 8h157
q9 0 14 -8l70 -105q2 -3 2 -7q0 -8 -9 -8h-107q-10 0 -15 8l-29 53q-3 5 -6 0l-29 -53q-5 -8 -15 -8h-107q-7 0 -9.5 3.5zM273 739q-13 4 -32 13q-4 2 -14.5 7t-17 7t-13.5 2q-26 0 -44 -20q-5 -6 -9 -6t-8 4l-49 44q-8 7 -4 17q14 34 41 52.5t61 18.5q19 0 35 -5.5
t37 -17.5q5 -3 14 -7.5t16 -7t15 -2.5q27 0 41 21q5 7 10 7q3 0 7 -4l47 -46q7 -7 3 -17q-15 -31 -43 -47.5t-63 -16.5q-17 0 -30 4z" />
    <glyph glyph-name="uni1EAC" unicode="&#x1eac;" horiz-adv-x="601" 
d="M409 11l-20 88q-1 4 -5 4h-169q-4 0 -5 -4l-20 -88q-2 -11 -13 -11h-147q-13 0 -10 13l179 677q3 10 14 10h175q11 0 14 -10l179 -677l1 -4q0 -9 -11 -9h-149q-11 0 -13 11zM245 231h107q2 0 4 1.5t1 4.5l-56 248q-1 4 -3 4t-3 -4l-55 -249q-1 -5 5 -5zM240.5 -219.5
q-23.5 23.5 -23.5 59.5q0 37 23.5 60.5t60.5 23.5q36 0 59.5 -23.5t23.5 -60.5q0 -36 -23.5 -59.5t-59.5 -23.5q-37 0 -60.5 23.5zM135.5 758.5q-2.5 3.5 1.5 10.5l68 106q5 8 14 8h157q9 0 14 -8l70 -105q2 -3 2 -7q0 -8 -9 -8h-107q-10 0 -15 8l-29 53q-3 5 -6 0l-29 -53
q-5 -8 -15 -8h-107q-7 0 -9.5 3.5z" />
    <glyph glyph-name="uni1EAD" unicode="&#x1ead;" horiz-adv-x="495" 
d="M357 503q50 -22 78.5 -60.5t28.5 -87.5v-343q0 -5 -3.5 -8.5t-8.5 -3.5h-142q-5 0 -8.5 3.5t-3.5 8.5v29q0 3 -2 4t-4 -2q-35 -50 -116 -51q-69 0 -113.5 35t-44.5 117q0 87 52.5 124t153.5 37h69q5 0 5 5v22q0 23 -14 37t-39 14q-19 0 -31.5 -8.5t-17.5 -22.5
q-3 -11 -13 -10l-145 9q-12 2 -12 11q3 48 31.5 85t77 57.5t108.5 20.5q64 0 114 -22zM278.5 128.5q19.5 15.5 19.5 40.5v30q0 5 -5 5h-45q-29 0 -45.5 -12.5t-16.5 -35.5q0 -20 12.5 -31.5t33.5 -11.5q27 0 46.5 15.5zM188.5 -219.5q-23.5 23.5 -23.5 59.5q0 37 23.5 60.5
t60.5 23.5q36 0 59.5 -23.5t23.5 -60.5q0 -36 -23.5 -59.5t-59.5 -23.5q-37 0 -60.5 23.5zM83.5 575.5q-2.5 3.5 1.5 10.5l68 106q5 8 14 8h157q9 0 14 -8l70 -105q2 -3 2 -7q0 -8 -9 -8h-107q-10 0 -15 8l-29 53q-3 5 -6 0l-29 -53q-5 -8 -15 -8h-107q-7 0 -9.5 3.5z" />
    <glyph glyph-name="uni1EAE" unicode="&#x1eae;" horiz-adv-x="601" 
d="M409 11l-20 88q-1 4 -5 4h-169q-4 0 -5 -4l-20 -88q-2 -11 -13 -11h-147q-13 0 -10 13l179 677q3 10 14 10h175q11 0 14 -10l179 -677l1 -4q0 -9 -11 -9h-149q-11 0 -13 11zM245 231h107q2 0 4 1.5t1 4.5l-56 248q-1 4 -3 4t-3 -4l-55 -249q-1 -5 5 -5zM196.5 774.5
q-40.5 31.5 -44.5 83.5v2q0 10 11 10l67 -1q10 0 12 -11q4 -19 19.5 -30.5t37.5 -11.5t37.5 11.5t20.5 31.5q2 11 12 11h67q13 0 11 -11q-4 -52 -45 -84t-103 -32t-102.5 31.5zM228 924q-2 4 1 10l56 100q5 8 15 8h117q10 0 10 -7q0 -3 -3 -8l-76 -100q-6 -7 -14 -7h-97
q-7 0 -9 4z" />
    <glyph glyph-name="uni1EAF" unicode="&#x1eaf;" horiz-adv-x="495" 
d="M357 503q50 -22 78.5 -60.5t28.5 -87.5v-343q0 -5 -3.5 -8.5t-8.5 -3.5h-142q-5 0 -8.5 3.5t-3.5 8.5v29q0 3 -2 4t-4 -2q-35 -50 -116 -51q-69 0 -113.5 35t-44.5 117q0 87 52.5 124t153.5 37h69q5 0 5 5v22q0 23 -14 37t-39 14q-19 0 -31.5 -8.5t-17.5 -22.5
q-3 -11 -13 -10l-145 9q-12 2 -12 11q3 48 31.5 85t77 57.5t108.5 20.5q64 0 114 -22zM278.5 128.5q19.5 15.5 19.5 40.5v30q0 5 -5 5h-45q-29 0 -45.5 -12.5t-16.5 -35.5q0 -20 12.5 -31.5t33.5 -11.5q27 0 46.5 15.5zM144.5 591.5q-40.5 31.5 -44.5 83.5v2q0 10 11 10
l67 -1q10 0 12 -11q4 -19 19.5 -30.5t37.5 -11.5t37.5 11.5t20.5 31.5q2 11 12 11h67q13 0 11 -11q-4 -52 -45 -84t-103 -32t-102.5 31.5zM176 741q-2 4 1 10l56 100q5 8 15 8h117q10 0 10 -7q0 -3 -3 -8l-76 -100q-6 -7 -14 -7h-97q-7 0 -9 4z" />
    <glyph glyph-name="uni1EB0" unicode="&#x1eb0;" horiz-adv-x="601" 
d="M409 11l-20 88q-1 4 -5 4h-169q-4 0 -5 -4l-20 -88q-2 -11 -13 -11h-147q-13 0 -10 13l179 677q3 10 14 10h175q11 0 14 -10l179 -677l1 -4q0 -9 -11 -9h-149q-11 0 -13 11zM245 231h107q2 0 4 1.5t1 4.5l-56 248q-1 4 -3 4t-3 -4l-55 -249q-1 -5 5 -5zM196.5 774.5
q-40.5 31.5 -44.5 83.5v2q0 10 11 10l67 -1q10 0 12 -11q4 -19 19.5 -30.5t37.5 -11.5t37.5 11.5t20.5 31.5q2 11 12 11h67q13 0 11 -11q-4 -52 -45 -84t-103 -32t-102.5 31.5zM358 928q0 -8 -10 -8h-97q-8 0 -14 7l-76 100q-3 5 -3 8q0 7 10 7h117q10 0 15 -8l56 -100
q2 -4 2 -6z" />
    <glyph glyph-name="uni1EB1" unicode="&#x1eb1;" horiz-adv-x="495" 
d="M357 503q50 -22 78.5 -60.5t28.5 -87.5v-343q0 -5 -3.5 -8.5t-8.5 -3.5h-142q-5 0 -8.5 3.5t-3.5 8.5v29q0 3 -2 4t-4 -2q-35 -50 -116 -51q-69 0 -113.5 35t-44.5 117q0 87 52.5 124t153.5 37h69q5 0 5 5v22q0 23 -14 37t-39 14q-19 0 -31.5 -8.5t-17.5 -22.5
q-3 -11 -13 -10l-145 9q-12 2 -12 11q3 48 31.5 85t77 57.5t108.5 20.5q64 0 114 -22zM278.5 128.5q19.5 15.5 19.5 40.5v30q0 5 -5 5h-45q-29 0 -45.5 -12.5t-16.5 -35.5q0 -20 12.5 -31.5t33.5 -11.5q27 0 46.5 15.5zM144.5 591.5q-40.5 31.5 -44.5 83.5v2q0 10 11 10
l67 -1q10 0 12 -11q4 -19 19.5 -30.5t37.5 -11.5t37.5 11.5t20.5 31.5q2 11 12 11h67q13 0 11 -11q-4 -52 -45 -84t-103 -32t-102.5 31.5zM306 745q0 -8 -10 -8h-97q-8 0 -14 7l-76 100q-3 5 -3 8q0 7 10 7h117q10 0 15 -8l56 -100q2 -4 2 -6z" />
    <glyph glyph-name="uni1EB2" unicode="&#x1eb2;" horiz-adv-x="601" 
d="M409 11l-20 88q-1 4 -5 4h-169q-4 0 -5 -4l-20 -88q-2 -11 -13 -11h-147q-13 0 -10 13l179 677q3 10 14 10h175q11 0 14 -10l179 -677l1 -4q0 -9 -11 -9h-149q-11 0 -13 11zM245 231h107q2 0 4 1.5t1 4.5l-56 248q-1 4 -3 4t-3 -4l-55 -249q-1 -5 5 -5zM278 915
q9 24 29 46q9 11 12.5 18t3.5 18q0 7 -6.5 13t-14.5 6q-11 0 -19 -5.5t-21 -21.5q-5 -5 -9 -5q-3 0 -8 3l-37 28q-5 3 -5 9q0 4 3 8q20 30 43 42.5t57 12.5q44 0 70 -24t26 -66q0 -22 -9 -37t-26 -32q-15 -15 -24 -29q-6 -8 -15 -7l-42 8q-14 3 -8 15zM196.5 774.5
q-40.5 31.5 -44.5 83.5v2q0 10 11 10l67 -1q10 0 12 -11q4 -19 19.5 -30.5t37.5 -11.5q23 0 38.5 11.5t19.5 31.5q2 11 12 11h67q12 0 12 -11q-5 -52 -46 -84t-103 -32t-102.5 31.5z" />
    <glyph glyph-name="uni1EB3" unicode="&#x1eb3;" horiz-adv-x="495" 
d="M357 503q50 -22 78.5 -60.5t28.5 -87.5v-343q0 -5 -3.5 -8.5t-8.5 -3.5h-142q-5 0 -8.5 3.5t-3.5 8.5v29q0 3 -2 4t-4 -2q-35 -50 -116 -51q-69 0 -113.5 35t-44.5 117q0 87 52.5 124t153.5 37h69q5 0 5 5v22q0 23 -14 37t-39 14q-19 0 -31.5 -8.5t-17.5 -22.5
q-3 -11 -13 -10l-145 9q-12 2 -12 11q3 48 31.5 85t77 57.5t108.5 20.5q64 0 114 -22zM278.5 128.5q19.5 15.5 19.5 40.5v30q0 5 -5 5h-45q-29 0 -45.5 -12.5t-16.5 -35.5q0 -20 12.5 -31.5t33.5 -11.5q27 0 46.5 15.5zM226 732q9 24 29 46q9 11 12.5 18t3.5 18q0 7 -6.5 13
t-14.5 6q-11 0 -19 -5.5t-21 -21.5q-5 -5 -9 -5q-3 0 -8 3l-37 28q-5 3 -5 9q0 4 3 8q20 30 43 42.5t57 12.5q44 0 70 -24t26 -66q0 -22 -9 -37t-26 -32q-15 -15 -24 -29q-6 -8 -15 -7l-42 8q-14 3 -8 15zM144.5 591.5q-40.5 31.5 -44.5 83.5v2q0 10 11 10l67 -1
q10 0 12 -11q4 -19 19.5 -30.5t37.5 -11.5q23 0 38.5 11.5t19.5 31.5q2 11 12 11h67q12 0 12 -11q-5 -52 -46 -84t-103 -32t-102.5 31.5z" />
    <glyph glyph-name="uni1EB4" unicode="&#x1eb4;" horiz-adv-x="601" 
d="M409 11l-20 88q-1 4 -5 4h-169q-4 0 -5 -4l-20 -88q-2 -11 -13 -11h-147q-13 0 -10 13l179 677q3 10 14 10h175q11 0 14 -10l179 -677l1 -4q0 -9 -11 -9h-149q-11 0 -13 11zM245 231h107q2 0 4 1.5t1 4.5l-56 248q-1 4 -3 4t-3 -4l-55 -249q-1 -5 5 -5zM333.5 906.5
q-12.5 3.5 -28.5 11.5q-3 2 -13 7t-16 6.5t-13 1.5q-24 0 -40 -19q-5 -5 -8 -5q-4 0 -8 4l-45 40q-8 7 -4 17q13 31 38 48t56 17q18 0 33 -5.5t34 -15.5q2 -1 10.5 -6t16.5 -7.5t15 -2.5q22 0 37 18q5 7 10 7q3 0 7 -4l42 -41q7 -7 3 -17q-14 -28 -40 -43t-58 -15
q-16 0 -28.5 3.5zM196.5 774.5q-40.5 31.5 -44.5 83.5v2q0 10 11 10l67 -1q10 0 12 -11q4 -19 19.5 -30.5t37.5 -11.5q23 0 38.5 11.5t19.5 31.5q2 11 12 11h67q12 0 12 -11q-5 -52 -46 -84t-103 -32t-102.5 31.5z" />
    <glyph glyph-name="uni1EB5" unicode="&#x1eb5;" horiz-adv-x="495" 
d="M357 503q50 -22 78.5 -60.5t28.5 -87.5v-343q0 -5 -3.5 -8.5t-8.5 -3.5h-142q-5 0 -8.5 3.5t-3.5 8.5v29q0 3 -2 4t-4 -2q-35 -50 -116 -51q-69 0 -113.5 35t-44.5 117q0 87 52.5 124t153.5 37h69q5 0 5 5v22q0 23 -14 37t-39 14q-19 0 -31.5 -8.5t-17.5 -22.5
q-3 -11 -13 -10l-145 9q-12 2 -12 11q3 48 31.5 85t77 57.5t108.5 20.5q64 0 114 -22zM278.5 128.5q19.5 15.5 19.5 40.5v30q0 5 -5 5h-45q-29 0 -45.5 -12.5t-16.5 -35.5q0 -20 12.5 -31.5t33.5 -11.5q27 0 46.5 15.5zM281.5 723.5q-12.5 3.5 -28.5 11.5q-3 2 -13 7
t-16 6.5t-13 1.5q-24 0 -40 -19q-5 -5 -8 -5q-4 0 -8 4l-45 40q-8 7 -4 17q13 31 38 48t56 17q18 0 33 -5.5t34 -15.5q2 -1 10.5 -6t16.5 -7.5t15 -2.5q22 0 37 18q5 7 10 7q3 0 7 -4l42 -41q7 -7 3 -17q-14 -28 -40 -43t-58 -15q-16 0 -28.5 3.5zM144.5 591.5
q-40.5 31.5 -44.5 83.5v2q0 10 11 10l67 -1q10 0 12 -11q4 -19 19.5 -30.5t37.5 -11.5q23 0 38.5 11.5t19.5 31.5q2 11 12 11h67q12 0 12 -11q-5 -52 -46 -84t-103 -32t-102.5 31.5z" />
    <glyph glyph-name="uni1EB6" unicode="&#x1eb6;" horiz-adv-x="601" 
d="M409 11l-20 88q-1 4 -5 4h-169q-4 0 -5 -4l-20 -88q-2 -11 -13 -11h-147q-13 0 -10 13l179 677q3 10 14 10h175q11 0 14 -10l179 -677l1 -4q0 -9 -11 -9h-149q-11 0 -13 11zM245 231h107q2 0 4 1.5t1 4.5l-56 248q-1 4 -3 4t-3 -4l-55 -249q-1 -5 5 -5zM240.5 -219.5
q-23.5 23.5 -23.5 59.5q0 37 23.5 60.5t60.5 23.5q36 0 59.5 -23.5t23.5 -60.5q0 -36 -23.5 -59.5t-59.5 -23.5q-37 0 -60.5 23.5zM197.5 774.5q-40.5 31.5 -44.5 83.5v2q0 10 11 10l67 -1q10 0 12 -11q4 -19 19.5 -30.5t37.5 -11.5t37.5 11.5t20.5 31.5q2 11 12 11h67
q13 0 11 -11q-4 -52 -45 -84t-103 -32t-102.5 31.5z" />
    <glyph glyph-name="uni1EB7" unicode="&#x1eb7;" horiz-adv-x="495" 
d="M357 503q50 -22 78.5 -60.5t28.5 -87.5v-343q0 -5 -3.5 -8.5t-8.5 -3.5h-142q-5 0 -8.5 3.5t-3.5 8.5v29q0 3 -2 4t-4 -2q-35 -50 -116 -51q-69 0 -113.5 35t-44.5 117q0 87 52.5 124t153.5 37h69q5 0 5 5v22q0 23 -14 37t-39 14q-19 0 -31.5 -8.5t-17.5 -22.5
q-3 -11 -13 -10l-145 9q-12 2 -12 11q3 48 31.5 85t77 57.5t108.5 20.5q64 0 114 -22zM278.5 128.5q19.5 15.5 19.5 40.5v30q0 5 -5 5h-45q-29 0 -45.5 -12.5t-16.5 -35.5q0 -20 12.5 -31.5t33.5 -11.5q27 0 46.5 15.5zM188.5 -219.5q-23.5 23.5 -23.5 59.5q0 37 23.5 60.5
t60.5 23.5q36 0 59.5 -23.5t23.5 -60.5q0 -36 -23.5 -59.5t-59.5 -23.5q-37 0 -60.5 23.5zM145.5 591.5q-40.5 31.5 -44.5 83.5v2q0 10 11 10l67 -1q10 0 12 -11q4 -19 19.5 -30.5t37.5 -11.5t37.5 11.5t20.5 31.5q2 11 12 11h67q13 0 11 -11q-4 -52 -45 -84t-103 -32
t-102.5 31.5z" />
    <glyph glyph-name="uni1EB8" unicode="&#x1eb8;" horiz-adv-x="509" 
d="M479.5 561.5q-3.5 -3.5 -8.5 -3.5h-258q-5 0 -5 -5v-125q0 -5 5 -5h156q5 0 8.5 -3.5t3.5 -8.5v-118q0 -5 -3.5 -8.5t-8.5 -3.5h-156q-5 0 -5 -5v-129q0 -5 5 -5h258q5 0 8.5 -3.5t3.5 -8.5v-118q0 -5 -3.5 -8.5t-8.5 -3.5h-417q-5 0 -8.5 3.5t-3.5 8.5v676q0 5 3.5 8.5
t8.5 3.5h417q5 0 8.5 -3.5t3.5 -8.5v-118q0 -5 -3.5 -8.5zM201.5 -219.5q-23.5 23.5 -23.5 59.5q0 37 23.5 60.5t60.5 23.5q36 0 59.5 -23.5t23.5 -60.5q0 -36 -23.5 -59.5t-59.5 -23.5q-37 0 -60.5 23.5z" />
    <glyph glyph-name="uni1EB9" unicode="&#x1eb9;" horiz-adv-x="497" 
d="M476 264l-1 -40q0 -12 -12 -12h-262q-4 0 -4 -4q0 -11 4 -29q5 -21 19.5 -33t37.5 -12q42 0 57 34q4 10 15 8l128 -25q14 -2 9 -14q-24 -71 -76.5 -108t-129.5 -37q-187 0 -223 163q-9 39 -9 119q0 47 6 78q11 79 69 126t146 47q96 0 156.5 -54t67.5 -142q2 -42 2 -65z
M217.5 370.5q-13.5 -12.5 -18.5 -34.5l-3 -28q0 -5 5 -5h102q5 0 5 5q-2 18 -4 28q-3 21 -17 34t-35 13t-34.5 -12.5zM197.5 -224.5q-23.5 23.5 -23.5 59.5q0 37 23.5 60.5t60.5 23.5q36 0 59.5 -23.5t23.5 -60.5q0 -36 -23.5 -59.5t-59.5 -23.5q-37 0 -60.5 23.5z" />
    <glyph glyph-name="uni1EBA" unicode="&#x1eba;" horiz-adv-x="509" 
d="M479.5 561.5q-3.5 -3.5 -8.5 -3.5h-258q-5 0 -5 -5v-125q0 -5 5 -5h156q5 0 8.5 -3.5t3.5 -8.5v-118q0 -5 -3.5 -8.5t-8.5 -3.5h-156q-5 0 -5 -5v-129q0 -5 5 -5h258q5 0 8.5 -3.5t3.5 -8.5v-118q0 -5 -3.5 -8.5t-8.5 -3.5h-417q-5 0 -8.5 3.5t-3.5 8.5v676q0 5 3.5 8.5
t8.5 3.5h417q5 0 8.5 -3.5t3.5 -8.5v-118q0 -5 -3.5 -8.5zM237.5 749q-2.5 4 0.5 10q10 28 32 52q9 10 13 17.5t4 20.5q0 8 -7 14t-17 6q-11 0 -20 -6t-23 -23q-5 -5 -9 -5t-8 3l-41 30q-9 8 -3 17q23 33 47.5 47t61.5 14q48 0 76 -25.5t28 -71.5q0 -24 -9.5 -39.5
t-28.5 -35.5q-21 -23 -26 -32q-6 -8 -15 -7l-47 9q-6 1 -8.5 5z" />
    <glyph glyph-name="uni1EBB" unicode="&#x1ebb;" horiz-adv-x="497" 
d="M476 264l-1 -40q0 -12 -12 -12h-262q-4 0 -4 -4q0 -11 4 -29q5 -21 19.5 -33t37.5 -12q42 0 57 34q4 10 15 8l128 -25q14 -2 9 -14q-24 -71 -76.5 -108t-129.5 -37q-187 0 -223 163q-9 39 -9 119q0 47 6 78q11 79 69 126t146 47q96 0 156.5 -54t67.5 -142q2 -42 2 -65z
M217.5 370.5q-13.5 -12.5 -18.5 -34.5l-3 -28q0 -5 5 -5h102q5 0 5 5q-2 18 -4 28q-3 21 -17 34t-35 13t-34.5 -12.5zM224.5 566q-2.5 4 0.5 10q10 28 32 52q9 10 13 17.5t4 20.5q0 8 -7 14t-17 6q-11 0 -20 -6t-23 -23q-5 -5 -9 -5t-8 3l-41 30q-9 8 -3 17q23 33 47.5 47
t61.5 14q48 0 76 -25.5t28 -71.5q0 -24 -9.5 -39.5t-28.5 -35.5q-21 -23 -26 -32q-6 -8 -15 -7l-47 9q-6 1 -8.5 5z" />
    <glyph glyph-name="uni1EBC" unicode="&#x1ebc;" horiz-adv-x="509" 
d="M479.5 561.5q-3.5 -3.5 -8.5 -3.5h-258q-5 0 -5 -5v-125q0 -5 5 -5h156q5 0 8.5 -3.5t3.5 -8.5v-118q0 -5 -3.5 -8.5t-8.5 -3.5h-156q-5 0 -5 -5v-129q0 -5 5 -5h258q5 0 8.5 -3.5t3.5 -8.5v-118q0 -5 -3.5 -8.5t-8.5 -3.5h-417q-5 0 -8.5 3.5t-3.5 8.5v676q0 5 3.5 8.5
t8.5 3.5h417q5 0 8.5 -3.5t3.5 -8.5v-118q0 -5 -3.5 -8.5zM298 757q-13 4 -32 13q-4 2 -14.5 7t-17 7t-13.5 2q-26 0 -44 -20q-5 -6 -9 -6t-8 4l-49 44q-8 7 -4 17q14 34 41 52.5t61 18.5q19 0 35 -5.5t37 -17.5q5 -3 14 -7.5t16 -7t15 -2.5q27 0 41 21q5 7 10 7q3 0 7 -4
l47 -46q7 -7 3 -17q-15 -31 -43 -47.5t-63 -16.5q-17 0 -30 4z" />
    <glyph glyph-name="uni1EBD" unicode="&#x1ebd;" horiz-adv-x="497" 
d="M476 264l-1 -40q0 -12 -12 -12h-262q-4 0 -4 -4q0 -11 4 -29q5 -21 19.5 -33t37.5 -12q42 0 57 34q4 10 15 8l128 -25q14 -2 9 -14q-24 -71 -76.5 -108t-129.5 -37q-187 0 -223 163q-9 39 -9 119q0 47 6 78q11 79 69 126t146 47q96 0 156.5 -54t67.5 -142q2 -42 2 -65z
M217.5 370.5q-13.5 -12.5 -18.5 -34.5l-3 -28q0 -5 5 -5h102q5 0 5 5q-2 18 -4 28q-3 21 -17 34t-35 13t-34.5 -12.5zM284 574q-13 4 -32 13q-4 2 -14.5 7t-17 7t-13.5 2q-26 0 -44 -20q-5 -6 -9 -6t-8 4l-49 44q-8 7 -4 17q14 34 41 52.5t61 18.5q19 0 35 -5.5t37 -17.5
q5 -3 14 -7.5t16 -7t15 -2.5q27 0 41 21q5 7 10 7q3 0 7 -4l47 -46q7 -7 3 -17q-15 -31 -43 -47.5t-63 -16.5q-17 0 -30 4z" />
    <glyph glyph-name="uni1EBE" unicode="&#x1ebe;" horiz-adv-x="509" 
d="M479.5 561.5q-3.5 -3.5 -8.5 -3.5h-258q-5 0 -5 -5v-125q0 -5 5 -5h156q5 0 8.5 -3.5t3.5 -8.5v-118q0 -5 -3.5 -8.5t-8.5 -3.5h-156q-5 0 -5 -5v-129q0 -5 5 -5h258q5 0 8.5 -3.5t3.5 -8.5v-118q0 -5 -3.5 -8.5t-8.5 -3.5h-417q-5 0 -8.5 3.5t-3.5 8.5v676q0 5 3.5 8.5
t8.5 3.5h417q5 0 8.5 -3.5t3.5 -8.5v-118q0 -5 -3.5 -8.5zM97.5 758.5q-2.5 3.5 1.5 10.5l68 106q5 8 14 8h157q9 0 14 -8l70 -105q2 -3 2 -7q0 -8 -9 -8h-107q-10 0 -15 8l-29 53q-3 5 -6 0l-29 -53q-5 -8 -15 -8h-107q-7 0 -9.5 3.5zM414 844q-2 4 1 10l56 100q5 8 15 8
h117q10 0 10 -7q0 -3 -3 -8l-76 -100q-6 -7 -14 -7h-97q-7 0 -9 4z" />
    <glyph glyph-name="uni1EBF" unicode="&#x1ebf;" horiz-adv-x="497" 
d="M476 264l-1 -40q0 -12 -12 -12h-262q-4 0 -4 -4q0 -11 4 -29q5 -21 19.5 -33t37.5 -12q42 0 57 34q4 10 15 8l128 -25q14 -2 9 -14q-24 -71 -76.5 -108t-129.5 -37q-187 0 -223 163q-9 39 -9 119q0 47 6 78q11 79 69 126t146 47q96 0 156.5 -54t67.5 -142q2 -42 2 -65z
M217.5 370.5q-13.5 -12.5 -18.5 -34.5l-3 -28q0 -5 5 -5h102q5 0 5 5q-2 18 -4 28q-3 21 -17 34t-35 13t-34.5 -12.5zM84.5 575.5q-2.5 3.5 1.5 10.5l68 106q5 8 14 8h157q9 0 14 -8l70 -105q2 -3 2 -7q0 -8 -9 -8h-107q-10 0 -15 8l-29 53q-3 5 -6 0l-29 -53q-5 -8 -15 -8
h-107q-7 0 -9.5 3.5zM401 661q-2 4 1 10l56 100q5 8 15 8h117q10 0 10 -7q0 -3 -3 -8l-76 -100q-6 -7 -14 -7h-97q-7 0 -9 4z" />
    <glyph glyph-name="uni1EC0" unicode="&#x1ec0;" horiz-adv-x="509" 
d="M479.5 561.5q-3.5 -3.5 -8.5 -3.5h-258q-5 0 -5 -5v-125q0 -5 5 -5h156q5 0 8.5 -3.5t3.5 -8.5v-118q0 -5 -3.5 -8.5t-8.5 -3.5h-156q-5 0 -5 -5v-129q0 -5 5 -5h258q5 0 8.5 -3.5t3.5 -8.5v-118q0 -5 -3.5 -8.5t-8.5 -3.5h-417q-5 0 -8.5 3.5t-3.5 8.5v676q0 5 3.5 8.5
t8.5 3.5h417q5 0 8.5 -3.5t3.5 -8.5v-118q0 -5 -3.5 -8.5zM97.5 758.5q-2.5 3.5 1.5 10.5l68 106q5 8 14 8h157q9 0 14 -8l70 -105q2 -3 2 -7q0 -8 -9 -8h-107q-10 0 -15 8l-29 53q-3 5 -6 0l-29 -53q-5 -8 -15 -8h-107q-7 0 -9.5 3.5zM508 888q0 -8 -10 -8h-97q-8 0 -14 7
l-76 100q-3 5 -3 8q0 7 10 7h117q10 0 15 -8l56 -100q2 -4 2 -6z" />
    <glyph glyph-name="uni1EC1" unicode="&#x1ec1;" horiz-adv-x="497" 
d="M476 264l-1 -40q0 -12 -12 -12h-262q-4 0 -4 -4q0 -11 4 -29q5 -21 19.5 -33t37.5 -12q42 0 57 34q4 10 15 8l128 -25q14 -2 9 -14q-24 -71 -76.5 -108t-129.5 -37q-187 0 -223 163q-9 39 -9 119q0 47 6 78q11 79 69 126t146 47q96 0 156.5 -54t67.5 -142q2 -42 2 -65z
M217.5 370.5q-13.5 -12.5 -18.5 -34.5l-3 -28q0 -5 5 -5h102q5 0 5 5q-2 18 -4 28q-3 21 -17 34t-35 13t-34.5 -12.5zM84.5 575.5q-2.5 3.5 1.5 10.5l68 106q5 8 14 8h157q9 0 14 -8l70 -105q2 -3 2 -7q0 -8 -9 -8h-107q-10 0 -15 8l-29 53q-3 5 -6 0l-29 -53q-5 -8 -15 -8
h-107q-7 0 -9.5 3.5zM495 705q0 -8 -10 -8h-97q-8 0 -14 7l-76 100q-3 5 -3 8q0 7 10 7h117q10 0 15 -8l56 -100q2 -4 2 -6z" />
    <glyph glyph-name="uni1EC2" unicode="&#x1ec2;" horiz-adv-x="509" 
d="M479.5 561.5q-3.5 -3.5 -8.5 -3.5h-258q-5 0 -5 -5v-125q0 -5 5 -5h156q5 0 8.5 -3.5t3.5 -8.5v-118q0 -5 -3.5 -8.5t-8.5 -3.5h-156q-5 0 -5 -5v-129q0 -5 5 -5h258q5 0 8.5 -3.5t3.5 -8.5v-118q0 -5 -3.5 -8.5t-8.5 -3.5h-417q-5 0 -8.5 3.5t-3.5 8.5v676q0 5 3.5 8.5
t8.5 3.5h417q5 0 8.5 -3.5t3.5 -8.5v-118q0 -5 -3.5 -8.5zM402 880q11 26 30 48q9 10 13 18t4 20q0 8 -6.5 13.5t-15.5 5.5q-11 0 -19.5 -5.5t-21.5 -21.5q-5 -6 -9 -6q-3 0 -8 3l-40 29q-5 5 -5 9t3 8q22 32 45.5 45t58.5 13q47 0 73.5 -25t26.5 -68q0 -23 -9 -38t-27 -34
q-17 -17 -25 -31q-6 -8 -15 -7l-45 9q-14 3 -8 15zM97.5 758.5q-2.5 3.5 1.5 10.5l68 106q5 8 14 8h157q9 0 14 -8l70 -105q2 -3 2 -7q0 -8 -9 -8h-107q-10 0 -15 8l-29 53q-3 5 -6 0l-29 -53q-5 -8 -15 -8h-107q-7 0 -9.5 3.5z" />
    </font>
</defs>
</svg>
