<?xml version="1.0" standalone="no"?>
<!DOCTYPE svg PUBLIC "-//W3C//DTD SVG 1.1//EN" "http://www.w3.org/Graphics/SVG/1.1/DTD/svg11.dtd" >
<svg xmlns="http://www.w3.org/2000/svg" xmlns:xlink="http://www.w3.org/1999/xlink" version="1.1">
<metadata>
Created by FontForge 20170731 at Wed Nov  7 06:09:15 2018
 By Aleksey,,,
Copyright 2017 The Barlow Project Authors (https://github.com/jpt/barlow)
</metadata>
<defs>
<font id="BarlowSemiCondensed-BoldItalic" horiz-adv-x="0" >
  <font-face 
    font-family="Barlow Semi Condensed"
    font-weight="700"
    font-style="italic"
    font-stretch="semi-condensed"
    units-per-em="1000"
    panose-1="0 0 8 6 0 0 0 0 0 0"
    ascent="800"
    descent="-200"
    x-height="514"
    cap-height="700"
    bbox="-508 -233 1065 1085"
    underline-thickness="50"
    underline-position="-150"
    slope="-7"
    unicode-range="U+000D-FB02"
  />
<missing-glyph horiz-adv-x="426" 
d="M-15 0h417q2 0 3.5 1.5t1.5 3.5l85 690q0 5 -4 5h-417q-5 0 -5 -5l-85 -690q0 -5 4 -5zM172 252.5q-3 3.5 -2 8.5l2 20q4 36 23 58t53 46q29 20 43 36.5t14 41.5q0 20 -12.5 31.5t-32.5 11.5q-24 0 -40.5 -15t-19.5 -39l-1 -8q-1 -11 -13 -11l-74 3q-5 0 -8 4t-2 9v3
q8 65 56 105.5t116 40.5q61 0 96 -32.5t35 -86.5q0 -13 -1 -20q-6 -45 -27 -71t-57 -52q-25 -17 -37.5 -30t-14.5 -32l-1 -13q-1 -5 -4.5 -8.5t-8.5 -3.5h-74q-5 0 -8 3.5zM161 102.5q-13 13.5 -13 34.5q0 28 18 46.5t44 18.5q22 0 35 -13t13 -34q0 -28 -18 -47t-44 -19
q-22 0 -35 13.5z" />
    <glyph glyph-name="fi" unicode="fi" horiz-adv-x="561" 
d="M348 510.5q3 -3.5 2 -8.5l-11 -85q-1 -5 -4.5 -8.5t-8.5 -3.5h-74q-2 0 -3.5 -1.5t-1.5 -3.5l-48 -388q-1 -5 -4.5 -8.5t-8.5 -3.5h-113q-5 0 -8 3.5t-2 8.5l47 388q2 5 -4 5h-43q-5 0 -8 3.5t-2 8.5l11 85q0 5 4 8.5t9 3.5h42q4 0 6 5l3 25q11 91 59 125.5t149 31.5h20
q5 0 8 -3.5t2 -8.5l-10 -80q-1 -5 -4.5 -8.5t-8.5 -3.5h-17q-29 -1 -43.5 -15.5t-19.5 -47.5l-1 -15q-2 -5 4 -5h74q5 0 8 -3.5zM448.5 591q-18.5 19 -18.5 49q0 39 25 64.5t62 25.5q31 0 49.5 -18.5t18.5 -49.5q0 -38 -26 -64t-62 -26q-30 0 -48.5 19zM363 3.5
q-3 3.5 -2 8.5l60 490q1 5 4.5 8.5t8.5 3.5h113q11 0 11 -12l-61 -490q0 -5 -4 -8.5t-9 -3.5h-113q-5 0 -8 3.5z" />
    <glyph glyph-name="fl" unicode="fl" horiz-adv-x="552" 
d="M348 510.5q3 -3.5 2 -8.5l-11 -85q-1 -5 -4.5 -8.5t-8.5 -3.5h-74q-2 0 -3.5 -1.5t-1.5 -3.5l-48 -388q-1 -5 -4.5 -8.5t-8.5 -3.5h-113q-5 0 -8 3.5t-2 8.5l47 388q2 5 -4 5h-43q-5 0 -8 3.5t-2 8.5l11 85q0 5 4 8.5t9 3.5h42q4 0 6 5l3 25q11 91 59 125.5t149 31.5h20
q5 0 8 -3.5t2 -8.5l-10 -80q-1 -5 -4.5 -8.5t-8.5 -3.5h-17q-29 -1 -43.5 -15.5t-19.5 -47.5l-1 -15q-2 -5 4 -5h74q5 0 8 -3.5zM358 3.5q-3 3.5 -2 8.5l83 676q1 5 4.5 8.5t8.5 3.5h113q11 0 11 -12l-83 -676q-1 -5 -5 -8.5t-9 -3.5h-113q-5 0 -8 3.5z" />
    <glyph glyph-name="I_J.liga" unicode="IJ" horiz-adv-x="741" 
d="M33 12l83 676q1 5 5 8.5t9 3.5h113q5 0 8 -3.5t2 -8.5l-83 -676q-1 -5 -4.5 -8.5t-8.5 -3.5h-113q-11 0 -11 12zM310 39.5q-52 47.5 -52 128.5q0 10 2 32l8 66q1 5 4.5 8.5t8.5 3.5h113q11 0 11 -12l-9 -67q-1 -5 -1 -14q0 -33 19 -52.5t52 -19.5q36 0 62 24t30 62
l60 489q1 5 4.5 8.5t8.5 3.5h114q5 0 8 -3.5t2 -8.5l-60 -488q-7 -62 -40.5 -109t-86.5 -73t-117 -26q-89 0 -141 47.5z" />
    <glyph glyph-name="f_f_i.liga" unicode="ffi" horiz-adv-x="852" 
d="M739 591q-19 19 -19 49q0 39 25.5 64.5t61.5 25.5q31 0 49.5 -18t18.5 -49q0 -38 -25.5 -64.5t-61.5 -26.5q-30 0 -49 19zM552 519q-2 -5 4 -5h75q5 0 8 -3.5t2 -8.5l-10 -82q-1 -5 -4.5 -8.5t-8.5 -3.5h-75q-4 0 -6 -5l-48 -391q0 -5 -4 -8.5t-9 -3.5h-113q-5 0 -8 3.5
t-2 8.5l48 391q0 5 -5 5h-144q-4 0 -6 -5l-48 -391q0 -5 -4 -8.5t-9 -3.5h-113q-5 0 -8 3.5t-2 8.5l48 391q0 5 -5 5h-41q-5 0 -8 3.5t-2 8.5l10 82q0 5 4 8.5t9 3.5h41q4 0 6 5l4 34q10 85 59 119t148 29h19q5 0 8 -3.5t2 -8.5l-9 -71q-1 -5 -4.5 -8.5t-8.5 -3.5h-18
q-29 -1 -43 -17.5t-18 -47.5l-2 -22q-2 -5 4 -5h144q4 0 6 5l4 34q10 84 59 118.5t149 29.5h19q5 0 8 -3.5t2 -8.5l-9 -71q-1 -5 -4.5 -8.5t-8.5 -3.5h-18q-29 -1 -43.5 -17.5t-18.5 -47.5zM650 12l61 490q0 5 4 8.5t9 3.5h113q5 0 8 -3.5t2 -8.5l-60 -490q-1 -5 -4.5 -8.5
t-8.5 -3.5h-113q-11 0 -11 12z" />
    <glyph glyph-name="f_f_l.liga" unicode="ffl" horiz-adv-x="842" 
d="M555 519q-2 -5 4 -5h74q11 0 11 -12l-10 -82q-1 -5 -5 -8.5t-9 -3.5h-74q-4 0 -6 -5l-48 -391q-1 -5 -4.5 -8.5t-8.5 -3.5h-113q-5 0 -8 3.5t-2 8.5l48 391q0 5 -5 5h-147q-4 0 -6 -5l-48 -391q0 -5 -4 -8.5t-9 -3.5h-113q-5 0 -8 3.5t-2 8.5l48 391q0 5 -5 5h-41
q-5 0 -8 3.5t-2 8.5l10 82q0 5 4 8.5t9 3.5h41q4 0 6 5l4 34q10 85 59 119t148 29h19q5 0 8 -3.5t2 -8.5l-9 -71q-1 -5 -4.5 -8.5t-8.5 -3.5h-18q-29 -1 -43 -17.5t-18 -47.5l-2 -22q-2 -5 4 -5h147q4 0 6 5l4 34q10 85 59 119t148 29h19q5 0 8 -3.5t2 -8.5l-9 -71
q-1 -5 -4.5 -8.5t-8.5 -3.5h-18q-29 -1 -43 -17.5t-18 -47.5zM733 696.5q4 3.5 9 3.5h113q5 0 8 -3.5t2 -8.5l-83 -676q-1 -5 -4.5 -8.5t-8.5 -3.5h-113q-5 0 -8 3.5t-2 8.5l83 676q0 5 4 8.5z" />
    <glyph glyph-name="g_j.liga" unicode="gj" horiz-adv-x="709" 
d="M596.5 591q-18.5 19 -18.5 48q0 40 25 65.5t62 25.5q30 0 48.5 -18t18.5 -49q0 -38 -25.5 -64.5t-61.5 -26.5q-30 0 -48.5 19zM343 475q2 1 3 4l3 23q1 5 4.5 8.5t8.5 3.5h113q11 0 11 -12l-58 -467q-15 -120 -86.5 -178.5t-191.5 -58.5q-26 0 -55 3q-12 1 -10 13l15 101
q1 11 14 11q15 -2 41 -2q65 0 97 28.5t40 90.5v0q1 3 -1 4t-4 -2q-42 -43 -104 -43q-64 0 -102.5 38t-41.5 113q-1 5 -1 17q0 26 7 89q12 83 23 112q19 71 64.5 111t111.5 40q65 0 96 -45q1 -3 3 -2zM568 502q1 5 4.5 8.5t8.5 3.5h114q5 0 8 -3.5t2 -8.5l-62 -502
q-9 -75 -31.5 -119t-69.5 -65t-128 -20q-12 0 -10 12l16 96q1 11 15 11q32 0 49 21t22 63zM319 259q6 56 6 83q-1 27 -15.5 43t-40.5 16q-25 0 -43 -16t-27 -43q-10 -34 -16 -83q-5 -41 -5 -81q2 -27 17 -43t41 -16t44 16t25 42q9 35 14 82z" />
    <glyph glyph-name="i_j.liga" unicode="ij" horiz-adv-x="454" 
d="M116 591.5q-19 19.5 -19 49.5q0 38 25.5 63.5t62.5 25.5q31 0 49.5 -18.5t18.5 -49.5q0 -38 -26 -64t-62 -26q-30 0 -49 19.5zM339.5 591q-18.5 19 -18.5 49q0 39 25 64.5t62 25.5q31 0 49.5 -18.5t18.5 -49.5q0 -38 -26 -64t-62 -26q-30 0 -48.5 19zM33 3.5
q-3 3.5 -2 8.5l60 490q1 5 4.5 8.5t8.5 3.5h113q11 0 11 -12l-61 -490q-1 -5 -4.5 -8.5t-8.5 -3.5h-113q-5 0 -8 3.5zM126 -192l12 96q2 13 13 11q50 -1 73 19t28 65l62 503q1 5 4.5 8.5t8.5 3.5h113q11 0 11 -12l-62 -502q-10 -77 -32.5 -120.5t-74 -64t-146.5 -19.5
q-12 0 -10 12z" />
    <glyph glyph-name="hyphen_hyphen.liga" unicode="&#x2d;&#x2d;" horiz-adv-x="607" 
d="M38 235.5q-3 3.5 -2 8.5l12 97q1 5 4.5 8.5t8.5 3.5h533q5 0 8 -3.5t2 -8.5l-11 -97q-1 -5 -5 -8.5t-9 -3.5h-533q-5 0 -8 3.5z" />
    <glyph glyph-name=".notdef" horiz-adv-x="426" 
d="M-15 0h417q2 0 3.5 1.5t1.5 3.5l85 690q0 5 -4 5h-417q-5 0 -5 -5l-85 -690q0 -5 4 -5zM172 252.5q-3 3.5 -2 8.5l2 20q4 36 23 58t53 46q29 20 43 36.5t14 41.5q0 20 -12.5 31.5t-32.5 11.5q-24 0 -40.5 -15t-19.5 -39l-1 -8q-1 -11 -13 -11l-74 3q-5 0 -8 4t-2 9v3
q8 65 56 105.5t116 40.5q61 0 96 -32.5t35 -86.5q0 -13 -1 -20q-6 -45 -27 -71t-57 -52q-25 -17 -37.5 -30t-14.5 -32l-1 -13q-1 -5 -4.5 -8.5t-8.5 -3.5h-74q-5 0 -8 3.5zM161 102.5q-13 13.5 -13 34.5q0 28 18 46.5t44 18.5q22 0 35 -13t13 -34q0 -28 -18 -47t-44 -19
q-22 0 -35 13.5z" />
    <glyph glyph-name=".null" 
 />
    <glyph glyph-name="nonmarkingreturn" unicode="&#xd;" horiz-adv-x="194" 
 />
    <glyph glyph-name="NULL" 
 />
    <glyph glyph-name="NULL" 
 />
    <glyph glyph-name="space" unicode=" " horiz-adv-x="194" 
 />
    <glyph glyph-name="exclam" unicode="!" horiz-adv-x="302" 
d="M110 243.5q-3 3.5 -2 8.5l40 436q0 5 4 8.5t9 3.5h113q5 0 8 -3.5t2 -8.5l-67 -436q-1 -5 -4.5 -8.5t-8.5 -3.5h-86q-5 0 -8 3.5zM80.5 20q-18.5 19 -18.5 49q0 39 25 64.5t62 25.5q30 0 48.5 -18t18.5 -49q0 -38 -25.5 -64.5t-61.5 -26.5q-30 0 -48.5 19z" />
    <glyph glyph-name="quotedbl" unicode="&#x22;" horiz-adv-x="342" 
d="M69.5 474.5q-3.5 3.5 -2.5 8.5l12 203q2 12 13 12h107q12 0 9 -12l-37 -203q-1 -12 -14 -12h-79q-5 0 -8.5 3.5zM254.5 474.5q-3.5 3.5 -3.5 8.5l13 203q2 12 12 12h107q13 0 10 -12l-38 -203q-1 -12 -14 -12h-78q-5 0 -8.5 3.5z" />
    <glyph glyph-name="numbersign" unicode="#" horiz-adv-x="632" 
d="M619.5 407.5q-3.5 -3.5 -8.5 -3.5h-66q-6 0 -6 -5l-27 -99q0 -5 3 -5h48q5 0 8 -3.5t2 -8.5l-12 -96q-1 -5 -4.5 -8.5t-8.5 -3.5h-65q-6 0 -6 -5l-35 -132q-3 -11 -14 -11h-113q-12 0 -9 13l34 130q0 5 -3 5h-90q-2 0 -4 -1.5t-2 -3.5l-35 -132q-3 -11 -14 -11h-113
q-12 0 -9 13l34 130q2 5 -3 5h-48q-5 0 -8 3.5t-2 8.5l12 96q1 5 4.5 8.5t8.5 3.5h66q5 0 7 5l25 99q2 5 -3 5h-47q-11 0 -11 12l12 97q1 5 4.5 8.5t8.5 3.5h66q5 0 7 5l34 132q3 11 14 11h114q12 0 9 -13l-34 -130q-2 -5 3 -5h88q5 0 7 5l34 132q3 11 14 11h114q12 0 9 -13
l-35 -130q0 -5 4 -5h48q5 0 8 -3.5t2 -8.5l-12 -97q-1 -5 -4.5 -8.5zM375 300l27 99q0 5 -3 5h-89q-2 0 -4.5 -1.5t-2.5 -3.5l-26 -99q0 -5 4 -5h88q6 0 6 5z" />
    <glyph glyph-name="dollar" unicode="$" horiz-adv-x="493" 
d="M409 62.5q-49 -51.5 -124 -65.5q-4 -2 -6 -6l-6 -60q-1 -5 -4.5 -8.5t-8.5 -3.5h-89q-5 0 -8 3.5t-2 8.5l9 62q0 5 -4 6q-63 14 -97.5 56.5t-34.5 104.5q0 8 2 28l3 26q1 5 4.5 8.5t8.5 3.5h109q5 0 8 -3.5t2 -8.5l-3 -19q-4 -36 18 -59t64 -23q39 0 62 23.5t23 57.5
q0 27 -22 46.5t-81 53.5q-50 29 -80.5 51.5t-52.5 58.5t-22 85q0 83 48.5 140t125.5 73q5 2 6 6l7 69q1 5 4.5 8.5t8.5 3.5h88q5 0 8 -3.5t2 -8.5l-10 -69q0 -5 4 -6q63 -15 98.5 -59.5t35.5 -107.5q0 -10 -2 -30l-2 -20q-1 -5 -4.5 -8.5t-8.5 -3.5h-108q-5 0 -8 3.5t-2 8.5
l2 18q1 4 1 12q0 31 -21 51.5t-58 20.5t-59.5 -21.5t-22.5 -59.5q0 -28 22.5 -48t82.5 -54l19 -12q47 -30 73.5 -51.5t44.5 -52t18 -72.5q0 -8 -2 -26q-10 -76 -59 -127.5z" />
    <glyph glyph-name="percent" unicode="%" horiz-adv-x="772" 
d="M137 432q-38 39 -38 98q0 47 24 88.5t63.5 66t84.5 24.5q58 0 96 -39.5t38 -97.5q0 -48 -24 -89t-63.5 -65.5t-84.5 -24.5q-58 0 -96 39zM137.5 4q-1.5 4 1.5 10l443 678q5 8 15 8h73q9 0 9 -6q0 -3 -3 -8l-442 -678q-6 -8 -16 -8h-72q-7 0 -8.5 4zM302 497.5
q26 26.5 26 63.5q0 29 -19 49.5t-47 20.5q-34 0 -60.5 -27t-26.5 -63q0 -30 19 -50t48 -20q34 0 60 26.5zM455 30.5q-38 39.5 -38 98.5q0 47 24 88t64 65.5t85 24.5q58 0 96 -39.5t38 -98.5q0 -47 -24.5 -88t-64.5 -65.5t-84 -24.5q-58 0 -96 39.5zM620 96q26 27 26 64
q0 30 -18.5 49.5t-47.5 19.5q-35 0 -60 -27t-25 -64q0 -29 18.5 -49t46.5 -20q34 0 60 27z" />
    <glyph glyph-name="ampersand" unicode="&#x26;" horiz-adv-x="634" 
d="M577 8q0 -4 -3 -6t-8 -2h-126q-8 0 -13 7l-27 36q-2 3 -6 1q-87 -53 -184 -53q-81 0 -130.5 37.5t-49.5 111.5q0 8 2 28q8 66 45 111.5t96 83.5q4 4 1 7q-32 50 -44.5 80t-12.5 58q0 56 27.5 101.5t75.5 72t108 26.5q79 0 127.5 -43.5t48.5 -114.5t-38.5 -121t-103.5 -92
q-3 -3 -1 -7q35 -51 68 -98q2 -3 7 0q33 37 60 75q3 5 7.5 6.5t9.5 -1.5l77 -49q9 -7 2 -16q-38 -58 -90 -115q-3 -3 -1 -6l12 -18q46 -69 61 -93q3 -3 3 -7zM271.5 562q-17.5 -18 -17.5 -47q0 -13 7 -29t27 -49q3 -4 7 -1q35 23 53.5 45.5t18.5 50.5q0 22 -13.5 35
t-36.5 13q-28 0 -45.5 -18zM325 140q5 4 2 7l-33 48q-31 44 -47 67q-3 4 -7 1q-34 -23 -52 -45.5t-18 -51.5q0 -26 17 -41t48 -15q37 0 90 30z" />
    <glyph glyph-name="quotesingle" unicode="'" horiz-adv-x="164" 
d="M69.5 476.5q-3.5 3.5 -2.5 8.5l13 202q0 12 12 12h114q12 0 9 -12l-37 -202q-1 -12 -14 -12h-86q-5 0 -8.5 3.5z" />
    <glyph glyph-name="parenleft" unicode="(" horiz-adv-x="319" 
d="M86 -84q-72 130 -72 307q0 54 7 109q16 131 61.5 237.5t107.5 182.5q6 7 15 7h110q7 0 9 -4t-2 -10q-120 -192 -147 -412q-7 -57 -7 -117q0 -154 52 -293q2 -4 2 -6q0 -8 -11 -8h-112q-9 0 -13 7z" />
    <glyph glyph-name="parenright" unicode=")" horiz-adv-x="319" 
d="M276 752q72 -128 72 -306q0 -56 -7 -111q-16 -131 -61.5 -237t-107.5 -182q-4 -7 -14 -7h-111q-9 0 -9 6q0 3 3 8q119 191 147 412q7 56 7 115q0 154 -54 295q-1 2 -1 5q0 4 3 6.5t8 2.5h112q9 0 13 -7z" />
    <glyph glyph-name="asterisk" unicode="*" horiz-adv-x="369" 
d="M178 397.5q-3 3.5 -2 8.5l12 87q0 3 -2 4t-4 -1l-81 -46q-4 -2 -6 -2q-7 0 -10 7l-21 51q-1 2 -1 5q0 7 7 12l85 45q5 3 1 6l-73 43q-6 3 -6 9q0 4 3 8l33 52q4 5 8.5 6.5t8.5 -1.5l70 -46q5 -4 7 3l9 86q1 5 4.5 8.5t8.5 3.5h55q5 0 8 -3.5t2 -8.5l-11 -86q0 -3 2 -4
t4 1l80 46q4 2 6 2q7 0 10 -7l21 -52q1 -2 1 -5q0 -9 -8 -12l-84 -43q-4 -3 -1 -6l74 -45q5 -3 5 -9q0 -3 -3 -8l-34 -52q-3 -5 -7.5 -6.5t-9.5 1.5l-69 47q-2 2 -3.5 1t-2.5 -4l-10 -87q-1 -5 -5 -8.5t-9 -3.5h-54q-5 0 -8 3.5z" />
    <glyph glyph-name="plus" unicode="+" horiz-adv-x="448" 
d="M444 358.5q3 -3.5 2 -8.5l-10 -89q-1 -5 -5 -8.5t-9 -3.5h-127q-5 0 -5 -5l-16 -130q-1 -5 -4.5 -8.5t-8.5 -3.5h-87q-11 0 -11 12l16 130q2 5 -4 5h-127q-5 0 -8 3.5t-2 8.5l11 89q1 5 4.5 8.5t8.5 3.5h127q5 0 5 5l17 132q1 5 4.5 8.5t8.5 3.5h87q5 0 8 -3.5t2 -8.5
l-16 -132q0 -5 4 -5h127q5 0 8 -3.5z" />
    <glyph glyph-name="comma" unicode="," horiz-adv-x="231" 
d="M5 -85l56 232q3 11 13 11h98q6 0 8.5 -3.5t0.5 -9.5l-84 -233q-4 -10 -15 -10h-68q-12 0 -9 13z" />
    <glyph glyph-name="hyphen" unicode="-" horiz-adv-x="359" 
d="M38 238.5q-3 3.5 -2 8.5l12 97q1 5 4.5 8.5t8.5 3.5h285q11 0 11 -12l-12 -97q-1 -5 -5 -8.5t-9 -3.5h-285q-5 0 -8 3.5z" />
    <glyph glyph-name="period" unicode="." horiz-adv-x="239" 
d="M48 15.5q-19 19.5 -19 49.5q0 38 25.5 63.5t62.5 25.5q31 0 49.5 -18.5t18.5 -49.5q0 -38 -26 -64t-62 -26q-30 0 -49 19.5z" />
    <glyph glyph-name="slash" unicode="/" horiz-adv-x="431" 
d="M2.5 3.5q-2.5 3.5 0.5 10.5l315 676q3 10 13 10h112q6 0 8.5 -3.5t-0.5 -10.5l-314 -676q-5 -10 -14 -10h-112q-6 0 -8.5 3.5z" />
    <glyph glyph-name="zero" unicode="0" horiz-adv-x="496" 
d="M90.5 37q-49.5 48 -49.5 131q0 24 2 37l35 290q12 98 76.5 156.5t160.5 58.5q87 0 137 -48.5t50 -131.5q0 -11 -2 -35l-35 -290q-13 -99 -77.5 -157.5t-160.5 -58.5q-87 0 -136.5 48zM298.5 133.5q23.5 23.5 28.5 63.5l37 305q1 6 1 17q0 32 -17 50.5t-48 18.5
q-33 0 -56.5 -23.5t-27.5 -62.5l-38 -305q-1 -5 -1 -15q0 -33 17 -52.5t47 -19.5q34 0 57.5 23.5z" />
    <glyph glyph-name="one" unicode="1" horiz-adv-x="309" 
d="M202 700h118q5 0 8 -3.5t2 -8.5l-83 -676q-1 -5 -4.5 -8.5t-8.5 -3.5h-114q-5 0 -8 3.5t-2 8.5l67 546q1 2 -0.5 4t-3.5 1l-88 -17l-5 -1q-9 0 -7 11l8 86q2 10 10 14l96 41q9 3 15 3z" />
    <glyph glyph-name="two" unicode="2" horiz-adv-x="484" 
d="M203 123q1 -2 4 -2h233q5 0 8 -3.5t2 -8.5l-12 -97q-1 -5 -4.5 -8.5t-8.5 -3.5h-398q-5 0 -8 3.5t-2 8.5l12 97q1 8 7 14q133 136 225 241q89 102 89 161q0 29 -16 45.5t-44 16.5q-30 0 -51 -20.5t-26 -53.5l-4 -33q-1 -5 -4.5 -8.5t-8.5 -3.5h-115q-5 0 -8 3.5t-2 8.5
l5 47q16 82 80 131.5t152 49.5q84 0 133 -46.5t49 -121.5q0 -55 -24 -106t-76 -112q-53 -62 -137 -146l-48 -49q-3 -2 -2 -4z" />
    <glyph glyph-name="three" unicode="3" horiz-adv-x="473" 
d="M448 270q0 -21 -3 -45q-9 -71 -39 -122q-29 -53 -78 -82t-115 -29q-78 0 -126.5 42t-53.5 112q-1 8 -1 26q0 14 2 42q2 12 13 12h115q5 0 8 -3t2 -9q-1 -9 -1 -26q0 -13 1 -18q2 -27 16.5 -42t39.5 -15q23 0 41 13.5t28 38.5q12 31 16 70q3 20 3 37q0 21 -4 34
q-4 25 -18.5 38.5t-36.5 13.5q-16 0 -38 -14q-3 -2 -8 -2t-8 4l-50 65q-2 2 -2 7q0 6 4 10l156 145q2 2 1.5 4t-3.5 2h-206q-5 0 -8 3.5t-2 8.5l12 97q1 5 4.5 8.5t8.5 3.5h370q5 0 8 -3.5t2 -8.5l-13 -100q0 -6 -7 -15l-138 -137q-5 -5 1 -6q37 -7 62 -30.5t36 -61.5
q9 -30 9 -68z" />
    <glyph glyph-name="four" unicode="4" horiz-adv-x="528" 
d="M513 301.5q3 -3.5 2 -8.5l-12 -103q-1 -5 -5 -8.5t-9 -3.5h-35q-6 0 -6 -5l-20 -161q-1 -5 -4.5 -8.5t-8.5 -3.5h-113q-5 0 -8 3.5t-2 8.5l19 161q2 5 -4 5h-271q-5 0 -8 3.5t-2 8.5l10 81q2 8 5 15l201 405q5 9 15 9h121q14 0 8 -14l-186 -375q-1 -6 3 -6h120q5 0 5 5
l14 114q1 5 4.5 8.5t8.5 3.5h114q5 0 8 -3.5t2 -8.5l-14 -114q-2 -5 4 -5h36q5 0 8 -3.5z" />
    <glyph glyph-name="five" unicode="5" horiz-adv-x="473" 
d="M458 271q0 -24 -3 -50q-7 -51 -23 -89q-26 -67 -81 -103t-131 -36t-122.5 38t-55.5 109q-3 22 -2 43q0 12 12 12h116q11 0 11 -12q0 -11 2 -16q3 -26 17 -39.5t37 -13.5t41.5 14.5t26.5 39.5q9 20 13 52q2 10 2 29t-2 27q-4 24 -18 36t-37 12q-46 0 -67 -39
q-4 -10 -14 -10h-117q-5 0 -8 3.5t-2 8.5l49 401q1 5 4.5 8.5t8.5 3.5h371q5 0 8 -3.5t2 -8.5l-12 -97q-1 -5 -4.5 -8.5t-8.5 -3.5h-241q-5 0 -5 -5l-20 -156q-1 -4 1 -4.5t4 1.5q20 15 45.5 23t51.5 8q58 0 95 -28t49 -80q7 -29 7 -67z" />
    <glyph glyph-name="six" unicode="6" horiz-adv-x="474" 
d="M458 263q0 -21 -3 -42q-6 -49 -25 -93q-26 -65 -80 -100t-129 -35q-63 0 -105 27.5t-58 79.5l-2 6q-14 28 -14 72q0 11 2 37l37 313q10 82 71.5 131t152.5 49q80 0 128 -41.5t48 -111.5q0 -8 -2 -26l-3 -29q-1 -5 -5 -8.5t-9 -3.5h-113q-5 0 -8 3.5t-2 8.5l2 15l1 11
q0 26 -14.5 42.5t-37.5 16.5q-29 0 -49 -20t-24 -51l-11 -96q-1 -3 1 -4t4 1q40 32 91 32q58 0 96 -31.5t51 -86.5q9 -30 9 -66zM317 224q2 22 2 31q0 21 -4 36q-9 42 -53 42q-42 0 -62 -42q-12 -22 -18 -68q-2 -12 -2 -34q0 -75 55 -75q45 0 68 51q9 24 14 59z" />
    <glyph glyph-name="seven" unicode="7" horiz-adv-x="438" 
d="M77 4q-2 4 1 10l253 559q3 6 -3 6h-144q-4 0 -6 -5l-5 -40q-1 -5 -4.5 -8.5t-8.5 -3.5h-88q-5 0 -8 3.5t-2 8.5l20 154q0 5 4 8.5t9 3.5h386q5 0 8 -3.5t2 -8.5l-12 -101l-4 -15l-255 -562q-3 -10 -13 -10h-122q-6 0 -8 4z" />
    <glyph glyph-name="eight" unicode="8" horiz-adv-x="476" 
d="M450 237q0 -11 -2 -33q-7 -53 -31 -98q-30 -53 -82 -83.5t-117 -30.5q-64 0 -109.5 29.5t-63.5 84.5q-9 29 -9 62q0 18 3 36q6 58 31 100q20 37 57 59q4 3 1 7q-26 22 -38 54q-11 30 -11 64q0 76 43 133q29 43 78 67.5t106 24.5q58 0 99.5 -23.5t61.5 -67.5
q17 -34 17 -78q0 -64 -34 -121q-21 -32 -52 -52q-5 -4 -1 -7q32 -22 43 -59q10 -32 10 -68zM214 506q-1 -5 -1 -15q0 -16 5 -33q12 -40 52 -40t62 41q11 21 14 48q1 5 1 16q0 14 -3 26q-5 19 -19 31t-34 12t-37 -11.5t-27 -32.5q-10 -23 -13 -42zM313 214q2 18 2 25
q0 14 -4 32q-11 45 -54 45t-64 -45q-13 -24 -16 -56q-1 -8 -1 -22q0 -20 3 -35q5 -21 18.5 -33t34.5 -12t37.5 11.5t26.5 32.5q14 27 17 57z" />
    <glyph glyph-name="nine" unicode="9" horiz-adv-x="468" 
d="M433 172q-10 -82 -71 -131t-152 -49q-80 0 -128 41.5t-48 111.5q0 8 2 26l3 29q1 5 4.5 8.5t8.5 3.5h114q5 0 8 -3.5t2 -8.5l-2 -15l-1 -11q0 -26 14.5 -42.5t37.5 -16.5q28 0 48 20t24 51l12 96q1 3 -1 3.5t-4 -1.5q-40 -31 -91 -31q-59 0 -96.5 31.5t-49.5 86.5
q-10 29 -10 67q0 20 3 41q6 49 25 93q26 65 80 100t128 35q64 0 106 -27.5t58 -79.5q1 -2 1 -5q15 -33 15 -76q0 -10 -2 -34zM315 409q13 25 18 68q2 12 2 34q0 75 -55 75q-45 0 -68 -51q-9 -24 -14 -59q-2 -22 -2 -31q0 -21 4 -36q11 -42 53 -42t62 42z" />
    <glyph glyph-name="colon" unicode=":" horiz-adv-x="310" 
d="M126 350.5q-19 19.5 -19 49.5q0 38 25.5 63.5t62.5 25.5q31 0 49.5 -18.5t18.5 -49.5q0 -38 -26 -64t-62 -26q-30 0 -49 19.5zM86 22.5q-19 19.5 -19 49.5q0 38 25.5 63.5t62.5 25.5q31 0 49.5 -18.5t18.5 -49.5q0 -38 -26 -64t-62 -26q-30 0 -49 19.5z" />
    <glyph glyph-name="semicolon" unicode=";" horiz-adv-x="266" 
d="M98 334.5q-21 21.5 -21 53.5q0 26 14 48.5t36.5 36t46.5 13.5q31 0 53.5 -22t22.5 -54q0 -40 -29 -68.5t-68 -28.5q-34 0 -55 21.5zM26.5 -93.5q-2.5 3.5 -1.5 9.5l48 229q3 11 13 11h99q13 0 9 -13l-77 -229q-3 -11 -14 -11h-68q-6 0 -8.5 3.5z" />
    <glyph glyph-name="less" unicode="&#x3c;" horiz-adv-x="448" 
d="M404.5 41.5q-4.5 -2.5 -9.5 0.5l-354 175q-8 5 -7 14l13 101q0 9 10 14l397 175q4 2 6 2q3 0 5 -3t1 -8l-13 -110q-2 -10 -11 -14l-259 -104q-6 -3 0 -6l233 -103q9 -4 7 -14l-13 -110q-1 -7 -5.5 -9.5z" />
    <glyph glyph-name="equal" unicode="=" horiz-adv-x="448" 
d="M52 346.5q-3 3.5 -2 8.5l11 89q1 5 4.5 8.5t8.5 3.5h374q5 0 8 -3.5t2 -8.5l-11 -89q0 -5 -4 -8.5t-9 -3.5h-374q-5 0 -8 3.5zM29 158.5q-3 3.5 -2 8.5l11 89q1 5 4.5 8.5t8.5 3.5h374q5 0 8 -3.5t2 -8.5l-11 -89q0 -5 -4 -8.5t-9 -3.5h-374q-5 0 -8 3.5z" />
    <glyph glyph-name="greater" unicode="&#x3e;" horiz-adv-x="448" 
d="M19 40q-9 0 -7 11l14 110q0 9 10 14l259 103q6 3 1 6l-234 104q-8 5 -7 14l14 110q1 7 5 9.5t9 -0.5l354 -175q9 -4 7 -14l-12 -101q-2 -10 -11 -14l-396 -175q-4 -2 -6 -2z" />
    <glyph glyph-name="question" unicode="?" horiz-adv-x="465" 
d="M161 225.5q-3 3.5 -2 8.5l4 32q6 50 32 80t73 64q42 31 61 53.5t19 57.5q0 28 -16.5 44t-45.5 16q-35 0 -57.5 -21t-26.5 -54l-2 -16q-1 -11 -13 -11l-113 5q-5 0 -8 3.5t-2 8.5l1 10q7 60 40 106.5t85 72t115 25.5q85 0 134 -44.5t49 -120.5q0 -10 -2 -30
q-6 -45 -23.5 -76.5t-39 -51t-54.5 -43.5q-35 -25 -52 -43t-20 -44l-2 -23q-1 -5 -5 -8.5t-9 -3.5h-112q-5 0 -8 3.5zM146.5 16.5q-18.5 18.5 -18.5 48.5q0 39 25 64.5t62 25.5q31 0 49.5 -18t18.5 -48q0 -39 -25.5 -65t-61.5 -26q-31 0 -49.5 18.5z" />
    <glyph glyph-name="at" unicode="@" horiz-adv-x="762" 
d="M628 625q62 -31 95.5 -88.5t33.5 -134.5q0 -48 -13 -97q-25 -99 -80 -153.5t-132 -54.5q-68 0 -97 40q-4 3 -7 0q-39 -40 -105 -40q-48 0 -74 28.5t-22 78.5q-1 14 3.5 36.5t10.5 44.5q12 48 23 71q19 53 54.5 81.5t81.5 28.5q40 0 63 -24q4 -4 6 2l1 6q3 11 13 11h69
q12 0 9 -13l-45 -179q-5 -20 -5 -33q0 -23 11 -36.5t31 -13.5q31 0 55.5 32t37.5 86q11 47 11 84q0 86 -50.5 133.5t-139.5 47.5q-72 0 -139 -36.5t-115.5 -102.5t-68.5 -151q-10 -43 -10 -82q0 -89 51.5 -139.5t131.5 -50.5q42 0 79 11.5t63 28.5q5 3 8 3q5 0 8 -6l27 -50
q2 -4 2 -7q0 -6 -6 -10q-40 -27 -94 -43.5t-113 -16.5q-74 0 -131 32.5t-89 92.5t-32 140q0 50 13 103q26 110 92 194.5t155.5 130.5t184.5 46q82 0 144 -31zM408 219q2 4 8 21.5t11 40.5l12 62q2 19 -7.5 30t-26.5 11q-18 0 -32.5 -11.5t-21.5 -29.5q-14 -29 -20 -64
q-11 -42 -11 -60q-2 -20 7 -31t27 -11q36 0 54 42z" />
    <glyph glyph-name="A" unicode="A" horiz-adv-x="559" 
d="M379 10l-11 98q0 4 -4 4h-181q-3 0 -6 -4l-34 -98q-4 -10 -14 -10h-117q-14 0 -8 13l257 677q4 10 15 10h141q11 0 12 -10l92 -677q0 -13 -12 -13h-118q-11 0 -12 10zM222 221h128q6 0 6 6l-32 290q0 4 -2 4t-3 -4l-101 -290q-1 -6 4 -6z" />
    <glyph glyph-name="B" unicode="B" horiz-adv-x="528" 
d="M421.5 50q-65.5 -50 -160.5 -50h-217q-11 0 -11 12l83 676q1 5 5 8.5t9 3.5h202q94 0 145.5 -39.5t51.5 -119.5q0 -9 -2 -33q-12 -99 -92 -143q-5 -4 -2 -6q67 -44 67 -132q0 -9 -2 -31q-11 -96 -76.5 -146zM239 574l-19 -157q0 -5 4 -5h74q39 0 64 22t30 61q1 5 1 14
q0 33 -19.5 51.5t-55.5 18.5h-73q-4 0 -6 -5zM333.5 145.5q24.5 23.5 30.5 66.5q1 6 1 17q0 35 -19 55t-54 20h-81q-4 0 -6 -5l-21 -172q0 -5 5 -5h81q39 0 63.5 23.5z" />
    <glyph glyph-name="C" unicode="C" horiz-adv-x="520" 
d="M97.5 42.5q-53.5 50.5 -53.5 135.5q0 10 2 34l35 278q8 65 41.5 114.5t87 76.5t119.5 27q91 0 144.5 -49t53.5 -132q0 -10 -2 -32v-5q-1 -5 -4.5 -9t-8.5 -4l-115 -5q-11 0 -10 11l2 13q1 5 1 15q0 35 -20 55.5t-55 20.5q-39 0 -65.5 -25t-31.5 -66l-36 -293
q-1 -5 -1 -15q0 -34 20.5 -54.5t54.5 -20.5q39 0 65.5 24.5t31.5 65.5l1 13q1 11 13 11l113 -5q5 0 8 -3.5t2 -8.5v-3q-8 -64 -41.5 -113t-87 -75.5t-119.5 -26.5q-91 0 -144.5 50.5z" />
    <glyph glyph-name="D" unicode="D" horiz-adv-x="531" 
d="M33 12l83 676q1 5 5 8.5t9 3.5h208q91 0 143.5 -46.5t52.5 -125.5q0 -9 -2 -31l-36 -294q-11 -92 -78 -147.5t-166 -55.5h-208q-11 0 -11 12zM188 121l80 1q36 0 61 26.5t33 70.5l32 262q1 6 1 18q0 38 -18.5 59t-52.5 21h-79q-4 0 -6 -5l-55 -448q0 -5 4 -5z" />
    <glyph glyph-name="E" unicode="E" horiz-adv-x="496" 
d="M513.5 582.5q-3.5 -3.5 -8.5 -3.5h-260q-4 0 -6 -5l-19 -156q0 -5 4 -5h162q5 0 8 -3.5t2 -8.5l-11 -97q-1 -5 -5 -8.5t-9 -3.5h-162q-2 0 -3.5 -1.5t-1.5 -3.5l-20 -161q0 -5 4 -5h260q11 0 11 -12l-12 -97q-1 -5 -4.5 -8.5t-8.5 -3.5h-390q-11 0 -11 12l83 676
q1 5 5 8.5t9 3.5h390q5 0 8 -3.5t2 -8.5l-12 -97q-1 -5 -4.5 -8.5z" />
    <glyph glyph-name="F" unicode="F" horiz-adv-x="475" 
d="M512.5 582.5q-3.5 -3.5 -8.5 -3.5h-259q-4 0 -6 -5l-19 -156q0 -5 4 -5h161q11 0 11 -12l-12 -97q-1 -5 -4.5 -8.5t-8.5 -3.5h-162q-2 0 -3.5 -1.5t-1.5 -3.5l-34 -275q-1 -5 -4.5 -8.5t-8.5 -3.5h-113q-11 0 -11 12l83 676q1 5 5 8.5t9 3.5h389q5 0 8 -3.5t2 -8.5
l-12 -97q-1 -5 -4.5 -8.5z" />
    <glyph glyph-name="G" unicode="G" horiz-adv-x="524" 
d="M97.5 42.5q-53.5 50.5 -53.5 134.5q0 11 2 33l35 281q8 65 41.5 114t87 76t119.5 27q91 0 145 -49.5t54 -129.5q0 -9 -2 -29l-3 -22q-1 -5 -4.5 -8.5t-8.5 -3.5h-113q-5 0 -8 3.5t-2 8.5l2 21q1 4 1 13q0 33 -20 54t-55 21q-39 0 -66 -26t-32 -68l-35 -286q-1 -5 -1 -15
q0 -36 21.5 -57.5t56.5 -21.5q38 0 64 23t30 63l8 62q0 5 -4 5h-76q-5 0 -8 3.5t-2 8.5l11 91q1 5 4.5 8.5t8.5 3.5h205q5 0 8 -3.5t2 -8.5l-20 -159q-12 -100 -80 -159t-168 -59q-91 0 -144.5 50.5z" />
    <glyph glyph-name="H" unicode="H" horiz-adv-x="538" 
d="M422.5 696.5q3.5 3.5 8.5 3.5h114q5 0 8 -3.5t2 -8.5l-83 -676q-1 -5 -4.5 -8.5t-8.5 -3.5h-114q-5 0 -8 3.5t-2 8.5l34 274q0 5 -4 5h-156q-5 0 -5 -5l-34 -274q-1 -5 -4.5 -8.5t-8.5 -3.5h-113q-11 0 -11 12l83 676q1 5 5 8.5t9 3.5h113q5 0 8 -3.5t2 -8.5l-33 -270
q0 -5 4 -5h156q2 0 3.5 1.5t1.5 3.5l33 270q1 5 4.5 8.5z" />
    <glyph glyph-name="I" unicode="I" horiz-adv-x="239" 
d="M33 12l83 676q1 5 5 8.5t9 3.5h113q5 0 8 -3.5t2 -8.5l-83 -676q-1 -5 -4.5 -8.5t-8.5 -3.5h-113q-11 0 -11 12z" />
    <glyph glyph-name="J" unicode="J" horiz-adv-x="502" 
d="M71 39.5q-52 47.5 -52 128.5q0 10 2 32l8 66q1 5 4.5 8.5t8.5 3.5h113q11 0 11 -12l-9 -67q-1 -5 -1 -14q0 -33 19 -52.5t52 -19.5q36 0 62 24t30 62l60 489q1 5 4.5 8.5t8.5 3.5h114q5 0 8 -3.5t2 -8.5l-60 -488q-7 -62 -40.5 -109t-86.5 -73t-117 -26q-89 0 -141 47.5z
" />
    <glyph glyph-name="K" unicode="K" horiz-adv-x="542" 
d="M33 12l83 676q1 5 5 8.5t9 3.5h113q5 0 8 -3.5t2 -8.5l-32 -266q-1 -3 1.5 -4t3.5 2l207 272q6 8 15 8h125q9 0 9 -6q0 -3 -3 -8l-215 -287q-1 -2 -1 -7l144 -378q1 -2 1 -5q0 -9 -11 -9h-125q-9 0 -12 9l-104 274q-3 6 -7 0l-52 -65q-2 -4 -2 -6l-25 -200
q-1 -5 -4.5 -8.5t-8.5 -3.5h-113q-11 0 -11 12z" />
    <glyph glyph-name="L" unicode="L" horiz-adv-x="484" 
d="M33 12l83 676q1 5 5 8.5t9 3.5h113q5 0 8 -3.5t2 -8.5l-69 -562q0 -5 4 -5h260q11 0 11 -12l-12 -97q-1 -5 -4.5 -8.5t-8.5 -3.5h-390q-11 0 -11 12z" />
    <glyph glyph-name="M" unicode="M" horiz-adv-x="612" 
d="M505 700h113q5 0 8 -3.5t2 -8.5l-83 -676q-1 -5 -4.5 -8.5t-8.5 -3.5h-114q-5 0 -8 3.5t-2 8.5l54 444q1 4 -1 4.5t-4 -2.5l-108 -152q-5 -8 -15 -8h-22q-9 0 -13 8l-70 152q-2 3 -4 2.5t-2 -4.5l-55 -444q-1 -5 -4.5 -8.5t-8.5 -3.5h-113q-5 0 -8 3.5t-2 8.5l83 676
q0 5 4 8.5t9 3.5h112q10 0 13 -8l92 -197q2 -6 6 0l139 197q5 8 15 8z" />
    <glyph glyph-name="N" unicode="N" horiz-adv-x="572" 
d="M454.5 696.5q3.5 3.5 8.5 3.5h113q5 0 8 -3.5t2 -8.5l-83 -676q-1 -5 -4.5 -8.5t-8.5 -3.5h-118q-10 0 -13 9l-135 407q-2 3 -4 3t-2 -4l-49 -403q-1 -5 -4.5 -8.5t-8.5 -3.5h-112q-11 0 -11 12l83 676q1 5 5 8.5t9 3.5h117q9 0 12 -9l136 -407q1 -3 3 -3t3 4l49 403
q1 5 4.5 8.5z" />
    <glyph glyph-name="O" unicode="O" horiz-adv-x="531" 
d="M98.5 42.5q-53.5 51.5 -53.5 138.5q0 24 2 36l33 266q8 67 42 118t88.5 79t121.5 28q93 0 147 -51.5t54 -139.5q0 -10 -2 -34l-33 -266q-8 -68 -42.5 -119t-89.5 -79t-122 -28q-92 0 -145.5 51.5zM327 139.5q28 27.5 34 71.5l33 276q1 6 1 19q0 37 -21 59t-57 22
q-40 0 -67.5 -27.5t-32.5 -72.5l-34 -276q-1 -6 -1 -17q0 -37 20.5 -59.5t56.5 -22.5q40 0 68 27.5z" />
    <glyph glyph-name="P" unicode="P" horiz-adv-x="515" 
d="M488.5 652q46.5 -49 46.5 -130q0 -24 -2 -36q-11 -94 -73 -151.5t-151 -57.5h-104q-4 0 -6 -5l-32 -260q-1 -5 -4.5 -8.5t-8.5 -3.5h-113q-5 0 -8 3.5t-2 8.5l83 677q1 5 4.5 8.5t8.5 3.5h235q80 0 126.5 -49zM369.5 419.5q27.5 30.5 27.5 80.5q0 37 -19.5 58t-53.5 21
h-82q-4 0 -6 -5l-22 -180q0 -5 4 -5h83q41 0 68.5 30.5z" />
    <glyph glyph-name="Q" unicode="Q" horiz-adv-x="511" 
d="M465 656q52 -52 52 -139q0 -24 -2 -37l-33 -265q-10 -80 -56 -136.5t-117 -76.5q-4 -1 -5 -5l-10 -83q-1 -5 -4.5 -8.5t-8.5 -3.5h-114q-5 0 -8 3.5t-2 8.5l10 83q1 4 -3 5q-58 17 -90 64t-32 114q0 11 2 35l32 265q8 68 42 119.5t87 80t118 28.5q90 0 142 -52zM379 491
q1 6 1 17q0 36 -19 57.5t-53 21.5q-37 0 -62.5 -26.5t-30.5 -69.5l-35 -282q-1 -6 -1 -17q0 -36 19 -57.5t52 -21.5q37 0 63.5 26.5t31.5 69.5z" />
    <glyph glyph-name="R" unicode="R" horiz-adv-x="526" 
d="M339 10l-64 276q-2 4 -5 4h-61q-5 0 -5 -5l-34 -273q-1 -5 -4.5 -8.5t-8.5 -3.5h-113q-11 0 -11 12l83 676q1 5 5 8.5t9 3.5h236q79 0 125 -47.5t46 -127.5q0 -24 -2 -36q-7 -64 -40.5 -111t-85.5 -70q-5 -2 -3 -7l75 -287v-4q0 -10 -12 -10h-118q-11 0 -12 10zM239 574
l-21 -171q0 -5 4 -5h85q40 0 66 29.5t26 77.5q0 34 -19 54t-51 20h-84q-4 0 -6 -5z" />
    <glyph glyph-name="S" unicode="S" horiz-adv-x="504" 
d="M88 38q-54 46 -54 122q0 8 2 28l3 26q1 5 4.5 8.5t8.5 3.5h112q5 0 8 -3.5t2 -8.5l-3 -19q-4 -36 18.5 -59t64.5 -23q41 0 64.5 23t23.5 58q0 27 -22.5 46.5t-83.5 53.5q-51 29 -82.5 52t-54 58.5t-22.5 85.5q0 65 31 114.5t85.5 76.5t121.5 27q91 0 145 -47.5t54 -127.5
q0 -8 -2 -28l-2 -20q-1 -5 -4.5 -8.5t-8.5 -3.5h-112q-5 0 -8 3.5t-2 8.5l2 18q1 4 1 12q0 31 -21.5 51.5t-59.5 20.5q-37 0 -60.5 -21.5t-23.5 -59.5q0 -28 23 -48t85 -54l20 -12q48 -31 75 -52t45 -51t18 -72q0 -9 -2 -27q-11 -91 -77 -144.5t-165 -53.5q-93 0 -147 46z
" />
    <glyph glyph-name="T" unicode="T" horiz-adv-x="511" 
d="M548 696.5q3 -3.5 2 -8.5l-12 -98q-1 -5 -4.5 -8.5t-8.5 -3.5h-148q-2 0 -3.5 -1.5t-1.5 -3.5l-69 -561q-1 -5 -4.5 -8.5t-8.5 -3.5h-113q-11 0 -11 12l69 561q2 5 -4 5h-143q-5 0 -8 3.5t-2 8.5l12 98q1 5 4.5 8.5t8.5 3.5h437q5 0 8 -3.5z" />
    <glyph glyph-name="U" unicode="U" horiz-adv-x="538" 
d="M105 43q-53 51 -53 136q0 24 2 36l58 473q0 5 4 8.5t9 3.5h113q5 0 8 -3.5t2 -8.5l-59 -480q-1 -6 -1 -16q0 -36 20.5 -57.5t54.5 -21.5q39 0 65.5 26t31.5 69l59 480q1 5 4.5 8.5t8.5 3.5h114q5 0 8 -3.5t2 -8.5l-58 -473q-8 -66 -42 -116.5t-88 -78.5t-120 -28
q-90 0 -143 51z" />
    <glyph glyph-name="V" unicode="V" horiz-adv-x="539" 
d="M175 10l-86 677v2q0 11 12 11h124q5 0 8 -3t3 -8l41 -465q0 -4 2.5 -4t3.5 4l154 465q3 11 14 11h119q13 0 9 -13l-254 -677q-4 -10 -15 -10h-123q-11 0 -12 10z" />
    <glyph glyph-name="W" unicode="W" horiz-adv-x="759" 
d="M155 10l-69 677v2q0 11 13 11h119q11 0 11 -11l27 -384q0 -3 2.5 -3t3.5 3l117 384q3 11 14 11h108q11 0 11 -11l31 -384q0 -3 2.5 -3t3.5 3l117 384q3 11 14 11h114q12 0 8 -13l-224 -676q-3 -11 -14 -11h-110q-11 0 -11 11l-30 402q0 3 -2 3t-3 -3l-120 -402
q-3 -11 -14 -11h-107q-9 0 -12 10z" />
    <glyph glyph-name="X" unicode="X" horiz-adv-x="536" 
d="M8.5 3.5q-2.5 3.5 1.5 10.5l201 333q2 3 1 6l-119 333q-1 2 -1 5q0 9 11 9h120q9 0 12 -9l70 -211q3 -6 6 0l121 211q5 9 15 9h119q7 0 9 -3.5t-2 -10.5l-200 -333l-1 -6l119 -333l1 -4q0 -10 -12 -10h-118q-10 0 -13 9l-70 210q-1 6 -6 0l-122 -210q-4 -9 -14 -9h-120
q-6 0 -8.5 3.5z" />
    <glyph glyph-name="Y" unicode="Y" horiz-adv-x="529" 
d="M180 4.5q-3 3.5 -2 8.5l32 256l-1 6l-117 411l-1 4q0 10 11 10h123q11 0 12 -10l59 -253q1 -3 3 -3t3 3l121 253q4 10 15 10h122q7 0 8.5 -4t-1.5 -10l-219 -411l-2 -6l-31 -256q-1 -5 -4.5 -8.5t-8.5 -3.5h-114q-5 0 -8 3.5z" />
    <glyph glyph-name="Z" unicode="Z" horiz-adv-x="470" 
d="M9 3.5q-3 3.5 -2 8.5l13 105q2 10 6 15l314 441q3 6 -2 6h-249q-11 0 -11 12l12 97q1 5 4.5 8.5t8.5 3.5h392q5 0 8 -3.5t2 -8.5l-12 -105q-1 -7 -6 -15l-314 -441q-4 -6 2 -6h249q5 0 8 -3.5t2 -8.5l-12 -97q0 -5 -4 -8.5t-9 -3.5h-392q-5 0 -8 3.5z" />
    <glyph glyph-name="bracketleft" unicode="[" horiz-adv-x="369" 
d="M-4 -143.5q-3 3.5 -2 8.5l113 923q1 5 5 8.5t9 3.5h214q5 0 8 -3.5t2 -8.5l-12 -97q-1 -5 -4.5 -8.5t-8.5 -3.5h-84q-4 0 -6 -5l-85 -694q0 -5 4 -5h86q5 0 8 -3.5t2 -8.5l-12 -98q-1 -5 -4.5 -8.5t-8.5 -3.5h-216q-5 0 -8 3.5z" />
    <glyph glyph-name="backslash" unicode="\" horiz-adv-x="431" 
d="M393 12q0 -12 -12 -12h-112q-9 0 -12 10l-148 676v2q0 12 12 12h111q10 0 12 -10l149 -676v-2z" />
    <glyph glyph-name="bracketright" unicode="]" horiz-adv-x="369" 
d="M298 -143.5q-4 -3.5 -9 -3.5h-214q-5 0 -8 3.5t-2 8.5l12 98q1 5 4.5 8.5t8.5 3.5h84q6 0 6 5l85 694q0 5 -4 5h-85q-5 0 -8 3.5t-2 8.5l12 97q1 5 4.5 8.5t8.5 3.5h215q5 0 8 -3.5t2 -8.5l-113 -923q-1 -5 -5 -8.5z" />
    <glyph glyph-name="asciicircum" unicode="^" horiz-adv-x="434" 
d="M49 312l172 378q5 10 14 10h95q10 0 12 -10l80 -378v-4q0 -10 -11 -10h-91q-9 0 -12 10l-40 237q-1 4 -3 4t-3 -4l-99 -237q-5 -10 -14 -10h-93q-13 0 -7 14z" />
    <glyph glyph-name="underscore" unicode="_" horiz-adv-x="458" 
d="M0 3.5q-3 3.5 -2 8.5l10 83q1 5 4.5 8.5t8.5 3.5h403q11 0 11 -12l-11 -83q0 -5 -4 -8.5t-9 -3.5h-403q-5 0 -8 3.5z" />
    <glyph glyph-name="grave" unicode="`" horiz-adv-x="219" 
d="M250 584q0 -8 -10 -8h-78q-8 0 -13 7l-59 102q-2 4 -2 6q0 4 3.5 6.5t8.5 2.5h93q10 0 13 -8l43 -102q1 -2 1 -6z" />
    <glyph glyph-name="a" unicode="a" horiz-adv-x="489" 
d="M356.5 510.5q3.5 3.5 8.5 3.5h113q5 0 8 -3.5t2 -8.5l-60 -490q-1 -5 -4.5 -8.5t-8.5 -3.5h-113q-5 0 -8 3.5t-2 8.5l4 36q1 4 -1 4.5t-4 -2.5q-43 -58 -114 -58q-66 0 -101.5 42.5t-36.5 116.5q-2 24 7 107q11 83 22 112q18 71 64 111.5t113 40.5q70 0 97 -55
q2 -3 3.5 -3t1.5 4l5 34q1 5 4.5 8.5zM322 257q4 33 4 62q0 17 -1 25q0 25 -14.5 41t-39.5 16q-24 0 -42.5 -16t-26.5 -42q-11 -37 -16 -86q-7 -49 -5 -86q1 -26 16 -42t39 -16q25 0 43 16.5t26 42.5q10 33 17 85z" />
    <glyph glyph-name="b" unicode="b" horiz-adv-x="490" 
d="M469 335q0 -28 -5 -73q-8 -69 -24 -111q-25 -77 -67.5 -118t-102.5 -41q-67 0 -98 43q-1 3 -3 2t-3 -4l-3 -21q0 -5 -4 -8.5t-9 -3.5h-113q-5 0 -8 3.5t-2 8.5l83 676q1 5 4.5 8.5t8.5 3.5h113q5 0 8 -3.5t2 -8.5l-25 -205q0 -3 1.5 -4t4.5 2q21 22 47 31.5t59 9.5
q63 0 96.5 -40t38.5 -115q1 -11 1 -32zM327 258q4 40 4 58q0 21 -2 31q-10 54 -53 54q-44 0 -64 -55q-11 -32 -18 -88q-5 -35 -5 -60q0 -11 2 -27q2 -27 14.5 -42.5t35.5 -15.5q47 0 67 59q12 34 19 86z" />
    <glyph glyph-name="c" unicode="c" horiz-adv-x="471" 
d="M92 34.5q-48 42.5 -51 116.5q-3 40 5 108q6 45 21 106q21 72 80 114.5t139 42.5q79 0 127.5 -41t53.5 -108q1 -4 1 -14t-1 -15q-1 -11 -13 -13l-113 -11h-2q-9 0 -9 11v10q0 4 -2 14q-4 20 -19 33t-39 13q-26 0 -44.5 -16.5t-26.5 -43.5q-9 -29 -16 -83q-5 -43 -5 -67
q0 -13 1 -19q2 -28 16 -43.5t40 -15.5q28 0 47 15.5t25 40.5l3 12q2 5 6 8.5t8 2.5l112 -10q9 -2 9 -11q0 -4 -2 -11t-3 -11q-19 -73 -77.5 -115t-141.5 -42q-81 0 -129 42.5z" />
    <glyph glyph-name="d" unicode="d" horiz-adv-x="490" 
d="M379 696.5q4 3.5 9 3.5h113q5 0 8 -3.5t2 -8.5l-83 -676q-1 -5 -4.5 -8.5t-8.5 -3.5h-113q-5 0 -8 3.5t-2 8.5l2 22q1 3 -1 4t-4 -2q-41 -44 -109 -44q-118 0 -132 159q-1 11 -1 34q0 30 5 77q5 51 21 105q50 155 174 155q34 0 57.5 -9.5t38.5 -32.5q2 -3 4 -2t2 4
l26 206q0 5 4 8.5zM321 258q4 28 4 61q0 82 -52 82q-22 0 -38.5 -14t-26.5 -40q-12 -31 -19 -89q-5 -37 -5 -64q0 -81 54 -81q43 0 65 58q11 30 18 87z" />
    <glyph glyph-name="e" unicode="e" horiz-adv-x="477" 
d="M454 223q-1 -12 -13 -12h-257q-5 0 -5 -5q-1 -13 -1 -34q2 -28 18.5 -44t45.5 -16q24 1 42 12.5t29 32.5q7 10 16 8l100 -21q12 -3 6 -15q-29 -66 -82.5 -101.5t-125.5 -35.5q-86 0 -132 40.5t-52 116.5q-1 10 -1 32q0 31 5 76q5 54 18 98q20 76 79 121.5t140 45.5
q85 0 133.5 -47.5t48.5 -126.5q0 -55 -12 -125zM225 384.5q-19 -16.5 -27 -43.5q-6 -24 -8 -38q0 -5 5 -5h126q5 0 5 5q2 13 2 38q0 27 -15.5 43.5t-42.5 16.5q-26 0 -45 -16.5z" />
    <glyph glyph-name="f" unicode="f" horiz-adv-x="332" 
d="M348 510.5q3 -3.5 2 -8.5l-11 -85q-1 -5 -4.5 -8.5t-8.5 -3.5h-74q-2 0 -3.5 -1.5t-1.5 -3.5l-48 -388q-1 -5 -4.5 -8.5t-8.5 -3.5h-113q-5 0 -8 3.5t-2 8.5l47 388q2 5 -4 5h-43q-5 0 -8 3.5t-2 8.5l11 85q0 5 4 8.5t9 3.5h42q4 0 6 5l3 25q11 91 59 125.5t149 31.5h20
q5 0 8 -3.5t2 -8.5l-10 -80q-1 -5 -4.5 -8.5t-8.5 -3.5h-17q-29 -1 -43.5 -15.5t-19.5 -47.5l-1 -15q-2 -5 4 -5h74q5 0 8 -3.5z" />
    <glyph glyph-name="g" unicode="g" horiz-adv-x="484" 
d="M353.5 510.5q3.5 3.5 8.5 3.5h113q11 0 11 -12l-58 -467q-15 -120 -86.5 -178.5t-191.5 -58.5q-26 0 -55 3q-12 1 -10 13l15 101q1 11 14 11q15 -2 41 -2q65 0 97 28.5t40 90.5v0q1 3 -1 4t-4 -2q-42 -43 -104 -43q-64 0 -102.5 38t-41.5 113q-1 5 -1 17q0 26 7 89
q12 83 23 112q19 71 64.5 111t111.5 40q65 0 96 -45q1 -3 3 -2t3 4l3 23q1 5 4.5 8.5zM319 259q6 56 6 83q-1 27 -15.5 43t-40.5 16q-25 0 -43 -16t-27 -43q-10 -34 -16 -83q-5 -41 -5 -81q2 -27 17 -43t41 -16t44 16t25 42q9 35 14 82z" />
    <glyph glyph-name="h" unicode="h" horiz-adv-x="482" 
d="M432 485q34 -37 34 -103q0 -23 -2 -36l-41 -334q0 -5 -4 -8.5t-9 -3.5h-113q-5 0 -8 3.5t-2 8.5l38 314q1 5 1 15q0 28 -14 44t-39 16q-28 0 -47.5 -20.5t-24.5 -55.5l-39 -313q0 -5 -4 -8.5t-9 -3.5h-113q-5 0 -8 3.5t-2 8.5l83 676q1 5 4.5 8.5t8.5 3.5h113q5 0 8 -3.5
t2 -8.5l-26 -214q0 -3 2 -3.5t5 3.5q41 48 109 48q63 0 97 -37z" />
    <glyph glyph-name="i" unicode="i" horiz-adv-x="230" 
d="M116.5 591q-18.5 19 -18.5 49q0 39 25 64.5t62 25.5q31 0 49.5 -18.5t18.5 -49.5q0 -38 -26 -64t-62 -26q-30 0 -48.5 19zM31 3.5q-3 3.5 -2 8.5l60 490q1 5 4.5 8.5t8.5 3.5h113q11 0 11 -12l-61 -490q0 -5 -4 -8.5t-9 -3.5h-113q-5 0 -8 3.5z" />
    <glyph glyph-name="j" unicode="j" horiz-adv-x="228" 
d="M116 591.5q-19 19.5 -19 49.5q0 38 25.5 63.5t62.5 25.5q30 0 48.5 -18.5t18.5 -49.5q0 -38 -25.5 -64t-61.5 -26q-30 0 -49 19.5zM-99 -192l12 96q2 13 13 11q50 -1 73 19t28 65l61 503q1 5 4.5 8.5t8.5 3.5h113q11 0 11 -12l-62 -502q-10 -77 -32 -120.5t-73.5 -64
t-146.5 -19.5q-12 0 -10 12z" />
    <glyph glyph-name="k" unicode="k" horiz-adv-x="476" 
d="M28 3.5q-3 3.5 -2 8.5l83 676q1 5 4.5 8.5t8.5 3.5h113q5 0 8 -3.5t2 -8.5l-41 -334q0 -3 2 -4t4 2l128 155q5 7 14 7h123q9 0 9 -6q0 -5 -4 -9l-134 -164q-3 -3 -1 -7l93 -314l1 -4q0 -10 -11 -10h-120q-5 0 -8 3t-4 7l-52 215q-2 6 -7 1l-54 -66q-3 -3 -3 -6l-18 -142
q0 -5 -4 -8.5t-9 -3.5h-113q-5 0 -8 3.5z" />
    <glyph glyph-name="l" unicode="l" horiz-adv-x="220" 
d="M26 3.5q-3 3.5 -2 8.5l83 676q1 5 4.5 8.5t8.5 3.5h113q11 0 11 -12l-83 -676q-1 -5 -5 -8.5t-9 -3.5h-113q-5 0 -8 3.5z" />
    <glyph glyph-name="m" unicode="m" horiz-adv-x="732" 
d="M686 486q32 -36 32 -103q0 -25 -2 -38l-41 -333q-1 -5 -4.5 -8.5t-8.5 -3.5h-113q-5 0 -8 3.5t-2 8.5l38 313q1 6 1 16q0 28 -13.5 44t-37.5 16q-27 0 -46.5 -20.5t-23.5 -54.5l-38 -314q-1 -5 -5 -8.5t-9 -3.5h-112q-5 0 -8 3.5t-2 8.5l38 313q1 5 1 15q0 28 -14 44.5
t-38 16.5q-27 0 -46.5 -20.5t-23.5 -54.5l-38 -314q-1 -5 -5 -8.5t-9 -3.5h-112q-5 0 -8 3.5t-2 8.5l60 490q1 5 4.5 8.5t8.5 3.5h113q5 0 8 -3.5t2 -8.5l-4 -26q0 -3 2 -4t4 2q23 25 52 36.5t60 11.5q43 0 72 -18.5t43 -53.5q3 -5 8 2q25 37 60 53.5t73 16.5q62 0 94 -36z
" />
    <glyph glyph-name="n" unicode="n" horiz-adv-x="482" 
d="M432 485q34 -37 34 -103q0 -23 -2 -36l-41 -334q0 -5 -4 -8.5t-9 -3.5h-113q-5 0 -8 3.5t-2 8.5l38 314q1 5 1 15q0 28 -14 44t-39 16q-28 0 -47.5 -20.5t-24.5 -55.5l-39 -313q0 -5 -4 -8.5t-9 -3.5h-113q-5 0 -8 3.5t-2 8.5l60 490q1 5 4.5 8.5t8.5 3.5h113
q5 0 8.5 -3.5t2.5 -8.5l-4 -28q0 -3 2 -3.5t5 3.5q41 48 109 48q63 0 97 -37z" />
    <glyph glyph-name="o" unicode="o" horiz-adv-x="488" 
d="M91.5 35.5q-48.5 43.5 -50.5 119.5q-2 49 5 103q7 60 21 103q20 74 79 117.5t143 43.5t131.5 -43.5t49.5 -117.5q3 -39 -5 -103q-7 -54 -20 -102q-20 -77 -78.5 -120.5t-142.5 -43.5t-132.5 43.5zM284 130q20 17 30 46q9 39 14 82q6 44 6 81q-2 29 -18 45.5t-43 16.5
q-26 0 -46 -16.5t-28 -45.5q-7 -25 -15 -81q-6 -43 -6 -82q2 -29 18 -46t43 -17q25 0 45 17z" />
    <glyph glyph-name="p" unicode="p" horiz-adv-x="493" 
d="M471 330q0 -30 -5 -78q-8 -61 -22 -104q-49 -156 -174 -156q-33 0 -56.5 9.5t-38.5 31.5q-2 3 -4 2t-2 -4l-25 -205q-1 -5 -5 -8.5t-9 -3.5h-113q-5 0 -8 3.5t-2 8.5l83 676q1 5 4.5 8.5t8.5 3.5h113q11 0 11 -12l-3 -20q0 -7 6 -3q40 43 108 43q116 0 132 -158
q1 -12 1 -34zM329 257q4 28 4 59q0 18 -1 27q-2 27 -15.5 42.5t-37.5 15.5q-44 0 -64 -58q-12 -29 -19 -86q-4 -29 -4 -62q0 -18 1 -27q3 -26 16 -40.5t35 -14.5q43 0 66 54q12 32 19 90z" />
    <glyph glyph-name="q" unicode="q" horiz-adv-x="493" 
d="M356.5 510.5q3.5 3.5 8.5 3.5h113q5 0 8 -3.5t2 -8.5l-83 -676q0 -5 -4 -8.5t-9 -3.5h-113q-5 0 -8 3.5t-2 8.5l25 206q0 3 -1.5 4t-4.5 -2q-20 -23 -46 -32.5t-60 -9.5q-123 0 -136 156l-1 30q0 27 5 74q7 55 24 112q52 158 171 158q67 0 98 -43q1 -3 3.5 -2t2.5 4l3 21
q1 5 4.5 8.5zM321 257q4 44 4 63q0 81 -52 81q-47 0 -67 -58q-9 -27 -17 -86q-5 -38 -5 -63q0 -38 13.5 -59.5t40.5 -21.5q44 0 64 55q13 37 19 89z" />
    <glyph glyph-name="r" unicode="r" horiz-adv-x="344" 
d="M371 509q7 -6 4 -16l-34 -115q-3 -12 -14 -7q-14 4 -28 4q-13 0 -25 -3q-29 -4 -51.5 -27.5t-26.5 -58.5l-34 -274q0 -5 -4 -8.5t-9 -3.5h-113q-5 0 -8 3.5t-2 8.5l60 490q1 5 4.5 8.5t8.5 3.5h113q5 0 8.5 -3.5t2.5 -8.5l-5 -40q-1 -4 1 -4.5t4 2.5q40 61 102 61
q26 0 46 -12z" />
    <glyph glyph-name="s" unicode="s" horiz-adv-x="443" 
d="M74 29q-48 36 -48 95q0 12 1 18l1 8q1 5 4.5 8.5t8.5 3.5h107q5 0 8 -3.5t2 -8.5v-2q-3 -22 14.5 -36t46.5 -14q27 0 44.5 14t17.5 35q0 17 -15.5 26t-50.5 21q-37 13 -44 16q-50 18 -81.5 47.5t-31.5 83.5q0 14 1 21q9 74 65.5 116.5t141.5 42.5q80 0 126 -38t46 -103
q0 -14 -1 -22q-2 -11 -13 -11h-105q-5 0 -8 3.5t-2 8.5v3q3 21 -12 35t-43 14q-27 0 -45.5 -14.5t-18.5 -34.5t17.5 -30.5t55.5 -22.5l30 -10q59 -20 93.5 -49.5t34.5 -83.5q0 -13 -1 -19q-9 -72 -67 -113t-147 -41q-84 0 -132 36z" />
    <glyph glyph-name="t" unicode="t" horiz-adv-x="325" 
d="M328.5 411.5q-3.5 -3.5 -8.5 -3.5h-75q-5 0 -5 -5l-28 -225q-1 -6 -1 -15q0 -23 10.5 -33t32.5 -9h20q5 0 8 -3.5t2 -8.5l-12 -97q-2 -12 -13 -12q-17 -1 -49 -1q-69 0 -103.5 20.5t-34.5 77.5q0 8 2 26l35 280q0 5 -5 5h-44q-5 0 -8 3.5t-2 8.5l10 82q1 5 4.5 8.5
t8.5 3.5h44q6 0 6 5l14 115q1 5 4.5 8.5t8.5 3.5h108q5 0 8 -3.5t2 -8.5l-14 -115q-2 -5 4 -5h75q5 0 8 -3.5t2 -8.5l-10 -82q-1 -5 -4.5 -8.5z" />
    <glyph glyph-name="u" unicode="u" horiz-adv-x="481" 
d="M347.5 510.5q3.5 3.5 8.5 3.5h114q5 0 8 -3.5t2 -8.5l-60 -490q-1 -5 -5 -8.5t-9 -3.5h-113q-5 0 -8 3.5t-2 8.5l3 25q0 7 -6 2q-39 -46 -109 -46q-60 0 -97 33.5t-37 99.5q0 9 2 29l43 347q1 5 4.5 8.5t8.5 3.5h114q5 0 8 -3.5t2 -8.5l-39 -314q-1 -5 -1 -15
q0 -28 13.5 -44t39.5 -16q29 0 48.5 21t24.5 56l38 312q1 5 4.5 8.5z" />
    <glyph glyph-name="v" unicode="v" horiz-adv-x="463" 
d="M141 3q-3 3 -4 7l-75 492v3q0 10 11 10h124q11 0 11 -11l27 -299q0 -4 2.5 -4t3.5 4l98 299q3 11 14 11l124 -2q12 0 8 -13l-194 -490q-3 -10 -15 -10h-127q-5 0 -8 3z" />
    <glyph glyph-name="w" unicode="w" horiz-adv-x="677" 
d="M122 10l-61 492v2q0 11 12 11h111q12 0 12 -11l23 -279q0 -4 2.5 -4t3.5 4l91 279q3 11 14 11h100q11 0 11 -11l27 -278q0 -4 2.5 -4t3.5 4l92 278q3 11 14 11l112 -2q6 0 8.5 -3.5t0.5 -9.5l-183 -490q-4 -10 -15 -10h-113q-10 0 -11 10l-27 262q-1 4 -3 4t-3 -4
l-87 -261q-1 -5 -5 -8t-9 -3h-111q-11 0 -12 10z" />
    <glyph glyph-name="x" unicode="x" horiz-adv-x="474" 
d="M-1 6q0 4 3 8l163 240q2 4 1 6l-105 240q-1 2 -1 5q0 9 12 9h122q9 0 14 -8l51 -126q3 -4 6 0l82 126q6 8 16 8h126q10 0 10 -6q0 -3 -3 -8l-163 -240q-3 -3 -1 -6l104 -240q1 -2 1 -6q0 -8 -11 -8h-121q-11 0 -14 8l-52 128q-3 5 -6 0l-83 -128q-4 -8 -15 -8h-126
q-10 0 -10 6z" />
    <glyph glyph-name="y" unicode="y" horiz-adv-x="450" 
d="M-5.5 -195.5q-1.5 3.5 -0.5 8.5l11 92q2 12 12 12q55 1 80.5 16.5t38.5 63.5q1 2 0 6l-78 498v2q0 12 11 12h122q10 0 12 -11l24 -311q1 -4 3 -4t3 4l101 311q3 11 14 11l121 -1q5 0 7.5 -3.5t0.5 -9.5l-213 -520q-31 -73 -58.5 -109.5t-73.5 -53.5t-127 -17h-6
q-3 0 -4.5 3.5z" />
    <glyph glyph-name="z" unicode="z" horiz-adv-x="404" 
d="M2 12l14 108q0 7 6 15l215 246q4 6 -2 6h-169q-5 0 -8 3.5t-2 8.5l12 103q1 5 5 8.5t9 3.5h327q11 0 11 -12l-14 -107q0 -7 -6 -15l-222 -246q-2 -2 -1 -4t4 -2h186q5 0 8 -3.5t2 -8.5l-13 -104q-1 -5 -4.5 -8.5t-8.5 -3.5h-338q-11 0 -11 12z" />
    <glyph glyph-name="braceleft" unicode="{" horiz-adv-x="349" 
d="M103 -121.5q-28 25.5 -28 74.5q0 8 2 24l25 207q2 18 2 24q0 59 -48 65q-12 1 -10 13l10 87q2 11 13 13q30 4 47 25.5t22 62.5l25 203q7 60 42.5 91.5t95.5 31.5h85q5 0 8 -3.5t2 -8.5l-11 -97q-1 -5 -5 -8.5t-9 -3.5h-22q-22 0 -37.5 -17t-19.5 -46l-20 -161
q-6 -48 -23 -78t-46 -44q-6 -3 -1 -6q41 -23 41 -89q0 -22 -2 -35l-20 -165q-1 -4 -1 -13q0 -23 11.5 -36.5t31.5 -13.5h22q5 0 8 -3.5t2 -8.5l-12 -98q-1 -5 -4.5 -8.5t-8.5 -3.5h-85q-54 0 -82 25.5z" />
    <glyph glyph-name="bar" unicode="|" horiz-adv-x="189" 
d="M-2 -68l101 816q0 5 4 8.5t9 3.5h113q5 0 8 -3.5t2 -8.5l-100 -816q-1 -5 -4.5 -8.5t-8.5 -3.5h-113q-11 0 -11 12z" />
    <glyph glyph-name="braceright" unicode="}" horiz-adv-x="349" 
d="M4 -147q-5 0 -8 3.5t-2 8.5l12 98q1 5 4.5 8.5t8.5 3.5h23q22 0 37.5 17t19.5 46l20 165q6 48 23 78.5t48 45.5q4 3 0 6q-42 23 -42 88q0 22 2 34l20 161q1 4 1 13q0 23 -11.5 36.5t-31.5 13.5h-22q-5 0 -8 3.5t-2 8.5l11 97q1 5 5 8.5t9 3.5h85q53 0 81.5 -25.5
t28.5 -73.5q0 -8 -2 -24l-25 -203q-2 -16 -2 -23q0 -59 48 -65q11 -1 11 -13l-11 -87q-2 -11 -13 -13q-59 -7 -69 -89l-25 -207q-7 -60 -43 -92t-95 -32h-86z" />
    <glyph glyph-name="asciitilde" unicode="~" horiz-adv-x="497" 
d="M297 208q-17 7 -39 21q-4 3 -18 11.5t-27 13.5t-26 5q-37 0 -66 -36q-8 -10 -17 -4l-58 41q-7 6 -3 16q22 46 64 75t87 29q22 0 39 -6.5t37 -18.5q6 -4 20 -13t26.5 -14t25.5 -5q31 0 59 35q9 10 17 4l63 -44q8 -5 5 -13l-3 -6q-26 -43 -65.5 -70.5t-80.5 -27.5
q-23 0 -40 7z" />
    <glyph glyph-name="uni00A0" unicode="&#xa0;" horiz-adv-x="194" 
 />
    <glyph glyph-name="exclamdown" unicode="&#xa1;" horiz-adv-x="302" 
d="M265 689.5q19 -18.5 19 -48.5q0 -39 -25 -64.5t-62 -25.5q-31 0 -49 18t-18 48q0 39 24.5 65t61.5 26q30 0 49 -18.5zM137.5 465.5q3.5 3.5 8.5 3.5h86q5 0 8 -3.5t2 -8.5l-40 -436q0 -5 -4 -8.5t-9 -3.5h-113q-5 0 -8 3.5t-2 8.5l67 436q1 5 4.5 8.5z" />
    <glyph glyph-name="cent" unicode="&#xa2;" horiz-adv-x="471" 
d="M321 271q2 5 6 8.5t8 2.5l112 -10q9 -2 9 -11q0 -4 -2 -11t-3 -11q-16 -59 -58 -98t-102 -53q-5 -2 -5 -6l-6 -72q-1 -5 -4.5 -8.5t-8.5 -3.5h-96q-5 0 -8 3.5t-2 8.5l12 74q1 5 -3 6q-54 14 -84.5 53t-33.5 98q-3 40 5 108q6 45 21 106q17 56 57 95t96 54q4 1 5 5l7 74
q1 5 4.5 8.5t8.5 3.5h94q5 0 8 -3.5t2 -8.5l-10 -71q-2 -4 3 -6q55 -14 88 -51.5t37 -91.5q1 -4 1 -14t-1 -15q-1 -11 -13 -13l-113 -11h-2q-9 0 -9 11v10q0 4 -2 14q-4 20 -19 33t-39 13q-26 0 -44.5 -16.5t-26.5 -43.5q-9 -29 -16 -83q-5 -43 -5 -67q0 -13 1 -19
q2 -28 16 -43.5t40 -15.5q28 0 47 15.5t25 40.5z" />
    <glyph glyph-name="sterling" unicode="&#xa3;" horiz-adv-x="548" 
d="M230 121h277q5 0 8 -3.5t2 -8.5l-12 -97q-1 -5 -4.5 -8.5t-8.5 -3.5h-417q-5 0 -8 3.5t-2 8.5l12 100q1 9 9 15q21 16 31.5 39t14.5 56l7 60q2 5 -4 5h-56q-5 0 -8 3.5t-2 8.5l11 90q1 5 4.5 8.5t8.5 3.5h56q4 0 6 5l10 84q13 103 74.5 160.5t154.5 57.5q75 0 118.5 -42
t54.5 -119v-2q0 -10 -11 -12l-109 -16h-3q-8 0 -10 9q-8 61 -54 61q-66 0 -78 -92l-11 -89q0 -5 5 -5h152q5 0 8 -3.5t2 -8.5l-11 -90q-1 -5 -4.5 -8.5t-8.5 -3.5h-152q-4 0 -6 -5l-7 -60q-8 -60 -41 -95q-4 -6 2 -6z" />
    <glyph glyph-name="currency" unicode="&#xa4;" horiz-adv-x="553" 
d="M468 200q-2 -5 0 -7l55 -65q3 -3 3 -7q0 -5 -5 -10l-79 -63q-4 -4 -8 -4q-5 0 -8 4l-52 60q-3 3 -6 1q-50 -25 -104 -25q-52 0 -93 23q-4 1 -7 -1l-64 -58q-4 -4 -9 -4q-4 0 -8 4l-63 63q-3 3 -3 7q0 6 6 10l66 61q3 3 2 7q-16 38 -16 80q0 34 10.5 68t29.5 62q1 4 0 7
l-55 65q-4 4 -4 7q0 6 6 10l78 63q4 4 9 4t8 -4l51 -60q1 -3 6 -1q49 26 104 26q58 0 102 -29q3 -2 6 1l69 63q4 4 9 4t8 -4l62 -63q3 -3 3 -7q0 -5 -5 -10l-76 -69q-2 -2 -1 -7q13 -36 13 -72q0 -69 -40 -130zM218 229q25 -26 61 -26q28 0 53.5 15.5t41 41.5t15.5 56
q0 37 -24.5 62.5t-60.5 25.5q-29 0 -54.5 -15.5t-41 -41t-15.5 -55.5q0 -37 25 -63z" />
    <glyph glyph-name="yen" unicode="&#xa5;" horiz-adv-x="590" 
d="M599.5 696q1.5 -4 -1.5 -10l-184 -345q-1 -2 0 -4t3 -2h90q5 0 8 -3.5t2 -8.5l-7 -54q-1 -5 -4.5 -8.5t-8.5 -3.5h-116q-4 0 -6 -5l-5 -44q0 -5 4 -5h117q5 0 8 -3.5t2 -8.5l-7 -54q-1 -5 -4.5 -8.5t-8.5 -3.5h-116q-6 0 -6 -5l-13 -107q-1 -5 -4.5 -8.5t-8.5 -3.5h-114
q-5 0 -8 3.5t-2 8.5l13 107q2 5 -4 5h-116q-5 0 -8 3.5t-2 8.5l6 54q1 5 4.5 8.5t8.5 3.5h117q5 0 5 5l6 44q0 5 -5 5h-116q-5 0 -8 3.5t-2 8.5l6 54q1 5 4.5 8.5t8.5 3.5h91q2 0 3.5 2t0.5 4l-99 345l-1 4q0 10 11 10h123q11 0 12 -10l59 -253q1 -3 3 -3t3 3l121 253
q4 10 15 10h122q7 0 8.5 -4z" />
    <glyph glyph-name="brokenbar" unicode="&#xa6;" horiz-adv-x="189" 
d="M59 397.5q-3 3.5 -2 8.5l42 342q0 5 4 8.5t9 3.5h113q5 0 8 -3.5t2 -8.5l-42 -342q0 -5 -4 -8.5t-9 -3.5h-113q-5 0 -8 3.5zM-2 -68l42 341q1 5 4.5 8.5t8.5 3.5h114q5 0 8 -3.5t2 -8.5l-42 -341q-1 -5 -4.5 -8.5t-8.5 -3.5h-113q-11 0 -11 12z" />
    <glyph glyph-name="section" unicode="&#xa7;" horiz-adv-x="452" 
d="M56.5 -166q-44.5 39 -44.5 105q0 14 1 22l2 27q1 5 4.5 8.5t8.5 3.5h114q5 0 8 -3.5t2 -8.5l-1 -10q-1 -4 -1 -12q0 -23 12.5 -37t34.5 -14q26 0 44 19t18 46t-24 45t-77 43q-43 21 -68 42.5t-38 52.5q-10 23 -10 54q0 71 40 122q24 30 62 48q5 3 1 7q-67 48 -67 121
q0 53 28 97t77.5 70t110.5 26q76 0 122.5 -41t46.5 -108q0 -8 -2 -24l-2 -18q-1 -5 -4.5 -8.5t-8.5 -3.5h-113q-11 0 -11 12l1 7q1 4 1 11q0 23 -12.5 37.5t-34.5 14.5q-26 0 -44 -20t-18 -49q0 -27 21 -44t65 -37q42 -19 68 -36t43 -41q23 -33 23 -77q0 -63 -36 -113
q-24 -40 -67 -59q-3 -1 -3.5 -2.5t1.5 -3.5q33 -24 49.5 -52t16.5 -65q0 -58 -29 -101.5t-78.5 -67.5t-109.5 -24q-78 0 -122.5 39zM281 211q7 9 11.5 23t4.5 28q0 20 -9 33q-13 21 -42 21q-16 0 -29 -7.5t-21 -19.5q-12 -14 -15 -39q-1 -4 -1 -13q0 -16 7 -27
q5 -12 16.5 -18.5t26.5 -6.5q33 0 51 26z" />
    <glyph glyph-name="dieresis" unicode="&#xa8;" horiz-adv-x="370" 
d="M280 594.5q-19 19.5 -19 49.5q0 38 25.5 63.5t62.5 25.5q31 0 49.5 -18.5t18.5 -49.5q0 -38 -26 -64t-62 -26q-30 0 -49 19.5zM94 594.5q-19 19.5 -19 49.5q0 38 25.5 63.5t62.5 25.5q31 0 49.5 -18.5t18.5 -49.5q0 -38 -26 -64t-62 -26q-30 0 -49 19.5z" />
    <glyph glyph-name="copyright" unicode="&#xa9;" horiz-adv-x="780" 
d="M208 31.5q-70 39.5 -108.5 109.5t-38.5 160q0 25 3 52q12 100 67.5 181t141 127.5t184.5 46.5q91 0 161.5 -39.5t109.5 -109t39 -157.5q0 -23 -3 -49q-12 -103 -68 -185t-141.5 -129t-185.5 -47q-91 0 -161 39.5zM519.5 113.5q65.5 35.5 107.5 98.5t52 141q2 24 2 36
q0 67 -29.5 120t-83 83t-122.5 30q-75 0 -139.5 -35t-106.5 -96.5t-51 -137.5q-2 -13 -2 -39q0 -68 29 -122t82 -84t121 -30q75 0 140.5 35.5zM322.5 201.5q-25.5 24.5 -25.5 65.5q0 10 1 15l17 137q6 48 39 76t82 28q44 0 70.5 -23t26.5 -62q0 -11 -1 -16q-2 -10 -13 -10
l-49 -2q-11 0 -10 11v2q2 16 -6.5 26.5t-25.5 10.5q-16 0 -27 -10.5t-12 -26.5l-18 -146q-2 -16 6 -26t24 -10q17 0 28.5 10t12.5 26l1 2q0 5 4 8.5t9 3.5l48 -2q11 0 10 -10q-5 -46 -38.5 -74t-82.5 -28q-45 0 -70.5 24.5z" />
    <glyph glyph-name="ordfeminine" unicode="&#xaa;" horiz-adv-x="302" 
d="M238 566q4 0 6 5l2 15q2 22 -8.5 36t-32.5 14q-15 0 -27.5 -7.5t-18.5 -19.5q-5 -11 -14 -10l-58 4q-11 2 -10 13q10 41 47.5 66.5t88.5 25.5q53 0 84.5 -26.5t31.5 -70.5q0 -9 -1 -14l-27 -221q-1 -5 -4.5 -8.5t-8.5 -3.5h-58q-5 0 -8 3.5t-2 8.5v3q1 3 -1 4t-4 -1
q-26 -23 -70 -23q-41 0 -68.5 19.5t-27.5 62.5q0 64 39.5 94.5t107.5 30.5h42zM211.5 439.5q17.5 13.5 20.5 34.5l3 22q0 5 -5 5h-38q-27 0 -43.5 -11.5t-16.5 -33.5q0 -30 37 -30q25 0 42.5 13.5zM34.5 309.5q3.5 3.5 8.5 3.5h247q5 0 8 -3.5t2 -8.5l-6 -49
q-1 -5 -4.5 -8.5t-8.5 -3.5h-247q-5 0 -8 3.5t-2 8.5l6 49q1 5 4.5 8.5z" />
    <glyph glyph-name="guillemotleft" unicode="&#xab;" horiz-adv-x="469" 
d="M249 116q0 -9 -12 -9h-94q-10 0 -13 8l-66 158q-2 4 -2 6q0 4 4 10l104 158q6 8 16 8h94q10 0 10 -6q0 -3 -3 -8l-108 -157q-1 -3 0 -6l69 -157q1 -2 1 -5zM411 116q0 -9 -12 -9h-94q-10 0 -13 8l-66 158q-2 4 -2 6q0 4 4 10l104 158q6 8 16 8h94q10 0 10 -6q0 -3 -3 -8
l-109 -157q-1 -3 0 -6l70 -157q1 -2 1 -5z" />
    <glyph glyph-name="logicalnot" unicode="&#xac;" horiz-adv-x="448" 
d="M444 357.5q3 -3.5 2 -8.5l-11 -94l-1 -7h-1l-11 -90q-1 -5 -4.5 -8.5t-8.5 -3.5h-86q-5 0 -8.5 3.5t-2.5 8.5l11 85q0 5 -4 5h-271q-5 0 -8 3.5t-2 8.5l11 89q1 5 4.5 8.5t8.5 3.5h374q5 0 8 -3.5z" />
    <glyph glyph-name="uni00AD" unicode="&#xad;" horiz-adv-x="359" 
d="M38 238.5q-3 3.5 -2 8.5l12 97q1 5 4.5 8.5t8.5 3.5h285q11 0 11 -12l-12 -97q-1 -5 -5 -8.5t-9 -3.5h-285q-5 0 -8 3.5z" />
    <glyph glyph-name="registered" unicode="&#xae;" horiz-adv-x="426" 
d="M372 688q40 -22 62 -61t22 -88q0 -9 -2 -27q-7 -58 -38.5 -105t-80 -73.5t-103.5 -26.5q-51 0 -90.5 22.5t-62 62.5t-22.5 90q0 62 30.5 114.5t82 83t111.5 30.5q51 0 91 -22zM344 407.5q45 41.5 53 104.5q1 6 1 18q0 53 -34.5 87.5t-89.5 34.5q-42 0 -78.5 -21.5
t-58 -58.5t-21.5 -81q0 -56 34 -90.5t89 -34.5q60 0 105 41.5zM322.5 519.5q-8.5 -14.5 -21.5 -22.5q-5 -2 -3 -6l12 -59v-3q0 -5 -3 -8t-8 -3h-24q-9 0 -11 10l-12 56q0 4 -4 4h-2q-5 0 -5 -5l-7 -53q-1 -5 -4.5 -8.5t-8.5 -3.5h-22q-5 0 -8 3.5t-2 8.5l19 161q1 5 4.5 8.5
t8.5 3.5h59q23 0 37 -14.5t14 -36.5q0 -18 -8.5 -32.5zM250 558l-4 -30q0 -5 4 -5h13q8 0 14 6t7 14v3q0 8 -4.5 12.5t-11.5 4.5h-13q-5 0 -5 -5z" />
    <glyph glyph-name="macron" unicode="&#xaf;" horiz-adv-x="305" 
d="M81 592l9 71q1 5 4.5 8.5t8.5 3.5h226q5 0 8 -3.5t2 -8.5l-8 -71q-1 -5 -4.5 -8.5t-8.5 -3.5h-226q-11 0 -11 12z" />
    <glyph glyph-name="degree" unicode="&#xb0;" horiz-adv-x="356" 
d="M114 512.5q-40 41.5 -40 104.5q0 51 25.5 95t67.5 70t90 26q63 0 103.5 -42t40.5 -105q0 -51 -25.5 -94.5t-68.5 -69.5t-91 -26q-62 0 -102 41.5zM287 589q25 26 25 63q0 29 -18.5 48t-47.5 19q-33 0 -58.5 -26t-25.5 -63q0 -29 18.5 -48t46.5 -19q35 0 60 26z" />
    <glyph glyph-name="plusminus" unicode="&#xb1;" horiz-adv-x="448" 
d="M455 444.5q3 -3.5 2 -8.5l-10 -89q-1 -5 -5 -8.5t-9 -3.5h-127q-5 0 -5 -5l-16 -130q-1 -5 -4.5 -8.5t-8.5 -3.5h-87q-11 0 -11 12l16 130q2 5 -4 5h-127q-5 0 -8 3.5t-2 8.5l11 89q1 5 4.5 8.5t8.5 3.5h127q5 0 5 5l17 132q1 5 4.5 8.5t8.5 3.5h87q5 0 8 -3.5t2 -8.5
l-16 -132q0 -5 4 -5h127q5 0 8 -3.5zM10 8.5q-3 3.5 -2 8.5l11 89q1 5 4.5 8.5t8.5 3.5h374q5 0 8 -3.5t2 -8.5l-11 -89q0 -5 -4 -8.5t-9 -3.5h-374q-5 0 -8 3.5z" />
    <glyph glyph-name="uni00B2" unicode="&#xb2;" horiz-adv-x="295" 
d="M55 428l7 57q1 8 8 15l27 27q73 75 104 109q50 56 52 85l1 9q0 15 -9.5 24t-23.5 9q-17 0 -29 -11t-14 -30l-2 -15q-1 -5 -4.5 -8.5t-8.5 -3.5h-66q-5 0 -8 3.5t-2 8.5l3 24q9 51 47.5 80.5t93.5 29.5q52 0 82 -26.5t30 -74.5q0 -34 -13 -63.5t-39 -63.5
q-34 -42 -104 -113q-2 -2 -1 -4t4 -2h119q5 0 8 -3.5t2 -8.5l-7 -54q0 -5 -4 -8.5t-9 -3.5h-233q-11 0 -11 12z" />
    <glyph glyph-name="uni00B3" unicode="&#xb3;" horiz-adv-x="294" 
d="M325 577q0 -8 -2 -26q-4 -28 -12 -51q-17 -43 -50 -66.5t-80 -23.5t-76.5 25.5t-32.5 68.5q-2 11 -2 36q2 12 13 12h65q11 0 11 -12q0 -13 1 -19q2 -15 10 -23.5t21 -8.5q24 0 36 25q8 17 11 43q2 16 2 23q0 14 -3 24q-6 23 -29 23q-11 0 -21 -7q-3 -2 -8 -2t-9 4l-26 37
q-3 3 -3 8t5 9l87 76q2 2 1.5 4t-3.5 2h-114q-5 0 -8 3.5t-2 8.5l7 53q0 5 4 8.5t9 3.5h215q5 0 8 -3.5t2 -8.5l-7 -56q0 -8 -7 -15l-68 -65q-5 -5 0 -6q20 -7 33 -25t18 -44q4 -22 4 -35z" />
    <glyph glyph-name="acute" unicode="&#xb4;" horiz-adv-x="219" 
d="M74 580q-2 4 2 10l68 102q6 8 16 8h93q9 0 9 -7q0 -3 -3 -8l-85 -102q-5 -7 -14 -7h-78q-6 0 -8 4z" />
    <glyph glyph-name="uni00B5" unicode="&#xb5;" horiz-adv-x="486" 
d="M351.5 510.5q3.5 3.5 8.5 3.5h113q11 0 11 -12l-61 -490q0 -5 -4 -8.5t-9 -3.5h-113q-5 0 -8 3.5t-2 8.5l3 25q0 3 -2 3.5t-4 -1.5q-39 -46 -109 -46h-10q-5 2 -5 -4l-22 -177q-1 -5 -4.5 -8.5t-8.5 -3.5h-114q-5 0 -8 3.5t-2 8.5l85 690q1 5 4.5 8.5t8.5 3.5h113
q5 0 8.5 -3.5t2.5 -8.5l-39 -314q-1 -6 -1 -16q0 -28 14 -43.5t39 -15.5q29 0 48.5 21t24.5 56l38 312q1 5 4.5 8.5z" />
    <glyph glyph-name="paragraph" unicode="&#xb6;" horiz-adv-x="552" 
d="M559 700q5 0 8 -3.5t2 -8.5l-107 -876q-1 -5 -4.5 -8.5t-8.5 -3.5h-84q-5 0 -8 3.5t-2 8.5l95 776q2 5 -4 5h-70q-2 0 -3.5 -1.5t-1.5 -3.5l-95 -776q-1 -5 -4.5 -8.5t-8.5 -3.5h-85q-5 0 -8 3.5t-2 8.5l53 434q1 4 -4 6q-74 10 -116 60t-42 128q0 11 2 35q8 65 40.5 116
t84.5 80t117 29h256z" />
    <glyph glyph-name="periodcentered" unicode="&#xb7;" horiz-adv-x="223" 
d="M69 230.5q-19 19.5 -19 49.5q0 38 25.5 63.5t62.5 25.5q31 0 49.5 -18.5t18.5 -49.5q0 -38 -26 -64t-62 -26q-30 0 -49 19.5z" />
    <glyph glyph-name="cedilla" unicode="&#xb8;" horiz-adv-x="156" 
d="M-36 -168l13 48q2 11 15 8q8 -2 12 -2q13 0 23.5 9.5t10.5 27.5q0 30 -34 62q-4 4 -4 8q0 7 11 7h62q7 0 11 -4q3 -1 4 -4q36 -37 36 -83q0 -20 -7 -38q-12 -34 -37.5 -48.5t-56.5 -14.5q-29 0 -52 9q-10 3 -7 15z" />
    <glyph glyph-name="uni00B9" unicode="&#xb9;" horiz-adv-x="170" 
d="M149 836h69q5 0 8 -3.5t2 -8.5l-48 -396q-1 -5 -5 -8.5t-9 -3.5h-65q-5 0 -8 3.5t-2 8.5l40 323q0 4 -4 4l-24 -2h-2q-11 0 -9 12l5 43q2 10 11 14l26 11q7 3 15 3z" />
    <glyph glyph-name="ordmasculine" unicode="&#xba;" horiz-adv-x="316" 
d="M99.5 387.5q-30.5 27.5 -32.5 76.5q-2 14 -2 25q0 6 3 45q6 41 15 71q14 48 52 75.5t91 27.5q51 0 81 -27t33 -75q2 -42 -2 -71q-2 -27 -15 -71q-15 -49 -52 -76.5t-88 -27.5q-53 0 -83.5 27.5zM220 448.5q13 10.5 19 29.5q8 27 11 56q3 24 3 46q0 24 -10 37.5t-28 13.5
q-16 0 -29 -11t-18 -30q-8 -28 -11 -56q-5 -29 -3 -56q1 -19 11 -29.5t27 -10.5q15 0 28 10.5zM34 243.5q-3 3.5 -2 8.5l6 50q1 5 4.5 8.5t8.5 3.5h253q11 0 11 -12l-7 -50q0 -5 -4 -8.5t-9 -3.5h-253q-5 0 -8 3.5z" />
    <glyph glyph-name="guillemotright" unicode="&#xbb;" horiz-adv-x="469" 
d="M52 113q0 4 3 8l107 157q2 4 1 6l-69 157q-1 2 -1 5q0 9 11 9h93q11 0 14 -8l66 -158q1 -2 1 -7q0 -4 -3 -9l-105 -158q-5 -8 -15 -8h-93q-10 0 -10 6zM214 113q0 4 3 8l107 157q2 4 1 6l-69 157q-1 2 -1 5q0 9 11 9h93q11 0 14 -8l66 -158q1 -2 1 -7q0 -4 -3 -9
l-105 -158q-5 -8 -15 -8h-93q-10 0 -10 6z" />
    <glyph glyph-name="onequarter" unicode="&#xbc;" horiz-adv-x="748" 
d="M132 700h69q5 0 8 -3.5t2 -8.5l-48 -396q-1 -5 -5 -8.5t-9 -3.5h-65q-5 0 -8 3.5t-2 8.5l40 323q0 4 -4 4l-24 -2h-2q-11 0 -9 12l5 43q2 10 11 14l26 11q7 3 15 3zM61 6q0 4 3 8l473 678q4 8 14 8h74q9 0 9 -6q0 -3 -3 -8l-472 -678q-5 -8 -15 -8h-74q-9 0 -9 6z
M730 183.5q3 -3.5 2 -8.5l-7 -58q-1 -5 -5 -8.5t-9 -3.5h-14q-4 0 -6 -5l-10 -88q-1 -5 -5 -8.5t-9 -3.5h-64q-5 0 -8.5 3.5t-2.5 8.5l11 88q2 5 -4 5h-156q-5 0 -8 3.5t-2 8.5l5 46q2 8 5 15l115 233q5 9 15 9h68q14 0 8 -14l-103 -213q-3 -6 3 -6h60q5 0 5 5l8 58
q0 5 4 8.5t9 3.5h65q5 0 8 -3.5t2 -8.5l-7 -58q-2 -5 4 -5h15q5 0 8 -3.5z" />
    <glyph glyph-name="onehalf" unicode="&#xbd;" horiz-adv-x="724" 
d="M132 700h69q5 0 8 -3.5t2 -8.5l-48 -396q-1 -5 -5 -8.5t-9 -3.5h-65q-5 0 -8 3.5t-2 8.5l40 323q0 4 -4 4l-24 -2h-2q-11 0 -9 12l5 43q2 10 11 14l26 11q7 3 15 3zM61 6q0 4 3 8l473 678q4 8 14 8h74q9 0 9 -6q0 -3 -3 -8l-472 -678q-5 -8 -15 -8h-74q-9 0 -9 6zM430 12
l7 57q1 8 8 15l27 27q73 75 104 109q50 56 52 85l1 9q0 15 -9.5 24t-23.5 9q-17 0 -29 -11t-14 -30l-2 -15q-1 -5 -4.5 -8.5t-8.5 -3.5h-66q-5 0 -8 3.5t-2 8.5l3 24q9 51 47.5 80.5t93.5 29.5q52 0 82 -26.5t30 -74.5q0 -34 -13 -63.5t-39 -63.5q-34 -42 -104 -113
q-2 -2 -1 -4t4 -2h119q5 0 8 -3.5t2 -8.5l-7 -54q0 -5 -4 -8.5t-9 -3.5h-233q-11 0 -11 12z" />
    <glyph glyph-name="threequarters" unicode="&#xbe;" horiz-adv-x="829" 
d="M309 443q0 -8 -2 -26q-4 -28 -12 -51q-17 -43 -50 -66.5t-80 -23.5t-76.5 25.5t-32.5 68.5q-2 11 -2 36q2 12 13 12h65q11 0 11 -12q0 -13 1 -19q2 -15 10 -23.5t21 -8.5q24 0 36 25q8 17 11 43q2 16 2 23q0 14 -3 24q-6 23 -29 23q-11 0 -21 -7q-3 -2 -8 -2t-9 4l-26 37
q-3 3 -3 8t5 9l87 76q2 2 1.5 4t-3.5 2h-114q-5 0 -8 3.5t-2 8.5l7 53q0 5 4 8.5t9 3.5h215q5 0 8 -3.5t2 -8.5l-7 -56q0 -8 -7 -15l-68 -65q-5 -5 0 -6q20 -7 33 -25t18 -44q4 -22 4 -35zM143 6q0 4 3 8l473 678q4 8 14 8h74q9 0 9 -6q0 -3 -3 -8l-472 -678q-5 -8 -15 -8
h-74q-9 0 -9 6zM812 183.5q3 -3.5 2 -8.5l-7 -58q-1 -5 -5 -8.5t-9 -3.5h-14q-4 0 -6 -5l-10 -88q-1 -5 -5 -8.5t-9 -3.5h-64q-5 0 -8.5 3.5t-2.5 8.5l11 88q2 5 -4 5h-156q-5 0 -8 3.5t-2 8.5l5 46q2 8 5 15l115 233q5 9 15 9h68q14 0 8 -14l-103 -213q-3 -6 3 -6h60
q5 0 5 5l8 58q0 5 4 8.5t9 3.5h65q5 0 8 -3.5t2 -8.5l-7 -58q-2 -5 4 -5h15q5 0 8 -3.5z" />
    <glyph glyph-name="questiondown" unicode="&#xbf;" horiz-adv-x="465" 
d="M340.5 483.5q18.5 -18.5 18.5 -48.5q0 -39 -25 -64.5t-62 -25.5q-30 0 -48.5 18.5t-18.5 48.5q0 38 25.5 64t61.5 26q30 0 48.5 -18.5zM327 274.5q3 -3.5 2 -8.5l-3 -32q-7 -50 -33.5 -81t-72.5 -64q-38 -28 -57 -48.5t-23 -50.5q-4 -32 13 -51.5t49 -19.5q34 0 57 21
t27 54l2 16q1 11 13 11l113 -5q5 0 8 -3.5t2 -8.5l-1 -10q-7 -60 -40 -106.5t-85 -72t-115 -25.5q-85 0 -134 45t-49 121q0 9 2 29q5 44 22.5 75.5t39 51.5t54.5 44q35 25 52 43t20 44l3 23q1 5 4.5 8.5t8.5 3.5h113q5 0 8 -3.5z" />
    <glyph glyph-name="Agrave" unicode="&#xc0;" horiz-adv-x="559" 
d="M379 10l-11 98q0 4 -4 4h-181q-3 0 -6 -4l-34 -98q-4 -10 -14 -10h-117q-14 0 -8 13l257 677q4 10 15 10h141q11 0 12 -10l92 -677q0 -13 -12 -13h-118q-11 0 -12 10zM222 221h128q6 0 6 6l-32 290q0 4 -2 4t-3 -4l-101 -290q-1 -6 4 -6zM402 770q0 -8 -10 -8h-78
q-8 0 -13 7l-59 102q-2 4 -2 6q0 4 3.5 6.5t8.5 2.5h93q10 0 13 -8l43 -102q1 -2 1 -6z" />
    <glyph glyph-name="Aacute" unicode="&#xc1;" horiz-adv-x="559" 
d="M379 10l-11 98q0 4 -4 4h-181q-3 0 -6 -4l-34 -98q-4 -10 -14 -10h-117q-14 0 -8 13l257 677q4 10 15 10h141q11 0 12 -10l92 -677q0 -13 -12 -13h-118q-11 0 -12 10zM222 221h128q6 0 6 6l-32 290q0 4 -2 4t-3 -4l-101 -290q-1 -6 4 -6zM291 766q-2 4 2 10l68 102
q6 8 16 8h93q9 0 9 -7q0 -3 -3 -8l-85 -102q-5 -7 -14 -7h-78q-6 0 -8 4z" />
    <glyph glyph-name="Acircumflex" unicode="&#xc2;" horiz-adv-x="559" 
d="M379 10l-11 98q0 4 -4 4h-181q-3 0 -6 -4l-34 -98q-4 -10 -14 -10h-117q-14 0 -8 13l257 677q4 10 15 10h141q11 0 12 -10l92 -677q0 -13 -12 -13h-118q-11 0 -12 10zM222 221h128q6 0 6 6l-32 290q0 4 -2 4t-3 -4l-101 -290q-1 -6 4 -6zM206 766q0 4 3 8l80 104
q5 8 14 8h127q10 0 13 -8l55 -104q1 -2 1 -6t-3 -6.5t-7 -2.5h-85q-10 0 -13 8l-27 59q-3 6 -6 0l-41 -59q-5 -8 -16 -8h-86q-9 0 -9 7z" />
    <glyph glyph-name="Atilde" unicode="&#xc3;" horiz-adv-x="559" 
d="M379 10l-11 98q0 4 -4 4h-181q-3 0 -6 -4l-34 -98q-4 -10 -14 -10h-117q-14 0 -8 13l257 677q4 10 15 10h141q11 0 12 -10l92 -677q0 -13 -12 -13h-118q-11 0 -12 10zM222 221h128q6 0 6 6l-32 290q0 4 -2 4t-3 -4l-101 -290q-1 -6 4 -6zM388 770.5q-12 4.5 -29 13.5
q-4 3 -13 8t-15.5 7t-13.5 2q-14 0 -24.5 -5t-21.5 -17q-9 -11 -16 -2l-36 36q-4 6 -4 9q0 4 3 8q18 31 45 48t57 17q17 0 31 -5.5t33 -16.5q3 -2 11 -7.5t15.5 -8t14.5 -2.5q27 0 44 21q9 12 16 3l34 -35q4 -6 4 -9q0 -4 -3 -9q-19 -30 -46.5 -45t-57.5 -15q-16 0 -28 4.5z
" />
    <glyph glyph-name="Adieresis" unicode="&#xc4;" horiz-adv-x="559" 
d="M379 10l-11 98q0 4 -4 4h-181q-3 0 -6 -4l-34 -98q-4 -10 -14 -10h-117q-14 0 -8 13l257 677q4 10 15 10h141q11 0 12 -10l92 -677q0 -13 -12 -13h-118q-11 0 -12 10zM222 221h128q6 0 6 6l-32 290q0 4 -2 4t-3 -4l-101 -290q-1 -6 4 -6zM396 780.5q-19 19.5 -19 49.5
q0 38 25.5 63.5t62.5 25.5q31 0 49.5 -18.5t18.5 -49.5q0 -38 -26 -64t-62 -26q-30 0 -49 19.5zM210 780.5q-19 19.5 -19 49.5q0 38 25.5 63.5t62.5 25.5q31 0 49.5 -18.5t18.5 -49.5q0 -38 -26 -64t-62 -26q-30 0 -49 19.5z" />
    <glyph glyph-name="Aring" unicode="&#xc5;" horiz-adv-x="559" 
d="M379 10l-11 98q0 4 -4 4h-181q-3 0 -6 -4l-34 -98q-4 -10 -14 -10h-117q-14 0 -8 13l257 677q4 10 15 10h141q11 0 12 -10l92 -677q0 -13 -12 -13h-118q-11 0 -12 10zM222 221h128q6 0 6 6l-32 290q0 4 -2 4t-3 -4l-101 -290q-1 -6 4 -6zM275 779.5q-30 30.5 -30 77.5
q0 38 19 70t50.5 51t67.5 19q46 0 76 -30t30 -77q0 -38 -18.5 -70.5t-50 -51.5t-67.5 -19q-47 0 -77 30.5zM399 840q17 17 17 40q0 19 -12.5 31.5t-30.5 12.5q-22 0 -38.5 -16.5t-16.5 -40.5q0 -19 12 -31.5t31 -12.5q21 0 38 17z" />
    <glyph glyph-name="AE" unicode="&#xc6;" horiz-adv-x="832" 
d="M849 582.5q-4 -3.5 -9 -3.5h-255q-5 0 -5 -5l-19 -156q-2 -5 4 -5h157q5 0 8 -3.5t2 -8.5l-12 -97q-1 -5 -4.5 -8.5t-8.5 -3.5h-157q-4 0 -6 -5l-19 -161q-2 -5 4 -5h255q5 0 8 -3.5t2 -8.5l-12 -97q-1 -5 -4.5 -8.5t-8.5 -3.5h-385q-5 0 -8 3.5t-2 8.5l12 95q0 5 -5 5
h-170q-3 0 -7 -4l-54 -99q-5 -9 -15 -9h-121q-7 0 -9.5 3.5t1.5 10.5l385 677q5 9 15 9h449q5 0 8 -3.5t2 -8.5l-12 -97q0 -5 -4 -8.5zM270 223q1 -2 3 -2h122q5 0 5 5l36 291q1 4 -1.5 4t-4.5 -3l-160 -291q-1 -2 0 -4z" />
    <glyph glyph-name="Ccedilla" unicode="&#xc7;" horiz-adv-x="520" 
d="M520.5 480q-3.5 -3 -8.5 -3l-115 -5q-11 0 -10 11l2 13q1 5 1 15q0 35 -20 55.5t-55 20.5q-39 0 -65.5 -25t-31.5 -66l-36 -293q-1 -5 -1 -15q0 -34 20.5 -54.5t54.5 -20.5q39 0 65.5 24.5t31.5 65.5l1 13q1 11 13 11l113 -5q5 0 8 -3.5t2 -8.5v-3q-10 -87 -66 -143.5
t-140 -68.5q-7 -2 -3 -6q29 -38 29 -75q0 -16 -7 -37q-23 -62 -96 -62q-25 0 -51 8q-10 4 -7 15l13 48q2 11 15 8q8 -2 12 -2q10 0 19 6t13 18q2 8 2 13q0 32 -38 67l-6 3q-64 17 -99.5 63.5t-35.5 116.5q0 11 2 33l35 278q8 65 41.5 114.5t87 76.5t119.5 27q91 0 144.5 -49
t53.5 -132q0 -10 -2 -32l-1 -8q0 -4 -3.5 -7z" />
    <glyph glyph-name="Egrave" unicode="&#xc8;" horiz-adv-x="496" 
d="M513.5 582.5q-3.5 -3.5 -8.5 -3.5h-260q-4 0 -6 -5l-19 -156q0 -5 4 -5h162q5 0 8 -3.5t2 -8.5l-11 -97q-1 -5 -5 -8.5t-9 -3.5h-162q-2 0 -3.5 -1.5t-1.5 -3.5l-20 -161q0 -5 4 -5h260q11 0 11 -12l-12 -97q-1 -5 -4.5 -8.5t-8.5 -3.5h-390q-11 0 -11 12l83 676
q1 5 5 8.5t9 3.5h390q5 0 8 -3.5t2 -8.5l-12 -97q-1 -5 -4.5 -8.5zM380 770q0 -8 -10 -8h-78q-8 0 -13 7l-59 102q-2 4 -2 6q0 4 3.5 6.5t8.5 2.5h93q10 0 13 -8l43 -102q1 -2 1 -6z" />
    <glyph glyph-name="Eacute" unicode="&#xc9;" horiz-adv-x="496" 
d="M513.5 582.5q-3.5 -3.5 -8.5 -3.5h-260q-4 0 -6 -5l-19 -156q0 -5 4 -5h162q5 0 8 -3.5t2 -8.5l-11 -97q-1 -5 -5 -8.5t-9 -3.5h-162q-2 0 -3.5 -1.5t-1.5 -3.5l-20 -161q0 -5 4 -5h260q11 0 11 -12l-12 -97q-1 -5 -4.5 -8.5t-8.5 -3.5h-390q-11 0 -11 12l83 676
q1 5 5 8.5t9 3.5h390q5 0 8 -3.5t2 -8.5l-12 -97q-1 -5 -4.5 -8.5zM268 766q-2 4 2 10l68 102q6 8 16 8h93q9 0 9 -7q0 -3 -3 -8l-85 -102q-5 -7 -14 -7h-78q-6 0 -8 4z" />
    <glyph glyph-name="Ecircumflex" unicode="&#xca;" horiz-adv-x="496" 
d="M513.5 582.5q-3.5 -3.5 -8.5 -3.5h-260q-4 0 -6 -5l-19 -156q0 -5 4 -5h162q5 0 8 -3.5t2 -8.5l-11 -97q-1 -5 -5 -8.5t-9 -3.5h-162q-2 0 -3.5 -1.5t-1.5 -3.5l-20 -161q0 -5 4 -5h260q11 0 11 -12l-12 -97q-1 -5 -4.5 -8.5t-8.5 -3.5h-390q-11 0 -11 12l83 676
q1 5 5 8.5t9 3.5h390q5 0 8 -3.5t2 -8.5l-12 -97q-1 -5 -4.5 -8.5zM184 766q0 4 3 8l80 104q5 8 14 8h127q10 0 13 -8l55 -104q1 -2 1 -6t-3 -6.5t-7 -2.5h-85q-10 0 -13 8l-27 59q-3 6 -6 0l-41 -59q-5 -8 -16 -8h-86q-9 0 -9 7z" />
    <glyph glyph-name="Edieresis" unicode="&#xcb;" horiz-adv-x="496" 
d="M513.5 582.5q-3.5 -3.5 -8.5 -3.5h-260q-4 0 -6 -5l-19 -156q0 -5 4 -5h162q5 0 8 -3.5t2 -8.5l-11 -97q-1 -5 -5 -8.5t-9 -3.5h-162q-2 0 -3.5 -1.5t-1.5 -3.5l-20 -161q0 -5 4 -5h260q11 0 11 -12l-12 -97q-1 -5 -4.5 -8.5t-8.5 -3.5h-390q-11 0 -11 12l83 676
q1 5 5 8.5t9 3.5h390q5 0 8 -3.5t2 -8.5l-12 -97q-1 -5 -4.5 -8.5zM374 780.5q-19 19.5 -19 49.5q0 38 25.5 63.5t62.5 25.5q31 0 49.5 -18.5t18.5 -49.5q0 -38 -26 -64t-62 -26q-30 0 -49 19.5zM188 780.5q-19 19.5 -19 49.5q0 38 25.5 63.5t62.5 25.5q31 0 49.5 -18.5
t18.5 -49.5q0 -38 -26 -64t-62 -26q-30 0 -49 19.5z" />
    <glyph glyph-name="Igrave" unicode="&#xcc;" horiz-adv-x="239" 
d="M33 12l83 676q1 5 5 8.5t9 3.5h113q5 0 8 -3.5t2 -8.5l-83 -676q-1 -5 -4.5 -8.5t-8.5 -3.5h-113q-11 0 -11 12zM242 770q0 -8 -10 -8h-78q-8 0 -13 7l-59 102q-2 4 -2 6q0 4 3.5 6.5t8.5 2.5h93q10 0 13 -8l43 -102q1 -2 1 -6z" />
    <glyph glyph-name="Iacute" unicode="&#xcd;" horiz-adv-x="239" 
d="M33 12l83 676q1 5 5 8.5t9 3.5h113q5 0 8 -3.5t2 -8.5l-83 -676q-1 -5 -4.5 -8.5t-8.5 -3.5h-113q-11 0 -11 12zM131 766q-2 4 2 10l68 102q6 8 16 8h93q9 0 9 -7q0 -3 -3 -8l-85 -102q-5 -7 -14 -7h-78q-6 0 -8 4z" />
    <glyph glyph-name="Icircumflex" unicode="&#xce;" horiz-adv-x="239" 
d="M33 12l83 676q1 5 5 8.5t9 3.5h113q5 0 8 -3.5t2 -8.5l-83 -676q-1 -5 -4.5 -8.5t-8.5 -3.5h-113q-11 0 -11 12zM46 766q0 4 3 8l80 104q5 8 14 8h127q10 0 13 -8l55 -104q1 -2 1 -6t-3 -6.5t-7 -2.5h-85q-10 0 -13 8l-27 59q-3 6 -6 0l-41 -59q-5 -8 -16 -8h-86
q-9 0 -9 7z" />
    <glyph glyph-name="Idieresis" unicode="&#xcf;" horiz-adv-x="239" 
d="M33 12l83 676q1 5 5 8.5t9 3.5h113q5 0 8 -3.5t2 -8.5l-83 -676q-1 -5 -4.5 -8.5t-8.5 -3.5h-113q-11 0 -11 12zM237 780.5q-19 19.5 -19 49.5q0 38 25.5 63.5t62.5 25.5q31 0 49.5 -18.5t18.5 -49.5q0 -38 -26 -64t-62 -26q-30 0 -49 19.5zM51 780.5q-19 19.5 -19 49.5
q0 38 25.5 63.5t62.5 25.5q31 0 49.5 -18.5t18.5 -49.5q0 -38 -26 -64t-62 -26q-30 0 -49 19.5z" />
    <glyph glyph-name="Eth" unicode="&#xd0;" horiz-adv-x="570" 
d="M521.5 653.5q52.5 -46.5 52.5 -126.5q0 -10 -2 -30l-36 -294q-11 -92 -78 -147.5t-166 -55.5h-209q-5 0 -8 3.5t-2 8.5l37 302q2 5 -4 5h-23q-5 0 -8 3.5t-2 8.5l8 65q0 5 4 8.5t9 3.5h23q5 0 5 5l34 275q1 5 4.5 8.5t8.5 3.5h209q91 0 143.5 -46.5zM433 481q1 7 1 20
q0 36 -18.5 57t-51.5 21h-80q-2 0 -3.5 -1.5t-1.5 -3.5l-20 -161q0 -5 4 -5h57q5 0 8 -3.5t2 -8.5l-8 -65q-1 -5 -4.5 -8.5t-8.5 -3.5h-56q-6 0 -6 -5l-23 -188q0 -5 4 -5l80 1q35 0 60.5 26.5t32.5 70.5z" />
    <glyph glyph-name="Ntilde" unicode="&#xd1;" horiz-adv-x="572" 
d="M454.5 696.5q3.5 3.5 8.5 3.5h113q5 0 8 -3.5t2 -8.5l-83 -676q-1 -5 -4.5 -8.5t-8.5 -3.5h-118q-10 0 -13 9l-135 407q-2 3 -4 3t-2 -4l-49 -403q-1 -5 -4.5 -8.5t-8.5 -3.5h-112q-11 0 -11 12l83 676q1 5 5 8.5t9 3.5h117q9 0 12 -9l136 -407q1 -3 3 -3t3 4l49 403
q1 5 4.5 8.5zM391 771.5q-12 4.5 -29 13.5q-4 3 -13 8t-15.5 7t-13.5 2q-14 0 -24.5 -5t-21.5 -17q-9 -11 -16 -2l-36 36q-4 6 -4 9q0 4 3 8q18 31 45 48t57 17q17 0 31 -5.5t33 -16.5q3 -2 11 -7.5t15.5 -8t14.5 -2.5q27 0 44 21q9 12 16 3l34 -35q4 -6 4 -9q0 -4 -3 -9
q-19 -30 -46.5 -45t-57.5 -15q-16 0 -28 4.5z" />
    <glyph glyph-name="Ograve" unicode="&#xd2;" horiz-adv-x="531" 
d="M98.5 42.5q-53.5 51.5 -53.5 138.5q0 24 2 36l33 266q8 67 42 118t88.5 79t121.5 28q93 0 147 -51.5t54 -139.5q0 -10 -2 -34l-33 -266q-8 -68 -42.5 -119t-89.5 -79t-122 -28q-92 0 -145.5 51.5zM327 139.5q28 27.5 34 71.5l33 276q1 6 1 19q0 37 -21 59t-57 22
q-40 0 -67.5 -27.5t-32.5 -72.5l-34 -276q-1 -6 -1 -17q0 -37 20.5 -59.5t56.5 -22.5q40 0 68 27.5zM388 770q0 -8 -10 -8h-78q-8 0 -13 7l-59 102q-2 4 -2 6q0 4 3.5 6.5t8.5 2.5h93q10 0 13 -8l43 -102q1 -2 1 -6z" />
    <glyph glyph-name="Oacute" unicode="&#xd3;" horiz-adv-x="531" 
d="M98.5 42.5q-53.5 51.5 -53.5 138.5q0 24 2 36l33 266q8 67 42 118t88.5 79t121.5 28q93 0 147 -51.5t54 -139.5q0 -10 -2 -34l-33 -266q-8 -68 -42.5 -119t-89.5 -79t-122 -28q-92 0 -145.5 51.5zM327 139.5q28 27.5 34 71.5l33 276q1 6 1 19q0 37 -21 59t-57 22
q-40 0 -67.5 -27.5t-32.5 -72.5l-34 -276q-1 -6 -1 -17q0 -37 20.5 -59.5t56.5 -22.5q40 0 68 27.5zM276 766q-2 4 2 10l68 102q6 8 16 8h93q9 0 9 -7q0 -3 -3 -8l-85 -102q-5 -7 -14 -7h-78q-6 0 -8 4z" />
    <glyph glyph-name="Ocircumflex" unicode="&#xd4;" horiz-adv-x="531" 
d="M98.5 42.5q-53.5 51.5 -53.5 138.5q0 24 2 36l33 266q8 67 42 118t88.5 79t121.5 28q93 0 147 -51.5t54 -139.5q0 -10 -2 -34l-33 -266q-8 -68 -42.5 -119t-89.5 -79t-122 -28q-92 0 -145.5 51.5zM327 139.5q28 27.5 34 71.5l33 276q1 6 1 19q0 37 -21 59t-57 22
q-40 0 -67.5 -27.5t-32.5 -72.5l-34 -276q-1 -6 -1 -17q0 -37 20.5 -59.5t56.5 -22.5q40 0 68 27.5zM192 766q0 4 3 8l80 104q5 8 14 8h127q10 0 13 -8l55 -104q1 -2 1 -6t-3 -6.5t-7 -2.5h-85q-10 0 -13 8l-27 59q-3 6 -6 0l-41 -59q-5 -8 -16 -8h-86q-9 0 -9 7z" />
    <glyph glyph-name="Otilde" unicode="&#xd5;" horiz-adv-x="531" 
d="M98.5 42.5q-53.5 51.5 -53.5 138.5q0 24 2 36l33 266q8 67 42 118t88.5 79t121.5 28q93 0 147 -51.5t54 -139.5q0 -10 -2 -34l-33 -266q-8 -68 -42.5 -119t-89.5 -79t-122 -28q-92 0 -145.5 51.5zM327 139.5q28 27.5 34 71.5l33 276q1 6 1 19q0 37 -21 59t-57 22
q-40 0 -67.5 -27.5t-32.5 -72.5l-34 -276q-1 -6 -1 -17q0 -37 20.5 -59.5t56.5 -22.5q40 0 68 27.5zM374 770.5q-12 4.5 -29 13.5q-4 3 -13 8t-15.5 7t-13.5 2q-14 0 -24.5 -5t-21.5 -17q-9 -11 -16 -2l-36 36q-4 6 -4 9q0 4 3 8q18 31 45 48t57 17q17 0 31 -5.5t33 -16.5
q3 -2 11 -7.5t15.5 -8t14.5 -2.5q27 0 44 21q9 12 16 3l34 -35q4 -6 4 -9q0 -4 -3 -9q-19 -30 -46.5 -45t-57.5 -15q-16 0 -28 4.5z" />
    <glyph glyph-name="Odieresis" unicode="&#xd6;" horiz-adv-x="531" 
d="M98.5 42.5q-53.5 51.5 -53.5 138.5q0 24 2 36l33 266q8 67 42 118t88.5 79t121.5 28q93 0 147 -51.5t54 -139.5q0 -10 -2 -34l-33 -266q-8 -68 -42.5 -119t-89.5 -79t-122 -28q-92 0 -145.5 51.5zM327 139.5q28 27.5 34 71.5l33 276q1 6 1 19q0 37 -21 59t-57 22
q-40 0 -67.5 -27.5t-32.5 -72.5l-34 -276q-1 -6 -1 -17q0 -37 20.5 -59.5t56.5 -22.5q40 0 68 27.5zM382 780.5q-19 19.5 -19 49.5q0 38 25.5 63.5t62.5 25.5q31 0 49.5 -18.5t18.5 -49.5q0 -38 -26 -64t-62 -26q-30 0 -49 19.5zM196 780.5q-19 19.5 -19 49.5
q0 38 25.5 63.5t62.5 25.5q31 0 49.5 -18.5t18.5 -49.5q0 -38 -26 -64t-62 -26q-30 0 -49 19.5z" />
    <glyph glyph-name="multiply" unicode="&#xd7;" horiz-adv-x="410" 
d="M412 418q0 -5 -5 -10l-100 -92q-2 -1 -2.5 -3.5t1.5 -4.5l77 -92q3 -3 3 -7q0 -5 -4 -9l-70 -64q-6 -4 -9 -4t-7 4l-78 92q-3 3 -8 0l-101 -93q-4 -4 -9 -4t-8 4l-54 64q-2 2 -2 7t4 9l102 93q3 3 1 8l-79 93q-3 3 -3 7t5 9l70 64q4 4 8 4t7 -4l79 -93q2 -2 4 -2t4 2
l101 93q4 4 9 4q4 0 7 -4l54 -64q3 -3 3 -7z" />
    <glyph glyph-name="Oslash" unicode="&#xd8;" horiz-adv-x="566" 
d="M567 676l-50 -75q-1 -2 -1 -6q13 -35 13 -78q0 -10 -2 -34l-33 -266q-8 -68 -42.5 -119t-89.5 -79t-122 -28q-65 0 -112 26q-4 1 -6 -2l-37 -54q-6 -11 -16 -4l-64 51q-4 4 -4 9q0 4 3 8l49 73q1 2 1 6q-13 33 -13 76q0 24 2 37l33 266q8 67 42 118t88.5 79t121.5 28
q64 0 113 -26q2 -1 3.5 -0.5t2.5 2.5l37 55q6 11 16 4l65 -51q9 -7 2 -16zM391 487q1 6 1 17q0 38 -21 60.5t-57 22.5q-40 0 -68 -27.5t-33 -72.5l-34 -276q-1 -6 -1 -17q0 -37 20.5 -59.5t56.5 -22.5q41 0 68.5 27t33.5 72z" />
    <glyph glyph-name="Ugrave" unicode="&#xd9;" horiz-adv-x="538" 
d="M105 43q-53 51 -53 136q0 24 2 36l58 473q0 5 4 8.5t9 3.5h113q5 0 8 -3.5t2 -8.5l-59 -480q-1 -6 -1 -16q0 -36 20.5 -57.5t54.5 -21.5q39 0 65.5 26t31.5 69l59 480q1 5 4.5 8.5t8.5 3.5h114q5 0 8 -3.5t2 -8.5l-58 -473q-8 -66 -42 -116.5t-88 -78.5t-120 -28
q-90 0 -143 51zM392 770q0 -8 -10 -8h-78q-8 0 -13 7l-59 102q-2 4 -2 6q0 4 3.5 6.5t8.5 2.5h93q10 0 13 -8l43 -102q1 -2 1 -6z" />
    <glyph glyph-name="Uacute" unicode="&#xda;" horiz-adv-x="538" 
d="M105 43q-53 51 -53 136q0 24 2 36l58 473q0 5 4 8.5t9 3.5h113q5 0 8 -3.5t2 -8.5l-59 -480q-1 -6 -1 -16q0 -36 20.5 -57.5t54.5 -21.5q39 0 65.5 26t31.5 69l59 480q1 5 4.5 8.5t8.5 3.5h114q5 0 8 -3.5t2 -8.5l-58 -473q-8 -66 -42 -116.5t-88 -78.5t-120 -28
q-90 0 -143 51zM281 766q-2 4 2 10l68 102q6 8 16 8h93q9 0 9 -7q0 -3 -3 -8l-85 -102q-5 -7 -14 -7h-78q-6 0 -8 4z" />
    <glyph glyph-name="Ucircumflex" unicode="&#xdb;" horiz-adv-x="538" 
d="M105 43q-53 51 -53 136q0 24 2 36l58 473q0 5 4 8.5t9 3.5h113q5 0 8 -3.5t2 -8.5l-59 -480q-1 -6 -1 -16q0 -36 20.5 -57.5t54.5 -21.5q39 0 65.5 26t31.5 69l59 480q1 5 4.5 8.5t8.5 3.5h114q5 0 8 -3.5t2 -8.5l-58 -473q-8 -66 -42 -116.5t-88 -78.5t-120 -28
q-90 0 -143 51zM196 766q0 4 3 8l80 104q5 8 14 8h127q10 0 13 -8l55 -104q1 -2 1 -6t-3 -6.5t-7 -2.5h-85q-10 0 -13 8l-27 59q-3 6 -6 0l-41 -59q-5 -8 -16 -8h-86q-9 0 -9 7z" />
    <glyph glyph-name="Udieresis" unicode="&#xdc;" horiz-adv-x="538" 
d="M105 43q-53 51 -53 136q0 24 2 36l58 473q0 5 4 8.5t9 3.5h113q5 0 8 -3.5t2 -8.5l-59 -480q-1 -6 -1 -16q0 -36 20.5 -57.5t54.5 -21.5q39 0 65.5 26t31.5 69l59 480q1 5 4.5 8.5t8.5 3.5h114q5 0 8 -3.5t2 -8.5l-58 -473q-8 -66 -42 -116.5t-88 -78.5t-120 -28
q-90 0 -143 51zM386 780.5q-19 19.5 -19 49.5q0 38 25.5 63.5t62.5 25.5q31 0 49.5 -18.5t18.5 -49.5q0 -38 -26 -64t-62 -26q-30 0 -49 19.5zM200 780.5q-19 19.5 -19 49.5q0 38 25.5 63.5t62.5 25.5q31 0 49.5 -18.5t18.5 -49.5q0 -38 -26 -64t-62 -26q-30 0 -49 19.5z
" />
    <glyph glyph-name="Yacute" unicode="&#xdd;" horiz-adv-x="529" 
d="M180 4.5q-3 3.5 -2 8.5l32 256l-1 6l-117 411l-1 4q0 10 11 10h123q11 0 12 -10l59 -253q1 -3 3 -3t3 3l121 253q4 10 15 10h122q7 0 8.5 -4t-1.5 -10l-219 -411l-2 -6l-31 -256q-1 -5 -4.5 -8.5t-8.5 -3.5h-114q-5 0 -8 3.5zM276 766q-2 4 2 10l68 102q6 8 16 8h93
q9 0 9 -7q0 -3 -3 -8l-85 -102q-5 -7 -14 -7h-78q-6 0 -8 4z" />
    <glyph glyph-name="Thorn" unicode="&#xde;" horiz-adv-x="507" 
d="M463 512.5q47 -48.5 47 -129.5q0 -23 -2 -35q-7 -61 -38.5 -108.5t-79.5 -73.5t-105 -26h-97q-4 0 -6 -5l-15 -123q-1 -5 -4.5 -8.5t-8.5 -3.5h-113q-5 0 -8 3.5t-2 8.5l83 676q0 5 4 8.5t9 3.5h113q5 0 8 -3.5t2 -8.5l-15 -122q0 -5 5 -5h96q80 0 127 -48.5zM345 282.5
q27 29.5 27 81.5q0 36 -19.5 55.5t-53.5 19.5h-74q-4 0 -6 -5l-21 -176q-2 -5 4 -5h74q42 0 69 29.5z" />
    <glyph glyph-name="germandbls" unicode="&#xdf;" horiz-adv-x="502" 
d="M29 4.5q-3 3.5 -2 8.5l58 471q13 107 73.5 165.5t157.5 58.5q87 0 137 -44t50 -120q0 -8 -2 -28q-10 -91 -82 -134q-6 -3 -1 -6q28 -19 43 -53t15 -80q0 -24 -2 -37q-12 -98 -76.5 -152t-171.5 -54h-18q-11 0 -11 12l12 96q1 5 4.5 8.5t8.5 3.5l26 1q40 0 66.5 32.5
t26.5 89.5q0 36 -16.5 56.5t-46.5 21.5h-23q-5 0 -8 3.5t-2 8.5l10 86q1 5 4.5 8.5t8.5 3.5h22q33 0 54.5 26t21.5 67q0 29 -15.5 46.5t-44.5 17.5q-32 0 -54.5 -22.5t-27.5 -63.5l-61 -490q0 -5 -4 -8.5t-9 -3.5l-113 1q-5 0 -8 3.5z" />
    <glyph glyph-name="agrave" unicode="&#xe0;" horiz-adv-x="472" 
d="M356.5 510.5q3.5 3.5 8.5 3.5h113q5 0 8 -3.5t2 -8.5l-60 -490q-1 -5 -4.5 -8.5t-8.5 -3.5h-113q-5 0 -8 3.5t-2 8.5l4 36q1 4 -1 4.5t-4 -2.5q-43 -58 -114 -58q-66 0 -101.5 42.5t-36.5 116.5q-2 24 7 107q11 83 22 112q18 71 64 111.5t113 40.5q70 0 97 -55
q2 -3 3.5 -3t1.5 4l5 34q1 5 4.5 8.5zM322 257q4 33 4 62q0 17 -1 25q0 25 -14.5 41t-39.5 16q-24 0 -42.5 -16t-26.5 -42q-11 -37 -16 -86q-7 -49 -5 -86q1 -26 16 -42t39 -16q25 0 43 16.5t26 42.5q10 33 17 85zM336 584q0 -8 -10 -8h-78q-8 0 -13 7l-59 102q-2 4 -2 6
q0 4 3.5 6.5t8.5 2.5h93q10 0 13 -8l43 -102q1 -2 1 -6z" />
    <glyph glyph-name="aacute" unicode="&#xe1;" horiz-adv-x="472" 
d="M356.5 510.5q3.5 3.5 8.5 3.5h113q5 0 8 -3.5t2 -8.5l-60 -490q-1 -5 -4.5 -8.5t-8.5 -3.5h-113q-5 0 -8 3.5t-2 8.5l4 36q1 4 -1 4.5t-4 -2.5q-43 -58 -114 -58q-66 0 -101.5 42.5t-36.5 116.5q-2 24 7 107q11 83 22 112q18 71 64 111.5t113 40.5q70 0 97 -55
q2 -3 3.5 -3t1.5 4l5 34q1 5 4.5 8.5zM322 257q4 33 4 62q0 17 -1 25q0 25 -14.5 41t-39.5 16q-24 0 -42.5 -16t-26.5 -42q-11 -37 -16 -86q-7 -49 -5 -86q1 -26 16 -42t39 -16q25 0 43 16.5t26 42.5q10 33 17 85zM225 580q-2 4 2 10l68 102q6 8 16 8h93q9 0 9 -7
q0 -3 -3 -8l-85 -102q-5 -7 -14 -7h-78q-6 0 -8 4z" />
    <glyph glyph-name="acircumflex" unicode="&#xe2;" horiz-adv-x="472" 
d="M356.5 510.5q3.5 3.5 8.5 3.5h113q5 0 8 -3.5t2 -8.5l-60 -490q-1 -5 -4.5 -8.5t-8.5 -3.5h-113q-5 0 -8 3.5t-2 8.5l4 36q1 4 -1 4.5t-4 -2.5q-43 -58 -114 -58q-66 0 -101.5 42.5t-36.5 116.5q-2 24 7 107q11 83 22 112q18 71 64 111.5t113 40.5q70 0 97 -55
q2 -3 3.5 -3t1.5 4l5 34q1 5 4.5 8.5zM322 257q4 33 4 62q0 17 -1 25q0 25 -14.5 41t-39.5 16q-24 0 -42.5 -16t-26.5 -42q-11 -37 -16 -86q-7 -49 -5 -86q1 -26 16 -42t39 -16q25 0 43 16.5t26 42.5q10 33 17 85zM140 580q0 4 3 8l80 104q5 8 14 8h127q10 0 13 -8l55 -104
q1 -2 1 -6t-3 -6.5t-7 -2.5h-85q-10 0 -13 8l-27 59q-3 6 -6 0l-41 -59q-5 -8 -16 -8h-86q-9 0 -9 7z" />
    <glyph glyph-name="atilde" unicode="&#xe3;" horiz-adv-x="472" 
d="M356.5 510.5q3.5 3.5 8.5 3.5h113q5 0 8 -3.5t2 -8.5l-60 -490q-1 -5 -4.5 -8.5t-8.5 -3.5h-113q-5 0 -8 3.5t-2 8.5l4 36q1 4 -1 4.5t-4 -2.5q-43 -58 -114 -58q-66 0 -101.5 42.5t-36.5 116.5q-2 24 7 107q11 83 22 112q18 71 64 111.5t113 40.5q70 0 97 -55
q2 -3 3.5 -3t1.5 4l5 34q1 5 4.5 8.5zM322 257q4 33 4 62q0 17 -1 25q0 25 -14.5 41t-39.5 16q-24 0 -42.5 -16t-26.5 -42q-11 -37 -16 -86q-7 -49 -5 -86q1 -26 16 -42t39 -16q25 0 43 16.5t26 42.5q10 33 17 85zM322 584.5q-12 4.5 -29 13.5q-4 3 -13 8t-15.5 7t-13.5 2
q-14 0 -24.5 -5t-21.5 -17q-9 -11 -16 -2l-36 36q-4 6 -4 9q0 4 3 8q18 31 45 48t57 17q17 0 31 -5.5t33 -16.5q3 -2 11 -7.5t15.5 -8t14.5 -2.5q27 0 44 21q9 12 16 3l34 -35q4 -6 4 -9q0 -4 -3 -9q-19 -30 -46.5 -45t-57.5 -15q-16 0 -28 4.5z" />
    <glyph glyph-name="adieresis" unicode="&#xe4;" horiz-adv-x="472" 
d="M356.5 510.5q3.5 3.5 8.5 3.5h113q5 0 8 -3.5t2 -8.5l-60 -490q-1 -5 -4.5 -8.5t-8.5 -3.5h-113q-5 0 -8 3.5t-2 8.5l4 36q1 4 -1 4.5t-4 -2.5q-43 -58 -114 -58q-66 0 -101.5 42.5t-36.5 116.5q-2 24 7 107q11 83 22 112q18 71 64 111.5t113 40.5q70 0 97 -55
q2 -3 3.5 -3t1.5 4l5 34q1 5 4.5 8.5zM322 257q4 33 4 62q0 17 -1 25q0 25 -14.5 41t-39.5 16q-24 0 -42.5 -16t-26.5 -42q-11 -37 -16 -86q-7 -49 -5 -86q1 -26 16 -42t39 -16q25 0 43 16.5t26 42.5q10 33 17 85zM331 594.5q-19 19.5 -19 49.5q0 38 25.5 63.5t62.5 25.5
q31 0 49.5 -18.5t18.5 -49.5q0 -38 -26 -64t-62 -26q-30 0 -49 19.5zM145 594.5q-19 19.5 -19 49.5q0 38 25.5 63.5t62.5 25.5q31 0 49.5 -18.5t18.5 -49.5q0 -38 -26 -64t-62 -26q-30 0 -49 19.5z" />
    <glyph glyph-name="aring" unicode="&#xe5;" horiz-adv-x="472" 
d="M356.5 510.5q3.5 3.5 8.5 3.5h113q5 0 8 -3.5t2 -8.5l-60 -490q-1 -5 -4.5 -8.5t-8.5 -3.5h-113q-5 0 -8 3.5t-2 8.5l4 36q1 4 -1 4.5t-4 -2.5q-43 -58 -114 -58q-66 0 -101.5 42.5t-36.5 116.5q-2 24 7 107q11 83 22 112q18 71 64 111.5t113 40.5q70 0 97 -55
q2 -3 3.5 -3t1.5 4l5 34q1 5 4.5 8.5zM322 257q4 33 4 62q0 17 -1 25q0 25 -14.5 41t-39.5 16q-24 0 -42.5 -16t-26.5 -42q-11 -37 -16 -86q-7 -49 -5 -86q1 -26 16 -42t39 -16q25 0 43 16.5t26 42.5q10 33 17 85zM209 593.5q-30 30.5 -30 77.5q0 38 19 70t50.5 51t67.5 19
q46 0 76 -30t30 -77q0 -38 -18.5 -70.5t-50 -51.5t-67.5 -19q-47 0 -77 30.5zM333 654q17 17 17 40q0 19 -12.5 31.5t-30.5 12.5q-22 0 -38.5 -16.5t-16.5 -40.5q0 -19 12 -31.5t31 -12.5q21 0 38 17z" />
    <glyph glyph-name="ae" unicode="&#xe6;" horiz-adv-x="739" 
d="M63 20.5q-43 28.5 -43 95.5q0 8 2 28q18 158 214 158h74q5 0 5 5l3 26q1 4 1 12q0 26 -14.5 41t-41.5 15q-24 0 -42 -11t-25 -30q-5 -12 -15 -10l-113 9q-12 2 -9 13q14 67 74 108.5t138 41.5q45 0 79 -17t54 -46q2 -3 6 0q24 27 62 45t83 18q74 0 122.5 -43.5
t50.5 -114.5q-2 -62 -11 -143q-1 -6 -4.5 -9t-8.5 -3h-253q-6 0 -6 -5q-1 -12 -1 -29q0 -28 19 -43.5t51 -15.5q50 0 78 42q7 11 16 6l79 -35q11 -4 6 -15q-26 -57 -76.5 -89.5t-118.5 -32.5q-54 0 -92 20t-49 49q-4 6 -4 3q-20 -31 -69.5 -51.5t-111.5 -20.5
q-66 0 -109 28.5zM461 302h124q5 0 6 5l1 34q-1 27 -16 43.5t-41 16.5t-45 -16.5t-26 -43.5l-7 -34q-1 -5 4 -5zM268 113.5q25 18.5 29 49.5l5 41q2 5 -4 5h-54q-38 0 -61 -17t-23 -49q0 -22 14 -35t38 -13q31 0 56 18.5z" />
    <glyph glyph-name="ccedilla" unicode="&#xe7;" horiz-adv-x="471" 
d="M310 181q2 5 6 8.5t8 2.5l112 -10q9 -2 9 -11q0 -4 -2 -11t-3 -11q-16 -61 -60.5 -101t-108.5 -52q-6 -2 -2 -6q29 -35 29 -75q0 -15 -7 -38q-23 -62 -96 -62q-25 0 -51 8q-10 5 -7 15l13 48q2 11 15 8q8 -2 12 -2q14 0 24 10t10 28q0 32 -35 64l-6 3q-59 12 -93 52.5
t-36 101.5q-3 40 5 108q6 45 21 106q21 72 80 114.5t139 42.5q79 0 127.5 -41t53.5 -108q1 -4 1 -14t-1 -15q-1 -11 -13 -13l-113 -11h-2q-9 0 -9 11v10q0 4 -2 14q-4 20 -19 33t-39 13q-26 0 -44.5 -16.5t-26.5 -43.5q-9 -29 -16 -83q-5 -43 -5 -67q0 -13 1 -19
q2 -28 16 -43.5t40 -15.5q28 0 47 15.5t25 40.5z" />
    <glyph glyph-name="egrave" unicode="&#xe8;" horiz-adv-x="475" 
d="M454 223q-1 -12 -13 -12h-257q-5 0 -5 -5q-1 -13 -1 -34q2 -28 18.5 -44t45.5 -16q24 1 42 12.5t29 32.5q7 10 16 8l100 -21q12 -3 6 -15q-29 -66 -82.5 -101.5t-125.5 -35.5q-86 0 -132 40.5t-52 116.5q-1 10 -1 32q0 31 5 76q5 54 18 98q20 76 79 121.5t140 45.5
q85 0 133.5 -47.5t48.5 -126.5q0 -55 -12 -125zM225 384.5q-19 -16.5 -27 -43.5q-6 -24 -8 -38q0 -5 5 -5h126q5 0 5 5q2 13 2 38q0 27 -15.5 43.5t-42.5 16.5q-26 0 -45 -16.5zM338 584q0 -8 -10 -8h-78q-8 0 -13 7l-59 102q-2 4 -2 6q0 4 3.5 6.5t8.5 2.5h93q10 0 13 -8
l43 -102q1 -2 1 -6z" />
    <glyph glyph-name="eacute" unicode="&#xe9;" horiz-adv-x="475" 
d="M454 223q-1 -12 -13 -12h-257q-5 0 -5 -5q-1 -13 -1 -34q2 -28 18.5 -44t45.5 -16q24 1 42 12.5t29 32.5q7 10 16 8l100 -21q12 -3 6 -15q-29 -66 -82.5 -101.5t-125.5 -35.5q-86 0 -132 40.5t-52 116.5q-1 10 -1 32q0 31 5 76q5 54 18 98q20 76 79 121.5t140 45.5
q85 0 133.5 -47.5t48.5 -126.5q0 -55 -12 -125zM225 384.5q-19 -16.5 -27 -43.5q-6 -24 -8 -38q0 -5 5 -5h126q5 0 5 5q2 13 2 38q0 27 -15.5 43.5t-42.5 16.5q-26 0 -45 -16.5zM226 580q-2 4 2 10l68 102q6 8 16 8h93q9 0 9 -7q0 -3 -3 -8l-85 -102q-5 -7 -14 -7h-78
q-6 0 -8 4z" />
    <glyph glyph-name="ecircumflex" unicode="&#xea;" horiz-adv-x="475" 
d="M454 223q-1 -12 -13 -12h-257q-5 0 -5 -5q-1 -13 -1 -34q2 -28 18.5 -44t45.5 -16q24 1 42 12.5t29 32.5q7 10 16 8l100 -21q12 -3 6 -15q-29 -66 -82.5 -101.5t-125.5 -35.5q-86 0 -132 40.5t-52 116.5q-1 10 -1 32q0 31 5 76q5 54 18 98q20 76 79 121.5t140 45.5
q85 0 133.5 -47.5t48.5 -126.5q0 -55 -12 -125zM225 384.5q-19 -16.5 -27 -43.5q-6 -24 -8 -38q0 -5 5 -5h126q5 0 5 5q2 13 2 38q0 27 -15.5 43.5t-42.5 16.5q-26 0 -45 -16.5zM141 580q0 4 3 8l80 104q5 8 14 8h127q10 0 13 -8l55 -104q1 -2 1 -6t-3 -6.5t-7 -2.5h-85
q-10 0 -13 8l-27 59q-3 6 -6 0l-41 -59q-5 -8 -16 -8h-86q-9 0 -9 7z" />
    <glyph glyph-name="edieresis" unicode="&#xeb;" horiz-adv-x="475" 
d="M454 223q-1 -12 -13 -12h-257q-5 0 -5 -5q-1 -13 -1 -34q2 -28 18.5 -44t45.5 -16q24 1 42 12.5t29 32.5q7 10 16 8l100 -21q12 -3 6 -15q-29 -66 -82.5 -101.5t-125.5 -35.5q-86 0 -132 40.5t-52 116.5q-1 10 -1 32q0 31 5 76q5 54 18 98q20 76 79 121.5t140 45.5
q85 0 133.5 -47.5t48.5 -126.5q0 -55 -12 -125zM225 384.5q-19 -16.5 -27 -43.5q-6 -24 -8 -38q0 -5 5 -5h126q5 0 5 5q2 13 2 38q0 27 -15.5 43.5t-42.5 16.5q-26 0 -45 -16.5zM332 594.5q-19 19.5 -19 49.5q0 38 25.5 63.5t62.5 25.5q31 0 49.5 -18.5t18.5 -49.5
q0 -38 -26 -64t-62 -26q-30 0 -49 19.5zM146 594.5q-19 19.5 -19 49.5q0 38 25.5 63.5t62.5 25.5q31 0 49.5 -18.5t18.5 -49.5q0 -38 -26 -64t-62 -26q-30 0 -49 19.5z" />
    <glyph glyph-name="igrave" unicode="&#xec;" horiz-adv-x="207" 
d="M19 3.5q-3 3.5 -2 8.5l60 490q1 5 4.5 8.5t8.5 3.5h114q5 0 8 -3.5t2 -8.5l-60 -490q-1 -5 -4.5 -8.5t-8.5 -3.5h-114q-5 0 -8 3.5zM204 584q0 -8 -10 -8h-78q-8 0 -13 7l-59 102q-2 4 -2 6q0 4 3.5 6.5t8.5 2.5h93q10 0 13 -8l43 -102q1 -2 1 -6z" />
    <glyph glyph-name="iacute" unicode="&#xed;" horiz-adv-x="207" 
d="M19 3.5q-3 3.5 -2 8.5l60 490q1 5 4.5 8.5t8.5 3.5h114q5 0 8 -3.5t2 -8.5l-60 -490q-1 -5 -4.5 -8.5t-8.5 -3.5h-114q-5 0 -8 3.5zM92 580q-2 4 2 10l68 102q6 8 16 8h93q9 0 9 -7q0 -3 -3 -8l-85 -102q-5 -7 -14 -7h-78q-6 0 -8 4z" />
    <glyph glyph-name="icircumflex" unicode="&#xee;" horiz-adv-x="207" 
d="M19 3.5q-3 3.5 -2 8.5l60 490q1 5 4.5 8.5t8.5 3.5h114q5 0 8 -3.5t2 -8.5l-60 -490q-1 -5 -4.5 -8.5t-8.5 -3.5h-114q-5 0 -8 3.5zM7 580q0 4 3 8l80 104q5 8 14 8h127q10 0 13 -8l55 -104q1 -2 1 -6t-3 -6.5t-7 -2.5h-85q-10 0 -13 8l-27 59q-3 6 -6 0l-41 -59
q-5 -8 -16 -8h-86q-9 0 -9 7z" />
    <glyph glyph-name="idieresis" unicode="&#xef;" horiz-adv-x="207" 
d="M19 3.5q-3 3.5 -2 8.5l60 490q1 5 4.5 8.5t8.5 3.5h114q5 0 8 -3.5t2 -8.5l-60 -490q-1 -5 -4.5 -8.5t-8.5 -3.5h-114q-5 0 -8 3.5zM198 594.5q-19 19.5 -19 49.5q0 38 25.5 63.5t62.5 25.5q31 0 49.5 -18.5t18.5 -49.5q0 -38 -26 -64t-62 -26q-30 0 -49 19.5zM12 594.5
q-19 19.5 -19 49.5q0 38 25.5 63.5t62.5 25.5q31 0 49.5 -18.5t18.5 -49.5q0 -38 -26 -64t-62 -26q-30 0 -49 19.5z" />
    <glyph glyph-name="eth" unicode="&#xf0;" horiz-adv-x="485" 
d="M453 239q-6 -55 -18 -95q-20 -70 -78 -111t-139 -41q-80 0 -127.5 40.5t-50.5 111.5q-1 8 -1 24q0 28 5 70q6 52 19 95q13 55 54 92t94 42q25 5 46 5q39 0 61 -13q7 -3 5 3q-9 41 -26 76q-1 5 -6 3l-87 -23l-3 -1q-8 0 -10 10l-6 43v2q0 9 11 13l61 16q5 2 3 7
q-29 48 -50 77q-3 5 -3 7q0 8 11 8h113q10 0 14 -7l14 -22l20 -34q2 -5 5 -3l81 21l3 1q8 0 10 -10l5 -44v-2q0 -10 -10 -13l-53 -14q-7 -2 -4 -6q24 -53 35.5 -106.5t9.5 -114.5q0 -45 -8 -107zM316 236q4 32 4 71q-2 26 -16.5 42t-39.5 16t-43.5 -16t-26.5 -42
q-10 -37 -14 -71q-4 -43 -3 -72q1 -26 15.5 -42t39.5 -16t43.5 16t26.5 42q9 34 14 72z" />
    <glyph glyph-name="ntilde" unicode="&#xf1;" horiz-adv-x="482" 
d="M216 594q-9 -12 -16 -3l-35 36q-6 7 -2 17q18 31 44 48t56 17q17 0 30 -5.5t33 -16.5q14 -10 22 -14t18 -4q26 0 43 21q4 6 10 6q4 0 7 -3l32 -35q4 -4 4 -8q0 -3 -3 -8q-17 -31 -44.5 -46.5t-57.5 -15.5q-16 0 -27.5 4.5t-27.5 13.5q-5 3 -13.5 8t-14.5 7t-13 2
q-25 0 -45 -21zM432 485q34 -37 34 -103q0 -23 -2 -36l-41 -334q0 -5 -4 -8.5t-9 -3.5h-113q-5 0 -8 3.5t-2 8.5l38 314q1 5 1 15q0 28 -14 44t-39 16q-28 0 -47.5 -20.5t-24.5 -55.5l-39 -313q0 -5 -4 -8.5t-9 -3.5h-113q-5 0 -8 3.5t-2 8.5l60 490q1 5 4.5 8.5t8.5 3.5
h113q5 0 8.5 -3.5t2.5 -8.5l-4 -28q0 -3 2 -3.5t5 3.5q41 48 109 48q63 0 97 -37z" />
    <glyph glyph-name="ograve" unicode="&#xf2;" horiz-adv-x="481" 
d="M91.5 35.5q-48.5 43.5 -50.5 119.5q-2 49 5 103q7 60 21 103q20 74 79 117.5t143 43.5t131.5 -43.5t49.5 -117.5q3 -39 -5 -103q-7 -54 -20 -102q-20 -77 -78.5 -120.5t-142.5 -43.5t-132.5 43.5zM284 130q20 17 30 46q9 39 14 82q6 44 6 81q-2 29 -18 45.5t-43 16.5
q-26 0 -46 -16.5t-28 -45.5q-7 -25 -15 -81q-6 -43 -6 -82q2 -29 18 -46t43 -17q25 0 45 17zM340 584q0 -8 -10 -8h-78q-8 0 -13 7l-59 102q-2 4 -2 6q0 4 3.5 6.5t8.5 2.5h93q10 0 13 -8l43 -102q1 -2 1 -6z" />
    <glyph glyph-name="oacute" unicode="&#xf3;" horiz-adv-x="481" 
d="M91.5 35.5q-48.5 43.5 -50.5 119.5q-2 49 5 103q7 60 21 103q20 74 79 117.5t143 43.5t131.5 -43.5t49.5 -117.5q3 -39 -5 -103q-7 -54 -20 -102q-20 -77 -78.5 -120.5t-142.5 -43.5t-132.5 43.5zM284 130q20 17 30 46q9 39 14 82q6 44 6 81q-2 29 -18 45.5t-43 16.5
q-26 0 -46 -16.5t-28 -45.5q-7 -25 -15 -81q-6 -43 -6 -82q2 -29 18 -46t43 -17q25 0 45 17zM229 580q-2 4 2 10l68 102q6 8 16 8h93q9 0 9 -7q0 -3 -3 -8l-85 -102q-5 -7 -14 -7h-78q-6 0 -8 4z" />
    <glyph glyph-name="ocircumflex" unicode="&#xf4;" horiz-adv-x="481" 
d="M91.5 35.5q-48.5 43.5 -50.5 119.5q-2 49 5 103q7 60 21 103q20 74 79 117.5t143 43.5t131.5 -43.5t49.5 -117.5q3 -39 -5 -103q-7 -54 -20 -102q-20 -77 -78.5 -120.5t-142.5 -43.5t-132.5 43.5zM284 130q20 17 30 46q9 39 14 82q6 44 6 81q-2 29 -18 45.5t-43 16.5
q-26 0 -46 -16.5t-28 -45.5q-7 -25 -15 -81q-6 -43 -6 -82q2 -29 18 -46t43 -17q25 0 45 17zM144 580q0 4 3 8l80 104q5 8 14 8h127q10 0 13 -8l55 -104q1 -2 1 -6t-3 -6.5t-7 -2.5h-85q-10 0 -13 8l-27 59q-3 6 -6 0l-41 -59q-5 -8 -16 -8h-86q-9 0 -9 7z" />
    <glyph glyph-name="otilde" unicode="&#xf5;" horiz-adv-x="481" 
d="M91.5 35.5q-48.5 43.5 -50.5 119.5q-2 49 5 103q7 60 21 103q20 74 79 117.5t143 43.5t131.5 -43.5t49.5 -117.5q3 -39 -5 -103q-7 -54 -20 -102q-20 -77 -78.5 -120.5t-142.5 -43.5t-132.5 43.5zM284 130q20 17 30 46q9 39 14 82q6 44 6 81q-2 29 -18 45.5t-43 16.5
q-26 0 -46 -16.5t-28 -45.5q-7 -25 -15 -81q-6 -43 -6 -82q2 -29 18 -46t43 -17q25 0 45 17zM327 584.5q-12 4.5 -29 13.5q-4 3 -13 8t-15.5 7t-13.5 2q-14 0 -24.5 -5t-21.5 -17q-9 -11 -16 -2l-36 36q-4 6 -4 9q0 4 3 8q18 31 45 48t57 17q17 0 31 -5.5t33 -16.5
q3 -2 11 -7.5t15.5 -8t14.5 -2.5q27 0 44 21q9 12 16 3l34 -35q4 -6 4 -9q0 -4 -3 -9q-19 -30 -46.5 -45t-57.5 -15q-16 0 -28 4.5z" />
    <glyph glyph-name="odieresis" unicode="&#xf6;" horiz-adv-x="481" 
d="M91.5 35.5q-48.5 43.5 -50.5 119.5q-2 49 5 103q7 60 21 103q20 74 79 117.5t143 43.5t131.5 -43.5t49.5 -117.5q3 -39 -5 -103q-7 -54 -20 -102q-20 -77 -78.5 -120.5t-142.5 -43.5t-132.5 43.5zM284 130q20 17 30 46q9 39 14 82q6 44 6 81q-2 29 -18 45.5t-43 16.5
q-26 0 -46 -16.5t-28 -45.5q-7 -25 -15 -81q-6 -43 -6 -82q2 -29 18 -46t43 -17q25 0 45 17zM335 594.5q-19 19.5 -19 49.5q0 38 25.5 63.5t62.5 25.5q31 0 49.5 -18.5t18.5 -49.5q0 -38 -26 -64t-62 -26q-30 0 -49 19.5zM149 594.5q-19 19.5 -19 49.5q0 38 25.5 63.5
t62.5 25.5q31 0 49.5 -18.5t18.5 -49.5q0 -38 -26 -64t-62 -26q-30 0 -49 19.5z" />
    <glyph glyph-name="divide" unicode="&#xf7;" horiz-adv-x="448" 
d="M213.5 431.5q-17.5 17.5 -17.5 42.5q0 31 23 54t53 23q25 0 42 -17.5t17 -43.5q0 -30 -23.5 -53t-51.5 -23q-25 0 -42.5 17.5zM41 258.5q-3 3.5 -2 8.5l11 89q0 5 4 8.5t9 3.5h374q5 0 8 -3.5t2 -8.5l-11 -89q-1 -5 -4.5 -8.5t-8.5 -3.5h-374q-5 0 -8 3.5zM172 95
q-17 17 -17 43q0 31 23 54t53 23q25 0 42 -17.5t17 -43.5q0 -30 -23.5 -53t-52.5 -23q-25 0 -42 17z" />
    <glyph glyph-name="oslash" unicode="&#xf8;" horiz-adv-x="489" 
d="M457 428q13 -32 13 -67q1 -8 1 -27q0 -36 -5 -76q-7 -54 -20 -102q-20 -77 -78.5 -120.5t-143.5 -43.5q-42 0 -77 12q-4 1 -6 -3l-35 -48q-8 -11 -16 -4l-70 56q-4 4 -4 9q0 4 3 8l38 54q1 2 1 6q-16 38 -16 89q0 42 5 87q7 60 21 103q20 74 79 117.5t143 43.5
q47 0 80 -13q4 -1 6 3l36 49q8 10 16 4l70 -56q5 -5 5 -8t-4 -9l-41 -58q-2 -4 -1 -6zM328 258q7 51 7 81q-3 29 -19 45.5t-42 16.5q-27 0 -47 -16.5t-28 -45.5q-9 -34 -15 -81q-5 -36 -5 -82q2 -29 17.5 -46t42.5 -17q26 0 46 17t29 46q8 30 14 82z" />
    <glyph glyph-name="ugrave" unicode="&#xf9;" horiz-adv-x="482" 
d="M347.5 510.5q3.5 3.5 8.5 3.5h114q5 0 8 -3.5t2 -8.5l-60 -490q-1 -5 -5 -8.5t-9 -3.5h-113q-5 0 -8 3.5t-2 8.5l3 25q0 7 -6 2q-39 -46 -109 -46q-60 0 -97 33.5t-37 99.5q0 9 2 29l43 347q1 5 4.5 8.5t8.5 3.5h114q5 0 8 -3.5t2 -8.5l-39 -314q-1 -5 -1 -15
q0 -28 13.5 -44t39.5 -16q29 0 48.5 21t24.5 56l38 312q1 5 4.5 8.5zM339 584q0 -8 -10 -8h-78q-8 0 -13 7l-59 102q-2 4 -2 6q0 4 3.5 6.5t8.5 2.5h93q10 0 13 -8l43 -102q1 -2 1 -6z" />
    <glyph glyph-name="uacute" unicode="&#xfa;" horiz-adv-x="482" 
d="M347.5 510.5q3.5 3.5 8.5 3.5h114q5 0 8 -3.5t2 -8.5l-60 -490q-1 -5 -5 -8.5t-9 -3.5h-113q-5 0 -8 3.5t-2 8.5l3 25q0 7 -6 2q-39 -46 -109 -46q-60 0 -97 33.5t-37 99.5q0 9 2 29l43 347q1 5 4.5 8.5t8.5 3.5h114q5 0 8 -3.5t2 -8.5l-39 -314q-1 -5 -1 -15
q0 -28 13.5 -44t39.5 -16q29 0 48.5 21t24.5 56l38 312q1 5 4.5 8.5zM228 580q-2 4 2 10l68 102q6 8 16 8h93q9 0 9 -7q0 -3 -3 -8l-85 -102q-5 -7 -14 -7h-78q-6 0 -8 4z" />
    <glyph glyph-name="ucircumflex" unicode="&#xfb;" horiz-adv-x="482" 
d="M347.5 510.5q3.5 3.5 8.5 3.5h114q5 0 8 -3.5t2 -8.5l-60 -490q-1 -5 -5 -8.5t-9 -3.5h-113q-5 0 -8 3.5t-2 8.5l3 25q0 7 -6 2q-39 -46 -109 -46q-60 0 -97 33.5t-37 99.5q0 9 2 29l43 347q1 5 4.5 8.5t8.5 3.5h114q5 0 8 -3.5t2 -8.5l-39 -314q-1 -5 -1 -15
q0 -28 13.5 -44t39.5 -16q29 0 48.5 21t24.5 56l38 312q1 5 4.5 8.5zM143 580q0 4 3 8l80 104q5 8 14 8h127q10 0 13 -8l55 -104q1 -2 1 -6t-3 -6.5t-7 -2.5h-85q-10 0 -13 8l-27 59q-3 6 -6 0l-41 -59q-5 -8 -16 -8h-86q-9 0 -9 7z" />
    <glyph glyph-name="udieresis" unicode="&#xfc;" horiz-adv-x="482" 
d="M347.5 510.5q3.5 3.5 8.5 3.5h114q5 0 8 -3.5t2 -8.5l-60 -490q-1 -5 -5 -8.5t-9 -3.5h-113q-5 0 -8 3.5t-2 8.5l3 25q0 7 -6 2q-39 -46 -109 -46q-60 0 -97 33.5t-37 99.5q0 9 2 29l43 347q1 5 4.5 8.5t8.5 3.5h114q5 0 8 -3.5t2 -8.5l-39 -314q-1 -5 -1 -15
q0 -28 13.5 -44t39.5 -16q29 0 48.5 21t24.5 56l38 312q1 5 4.5 8.5zM334 594.5q-19 19.5 -19 49.5q0 38 25.5 63.5t62.5 25.5q31 0 49.5 -18.5t18.5 -49.5q0 -38 -26 -64t-62 -26q-30 0 -49 19.5zM148 594.5q-19 19.5 -19 49.5q0 38 25.5 63.5t62.5 25.5q31 0 49.5 -18.5
t18.5 -49.5q0 -38 -26 -64t-62 -26q-30 0 -49 19.5z" />
    <glyph glyph-name="yacute" unicode="&#xfd;" horiz-adv-x="449" 
d="M-5.5 -195.5q-1.5 3.5 -0.5 8.5l11 92q2 12 12 12q55 1 80.5 16.5t38.5 63.5q1 2 0 6l-78 498v2q0 12 11 12h122q10 0 12 -11l24 -311q1 -4 3 -4t3 4l101 311q3 11 14 11l121 -1q5 0 7.5 -3.5t0.5 -9.5l-213 -520q-31 -73 -58.5 -109.5t-73.5 -53.5t-127 -17h-6
q-3 0 -4.5 3.5zM214 585q-2 4 2 10l68 102q6 8 16 8h93q9 0 9 -7q0 -3 -3 -8l-85 -102q-5 -7 -14 -7h-78q-6 0 -8 4z" />
    <glyph glyph-name="thorn" unicode="&#xfe;" horiz-adv-x="482" 
d="M467 344q0 -40 -7 -86q-8 -73 -19 -107q-19 -74 -65.5 -116.5t-111.5 -42.5q-64 0 -94 49q-1 3 -3.5 2.5t-2.5 -3.5l-28 -228q-1 -5 -4.5 -8.5t-8.5 -3.5h-114q-5 0 -8 3.5t-2 8.5l108 876q1 5 4.5 8.5t8.5 3.5h113q11 0 11 -12l-26 -210q-1 -3 1 -3.5t4 1.5
q39 46 103 46q67 0 102.5 -40.5t36.5 -111.5q2 -14 2 -26zM321 257q5 51 4 86q-1 26 -16 42t-40 16q-24 0 -42.5 -16t-25.5 -41l-21 -172q1 -26 15 -42.5t39 -16.5t43.5 16t26.5 42q10 34 17 86z" />
    <glyph glyph-name="ydieresis" unicode="&#xff;" horiz-adv-x="449" 
d="M-5.5 -195.5q-1.5 3.5 -0.5 8.5l11 92q2 12 12 12q55 1 80.5 16.5t38.5 63.5q1 2 0 6l-78 498v2q0 12 11 12h122q10 0 12 -11l24 -311q1 -4 3 -4t3 4l101 311q3 11 14 11l121 -1q5 0 7.5 -3.5t0.5 -9.5l-213 -520q-31 -73 -58.5 -109.5t-73.5 -53.5t-127 -17h-6
q-3 0 -4.5 3.5zM319 599.5q-19 19.5 -19 49.5q0 38 25.5 63.5t62.5 25.5q31 0 49.5 -18.5t18.5 -49.5q0 -38 -26 -64t-62 -26q-30 0 -49 19.5zM133 599.5q-19 19.5 -19 49.5q0 38 25.5 63.5t62.5 25.5q31 0 49.5 -18.5t18.5 -49.5q0 -38 -26 -64t-62 -26q-30 0 -49 19.5z
" />
    <glyph glyph-name="Amacron" unicode="&#x100;" horiz-adv-x="559" 
d="M379 10l-11 98q0 4 -4 4h-181q-3 0 -6 -4l-34 -98q-4 -10 -14 -10h-117q-14 0 -8 13l257 677q4 10 15 10h141q11 0 12 -10l92 -677q0 -13 -12 -13h-118q-11 0 -12 10zM222 221h128q6 0 6 6l-32 290q0 4 -2 4t-3 -4l-101 -290q-1 -6 4 -6zM229 778l9 71q1 5 4.5 8.5
t8.5 3.5h226q5 0 8 -3.5t2 -8.5l-8 -71q-1 -5 -4.5 -8.5t-8.5 -3.5h-226q-11 0 -11 12z" />
    <glyph glyph-name="amacron" unicode="&#x101;" horiz-adv-x="472" 
d="M356.5 510.5q3.5 3.5 8.5 3.5h113q5 0 8 -3.5t2 -8.5l-60 -490q-1 -5 -4.5 -8.5t-8.5 -3.5h-113q-5 0 -8 3.5t-2 8.5l4 36q1 4 -1 4.5t-4 -2.5q-43 -58 -114 -58q-66 0 -101.5 42.5t-36.5 116.5q-2 24 7 107q11 83 22 112q18 71 64 111.5t113 40.5q70 0 97 -55
q2 -3 3.5 -3t1.5 4l5 34q1 5 4.5 8.5zM322 257q4 33 4 62q0 17 -1 25q0 25 -14.5 41t-39.5 16q-24 0 -42.5 -16t-26.5 -42q-11 -37 -16 -86q-7 -49 -5 -86q1 -26 16 -42t39 -16q25 0 43 16.5t26 42.5q10 33 17 85zM163 592l9 71q1 5 4.5 8.5t8.5 3.5h226q5 0 8 -3.5t2 -8.5
l-8 -71q-1 -5 -4.5 -8.5t-8.5 -3.5h-226q-11 0 -11 12z" />
    <glyph glyph-name="Abreve" unicode="&#x102;" horiz-adv-x="559" 
d="M379 10l-11 98q0 4 -4 4h-181q-3 0 -6 -4l-34 -98q-4 -10 -14 -10h-117q-14 0 -8 13l257 677q4 10 15 10h141q11 0 12 -10l92 -677q0 -13 -12 -13h-118q-11 0 -12 10zM222 221h128q6 0 6 6l-32 290q0 4 -2 4t-3 -4l-101 -290q-1 -6 4 -6zM261.5 770q-33.5 31 -31.5 81
q0 12 12 12h57q9 0 11 -11q1 -20 14.5 -33t34.5 -13t37.5 13t22.5 33q3 11 13 11h57q13 0 10 -11q-10 -50 -51 -81.5t-97 -31.5t-89.5 31z" />
    <glyph glyph-name="abreve" unicode="&#x103;" horiz-adv-x="472" 
d="M356.5 510.5q3.5 3.5 8.5 3.5h113q5 0 8 -3.5t2 -8.5l-60 -490q-1 -5 -4.5 -8.5t-8.5 -3.5h-113q-5 0 -8 3.5t-2 8.5l4 36q1 4 -1 4.5t-4 -2.5q-43 -58 -114 -58q-66 0 -101.5 42.5t-36.5 116.5q-2 24 7 107q11 83 22 112q18 71 64 111.5t113 40.5q70 0 97 -55
q2 -3 3.5 -3t1.5 4l5 34q1 5 4.5 8.5zM322 257q4 33 4 62q0 17 -1 25q0 25 -14.5 41t-39.5 16q-24 0 -42.5 -16t-26.5 -42q-11 -37 -16 -86q-7 -49 -5 -86q1 -26 16 -42t39 -16q25 0 43 16.5t26 42.5q10 33 17 85zM195.5 585q-33.5 31 -31.5 81q0 12 12 12h57q9 0 11 -11
q1 -20 14.5 -33t34.5 -13t37.5 13t22.5 33q3 11 13 11h57q13 0 10 -11q-10 -50 -51 -81.5t-97 -31.5t-89.5 31z" />
    <glyph glyph-name="Aogonek" unicode="&#x104;" horiz-adv-x="559" 
d="M379 10l-11 98q0 4 -4 4h-181q-3 0 -6 -4l-34 -98q-4 -10 -14 -10h-117q-14 0 -8 13l257 677q4 10 15 10h141q11 0 12 -10l92 -677q0 -13 -12 -13h-118q-11 0 -12 10zM222 221h128q6 0 6 6l-32 290q0 4 -2 4t-3 -4l-101 -290q-1 -6 4 -6zM496 -183q-25 -9 -54 -9
q-35 0 -58 17.5t-23 58.5q0 58 60 108q1 2 5 4q4 4 12 4h62q8 0 8 -5t-5 -10q-53 -42 -49 -75q1 -12 7.5 -18t17.5 -6q5 0 13 2q2 1 6 1q8 0 7 -9l1 -48q0 -12 -10 -15z" />
    <glyph glyph-name="aogonek" unicode="&#x105;" horiz-adv-x="502" 
d="M410 -111q8 0 8 -9l1 -48q0 -12 -11 -15q-25 -9 -54 -9q-34 0 -57 17.5t-23 58.5q0 57 62 110q2 2 2 4t-3 2h-23q-5 0 -8 3.5t-2 8.5l5 36q0 4 -2 4.5t-4 -2.5q-21 -29 -50 -43.5t-63 -14.5q-66 0 -102 42.5t-36 116.5q-1 5 -1 17q0 34 8 90q3 29 9 62t12 50
q18 70 64.5 111t112.5 41q71 0 97 -55q2 -3 4 -3t2 4l4 34q1 5 4.5 8.5t8.5 3.5h114q5 0 8 -3.5t2 -8.5l-60 -490l-2 -12h-1q-70 -49 -70 -87q0 -13 7.5 -20t19.5 -7q3 0 11 2q2 1 6 1zM332 257q5 42 5 63q0 16 -1 24q-1 26 -15 41.5t-39 15.5t-43 -16t-26 -42
q-10 -34 -17 -86q-5 -51 -4 -86q0 -26 15 -42t40 -16t43 16.5t26 42.5q11 35 16 85z" />
    <glyph glyph-name="Cacute" unicode="&#x106;" horiz-adv-x="520" 
d="M97.5 42.5q-53.5 50.5 -53.5 135.5q0 10 2 34l35 278q8 65 41.5 114.5t87 76.5t119.5 27q91 0 144.5 -49t53.5 -132q0 -10 -2 -32v-5q-1 -5 -4.5 -9t-8.5 -4l-115 -5q-11 0 -10 11l2 13q1 5 1 15q0 35 -20 55.5t-55 20.5q-39 0 -65.5 -25t-31.5 -66l-36 -293
q-1 -5 -1 -15q0 -34 20.5 -54.5t54.5 -20.5q39 0 65.5 24.5t31.5 65.5l1 13q1 11 13 11l113 -5q5 0 8 -3.5t2 -8.5v-3q-8 -64 -41.5 -113t-87 -75.5t-119.5 -26.5q-91 0 -144.5 50.5zM273 766q-2 4 2 10l68 102q6 8 16 8h93q9 0 9 -7q0 -3 -3 -8l-85 -102q-5 -7 -14 -7h-78
q-6 0 -8 4z" />
    <glyph glyph-name="cacute" unicode="&#x107;" horiz-adv-x="471" 
d="M92 34.5q-48 42.5 -51 116.5q-3 40 5 108q6 45 21 106q21 72 80 114.5t139 42.5q79 0 127.5 -41t53.5 -108q1 -4 1 -14t-1 -15q-1 -11 -13 -13l-113 -11h-2q-9 0 -9 11v10q0 4 -2 14q-4 20 -19 33t-39 13q-26 0 -44.5 -16.5t-26.5 -43.5q-9 -29 -16 -83q-5 -43 -5 -67
q0 -13 1 -19q2 -28 16 -43.5t40 -15.5q28 0 47 15.5t25 40.5l3 12q2 5 6 8.5t8 2.5l112 -10q9 -2 9 -11q0 -4 -2 -11t-3 -11q-19 -73 -77.5 -115t-141.5 -42q-81 0 -129 42.5zM229 580q-2 4 2 10l68 102q6 8 16 8h93q9 0 9 -7q0 -3 -3 -8l-85 -102q-5 -7 -14 -7h-78
q-6 0 -8 4z" />
    <glyph glyph-name="Ccircumflex" unicode="&#x108;" horiz-adv-x="520" 
d="M97.5 42.5q-53.5 50.5 -53.5 135.5q0 10 2 34l35 278q8 65 41.5 114.5t87 76.5t119.5 27q91 0 144.5 -49t53.5 -132q0 -10 -2 -32v-5q-1 -5 -4.5 -9t-8.5 -4l-115 -5q-11 0 -10 11l2 13q1 5 1 15q0 35 -20 55.5t-55 20.5q-39 0 -65.5 -25t-31.5 -66l-36 -293
q-1 -5 -1 -15q0 -34 20.5 -54.5t54.5 -20.5q39 0 65.5 24.5t31.5 65.5l1 13q1 11 13 11l113 -5q5 0 8 -3.5t2 -8.5v-3q-8 -64 -41.5 -113t-87 -75.5t-119.5 -26.5q-91 0 -144.5 50.5zM189 766q0 4 3 8l80 104q5 8 14 8h127q10 0 13 -8l55 -104q1 -2 1 -6t-3 -6.5t-7 -2.5
h-85q-10 0 -13 8l-27 59q-3 6 -6 0l-41 -59q-5 -8 -16 -8h-86q-9 0 -9 7z" />
    <glyph glyph-name="ccircumflex" unicode="&#x109;" horiz-adv-x="471" 
d="M92 34.5q-48 42.5 -51 116.5q-3 40 5 108q6 45 21 106q21 72 80 114.5t139 42.5q79 0 127.5 -41t53.5 -108q1 -4 1 -14t-1 -15q-1 -11 -13 -13l-113 -11h-2q-9 0 -9 11v10q0 4 -2 14q-4 20 -19 33t-39 13q-26 0 -44.5 -16.5t-26.5 -43.5q-9 -29 -16 -83q-5 -43 -5 -67
q0 -13 1 -19q2 -28 16 -43.5t40 -15.5q28 0 47 15.5t25 40.5l3 12q2 5 6 8.5t8 2.5l112 -10q9 -2 9 -11q0 -4 -2 -11t-3 -11q-19 -73 -77.5 -115t-141.5 -42q-81 0 -129 42.5zM144 580q0 4 3 8l80 104q5 8 14 8h127q10 0 13 -8l55 -104q1 -2 1 -6t-3 -6.5t-7 -2.5h-85
q-10 0 -13 8l-27 59q-3 6 -6 0l-41 -59q-5 -8 -16 -8h-86q-9 0 -9 7z" />
    <glyph glyph-name="Cdotaccent" unicode="&#x10a;" horiz-adv-x="520" 
d="M97.5 42.5q-53.5 50.5 -53.5 135.5q0 10 2 34l35 278q8 65 41.5 114.5t87 76.5t119.5 27q91 0 144.5 -49t53.5 -132q0 -10 -2 -32v-5q-1 -5 -4.5 -9t-8.5 -4l-115 -5q-11 0 -10 11l2 13q1 5 1 15q0 35 -20 55.5t-55 20.5q-39 0 -65.5 -25t-31.5 -66l-36 -293
q-1 -5 -1 -15q0 -34 20.5 -54.5t54.5 -20.5q39 0 65.5 24.5t31.5 65.5l1 13q1 11 13 11l113 -5q5 0 8 -3.5t2 -8.5v-3q-8 -64 -41.5 -113t-87 -75.5t-119.5 -26.5q-91 0 -144.5 50.5zM286 777.5q-19 19.5 -19 49.5q0 38 25.5 63.5t62.5 25.5q31 0 49.5 -18.5t18.5 -49.5
q0 -38 -26 -64t-62 -26q-30 0 -49 19.5z" />
    <glyph glyph-name="cdotaccent" unicode="&#x10b;" horiz-adv-x="471" 
d="M92 34.5q-48 42.5 -51 116.5q-3 40 5 108q6 45 21 106q21 72 80 114.5t139 42.5q79 0 127.5 -41t53.5 -108q1 -4 1 -14t-1 -15q-1 -11 -13 -13l-113 -11h-2q-9 0 -9 11v10q0 4 -2 14q-4 20 -19 33t-39 13q-26 0 -44.5 -16.5t-26.5 -43.5q-9 -29 -16 -83q-5 -43 -5 -67
q0 -13 1 -19q2 -28 16 -43.5t40 -15.5q28 0 47 15.5t25 40.5l3 12q2 5 6 8.5t8 2.5l112 -10q9 -2 9 -11q0 -4 -2 -11t-3 -11q-19 -73 -77.5 -115t-141.5 -42q-81 0 -129 42.5zM241 591.5q-19 19.5 -19 49.5q0 38 25.5 63.5t62.5 25.5q31 0 49.5 -18.5t18.5 -49.5
q0 -38 -26 -64t-62 -26q-30 0 -49 19.5z" />
    <glyph glyph-name="Ccaron" unicode="&#x10c;" horiz-adv-x="520" 
d="M97.5 42.5q-53.5 50.5 -53.5 135.5q0 10 2 34l35 278q8 65 41.5 114.5t87 76.5t119.5 27q91 0 144.5 -49t53.5 -132q0 -10 -2 -32v-5q-1 -5 -4.5 -9t-8.5 -4l-115 -5q-11 0 -10 11l2 13q1 5 1 15q0 35 -20 55.5t-55 20.5q-39 0 -65.5 -25t-31.5 -66l-36 -293
q-1 -5 -1 -15q0 -34 20.5 -54.5t54.5 -20.5q39 0 65.5 24.5t31.5 65.5l1 13q1 11 13 11l113 -5q5 0 8 -3.5t2 -8.5v-3q-8 -64 -41.5 -113t-87 -75.5t-119.5 -26.5q-91 0 -144.5 50.5zM208 876q0 10 11 10h86q10 0 13 -8l27 -59q3 -6 6 0l41 59q5 8 16 8h85q8 0 8 -7
q0 -3 -3 -8l-81 -104q-5 -8 -14 -8h-127q-10 0 -13 8l-54 104q-1 2 -1 5z" />
    <glyph glyph-name="ccaron" unicode="&#x10d;" horiz-adv-x="471" 
d="M92 34.5q-48 42.5 -51 116.5q-3 40 5 108q6 45 21 106q21 72 80 114.5t139 42.5q79 0 127.5 -41t53.5 -108q1 -4 1 -14t-1 -15q-1 -11 -13 -13l-113 -11h-2q-9 0 -9 11v10q0 4 -2 14q-4 20 -19 33t-39 13q-26 0 -44.5 -16.5t-26.5 -43.5q-9 -29 -16 -83q-5 -43 -5 -67
q0 -13 1 -19q2 -28 16 -43.5t40 -15.5q28 0 47 15.5t25 40.5l3 12q2 5 6 8.5t8 2.5l112 -10q9 -2 9 -11q0 -4 -2 -11t-3 -11q-19 -73 -77.5 -115t-141.5 -42q-81 0 -129 42.5zM164 690q0 10 11 10h86q10 0 13 -8l27 -59q3 -6 6 0l41 59q5 8 16 8h85q8 0 8 -7q0 -3 -3 -8
l-81 -104q-5 -8 -14 -8h-127q-10 0 -13 8l-54 104q-1 2 -1 5z" />
    <glyph glyph-name="Dcaron" unicode="&#x10e;" horiz-adv-x="531" 
d="M33 12l83 676q1 5 5 8.5t9 3.5h208q91 0 143.5 -46.5t52.5 -125.5q0 -9 -2 -31l-36 -294q-11 -92 -78 -147.5t-166 -55.5h-208q-11 0 -11 12zM188 121l80 1q36 0 61 26.5t33 70.5l32 262q1 6 1 18q0 38 -18.5 59t-52.5 21h-79q-4 0 -6 -5l-55 -448q0 -5 4 -5zM203 875
q0 10 11 10h86q10 0 13 -8l27 -59q3 -6 6 0l41 59q5 8 16 8h85q8 0 8 -7q0 -3 -3 -8l-81 -104q-5 -8 -14 -8h-127q-10 0 -13 8l-54 104q-1 2 -1 5z" />
    <glyph glyph-name="dcaron" unicode="&#x10f;" horiz-adv-x="490" 
d="M379 696.5q4 3.5 9 3.5h113q5 0 8 -3.5t2 -8.5l-83 -676q-1 -5 -4.5 -8.5t-8.5 -3.5h-113q-5 0 -8 3.5t-2 8.5l2 22q1 3 -1 4t-4 -2q-41 -44 -109 -44q-118 0 -132 159q-1 11 -1 34q0 30 5 77q5 51 21 105q50 155 174 155q34 0 57.5 -9.5t38.5 -32.5q2 -3 4 -2t2 4
l26 206q0 5 4 8.5zM321 258q4 28 4 61q0 82 -52 82q-22 0 -38.5 -14t-26.5 -40q-12 -31 -19 -89q-5 -37 -5 -64q0 -81 54 -81q43 0 65 58q11 30 18 87zM527 580q-2 4 2 10l68 102q6 8 16 8h93q9 0 9 -7q0 -3 -3 -8l-85 -102q-5 -7 -14 -7h-78q-6 0 -8 4z" />
    <glyph glyph-name="Dcroat" unicode="&#x110;" horiz-adv-x="570" 
d="M521.5 653.5q52.5 -46.5 52.5 -126.5q0 -10 -2 -30l-36 -294q-11 -92 -78 -147.5t-166 -55.5h-209q-5 0 -8 3.5t-2 8.5l37 302q2 5 -4 5h-23q-5 0 -8 3.5t-2 8.5l8 65q0 5 4 8.5t9 3.5h23q5 0 5 5l34 275q1 5 4.5 8.5t8.5 3.5h209q91 0 143.5 -46.5zM433 481q1 7 1 20
q0 36 -18.5 57t-51.5 21h-80q-2 0 -3.5 -1.5t-1.5 -3.5l-20 -161q0 -5 4 -5h57q5 0 8 -3.5t2 -8.5l-8 -65q-1 -5 -4.5 -8.5t-8.5 -3.5h-56q-6 0 -6 -5l-23 -188q0 -5 4 -5l80 1q35 0 60.5 26.5t32.5 70.5z" />
    <glyph glyph-name="dcroat" unicode="&#x111;" horiz-adv-x="490" 
d="M546 637.5q3 -3.5 2 -8.5l-8 -60q-1 -5 -4.5 -8.5t-8.5 -3.5h-27q-5 0 -5 -5l-67 -540q-1 -5 -4.5 -8.5t-8.5 -3.5h-113q-5 0 -8 3.5t-2 8.5l2 22q1 3 -1 4t-4 -2q-41 -44 -109 -44q-118 0 -132 159q-1 11 -1 34q0 30 5 77q5 51 21 105q50 155 174 155q34 0 57.5 -9.5
t38.5 -32.5q2 -3 4 -2t2 4l9 70q0 5 -4 5h-114q-5 0 -8 3.5t-2 8.5l7 60q1 5 4.5 8.5t8.5 3.5h114q5 0 5 5l6 42q0 5 4 8.5t9 3.5h113q5 0 8 -3.5t2 -8.5l-5 -42q0 -5 4 -5h28q5 0 8 -3.5zM321 258q4 28 4 61q0 82 -52 82q-22 0 -38.5 -14t-26.5 -40q-12 -31 -19 -89
q-5 -37 -5 -64q0 -81 54 -81q43 0 65 58q11 30 18 87z" />
    <glyph glyph-name="Emacron" unicode="&#x112;" horiz-adv-x="496" 
d="M513.5 582.5q-3.5 -3.5 -8.5 -3.5h-260q-4 0 -6 -5l-19 -156q0 -5 4 -5h162q5 0 8 -3.5t2 -8.5l-11 -97q-1 -5 -5 -8.5t-9 -3.5h-162q-2 0 -3.5 -1.5t-1.5 -3.5l-20 -161q0 -5 4 -5h260q11 0 11 -12l-12 -97q-1 -5 -4.5 -8.5t-8.5 -3.5h-390q-11 0 -11 12l83 676
q1 5 5 8.5t9 3.5h390q5 0 8 -3.5t2 -8.5l-12 -97q-1 -5 -4.5 -8.5zM207 778l9 71q1 5 4.5 8.5t8.5 3.5h226q5 0 8 -3.5t2 -8.5l-8 -71q-1 -5 -4.5 -8.5t-8.5 -3.5h-226q-11 0 -11 12z" />
    <glyph glyph-name="emacron" unicode="&#x113;" horiz-adv-x="475" 
d="M454 223q-1 -12 -13 -12h-257q-5 0 -5 -5q-1 -13 -1 -34q2 -28 18.5 -44t45.5 -16q24 1 42 12.5t29 32.5q7 10 16 8l100 -21q12 -3 6 -15q-29 -66 -82.5 -101.5t-125.5 -35.5q-86 0 -132 40.5t-52 116.5q-1 10 -1 32q0 31 5 76q5 54 18 98q20 76 79 121.5t140 45.5
q85 0 133.5 -47.5t48.5 -126.5q0 -55 -12 -125zM225 384.5q-19 -16.5 -27 -43.5q-6 -24 -8 -38q0 -5 5 -5h126q5 0 5 5q2 13 2 38q0 27 -15.5 43.5t-42.5 16.5q-26 0 -45 -16.5zM168 596.5q-3 3.5 -2 8.5l9 72q1 5 4.5 8.5t8.5 3.5h226q5 0 8 -3.5t2 -8.5l-9 -72
q-1 -5 -4.5 -8.5t-8.5 -3.5h-226q-5 0 -8 3.5z" />
    <glyph glyph-name="Edotaccent" unicode="&#x116;" horiz-adv-x="496" 
d="M513.5 582.5q-3.5 -3.5 -8.5 -3.5h-260q-4 0 -6 -5l-19 -156q0 -5 4 -5h162q5 0 8 -3.5t2 -8.5l-11 -97q-1 -5 -5 -8.5t-9 -3.5h-162q-2 0 -3.5 -1.5t-1.5 -3.5l-20 -161q0 -5 4 -5h260q11 0 11 -12l-12 -97q-1 -5 -4.5 -8.5t-8.5 -3.5h-390q-11 0 -11 12l83 676
q1 5 5 8.5t9 3.5h390q5 0 8 -3.5t2 -8.5l-12 -97q-1 -5 -4.5 -8.5zM281 777.5q-19 19.5 -19 49.5q0 38 25.5 63.5t62.5 25.5q31 0 49.5 -18.5t18.5 -49.5q0 -38 -26 -64t-62 -26q-30 0 -49 19.5z" />
    <glyph glyph-name="edotaccent" unicode="&#x117;" horiz-adv-x="475" 
d="M454 223q-1 -12 -13 -12h-257q-5 0 -5 -5q-1 -13 -1 -34q2 -28 18.5 -44t45.5 -16q24 1 42 12.5t29 32.5q7 10 16 8l100 -21q12 -3 6 -15q-29 -66 -82.5 -101.5t-125.5 -35.5q-86 0 -132 40.5t-52 116.5q-1 10 -1 32q0 31 5 76q5 54 18 98q20 76 79 121.5t140 45.5
q85 0 133.5 -47.5t48.5 -126.5q0 -55 -12 -125zM225 384.5q-19 -16.5 -27 -43.5q-6 -24 -8 -38q0 -5 5 -5h126q5 0 5 5q2 13 2 38q0 27 -15.5 43.5t-42.5 16.5q-26 0 -45 -16.5zM239 591.5q-19 19.5 -19 49.5q0 38 25.5 63.5t62.5 25.5q31 0 49.5 -18.5t18.5 -49.5
q0 -38 -26 -64t-62 -26q-30 0 -49 19.5z" />
    <glyph glyph-name="Eogonek" unicode="&#x118;" horiz-adv-x="496" 
d="M513.5 582.5q-3.5 -3.5 -8.5 -3.5h-260q-4 0 -6 -5l-19 -156q0 -5 4 -5h162q5 0 8 -3.5t2 -8.5l-11 -97q-1 -5 -5 -8.5t-9 -3.5h-162q-2 0 -3.5 -1.5t-1.5 -3.5l-20 -161q0 -5 4 -5h260q11 0 11 -12l-12 -97q-1 -5 -4.5 -8.5t-8.5 -3.5h-148q-3 0 -7 -2q-51 -43 -51 -74
q0 -13 7 -20t19 -7q4 0 12 2q2 1 6 1q8 0 8 -9v-48q0 -11 -10 -15q-28 -8 -53 -8q-35 0 -58.5 17t-23.5 57q0 53 51 100q2 2 1 4t-4 2h-139q-11 0 -11 12l83 676q1 5 5 8.5t9 3.5h390q5 0 8 -3.5t2 -8.5l-12 -97q-1 -5 -4.5 -8.5z" />
    <glyph glyph-name="eogonek" unicode="&#x119;" horiz-adv-x="475" 
d="M454 223q-1 -12 -13 -12h-257q-5 0 -5 -5q-1 -13 -1 -34q2 -28 18.5 -44t45.5 -16q24 1 42 12.5t29 32.5q7 10 16 8l100 -21q12 -3 6 -15q-25 -56 -67 -90t-97 -43l-6 -3q-50 -40 -50 -73q0 -14 7.5 -20.5t19.5 -6.5q7 0 11 1q2 1 6 1q7 0 7 -9l1 -48q0 -11 -10 -15
q-28 -8 -53 -8q-35 0 -58.5 17t-23.5 57q0 54 51 102q6 4 -1 6q-60 12 -92 51t-37 101q-1 10 -1 32q0 31 5 76q5 54 18 98q20 76 79 121.5t140 45.5q85 0 133.5 -47.5t48.5 -126.5q0 -55 -12 -125zM225 384.5q-19 -16.5 -27 -43.5q-6 -24 -8 -38q0 -5 5 -5h126q5 0 5 5
q2 13 2 38q0 27 -15.5 43.5t-42.5 16.5q-26 0 -45 -16.5z" />
    <glyph glyph-name="Ecaron" unicode="&#x11a;" horiz-adv-x="496" 
d="M513.5 582.5q-3.5 -3.5 -8.5 -3.5h-260q-4 0 -6 -5l-19 -156q0 -5 4 -5h162q5 0 8 -3.5t2 -8.5l-11 -97q-1 -5 -5 -8.5t-9 -3.5h-162q-2 0 -3.5 -1.5t-1.5 -3.5l-20 -161q0 -5 4 -5h260q11 0 11 -12l-12 -97q-1 -5 -4.5 -8.5t-8.5 -3.5h-390q-11 0 -11 12l83 676
q1 5 5 8.5t9 3.5h390q5 0 8 -3.5t2 -8.5l-12 -97q-1 -5 -4.5 -8.5zM203 876q0 10 11 10h86q10 0 13 -8l27 -59q3 -6 6 0l41 59q5 8 16 8h85q8 0 8 -7q0 -3 -3 -8l-81 -104q-5 -8 -14 -8h-127q-10 0 -13 8l-54 104q-1 2 -1 5z" />
    <glyph glyph-name="ecaron" unicode="&#x11b;" horiz-adv-x="475" 
d="M454 223q-1 -12 -13 -12h-257q-5 0 -5 -5q-1 -13 -1 -34q2 -28 18.5 -44t45.5 -16q24 1 42 12.5t29 32.5q7 10 16 8l100 -21q12 -3 6 -15q-29 -66 -82.5 -101.5t-125.5 -35.5q-86 0 -132 40.5t-52 116.5q-1 10 -1 32q0 31 5 76q5 54 18 98q20 76 79 121.5t140 45.5
q85 0 133.5 -47.5t48.5 -126.5q0 -55 -12 -125zM225 384.5q-19 -16.5 -27 -43.5q-6 -24 -8 -38q0 -5 5 -5h126q5 0 5 5q2 13 2 38q0 27 -15.5 43.5t-42.5 16.5q-26 0 -45 -16.5zM160 689q0 10 11 10h86q10 0 13 -8l27 -59q3 -6 6 0l41 59q5 8 16 8h85q8 0 8 -7q0 -3 -3 -8
l-81 -104q-5 -8 -14 -8h-127q-10 0 -13 8l-54 104q-1 2 -1 5z" />
    <glyph glyph-name="Gcircumflex" unicode="&#x11c;" horiz-adv-x="523" 
d="M97.5 42.5q-53.5 50.5 -53.5 134.5q0 11 2 33l35 281q8 65 41.5 114t87 76t119.5 27q91 0 145 -49.5t54 -129.5q0 -9 -2 -29l-3 -22q-1 -5 -4.5 -8.5t-8.5 -3.5h-113q-5 0 -8 3.5t-2 8.5l2 21q1 4 1 13q0 33 -20 54t-55 21q-39 0 -66 -26t-32 -68l-35 -286q-1 -5 -1 -15
q0 -36 21.5 -57.5t56.5 -21.5q38 0 64 23t30 63l8 62q0 5 -4 5h-76q-5 0 -8 3.5t-2 8.5l11 91q1 5 4.5 8.5t8.5 3.5h205q5 0 8 -3.5t2 -8.5l-20 -159q-12 -100 -80 -159t-168 -59q-91 0 -144.5 50.5zM189 769q0 4 3 8l80 104q5 8 14 8h127q10 0 13 -8l55 -104q1 -2 1 -6
t-3 -6.5t-7 -2.5h-85q-10 0 -13 8l-27 59q-3 6 -6 0l-41 -59q-5 -8 -16 -8h-86q-9 0 -9 7z" />
    <glyph glyph-name="gcircumflex" unicode="&#x11d;" horiz-adv-x="483" 
d="M353.5 510.5q3.5 3.5 8.5 3.5h113q11 0 11 -12l-58 -467q-15 -120 -86.5 -178.5t-191.5 -58.5q-26 0 -55 3q-12 1 -10 13l15 101q1 11 14 11q15 -2 41 -2q65 0 97 28.5t40 90.5v0q1 3 -1 4t-4 -2q-42 -43 -104 -43q-64 0 -102.5 38t-41.5 113q-1 5 -1 17q0 26 7 89
q12 83 23 112q19 71 64.5 111t111.5 40q65 0 96 -45q1 -3 3 -2t3 4l3 23q1 5 4.5 8.5zM319 259q6 56 6 83q-1 27 -15.5 43t-40.5 16q-25 0 -43 -16t-27 -43q-10 -34 -16 -83q-5 -41 -5 -81q2 -27 17 -43t41 -16t44 16t25 42q9 35 14 82zM152 580q0 4 3 8l80 104q5 8 14 8
h127q10 0 13 -8l55 -104q1 -2 1 -6t-3 -6.5t-7 -2.5h-85q-10 0 -13 8l-27 59q-3 6 -6 0l-41 -59q-5 -8 -16 -8h-86q-9 0 -9 7z" />
    <glyph glyph-name="Gbreve" unicode="&#x11e;" horiz-adv-x="523" 
d="M97.5 42.5q-53.5 50.5 -53.5 134.5q0 11 2 33l35 281q8 65 41.5 114t87 76t119.5 27q91 0 145 -49.5t54 -129.5q0 -9 -2 -29l-3 -22q-1 -5 -4.5 -8.5t-8.5 -3.5h-113q-5 0 -8 3.5t-2 8.5l2 21q1 4 1 13q0 33 -20 54t-55 21q-39 0 -66 -26t-32 -68l-35 -286q-1 -5 -1 -15
q0 -36 21.5 -57.5t56.5 -21.5q38 0 64 23t30 63l8 62q0 5 -4 5h-76q-5 0 -8 3.5t-2 8.5l11 91q1 5 4.5 8.5t8.5 3.5h205q5 0 8 -3.5t2 -8.5l-20 -159q-12 -100 -80 -159t-168 -59q-91 0 -144.5 50.5zM244.5 773q-33.5 31 -31.5 81q0 12 12 12h57q9 0 11 -11q1 -20 14.5 -33
t34.5 -13t37.5 13t22.5 33q3 11 13 11h57q13 0 10 -11q-10 -50 -51 -81.5t-97 -31.5t-89.5 31z" />
    <glyph glyph-name="gbreve" unicode="&#x11f;" horiz-adv-x="483" 
d="M353.5 510.5q3.5 3.5 8.5 3.5h113q11 0 11 -12l-58 -467q-15 -120 -86.5 -178.5t-191.5 -58.5q-26 0 -55 3q-12 1 -10 13l15 101q1 11 14 11q15 -2 41 -2q65 0 97 28.5t40 90.5v0q1 3 -1 4t-4 -2q-42 -43 -104 -43q-64 0 -102.5 38t-41.5 113q-1 5 -1 17q0 26 7 89
q12 83 23 112q19 71 64.5 111t111.5 40q65 0 96 -45q1 -3 3 -2t3 4l3 23q1 5 4.5 8.5zM319 259q6 56 6 83q-1 27 -15.5 43t-40.5 16q-25 0 -43 -16t-27 -43q-10 -34 -16 -83q-5 -41 -5 -81q2 -27 17 -43t41 -16t44 16t25 42q9 35 14 82zM207.5 585q-33.5 31 -31.5 81
q0 12 12 12h57q9 0 11 -11q1 -20 14.5 -33t34.5 -13t37.5 13t22.5 33q3 11 13 11h57q13 0 10 -11q-10 -50 -51 -81.5t-97 -31.5t-89.5 31z" />
    <glyph glyph-name="Gdotaccent" unicode="&#x120;" horiz-adv-x="523" 
d="M97.5 42.5q-53.5 50.5 -53.5 134.5q0 11 2 33l35 281q8 65 41.5 114t87 76t119.5 27q91 0 145 -49.5t54 -129.5q0 -9 -2 -29l-3 -22q-1 -5 -4.5 -8.5t-8.5 -3.5h-113q-5 0 -8 3.5t-2 8.5l2 21q1 4 1 13q0 33 -20 54t-55 21q-39 0 -66 -26t-32 -68l-35 -286q-1 -5 -1 -15
q0 -36 21.5 -57.5t56.5 -21.5q38 0 64 23t30 63l8 62q0 5 -4 5h-76q-5 0 -8 3.5t-2 8.5l11 91q1 5 4.5 8.5t8.5 3.5h205q5 0 8 -3.5t2 -8.5l-20 -159q-12 -100 -80 -159t-168 -59q-91 0 -144.5 50.5zM286 780.5q-19 19.5 -19 49.5q0 38 25.5 63.5t62.5 25.5q31 0 49.5 -18.5
t18.5 -49.5q0 -38 -26 -64t-62 -26q-30 0 -49 19.5z" />
    <glyph glyph-name="gdotaccent" unicode="&#x121;" horiz-adv-x="483" 
d="M353.5 510.5q3.5 3.5 8.5 3.5h113q11 0 11 -12l-58 -467q-15 -120 -86.5 -178.5t-191.5 -58.5q-26 0 -55 3q-12 1 -10 13l15 101q1 11 14 11q15 -2 41 -2q65 0 97 28.5t40 90.5v0q1 3 -1 4t-4 -2q-42 -43 -104 -43q-64 0 -102.5 38t-41.5 113q-1 5 -1 17q0 26 7 89
q12 83 23 112q19 71 64.5 111t111.5 40q65 0 96 -45q1 -3 3 -2t3 4l3 23q1 5 4.5 8.5zM319 259q6 56 6 83q-1 27 -15.5 43t-40.5 16q-25 0 -43 -16t-27 -43q-10 -34 -16 -83q-5 -41 -5 -81q2 -27 17 -43t41 -16t44 16t25 42q9 35 14 82zM250 591.5q-19 19.5 -19 49.5
q0 38 25.5 63.5t62.5 25.5q31 0 49.5 -18.5t18.5 -49.5q0 -38 -26 -64t-62 -26q-30 0 -49 19.5z" />
    <glyph glyph-name="uni0122" unicode="&#x122;" horiz-adv-x="523" 
d="M97.5 42.5q-53.5 50.5 -53.5 134.5q0 11 2 33l35 281q8 65 41.5 114t87 76t119.5 27q91 0 145 -49.5t54 -129.5q0 -9 -2 -29l-3 -22q-1 -5 -4.5 -8.5t-8.5 -3.5h-113q-5 0 -8 3.5t-2 8.5l2 21q1 4 1 13q0 33 -20 54t-55 21q-39 0 -66 -26t-32 -68l-35 -286q-1 -5 -1 -15
q0 -36 21.5 -57.5t56.5 -21.5q38 0 64 23t30 63l8 62q0 5 -4 5h-76q-5 0 -8 3.5t-2 8.5l11 91q1 5 4.5 8.5t8.5 3.5h205q5 0 8 -3.5t2 -8.5l-20 -159q-12 -100 -80 -159t-168 -59q-91 0 -144.5 50.5zM124 -178q-2 4 2 10l68 102q6 8 16 8h93q9 0 9 -7q0 -3 -3 -8l-85 -102
q-5 -7 -14 -7h-78q-6 0 -8 4z" />
    <glyph glyph-name="uni0123" unicode="&#x123;" horiz-adv-x="483" 
d="M408 684q2 -4 -2 -10l-67 -102q-6 -8 -16 -8h-94q-8 0 -8 7q0 4 3 8l85 102q5 7 14 7h77q6 0 8 -4zM353.5 510.5q3.5 3.5 8.5 3.5h113q11 0 11 -12l-58 -467q-15 -120 -86.5 -178.5t-191.5 -58.5q-26 0 -55 3q-12 1 -10 13l15 101q1 11 14 11q15 -2 41 -2q65 0 97 28.5
t40 90.5v0q1 3 -1 4t-4 -2q-42 -43 -104 -43q-64 0 -102.5 38t-41.5 113q-1 5 -1 17q0 26 7 89q12 83 23 112q19 71 64.5 111t111.5 40q65 0 96 -45q1 -3 3 -2t3 4l3 23q1 5 4.5 8.5zM319 259q6 56 6 83q-1 27 -15.5 43t-40.5 16q-25 0 -43 -16t-27 -43q-10 -34 -16 -83
q-5 -41 -5 -81q2 -27 17 -43t41 -16t44 16t25 42q9 35 14 82z" />
    <glyph glyph-name="Hcircumflex" unicode="&#x124;" horiz-adv-x="538" 
d="M422.5 696.5q3.5 3.5 8.5 3.5h114q5 0 8 -3.5t2 -8.5l-83 -676q-1 -5 -4.5 -8.5t-8.5 -3.5h-114q-5 0 -8 3.5t-2 8.5l34 274q0 5 -4 5h-156q-5 0 -5 -5l-34 -274q-1 -5 -4.5 -8.5t-8.5 -3.5h-113q-11 0 -11 12l83 676q1 5 5 8.5t9 3.5h113q5 0 8 -3.5t2 -8.5l-33 -270
q0 -5 4 -5h156q2 0 3.5 1.5t1.5 3.5l33 270q1 5 4.5 8.5zM197 767q0 4 3 8l80 104q5 8 14 8h127q10 0 13 -8l55 -104q1 -2 1 -6t-3 -6.5t-7 -2.5h-85q-10 0 -13 8l-27 59q-3 6 -6 0l-41 -59q-5 -8 -16 -8h-86q-9 0 -9 7z" />
    <glyph glyph-name="hcircumflex" unicode="&#x125;" horiz-adv-x="482" 
d="M432 485q34 -37 34 -103q0 -23 -2 -36l-41 -334q0 -5 -4 -8.5t-9 -3.5h-113q-5 0 -8 3.5t-2 8.5l38 314q1 5 1 15q0 28 -14 44t-39 16q-28 0 -47.5 -20.5t-24.5 -55.5l-39 -313q0 -5 -4 -8.5t-9 -3.5h-113q-5 0 -8 3.5t-2 8.5l83 676q1 5 4.5 8.5t8.5 3.5h113q5 0 8 -3.5
t2 -8.5l-26 -214q0 -3 2 -3.5t5 3.5q41 48 109 48q63 0 97 -37zM175 758q0 4 3 8l80 104q5 8 14 8h127q10 0 13 -8l55 -104q1 -2 1 -6t-3 -6.5t-7 -2.5h-85q-10 0 -13 8l-27 59q-3 6 -6 0l-41 -59q-5 -8 -16 -8h-86q-9 0 -9 7z" />
    <glyph glyph-name="Hbar" unicode="&#x126;" horiz-adv-x="538" 
d="M592 599.5q3 -3.5 2 -8.5l-8 -72q-1 -5 -5 -8.5t-9 -3.5h-34q-6 0 -6 -5l-60 -490q-1 -5 -4.5 -8.5t-8.5 -3.5h-114q-5 0 -8 3.5t-2 8.5l34 274q0 5 -4 5h-156q-5 0 -5 -5l-34 -274q-1 -5 -4.5 -8.5t-8.5 -3.5h-113q-11 0 -11 12l61 490q0 5 -5 5h-35q-5 0 -8 3.5t-2 8.5
l9 72q1 5 4.5 8.5t8.5 3.5h35q4 0 6 5l9 80q1 5 5 8.5t9 3.5h113q5 0 8 -3.5t2 -8.5l-10 -80q0 -5 5 -5h155q5 0 5 5l10 80q1 5 4.5 8.5t8.5 3.5h114q5 0 8 -3.5t2 -8.5l-10 -80q0 -5 4 -5h35q5 0 8 -3.5zM383.5 414.5q1.5 1.5 1.5 3.5l10 84q2 5 -4 5h-155q-4 0 -6 -5
l-10 -84q0 -5 4 -5h156q2 0 3.5 1.5z" />
    <glyph glyph-name="hbar" unicode="&#x127;" horiz-adv-x="482" 
d="M432 485q34 -37 34 -103q0 -23 -2 -36l-41 -334q0 -5 -4 -8.5t-9 -3.5h-113q-5 0 -8 3.5t-2 8.5l38 314q1 5 1 15q0 28 -14 44t-39 16q-28 0 -47.5 -20.5t-24.5 -55.5l-39 -313q0 -5 -4 -8.5t-9 -3.5h-113q-5 0 -8 3.5t-2 8.5l65 532q0 5 -4 5h-37q-5 0 -8 3.5t-2 8.5
l7 61q1 5 4.5 8.5t8.5 3.5h37q4 0 6 5l6 49q1 5 4.5 8.5t8.5 3.5h113q5 0 8 -3.5t2 -8.5l-6 -49q0 -5 5 -5h104q5 0 8 -3.5t2 -8.5l-8 -61q-1 -5 -4.5 -8.5t-8.5 -3.5h-104q-5 0 -5 -5l-9 -70q0 -3 2 -3.5t5 3.5q41 48 109 48q63 0 97 -37z" />
    <glyph glyph-name="Itilde" unicode="&#x128;" horiz-adv-x="239" 
d="M33 12l83 676q1 5 5 8.5t9 3.5h113q5 0 8 -3.5t2 -8.5l-83 -676q-1 -5 -4.5 -8.5t-8.5 -3.5h-113q-11 0 -11 12zM229 770.5q-12 4.5 -29 13.5q-4 3 -13 8t-15.5 7t-13.5 2q-14 0 -24.5 -5t-21.5 -17q-9 -11 -16 -2l-36 36q-4 6 -4 9q0 4 3 8q18 31 45 48t57 17
q17 0 31 -5.5t33 -16.5q3 -2 11 -7.5t15.5 -8t14.5 -2.5q27 0 44 21q9 12 16 3l34 -35q4 -6 4 -9q0 -4 -3 -9q-19 -30 -46.5 -45t-57.5 -15q-16 0 -28 4.5z" />
    <glyph glyph-name="itilde" unicode="&#x129;" horiz-adv-x="207" 
d="M19 3.5q-3 3.5 -2 8.5l60 490q1 5 4.5 8.5t8.5 3.5h114q5 0 8 -3.5t2 -8.5l-60 -490q-1 -5 -4.5 -8.5t-8.5 -3.5h-114q-5 0 -8 3.5zM190 584.5q-12 4.5 -29 13.5q-4 3 -13 8t-15.5 7t-13.5 2q-14 0 -24.5 -5t-21.5 -17q-9 -11 -16 -2l-36 36q-4 6 -4 9q0 4 3 8
q18 31 45 48t57 17q17 0 31 -5.5t33 -16.5q3 -2 11 -7.5t15.5 -8t14.5 -2.5q27 0 44 21q9 12 16 3l34 -35q4 -6 4 -9q0 -4 -3 -9q-19 -30 -46.5 -45t-57.5 -15q-16 0 -28 4.5z" />
    <glyph glyph-name="Imacron" unicode="&#x12a;" horiz-adv-x="239" 
d="M33 12l83 676q1 5 5 8.5t9 3.5h113q5 0 8 -3.5t2 -8.5l-83 -676q-1 -5 -4.5 -8.5t-8.5 -3.5h-113q-11 0 -11 12zM69 778l9 71q1 5 4.5 8.5t8.5 3.5h226q5 0 8 -3.5t2 -8.5l-8 -71q-1 -5 -4.5 -8.5t-8.5 -3.5h-226q-11 0 -11 12z" />
    <glyph glyph-name="imacron" unicode="&#x12b;" horiz-adv-x="207" 
d="M19 3.5q-3 3.5 -2 8.5l60 490q1 5 4.5 8.5t8.5 3.5h114q5 0 8 -3.5t2 -8.5l-60 -490q-1 -5 -4.5 -8.5t-8.5 -3.5h-114q-5 0 -8 3.5zM30 592l9 71q1 5 4.5 8.5t8.5 3.5h226q5 0 8 -3.5t2 -8.5l-8 -71q-1 -5 -4.5 -8.5t-8.5 -3.5h-226q-11 0 -11 12z" />
    <glyph glyph-name="ibreve" unicode="&#x12d;" horiz-adv-x="207" 
d="M19 3.5q-3 3.5 -2 8.5l60 490q1 5 4.5 8.5t8.5 3.5h114q5 0 8 -3.5t2 -8.5l-60 -490q-1 -5 -4.5 -8.5t-8.5 -3.5h-114q-5 0 -8 3.5zM66 594q-33 28 -33 75q0 10 2.5 14t9.5 4h54q9 0 11 -11q1 -20 15.5 -33t36.5 -13t39.5 13t24.5 33q3 11 13 11h53q12 0 10 -11
q-10 -49 -51 -79.5t-97 -30.5q-55 0 -88 28z" />
    <glyph glyph-name="Iogonek" unicode="&#x12e;" horiz-adv-x="229" 
d="M28 12l83 676q1 5 5 8.5t9 3.5h113q5 0 8 -3.5t2 -8.5l-83 -676q-1 -5 -4.5 -8.5t-8.5 -3.5h-113q-11 0 -11 12zM137 -183q-25 -9 -54 -9q-35 0 -58 17.5t-23 58.5q0 58 60 108q1 2 5 4q4 4 12 4h62q8 0 8 -5q0 -4 -6 -10q-52 -42 -48 -75q1 -12 7.5 -18t17.5 -6
q5 0 13 2q2 1 6 1q8 0 7 -9l1 -48q0 -12 -10 -15z" />
    <glyph glyph-name="iogonek" unicode="&#x12f;" horiz-adv-x="238" 
d="M39 3.5q-3 3.5 -2 8.5l60 490q1 5 4.5 8.5t8.5 3.5h114q5 0 8 -3.5t2 -8.5l-60 -490q-1 -5 -4.5 -8.5t-8.5 -3.5h-114q-5 0 -8 3.5zM125 591.5q-19 19.5 -19 49.5q0 38 25.5 63.5t62.5 25.5q31 0 49.5 -18.5t18.5 -49.5q0 -38 -26 -64t-62 -26q-30 0 -49 19.5zM146 -183
q-25 -9 -54 -9q-35 0 -58 17.5t-23 58.5q0 58 60 108q1 2 5 4q4 4 12 4h62q8 0 8 -5q0 -4 -6 -10q-52 -42 -48 -75q1 -12 7.5 -18t17.5 -6q5 0 13 2q2 1 6 1q8 0 7 -9l1 -48q0 -12 -10 -15z" />
    <glyph glyph-name="Idotaccent" unicode="&#x130;" horiz-adv-x="239" 
d="M33 12l83 676q1 5 5 8.5t9 3.5h113q5 0 8 -3.5t2 -8.5l-83 -676q-1 -5 -4.5 -8.5t-8.5 -3.5h-113q-11 0 -11 12zM144 777.5q-19 19.5 -19 49.5q0 38 25.5 63.5t62.5 25.5q31 0 49.5 -18.5t18.5 -49.5q0 -38 -26 -64t-62 -26q-30 0 -49 19.5z" />
    <glyph glyph-name="dotlessi" unicode="&#x131;" horiz-adv-x="207" 
d="M19 3.5q-3 3.5 -2 8.5l60 490q1 5 4.5 8.5t8.5 3.5h114q5 0 8 -3.5t2 -8.5l-60 -490q-1 -5 -4.5 -8.5t-8.5 -3.5h-114q-5 0 -8 3.5z" />
    <glyph glyph-name="ij" unicode="&#x133;" horiz-adv-x="449" 
d="M116.5 591q-18.5 19 -18.5 49q0 39 25 64.5t62 25.5q31 0 49.5 -18.5t18.5 -49.5q0 -38 -26 -64t-62 -26q-30 0 -48.5 19zM31 3.5q-3 3.5 -2 8.5l60 490q1 5 4.5 8.5t8.5 3.5h113q11 0 11 -12l-61 -490q0 -5 -4 -8.5t-9 -3.5h-113q-5 0 -8 3.5zM337 591.5
q-19 19.5 -19 49.5q0 38 25.5 63.5t62.5 25.5q30 0 48.5 -18.5t18.5 -49.5q0 -38 -25.5 -64t-61.5 -26q-30 0 -49 19.5zM122 -192l12 96q2 13 13 11q50 -1 73 19t28 65l61 503q1 5 4.5 8.5t8.5 3.5h113q11 0 11 -12l-62 -502q-10 -77 -32 -120.5t-73.5 -64t-146.5 -19.5
q-12 0 -10 12z" />
    <glyph glyph-name="Jcircumflex" unicode="&#x134;" horiz-adv-x="502" 
d="M71 39.5q-52 47.5 -52 128.5q0 10 2 32l8 66q1 5 4.5 8.5t8.5 3.5h113q11 0 11 -12l-9 -67q-1 -5 -1 -14q0 -33 19 -52.5t52 -19.5q36 0 62 24t30 62l60 489q1 5 4.5 8.5t8.5 3.5h114q5 0 8 -3.5t2 -8.5l-60 -488q-7 -62 -40.5 -109t-86.5 -73t-117 -26q-89 0 -141 47.5z
M309 767q0 4 3 8l80 104q5 8 14 8h127q10 0 13 -8l55 -104q1 -2 1 -6t-3 -6.5t-7 -2.5h-85q-10 0 -13 8l-27 59q-3 6 -6 0l-41 -59q-5 -8 -16 -8h-86q-9 0 -9 7z" />
    <glyph glyph-name="jcircumflex" unicode="&#x135;" horiz-adv-x="231" 
d="M-99 -192l12 96q2 13 13 11q50 -1 73 19t28 65l61 503q1 5 4.5 8.5t8.5 3.5h114q11 0 11 -12l-62 -502q-10 -77 -32.5 -120.5t-74 -64t-146.5 -19.5q-12 0 -10 12zM19 580q0 4 3 8l80 104q5 8 14 8h127q10 0 13 -8l55 -104q1 -2 1 -6t-3 -6.5t-7 -2.5h-85q-10 0 -13 8
l-27 59q-3 6 -6 0l-41 -59q-5 -8 -16 -8h-86q-9 0 -9 7z" />
    <glyph glyph-name="uni0136" unicode="&#x136;" horiz-adv-x="542" 
d="M33 12l83 676q1 5 5 8.5t9 3.5h113q5 0 8 -3.5t2 -8.5l-32 -266q-1 -3 1.5 -4t3.5 2l207 272q6 8 15 8h125q9 0 9 -6q0 -3 -3 -8l-215 -287q-1 -2 -1 -7l144 -378q1 -2 1 -5q0 -9 -11 -9h-125q-9 0 -12 9l-104 274q-3 6 -7 0l-52 -65q-2 -4 -2 -6l-25 -200
q-1 -5 -4.5 -8.5t-8.5 -3.5h-113q-11 0 -11 12zM144 -170q-2 4 2 10l68 102q6 8 16 8h93q9 0 9 -7q0 -3 -3 -8l-85 -102q-5 -7 -14 -7h-78q-6 0 -8 4z" />
    <glyph glyph-name="uni0137" unicode="&#x137;" horiz-adv-x="476" 
d="M28 3.5q-3 3.5 -2 8.5l83 676q1 5 4.5 8.5t8.5 3.5h113q5 0 8 -3.5t2 -8.5l-41 -334q0 -3 2 -4t4 2l128 155q5 7 14 7h123q9 0 9 -6q0 -5 -4 -9l-134 -164q-3 -3 -1 -7l93 -314l1 -4q0 -10 -11 -10h-120q-5 0 -8 3t-4 7l-52 215q-2 6 -7 1l-54 -66q-3 -3 -3 -6l-18 -142
q0 -5 -4 -8.5t-9 -3.5h-113q-5 0 -8 3.5zM110 -170q-2 4 2 10l68 102q6 8 16 8h93q9 0 9 -7q0 -3 -3 -8l-85 -102q-5 -7 -14 -7h-78q-6 0 -8 4z" />
    <glyph glyph-name="Lacute" unicode="&#x139;" horiz-adv-x="484" 
d="M33 12l83 676q1 5 5 8.5t9 3.5h113q5 0 8 -3.5t2 -8.5l-69 -562q0 -5 4 -5h260q11 0 11 -12l-12 -97q-1 -5 -4.5 -8.5t-8.5 -3.5h-390q-11 0 -11 12zM132 766q-2 4 2 10l68 102q6 8 16 8h93q9 0 9 -7q0 -3 -3 -8l-85 -102q-5 -7 -14 -7h-78q-6 0 -8 4z" />
    <glyph glyph-name="lacute" unicode="&#x13a;" horiz-adv-x="220" 
d="M26 3.5q-3 3.5 -2 8.5l83 676q1 5 4.5 8.5t8.5 3.5h113q11 0 11 -12l-83 -676q-1 -5 -5 -8.5t-9 -3.5h-113q-5 0 -8 3.5zM123 766q-2 4 2 10l68 102q6 8 16 8h93q9 0 9 -7q0 -3 -3 -8l-85 -102q-5 -7 -14 -7h-78q-6 0 -8 4z" />
    <glyph glyph-name="uni013B" unicode="&#x13b;" horiz-adv-x="484" 
d="M33 12l83 676q1 5 5 8.5t9 3.5h113q5 0 8 -3.5t2 -8.5l-69 -562q0 -5 4 -5h260q11 0 11 -12l-12 -97q-1 -5 -4.5 -8.5t-8.5 -3.5h-390q-11 0 -11 12zM98 -170q-2 4 2 10l68 102q6 8 16 8h93q9 0 9 -7q0 -3 -3 -8l-85 -102q-5 -7 -14 -7h-78q-6 0 -8 4z" />
    <glyph glyph-name="uni013C" unicode="&#x13c;" horiz-adv-x="220" 
d="M26 3.5q-3 3.5 -2 8.5l83 676q1 5 4.5 8.5t8.5 3.5h113q11 0 11 -12l-83 -676q-1 -5 -5 -8.5t-9 -3.5h-113q-5 0 -8 3.5zM-57 -170q-2 4 2 10l68 102q6 8 16 8h93q9 0 9 -7q0 -3 -3 -8l-85 -102q-5 -7 -14 -7h-78q-6 0 -8 4z" />
    <glyph glyph-name="Lcaron" unicode="&#x13d;" horiz-adv-x="485" 
d="M33 12l83 676q1 5 5 8.5t9 3.5h113q5 0 8 -3.5t2 -8.5l-69 -562q0 -5 4 -5h260q11 0 11 -12l-12 -97q-1 -5 -4.5 -8.5t-8.5 -3.5h-390q-11 0 -11 12zM286 580q-2 4 2 10l68 102q6 8 16 8h93q9 0 9 -7q0 -3 -3 -8l-85 -102q-5 -7 -14 -7h-78q-6 0 -8 4z" />
    <glyph glyph-name="lcaron" unicode="&#x13e;" horiz-adv-x="408" 
d="M26 3.5q-3 3.5 -2 8.5l83 676q1 5 4.5 8.5t8.5 3.5h113q11 0 11 -12l-83 -676q-1 -5 -5 -8.5t-9 -3.5h-113q-5 0 -8 3.5zM256 580q-2 4 2 10l68 102q6 8 16 8h93q9 0 9 -7q0 -3 -3 -8l-85 -102q-5 -7 -14 -7h-78q-6 0 -8 4z" />
    <glyph glyph-name="ldot" unicode="&#x140;" horiz-adv-x="237" 
d="M34 3.5q-3 3.5 -2 8.5l83 676q1 5 4.5 8.5t8.5 3.5h113q11 0 11 -12l-83 -676q-1 -5 -5 -8.5t-9 -3.5h-113q-5 0 -8 3.5zM144 777.5q-19 19.5 -19 49.5q0 38 25.5 63.5t62.5 25.5q31 0 49.5 -18.5t18.5 -49.5q0 -38 -26 -64t-62 -26q-30 0 -49 19.5z" />
    <glyph glyph-name="Lslash" unicode="&#x141;" horiz-adv-x="552" 
d="M256 121h261q5 0 8 -3.5t2 -8.5l-11 -97q-1 -5 -5 -8.5t-9 -3.5h-390q-11 0 -11 12l22 176q0 3 -1.5 4t-3.5 -1l-64 -48q-6 -4 -8 -4q-5 0 -8 5l-45 63q-2 2 -2 7q0 6 5 10l142 109q1 1 4 6l42 349q1 5 4.5 8.5t8.5 3.5h114q5 0 8 -3.5t2 -8.5l-28 -228q0 -7 6 -3
l159 123q6 4 9 4t8 -5l43 -63q3 -4 3 -8t-6 -9l-237 -183q-3 -1 -3 -6l-23 -184q0 -5 4 -5z" />
    <glyph glyph-name="lslash" unicode="&#x142;" horiz-adv-x="399" 
d="M413 401q0 -7 -8 -12l-120 -63q-4 -3 -4 -6l-38 -308q-1 -5 -4.5 -8.5t-8.5 -3.5h-114q-5 0 -8 3.5t-2 8.5l28 227q1 3 -1 4.5t-4 -0.5l-53 -28q-4 -2 -7 -2q-8 0 -9 7l-26 70q-1 2 -1 5q0 7 7 11l106 57q4 2 4 6l39 319q1 5 4.5 8.5t8.5 3.5h114q5 0 8 -3.5t2 -8.5
l-29 -238q-1 -3 1 -4.5t4 0.5l66 35q4 2 6 2q5 0 9 -6l29 -71q1 -2 1 -5z" />
    <glyph glyph-name="Nacute" unicode="&#x143;" horiz-adv-x="572" 
d="M454.5 696.5q3.5 3.5 8.5 3.5h113q5 0 8 -3.5t2 -8.5l-83 -676q-1 -5 -4.5 -8.5t-8.5 -3.5h-118q-10 0 -13 9l-135 407q-2 3 -4 3t-2 -4l-49 -403q-1 -5 -4.5 -8.5t-8.5 -3.5h-112q-11 0 -11 12l83 676q1 5 5 8.5t9 3.5h117q9 0 12 -9l136 -407q1 -3 3 -3t3 4l49 403
q1 5 4.5 8.5zM294 767q-2 4 2 10l68 102q6 8 16 8h93q9 0 9 -7q0 -3 -3 -8l-85 -102q-5 -7 -14 -7h-78q-6 0 -8 4z" />
    <glyph glyph-name="nacute" unicode="&#x144;" horiz-adv-x="482" 
d="M432 485q34 -37 34 -103q0 -23 -2 -36l-41 -334q0 -5 -4 -8.5t-9 -3.5h-113q-5 0 -8 3.5t-2 8.5l38 314q1 5 1 15q0 28 -14 44t-39 16q-28 0 -47.5 -20.5t-24.5 -55.5l-39 -313q0 -5 -4 -8.5t-9 -3.5h-113q-5 0 -8 3.5t-2 8.5l60 490q1 5 4.5 8.5t8.5 3.5h113
q5 0 8.5 -3.5t2.5 -8.5l-4 -28q0 -3 2 -3.5t5 3.5q41 48 109 48q63 0 97 -37zM234 580q-2 4 2 10l68 102q6 8 16 8h93q9 0 9 -7q0 -3 -3 -8l-85 -102q-5 -7 -14 -7h-78q-6 0 -8 4z" />
    <glyph glyph-name="uni0145" unicode="&#x145;" horiz-adv-x="572" 
d="M454.5 696.5q3.5 3.5 8.5 3.5h113q5 0 8 -3.5t2 -8.5l-83 -676q-1 -5 -4.5 -8.5t-8.5 -3.5h-118q-10 0 -13 9l-135 407q-2 3 -4 3t-2 -4l-49 -403q-1 -5 -4.5 -8.5t-8.5 -3.5h-112q-11 0 -11 12l83 676q1 5 5 8.5t9 3.5h117q9 0 12 -9l136 -407q1 -3 3 -3t3 4l49 403
q1 5 4.5 8.5zM153 -170q-2 4 2 10l68 102q6 8 16 8h93q9 0 9 -7q0 -3 -3 -8l-85 -102q-5 -7 -14 -7h-78q-6 0 -8 4z" />
    <glyph glyph-name="uni0146" unicode="&#x146;" horiz-adv-x="482" 
d="M432 485q34 -37 34 -103q0 -23 -2 -36l-41 -334q0 -5 -4 -8.5t-9 -3.5h-113q-5 0 -8 3.5t-2 8.5l38 314q1 5 1 15q0 28 -14 44t-39 16q-28 0 -47.5 -20.5t-24.5 -55.5l-39 -313q0 -5 -4 -8.5t-9 -3.5h-113q-5 0 -8 3.5t-2 8.5l60 490q1 5 4.5 8.5t8.5 3.5h113
q5 0 8.5 -3.5t2.5 -8.5l-4 -28q0 -3 2 -3.5t5 3.5q41 48 109 48q63 0 97 -37zM109 -170q-2 4 2 10l68 102q6 8 16 8h93q9 0 9 -7q0 -3 -3 -8l-85 -102q-5 -7 -14 -7h-78q-6 0 -8 4z" />
    <glyph glyph-name="Ncaron" unicode="&#x147;" horiz-adv-x="572" 
d="M454.5 696.5q3.5 3.5 8.5 3.5h113q5 0 8 -3.5t2 -8.5l-83 -676q-1 -5 -4.5 -8.5t-8.5 -3.5h-118q-10 0 -13 9l-135 407q-2 3 -4 3t-2 -4l-49 -403q-1 -5 -4.5 -8.5t-8.5 -3.5h-112q-11 0 -11 12l83 676q1 5 5 8.5t9 3.5h117q9 0 12 -9l136 -407q1 -3 3 -3t3 4l49 403
q1 5 4.5 8.5zM228 877q0 10 11 10h86q10 0 13 -8l27 -59q3 -6 6 0l41 59q5 8 16 8h85q8 0 8 -7q0 -3 -3 -8l-81 -104q-5 -8 -14 -8h-127q-10 0 -13 8l-54 104q-1 2 -1 5z" />
    <glyph glyph-name="ncaron" unicode="&#x148;" horiz-adv-x="482" 
d="M432 485q34 -37 34 -103q0 -23 -2 -36l-41 -334q0 -5 -4 -8.5t-9 -3.5h-113q-5 0 -8 3.5t-2 8.5l38 314q1 5 1 15q0 28 -14 44t-39 16q-28 0 -47.5 -20.5t-24.5 -55.5l-39 -313q0 -5 -4 -8.5t-9 -3.5h-113q-5 0 -8 3.5t-2 8.5l60 490q1 5 4.5 8.5t8.5 3.5h113
q5 0 8.5 -3.5t2.5 -8.5l-4 -28q0 -3 2 -3.5t5 3.5q41 48 109 48q63 0 97 -37zM169 690q0 10 11 10h86q10 0 13 -8l27 -59q3 -6 6 0l41 59q5 8 16 8h85q8 0 8 -7q0 -3 -3 -8l-81 -104q-5 -8 -14 -8h-127q-10 0 -13 8l-54 104q-1 2 -1 5z" />
    <glyph glyph-name="Eng" unicode="&#x14a;" horiz-adv-x="572" 
d="M454.5 696.5q3.5 3.5 8.5 3.5h113q5 0 8 -3.5t2 -8.5l-85 -688q-10 -71 -31 -110.5t-70 -58.5t-140 -17q-5 0 -8 3.5t-2 8.5l12 95q2 13 14 11q43 -1 60 16t23 56q1 2 0 6l-135 406q-2 3 -4 3t-2 -4l-49 -403q-1 -5 -4.5 -8.5t-8.5 -3.5h-112q-11 0 -11 12l83 676
q1 5 5 8.5t9 3.5h117q9 0 12 -9l131 -392q1 -3 3 -3t3 4l13 112q1 5 2.5 8.5t3.5 3.5q3 0 3 5l32 259q1 5 4.5 8.5z" />
    <glyph glyph-name="eng" unicode="&#x14b;" horiz-adv-x="482" 
d="M450 221h1l-25 -207q-9 -73 -27.5 -114.5t-65.5 -64.5t-137 -23q-15 0 -14 12l11 91q2 12 14 12q39 1 56 17t24 51l-1 5h-1l40 326q1 5 1 15q0 28 -14 44t-39 16q-28 0 -47.5 -20.5t-24.5 -55.5l-39 -313q0 -5 -4 -8.5t-9 -3.5h-113q-5 0 -8 3.5t-2 8.5l60 490
q1 5 4.5 8.5t8.5 3.5h113q5 0 8.5 -3.5t2.5 -8.5l-4 -28q0 -3 2 -3.5t4 2.5q41 49 110 49q63 0 97 -37t34 -103q0 -23 -2 -36l-14 -120q-1 -3 0 -5z" />
    <glyph glyph-name="Omacron" unicode="&#x14c;" horiz-adv-x="531" 
d="M98.5 42.5q-53.5 51.5 -53.5 138.5q0 24 2 36l33 266q8 67 42 118t88.5 79t121.5 28q93 0 147 -51.5t54 -139.5q0 -10 -2 -34l-33 -266q-8 -68 -42.5 -119t-89.5 -79t-122 -28q-92 0 -145.5 51.5zM327 139.5q28 27.5 34 71.5l33 276q1 6 1 19q0 37 -21 59t-57 22
q-40 0 -67.5 -27.5t-32.5 -72.5l-34 -276q-1 -6 -1 -17q0 -37 20.5 -59.5t56.5 -22.5q40 0 68 27.5zM215 778l9 71q1 5 4.5 8.5t8.5 3.5h226q5 0 8 -3.5t2 -8.5l-8 -71q-1 -5 -4.5 -8.5t-8.5 -3.5h-226q-11 0 -11 12z" />
    <glyph glyph-name="omacron" unicode="&#x14d;" horiz-adv-x="481" 
d="M91.5 35.5q-48.5 43.5 -50.5 119.5q-2 49 5 103q7 60 21 103q20 74 79 117.5t143 43.5t131.5 -43.5t49.5 -117.5q3 -39 -5 -103q-7 -54 -20 -102q-20 -77 -78.5 -120.5t-142.5 -43.5t-132.5 43.5zM284 130q20 17 30 46q9 39 14 82q6 44 6 81q-2 29 -18 45.5t-43 16.5
q-26 0 -46 -16.5t-28 -45.5q-7 -25 -15 -81q-6 -43 -6 -82q2 -29 18 -46t43 -17q25 0 45 17zM167 592l9 71q1 5 4.5 8.5t8.5 3.5h226q5 0 8 -3.5t2 -8.5l-8 -71q-1 -5 -4.5 -8.5t-8.5 -3.5h-226q-11 0 -11 12z" />
    <glyph glyph-name="obreve" unicode="&#x14f;" horiz-adv-x="481" 
d="M91.5 35.5q-48.5 43.5 -50.5 119.5q-2 49 5 103q7 60 21 103q20 74 79 117.5t143 43.5t131.5 -43.5t49.5 -117.5q3 -39 -5 -103q-7 -54 -20 -102q-20 -77 -78.5 -120.5t-142.5 -43.5t-132.5 43.5zM284 130q20 17 30 46q9 39 14 82q6 44 6 81q-2 29 -18 45.5t-43 16.5
q-26 0 -46 -16.5t-28 -45.5q-7 -25 -15 -81q-6 -43 -6 -82q2 -29 18 -46t43 -17q25 0 45 17zM203 594q-33 28 -33 75q0 10 2.5 14t9.5 4h54q9 0 11 -11q1 -20 15.5 -33t36.5 -13t39.5 13t24.5 33q3 11 13 11h53q12 0 10 -11q-10 -49 -51 -79.5t-97 -30.5q-55 0 -88 28z" />
    <glyph glyph-name="Ohungarumlaut" unicode="&#x150;" horiz-adv-x="531" 
d="M98.5 42.5q-53.5 51.5 -53.5 138.5q0 24 2 36l33 266q8 67 42 118t88.5 79t121.5 28q93 0 147 -51.5t54 -139.5q0 -10 -2 -34l-33 -266q-8 -68 -42.5 -119t-89.5 -79t-122 -28q-92 0 -145.5 51.5zM327 139.5q28 27.5 34 71.5l33 276q1 6 1 19q0 37 -21 59t-57 22
q-40 0 -67.5 -27.5t-32.5 -72.5l-34 -276q-1 -6 -1 -17q0 -37 20.5 -59.5t56.5 -22.5q40 0 68 27.5zM209.5 765.5q-2.5 3.5 1.5 10.5l58 101q5 9 15 9h96q7 0 9 -4t-2 -10l-64 -101q-2 -4 -6.5 -6.5t-8.5 -2.5h-90q-6 0 -8.5 3.5zM372.5 766q-2.5 4 1.5 10l64 101q6 9 16 9
h90q9 0 9 -6q0 -3 -3 -8l-64 -101q-2 -4 -6.5 -6.5t-8.5 -2.5h-90q-6 0 -8.5 4z" />
    <glyph glyph-name="ohungarumlaut" unicode="&#x151;" horiz-adv-x="481" 
d="M91.5 35.5q-48.5 43.5 -50.5 119.5q-2 49 5 103q7 60 21 103q20 74 79 117.5t143 43.5t131.5 -43.5t49.5 -117.5q3 -39 -5 -103q-7 -54 -20 -102q-20 -77 -78.5 -120.5t-142.5 -43.5t-132.5 43.5zM284 130q20 17 30 46q9 39 14 82q6 44 6 81q-2 29 -18 45.5t-43 16.5
q-26 0 -46 -16.5t-28 -45.5q-7 -25 -15 -81q-6 -43 -6 -82q2 -29 18 -46t43 -17q25 0 45 17zM162.5 579.5q-2.5 3.5 1.5 10.5l58 101q5 9 15 9h96q7 0 9 -4t-2 -10l-64 -101q-2 -4 -6.5 -6.5t-8.5 -2.5h-90q-6 0 -8.5 3.5zM325.5 580q-2.5 4 1.5 10l64 101q6 9 16 9h90
q9 0 9 -6q0 -3 -3 -8l-64 -101q-2 -4 -6.5 -6.5t-8.5 -2.5h-90q-6 0 -8.5 4z" />
    <glyph glyph-name="OE" unicode="&#x152;" horiz-adv-x="786" 
d="M803.5 582.5q-3.5 -3.5 -8.5 -3.5h-252q-6 0 -6 -5l-19 -156q0 -5 4 -5h154q11 0 11 -12l-12 -97q-1 -5 -4.5 -8.5t-8.5 -3.5h-155q-5 0 -5 -5l-20 -161q0 -5 4 -5h252q5 0 8.5 -3.5t2.5 -8.5l-12 -97q-1 -5 -4.5 -8.5t-8.5 -3.5h-383q-5 0 -8 3.5t-2 8.5l2 14
q0 3 -1.5 4t-3.5 -1q-57 -38 -122 -38q-45 0 -82 23t-58 65.5t-21 97.5q0 24 2 37l33 272q8 65 39.5 115.5t78 78.5t97.5 28q67 0 111 -38q2 -2 4 -1t2 4l2 15q1 5 4.5 8.5t8.5 3.5h383q5 0 8 -3.5t2 -8.5l-12 -97q-1 -5 -4.5 -8.5zM323 138.5q27 26.5 32 69.5l35 282
q1 5 1 16q0 36 -20.5 58.5t-55.5 22.5q-39 0 -66 -27t-32 -70l-34 -282q-1 -6 -1 -16q0 -36 20 -58t54 -22q40 0 67 26.5z" />
    <glyph glyph-name="oe" unicode="&#x153;" horiz-adv-x="758" 
d="M571 124q20 13 32 33q8 11 17 7l84 -34q9 -5 5 -15q-28 -59 -79 -91t-123 -32q-90 0 -135 66q-3 3 -7 0q-63 -66 -147 -66q-80 0 -127.5 42.5t-49.5 116.5q-3 40 5 107q9 67 21 107q20 72 78 114.5t138 42.5q85 0 131 -66q4 -3 7 0q64 66 147 66q80 0 128 -43.5
t50 -114.5q0 -61 -10 -143q-1 -12 -13 -12h-255q-5 0 -5 -5l-1 -31q2 -29 19.5 -45.5t49.5 -16.5q20 0 40 13zM319 258q5 40 5 83q-1 27 -16 43.5t-40 16.5t-43.5 -16.5t-26.5 -43.5q-9 -35 -15 -83q-5 -40 -5 -85q1 -27 15.5 -43.5t39.5 -16.5q24 0 43.5 16.5t27.5 43.5
q11 52 15 85zM509 384.5q-19 -16.5 -27 -43.5l-7 -32q0 -5 5 -5h124q5 0 5 5q2 22 1 32q-1 27 -16 43.5t-40 16.5q-26 0 -45 -16.5z" />
    <glyph glyph-name="Racute" unicode="&#x154;" horiz-adv-x="526" 
d="M339 10l-64 276q-2 4 -5 4h-61q-5 0 -5 -5l-34 -273q-1 -5 -4.5 -8.5t-8.5 -3.5h-113q-11 0 -11 12l83 676q1 5 5 8.5t9 3.5h236q79 0 125 -47.5t46 -127.5q0 -24 -2 -36q-7 -64 -40.5 -111t-85.5 -70q-5 -2 -3 -7l75 -287v-4q0 -10 -12 -10h-118q-11 0 -12 10zM239 574
l-21 -171q0 -5 4 -5h85q40 0 66 29.5t26 77.5q0 34 -19 54t-51 20h-84q-4 0 -6 -5zM262 766q-2 4 2 10l68 102q6 8 16 8h93q9 0 9 -7q0 -3 -3 -8l-85 -102q-5 -7 -14 -7h-78q-6 0 -8 4z" />
    <glyph glyph-name="racute" unicode="&#x155;" horiz-adv-x="343" 
d="M371 509q7 -6 4 -16l-34 -115q-3 -12 -14 -7q-14 4 -28 4q-13 0 -25 -3q-29 -4 -51.5 -27.5t-26.5 -58.5l-34 -274q0 -5 -4 -8.5t-9 -3.5h-113q-5 0 -8 3.5t-2 8.5l60 490q1 5 4.5 8.5t8.5 3.5h113q5 0 8.5 -3.5t2.5 -8.5l-5 -40q-1 -4 1 -4.5t4 2.5q40 61 102 61
q26 0 46 -12zM180 580q-2 4 2 10l68 102q6 8 16 8h93q9 0 9 -7q0 -3 -3 -8l-85 -102q-5 -7 -14 -7h-78q-6 0 -8 4z" />
    <glyph glyph-name="uni0156" unicode="&#x156;" horiz-adv-x="526" 
d="M339 10l-64 276q-2 4 -5 4h-61q-5 0 -5 -5l-34 -273q-1 -5 -4.5 -8.5t-8.5 -3.5h-113q-11 0 -11 12l83 676q1 5 5 8.5t9 3.5h236q79 0 125 -47.5t46 -127.5q0 -24 -2 -36q-7 -64 -40.5 -111t-85.5 -70q-5 -2 -3 -7l75 -287v-4q0 -10 -12 -10h-118q-11 0 -12 10zM239 574
l-21 -171q0 -5 4 -5h85q40 0 66 29.5t26 77.5q0 34 -19 54t-51 20h-84q-4 0 -6 -5zM127 -170q-2 4 2 10l68 102q6 8 16 8h93q9 0 9 -7q0 -3 -3 -8l-85 -102q-5 -7 -14 -7h-78q-6 0 -8 4z" />
    <glyph glyph-name="uni0157" unicode="&#x157;" horiz-adv-x="343" 
d="M371 509q7 -6 4 -16l-34 -115q-3 -12 -14 -7q-14 4 -28 4q-13 0 -25 -3q-29 -4 -51.5 -27.5t-26.5 -58.5l-34 -274q0 -5 -4 -8.5t-9 -3.5h-113q-5 0 -8 3.5t-2 8.5l60 490q1 5 4.5 8.5t8.5 3.5h113q5 0 8.5 -3.5t2.5 -8.5l-5 -40q-1 -4 1 -4.5t4 2.5q40 61 102 61
q26 0 46 -12zM-59 -170q-2 4 2 10l68 102q6 8 16 8h93q9 0 9 -7q0 -3 -3 -8l-85 -102q-5 -7 -14 -7h-78q-6 0 -8 4z" />
    <glyph glyph-name="Rcaron" unicode="&#x158;" horiz-adv-x="526" 
d="M339 10l-64 276q-2 4 -5 4h-61q-5 0 -5 -5l-34 -273q-1 -5 -4.5 -8.5t-8.5 -3.5h-113q-11 0 -11 12l83 676q1 5 5 8.5t9 3.5h236q79 0 125 -47.5t46 -127.5q0 -24 -2 -36q-7 -64 -40.5 -111t-85.5 -70q-5 -2 -3 -7l75 -287v-4q0 -10 -12 -10h-118q-11 0 -12 10zM239 574
l-21 -171q0 -5 4 -5h85q40 0 66 29.5t26 77.5q0 34 -19 54t-51 20h-84q-4 0 -6 -5zM196 876q0 10 11 10h86q10 0 13 -8l27 -59q3 -6 6 0l41 59q5 8 16 8h85q8 0 8 -7q0 -3 -3 -8l-81 -104q-5 -8 -14 -8h-127q-10 0 -13 8l-54 104q-1 2 -1 5z" />
    <glyph glyph-name="rcaron" unicode="&#x159;" horiz-adv-x="343" 
d="M371 509q7 -6 4 -16l-34 -115q-3 -12 -14 -7q-14 4 -28 4q-13 0 -25 -3q-29 -4 -51.5 -27.5t-26.5 -58.5l-34 -274q0 -5 -4 -8.5t-9 -3.5h-113q-5 0 -8 3.5t-2 8.5l60 490q1 5 4.5 8.5t8.5 3.5h113q5 0 8.5 -3.5t2.5 -8.5l-5 -40q-1 -4 1 -4.5t4 2.5q40 61 102 61
q26 0 46 -12zM115 690q0 10 11 10h86q10 0 13 -8l27 -59q3 -6 6 0l41 59q5 8 16 8h85q8 0 8 -7q0 -3 -3 -8l-81 -104q-5 -8 -14 -8h-127q-10 0 -13 8l-54 104q-1 2 -1 5z" />
    <glyph glyph-name="Sacute" unicode="&#x15a;" horiz-adv-x="504" 
d="M88 38q-54 46 -54 122q0 8 2 28l3 26q1 5 4.5 8.5t8.5 3.5h112q5 0 8 -3.5t2 -8.5l-3 -19q-4 -36 18.5 -59t64.5 -23q41 0 64.5 23t23.5 58q0 27 -22.5 46.5t-83.5 53.5q-51 29 -82.5 52t-54 58.5t-22.5 85.5q0 65 31 114.5t85.5 76.5t121.5 27q91 0 145 -47.5t54 -127.5
q0 -8 -2 -28l-2 -20q-1 -5 -4.5 -8.5t-8.5 -3.5h-112q-5 0 -8 3.5t-2 8.5l2 18q1 4 1 12q0 31 -21.5 51.5t-59.5 20.5q-37 0 -60.5 -21.5t-23.5 -59.5q0 -28 23 -48t85 -54l20 -12q48 -31 75 -52t45 -51t18 -72q0 -9 -2 -27q-11 -91 -77 -144.5t-165 -53.5q-93 0 -147 46z
M261 766q-2 4 2 10l68 102q6 8 16 8h93q9 0 9 -7q0 -3 -3 -8l-85 -102q-5 -7 -14 -7h-78q-6 0 -8 4z" />
    <glyph glyph-name="sacute" unicode="&#x15b;" horiz-adv-x="445" 
d="M74 29q-48 36 -48 95q0 12 1 18l1 8q1 5 4.5 8.5t8.5 3.5h107q5 0 8 -3.5t2 -8.5v-2q-3 -22 14.5 -36t46.5 -14q27 0 44.5 14t17.5 35q0 17 -15.5 26t-50.5 21q-37 13 -44 16q-50 18 -81.5 47.5t-31.5 83.5q0 14 1 21q9 74 65.5 116.5t141.5 42.5q80 0 126 -38t46 -103
q0 -14 -1 -22q-2 -11 -13 -11h-105q-5 0 -8 3.5t-2 8.5v3q3 21 -12 35t-43 14q-27 0 -45.5 -14.5t-18.5 -34.5t17.5 -30.5t55.5 -22.5l30 -10q59 -20 93.5 -49.5t34.5 -83.5q0 -13 -1 -19q-9 -72 -67 -113t-147 -41q-84 0 -132 36zM210 580q-2 4 2 10l68 102q6 8 16 8h93
q9 0 9 -7q0 -3 -3 -8l-85 -102q-5 -7 -14 -7h-78q-6 0 -8 4z" />
    <glyph glyph-name="Scircumflex" unicode="&#x15c;" horiz-adv-x="504" 
d="M88 38q-54 46 -54 122q0 8 2 28l3 26q1 5 4.5 8.5t8.5 3.5h112q5 0 8 -3.5t2 -8.5l-3 -19q-4 -36 18.5 -59t64.5 -23q41 0 64.5 23t23.5 58q0 27 -22.5 46.5t-83.5 53.5q-51 29 -82.5 52t-54 58.5t-22.5 85.5q0 65 31 114.5t85.5 76.5t121.5 27q91 0 145 -47.5t54 -127.5
q0 -8 -2 -28l-2 -20q-1 -5 -4.5 -8.5t-8.5 -3.5h-112q-5 0 -8 3.5t-2 8.5l2 18q1 4 1 12q0 31 -21.5 51.5t-59.5 20.5q-37 0 -60.5 -21.5t-23.5 -59.5q0 -28 23 -48t85 -54l20 -12q48 -31 75 -52t45 -51t18 -72q0 -9 -2 -27q-11 -91 -77 -144.5t-165 -53.5q-93 0 -147 46z
M176 766q0 4 3 8l80 104q5 8 14 8h127q10 0 13 -8l55 -104q1 -2 1 -6t-3 -6.5t-7 -2.5h-85q-10 0 -13 8l-27 59q-3 6 -6 0l-41 -59q-5 -8 -16 -8h-86q-9 0 -9 7z" />
    <glyph glyph-name="scircumflex" unicode="&#x15d;" horiz-adv-x="445" 
d="M74 29q-48 36 -48 95q0 12 1 18l1 8q1 5 4.5 8.5t8.5 3.5h107q5 0 8 -3.5t2 -8.5v-2q-3 -22 14.5 -36t46.5 -14q27 0 44.5 14t17.5 35q0 17 -15.5 26t-50.5 21q-37 13 -44 16q-50 18 -81.5 47.5t-31.5 83.5q0 14 1 21q9 74 65.5 116.5t141.5 42.5q80 0 126 -38t46 -103
q0 -14 -1 -22q-2 -11 -13 -11h-105q-5 0 -8 3.5t-2 8.5v3q3 21 -12 35t-43 14q-27 0 -45.5 -14.5t-18.5 -34.5t17.5 -30.5t55.5 -22.5l30 -10q59 -20 93.5 -49.5t34.5 -83.5q0 -13 -1 -19q-9 -72 -67 -113t-147 -41q-84 0 -132 36zM125 580q0 4 3 8l80 104q5 8 14 8h127
q10 0 13 -8l55 -104q1 -2 1 -6t-3 -6.5t-7 -2.5h-85q-10 0 -13 8l-27 59q-3 6 -6 0l-41 -59q-5 -8 -16 -8h-86q-9 0 -9 7z" />
    <glyph glyph-name="Scedilla" unicode="&#x15e;" horiz-adv-x="504" 
d="M416.5 60.5q-50.5 -50.5 -129.5 -64.5q-7 -2 -3 -6q29 -35 29 -75q0 -20 -7 -38q-23 -62 -96 -62q-24 0 -50 8q-10 4 -7 15l11 48q2 6 6 8t10 0q8 -2 12 -2q11 0 19 6t12 18q3 7 3 15q0 28 -34 62q-4 2 -6 2q-71 11 -111.5 55.5t-40.5 109.5q0 10 2 28l3 26q1 5 4.5 8.5
t8.5 3.5h112q5 0 8 -3.5t2 -8.5l-3 -19q-4 -36 18.5 -59t64.5 -23q41 0 64.5 23t23.5 58q0 27 -22.5 46.5t-83.5 53.5q-51 29 -82.5 52t-54 58.5t-22.5 85.5q0 65 31 114.5t85.5 76.5t121.5 27q91 0 145 -47.5t54 -127.5q0 -8 -2 -28l-2 -20q-1 -5 -4.5 -8.5t-8.5 -3.5h-112
q-5 0 -8 3.5t-2 8.5l2 18q1 4 1 12q0 31 -21.5 51.5t-59.5 20.5q-37 0 -60.5 -21.5t-23.5 -59.5q0 -28 23 -48t85 -54l20 -12q48 -31 75 -52t45 -51t18 -72q0 -9 -2 -27q-10 -79 -60.5 -129.5z" />
    <glyph glyph-name="scedilla" unicode="&#x15f;" horiz-adv-x="445" 
d="M370.5 48q-42.5 -39 -108.5 -50q-7 -2 -3 -6q29 -38 29 -76q0 -16 -7 -37q-12 -34 -38 -48.5t-58 -14.5q-25 0 -51 8q-10 4 -7 15l12 48q2 11 15 8q8 -2 12 -2q15 0 25 10t10 29q0 28 -33 61q-4 2 -6 2q-64 10 -100 44.5t-36 85.5q0 11 1 17l1 8q1 5 4.5 8.5t8.5 3.5h107
q5 0 8 -3.5t2 -8.5v-2q-3 -22 14.5 -36t46.5 -14q27 0 44.5 14t17.5 35q0 17 -15.5 26t-50.5 21q-37 13 -44 16q-50 18 -81.5 47.5t-31.5 83.5q0 14 1 21q9 74 65.5 116.5t141.5 42.5q80 0 126 -38t46 -103q0 -14 -1 -22q-2 -11 -13 -11h-105q-5 0 -8 3.5t-2 8.5v3
q3 21 -12 35t-43 14q-27 0 -45.5 -14.5t-18.5 -34.5t17.5 -30.5t55.5 -22.5l30 -10q59 -20 93.5 -49.5t34.5 -83.5q0 -13 -1 -19q-7 -60 -49.5 -99z" />
    <glyph glyph-name="Scaron" unicode="&#x160;" horiz-adv-x="504" 
d="M88 38q-54 46 -54 122q0 8 2 28l3 26q1 5 4.5 8.5t8.5 3.5h112q5 0 8 -3.5t2 -8.5l-3 -19q-4 -36 18.5 -59t64.5 -23q41 0 64.5 23t23.5 58q0 27 -22.5 46.5t-83.5 53.5q-51 29 -82.5 52t-54 58.5t-22.5 85.5q0 65 31 114.5t85.5 76.5t121.5 27q91 0 145 -47.5t54 -127.5
q0 -8 -2 -28l-2 -20q-1 -5 -4.5 -8.5t-8.5 -3.5h-112q-5 0 -8 3.5t-2 8.5l2 18q1 4 1 12q0 31 -21.5 51.5t-59.5 20.5q-37 0 -60.5 -21.5t-23.5 -59.5q0 -28 23 -48t85 -54l20 -12q48 -31 75 -52t45 -51t18 -72q0 -9 -2 -27q-11 -91 -77 -144.5t-165 -53.5q-93 0 -147 46z
M196 876q0 10 11 10h86q10 0 13 -8l27 -59q3 -6 6 0l41 59q5 8 16 8h85q8 0 8 -7q0 -3 -3 -8l-81 -104q-5 -8 -14 -8h-127q-10 0 -13 8l-54 104q-1 2 -1 5z" />
    <glyph glyph-name="scaron" unicode="&#x161;" horiz-adv-x="445" 
d="M74 29q-48 36 -48 95q0 12 1 18l1 8q1 5 4.5 8.5t8.5 3.5h107q5 0 8 -3.5t2 -8.5v-2q-3 -22 14.5 -36t46.5 -14q27 0 44.5 14t17.5 35q0 17 -15.5 26t-50.5 21q-37 13 -44 16q-50 18 -81.5 47.5t-31.5 83.5q0 14 1 21q9 74 65.5 116.5t141.5 42.5q80 0 126 -38t46 -103
q0 -14 -1 -22q-2 -11 -13 -11h-105q-5 0 -8 3.5t-2 8.5v3q3 21 -12 35t-43 14q-27 0 -45.5 -14.5t-18.5 -34.5t17.5 -30.5t55.5 -22.5l30 -10q59 -20 93.5 -49.5t34.5 -83.5q0 -13 -1 -19q-9 -72 -67 -113t-147 -41q-84 0 -132 36zM145 690q0 10 11 10h86q10 0 13 -8l27 -59
q3 -6 6 0l41 59q5 8 16 8h85q8 0 8 -7q0 -3 -3 -8l-81 -104q-5 -8 -14 -8h-127q-10 0 -13 8l-54 104q-1 2 -1 5z" />
    <glyph glyph-name="uni0162" unicode="&#x162;" horiz-adv-x="511" 
d="M548 696.5q3 -3.5 2 -8.5l-12 -98q-1 -5 -4.5 -8.5t-8.5 -3.5h-148q-2 0 -3.5 -1.5t-1.5 -3.5l-69 -561q-1 -5 -4.5 -8.5t-8.5 -3.5h-113q-11 0 -11 12l69 561q2 5 -4 5h-143q-5 0 -8 3.5t-2 8.5l12 98q1 5 4.5 8.5t8.5 3.5h437q5 0 8 -3.5zM185 -168l13 48q2 11 15 8
q8 -2 12 -2q13 0 23.5 9.5t10.5 27.5q0 30 -34 62q-4 4 -4 8q0 7 11 7h62q7 0 11 -4q3 -1 4 -4q36 -37 36 -83q0 -20 -7 -38q-12 -34 -37.5 -48.5t-56.5 -14.5q-29 0 -52 9q-10 3 -7 15z" />
    <glyph glyph-name="uni0163" unicode="&#x163;" horiz-adv-x="325" 
d="M328.5 411.5q-3.5 -3.5 -8.5 -3.5h-75q-5 0 -5 -5l-28 -225q-1 -6 -1 -15q0 -23 10.5 -33t32.5 -9h20q5 0 8 -3.5t2 -8.5l-12 -97q-2 -12 -13 -13h-13q-3 0 -4 -2t1 -4q22 -31 22 -65q0 -17 -7 -38q-12 -34 -38 -48.5t-57 -14.5q-29 0 -52 9q-10 3 -7 15l13 48q2 11 15 8
q8 -2 12 -2q13 0 23.5 10t10.5 28q0 27 -31 60l-6 3q-34 8 -51.5 29t-17.5 61q0 7 2 27l35 280q0 5 -5 5h-44q-5 0 -8 3.5t-2 8.5l10 82q1 5 4.5 8.5t8.5 3.5h44q6 0 6 5l14 115q1 5 4.5 8.5t8.5 3.5h108q5 0 8 -3.5t2 -8.5l-14 -115q-2 -5 4 -5h75q5 0 8 -3.5t2 -8.5
l-10 -82q-1 -5 -4.5 -8.5z" />
    <glyph glyph-name="Tcaron" unicode="&#x164;" horiz-adv-x="511" 
d="M548 696.5q3 -3.5 2 -8.5l-12 -98q-1 -5 -4.5 -8.5t-8.5 -3.5h-148q-2 0 -3.5 -1.5t-1.5 -3.5l-69 -561q-1 -5 -4.5 -8.5t-8.5 -3.5h-113q-11 0 -11 12l69 561q2 5 -4 5h-143q-5 0 -8 3.5t-2 8.5l12 98q1 5 4.5 8.5t8.5 3.5h437q5 0 8 -3.5zM199 875q0 10 11 10h86
q10 0 13 -8l27 -59q3 -6 6 0l41 59q5 8 16 8h85q8 0 8 -7q0 -3 -3 -8l-81 -104q-5 -8 -14 -8h-127q-10 0 -13 8l-54 104q-1 2 -1 5z" />
    <glyph glyph-name="tcaron" unicode="&#x165;" horiz-adv-x="325" 
d="M328.5 411.5q-3.5 -3.5 -8.5 -3.5h-75q-5 0 -5 -5l-28 -225q-1 -6 -1 -15q0 -23 10.5 -33t32.5 -9h20q5 0 8 -3.5t2 -8.5l-12 -97q-2 -12 -13 -12q-17 -1 -49 -1q-69 0 -103.5 20.5t-34.5 77.5q0 8 2 26l35 280q0 5 -5 5h-44q-5 0 -8 3.5t-2 8.5l10 82q1 5 4.5 8.5
t8.5 3.5h44q6 0 6 5l14 115q1 5 4.5 8.5t8.5 3.5h108q5 0 8 -3.5t2 -8.5l-14 -115q-2 -5 4 -5h75q5 0 8 -3.5t2 -8.5l-10 -82q-1 -5 -4.5 -8.5zM285 580q-2 4 2 10l68 102q6 8 16 8h93q9 0 9 -7q0 -3 -3 -8l-85 -102q-5 -7 -14 -7h-78q-6 0 -8 4z" />
    <glyph glyph-name="Tbar" unicode="&#x166;" horiz-adv-x="511" 
d="M533.5 581.5q-3.5 -3.5 -8.5 -3.5h-148q-2 0 -3.5 -1.5t-1.5 -3.5l-19 -159q-2 -5 4 -5h70q5 0 8 -3.5t2 -8.5l-8 -61q-1 -5 -4.5 -8.5t-8.5 -3.5h-70q-5 0 -5 -5l-38 -307q-1 -5 -4.5 -8.5t-8.5 -3.5h-113q-11 0 -11 12l38 307q0 5 -4 5h-71q-5 0 -8 3.5t-2 8.5l7 61
q1 5 4.5 8.5t8.5 3.5h71q4 0 6 5l19 159q2 5 -4 5h-143q-5 0 -8 3.5t-2 8.5l12 98q1 5 4.5 8.5t8.5 3.5h437q5 0 8 -3.5t2 -8.5l-12 -98q-1 -5 -4.5 -8.5z" />
    <glyph glyph-name="tbar" unicode="&#x167;" horiz-adv-x="325" 
d="M328.5 411.5q-3.5 -3.5 -8.5 -3.5h-75q-5 0 -5 -5l-6 -48q-2 -5 4 -5h75q5 0 8 -3.5t2 -8.5l-8 -61q-1 -5 -4.5 -8.5t-8.5 -3.5h-74q-6 0 -6 -5l-10 -82q-1 -6 -1 -15q0 -23 10.5 -33t32.5 -9h20q5 0 8 -3.5t2 -8.5l-12 -97q-2 -12 -13 -12q-17 -1 -49 -1
q-69 0 -103.5 20.5t-34.5 77.5q0 8 2 26l17 137q0 5 -4 5h-43q-5 0 -8 3.5t-2 8.5l8 61q0 5 4 8.5t9 3.5h42q4 0 6 5l6 48q0 5 -5 5h-44q-5 0 -8 3.5t-2 8.5l10 82q1 5 4.5 8.5t8.5 3.5h44q6 0 6 5l14 115q1 5 4.5 8.5t8.5 3.5h108q5 0 8 -3.5t2 -8.5l-14 -115q-2 -5 4 -5
h75q5 0 8 -3.5t2 -8.5l-10 -82q-1 -5 -4.5 -8.5z" />
    <glyph glyph-name="Utilde" unicode="&#x168;" horiz-adv-x="538" 
d="M105 43q-53 51 -53 136q0 24 2 36l58 473q0 5 4 8.5t9 3.5h113q5 0 8 -3.5t2 -8.5l-59 -480q-1 -6 -1 -16q0 -36 20.5 -57.5t54.5 -21.5q39 0 65.5 26t31.5 69l59 480q1 5 4.5 8.5t8.5 3.5h114q5 0 8 -3.5t2 -8.5l-58 -473q-8 -66 -42 -116.5t-88 -78.5t-120 -28
q-90 0 -143 51zM378 770.5q-12 4.5 -29 13.5q-4 3 -13 8t-15.5 7t-13.5 2q-14 0 -24.5 -5t-21.5 -17q-9 -11 -16 -2l-36 36q-4 6 -4 9q0 4 3 8q18 31 45 48t57 17q17 0 31 -5.5t33 -16.5q3 -2 11 -7.5t15.5 -8t14.5 -2.5q27 0 44 21q9 12 16 3l34 -35q4 -6 4 -9q0 -4 -3 -9
q-19 -30 -46.5 -45t-57.5 -15q-16 0 -28 4.5z" />
    <glyph glyph-name="utilde" unicode="&#x169;" horiz-adv-x="482" 
d="M347.5 510.5q3.5 3.5 8.5 3.5h114q5 0 8 -3.5t2 -8.5l-60 -490q-1 -5 -5 -8.5t-9 -3.5h-113q-5 0 -8 3.5t-2 8.5l3 25q0 7 -6 2q-39 -46 -109 -46q-60 0 -97 33.5t-37 99.5q0 9 2 29l43 347q1 5 4.5 8.5t8.5 3.5h114q5 0 8 -3.5t2 -8.5l-39 -314q-1 -5 -1 -15
q0 -28 13.5 -44t39.5 -16q29 0 48.5 21t24.5 56l38 312q1 5 4.5 8.5zM325 584.5q-12 4.5 -29 13.5q-4 3 -13 8t-15.5 7t-13.5 2q-14 0 -24.5 -5t-21.5 -17q-9 -11 -16 -2l-36 36q-4 6 -4 9q0 4 3 8q18 31 45 48t57 17q17 0 31 -5.5t33 -16.5q3 -2 11 -7.5t15.5 -8t14.5 -2.5
q27 0 44 21q9 12 16 3l34 -35q4 -6 4 -9q0 -4 -3 -9q-19 -30 -46.5 -45t-57.5 -15q-16 0 -28 4.5z" />
    <glyph glyph-name="Umacron" unicode="&#x16a;" horiz-adv-x="538" 
d="M105 43q-53 51 -53 136q0 24 2 36l58 473q0 5 4 8.5t9 3.5h113q5 0 8 -3.5t2 -8.5l-59 -480q-1 -6 -1 -16q0 -36 20.5 -57.5t54.5 -21.5q39 0 65.5 26t31.5 69l59 480q1 5 4.5 8.5t8.5 3.5h114q5 0 8 -3.5t2 -8.5l-58 -473q-8 -66 -42 -116.5t-88 -78.5t-120 -28
q-90 0 -143 51zM219 778l9 71q1 5 4.5 8.5t8.5 3.5h226q5 0 8 -3.5t2 -8.5l-8 -71q-1 -5 -4.5 -8.5t-8.5 -3.5h-226q-11 0 -11 12z" />
    <glyph glyph-name="umacron" unicode="&#x16b;" horiz-adv-x="482" 
d="M347.5 510.5q3.5 3.5 8.5 3.5h114q5 0 8 -3.5t2 -8.5l-60 -490q-1 -5 -5 -8.5t-9 -3.5h-113q-5 0 -8 3.5t-2 8.5l3 25q0 7 -6 2q-39 -46 -109 -46q-60 0 -97 33.5t-37 99.5q0 9 2 29l43 347q1 5 4.5 8.5t8.5 3.5h114q5 0 8 -3.5t2 -8.5l-39 -314q-1 -5 -1 -15
q0 -28 13.5 -44t39.5 -16q29 0 48.5 21t24.5 56l38 312q1 5 4.5 8.5zM166 592l9 71q1 5 4.5 8.5t8.5 3.5h226q5 0 8 -3.5t2 -8.5l-8 -71q-1 -5 -4.5 -8.5t-8.5 -3.5h-226q-11 0 -11 12z" />
    <glyph glyph-name="Ubreve" unicode="&#x16c;" horiz-adv-x="538" 
d="M105 43q-53 51 -53 136q0 24 2 36l58 473q0 5 4 8.5t9 3.5h113q5 0 8 -3.5t2 -8.5l-59 -480q-1 -6 -1 -16q0 -36 20.5 -57.5t54.5 -21.5q39 0 65.5 26t31.5 69l59 480q1 5 4.5 8.5t8.5 3.5h114q5 0 8 -3.5t2 -8.5l-58 -473q-8 -66 -42 -116.5t-88 -78.5t-120 -28
q-90 0 -143 51zM254 779q-33 28 -33 75q0 10 2.5 14t9.5 4h54q9 0 11 -11q1 -20 15.5 -33t36.5 -13t39.5 13t24.5 33q3 11 13 11h53q12 0 10 -11q-10 -49 -51 -79.5t-97 -30.5q-55 0 -88 28z" />
    <glyph glyph-name="ubreve" unicode="&#x16d;" horiz-adv-x="482" 
d="M347.5 510.5q3.5 3.5 8.5 3.5h114q5 0 8 -3.5t2 -8.5l-60 -490q-1 -5 -5 -8.5t-9 -3.5h-113q-5 0 -8 3.5t-2 8.5l3 25q0 7 -6 2q-39 -46 -109 -46q-60 0 -97 33.5t-37 99.5q0 9 2 29l43 347q1 5 4.5 8.5t8.5 3.5h114q5 0 8 -3.5t2 -8.5l-39 -314q-1 -5 -1 -15
q0 -28 13.5 -44t39.5 -16q29 0 48.5 21t24.5 56l38 312q1 5 4.5 8.5zM201 594q-33 28 -33 75q0 10 2.5 14t9.5 4h54q9 0 11 -11q1 -20 15.5 -33t36.5 -13t39.5 13t24.5 33q3 11 13 11h53q12 0 10 -11q-10 -49 -51 -79.5t-97 -30.5q-55 0 -88 28z" />
    <glyph glyph-name="Uring" unicode="&#x16e;" horiz-adv-x="538" 
d="M105 43q-53 51 -53 136q0 24 2 36l58 473q0 5 4 8.5t9 3.5h113q5 0 8 -3.5t2 -8.5l-59 -480q-1 -6 -1 -16q0 -36 20.5 -57.5t54.5 -21.5q39 0 65.5 26t31.5 69l59 480q1 5 4.5 8.5t8.5 3.5h114q5 0 8 -3.5t2 -8.5l-58 -473q-8 -66 -42 -116.5t-88 -78.5t-120 -28
q-90 0 -143 51zM265 779.5q-30 30.5 -30 77.5q0 38 19 70t50.5 51t67.5 19q46 0 76 -30t30 -77q0 -38 -18.5 -70.5t-50 -51.5t-67.5 -19q-47 0 -77 30.5zM389 840q17 17 17 40q0 19 -12.5 31.5t-30.5 12.5q-22 0 -38.5 -16.5t-16.5 -40.5q0 -19 12 -31.5t31 -12.5
q21 0 38 17z" />
    <glyph glyph-name="uring" unicode="&#x16f;" horiz-adv-x="482" 
d="M347.5 510.5q3.5 3.5 8.5 3.5h114q5 0 8 -3.5t2 -8.5l-60 -490q-1 -5 -5 -8.5t-9 -3.5h-113q-5 0 -8 3.5t-2 8.5l3 25q0 7 -6 2q-39 -46 -109 -46q-60 0 -97 33.5t-37 99.5q0 9 2 29l43 347q1 5 4.5 8.5t8.5 3.5h114q5 0 8 -3.5t2 -8.5l-39 -314q-1 -5 -1 -15
q0 -28 13.5 -44t39.5 -16q29 0 48.5 21t24.5 56l38 312q1 5 4.5 8.5zM212 593.5q-30 30.5 -30 77.5q0 38 19 70t50.5 51t67.5 19q46 0 76 -30t30 -77q0 -38 -18.5 -70.5t-50 -51.5t-67.5 -19q-47 0 -77 30.5zM336 654q17 17 17 40q0 19 -12.5 31.5t-30.5 12.5
q-22 0 -38.5 -16.5t-16.5 -40.5q0 -19 12 -31.5t31 -12.5q21 0 38 17z" />
    <glyph glyph-name="Uhungarumlaut" unicode="&#x170;" horiz-adv-x="538" 
d="M105 43q-53 51 -53 136q0 24 2 36l58 473q0 5 4 8.5t9 3.5h113q5 0 8 -3.5t2 -8.5l-59 -480q-1 -6 -1 -16q0 -36 20.5 -57.5t54.5 -21.5q39 0 65.5 26t31.5 69l59 480q1 5 4.5 8.5t8.5 3.5h114q5 0 8 -3.5t2 -8.5l-58 -473q-8 -66 -42 -116.5t-88 -78.5t-120 -28
q-90 0 -143 51zM214.5 765.5q-2.5 3.5 1.5 10.5l58 101q5 9 15 9h96q7 0 9 -4t-2 -10l-64 -101q-2 -4 -6.5 -6.5t-8.5 -2.5h-90q-6 0 -8.5 3.5zM377.5 766q-2.5 4 1.5 10l64 101q6 9 16 9h90q9 0 9 -6q0 -3 -3 -8l-64 -101q-2 -4 -6.5 -6.5t-8.5 -2.5h-90q-6 0 -8.5 4z" />
    <glyph glyph-name="uhungarumlaut" unicode="&#x171;" horiz-adv-x="482" 
d="M347.5 510.5q3.5 3.5 8.5 3.5h114q5 0 8 -3.5t2 -8.5l-60 -490q-1 -5 -5 -8.5t-9 -3.5h-113q-5 0 -8 3.5t-2 8.5l3 25q0 7 -6 2q-39 -46 -109 -46q-60 0 -97 33.5t-37 99.5q0 9 2 29l43 347q1 5 4.5 8.5t8.5 3.5h114q5 0 8 -3.5t2 -8.5l-39 -314q-1 -5 -1 -15
q0 -28 13.5 -44t39.5 -16q29 0 48.5 21t24.5 56l38 312q1 5 4.5 8.5zM161.5 579.5q-2.5 3.5 1.5 10.5l58 101q5 9 15 9h96q7 0 9 -4t-2 -10l-64 -101q-2 -4 -6.5 -6.5t-8.5 -2.5h-90q-6 0 -8.5 3.5zM324.5 580q-2.5 4 1.5 10l64 101q6 9 16 9h90q9 0 9 -6q0 -3 -3 -8
l-64 -101q-2 -4 -6.5 -6.5t-8.5 -2.5h-90q-6 0 -8.5 4z" />
    <glyph glyph-name="Uogonek" unicode="&#x172;" horiz-adv-x="538" 
d="M423.5 696.5q3.5 3.5 8.5 3.5h114q5 0 8 -3.5t2 -8.5l-58 -473q-11 -89 -67.5 -148t-140.5 -72q-3 0 -5 -2q-44 -38 -44 -67q0 -14 7.5 -21.5t18.5 -7.5q4 0 12 2q2 1 6 1q7 0 7 -9l1 -48q0 -11 -10 -15q-28 -8 -53 -8q-72 0 -81 62l-1 12q0 50 47 97q4 4 -1 6
q-67 15 -104.5 62.5t-37.5 119.5q0 23 2 36l58 473q0 5 4 8.5t9 3.5h113q5 0 8 -3.5t2 -8.5l-59 -480q-1 -6 -1 -16q0 -36 20.5 -57.5t54.5 -21.5q39 0 65.5 26t31.5 69l59 480q1 5 4.5 8.5z" />
    <glyph glyph-name="uogonek" unicode="&#x173;" horiz-adv-x="482" 
d="M395 -111q8 0 7 -9l1 -48q0 -12 -10 -15q-25 -9 -54 -9q-35 0 -58 17.5t-23 58.5q0 58 61 110q3 2 2.5 4t-3.5 2h-25q-5 0 -8 3.5t-2 8.5l3 25q0 7 -6 2q-39 -46 -109 -46q-60 0 -97 33.5t-37 99.5q0 9 2 29l43 347q1 5 4.5 8.5t8.5 3.5h114q5 0 8 -3.5t2 -8.5l-39 -314
q-1 -5 -1 -15q0 -28 13.5 -44t39.5 -16q29 0 48.5 21t24.5 56l38 312q1 5 4.5 8.5t8.5 3.5h114q5 0 8 -3.5t2 -8.5l-62 -502q-1 -2 -7 -6q-66 -49 -60 -84q3 -24 26 -24q4 0 12 2q2 1 6 1z" />
    <glyph glyph-name="Wcircumflex" unicode="&#x174;" horiz-adv-x="776" 
d="M155 10l-69 677v2q0 11 13 11h119q11 0 11 -11l27 -384q0 -3 2.5 -3t3.5 3l117 384q3 11 14 11h108q11 0 11 -11l31 -384q0 -3 2.5 -3t3.5 3l117 384q3 11 14 11h114q12 0 8 -13l-224 -676q-3 -11 -14 -11h-110q-11 0 -11 11l-30 402q0 3 -2 3t-3 -3l-120 -402
q-3 -11 -14 -11h-107q-9 0 -12 10zM313 766q0 4 3 8l80 104q5 8 14 8h127q10 0 13 -8l55 -104q1 -2 1 -6t-3 -6.5t-7 -2.5h-85q-10 0 -13 8l-27 59q-3 6 -6 0l-41 -59q-5 -8 -16 -8h-86q-9 0 -9 7z" />
    <glyph glyph-name="wcircumflex" unicode="&#x175;" horiz-adv-x="677" 
d="M122 10l-61 492v2q0 11 12 11h111q12 0 12 -11l23 -279q0 -4 2.5 -4t3.5 4l91 279q3 11 14 11h100q11 0 11 -11l27 -278q0 -4 2.5 -4t3.5 4l92 278q3 11 14 11l112 -2q6 0 8.5 -3.5t0.5 -9.5l-183 -490q-4 -10 -15 -10h-113q-10 0 -11 10l-27 262q-1 4 -3 4t-3 -4
l-87 -261q-1 -5 -5 -8t-9 -3h-111q-11 0 -12 10zM239 580q0 4 3 8l80 104q5 8 14 8h127q10 0 13 -8l55 -104q1 -2 1 -6t-3 -6.5t-7 -2.5h-85q-10 0 -13 8l-27 59q-3 6 -6 0l-41 -59q-5 -8 -16 -8h-86q-9 0 -9 7z" />
    <glyph glyph-name="Ycircumflex" unicode="&#x176;" horiz-adv-x="529" 
d="M180 4.5q-3 3.5 -2 8.5l32 256l-1 6l-117 411l-1 4q0 10 11 10h123q11 0 12 -10l59 -253q1 -3 3 -3t3 3l121 253q4 10 15 10h122q7 0 8.5 -4t-1.5 -10l-219 -411l-2 -6l-31 -256q-1 -5 -4.5 -8.5t-8.5 -3.5h-114q-5 0 -8 3.5zM191 766q0 4 3 8l80 104q5 8 14 8h127
q10 0 13 -8l55 -104q1 -2 1 -6t-3 -6.5t-7 -2.5h-85q-10 0 -13 8l-27 59q-3 6 -6 0l-41 -59q-5 -8 -16 -8h-86q-9 0 -9 7z" />
    <glyph glyph-name="ycircumflex" unicode="&#x177;" horiz-adv-x="449" 
d="M-5.5 -195.5q-1.5 3.5 -0.5 8.5l11 92q2 12 12 12q55 1 80.5 16.5t38.5 63.5q1 2 0 6l-78 498v2q0 12 11 12h122q10 0 12 -11l24 -311q1 -4 3 -4t3 4l101 311q3 11 14 11l121 -1q5 0 7.5 -3.5t0.5 -9.5l-213 -520q-31 -73 -58.5 -109.5t-73.5 -53.5t-127 -17h-6
q-3 0 -4.5 3.5zM129 585q0 4 3 8l80 104q5 8 14 8h127q10 0 13 -8l55 -104q1 -2 1 -6t-3 -6.5t-7 -2.5h-85q-10 0 -13 8l-27 59q-3 6 -6 0l-41 -59q-5 -8 -16 -8h-86q-9 0 -9 7z" />
    <glyph glyph-name="Ydieresis" unicode="&#x178;" horiz-adv-x="529" 
d="M180 4.5q-3 3.5 -2 8.5l32 256l-1 6l-117 411l-1 4q0 10 11 10h123q11 0 12 -10l59 -253q1 -3 3 -3t3 3l121 253q4 10 15 10h122q7 0 8.5 -4t-1.5 -10l-219 -411l-2 -6l-31 -256q-1 -5 -4.5 -8.5t-8.5 -3.5h-114q-5 0 -8 3.5zM382 780.5q-19 19.5 -19 49.5
q0 38 25.5 63.5t62.5 25.5q31 0 49.5 -18.5t18.5 -49.5q0 -38 -26 -64t-62 -26q-30 0 -49 19.5zM196 780.5q-19 19.5 -19 49.5q0 38 25.5 63.5t62.5 25.5q31 0 49.5 -18.5t18.5 -49.5q0 -38 -26 -64t-62 -26q-30 0 -49 19.5z" />
    <glyph glyph-name="Zacute" unicode="&#x179;" horiz-adv-x="470" 
d="M9 3.5q-3 3.5 -2 8.5l13 105q2 10 6 15l314 441q3 6 -2 6h-249q-11 0 -11 12l12 97q1 5 4.5 8.5t8.5 3.5h392q5 0 8 -3.5t2 -8.5l-12 -105q-1 -7 -6 -15l-314 -441q-4 -6 2 -6h249q5 0 8 -3.5t2 -8.5l-12 -97q0 -5 -4 -8.5t-9 -3.5h-392q-5 0 -8 3.5zM245 766q-2 4 2 10
l68 102q6 8 16 8h93q9 0 9 -7q0 -3 -3 -8l-85 -102q-5 -7 -14 -7h-78q-6 0 -8 4z" />
    <glyph glyph-name="zacute" unicode="&#x17a;" horiz-adv-x="404" 
d="M2 12l14 108q0 7 6 15l215 246q4 6 -2 6h-169q-5 0 -8 3.5t-2 8.5l12 103q1 5 5 8.5t9 3.5h327q11 0 11 -12l-14 -107q0 -7 -6 -15l-222 -246q-2 -2 -1 -4t4 -2h186q5 0 8 -3.5t2 -8.5l-13 -104q-1 -5 -4.5 -8.5t-8.5 -3.5h-338q-11 0 -11 12zM190 580q-2 4 2 10l68 102
q6 8 16 8h93q9 0 9 -7q0 -3 -3 -8l-85 -102q-5 -7 -14 -7h-78q-6 0 -8 4z" />
    <glyph glyph-name="Zdotaccent" unicode="&#x17b;" horiz-adv-x="470" 
d="M9 3.5q-3 3.5 -2 8.5l13 105q2 10 6 15l314 441q3 6 -2 6h-249q-11 0 -11 12l12 97q1 5 4.5 8.5t8.5 3.5h392q5 0 8 -3.5t2 -8.5l-12 -105q-1 -7 -6 -15l-314 -441q-4 -6 2 -6h249q5 0 8 -3.5t2 -8.5l-12 -97q0 -5 -4 -8.5t-9 -3.5h-392q-5 0 -8 3.5zM258 777.5
q-19 19.5 -19 49.5q0 38 25.5 63.5t62.5 25.5q31 0 49.5 -18.5t18.5 -49.5q0 -38 -26 -64t-62 -26q-30 0 -49 19.5z" />
    <glyph glyph-name="zdotaccent" unicode="&#x17c;" horiz-adv-x="404" 
d="M2 12l14 108q0 7 6 15l215 246q4 6 -2 6h-169q-5 0 -8 3.5t-2 8.5l12 103q1 5 5 8.5t9 3.5h327q11 0 11 -12l-14 -107q0 -7 -6 -15l-222 -246q-2 -2 -1 -4t4 -2h186q5 0 8 -3.5t2 -8.5l-13 -104q-1 -5 -4.5 -8.5t-8.5 -3.5h-338q-11 0 -11 12zM202 591.5
q-19 19.5 -19 49.5q0 38 25.5 63.5t62.5 25.5q31 0 49.5 -18.5t18.5 -49.5q0 -38 -26 -64t-62 -26q-30 0 -49 19.5z" />
    <glyph glyph-name="Zcaron" unicode="&#x17d;" horiz-adv-x="470" 
d="M9 3.5q-3 3.5 -2 8.5l13 105q2 10 6 15l314 441q3 6 -2 6h-249q-11 0 -11 12l12 97q1 5 4.5 8.5t8.5 3.5h392q5 0 8 -3.5t2 -8.5l-12 -105q-1 -7 -6 -15l-314 -441q-4 -6 2 -6h249q5 0 8 -3.5t2 -8.5l-12 -97q0 -5 -4 -8.5t-9 -3.5h-392q-5 0 -8 3.5zM180 876q0 10 11 10
h86q10 0 13 -8l27 -59q3 -6 6 0l41 59q5 8 16 8h85q8 0 8 -7q0 -3 -3 -8l-81 -104q-5 -8 -14 -8h-127q-10 0 -13 8l-54 104q-1 2 -1 5z" />
    <glyph glyph-name="zcaron" unicode="&#x17e;" horiz-adv-x="404" 
d="M2 12l14 108q0 7 6 15l215 246q4 6 -2 6h-169q-5 0 -8 3.5t-2 8.5l12 103q1 5 5 8.5t9 3.5h327q11 0 11 -12l-14 -107q0 -7 -6 -15l-222 -246q-2 -2 -1 -4t4 -2h186q5 0 8 -3.5t2 -8.5l-13 -104q-1 -5 -4.5 -8.5t-8.5 -3.5h-338q-11 0 -11 12zM124 690q0 10 11 10h86
q10 0 13 -8l27 -59q3 -6 6 0l41 59q5 8 16 8h85q8 0 8 -7q0 -3 -3 -8l-81 -104q-5 -8 -14 -8h-127q-10 0 -13 8l-54 104q-1 2 -1 5z" />
    <glyph glyph-name="uni018F" unicode="&#x18f;" horiz-adv-x="580" 
d="M570 447q0 -42 -8 -109q-10 -85 -25 -142q-24 -95 -95 -151t-173 -56q-108 0 -165 58.5t-57 157.5q0 62 15 169q2 12 14 12h351q5 0 5 5q2 25 2 67q-2 47 -30 74.5t-77 27.5q-41 -1 -73 -23.5t-51 -59.5q-6 -11 -15 -7l-91 35q-10 5 -6 15q33 77 98.5 119t158.5 42
q101 0 159 -54t62 -148zM361 139q33 28 45 75q4 15 11 55q2 5 -4 5h-220q-4 0 -6 -5q-3 -27 -3 -53q0 -47 26.5 -76t72.5 -29q45 0 78 28z" />
    <glyph glyph-name="florin" unicode="&#x192;" horiz-adv-x="500" 
d="M316.5 641q25.5 33 66.5 47.5t109 14.5q25 0 38 -1q12 -1 10 -13l-9 -81q-1 -5 -5 -8.5t-9 -3.5h-38q-30 -1 -47 -17.5t-26 -49.5l-29 -104q0 -5 3 -5h64q11 0 11 -12l-11 -89q-1 -5 -4.5 -8.5t-8.5 -3.5h-82q-6 0 -6 -5l-98 -350q-16 -59 -41.5 -92t-67.5 -48t-111 -15
q-23 0 -36 1q-12 1 -10 13l11 81q1 5 4.5 8.5t8.5 3.5h37q29 1 46.5 17t26.5 50l92 331q0 5 -3 5h-52q-5 0 -8 3.5t-2 8.5l11 89q1 5 4.5 8.5t8.5 3.5h69q6 0 6 5l35 123q17 60 42.5 93z" />
    <glyph glyph-name="Ohorn" unicode="&#x1a0;" horiz-adv-x="531" 
d="M490 645q43 -49 43 -127q0 -11 -2 -35l-33 -266q-8 -68 -42.5 -119t-89.5 -79t-122 -28q-92 0 -145.5 51.5t-53.5 138.5q0 24 2 36l33 266q8 67 42 118t88.5 79t121.5 28q43 0 82 -13q2 -1 6 3l10 3q55 9 68 73q2 12 13 12h54q5 0 7.5 -4.5t1.5 -12.5q-9 -42 -31 -71.5
t-52 -45.5q-5 -3 -1 -7zM394 487q1 6 1 19q0 37 -21 59t-57 22q-40 0 -67.5 -27.5t-32.5 -72.5l-34 -276q-1 -6 -1 -17q0 -37 20.5 -59.5t56.5 -22.5q40 0 68 27.5t34 71.5z" />
    <glyph glyph-name="ohorn" unicode="&#x1a1;" horiz-adv-x="481" 
d="M465 258q-7 -54 -20 -102q-20 -77 -78.5 -120.5t-142.5 -43.5t-132.5 43.5t-50.5 119.5q-2 49 5 103q7 60 21 103q20 74 79 117.5t143 43.5q28 0 60 -7q2 -1 6 -1q23 4 41.5 21t25.5 53q1 6 4.5 9t8.5 3h55q12 0 10 -12q-12 -75 -68 -112q-5 -3 -2 -6q39 -43 40 -109
q3 -39 -5 -103zM328 258q6 44 6 81q-2 29 -18 45.5t-43 16.5q-26 0 -46 -16.5t-28 -45.5q-7 -25 -15 -81q-6 -43 -6 -82q2 -29 18 -46t43 -17q25 0 45 17t30 46q9 39 14 82z" />
    <glyph glyph-name="Uhorn" unicode="&#x1af;" horiz-adv-x="538" 
d="M662 774q-9 -53 -38.5 -86t-69.5 -46q-4 -1 -4 -5l-52 -422q-8 -66 -42 -116.5t-88 -78.5t-120 -28q-90 0 -143 51t-53 136q0 24 2 36l58 473q0 5 4 8.5t9 3.5h113q5 0 8 -3.5t2 -8.5l-59 -480q-1 -6 -1 -16q0 -36 20.5 -57.5t54.5 -21.5q39 0 65.5 26t31.5 69l59 480
q1 5 4.5 8.5t8.5 3.5h74q25 0 47.5 16t31.5 58q2 12 13 12h54q12 0 10 -12z" />
    <glyph glyph-name="uhorn" unicode="&#x1b0;" horiz-adv-x="482" 
d="M576.5 597q2.5 -3 1.5 -9q-8 -50 -35 -82t-65 -47q-4 -1 -4 -5l-54 -442q-1 -5 -5 -8.5t-9 -3.5h-113q-5 0 -8 3.5t-2 8.5l3 25q0 7 -6 2q-39 -46 -109 -46q-60 0 -97 33.5t-37 99.5q0 9 2 29l43 347q1 5 4.5 8.5t8.5 3.5h114q5 0 8 -3.5t2 -8.5l-39 -314q-1 -5 -1 -15
q0 -28 13.5 -44t39.5 -16q29 0 48.5 21t24.5 56l38 312q1 5 4.5 8.5t8.5 3.5h67q25 0 47 16t31 58q2 12 13 12h54q6 0 8.5 -3z" />
    <glyph glyph-name="uni01CD" unicode="&#x1cd;" horiz-adv-x="559" 
d="M379 10l-11 98q0 4 -4 4h-181q-3 0 -6 -4l-34 -98q-4 -10 -14 -10h-117q-14 0 -8 13l257 677q4 10 15 10h141q11 0 12 -10l92 -677q0 -13 -12 -13h-118q-11 0 -12 10zM222 221h128q6 0 6 6l-32 290q0 4 -2 4t-3 -4l-101 -290q-1 -6 4 -6zM224 875q0 10 11 10h86
q10 0 13 -8l27 -59q3 -6 6 0l41 59q5 8 16 8h85q8 0 8 -7q0 -3 -3 -8l-81 -104q-5 -8 -14 -8h-127q-10 0 -13 8l-54 104q-1 2 -1 5z" />
    <glyph glyph-name="uni01CE" unicode="&#x1ce;" horiz-adv-x="472" 
d="M356.5 510.5q3.5 3.5 8.5 3.5h113q5 0 8 -3.5t2 -8.5l-60 -490q-1 -5 -4.5 -8.5t-8.5 -3.5h-113q-5 0 -8 3.5t-2 8.5l4 36q1 4 -1 4.5t-4 -2.5q-43 -58 -114 -58q-66 0 -101.5 42.5t-36.5 116.5q-2 24 7 107q11 83 22 112q18 71 64 111.5t113 40.5q70 0 97 -55
q2 -3 3.5 -3t1.5 4l5 34q1 5 4.5 8.5zM322 257q4 33 4 62q0 17 -1 25q0 25 -14.5 41t-39.5 16q-24 0 -42.5 -16t-26.5 -42q-11 -37 -16 -86q-7 -49 -5 -86q1 -26 16 -42t39 -16q25 0 43 16.5t26 42.5q10 33 17 85zM159 689q0 10 11 10h86q10 0 13 -8l27 -59q3 -6 6 0l41 59
q5 8 16 8h85q8 0 8 -7q0 -3 -3 -8l-81 -104q-5 -8 -14 -8h-127q-10 0 -13 8l-54 104q-1 2 -1 5z" />
    <glyph glyph-name="uni01D4" unicode="&#x1d4;" horiz-adv-x="482" 
d="M347.5 510.5q3.5 3.5 8.5 3.5h114q5 0 8 -3.5t2 -8.5l-60 -490q-1 -5 -5 -8.5t-9 -3.5h-113q-5 0 -8 3.5t-2 8.5l3 25q0 7 -6 2q-39 -46 -109 -46q-60 0 -97 33.5t-37 99.5q0 9 2 29l43 347q1 5 4.5 8.5t8.5 3.5h114q5 0 8 -3.5t2 -8.5l-39 -314q-1 -5 -1 -15
q0 -28 13.5 -44t39.5 -16q29 0 48.5 21t24.5 56l38 312q1 5 4.5 8.5zM161 689q0 10 11 10h86q10 0 13 -8l27 -59q3 -6 6 0l41 59q5 8 16 8h85q8 0 8 -7q0 -3 -3 -8l-81 -104q-5 -8 -14 -8h-127q-10 0 -13 8l-54 104q-1 2 -1 5z" />
    <glyph glyph-name="uni01E5" unicode="&#x1e5;" horiz-adv-x="501" 
d="M511 297.5q3 -3.5 2 -8.5l-8 -60q-1 -5 -4.5 -8.5t-8.5 -3.5h-37q-5 0 -5 -5l-22 -177q-15 -120 -86.5 -178.5t-191.5 -58.5q-26 0 -55 3q-12 1 -10 13l15 101q1 11 14 11q15 -2 41 -2q65 0 97 28.5t40 90.5v0q1 3 -1 4t-4 -2q-42 -43 -104 -43q-64 0 -102.5 38
t-41.5 113q-1 5 -1 17q0 26 7 89q12 83 23 112q19 71 64.5 111t111.5 40q65 0 96 -45q1 -3 3 -2t3 4l3 23q1 5 4.5 8.5t8.5 3.5h113q11 0 11 -12l-25 -196q0 -5 5 -5h37q5 0 8 -3.5zM280 135q18 16 25 42q3 11 7 35q2 5 -4 5h-62q-5 0 -8 3.5t-2 8.5l7 60q1 5 4.5 8.5
t8.5 3.5h62q4 0 6 5q2 25 1 36q-1 27 -15.5 43t-40.5 16q-25 0 -43 -16t-27 -43q-10 -34 -16 -83q-5 -41 -5 -81q2 -27 17 -43t41 -16t44 16z" />
    <glyph glyph-name="gcaron" unicode="&#x1e7;" horiz-adv-x="483" 
d="M353.5 510.5q3.5 3.5 8.5 3.5h113q11 0 11 -12l-58 -467q-15 -120 -86.5 -178.5t-191.5 -58.5q-26 0 -55 3q-12 1 -10 13l15 101q1 11 14 11q15 -2 41 -2q65 0 97 28.5t40 90.5v0q1 3 -1 4t-4 -2q-42 -43 -104 -43q-64 0 -102.5 38t-41.5 113q-1 5 -1 17q0 26 7 89
q12 83 23 112q19 71 64.5 111t111.5 40q65 0 96 -45q1 -3 3 -2t3 4l3 23q1 5 4.5 8.5zM319 259q6 56 6 83q-1 27 -15.5 43t-40.5 16q-25 0 -43 -16t-27 -43q-10 -34 -16 -83q-5 -41 -5 -81q2 -27 17 -43t41 -16t44 16t25 42q9 35 14 82zM171 689q0 10 11 10h86q10 0 13 -8
l27 -59q3 -6 6 0l41 59q5 8 16 8h85q8 0 8 -7q0 -3 -3 -8l-81 -104q-5 -8 -14 -8h-127q-10 0 -13 8l-54 104q-1 2 -1 5z" />
    <glyph glyph-name="uni01E9" unicode="&#x1e9;" horiz-adv-x="476" 
d="M28 3.5q-3 3.5 -2 8.5l83 676q1 5 4.5 8.5t8.5 3.5h113q5 0 8 -3.5t2 -8.5l-41 -334q0 -3 2 -4t4 2l128 155q5 7 14 7h123q9 0 9 -6q0 -5 -4 -9l-134 -164q-3 -3 -1 -7l93 -314l1 -4q0 -10 -11 -10h-120q-5 0 -8 3t-4 7l-52 215q-2 6 -7 1l-54 -66q-3 -3 -3 -6l-18 -142
q0 -5 -4 -8.5t-9 -3.5h-113q-5 0 -8 3.5zM178 875q0 10 11 10h86q10 0 13 -8l27 -59q3 -6 6 0l41 59q5 8 16 8h85q8 0 8 -7q0 -3 -3 -8l-81 -104q-5 -8 -14 -8h-127q-10 0 -13 8l-54 104q-1 2 -1 5z" />
    <glyph glyph-name="uni01EF" unicode="&#x1ef;" horiz-adv-x="442" 
d="M249 258q0 -2 3 -2q75 -16 111 -66.5t36 -119.5q0 -11 -2 -33q-9 -70 -49 -124.5t-102 -84t-133 -29.5q-54 0 -108 18q-9 3 -8 14l16 100q2 14 14 9q42 -15 86 -15q59 0 100 30t49 91q1 6 1 19q0 45 -24.5 74t-70.5 29q-32 0 -67 -14q-2 -1 -6 -1q-7 0 -10 6l-27 67
q-1 2 -1 6q0 7 6 11l172 137q2 2 2 4t-3 2h-160q-11 0 -11 12l13 104q1 5 4.5 8.5t8.5 3.5h321q11 0 11 -12l-13 -103q-1 -9 -9 -15l-148 -122q-2 -2 -2 -4zM131 689q0 10 11 10h86q10 0 13 -8l27 -59q3 -6 6 0l41 59q5 8 16 8h85q8 0 8 -7q0 -3 -3 -8l-81 -104
q-5 -8 -14 -8h-127q-10 0 -13 8l-54 104q-1 2 -1 5z" />
    <glyph glyph-name="oslashacute" unicode="&#x1ff;" horiz-adv-x="474" 
d="M457 428q13 -32 13 -67q1 -8 1 -27q0 -36 -5 -76q-7 -54 -20 -102q-20 -77 -78.5 -120.5t-143.5 -43.5q-42 0 -77 12q-4 1 -6 -3l-35 -48q-8 -11 -16 -4l-70 56q-4 4 -4 9q0 4 3 8l38 54q1 2 1 6q-16 38 -16 89q0 42 5 87q7 60 21 103q20 74 79 117.5t143 43.5
q47 0 80 -13q4 -1 6 3l36 49q8 10 16 4l70 -56q5 -5 5 -8t-4 -9l-41 -58q-2 -4 -1 -6zM328 258q7 51 7 81q-3 29 -19 45.5t-42 16.5q-27 0 -47 -16.5t-28 -45.5q-9 -34 -15 -81q-5 -36 -5 -82q2 -29 17.5 -46t42.5 -17q26 0 46 17t29 46q8 30 14 82zM226 580q-2 4 2 10
l68 102q6 8 16 8h93q9 0 9 -7q0 -3 -3 -8l-85 -102q-5 -7 -14 -7h-78q-6 0 -8 4z" />
    <glyph glyph-name="uni0218" unicode="&#x218;" horiz-adv-x="504" 
d="M88 38q-54 46 -54 122q0 8 2 28l3 26q1 5 4.5 8.5t8.5 3.5h112q5 0 8 -3.5t2 -8.5l-3 -19q-4 -36 18.5 -59t64.5 -23q41 0 64.5 23t23.5 58q0 27 -22.5 46.5t-83.5 53.5q-51 29 -82.5 52t-54 58.5t-22.5 85.5q0 65 31 114.5t85.5 76.5t121.5 27q91 0 145 -47.5t54 -127.5
q0 -8 -2 -28l-2 -20q-1 -5 -4.5 -8.5t-8.5 -3.5h-112q-5 0 -8 3.5t-2 8.5l2 18q1 4 1 12q0 31 -21.5 51.5t-59.5 20.5q-37 0 -60.5 -21.5t-23.5 -59.5q0 -28 23 -48t85 -54l20 -12q48 -31 75 -52t45 -51t18 -72q0 -9 -2 -27q-11 -91 -77 -144.5t-165 -53.5q-93 0 -147 46z
M117 -178q-2 4 2 10l68 102q6 8 16 8h93q9 0 9 -7q0 -3 -3 -8l-85 -102q-5 -7 -14 -7h-78q-6 0 -8 4z" />
    <glyph glyph-name="uni0219" unicode="&#x219;" horiz-adv-x="445" 
d="M74 29q-48 36 -48 95q0 12 1 18l1 8q1 5 4.5 8.5t8.5 3.5h107q5 0 8 -3.5t2 -8.5v-2q-3 -22 14.5 -36t46.5 -14q27 0 44.5 14t17.5 35q0 17 -15.5 26t-50.5 21q-37 13 -44 16q-50 18 -81.5 47.5t-31.5 83.5q0 14 1 21q9 74 65.5 116.5t141.5 42.5q80 0 126 -38t46 -103
q0 -14 -1 -22q-2 -11 -13 -11h-105q-5 0 -8 3.5t-2 8.5v3q3 21 -12 35t-43 14q-27 0 -45.5 -14.5t-18.5 -34.5t17.5 -30.5t55.5 -22.5l30 -10q59 -20 93.5 -49.5t34.5 -83.5q0 -13 -1 -19q-9 -72 -67 -113t-147 -41q-84 0 -132 36zM91 -177q-2 4 2 10l68 102q6 8 16 8h93
q9 0 9 -7q0 -3 -3 -8l-85 -102q-5 -7 -14 -7h-78q-6 0 -8 4z" />
    <glyph glyph-name="uni021A" unicode="&#x21a;" horiz-adv-x="511" 
d="M548 696.5q3 -3.5 2 -8.5l-12 -98q-1 -5 -4.5 -8.5t-8.5 -3.5h-148q-2 0 -3.5 -1.5t-1.5 -3.5l-69 -561q-1 -5 -4.5 -8.5t-8.5 -3.5h-113q-11 0 -11 12l69 561q2 5 -4 5h-143q-5 0 -8 3.5t-2 8.5l12 98q1 5 4.5 8.5t8.5 3.5h437q5 0 8 -3.5zM83 -171q-2 4 2 10l68 102
q6 8 16 8h93q9 0 9 -7q0 -3 -3 -8l-85 -102q-5 -7 -14 -7h-78q-6 0 -8 4z" />
    <glyph glyph-name="uni021B" unicode="&#x21b;" horiz-adv-x="325" 
d="M328.5 411.5q-3.5 -3.5 -8.5 -3.5h-75q-5 0 -5 -5l-28 -225q-1 -6 -1 -15q0 -23 10.5 -33t32.5 -9h20q5 0 8 -3.5t2 -8.5l-12 -97q-2 -12 -13 -12q-17 -1 -49 -1q-69 0 -103.5 20.5t-34.5 77.5q0 8 2 26l35 280q0 5 -5 5h-44q-5 0 -8 3.5t-2 8.5l10 82q1 5 4.5 8.5
t8.5 3.5h44q6 0 6 5l14 115q1 5 4.5 8.5t8.5 3.5h108q5 0 8 -3.5t2 -8.5l-14 -115q-2 -5 4 -5h75q5 0 8 -3.5t2 -8.5l-10 -82q-1 -5 -4.5 -8.5zM68 -167q-2 4 2 10l68 102q6 8 16 8h93q9 0 9 -7q0 -3 -3 -8l-85 -102q-5 -7 -14 -7h-78q-6 0 -8 4z" />
    <glyph glyph-name="uni021F" unicode="&#x21f;" horiz-adv-x="482" 
d="M432 485q34 -37 34 -103q0 -23 -2 -36l-41 -334q0 -5 -4 -8.5t-9 -3.5h-113q-5 0 -8 3.5t-2 8.5l38 314q1 5 1 15q0 28 -14 44t-39 16q-28 0 -47.5 -20.5t-24.5 -55.5l-39 -313q0 -5 -4 -8.5t-9 -3.5h-113q-5 0 -8 3.5t-2 8.5l83 676q1 5 4.5 8.5t8.5 3.5h113q5 0 8 -3.5
t2 -8.5l-26 -214q0 -3 2 -3.5t5 3.5q41 48 109 48q63 0 97 -37zM182 875q0 10 11 10h86q10 0 13 -8l27 -59q3 -6 6 0l41 59q5 8 16 8h85q8 0 8 -7q0 -3 -3 -8l-81 -104q-5 -8 -14 -8h-127q-10 0 -13 8l-54 104q-1 2 -1 5z" />
    <glyph glyph-name="uni0228" unicode="&#x228;" horiz-adv-x="496" 
d="M513.5 582.5q-3.5 -3.5 -8.5 -3.5h-260q-4 0 -6 -5l-19 -156q0 -5 4 -5h162q5 0 8 -3.5t2 -8.5l-11 -97q-1 -5 -5 -8.5t-9 -3.5h-162q-2 0 -3.5 -1.5t-1.5 -3.5l-20 -161q0 -5 4 -5h260q11 0 11 -12l-12 -97q-1 -5 -4.5 -8.5t-8.5 -3.5h-140q-3 0 -4 -2t1 -4
q26 -33 26 -72q0 -19 -6 -37q-23 -62 -96 -62q-25 0 -51 8q-10 4 -7 15l12 48q2 11 15 8q8 -2 12 -2q15 0 25 10t10 29q0 26 -31 59q-4 2 -7 2h-149q-11 0 -11 12l83 676q1 5 5 8.5t9 3.5h390q5 0 8 -3.5t2 -8.5l-12 -97q-1 -5 -4.5 -8.5z" />
    <glyph glyph-name="uni0229" unicode="&#x229;" horiz-adv-x="475" 
d="M454 223q-1 -12 -13 -12h-257q-5 0 -5 -5q-1 -13 -1 -34q2 -28 18.5 -44t45.5 -16q24 1 42 12.5t29 32.5q7 10 16 8l100 -21q12 -3 6 -15q-23 -54 -62.5 -87.5t-92.5 -44.5q-3 0 -4 -2t1 -4q27 -34 27 -74q0 -18 -6 -36q-12 -34 -38.5 -48.5t-58.5 -14.5q-25 0 -51 8
q-10 5 -7 15l13 48q2 11 15 8q8 -2 11 -2q11 0 20 6.5t13 18.5q3 7 3 15q0 25 -31 58q-2 2 -6 2q-64 10 -98.5 49.5t-39.5 104.5q-1 10 -1 32q0 31 5 76q5 54 18 98q20 76 79 121.5t140 45.5q85 0 133.5 -47.5t48.5 -126.5q0 -55 -12 -125zM225 384.5q-19 -16.5 -27 -43.5
q-6 -24 -8 -38q0 -5 5 -5h126q5 0 5 5q2 13 2 38q0 27 -15.5 43.5t-42.5 16.5q-26 0 -45 -16.5z" />
    <glyph glyph-name="uni0237" unicode="&#x237;" horiz-adv-x="231" 
d="M-99 -192l12 96q2 13 13 11q50 -1 73 19t28 65l61 503q1 5 4.5 8.5t8.5 3.5h114q11 0 11 -12l-62 -502q-10 -77 -32.5 -120.5t-74 -64t-146.5 -19.5q-12 0 -10 12z" />
    <glyph glyph-name="uni0259" unicode="&#x259;" horiz-adv-x="475" 
d="M435 159q-20 -76 -79 -121.5t-140 -45.5q-85 0 -133.5 47.5t-48.5 126.5q0 50 11 125q2 12 14 12h257q5 0 5 5v24q0 33 -16 51.5t-47 18.5q-24 -1 -42 -12.5t-29 -31.5q-6 -9 -16 -8l-99 21q-13 2 -7 14q30 66 83 101.5t125 35.5q94 0 139.5 -48t45.5 -137q0 -32 -5 -80
q-5 -54 -18 -98zM274.5 129q18.5 16 27.5 44q4 15 7 38q2 5 -4 5h-126q-4 0 -6 -5q-2 -25 -1 -37q0 -27 15 -44t42 -17t45.5 16z" />
    <glyph glyph-name="uni0292" unicode="&#x292;" horiz-adv-x="442" 
d="M249 258q0 -2 3 -2q75 -16 111 -66.5t36 -119.5q0 -11 -2 -33q-9 -70 -49 -124.5t-102 -84t-133 -29.5q-54 0 -108 18q-9 3 -8 14l16 100q2 14 14 9q42 -15 86 -15q59 0 100 30t49 91q1 6 1 19q0 45 -24.5 74t-70.5 29q-32 0 -67 -14q-2 -1 -6 -1q-7 0 -10 6l-27 67
q-1 2 -1 6q0 7 6 11l172 137q2 2 2 4t-3 2h-160q-11 0 -11 12l13 104q1 5 4.5 8.5t8.5 3.5h321q11 0 11 -12l-13 -103q-1 -9 -9 -15l-148 -122q-2 -2 -2 -4z" />
    <glyph glyph-name="uni02BB" unicode="&#x2bb;" horiz-adv-x="190" 
d="M69 690q0 10 12 10h113q10 0 11 -10l23 -203q0 -13 -13 -13h-85q-11 0 -12 10l-48 202z" />
    <glyph glyph-name="uni02BC" unicode="&#x2bc;" horiz-adv-x="190" 
d="M250 686l-97 -202q-4 -10 -15 -10h-86q-6 0 -8.5 3.5t-0.5 9.5l72 203q4 10 14 10h113q14 0 8 -14z" />
    <glyph glyph-name="circumflex" unicode="&#x2c6;" horiz-adv-x="303" 
d="M73 580q0 4 3 8l80 104q5 8 14 8h127q10 0 13 -8l55 -104q1 -2 1 -6t-3 -6.5t-7 -2.5h-85q-10 0 -13 8l-27 59q-3 6 -6 0l-41 -59q-5 -8 -16 -8h-86q-9 0 -9 7z" />
    <glyph glyph-name="caron" unicode="&#x2c7;" horiz-adv-x="339" 
d="M88 690q0 10 11 10h86q10 0 13 -8l27 -59q3 -6 6 0l41 59q5 8 16 8h85q8 0 8 -7q0 -3 -3 -8l-81 -104q-5 -8 -14 -8h-127q-10 0 -13 8l-54 104q-1 2 -1 5z" />
    <glyph glyph-name="uni02C9" unicode="&#x2c9;" horiz-adv-x="249" 
d="M58 607.5q-3 3.5 -2 8.5l9 71q1 5 4.5 8.5t8.5 3.5h226q5 0 8 -3.5t2 -8.5l-8 -71q-1 -5 -5 -8.5t-9 -3.5h-226q-5 0 -8 3.5z" />
    <glyph glyph-name="breve" unicode="&#x2d8;" horiz-adv-x="302" 
d="M110.5 585q-33.5 31 -31.5 81q0 12 12 12h57q9 0 11 -11q1 -20 14.5 -33t34.5 -13t37.5 13t22.5 33q3 11 13 11h57q13 0 10 -11q-10 -50 -51 -81.5t-97 -31.5t-89.5 31z" />
    <glyph glyph-name="dotaccent" unicode="&#x2d9;" horiz-adv-x="184" 
d="M94 591.5q-19 19.5 -19 49.5q0 38 25.5 63.5t62.5 25.5q31 0 49.5 -18.5t18.5 -49.5q0 -38 -26 -64t-62 -26q-30 0 -49 19.5z" />
    <glyph glyph-name="ring" unicode="&#x2da;" horiz-adv-x="272" 
d="M109 593.5q-30 30.5 -30 77.5q0 38 19 70t50.5 51t67.5 19q46 0 76 -30t30 -77q0 -38 -18.5 -70.5t-50 -51.5t-67.5 -19q-47 0 -77 30.5zM233 654q17 17 17 40q0 19 -12.5 31.5t-30.5 12.5q-22 0 -38.5 -16.5t-16.5 -40.5q0 -19 12 -31.5t31 -12.5q21 0 38 17z" />
    <glyph glyph-name="ogonek" unicode="&#x2db;" horiz-adv-x="156" 
d="M102 -183q-25 -9 -54 -9q-35 0 -58 17.5t-23 58.5q0 58 60 108q1 2 5 4q4 4 12 4h62q8 0 8 -5t-5 -10q-53 -42 -49 -75q1 -12 7.5 -18t17.5 -6q5 0 13 2q2 1 6 1q8 0 7 -9l1 -48q0 -12 -10 -15z" />
    <glyph glyph-name="tilde" unicode="&#x2dc;" horiz-adv-x="343" 
d="M250 584.5q-12 4.5 -29 13.5q-4 3 -13 8t-15.5 7t-13.5 2q-14 0 -24.5 -5t-21.5 -17q-9 -11 -16 -2l-36 36q-4 6 -4 9q0 4 3 8q18 31 45 48t57 17q17 0 31 -5.5t33 -16.5q3 -2 11 -7.5t15.5 -8t14.5 -2.5q27 0 44 21q9 12 16 3l34 -35q4 -6 4 -9q0 -4 -3 -9
q-19 -30 -46.5 -45t-57.5 -15q-16 0 -28 4.5z" />
    <glyph glyph-name="hungarumlaut" unicode="&#x2dd;" horiz-adv-x="386" 
d="M75 588q-2 4 2 10l66 102q6 8 16 8h92q10 0 10 -7q0 -4 -4 -8l-84 -102q-5 -7 -14 -7h-76q-6 0 -8 4zM245 590q0 4 3 8l66 102q2 4 6.5 6t8.5 2h93q9 0 9 -7q0 -4 -4 -8l-83 -102q-5 -7 -14 -7h-76q-9 0 -9 6z" />
    <glyph glyph-name="gravecomb" unicode="&#x300;" 
d="M41 584q0 -8 -10 -8h-78q-8 0 -13 7l-59 102q-2 4 -2 6q0 4 3.5 6.5t8.5 2.5h93q10 0 13 -8l43 -102q1 -2 1 -6z" />
    <glyph glyph-name="acutecomb" unicode="&#x301;" 
d="M-152 580q-2 4 2 10l68 102q6 8 16 8h93q9 0 9 -7q0 -3 -3 -8l-85 -102q-5 -7 -14 -7h-78q-6 0 -8 4z" />
    <glyph glyph-name="uni0302" unicode="&#x302;" 
d="M-265 580q0 4 3 8l80 104q5 8 14 8h127q10 0 13 -8l55 -104q1 -2 1 -6t-3 -6.5t-7 -2.5h-85q-10 0 -13 8l-27 59q-3 6 -6 0l-41 -59q-5 -8 -16 -8h-86q-9 0 -9 7z" />
    <glyph glyph-name="tildecomb" unicode="&#x303;" 
d="M-78 584.5q-12 4.5 -29 13.5q-4 3 -13 8t-15.5 7t-13.5 2q-14 0 -24.5 -5t-21.5 -17q-9 -11 -16 -2l-36 36q-4 6 -4 9q0 4 3 8q18 31 45 48t57 17q17 0 31 -5.5t33 -16.5q3 -2 11 -7.5t15.5 -8t14.5 -2.5q27 0 44 21q9 12 16 3l34 -35q4 -6 4 -9q0 -4 -3 -9
q-19 -30 -46.5 -45t-57.5 -15q-16 0 -28 4.5z" />
    <glyph glyph-name="uni0304" unicode="&#x304;" 
d="M-192 596.5q-3 3.5 -2 8.5l9 72q1 5 4.5 8.5t8.5 3.5h226q5 0 8 -3.5t2 -8.5l-9 -72q-1 -5 -4.5 -8.5t-8.5 -3.5h-226q-5 0 -8 3.5z" />
    <glyph glyph-name="uni0306" unicode="&#x306;" 
d="M-189 592q-33 28 -33 75q0 10 2.5 14t9.5 4h54q9 0 11 -11q1 -20 15.5 -33t36.5 -13t39.5 13t24.5 33q3 11 13 11h53q12 0 10 -11q-10 -49 -51 -79.5t-97 -30.5q-55 0 -88 28z" />
    <glyph glyph-name="uni0307" unicode="&#x307;" 
d="M-83 591.5q-19 19.5 -19 49.5q0 38 25.5 63.5t62.5 25.5q31 0 49.5 -18.5t18.5 -49.5q0 -38 -26 -64t-62 -26q-30 0 -49 19.5z" />
    <glyph glyph-name="uni0308" unicode="&#x308;" 
d="M-75 594.5q-19 19.5 -19 49.5q0 38 25.5 63.5t62.5 25.5q31 0 49.5 -18.5t18.5 -49.5q0 -38 -26 -64t-62 -26q-30 0 -49 19.5zM-261 594.5q-19 19.5 -19 49.5q0 38 25.5 63.5t62.5 25.5q31 0 49.5 -18.5t18.5 -49.5q0 -38 -26 -64t-62 -26q-30 0 -49 19.5z" />
    <glyph glyph-name="hookabovecomb" unicode="&#x309;" 
d="M-279 574q8 17 16.5 27t21.5 23q11 11 16.5 19t7.5 21q1 10 -6.5 17t-17.5 7q-14 0 -23.5 -6t-25.5 -24q-4 -6 -10 -6q-5 0 -8 3l-29 25q-5 3 -5 8q0 3 4 9q27 32 50.5 45.5t57.5 13.5q40 0 63 -20.5t23 -56.5q0 -30 -11.5 -48t-35.5 -41q-22 -20 -30 -32q-6 -9 -15 -7
l-37 8q-13 4 -6 15z" />
    <glyph glyph-name="uni030A" unicode="&#x30a;" 
d="M-130 593.5q-30 30.5 -30 77.5q0 38 19 70t50.5 51t67.5 19q46 0 76 -30t30 -77q0 -38 -18.5 -70.5t-50 -51.5t-67.5 -19q-47 0 -77 30.5zM-6 654q17 17 17 40q0 19 -12.5 31.5t-30.5 12.5q-22 0 -38.5 -16.5t-16.5 -40.5q0 -19 12 -31.5t31 -12.5q21 0 38 17z" />
    <glyph glyph-name="uni030B" unicode="&#x30b;" 
d="M-299.5 579.5q-2.5 3.5 1.5 10.5l58 101q5 9 15 9h96q7 0 9 -4t-2 -10l-64 -101q-2 -4 -6.5 -6.5t-8.5 -2.5h-90q-6 0 -8.5 3.5zM-136.5 580q-2.5 4 1.5 10l64 101q6 9 16 9h90q9 0 9 -6q0 -3 -3 -8l-64 -101q-2 -4 -6.5 -6.5t-8.5 -2.5h-90q-6 0 -8.5 4z" />
    <glyph glyph-name="uni030C" unicode="&#x30c;" 
d="M-251 690q0 10 11 10h86q10 0 13 -8l27 -59q3 -6 6 0l41 59q5 8 16 8h85q8 0 8 -7q0 -3 -3 -8l-81 -104q-5 -8 -14 -8h-127q-10 0 -13 8l-54 104q-1 2 -1 5z" />
    <glyph glyph-name="uni0312" unicode="&#x312;" 
d="M44 696q2 -4 -2 -10l-67 -102q-6 -8 -16 -8h-94q-8 0 -8 7q0 4 3 8l85 102q5 7 14 7h77q6 0 8 -4z" />
    <glyph glyph-name="uni0313" unicode="&#x313;" 
d="M-135 580q-2 4 2 10l68 102q6 8 16 8h93q9 0 9 -7q0 -3 -3 -8l-85 -102q-5 -7 -14 -7h-78q-6 0 -8 4z" />
    <glyph glyph-name="uni031B" unicode="&#x31b;" 
d="M-105 460l5 42q2 12 12 13q54 6 68 73q1 6 4.5 9t8.5 3h55q5 0 7.5 -4.5t1.5 -12.5q-13 -65 -55.5 -98t-96.5 -37q-12 0 -10 12z" />
    <glyph glyph-name="dotbelowcomb" unicode="&#x323;" 
d="M-182 -210q-18 18 -18 47q0 37 24.5 61t59.5 24q29 0 47 -17.5t18 -46.5q0 -36 -24.5 -61t-58.5 -25q-30 0 -48 18z" />
    <glyph glyph-name="uni0326" unicode="&#x326;" 
d="M-250 -170q-2 4 2 10l68 102q6 8 16 8h93q9 0 9 -7q0 -3 -3 -8l-85 -102q-5 -7 -14 -7h-78q-6 0 -8 4z" />
    <glyph glyph-name="uni0327" unicode="&#x327;" 
d="M-192 -168l13 48q2 11 15 8q8 -2 12 -2q13 0 23.5 9.5t10.5 27.5q0 30 -34 62q-4 4 -4 8q0 7 11 7h62q7 0 11 -4q3 -1 4 -4q36 -37 36 -83q0 -20 -7 -38q-12 -34 -37.5 -48.5t-56.5 -14.5q-29 0 -52 9q-10 3 -7 15z" />
    <glyph glyph-name="uni0328" unicode="&#x328;" 
d="M-54 -183q-25 -9 -54 -9q-35 0 -58 17.5t-23 58.5q0 58 60 108q1 2 5 4q4 4 12 4h62q8 0 8 -5q0 -4 -6 -10q-52 -42 -48 -75q1 -12 7.5 -18t17.5 -6q5 0 13 2q2 1 6 1q8 0 7 -9l1 -48q0 -12 -10 -15z" />
    <glyph glyph-name="uni0335" unicode="&#x335;" 
d="M-251.5 637.5q3.5 3.5 8.5 3.5h286q5 0 8 -3.5t2 -8.5l-7 -60q-1 -5 -4.5 -8.5t-8.5 -3.5h-286q-11 0 -11 12l8 60q1 5 4.5 8.5z" />
    <glyph glyph-name="uni0336" unicode="&#x336;" 
d="M-494 512.5q-3 3.5 -2 8.5l8 72q1 5 5 8.5t9 3.5h518q5 0 8 -3.5t2 -8.5l-9 -72q-1 -5 -4.5 -8.5t-8.5 -3.5h-518q-5 0 -8 3.5z" />
    <glyph glyph-name="uni0337" unicode="&#x337;" 
d="M-384 44q-5 0 -8 5l-43 63q-3 5 -3 7q0 6 6 10l460 356q6 4 9 4q5 0 8 -5l43 -63q3 -4 3 -7q0 -5 -6 -10l-460 -356q-6 -4 -9 -4z" />
    <glyph glyph-name="uni0338" unicode="&#x338;" 
d="M-448 -33.5q-2 3.5 2 10.5l437 754q6 9 15 9h51q6 0 8.5 -3.5t-1.5 -10.5l-439 -754q-6 -9 -15 -9h-49q-7 0 -9 3.5z" />
    <glyph glyph-name="uni0394" unicode="&#x394;" horiz-adv-x="582" 
d="M2 3.5q-3 3.5 -2 8.5l12 101q2 8 5 15l286 563q5 9 15 9h78q12 0 13 -9l150 -564q1 -6 1 -15l-12 -100q-1 -5 -5 -8.5t-9 -3.5h-524q-5 0 -8 3.5zM152 122h270q5 0 5 6l-90 383q0 3 -2 3t-4 -3l-182 -383q-3 -6 3 -6z" />
    <glyph glyph-name="uni03A9" unicode="&#x3a9;" horiz-adv-x="548" 
d="M24 3.5q-3 3.5 -2 8.5l12 97q1 5 4.5 8.5t8.5 3.5h38q3 0 4 2t-1 4q-29 42 -29 100q0 9 2 31l27 225q8 67 42.5 118t89.5 79t122 28q93 0 146.5 -51t53.5 -138q0 -24 -2 -36l-27 -225q-10 -79 -59 -131q-2 -2 -2 -4t3 -2h38q5 0 8 -3.5t2 -8.5l-12 -97q-1 -5 -4.5 -8.5
t-8.5 -3.5h-191q-5 0 -8 3.5t-2 8.5l12 99q1 10 12 13q26 9 46 35t24 62l33 267q1 6 1 18q0 37 -21 59t-57 22q-40 0 -68 -27.5t-33 -71.5l-33 -267q-1 -6 -1 -17q0 -30 13 -50.5t34 -28.5q9 -4 8 -14l-12 -99q-1 -5 -4.5 -8.5t-8.5 -3.5h-190q-5 0 -8 3.5z" />
    <glyph glyph-name="uni03BC" unicode="&#x3bc;" horiz-adv-x="486" 
d="M351.5 510.5q3.5 3.5 8.5 3.5h113q11 0 11 -12l-61 -490q0 -5 -4 -8.5t-9 -3.5h-113q-5 0 -8 3.5t-2 8.5l3 25q0 3 -2 3.5t-4 -1.5q-39 -46 -109 -46h-10q-5 2 -5 -4l-22 -177q-1 -5 -4.5 -8.5t-8.5 -3.5h-114q-5 0 -8 3.5t-2 8.5l85 690q1 5 4.5 8.5t8.5 3.5h113
q5 0 8.5 -3.5t2.5 -8.5l-39 -314q-1 -6 -1 -16q0 -28 14 -43.5t39 -15.5q29 0 48.5 21t24.5 56l38 312q1 5 4.5 8.5z" />
    <glyph glyph-name="pi" unicode="&#x3c0;" horiz-adv-x="582" 
d="M582.5 397.5q-3.5 -3.5 -8.5 -3.5h-48q-4 0 -6 -5l-25 -203q-2 -20 -2 -25q0 -27 9.5 -34.5t29.5 -7.5h2q10 0 8 -11l-12 -96q-2 -12 -13 -12q-30 -2 -49 -2q-54 0 -87.5 18t-33.5 70q0 7 2 23l34 280q2 5 -4 5h-116q-4 0 -6 -5l-46 -377q-1 -5 -4.5 -8.5t-8.5 -3.5h-114
q-5 0 -8 3.5t-2 8.5l47 377q0 5 -5 5h-50q-5 0 -8 3.5t-2 8.5l11 96q1 5 5 8.5t9 3.5h508q5 0 8 -3.5t2 -8.5l-12 -96q-1 -5 -4.5 -8.5z" />
    <glyph glyph-name="Wgrave" unicode="&#x1e80;" horiz-adv-x="776" 
d="M155 10l-69 677v2q0 11 13 11h119q11 0 11 -11l27 -384q0 -3 2.5 -3t3.5 3l117 384q3 11 14 11h108q11 0 11 -11l31 -384q0 -3 2.5 -3t3.5 3l117 384q3 11 14 11h114q12 0 8 -13l-224 -676q-3 -11 -14 -11h-110q-11 0 -11 11l-30 402q0 3 -2 3t-3 -3l-120 -402
q-3 -11 -14 -11h-107q-9 0 -12 10zM510 770q0 -8 -10 -8h-78q-8 0 -13 7l-59 102q-2 4 -2 6q0 4 3.5 6.5t8.5 2.5h93q10 0 13 -8l43 -102q1 -2 1 -6z" />
    <glyph glyph-name="wgrave" unicode="&#x1e81;" horiz-adv-x="677" 
d="M122 10l-61 492v2q0 11 12 11h111q12 0 12 -11l23 -279q0 -4 2.5 -4t3.5 4l91 279q3 11 14 11h100q11 0 11 -11l27 -278q0 -4 2.5 -4t3.5 4l92 278q3 11 14 11l112 -2q6 0 8.5 -3.5t0.5 -9.5l-183 -490q-4 -10 -15 -10h-113q-10 0 -11 10l-27 262q-1 4 -3 4t-3 -4
l-87 -261q-1 -5 -5 -8t-9 -3h-111q-11 0 -12 10zM436 584q0 -8 -10 -8h-78q-8 0 -13 7l-59 102q-2 4 -2 6q0 4 3.5 6.5t8.5 2.5h93q10 0 13 -8l43 -102q1 -2 1 -6z" />
    <glyph glyph-name="Wacute" unicode="&#x1e82;" horiz-adv-x="776" 
d="M155 10l-69 677v2q0 11 13 11h119q11 0 11 -11l27 -384q0 -3 2.5 -3t3.5 3l117 384q3 11 14 11h108q11 0 11 -11l31 -384q0 -3 2.5 -3t3.5 3l117 384q3 11 14 11h114q12 0 8 -13l-224 -676q-3 -11 -14 -11h-110q-11 0 -11 11l-30 402q0 3 -2 3t-3 -3l-120 -402
q-3 -11 -14 -11h-107q-9 0 -12 10zM398 766q-2 4 2 10l68 102q6 8 16 8h93q9 0 9 -7q0 -3 -3 -8l-85 -102q-5 -7 -14 -7h-78q-6 0 -8 4z" />
    <glyph glyph-name="wacute" unicode="&#x1e83;" horiz-adv-x="677" 
d="M122 10l-61 492v2q0 11 12 11h111q12 0 12 -11l23 -279q0 -4 2.5 -4t3.5 4l91 279q3 11 14 11h100q11 0 11 -11l27 -278q0 -4 2.5 -4t3.5 4l92 278q3 11 14 11l112 -2q6 0 8.5 -3.5t0.5 -9.5l-183 -490q-4 -10 -15 -10h-113q-10 0 -11 10l-27 262q-1 4 -3 4t-3 -4
l-87 -261q-1 -5 -5 -8t-9 -3h-111q-11 0 -12 10zM324 580q-2 4 2 10l68 102q6 8 16 8h93q9 0 9 -7q0 -3 -3 -8l-85 -102q-5 -7 -14 -7h-78q-6 0 -8 4z" />
    <glyph glyph-name="Wdieresis" unicode="&#x1e84;" horiz-adv-x="776" 
d="M155 10l-69 677v2q0 11 13 11h119q11 0 11 -11l27 -384q0 -3 2.5 -3t3.5 3l117 384q3 11 14 11h108q11 0 11 -11l31 -384q0 -3 2.5 -3t3.5 3l117 384q3 11 14 11h114q12 0 8 -13l-224 -676q-3 -11 -14 -11h-110q-11 0 -11 11l-30 402q0 3 -2 3t-3 -3l-120 -402
q-3 -11 -14 -11h-107q-9 0 -12 10zM504 780.5q-19 19.5 -19 49.5q0 38 25.5 63.5t62.5 25.5q31 0 49.5 -18.5t18.5 -49.5q0 -38 -26 -64t-62 -26q-30 0 -49 19.5zM318 780.5q-19 19.5 -19 49.5q0 38 25.5 63.5t62.5 25.5q31 0 49.5 -18.5t18.5 -49.5q0 -38 -26 -64t-62 -26
q-30 0 -49 19.5z" />
    <glyph glyph-name="wdieresis" unicode="&#x1e85;" horiz-adv-x="677" 
d="M122 10l-61 492v2q0 11 12 11h111q12 0 12 -11l23 -279q0 -4 2.5 -4t3.5 4l91 279q3 11 14 11h100q11 0 11 -11l27 -278q0 -4 2.5 -4t3.5 4l92 278q3 11 14 11l112 -2q6 0 8.5 -3.5t0.5 -9.5l-183 -490q-4 -10 -15 -10h-113q-10 0 -11 10l-27 262q-1 4 -3 4t-3 -4
l-87 -261q-1 -5 -5 -8t-9 -3h-111q-11 0 -12 10zM430 594.5q-19 19.5 -19 49.5q0 38 25.5 63.5t62.5 25.5q31 0 49.5 -18.5t18.5 -49.5q0 -38 -26 -64t-62 -26q-30 0 -49 19.5zM244 594.5q-19 19.5 -19 49.5q0 38 25.5 63.5t62.5 25.5q31 0 49.5 -18.5t18.5 -49.5
q0 -38 -26 -64t-62 -26q-30 0 -49 19.5z" />
    <glyph glyph-name="uni1EA0" unicode="&#x1ea0;" horiz-adv-x="559" 
d="M379 10l-11 98q0 4 -4 4h-181q-3 0 -6 -4l-34 -98q-4 -10 -14 -10h-117q-14 0 -8 13l257 677q4 10 15 10h141q11 0 12 -10l92 -677q0 -13 -12 -13h-118q-11 0 -12 10zM222 221h128q6 0 6 6l-32 290q0 4 -2 4t-3 -4l-101 -290q-1 -6 4 -6zM185 -210q-18 18 -18 47
q0 37 24.5 61t59.5 24q29 0 47 -17.5t18 -46.5q0 -36 -24.5 -61t-58.5 -25q-30 0 -48 18z" />
    <glyph glyph-name="uni1EA1" unicode="&#x1ea1;" horiz-adv-x="472" 
d="M356.5 510.5q3.5 3.5 8.5 3.5h113q5 0 8 -3.5t2 -8.5l-60 -490q-1 -5 -4.5 -8.5t-8.5 -3.5h-113q-5 0 -8 3.5t-2 8.5l4 36q1 4 -1 4.5t-4 -2.5q-43 -58 -114 -58q-66 0 -101.5 42.5t-36.5 116.5q-2 24 7 107q11 83 22 112q18 71 64 111.5t113 40.5q70 0 97 -55
q2 -3 3.5 -3t1.5 4l5 34q1 5 4.5 8.5zM322 257q4 33 4 62q0 17 -1 25q0 25 -14.5 41t-39.5 16q-24 0 -42.5 -16t-26.5 -42q-11 -37 -16 -86q-7 -49 -5 -86q1 -26 16 -42t39 -16q25 0 43 16.5t26 42.5q10 33 17 85zM141 -210q-18 18 -18 47q0 37 24.5 61t59.5 24
q29 0 47 -17.5t18 -46.5q0 -36 -24.5 -61t-58.5 -25q-30 0 -48 18z" />
    <glyph glyph-name="uni1EA2" unicode="&#x1ea2;" horiz-adv-x="559" 
d="M379 10l-11 98q0 4 -4 4h-181q-3 0 -6 -4l-34 -98q-4 -10 -14 -10h-117q-14 0 -8 13l257 677q4 10 15 10h141q11 0 12 -10l92 -677q0 -13 -12 -13h-118q-11 0 -12 10zM222 221h128q6 0 6 6l-32 290q0 4 -2 4t-3 -4l-101 -290q-1 -6 4 -6zM331 760q8 17 16.5 27t21.5 23
q11 11 16.5 19t7.5 21q1 10 -6.5 17t-17.5 7q-14 0 -23.5 -6t-25.5 -24q-4 -6 -10 -6q-5 0 -8 3l-29 25q-5 3 -5 8q0 3 4 9q27 32 50.5 45.5t57.5 13.5q40 0 63 -20.5t23 -56.5q0 -30 -11.5 -48t-35.5 -41q-22 -20 -30 -32q-6 -9 -15 -7l-37 8q-13 4 -6 15z" />
    <glyph glyph-name="uni1EA3" unicode="&#x1ea3;" horiz-adv-x="472" 
d="M356.5 510.5q3.5 3.5 8.5 3.5h113q5 0 8 -3.5t2 -8.5l-60 -490q-1 -5 -4.5 -8.5t-8.5 -3.5h-113q-5 0 -8 3.5t-2 8.5l4 36q1 4 -1 4.5t-4 -2.5q-43 -58 -114 -58q-66 0 -101.5 42.5t-36.5 116.5q-2 24 7 107q11 83 22 112q18 71 64 111.5t113 40.5q70 0 97 -55
q2 -3 3.5 -3t1.5 4l5 34q1 5 4.5 8.5zM322 257q4 33 4 62q0 17 -1 25q0 25 -14.5 41t-39.5 16q-24 0 -42.5 -16t-26.5 -42q-11 -37 -16 -86q-7 -49 -5 -86q1 -26 16 -42t39 -16q25 0 43 16.5t26 42.5q10 33 17 85zM266 574q8 17 16.5 27t21.5 23q11 11 16.5 19t7.5 21
q1 10 -6.5 17t-17.5 7q-14 0 -23.5 -6t-25.5 -24q-4 -6 -10 -6q-5 0 -8 3l-29 25q-5 3 -5 8q0 3 4 9q27 32 50.5 45.5t57.5 13.5q40 0 63 -20.5t23 -56.5q0 -30 -11.5 -48t-35.5 -41q-22 -20 -30 -32q-6 -9 -15 -7l-37 8q-13 4 -6 15z" />
    <glyph glyph-name="uni1EA4" unicode="&#x1ea4;" horiz-adv-x="559" 
d="M379 10l-11 98q0 4 -4 4h-181q-3 0 -6 -4l-34 -98q-4 -10 -14 -10h-117q-14 0 -8 13l257 677q4 10 15 10h141q11 0 12 -10l92 -677q0 -13 -12 -13h-118q-11 0 -12 10zM222 221h128q6 0 6 6l-32 290q0 4 -2 4t-3 -4l-101 -290q-1 -6 4 -6zM206 766q0 4 3 8l80 104
q5 8 14 8h127q10 0 13 -8l55 -104q1 -2 1 -6t-3 -6.5t-7 -2.5h-85q-10 0 -13 8l-27 59q-3 6 -6 0l-41 -59q-5 -8 -16 -8h-86q-9 0 -9 7zM502 844q-2 4 2 10l68 102q6 8 16 8h93q9 0 9 -7q0 -3 -3 -8l-85 -102q-5 -7 -14 -7h-78q-6 0 -8 4z" />
    <glyph glyph-name="uni1EA5" unicode="&#x1ea5;" horiz-adv-x="472" 
d="M356.5 510.5q3.5 3.5 8.5 3.5h113q5 0 8 -3.5t2 -8.5l-60 -490q-1 -5 -4.5 -8.5t-8.5 -3.5h-113q-5 0 -8 3.5t-2 8.5l4 36q1 4 -1 4.5t-4 -2.5q-43 -58 -114 -58q-66 0 -101.5 42.5t-36.5 116.5q-2 24 7 107q11 83 22 112q18 71 64 111.5t113 40.5q70 0 97 -55
q2 -3 3.5 -3t1.5 4l5 34q1 5 4.5 8.5zM322 257q4 33 4 62q0 17 -1 25q0 25 -14.5 41t-39.5 16q-24 0 -42.5 -16t-26.5 -42q-11 -37 -16 -86q-7 -49 -5 -86q1 -26 16 -42t39 -16q25 0 43 16.5t26 42.5q10 33 17 85zM140 580q0 4 3 8l80 104q5 8 14 8h127q10 0 13 -8l55 -104
q1 -2 1 -6t-3 -6.5t-7 -2.5h-85q-10 0 -13 8l-27 59q-3 6 -6 0l-41 -59q-5 -8 -16 -8h-86q-9 0 -9 7zM436 658q-2 4 2 10l68 102q6 8 16 8h93q9 0 9 -7q0 -3 -3 -8l-85 -102q-5 -7 -14 -7h-78q-6 0 -8 4z" />
    <glyph glyph-name="uni1EA6" unicode="&#x1ea6;" horiz-adv-x="559" 
d="M379 10l-11 98q0 4 -4 4h-181q-3 0 -6 -4l-34 -98q-4 -10 -14 -10h-117q-14 0 -8 13l257 677q4 10 15 10h141q11 0 12 -10l92 -677q0 -13 -12 -13h-118q-11 0 -12 10zM222 221h128q6 0 6 6l-32 290q0 4 -2 4t-3 -4l-101 -290q-1 -6 4 -6zM206 766q0 4 3 8l80 104
q5 8 14 8h127q10 0 13 -8l55 -104q1 -2 1 -6t-3 -6.5t-7 -2.5h-85q-10 0 -13 8l-27 59q-3 6 -6 0l-41 -59q-5 -8 -16 -8h-86q-9 0 -9 7zM586 889q0 -8 -10 -8h-78q-8 0 -13 7l-59 102q-2 4 -2 6q0 4 3.5 6.5t8.5 2.5h93q10 0 13 -8l43 -102q1 -2 1 -6z" />
    <glyph glyph-name="uni1EA7" unicode="&#x1ea7;" horiz-adv-x="472" 
d="M356.5 510.5q3.5 3.5 8.5 3.5h113q5 0 8 -3.5t2 -8.5l-60 -490q-1 -5 -4.5 -8.5t-8.5 -3.5h-113q-5 0 -8 3.5t-2 8.5l4 36q1 4 -1 4.5t-4 -2.5q-43 -58 -114 -58q-66 0 -101.5 42.5t-36.5 116.5q-2 24 7 107q11 83 22 112q18 71 64 111.5t113 40.5q70 0 97 -55
q2 -3 3.5 -3t1.5 4l5 34q1 5 4.5 8.5zM322 257q4 33 4 62q0 17 -1 25q0 25 -14.5 41t-39.5 16q-24 0 -42.5 -16t-26.5 -42q-11 -37 -16 -86q-7 -49 -5 -86q1 -26 16 -42t39 -16q25 0 43 16.5t26 42.5q10 33 17 85zM140 580q0 4 3 8l80 104q5 8 14 8h127q10 0 13 -8l55 -104
q1 -2 1 -6t-3 -6.5t-7 -2.5h-85q-10 0 -13 8l-27 59q-3 6 -6 0l-41 -59q-5 -8 -16 -8h-86q-9 0 -9 7zM520 703q0 -8 -10 -8h-78q-8 0 -13 7l-59 102q-2 4 -2 6q0 4 3.5 6.5t8.5 2.5h93q10 0 13 -8l43 -102q1 -2 1 -6z" />
    <glyph glyph-name="uni1EA8" unicode="&#x1ea8;" horiz-adv-x="559" 
d="M379 10l-11 98q0 4 -4 4h-181q-3 0 -6 -4l-34 -98q-4 -10 -14 -10h-117q-14 0 -8 13l257 677q4 10 15 10h141q11 0 12 -10l92 -677q0 -13 -12 -13h-118q-11 0 -12 10zM222 221h128q6 0 6 6l-32 290q0 4 -2 4t-3 -4l-101 -290q-1 -6 4 -6zM495 880q13 25 36 48
q11 11 16.5 19t7.5 21q1 9 -6.5 16t-17.5 7q-12 0 -21 -6t-25 -23q-4 -6 -10 -6q-5 0 -8 3l-28 24q-4 3 -4 7q0 6 4 10q25 31 47.5 43.5t55.5 12.5q39 0 61 -20t22 -55q0 -28 -11.5 -46t-33.5 -39q-18 -16 -28 -30q-7 -9 -15 -8l-35 7q-13 3 -7 15zM206 766q0 4 3 8l80 104
q5 8 14 8h127q10 0 13 -8l55 -104q1 -2 1 -6t-3 -6.5t-7 -2.5h-85q-10 0 -13 8l-27 59q-3 6 -6 0l-41 -59q-5 -8 -16 -8h-86q-9 0 -9 7z" />
    <glyph glyph-name="uni1EA9" unicode="&#x1ea9;" horiz-adv-x="472" 
d="M356.5 510.5q3.5 3.5 8.5 3.5h113q5 0 8 -3.5t2 -8.5l-60 -490q-1 -5 -4.5 -8.5t-8.5 -3.5h-113q-5 0 -8 3.5t-2 8.5l4 36q1 4 -1 4.5t-4 -2.5q-43 -58 -114 -58q-66 0 -101.5 42.5t-36.5 116.5q-2 24 7 107q11 83 22 112q18 71 64 111.5t113 40.5q70 0 97 -55
q2 -3 3.5 -3t1.5 4l5 34q1 5 4.5 8.5zM322 257q4 33 4 62q0 17 -1 25q0 25 -14.5 41t-39.5 16q-24 0 -42.5 -16t-26.5 -42q-11 -37 -16 -86q-7 -49 -5 -86q1 -26 16 -42t39 -16q25 0 43 16.5t26 42.5q10 33 17 85zM429 694q13 25 36 48q11 11 16.5 19t7.5 21q1 9 -6.5 16
t-17.5 7q-12 0 -21 -6t-25 -23q-4 -6 -10 -6q-5 0 -8 3l-28 24q-4 3 -4 7q0 6 4 10q25 31 47.5 43.5t55.5 12.5q39 0 61 -20t22 -55q0 -28 -11.5 -46t-33.5 -39q-18 -16 -28 -30q-7 -9 -15 -8l-35 7q-13 3 -7 15zM140 580q0 4 3 8l80 104q5 8 14 8h127q10 0 13 -8l55 -104
q1 -2 1 -6t-3 -6.5t-7 -2.5h-85q-10 0 -13 8l-27 59q-3 6 -6 0l-41 -59q-5 -8 -16 -8h-86q-9 0 -9 7z" />
    <glyph glyph-name="uni1EAA" unicode="&#x1eaa;" horiz-adv-x="559" 
d="M379 10l-11 98q0 4 -4 4h-181q-3 0 -6 -4l-34 -98q-4 -10 -14 -10h-117q-14 0 -8 13l257 677q4 10 15 10h141q11 0 12 -10l92 -677q0 -13 -12 -13h-118q-11 0 -12 10zM222 221h128q6 0 6 6l-32 290q0 4 -2 4t-3 -4l-101 -290q-1 -6 4 -6zM206 766q0 4 3 8l80 104
q5 8 14 8h127q10 0 13 -8l55 -104q1 -2 1 -6t-3 -6.5t-7 -2.5h-85q-10 0 -13 8l-27 59q-3 6 -6 0l-41 -59q-5 -8 -16 -8h-86q-9 0 -9 7zM399 924.5q-12 4.5 -29 13.5q-4 3 -13 8t-15.5 7t-13.5 2q-14 0 -24.5 -5t-21.5 -17q-9 -11 -16 -2l-36 36q-4 6 -4 9q0 4 3 8
q18 31 45 48t57 17q17 0 31 -5.5t33 -16.5q3 -2 11 -7.5t15.5 -8t14.5 -2.5q27 0 44 21q9 12 16 3l34 -35q4 -6 4 -9q0 -4 -3 -9q-19 -30 -46.5 -45t-57.5 -15q-16 0 -28 4.5z" />
    <glyph glyph-name="uni1EAB" unicode="&#x1eab;" horiz-adv-x="472" 
d="M356.5 510.5q3.5 3.5 8.5 3.5h113q5 0 8 -3.5t2 -8.5l-60 -490q-1 -5 -4.5 -8.5t-8.5 -3.5h-113q-5 0 -8 3.5t-2 8.5l4 36q1 4 -1 4.5t-4 -2.5q-43 -58 -114 -58q-66 0 -101.5 42.5t-36.5 116.5q-2 24 7 107q11 83 22 112q18 71 64 111.5t113 40.5q70 0 97 -55
q2 -3 3.5 -3t1.5 4l5 34q1 5 4.5 8.5zM322 257q4 33 4 62q0 17 -1 25q0 25 -14.5 41t-39.5 16q-24 0 -42.5 -16t-26.5 -42q-11 -37 -16 -86q-7 -49 -5 -86q1 -26 16 -42t39 -16q25 0 43 16.5t26 42.5q10 33 17 85zM140 580q0 4 3 8l80 104q5 8 14 8h127q10 0 13 -8l55 -104
q1 -2 1 -6t-3 -6.5t-7 -2.5h-85q-10 0 -13 8l-27 59q-3 6 -6 0l-41 -59q-5 -8 -16 -8h-86q-9 0 -9 7zM333 738.5q-12 4.5 -29 13.5q-4 3 -13 8t-15.5 7t-13.5 2q-14 0 -24.5 -5t-21.5 -17q-9 -11 -16 -2l-36 36q-4 6 -4 9q0 4 3 8q18 31 45 48t57 17q17 0 31 -5.5t33 -16.5
q3 -2 11 -7.5t15.5 -8t14.5 -2.5q27 0 44 21q9 12 16 3l34 -35q4 -6 4 -9q0 -4 -3 -9q-19 -30 -46.5 -45t-57.5 -15q-16 0 -28 4.5z" />
    <glyph glyph-name="uni1EAC" unicode="&#x1eac;" horiz-adv-x="559" 
d="M379 10l-11 98q0 4 -4 4h-181q-3 0 -6 -4l-34 -98q-4 -10 -14 -10h-117q-14 0 -8 13l257 677q4 10 15 10h141q11 0 12 -10l92 -677q0 -13 -12 -13h-118q-11 0 -12 10zM222 221h128q6 0 6 6l-32 290q0 4 -2 4t-3 -4l-101 -290q-1 -6 4 -6zM185 -210q-18 18 -18 47
q0 37 24.5 61t59.5 24q29 0 47 -17.5t18 -46.5q0 -36 -24.5 -61t-58.5 -25q-30 0 -48 18zM206 766q0 4 3 8l80 104q5 8 14 8h127q10 0 13 -8l55 -104q1 -2 1 -6t-3 -6.5t-7 -2.5h-85q-10 0 -13 8l-27 59q-3 6 -6 0l-41 -59q-5 -8 -16 -8h-86q-9 0 -9 7z" />
    <glyph glyph-name="uni1EAD" unicode="&#x1ead;" horiz-adv-x="472" 
d="M356.5 510.5q3.5 3.5 8.5 3.5h113q5 0 8 -3.5t2 -8.5l-60 -490q-1 -5 -4.5 -8.5t-8.5 -3.5h-113q-5 0 -8 3.5t-2 8.5l4 36q1 4 -1 4.5t-4 -2.5q-43 -58 -114 -58q-66 0 -101.5 42.5t-36.5 116.5q-2 24 7 107q11 83 22 112q18 71 64 111.5t113 40.5q70 0 97 -55
q2 -3 3.5 -3t1.5 4l5 34q1 5 4.5 8.5zM322 257q4 33 4 62q0 17 -1 25q0 25 -14.5 41t-39.5 16q-24 0 -42.5 -16t-26.5 -42q-11 -37 -16 -86q-7 -49 -5 -86q1 -26 16 -42t39 -16q25 0 43 16.5t26 42.5q10 33 17 85zM141 -210q-18 18 -18 47q0 37 24.5 61t59.5 24
q29 0 47 -17.5t18 -46.5q0 -36 -24.5 -61t-58.5 -25q-30 0 -48 18zM140 580q0 4 3 8l80 104q5 8 14 8h127q10 0 13 -8l55 -104q1 -2 1 -6t-3 -6.5t-7 -2.5h-85q-10 0 -13 8l-27 59q-3 6 -6 0l-41 -59q-5 -8 -16 -8h-86q-9 0 -9 7z" />
    <glyph glyph-name="uni1EAE" unicode="&#x1eae;" horiz-adv-x="559" 
d="M379 10l-11 98q0 4 -4 4h-181q-3 0 -6 -4l-34 -98q-4 -10 -14 -10h-117q-14 0 -8 13l257 677q4 10 15 10h141q11 0 12 -10l92 -677q0 -13 -12 -13h-118q-11 0 -12 10zM222 221h128q6 0 6 6l-32 290q0 4 -2 4t-3 -4l-101 -290q-1 -6 4 -6zM264 779q-33 28 -33 75
q0 10 2.5 14t9.5 4h54q9 0 11 -11q1 -20 15.5 -33t36.5 -13t39.5 13t24.5 33q3 11 13 11h53q12 0 10 -11q-10 -49 -51 -79.5t-97 -30.5q-55 0 -88 28zM312 923q-2 4 2 10l68 102q6 8 16 8h93q9 0 9 -7q0 -3 -3 -8l-85 -102q-5 -7 -14 -7h-78q-6 0 -8 4z" />
    <glyph glyph-name="uni1EAF" unicode="&#x1eaf;" horiz-adv-x="472" 
d="M356.5 510.5q3.5 3.5 8.5 3.5h113q5 0 8 -3.5t2 -8.5l-60 -490q-1 -5 -4.5 -8.5t-8.5 -3.5h-113q-5 0 -8 3.5t-2 8.5l4 36q1 4 -1 4.5t-4 -2.5q-43 -58 -114 -58q-66 0 -101.5 42.5t-36.5 116.5q-2 24 7 107q11 83 22 112q18 71 64 111.5t113 40.5q70 0 97 -55
q2 -3 3.5 -3t1.5 4l5 34q1 5 4.5 8.5zM322 257q4 33 4 62q0 17 -1 25q0 25 -14.5 41t-39.5 16q-24 0 -42.5 -16t-26.5 -42q-11 -37 -16 -86q-7 -49 -5 -86q1 -26 16 -42t39 -16q25 0 43 16.5t26 42.5q10 33 17 85zM198 594q-33 28 -33 75q0 10 2.5 14t9.5 4h54q9 0 11 -11
q1 -20 15.5 -33t36.5 -13t39.5 13t24.5 33q3 11 13 11h53q12 0 10 -11q-10 -49 -51 -79.5t-97 -30.5q-55 0 -88 28zM246 738q-2 4 2 10l68 102q6 8 16 8h93q9 0 9 -7q0 -3 -3 -8l-85 -102q-5 -7 -14 -7h-78q-6 0 -8 4z" />
    <glyph glyph-name="uni1EB0" unicode="&#x1eb0;" horiz-adv-x="559" 
d="M379 10l-11 98q0 4 -4 4h-181q-3 0 -6 -4l-34 -98q-4 -10 -14 -10h-117q-14 0 -8 13l257 677q4 10 15 10h141q11 0 12 -10l92 -677q0 -13 -12 -13h-118q-11 0 -12 10zM222 221h128q6 0 6 6l-32 290q0 4 -2 4t-3 -4l-101 -290q-1 -6 4 -6zM264 779q-33 28 -33 75
q0 10 2.5 14t9.5 4h54q9 0 11 -11q1 -20 15.5 -33t36.5 -13t39.5 13t24.5 33q3 11 13 11h53q12 0 10 -11q-10 -49 -51 -79.5t-97 -30.5q-55 0 -88 28zM421 927q0 -8 -10 -8h-78q-8 0 -13 7l-59 102q-2 4 -2 6q0 4 3.5 6.5t8.5 2.5h93q10 0 13 -8l43 -102q1 -2 1 -6z" />
    <glyph glyph-name="uni1EB1" unicode="&#x1eb1;" horiz-adv-x="472" 
d="M356.5 510.5q3.5 3.5 8.5 3.5h113q5 0 8 -3.5t2 -8.5l-60 -490q-1 -5 -4.5 -8.5t-8.5 -3.5h-113q-5 0 -8 3.5t-2 8.5l4 36q1 4 -1 4.5t-4 -2.5q-43 -58 -114 -58q-66 0 -101.5 42.5t-36.5 116.5q-2 24 7 107q11 83 22 112q18 71 64 111.5t113 40.5q70 0 97 -55
q2 -3 3.5 -3t1.5 4l5 34q1 5 4.5 8.5zM322 257q4 33 4 62q0 17 -1 25q0 25 -14.5 41t-39.5 16q-24 0 -42.5 -16t-26.5 -42q-11 -37 -16 -86q-7 -49 -5 -86q1 -26 16 -42t39 -16q25 0 43 16.5t26 42.5q10 33 17 85zM198 594q-33 28 -33 75q0 10 2.5 14t9.5 4h54q9 0 11 -11
q1 -20 15.5 -33t36.5 -13t39.5 13t24.5 33q3 11 13 11h53q12 0 10 -11q-10 -49 -51 -79.5t-97 -30.5q-55 0 -88 28zM355 742q0 -8 -10 -8h-78q-8 0 -13 7l-59 102q-2 4 -2 6q0 4 3.5 6.5t8.5 2.5h93q10 0 13 -8l43 -102q1 -2 1 -6z" />
    <glyph glyph-name="uni1EB2" unicode="&#x1eb2;" horiz-adv-x="559" 
d="M379 10l-11 98q0 4 -4 4h-181q-3 0 -6 -4l-34 -98q-4 -10 -14 -10h-117q-14 0 -8 13l257 677q4 10 15 10h141q11 0 12 -10l92 -677q0 -13 -12 -13h-118q-11 0 -12 10zM222 221h128q6 0 6 6l-32 290q0 4 -2 4t-3 -4l-101 -290q-1 -6 4 -6zM353 915q8 16 15.5 25t19.5 21
q10 9 15.5 17.5t7.5 20.5q1 9 -6 15.5t-18 6.5q-12 0 -21 -5.5t-23 -21.5q-6 -6 -11 -6q-4 0 -7 3l-26 22q-5 5 -5 9t4 8q24 30 46.5 42.5t54.5 12.5q37 0 58.5 -19.5t21.5 -53.5q0 -27 -10.5 -43.5t-32.5 -38.5q-18 -16 -28 -30q-6 -8 -15 -7l-33 7q-13 3 -7 15zM264 779
q-33 28 -33 75q0 10 2.5 14t9.5 4h54q9 0 11 -11q1 -20 15.5 -33t36.5 -13t39.5 13t24.5 33q3 11 13 11h53q12 0 10 -11q-10 -49 -51 -79.5t-97 -30.5q-55 0 -88 28z" />
    <glyph glyph-name="uni1EB3" unicode="&#x1eb3;" horiz-adv-x="472" 
d="M356.5 510.5q3.5 3.5 8.5 3.5h113q5 0 8 -3.5t2 -8.5l-60 -490q-1 -5 -4.5 -8.5t-8.5 -3.5h-113q-5 0 -8 3.5t-2 8.5l4 36q1 4 -1 4.5t-4 -2.5q-43 -58 -114 -58q-66 0 -101.5 42.5t-36.5 116.5q-2 24 7 107q11 83 22 112q18 71 64 111.5t113 40.5q70 0 97 -55
q2 -3 3.5 -3t1.5 4l5 34q1 5 4.5 8.5zM322 257q4 33 4 62q0 17 -1 25q0 25 -14.5 41t-39.5 16q-24 0 -42.5 -16t-26.5 -42q-11 -37 -16 -86q-7 -49 -5 -86q1 -26 16 -42t39 -16q25 0 43 16.5t26 42.5q10 33 17 85zM287 730q8 16 15.5 25t19.5 21q10 9 15.5 17.5t7.5 20.5
q1 9 -6 15.5t-18 6.5q-12 0 -21 -5.5t-23 -21.5q-6 -6 -11 -6q-4 0 -7 3l-26 22q-5 5 -5 9t4 8q24 30 46.5 42.5t54.5 12.5q37 0 58.5 -19.5t21.5 -53.5q0 -27 -10.5 -43.5t-32.5 -38.5q-18 -16 -28 -30q-6 -8 -15 -7l-33 7q-13 3 -7 15zM198 594q-33 28 -33 75q0 10 2.5 14
t9.5 4h54q9 0 11 -11q1 -20 15.5 -33t36.5 -13t39.5 13t24.5 33q3 11 13 11h53q12 0 10 -11q-10 -49 -51 -79.5t-97 -30.5q-55 0 -88 28z" />
    <glyph glyph-name="uni1EB4" unicode="&#x1eb4;" horiz-adv-x="559" 
d="M379 10l-11 98q0 4 -4 4h-181q-3 0 -6 -4l-34 -98q-4 -10 -14 -10h-117q-14 0 -8 13l257 677q4 10 15 10h141q11 0 12 -10l92 -677q0 -13 -12 -13h-118q-11 0 -12 10zM222 221h128q6 0 6 6l-32 290q0 4 -2 4t-3 -4l-101 -290q-1 -6 4 -6zM403.5 911q-11.5 4 -26.5 13
q-3 2 -11.5 7t-14.5 7t-13 2q-25 0 -43 -19q-9 -12 -16 -3l-32 33q-7 9 -2 17q16 29 41.5 44.5t53.5 15.5q17 0 30 -5t30 -16q4 -3 12 -7.5t14.5 -7t13.5 -2.5q23 0 40 21q9 10 17 2l30 -32q3 -3 3 -8t-3 -10q-17 -27 -43 -41.5t-54 -14.5q-15 0 -26.5 4zM264 779
q-33 28 -33 75q0 10 2.5 14t9.5 4h54q9 0 11 -11q1 -20 15.5 -33t36.5 -13t39.5 13t24.5 33q3 11 13 11h53q12 0 10 -11q-10 -49 -51 -79.5t-97 -30.5q-55 0 -88 28z" />
    <glyph glyph-name="uni1EB5" unicode="&#x1eb5;" horiz-adv-x="472" 
d="M356.5 510.5q3.5 3.5 8.5 3.5h113q5 0 8 -3.5t2 -8.5l-60 -490q-1 -5 -4.5 -8.5t-8.5 -3.5h-113q-5 0 -8 3.5t-2 8.5l4 36q1 4 -1 4.5t-4 -2.5q-43 -58 -114 -58q-66 0 -101.5 42.5t-36.5 116.5q-2 24 7 107q11 83 22 112q18 71 64 111.5t113 40.5q70 0 97 -55
q2 -3 3.5 -3t1.5 4l5 34q1 5 4.5 8.5zM322 257q4 33 4 62q0 17 -1 25q0 25 -14.5 41t-39.5 16q-24 0 -42.5 -16t-26.5 -42q-11 -37 -16 -86q-7 -49 -5 -86q1 -26 16 -42t39 -16q25 0 43 16.5t26 42.5q10 33 17 85zM337.5 726q-11.5 4 -26.5 13q-3 2 -11.5 7t-14.5 7t-13 2
q-25 0 -43 -19q-9 -12 -16 -3l-32 33q-7 9 -2 17q16 29 41.5 44.5t53.5 15.5q17 0 30 -5t30 -16q4 -3 12 -7.5t14.5 -7t13.5 -2.5q23 0 40 21q9 10 17 2l30 -32q3 -3 3 -8t-3 -10q-17 -27 -43 -41.5t-54 -14.5q-15 0 -26.5 4zM198 594q-33 28 -33 75q0 10 2.5 14t9.5 4h54
q9 0 11 -11q1 -20 15.5 -33t36.5 -13t39.5 13t24.5 33q3 11 13 11h53q12 0 10 -11q-10 -49 -51 -79.5t-97 -30.5q-55 0 -88 28z" />
    <glyph glyph-name="uni1EB6" unicode="&#x1eb6;" horiz-adv-x="559" 
d="M379 10l-11 98q0 4 -4 4h-181q-3 0 -6 -4l-34 -98q-4 -10 -14 -10h-117q-14 0 -8 13l257 677q4 10 15 10h141q11 0 12 -10l92 -677q0 -13 -12 -13h-118q-11 0 -12 10zM222 221h128q6 0 6 6l-32 290q0 4 -2 4t-3 -4l-101 -290q-1 -6 4 -6zM185 -210q-18 18 -18 47
q0 37 24.5 61t59.5 24q29 0 47 -17.5t18 -46.5q0 -36 -24.5 -61t-58.5 -25q-30 0 -48 18zM264 779q-33 28 -33 75q0 10 2.5 14t9.5 4h54q9 0 11 -11q1 -20 15.5 -33t36.5 -13t39.5 13t24.5 33q3 11 13 11h53q12 0 10 -11q-10 -49 -51 -79.5t-97 -30.5q-55 0 -88 28z" />
    <glyph glyph-name="uni1EB7" unicode="&#x1eb7;" horiz-adv-x="472" 
d="M356.5 510.5q3.5 3.5 8.5 3.5h113q5 0 8 -3.5t2 -8.5l-60 -490q-1 -5 -4.5 -8.5t-8.5 -3.5h-113q-5 0 -8 3.5t-2 8.5l4 36q1 4 -1 4.5t-4 -2.5q-43 -58 -114 -58q-66 0 -101.5 42.5t-36.5 116.5q-2 24 7 107q11 83 22 112q18 71 64 111.5t113 40.5q70 0 97 -55
q2 -3 3.5 -3t1.5 4l5 34q1 5 4.5 8.5zM322 257q4 33 4 62q0 17 -1 25q0 25 -14.5 41t-39.5 16q-24 0 -42.5 -16t-26.5 -42q-11 -37 -16 -86q-7 -49 -5 -86q1 -26 16 -42t39 -16q25 0 43 16.5t26 42.5q10 33 17 85zM141 -210q-18 18 -18 47q0 37 24.5 61t59.5 24
q29 0 47 -17.5t18 -46.5q0 -36 -24.5 -61t-58.5 -25q-30 0 -48 18zM198 594q-33 28 -33 75q0 10 2.5 14t9.5 4h54q9 0 11 -11q1 -20 15.5 -33t36.5 -13t39.5 13t24.5 33q3 11 13 11h53q12 0 10 -11q-10 -49 -51 -79.5t-97 -30.5q-55 0 -88 28z" />
    <glyph glyph-name="uni1EB8" unicode="&#x1eb8;" horiz-adv-x="496" 
d="M513.5 582.5q-3.5 -3.5 -8.5 -3.5h-260q-4 0 -6 -5l-19 -156q0 -5 4 -5h162q5 0 8 -3.5t2 -8.5l-11 -97q-1 -5 -5 -8.5t-9 -3.5h-162q-2 0 -3.5 -1.5t-1.5 -3.5l-20 -161q0 -5 4 -5h260q11 0 11 -12l-12 -97q-1 -5 -4.5 -8.5t-8.5 -3.5h-390q-11 0 -11 12l83 676
q1 5 5 8.5t9 3.5h390q5 0 8 -3.5t2 -8.5l-12 -97q-1 -5 -4.5 -8.5zM162 -210q-18 18 -18 47q0 37 24.5 61t59.5 24q29 0 47 -17.5t18 -46.5q0 -36 -24.5 -61t-58.5 -25q-30 0 -48 18z" />
    <glyph glyph-name="uni1EB9" unicode="&#x1eb9;" horiz-adv-x="475" 
d="M454 223q-1 -12 -13 -12h-257q-5 0 -5 -5q-1 -13 -1 -34q2 -28 18.5 -44t45.5 -16q24 1 42 12.5t29 32.5q7 10 16 8l100 -21q12 -3 6 -15q-29 -66 -82.5 -101.5t-125.5 -35.5q-86 0 -132 40.5t-52 116.5q-1 10 -1 32q0 31 5 76q5 54 18 98q20 76 79 121.5t140 45.5
q85 0 133.5 -47.5t48.5 -126.5q0 -55 -12 -125zM225 384.5q-19 -16.5 -27 -43.5q-6 -24 -8 -38q0 -5 5 -5h126q5 0 5 5q2 13 2 38q0 27 -15.5 43.5t-42.5 16.5q-26 0 -45 -16.5zM149 -215q-18 18 -18 47q0 37 24.5 61t59.5 24q29 0 47 -17.5t18 -46.5q0 -36 -24.5 -61
t-58.5 -25q-30 0 -48 18z" />
    <glyph glyph-name="uni1EBA" unicode="&#x1eba;" horiz-adv-x="496" 
d="M513.5 582.5q-3.5 -3.5 -8.5 -3.5h-260q-4 0 -6 -5l-19 -156q0 -5 4 -5h162q5 0 8 -3.5t2 -8.5l-11 -97q-1 -5 -5 -8.5t-9 -3.5h-162q-2 0 -3.5 -1.5t-1.5 -3.5l-20 -161q0 -5 4 -5h260q11 0 11 -12l-12 -97q-1 -5 -4.5 -8.5t-8.5 -3.5h-390q-11 0 -11 12l83 676
q1 5 5 8.5t9 3.5h390q5 0 8 -3.5t2 -8.5l-12 -97q-1 -5 -4.5 -8.5zM309 760q8 17 16.5 27t21.5 23q11 11 16.5 19t7.5 21q1 10 -6.5 17t-17.5 7q-14 0 -23.5 -6t-25.5 -24q-4 -6 -10 -6q-5 0 -8 3l-29 25q-5 3 -5 8q0 3 4 9q27 32 50.5 45.5t57.5 13.5q40 0 63 -20.5
t23 -56.5q0 -30 -11.5 -48t-35.5 -41q-22 -20 -30 -32q-6 -9 -15 -7l-37 8q-13 4 -6 15z" />
    <glyph glyph-name="uni1EBB" unicode="&#x1ebb;" horiz-adv-x="475" 
d="M454 223q-1 -12 -13 -12h-257q-5 0 -5 -5q-1 -13 -1 -34q2 -28 18.5 -44t45.5 -16q24 1 42 12.5t29 32.5q7 10 16 8l100 -21q12 -3 6 -15q-29 -66 -82.5 -101.5t-125.5 -35.5q-86 0 -132 40.5t-52 116.5q-1 10 -1 32q0 31 5 76q5 54 18 98q20 76 79 121.5t140 45.5
q85 0 133.5 -47.5t48.5 -126.5q0 -55 -12 -125zM225 384.5q-19 -16.5 -27 -43.5q-6 -24 -8 -38q0 -5 5 -5h126q5 0 5 5q2 13 2 38q0 27 -15.5 43.5t-42.5 16.5q-26 0 -45 -16.5zM267 574q8 17 16.5 27t21.5 23q11 11 16.5 19t7.5 21q1 10 -6.5 17t-17.5 7q-14 0 -23.5 -6
t-25.5 -24q-4 -6 -10 -6q-5 0 -8 3l-29 25q-5 3 -5 8q0 3 4 9q27 32 50.5 45.5t57.5 13.5q40 0 63 -20.5t23 -56.5q0 -30 -11.5 -48t-35.5 -41q-22 -20 -30 -32q-6 -9 -15 -7l-37 8q-13 4 -6 15z" />
    <glyph glyph-name="uni1EBC" unicode="&#x1ebc;" horiz-adv-x="496" 
d="M513.5 582.5q-3.5 -3.5 -8.5 -3.5h-260q-4 0 -6 -5l-19 -156q0 -5 4 -5h162q5 0 8 -3.5t2 -8.5l-11 -97q-1 -5 -5 -8.5t-9 -3.5h-162q-2 0 -3.5 -1.5t-1.5 -3.5l-20 -161q0 -5 4 -5h260q11 0 11 -12l-12 -97q-1 -5 -4.5 -8.5t-8.5 -3.5h-390q-11 0 -11 12l83 676
q1 5 5 8.5t9 3.5h390q5 0 8 -3.5t2 -8.5l-12 -97q-1 -5 -4.5 -8.5zM366 770.5q-12 4.5 -29 13.5q-4 3 -13 8t-15.5 7t-13.5 2q-14 0 -24.5 -5t-21.5 -17q-9 -11 -16 -2l-36 36q-4 6 -4 9q0 4 3 8q18 31 45 48t57 17q17 0 31 -5.5t33 -16.5q3 -2 11 -7.5t15.5 -8t14.5 -2.5
q27 0 44 21q9 12 16 3l34 -35q4 -6 4 -9q0 -4 -3 -9q-19 -30 -46.5 -45t-57.5 -15q-16 0 -28 4.5z" />
    </font>
</defs>
</svg>
