<?xml version="1.0" standalone="no"?>
<!DOCTYPE svg PUBLIC "-//W3C//DTD SVG 1.1//EN" "http://www.w3.org/Graphics/SVG/1.1/DTD/svg11.dtd" >
<svg xmlns="http://www.w3.org/2000/svg" xmlns:xlink="http://www.w3.org/1999/xlink" version="1.1">
<metadata>
Created by FontForge 20170731 at Wed Nov  7 06:09:07 2018
 By Aleksey,,,
Copyright 2017 The Barlow Project Authors (https://github.com/jpt/barlow)
</metadata>
<defs>
<font id="BarlowSemiCondensed-ThinItalic" horiz-adv-x="433" >
  <font-face 
    font-family="Barlow Semi Condensed Thin"
    font-weight="250"
    font-style="italic"
    font-stretch="semi-condensed"
    units-per-em="1000"
    panose-1="0 0 3 6 0 0 0 0 0 0"
    ascent="800"
    descent="-200"
    x-height="501"
    cap-height="700"
    bbox="-501.769 -211 1017 1074"
    underline-thickness="50"
    underline-position="-150"
    slope="-7"
    unicode-range="U+000D-FB02"
  />
<missing-glyph horiz-adv-x="335" 
d="M-18 1q1 -1 2 -1h327q3 0 5 4l85 692q0 4 -4 4h-327q-4 0 -4 -4l-85 -692q0 -2 1 -3zM160 233l6 49q3 29 17 47t41 41q30 26 46.5 49t21.5 60q1 6 1 17q0 36 -19 57.5t-50 21.5q-37 0 -63 -26t-31 -70l-3 -24q-2 -10 -11 -10h-1q-9 0 -9 10l3 24q7 52 39 84t78 32
q41 0 64.5 -26t23.5 -71q0 -14 -1 -21q-5 -45 -24.5 -72t-51.5 -53q-23 -21 -34.5 -35t-14.5 -35l-6 -49q-2 -10 -11 -10h-3q-10 0 -8 10zM135 99.5q-7 7.5 -7 18.5q0 15 10 25t23 10t20 -7.5t7 -19.5q0 -14 -10 -24t-24 -10q-12 0 -19 7.5z" />
    <glyph glyph-name="fi" unicode="fi" horiz-adv-x="514" 
d="M210 645q-23 -32 -32 -102l-4 -38q-1 -1 0 -2.5t3 -1.5h102q10 0 8 -10l-1 -7q0 -4 -3 -7t-8 -3h-101q-3 0 -5 -4l-56 -460q-2 -10 -11 -10h-10q-10 0 -8 10l56 460q0 4 -3 4h-54q-4 0 -6.5 3t-1.5 7l1 7q2 10 11 10h53q4 0 4 4l5 39q10 82 41.5 121.5t99.5 39.5h19
q10 0 8 -10l-1 -8q-1 -10 -12 -10h-16q-55 0 -78 -32zM432.5 623q-9.5 10 -9.5 27q0 20 13.5 34t32.5 14q16 0 26 -10t10 -26q0 -21 -13.5 -35t-33.5 -14q-16 0 -25.5 10zM370.5 3q-2.5 3 -1.5 7l59 481q2 10 11 10h10q4 0 6.5 -3t1.5 -7l-59 -481q-2 -10 -11 -10h-10
q-4 0 -6.5 3z" />
    <glyph glyph-name="fl" unicode="fl" horiz-adv-x="480" 
d="M210 645q-23 -32 -32 -102l-4 -38q-1 -1 0 -2.5t3 -1.5h102q10 0 8 -10l-1 -7q0 -4 -3 -7t-8 -3h-101q-3 0 -5 -4l-56 -460q-2 -10 -11 -10h-10q-10 0 -8 10l56 460q0 4 -3 4h-54q-4 0 -6.5 3t-1.5 7l1 7q2 10 11 10h53q4 0 4 4l5 39q10 82 41.5 121.5t99.5 39.5h19
q10 0 8 -10l-1 -8q-1 -10 -12 -10h-16q-55 0 -78 -32zM353 10l84 680q2 10 11 10h9q5 0 7.5 -3t1.5 -7l-84 -680q0 -4 -3 -7t-7 -3h-10q-9 0 -9 10z" />
    <glyph glyph-name="I_J.liga" unicode="IJ" horiz-adv-x="701" 
d="M80 10l83 680q2 10 11 10h10q10 0 8 -10l-83 -680q-2 -10 -11 -10h-10q-10 0 -8 10zM295.5 32.5q-41.5 40.5 -41.5 108.5q0 9 2 29l10 87q2 10 11 10h10q10 0 8 -10l-10 -88q-2 -16 -2 -24q0 -57 34.5 -91t94.5 -34q65 0 110.5 41t53.5 108l63 521q1 4 4 7t7 3h10
q9 0 9 -10l-64 -520q-10 -80 -64 -129t-133 -49q-71 0 -112.5 40.5z" />
    <glyph glyph-name="f_f_i.liga" unicode="ffi" horiz-adv-x="796" 
d="M190.5 665.5q31.5 39.5 98.5 39.5h19q10 0 8 -10l-1 -6q0 -4 -3 -7t-7 -3h-18q-55 0 -78 -32.5t-32 -101.5l-4 -40q-1 -1 0 -2.5t3 -1.5h107q4 0 6.5 -3t1.5 -7l-1 -7q0 -4 -3 -7t-8 -3h-106q-3 0 -5 -4l-56 -460q-2 -10 -11 -10h-9q-10 0 -8 10l56 460q0 4 -3 4h-54
q-4 0 -6.5 3t-1.5 7l1 7q2 10 11 10h53q4 0 4 4l5 41q10 80 41.5 119.5zM480 665.5q31 39.5 99 39.5h19q10 0 8 -10l-1 -6q0 -4 -3 -7t-7 -3h-18q-54 0 -77.5 -32.5t-31.5 -101.5l-5 -40q-1 -1 0 -2.5t3 -1.5h103q10 0 8 -10l-1 -7q0 -4 -3 -7t-7 -3h-103q-3 0 -5 -4
l-56 -460q-2 -10 -11 -10h-10q-10 0 -8 10l56 460q0 4 -3 4h-57q-5 0 -7.5 3t-1.5 7l1 7q2 10 11 10h57q3 0 5 4l5 41q10 80 41 119.5zM777.5 688q10.5 -10 10.5 -26q0 -21 -13.5 -35t-33.5 -14q-16 0 -26 10t-10 27q0 20 13.5 34t32.5 14q16 0 26.5 -10zM652.5 3
q-2.5 3 -1.5 7l59 481q2 10 11 10h10q10 0 8 -10l-59 -481q-2 -10 -11 -10h-9q-5 0 -7.5 3z" />
    <glyph glyph-name="f_f_l.liga" unicode="ffl" horiz-adv-x="770" 
d="M173 505q-1 -1 0 -2.5t3 -1.5h108q4 0 6.5 -3t1.5 -7l-1 -7q0 -4 -3 -7t-8 -3h-107q-3 0 -5 -4l-56 -460q-2 -10 -11 -10h-9q-10 0 -8 10l56 460q0 4 -3 4h-54q-4 0 -6.5 3t-1.5 7l1 7q2 10 11 10h53q4 0 4 4l5 41q10 80 41.5 119.5t98.5 39.5h19q10 0 8 -10l-1 -6
q0 -4 -3 -7t-7 -3h-18q-55 0 -78 -32.5t-32 -101.5zM480.5 665.5q30.5 39.5 98.5 39.5h19q10 0 8 -10l-1 -6q0 -4 -3 -7t-7 -3h-18q-54 0 -77.5 -32.5t-31.5 -101.5l-5 -40q-1 -1 0 -2.5t3 -1.5h103q10 0 8 -10l-1 -7q0 -4 -3 -7t-7 -3h-103q-3 0 -5 -4l-56 -460
q-2 -10 -11 -10h-9q-10 0 -8 10l56 460q0 4 -3 4h-58q-5 0 -7.5 3t-1.5 7l1 7q2 10 11 10h58q4 0 4 4l6 41q10 80 40.5 119.5zM738 700h9q5 0 7.5 -3t1.5 -7l-84 -680q0 -4 -3 -7t-7 -3h-10q-9 0 -9 10l84 680q2 10 11 10z" />
    <glyph glyph-name="g_j.liga" unicode="gj" horiz-adv-x="657" 
d="M639 688q10 -10 10 -26q0 -21 -13.5 -35t-33.5 -14q-16 0 -26 9.5t-10 25.5q0 21 13.5 35.5t32.5 14.5q17 0 27 -10zM378.5 435.5q1.5 0.5 2.5 3.5l6 52q2 10 11 10h10q10 0 8 -10l-60 -489q-12 -101 -68 -152.5t-157 -49.5q-11 0 -9 10l1 8q2 10 11 10q88 -1 135 43.5
t58 131.5l8 60q0 3 -2 3.5t-3 -2.5q-21 -34 -55 -52.5t-75 -18.5q-62 0 -97.5 38t-35.5 100q2 54 10 119q11 81 20 121q15 61 60 99.5t106 38.5q41 0 70 -18.5t43 -52.5q1 -3 2.5 -2.5zM572 491q1 4 4 7t7 3h10q9 0 9 -10l-69 -560q-8 -65 -43 -102t-93 -39q-10 0 -8 10l1 7
q0 10 10 10q43 3 70 33t34 81zM358 250q8 70 11 113q2 52 -26 85t-79 33q-52 0 -90 -33t-50 -85q-7 -34 -18 -112q-4 -32 -10 -113q-1 -51 29.5 -84.5t81.5 -33.5t87.5 33.5t46.5 84.5q9 49 17 112z" />
    <glyph glyph-name="i_j.liga" unicode="ij" horiz-adv-x="429" 
d="M140.5 623q-9.5 10 -9.5 27q0 20 13.5 34t32.5 14q16 0 26 -10t10 -26q0 -21 -13.5 -35t-33.5 -14q-16 0 -25.5 10zM347.5 623q-9.5 10 -9.5 27q0 20 13 34t32 14q17 0 27 -10t10 -26q0 -21 -13.5 -35t-33.5 -14q-16 0 -25.5 10zM79.5 3q-2.5 3 -1.5 7l59 481q2 10 11 10
h10q4 0 6.5 -3t1.5 -7l-59 -481q-2 -10 -11 -10h-10q-4 0 -6.5 3zM159 -201l1 8q0 10 10 10q44 3 71 33t34 81l69 560q0 4 3 7t7 3h10q9 0 9 -10l-69 -560q-8 -65 -43.5 -102t-93.5 -40q-10 0 -8 10z" />
    <glyph glyph-name="hyphen_hyphen.liga" unicode="&#x2d;&#x2d;" horiz-adv-x="627" 
d="M59 307v8q1 4 4 7t7 3h529q9 0 9 -10l-1 -8q-1 -4 -4 -7t-7 -3h-529q-10 0 -8 10z" />
    <glyph glyph-name=".notdef" horiz-adv-x="335" 
d="M-18 1q1 -1 2 -1h327q3 0 5 4l85 692q0 4 -4 4h-327q-4 0 -4 -4l-85 -692q0 -2 1 -3zM160 233l6 49q3 29 17 47t41 41q30 26 46.5 49t21.5 60q1 6 1 17q0 36 -19 57.5t-50 21.5q-37 0 -63 -26t-31 -70l-3 -24q-2 -10 -11 -10h-1q-9 0 -9 10l3 24q7 52 39 84t78 32
q41 0 64.5 -26t23.5 -71q0 -14 -1 -21q-5 -45 -24.5 -72t-51.5 -53q-23 -21 -34.5 -35t-14.5 -35l-6 -49q-2 -10 -11 -10h-3q-10 0 -8 10zM135 99.5q-7 7.5 -7 18.5q0 15 10 25t23 10t20 -7.5t7 -19.5q0 -14 -10 -24t-24 -10q-12 0 -19 7.5z" />
    <glyph glyph-name=".null" horiz-adv-x="0" 
 />
    <glyph glyph-name="nonmarkingreturn" unicode="&#xd;" horiz-adv-x="194" 
 />
    <glyph glyph-name="NULL" horiz-adv-x="0" 
 />
    <glyph glyph-name="NULL" horiz-adv-x="0" 
 />
    <glyph glyph-name="space" unicode=" " horiz-adv-x="194" 
 />
    <glyph glyph-name="exclam" unicode="!" horiz-adv-x="262" 
d="M128 231l56 459q0 4 3 7t8 3h9q9 0 9 -10l-59 -459q0 -10 -10 -10h-7q-10 0 -9 10zM86 15q-10 10 -10 26q0 21 13.5 35t33.5 14q16 0 25.5 -10t9.5 -27q0 -20 -13.5 -34t-32.5 -14q-16 0 -26 10z" />
    <glyph glyph-name="quotedbl" unicode="&#x22;" horiz-adv-x="183" 
d="M78 508l18 174q2 10 11 10h13q10 0 8 -10l-25 -174q-1 -10 -11 -10h-6q-9 0 -8 10zM164 508l19 174q0 4 3 7t8 3h12q9 0 9 -10l-26 -174q0 -10 -10 -10h-6q-10 0 -9 10z" />
    <glyph glyph-name="numbersign" unicode="#" horiz-adv-x="590" 
d="M540 444h-66q-5 0 -6 -4l-52 -194q0 -4 3 -4h64q10 0 8 -10l-1 -8q-2 -10 -11 -10h-69q-5 0 -5 -4l-52 -191q-1 -8 -11 -8h-9q-4 0 -6.5 3t-0.5 8l50 188q0 4 -2 4h-182q-5 0 -5 -4l-52 -191q-2 -8 -11 -8h-9q-4 0 -6.5 3t-1.5 8l51 188q0 4 -3 4h-64q-10 0 -8 10l1 8
q1 10 12 10h67q5 0 5 4l52 194q0 4 -3 4h-65q-4 0 -6.5 3t-1.5 7l1 8q2 10 11 10h69q5 0 5 4l52 192q2 8 11 8h9q4 0 6.5 -3t1.5 -8l-51 -189q0 -4 3 -4h182q5 0 5 4l52 192q2 8 12 8h8q5 0 7 -3.5t1 -7.5l-51 -189q0 -4 3 -4h63q9 0 7 -10l-1 -8q0 -10 -10 -10zM386 246
l52 194q0 4 -2 4h-182q-5 0 -5 -4l-52 -194q0 -4 2 -4h182q5 0 5 4z" />
    <glyph glyph-name="dollar" unicode="$" horiz-adv-x="462" 
d="M353.5 45.5q-46.5 -46.5 -119.5 -52.5q-4 0 -4 -4l-10 -76q-2 -10 -11 -10h-7q-4 0 -6.5 3t-1.5 7l9 75q0 4 -3 4q-69 4 -108 43.5t-39 104.5q0 8 2 26l4 27q0 4 3 7t8 3h6q5 0 7.5 -3t1.5 -7l-3 -26q-1 -8 -1 -23q0 -57 36.5 -91t100.5 -34q67 0 111 38.5t52 104.5
q1 7 1 21q0 49 -31.5 83.5t-106.5 81.5q-50 32 -77.5 53.5t-43.5 50t-16 67.5q0 7 2 27q9 75 55 117t119 45q4 0 4 4l10 79q2 10 11 10h7q4 0 6.5 -3t1.5 -7l-11 -80q0 -4 4 -4q64 -6 99.5 -44.5t35.5 -101.5q0 -8 -2 -28l-3 -25q-1 -4 -4 -7t-7 -3h-9q-9 0 -9 10l3 23
q2 16 2 25q0 58 -35 91.5t-98 33.5t-103.5 -35t-48.5 -100q-1 -8 -1 -22q0 -32 14 -55.5t38.5 -42.5t75.5 -52q54 -34 84 -59.5t46.5 -55t16.5 -67.5q0 -8 -2 -26q-9 -74 -55.5 -120.5z" />
    <glyph glyph-name="percent" unicode="%" horiz-adv-x="801" 
d="M180 476.5q-32 33.5 -32 83.5q0 40 20 74.5t54 55t72 20.5q48 0 80 -33.5t32 -82.5q0 -40 -20 -74.5t-53.5 -55.5t-71.5 -21q-49 0 -81 33.5zM188 3.5q-2 3.5 2 8.5l444 681q4 7 13 7h4q6 0 8 -3.5t-2 -8.5l-445 -681q-3 -7 -12 -7h-5q-5 0 -7 3.5zM322 485
q27 17 43 45.5t16 61.5q0 40 -25.5 66.5t-64.5 26.5q-31 0 -58 -17t-43.5 -45t-16.5 -61q0 -40 26 -67t65 -27q31 0 58 17zM474.5 23.5q-32.5 33.5 -32.5 83.5q0 40 20.5 74.5t54 55t71.5 20.5q48 0 80 -33.5t32 -82.5q0 -40 -20 -74.5t-53.5 -55.5t-70.5 -21
q-49 0 -81.5 33.5zM616 32q27 17 43.5 45t16.5 61q0 40 -26 67t-65 27q-31 0 -58 -16.5t-43.5 -45t-16.5 -60.5q0 -41 26 -68t66 -27q30 0 57 17z" />
    <glyph glyph-name="ampersand" unicode="&#x26;" horiz-adv-x="552" 
d="M472 8q0 -8 -9 -8h-11q-10 0 -12 6l-52 84q0 2 -2 2t-3 -2q-50 -53 -92 -75.5t-95 -22.5q-68 0 -107 34t-39 96q0 7 2 25q9 70 51 120.5t115 106.5q3 1 1 5q-40 69 -54 103.5t-14 63.5q0 15 1 22q8 64 48.5 102t98.5 38q54 0 86 -31t32 -83q0 -47 -21 -86t-52.5 -69
t-81.5 -69q-4 -2 -2 -5l69 -116q43 -67 63 -100q2 -5 5 0q31 35 67 85q8 8 14 2l6 -5q8 -5 2 -14q-29 -38 -75 -93q-1 -3 0 -7q40 -68 60 -105zM219.5 649.5q-31.5 -29.5 -38.5 -81.5q-1 -7 -1 -19q0 -25 12.5 -56.5t48.5 -94.5q1 -4 6 -1q70 53 105.5 94.5t35.5 96.5
q0 42 -25 66.5t-66 24.5q-46 0 -77.5 -29.5zM284 41q37 21 85 74q2 4 1 6q-17 27 -26 43.5t-14 25.5l-14 24q-53 88 -78 134q-2 3 -5 0q-68 -52 -106 -97t-46 -104q-1 -7 -1 -21q0 -50 31.5 -78t87.5 -28q48 0 85 21z" />
    <glyph glyph-name="quotesingle" unicode="'" horiz-adv-x="97" 
d="M79 515l18 172q2 10 11 10h13q4 0 6.5 -3t1.5 -7l-25 -172q-1 -10 -11 -10h-6q-9 0 -8 10z" />
    <glyph glyph-name="parenleft" unicode="(" horiz-adv-x="184" 
d="M45 -105q-19 50 -29.5 122t-10.5 154q0 75 9 150q16 124 54 243.5t85 194.5q6 7 13 7h8q5 0 7 -3.5t-2 -8.5q-44 -75 -80 -192.5t-51 -238.5q-9 -78 -9 -155q0 -78 9 -148t26 -120l1 -4q0 -8 -9 -8h-11q-7 0 -10 7z" />
    <glyph glyph-name="parenright" unicode=")" horiz-adv-x="184" 
d="M181 759q19 -49 29 -120.5t10 -152.5q0 -76 -9 -153q-16 -124 -54 -243.5t-85 -194.5q-4 -7 -12 -7h-8q-5 0 -7 3.5t2 8.5q43 75 78.5 192.5t50.5 238.5q10 77 10 162q0 78 -9 145.5t-25 115.5l-1 4q0 8 9 8h11q7 0 10 -7z" />
    <glyph glyph-name="asterisk" unicode="*" horiz-adv-x="367" 
d="M201 403l17 139q0 2 -1.5 3t-3.5 0l-124 -71l-5 -2q-6 0 -8 6l-1 4q-1 2 -1 5q0 6 5 9l124 71q2 1 2.5 3t-1.5 3l-106 71q-4 2 -4 6t2 8l3 4q6 10 14 4l107 -71q1 -1 2.5 0t2.5 3l17 139q2 10 11 10h6q4 0 6.5 -3t1.5 -7l-17 -139q0 -5 4 -3l125 71l5 2q4 0 8 -6l1 -4
q1 -2 1 -5q0 -6 -5 -9l-125 -71q-1 -1 -1 -3t1 -3l106 -71q4 -2 4 -6t-2 -8l-3 -4q-2 -4 -6 -5.5t-8 1.5l-107 71q-2 1 -3.5 0t-1.5 -3l-17 -139q-2 -10 -11 -10h-6q-10 0 -8 10z" />
    <glyph glyph-name="plus" unicode="+" horiz-adv-x="462" 
d="M442 325v-6q-2 -10 -11 -10h-165q-4 0 -4 -4l-21 -168q-2 -10 -11 -10h-6q-10 0 -8 10l20 168q1 1 0 2.5t-3 1.5h-165q-10 0 -8 10v6q2 10 11 10h165q4 0 4 4l22 172q0 4 3 7t8 3h5q5 0 7.5 -3t1.5 -7l-21 -172q-1 -1 0 -2.5t3 -1.5h165q10 0 8 -10z" />
    <glyph glyph-name="comma" unicode="," horiz-adv-x="205" 
d="M35 -57l66 201q3 9 12 9h9q4 0 6.5 -3t0.5 -8l-69 -201q-4 -9 -12 -9h-6q-10 0 -7 11z" />
    <glyph glyph-name="hyphen" unicode="-" horiz-adv-x="334" 
d="M60.5 309q-2.5 3 -1.5 7l1 8q2 10 11 10h235q10 0 8 -10l-1 -8q0 -4 -3 -7t-8 -3h-234q-5 0 -7.5 3z" />
    <glyph glyph-name="period" unicode="." horiz-adv-x="220" 
d="M64 15q-10 10 -10 27q0 20 13.5 34t33.5 14q18 0 28.5 -12t8.5 -30q-3 -19 -16 -31t-31 -12q-17 0 -27 10z" />
    <glyph glyph-name="slash" unicode="/" horiz-adv-x="313" 
d="M15 3q-2 3 0 8l257 680q4 9 12 9h9q5 0 7 -3t0 -8l-257 -680q-4 -9 -12 -9h-9q-5 0 -7 3z" />
    <glyph glyph-name="zero" unicode="0" horiz-adv-x="485" 
d="M112 31q-40 40 -40 107q0 9 2 29l45 366q10 80 62 128t128 48q70 0 110.5 -40t40.5 -108q0 -8 -2 -28l-45 -366q-10 -79 -62.5 -127.5t-129.5 -48.5q-69 0 -109 40zM332 59q44 40 52 105l46 372q1 7 1 22q0 57 -33.5 90t-91.5 33q-63 0 -106.5 -40t-51.5 -105l-45 -372
q-2 -16 -2 -24q0 -55 33.5 -88t89.5 -33q64 0 108 40z" />
    <glyph glyph-name="one" unicode="1" horiz-adv-x="285" 
d="M238 700h13q10 0 8 -10l-83 -680q-2 -10 -11 -10h-10q-10 0 -8 10l79 646q0 6 -4 3l-111 -53q-2 -1 -5 -1q-5 0 -7 6l-2 7v2q0 7 7 12l121 65q5 3 13 3z" />
    <glyph glyph-name="two" unicode="2" horiz-adv-x="437" 
d="M78 29.5q1 -1.5 3 -1.5h282q5 0 7.5 -3t1.5 -7l-1 -8q-2 -10 -11 -10h-314q-5 0 -7.5 3t-1.5 7l1 10q2 8 6 13l232 304q106 139 106 228q0 53 -29.5 84t-80.5 31q-56 0 -94 -38t-45 -100l-5 -34q0 -4 -3 -7t-8 -3h-10q-9 0 -9 10l5 35q10 74 57 119.5t115 45.5
q64 0 101 -38t37 -102q0 -8 -2 -26q-10 -87 -110 -219l-135 -177l-87 -113q-2 -2 -1 -3.5z" />
    <glyph glyph-name="three" unicode="3" 
d="M374 265q0 -17 -4 -59q-7 -55 -25 -101q-47 -113 -159 -113q-57 0 -91.5 33t-40.5 91q-2 20 -2 33q0 23 3 45q2 10 11 10h9q10 0 9 -10q-2 -28 -2 -43q0 -17 1 -24q4 -50 32 -78.5t75 -28.5q89 0 127 92q16 39 24 95q3 30 3 55q0 36 -6 61q-20 81 -101 81q-10 0 -22 -2
h-4q-5 0 -8 4l-3 4q-3 3 -3 6q0 4 3 8l186 243q2 1 1 3t-3 2h-259q-10 0 -8 10l1 8q0 4 3 7t8 3h290q4 0 6.5 -3t1.5 -7l-1 -11q-2 -8 -6 -13l-177 -234q-1 -1 0 -3t3 -2q47 0 77.5 -23.5t41.5 -67.5q9 -30 9 -71z" />
    <glyph glyph-name="four" unicode="4" horiz-adv-x="434" 
d="M394 218l-1 -8q0 -4 -3 -7t-8 -3h-33q-2 0 -3.5 -1t-1.5 -3l-23 -186q0 -4 -3 -7t-8 -3h-9q-5 0 -7.5 3t-1.5 7l23 186q0 4 -3 4h-255q-5 0 -7.5 3t-1.5 7l1 10q2 9 4 12l240 460q3 8 11 8h10q5 0 7 -3.5t-1 -8.5l-236 -455q-1 -2 -0.5 -3.5t2.5 -1.5h229q4 0 4 4l23 181
q0 4 3 7t8 3h9q5 0 7.5 -3t1.5 -7l-22 -181q-1 -1 0 -2.5t3 -1.5h34q10 0 8 -10z" />
    <glyph glyph-name="five" unicode="5" horiz-adv-x="432" 
d="M392 279q0 -40 -4 -68q-8 -59 -18 -87q-21 -63 -64 -97.5t-101 -34.5q-60 0 -94.5 34t-39.5 96l-2 33q1 4 4 7t7 3h10q9 0 9 -10v-25q4 -52 32 -81t77 -29q48 0 83 29.5t52 82.5q10 27 16 79q4 42 4 65q0 17 -1 25q-3 49 -31 74.5t-76 25.5q-47 0 -82.5 -22.5
t-52.5 -64.5q-3 -9 -12 -9h-10q-5 0 -7.5 3t-1.5 7l46 375q2 10 11 10h267q10 0 8 -10l-1 -8q0 -4 -3 -7t-8 -3h-243q-4 0 -4 -4l-38 -297q0 -2 1.5 -3t2.5 1q23 29 57 44.5t75 15.5q57 0 91 -29t40 -85q1 -12 1 -36z" />
    <glyph glyph-name="six" unicode="6" horiz-adv-x="434" 
d="M394 274q0 -31 -4 -64q-9 -60 -19 -85q-21 -64 -62 -98.5t-101 -34.5q-59 0 -93.5 33t-40.5 94q-1 10 -1 33q0 32 3 59l40 325q10 79 58.5 125.5t117.5 46.5q59 0 93.5 -37.5t34.5 -101.5q0 -8 -2 -28l-1 -5q-2 -10 -11 -10h-10q-4 0 -6.5 3t-1.5 7l1 7q1 8 1 23
q0 52 -28 83t-74 31q-55 0 -95 -39t-47 -103l-23 -183q0 -3 1.5 -3.5t2.5 2.5q46 75 133 75q59 0 91 -30.5t41 -89.5q2 -20 2 -35zM361 211q3 35 3 58q0 22 -1 30q-5 48 -32.5 75.5t-74.5 27.5q-48 0 -82.5 -28t-50.5 -78q-11 -31 -18 -85q-4 -37 -4 -65q0 -58 27.5 -92
t80.5 -34q47 0 83 29t53 86q10 33 16 76z" />
    <glyph glyph-name="seven" unicode="7" horiz-adv-x="389" 
d="M116 11l280 656q1 2 0 3.5t-3 1.5h-263q-4 0 -4 -4l-6 -43q0 -4 -3 -7t-8 -3h-7q-5 0 -7.5 3t-1.5 7l9 65q1 10 11 10h310q4 0 6.5 -3t1.5 -7l-1 -12l-4 -12l-280 -658q-3 -8 -12 -8h-12q-11 0 -6 11z" />
    <glyph glyph-name="eight" unicode="8" horiz-adv-x="448" 
d="M387 234q0 -20 -3 -43q-7 -65 -35 -111q-24 -43 -61 -65.5t-85 -22.5t-79.5 23.5t-45.5 67.5q-9 30 -9 70q0 25 2 39q7 62 33 106q30 54 79 76q5 2 1 5q-34 18 -52 51q-17 32 -17 76q0 74 38 128q23 35 59 54.5t79 19.5q88 0 121 -73q13 -27 13 -69q0 -9 -2 -31
q-7 -60 -40 -104q-27 -35 -63 -52q-2 -1 -2.5 -2t1.5 -2q44 -23 59 -74q9 -28 9 -67zM195 404.5q24 -14.5 57 -14.5q34 0 63 16t48 44q33 50 33 111q0 32 -12 59q-12 29 -36.5 45t-61.5 16q-34 0 -63 -17t-48 -47q-30 -44 -30 -106q0 -36 13 -65q13 -27 37 -41.5zM355 192
q3 21 3 39q0 30 -8 56q-9 36 -35 56t-67 20q-40 0 -70.5 -19.5t-49.5 -56.5q-20 -37 -28 -96q-2 -13 -2 -37q0 -32 8 -61q11 -36 36.5 -54.5t63.5 -18.5q79 0 119 74q23 39 30 98z" />
    <glyph glyph-name="nine" unicode="9" horiz-adv-x="437" 
d="M412 550q0 -31 -5 -61l-40 -325q-10 -79 -58.5 -125.5t-116.5 -46.5q-59 0 -93.5 37.5t-34.5 101.5q0 8 2 28l1 5q0 4 3 7t8 3h9q5 0 7.5 -3t1.5 -7l-1 -7q-1 -8 -1 -23q0 -52 27.5 -83t73.5 -31q55 0 95 38.5t48 103.5l23 183q0 3 -2 3.5t-3 -2.5q-46 -75 -133 -75
q-113 0 -130 120q-3 15 -3 38q0 29 4 61q5 45 18 85q46 133 165 133q58 0 92 -33t41 -94q2 -20 2 -31zM310 326q34 28 51 78q11 33 17 85q5 42 5 59q0 15 -1 22q-3 51 -30.5 80.5t-76.5 29.5q-47 0 -83 -29t-54 -86q-8 -29 -14 -76q-4 -32 -4 -61q0 -19 1 -27
q5 -48 32.5 -75.5t75.5 -27.5q47 0 81 28z" />
    <glyph glyph-name="colon" unicode=":" horiz-adv-x="241" 
d="M118 363q-10 10 -10 27q0 20 13.5 34t33.5 14q18 0 28.5 -12t8.5 -30q-3 -19 -16 -31t-31 -12q-17 0 -27 10zM76 22q-10 10 -10 27q0 20 13.5 34t33.5 14q18 0 28.5 -12t8.5 -30q-3 -19 -16 -31t-31 -12q-17 0 -27 10z" />
    <glyph glyph-name="semicolon" unicode=";" horiz-adv-x="232" 
d="M118.5 377q-9.5 11 -9.5 27q0 20 13.5 34.5t31.5 14.5q14 0 24.5 -11t10.5 -27q0 -19 -14.5 -34t-31.5 -15q-15 0 -24.5 11zM55 -58.5q-2 3.5 -1 7.5l48 190q3 9 11 9h11q4 0 6.5 -3t0.5 -8l-53 -190q-3 -9 -11 -9h-5q-5 0 -7 3.5z" />
    <glyph glyph-name="less" unicode="&#x3c;" horiz-adv-x="462" 
d="M406.5 62.5q-3.5 -2.5 -7.5 0.5l-341 186q-6 2 -6 12l2 14q2 8 8 12l387 185l5 2q3 0 5 -2.5t1 -6.5l-2 -11q0 -7 -8 -12l-363 -171q-6 -3 -1 -6l321 -171q6 -4 6 -12l-2 -12q-1 -5 -4.5 -7.5z" />
    <glyph glyph-name="equal" unicode="=" horiz-adv-x="462" 
d="M74 439l1 6q2 10 11 10h363q10 0 8 -10v-6q-1 -4 -4 -7t-7 -3h-363q-9 0 -9 10zM47 221l1 6q2 10 11 10h363q10 0 8 -10v-6q-1 -4 -4 -7t-7 -3h-363q-9 0 -9 10z" />
    <glyph glyph-name="greater" unicode="&#x3e;" horiz-adv-x="462" 
d="M34 61q-3 0 -4.5 2.5t-0.5 6.5l1 12q2 8 9 12l363 171q5 3 1 6l-322 171q-5 4 -5 12l1 11q1 5 5 7.5t8 -0.5l341 -185q6 -5 5 -12l-1 -14q-2 -9 -9 -12l-386 -186q-4 -2 -6 -2z" />
    <glyph glyph-name="question" unicode="?" horiz-adv-x="366" 
d="M158.5 190q-2.5 3 -1.5 7l9 74q5 39 24 64.5t57 58.5q42 36 65.5 68t30.5 84q2 18 2 25q0 50 -26.5 80t-71.5 30q-51 0 -87.5 -37t-43.5 -97l-5 -38q-2 -10 -11 -10h-10q-4 0 -6.5 3t-1.5 7l5 38q8 73 53.5 117.5t110.5 44.5q56 0 89 -36t33 -98q0 -9 -2 -31
q-5 -44 -20.5 -76t-35 -53t-49.5 -47q-33 -28 -49.5 -48.5t-19.5 -49.5l-9 -73q-2 -10 -11 -10h-11q-5 0 -7.5 3zM123 15q-10 10 -10 26q0 21 13.5 35t32.5 14q17 0 27 -10t10 -27q0 -20 -13.5 -34t-33.5 -14q-16 0 -26 10z" />
    <glyph glyph-name="at" unicode="@" horiz-adv-x="775" 
d="M612.5 563.5q56.5 -29.5 86.5 -83t30 -125.5q0 -44 -12 -94q-22 -89 -71 -139.5t-111 -50.5q-33 0 -54.5 15.5t-29.5 43.5q0 2 -1.5 2.5t-2.5 -1.5q-19 -29 -47 -45t-61 -16q-40 0 -63 22.5t-23 59.5q0 15 4 35t9 42l5 22q13 53 24 84q15 44 49.5 70.5t78.5 26.5
q26 0 45 -11t28 -31q1 -2 3 -1.5t2 2.5l6 27q3 9 11 9h6q5 0 7 -3.5t1 -7.5l-54 -220q-4 -15 -4 -30q0 -32 18 -51.5t50 -19.5q48 0 87.5 43t59.5 121q13 48 13 92q0 100 -62.5 158.5t-166.5 58.5q-79 0 -157 -39t-135.5 -114t-75.5 -178q-8 -43 -8 -77q0 -104 58.5 -166
t162.5 -62q49 0 97 13.5t75 32.5q8 6 13 -2l3 -4q2 -4 2 -6q0 -5 -5 -8q-33 -22 -85.5 -36.5t-106.5 -14.5q-114 0 -177 67t-63 181q0 45 8 84q20 109 81.5 189.5t146.5 122.5t173 42q76 0 132.5 -29.5zM406.5 117q26.5 22 38.5 57q8 24 18 64l3 13q13 55 18 78q2 12 2 17
q0 27 -17 44.5t-46 17.5q-34 0 -62.5 -22t-41.5 -57q-10 -31 -21 -78q-14 -59 -18 -77q-1 -5 -1 -14q0 -29 18 -47t49 -18q34 0 60.5 22z" />
    <glyph glyph-name="A" unicode="A" horiz-adv-x="454" 
d="M381 8l-20 141q-1 3 -5 3h-261q-4 0 -5 -3l-54 -140q-4 -9 -12 -9h-8q-5 0 -7.5 3t-0.5 8l266 681q3 8 12 8h13q10 0 10 -8l102 -681v-2q0 -4 -3 -6.5t-7 -2.5h-10q-8 0 -10 8zM104 180.5q1 -1.5 3 -1.5h245q2 0 3.5 1.5t0.5 2.5l-67 465q-2 5 -5 0l-180 -465
q-1 -1 0 -2.5z" />
    <glyph glyph-name="B" unicode="B" horiz-adv-x="518" 
d="M379 362q0 -1 2 -2q39 -17 60 -53t21 -87q0 -21 -2 -33q-10 -87 -63.5 -137t-133.5 -50h-175q-10 0 -8 10l83 680q2 10 11 10h171q73 0 113.5 -39t40.5 -109q0 -69 -31.5 -118t-86.5 -70q-2 -1 -2 -2zM190 668l-36 -288q0 -4 4 -4h147q74 0 119.5 47t45.5 125
q0 58 -34 91t-94 33h-148q-4 0 -4 -4zM377.5 71.5q44.5 42.5 53.5 116.5q2 20 2 30q0 61 -34.5 96t-95.5 35h-149q-4 0 -4 -4l-38 -312q-1 -1 0 -2.5t3 -1.5h150q68 0 112.5 42.5z" />
    <glyph glyph-name="C" unicode="C" horiz-adv-x="505" 
d="M118.5 34q-43.5 42 -43.5 113q0 9 2 29l43 349q10 83 66 133t138 50q74 0 117.5 -41.5t43.5 -112.5q0 -10 -2 -28l-2 -11q0 -4 -3 -7t-8 -3h-9q-10 0 -9 9l2 13q1 8 1 23q0 59 -36.5 94.5t-98.5 35.5q-68 0 -115.5 -42t-55.5 -111l-43 -353q-2 -18 -2 -25
q0 -59 36.5 -94.5t98.5 -35.5q68 0 115.5 42.5t55.5 112.5l2 11q0 4 3 7t8 3l9 -1q9 0 9 -10l-1 -9q-10 -82 -66.5 -132.5t-137.5 -50.5q-74 0 -117.5 42z" />
    <glyph glyph-name="D" unicode="D" horiz-adv-x="522" 
d="M80 10l83 680q2 10 11 10h177q69 0 107.5 -39.5t38.5 -108.5q0 -10 -2 -34l-41 -336q-10 -85 -61 -133.5t-128 -48.5h-177q-10 0 -8 10zM112 29.5q1 -1.5 3 -1.5h154q64 0 105.5 41t50.5 113l41 335q2 20 2 30q0 59 -31.5 92t-88.5 33h-154q-4 0 -4 -4l-78 -636
q-1 -1 0 -2.5z" />
    <glyph glyph-name="E" unicode="E" horiz-adv-x="505" 
d="M509 675q-3 -3 -7 -3h-308q-4 0 -4 -4l-37 -300q0 -4 3 -4h214q4 0 6.5 -3t1.5 -7l-1 -7q0 -4 -3 -7t-8 -3h-213q-4 0 -4 -4l-37 -301q-1 -1 0 -2.5t3 -1.5h307q5 0 7.5 -3t1.5 -7l-1 -8q-2 -10 -11 -10h-331q-10 0 -8 10l83 680q2 10 11 10h331q10 0 8 -10l-1 -8
q0 -4 -3 -7z" />
    <glyph glyph-name="F" unicode="F" horiz-adv-x="469" 
d="M507 675q-3 -3 -7 -3h-306q-4 0 -4 -4l-37 -300q0 -4 3 -4h213q4 0 6.5 -3t1.5 -7l-1 -7q0 -4 -3 -7t-8 -3h-212q-4 0 -4 -4l-40 -323q-2 -10 -11 -10h-10q-10 0 -8 10l83 680q2 10 11 10h329q9 0 9 -10l-1 -8q-1 -4 -4 -7z" />
    <glyph glyph-name="G" unicode="G" horiz-adv-x="512" 
d="M117.5 33.5q-43.5 41.5 -43.5 111.5q0 9 2 27l44 356q10 81 66 130.5t138 49.5q74 0 117 -41.5t43 -110.5q0 -9 -2 -27l-4 -31q0 -4 -3 -7t-8 -3h-9q-5 0 -7.5 3t-1.5 7l4 32q1 8 1 23q0 58 -36 92.5t-98 34.5q-68 0 -115 -41.5t-56 -109.5l-44 -358q-1 -8 -1 -23
q0 -59 36.5 -93.5t98.5 -34.5q68 0 115 41.5t55 108.5l17 136q0 4 -4 4h-131q-10 0 -8 10l1 8q0 4 3 7t8 3h154q10 0 8 -10l-19 -156q-10 -82 -65.5 -131t-136.5 -49q-75 0 -118.5 41.5z" />
    <glyph glyph-name="H" unicode="H" horiz-adv-x="551" 
d="M501 700h10q10 0 8 -10l-83 -680q-2 -10 -11 -10h-10q-10 0 -8 10l39 323q1 1 0 2.5t-3 1.5h-290q-4 0 -4 -4l-40 -323q-2 -10 -11 -10h-10q-10 0 -8 10l83 680q2 10 11 10h10q10 0 8 -10l-39 -322q0 -4 3 -4h290q3 0 5 4l39 322q2 10 11 10z" />
    <glyph glyph-name="I" unicode="I" horiz-adv-x="224" 
d="M80 10l83 680q2 10 11 10h10q10 0 8 -10l-83 -680q-2 -10 -11 -10h-10q-10 0 -8 10z" />
    <glyph glyph-name="J" unicode="J" horiz-adv-x="477" 
d="M71.5 32.5q-41.5 40.5 -41.5 108.5q0 9 2 29l10 87q2 10 11 10h10q10 0 8 -10l-10 -88q-2 -16 -2 -24q0 -57 34.5 -91t94.5 -34q65 0 110.5 41t53.5 108l63 521q1 4 4 7t7 3h10q9 0 9 -10l-64 -520q-10 -80 -64 -129t-133 -49q-71 0 -112.5 40.5z" />
    <glyph glyph-name="K" unicode="K" horiz-adv-x="500" 
d="M80 10l83 680q2 10 11 10h10q10 0 8 -10l-45 -368q0 -2 2 -3t3 1l333 374q5 6 13 6h12q6 0 7.5 -3.5t-3.5 -8.5l-234 -266q-2 -4 -1 -6l174 -404l2 -5q0 -7 -10 -7h-14q-7 0 -11 7l-165 383q0 2 -1.5 2t-2.5 -2l-108 -116q-2 -4 -2 -5l-32 -259q-2 -10 -11 -10h-10
q-10 0 -8 10z" />
    <glyph glyph-name="L" unicode="L" horiz-adv-x="458" 
d="M80 10l83 680q2 10 11 10h10q10 0 8 -10l-80 -658q-1 -1 0 -2.5t3 -1.5h293q10 0 8 -10l-1 -8q0 -4 -3 -7t-8 -3h-316q-10 0 -8 10z" />
    <glyph glyph-name="M" unicode="M" horiz-adv-x="592" 
d="M540 700h12q4 0 6.5 -3t1.5 -7l-83 -680q-1 -4 -4 -7t-7 -3h-10q-9 0 -9 10l76 619q1 3 -0.5 3t-3.5 -2l-187 -294q-3 -7 -12 -7h-4q-10 0 -11 7l-116 293q-2 2 -3.5 2t-1.5 -3l-76 -618q-2 -10 -11 -10h-10q-10 0 -8 10l83 680q2 10 11 10h12q8 0 11 -7l125 -314
q1 -2 3 -2t3 2l200 314q4 7 13 7z" />
    <glyph glyph-name="N" unicode="N" horiz-adv-x="565" 
d="M507 697q3 3 8 3h9q5 0 7.5 -3t1.5 -7l-84 -680q0 -4 -3 -7t-8 -3h-12q-10 0 -11 7l-226 621q-2 2 -3.5 1.5t-1.5 -3.5l-75 -616q-2 -10 -11 -10h-10q-10 0 -8 10l83 680q2 10 11 10h12q8 0 11 -7l226 -621q2 -2 3.5 -1.5t1.5 3.5l76 616q0 4 3 7z" />
    <glyph glyph-name="O" unicode="O" horiz-adv-x="518" 
d="M120 36q-44 44 -44 116q0 10 2 30l41 335q10 85 67.5 138t139.5 53q74 0 118.5 -44t44.5 -117q0 -10 -2 -30l-41 -335q-10 -85 -68 -137.5t-140 -52.5q-74 0 -118 44zM359.5 64.5q48.5 44.5 57.5 116.5l41 337q2 18 2 26q0 62 -37.5 99t-100.5 37q-69 0 -117 -44.5
t-57 -117.5l-41 -337q-2 -18 -2 -26q0 -61 37 -98t99 -37q70 0 118.5 44.5z" />
    <glyph glyph-name="P" unicode="P" horiz-adv-x="493" 
d="M462 661q37 -41 37 -110q0 -11 -2 -33q-10 -82 -59.5 -132t-121.5 -50h-168q-4 0 -4 -4l-40 -322q-2 -10 -11 -10h-10q-4 0 -6.5 3t-1.5 7l84 682q0 4 3 7t8 3h191q64 0 101 -41zM395.5 386.5q34.5 23.5 54.5 65t20 95.5q0 58 -30.5 92.5t-83.5 34.5h-167q-1 0 -2.5 -1
t-1.5 -3l-37 -303q0 -4 3 -4h167q43 0 77.5 23.5z" />
    <glyph glyph-name="Q" unicode="Q" horiz-adv-x="485" 
d="M424 665q42 -43 42 -115q0 -9 -2 -29l-42 -342q-10 -79 -59.5 -129.5t-121.5 -57.5q-5 0 -5 -4l-12 -103q-1 -4 -4 -7t-7 -3h-10q-9 0 -9 10l13 103q0 4 -3 4q-64 6 -100.5 48t-36.5 109q0 10 2 30l42 342q10 83 65 135t134 52q72 0 114 -43zM435 523q1 8 1 25
q0 60 -34.5 96t-94.5 36q-67 0 -113 -43t-54 -114l-43 -346q-1 -8 -1 -25q0 -60 35 -96t95 -36q66 0 112 43.5t54 113.5z" />
    <glyph glyph-name="R" unicode="R" horiz-adv-x="504" 
d="M411 8l-96 327q-1 3 -4 3h-158q-4 0 -4 -4l-40 -324q-2 -10 -11 -10h-10q-10 0 -8 10l83 680q2 10 11 10h185q65 0 102.5 -40.5t37.5 -108.5q0 -11 -2 -33q-8 -71 -49 -118.5t-101 -58.5q-4 -2 -2 -5l94 -324l1 -3q0 -9 -10 -9h-9q-9 0 -10 8zM190 668l-37 -299
q0 -4 3 -4h162q43 0 77.5 23t54.5 64t20 93q0 58 -30.5 92.5t-83.5 34.5h-162q-4 0 -4 -4z" />
    <glyph glyph-name="S" unicode="S" horiz-adv-x="475" 
d="M96.5 32q-44.5 40 -44.5 108q0 8 2 26l4 27q0 4 3 7t8 3h8q5 0 7.5 -3t1.5 -7l-3 -26q-1 -8 -1 -22q0 -58 37.5 -92t103.5 -34q76 0 122 45.5t46 119.5q0 48 -32.5 83t-109.5 81q-53 33 -80.5 54.5t-44.5 49.5t-17 67q0 9 2 27q10 78 60.5 120t128.5 42t120.5 -39.5
t42.5 -107.5q0 -8 -2 -28l-3 -25q-2 -10 -11 -10h-9q-5 0 -7.5 3t-1.5 7l3 23q1 8 1 24q0 58 -36 92t-101 34t-107 -35t-50 -100q-1 -7 -1 -21q0 -33 14.5 -56.5t40.5 -42.5t79 -52q82 -51 117 -89.5t35 -93.5q0 -7 -2 -25q-10 -79 -64 -126.5t-138 -47.5q-77 0 -121.5 40z
" />
    <glyph glyph-name="T" unicode="T" horiz-adv-x="464" 
d="M484 690l-1 -8q0 -4 -3 -7t-8 -3h-163q-2 0 -3.5 -1t-1.5 -3l-81 -658q0 -4 -3 -7t-8 -3h-9q-9 0 -9 10l81 658q0 4 -3 4h-155q-4 0 -6.5 3t-1.5 7l1 8q2 10 11 10h355q10 0 8 -10z" />
    <glyph glyph-name="U" unicode="U" horiz-adv-x="550" 
d="M135.5 37.5q-43.5 45.5 -43.5 122.5q0 10 2 32l62 498q0 4 3 7t7 3h10q9 0 9 -10l-62 -502q-2 -18 -2 -27q0 -64 37 -102.5t100 -38.5q70 0 118.5 46.5t57.5 121.5l62 502q2 10 11 10h10q4 0 6.5 -3t1.5 -7l-61 -498q-11 -90 -69 -145t-141 -55q-75 0 -118.5 45.5z" />
    <glyph glyph-name="V" unicode="V" horiz-adv-x="475" 
d="M205.5 2.5q-2.5 2.5 -2.5 6.5l-97 680v2q0 9 10 9h10q9 0 9 -9l88 -633q1 -2 2.5 -2t2.5 2l244 633q1 4 4.5 6.5t7.5 2.5h8q5 0 7.5 -3t0.5 -8l-264 -680q-4 -9 -12 -9h-12q-4 0 -6.5 2.5z" />
    <glyph glyph-name="W" unicode="W" horiz-adv-x="710" 
d="M173 9l-76 680v2q0 9 9 9h11q8 0 10 -9l67 -623q0 -3 1.5 -3t2.5 3l206 623q3 9 12 9h11q10 0 10 -9l55 -623q1 -3 2.5 -3t2.5 3l217 623q4 9 12 9h11q5 0 6.5 -3t-0.5 -8l-240 -680q-4 -9 -12 -9h-12q-9 0 -9 9l-55 625q0 3 -1 3t-2 -3l-207 -625q-3 -9 -12 -9h-11
q-9 0 -9 9z" />
    <glyph glyph-name="X" unicode="X" horiz-adv-x="472" 
d="M24 3.5q-2 3.5 2 8.5l217 335q3 3 1 6l-135 335q-1 1 -1 4q0 8 10 8h11q9 0 10 -7l122 -313q1 -2 3 -2t3 2l197 313q4 7 13 7h11q5 0 7.5 -3.5t-1.5 -8.5l-218 -336q-1 -2 -1 -6l136 -334q1 -1 1 -4q0 -4 -3 -6t-7 -2h-11q-10 0 -11 7l-121 312q0 2 -2 2t-3 -2l-199 -312
q-3 -7 -12 -7h-11q-6 0 -8 3.5z" />
    <glyph glyph-name="Y" unicode="Y" horiz-adv-x="452" 
d="M193 10l40 322q0 4 -1 5l-123 351l-1 4q0 8 9 8h10q9 0 10 -7l112 -324q1 -2 3 -2t3 2l191 324q3 7 12 7h10q5 0 6.5 -3.5t-1.5 -8.5l-209 -351q-2 -1 -2 -5l-40 -322q0 -4 -3 -7t-8 -3h-9q-9 0 -9 10z" />
    <glyph glyph-name="Z" unicode="Z" horiz-adv-x="451" 
d="M27 10l2 11q0 3 4 13l394 633q3 5 -2 5h-307q-4 0 -6.5 3t-1.5 7l1 8q2 10 11 10h333q4 0 6.5 -3t1.5 -7l-1 -11q-2 -8 -5 -13l-393 -633q-2 -5 2 -5h306q9 0 9 -10l-1 -8q-1 -4 -4 -7t-7 -3h-333q-9 0 -9 10z" />
    <glyph glyph-name="bracketleft" unicode="[" horiz-adv-x="308" 
d="M-2.5 -103q-2.5 3 -1.5 7l104 845q0 4 3 7t8 3h139q5 0 7.5 -3t1.5 -7l-1 -8q-2 -10 -11 -10h-117q-1 0 -2.5 -1t-1.5 -3l-98 -801q0 -4 3 -4h118q4 0 6.5 -3t1.5 -7l-1 -8q-2 -10 -11 -10h-141q-4 0 -6.5 3z" />
    <glyph glyph-name="backslash" unicode="\" horiz-adv-x="313" 
d="M261 9q0 -9 -10 -9h-9q-4 0 -6.5 2.5t-2.5 6.5l-90 680v2q0 9 10 9h9q4 0 6.5 -2.5t2.5 -6.5l90 -680v-2z" />
    <glyph glyph-name="bracketright" unicode="]" horiz-adv-x="308" 
d="M239 -106h-140q-5 0 -7.5 3t-1.5 7l1 8q2 10 11 10h117q3 0 5 4l98 801q0 4 -3 4h-117q-10 0 -8 10l1 8q2 10 11 10h139q5 0 7.5 -3t1.5 -7l-104 -845q-2 -10 -11 -10z" />
    <glyph glyph-name="asciicircum" unicode="^" horiz-adv-x="397" 
d="M63 316.5q-2 3.5 1 8.5l182 367q4 8 12 8h13q9 0 10 -8l93 -367v-3q0 -4 -3 -6.5t-7 -2.5h-8q-9 0 -10 8l-83 343q-1 3 -2.5 3t-3.5 -3l-167 -343q-4 -8 -12 -8h-8q-5 0 -7 3.5z" />
    <glyph glyph-name="underscore" unicode="_" horiz-adv-x="394" 
d="M13.5 3q-2.5 3 -1.5 7l1 8q2 10 11 10h314q9 0 9 -10l-1 -8q-1 -4 -4 -7t-7 -3h-315q-4 0 -6.5 3z" />
    <glyph glyph-name="grave" unicode="`" horiz-adv-x="160" 
d="M176 576q0 -7 -8 -7h-6q-7 0 -11 7l-49 112q-1 2 -1 5q0 7 9 7h8q7 0 11 -7l46 -112q1 -2 1 -5z" />
    <glyph glyph-name="a" unicode="a" horiz-adv-x="458" 
d="M398 501h10q10 0 8 -10l-59 -481q-2 -10 -11 -10h-9q-5 0 -7.5 3t-1.5 7l7 54q0 3 -1.5 3t-3.5 -2q-22 -34 -56 -53.5t-75 -19.5q-61 0 -96.5 37.5t-35.5 98.5q0 34 11 122q12 88 19 121q14 61 59 99.5t107 38.5q41 0 70 -19.5t43 -53.5q1 -2 2.5 -2t2.5 3l6 54
q2 10 11 10zM358 250q8 71 11 114q2 51 -26 84t-79 33q-52 0 -90.5 -33t-49.5 -84q-5 -29 -16 -113l-3 -30q-6 -48 -9 -84q-2 -51 28.5 -84t82.5 -33q51 0 87.5 33t46.5 84q9 53 17 113z" />
    <glyph glyph-name="b" unicode="b" horiz-adv-x="458" 
d="M415 332q0 -54 -5 -92q-7 -58 -30 -118q-27 -72 -66 -101t-101 -29q-83 0 -110 68q0 2 -1.5 2t-2.5 -3l-6 -49q0 -4 -3 -7t-8 -3h-9q-9 0 -9 10l84 680q2 10 11 10h9q5 0 7.5 -3t1.5 -7l-31 -249q0 -3 1.5 -3.5t2.5 2.5q18 33 46 50.5t74 17.5q67 0 102.5 -33t41.5 -107
q1 -11 1 -36zM380 250q5 42 5 71q0 49 -11 85q-12 37 -35.5 56.5t-63.5 19.5q-39 0 -65 -20t-45 -59q-28 -54 -40 -153q-5 -48 -5 -83q0 -38 6 -67q10 -41 31.5 -61.5t61.5 -20.5q45 0 73 21t50 63q26 53 38 148z" />
    <glyph glyph-name="c" unicode="c" 
d="M106 30q-37 38 -37 100q1 51 9 121q5 40 21 120q15 62 61.5 100t108.5 38q61 0 99.5 -35.5t39.5 -86.5v-4q1 -4 1 -12q0 -4 -3 -7t-8 -3h-8q-10 0 -10 7v10q1 43 -31 73t-83 30q-53 0 -91 -32.5t-49 -85.5q-8 -39 -18 -112l-3 -28q-7 -61 -7 -88q0 -52 29.5 -83.5
t81.5 -31.5t91.5 30.5t48.5 72.5v4q3 9 12 9h10q10 0 7 -11l-2 -7q-1 -1 -1 -4q-12 -51 -59.5 -86.5t-109.5 -35.5q-63 0 -100 38z" />
    <glyph glyph-name="d" unicode="d" horiz-adv-x="458" 
d="M415 697q3 3 8 3h9q9 0 9 -10l-84 -680q-2 -10 -11 -10h-9q-5 0 -7.5 3t-1.5 7l6 49q1 3 -0.5 3t-3.5 -2q-42 -68 -126 -68q-62 0 -93.5 29t-41.5 101q-4 31 -4 64q0 30 3 54q3 27 11 64.5t17 63.5q23 74 67 107t111 33q46 0 69.5 -17.5t33.5 -50.5q1 -3 2.5 -2.5
t1.5 3.5l31 249q0 4 3 7zM356 250q5 47 5 79q0 46 -8 74q-10 39 -31 59t-59 20q-40 0 -69 -19.5t-49 -56.5q-34 -62 -44 -156q-5 -47 -5 -81q0 -38 6 -67q11 -42 34.5 -63t67.5 -21q40 0 67 20.5t47 61.5q25 52 38 150z" />
    <glyph glyph-name="e" unicode="e" horiz-adv-x="444" 
d="M288 44q35 24 53 64q4 8 13 7l8 -1q9 -2 6 -12q-20 -50 -64 -80t-100 -30q-62 0 -98.5 37.5t-36.5 97.5q-1 26 7 95l3 29q10 82 19 119q14 61 60.5 100t108.5 39q64 0 101 -38t37 -100q0 -21 -3.5 -53.5t-8.5 -71.5q-2 -10 -11 -10h-272q-4 0 -4 -4q-2 -24 -4 -33
q-1 -16 -3 -31.5t-3 -29.5q-2 -53 28.5 -85.5t83.5 -32.5q45 0 80 24zM173.5 449.5q-38.5 -32.5 -50.5 -85.5l-6 -41l-6 -47q0 -4 4 -4h248q4 0 5 4l3 26l5 62q1 53 -29 85.5t-82 32.5q-53 0 -91.5 -32.5z" />
    <glyph glyph-name="f" unicode="f" horiz-adv-x="292" 
d="M210 645q-23 -32 -32 -102l-4 -38q-1 -1 0 -2.5t3 -1.5h102q10 0 8 -10l-1 -7q0 -4 -3 -7t-8 -3h-101q-3 0 -5 -4l-56 -460q-2 -10 -11 -10h-10q-10 0 -8 10l56 460q0 4 -3 4h-54q-4 0 -6.5 3t-1.5 7l1 7q2 10 11 10h53q4 0 4 4l5 39q10 82 41.5 121.5t99.5 39.5h19
q10 0 8 -10l-1 -8q-1 -10 -12 -10h-16q-55 0 -78 -32z" />
    <glyph glyph-name="g" unicode="g" horiz-adv-x="446" 
d="M398 501h10q10 0 8 -10l-60 -489q-12 -101 -68 -152.5t-157 -49.5q-11 0 -9 10l1 8q2 10 11 10q88 -1 135 43.5t58 131.5l8 60q0 3 -2 3.5t-3 -2.5q-21 -34 -55 -52.5t-75 -18.5q-62 0 -97.5 38t-35.5 100q2 54 10 119q11 81 20 121q15 61 60 99.5t106 38.5
q41 0 70 -18.5t43 -52.5q1 -3 2.5 -2.5t2.5 3.5l6 52q2 10 11 10zM358 250q8 70 11 113q2 52 -26 85t-79 33q-52 0 -90 -33t-50 -85q-7 -34 -18 -112q-4 -32 -10 -113q-1 -51 29.5 -84.5t81.5 -33.5t87.5 33.5t46.5 84.5q9 49 17 112z" />
    <glyph glyph-name="h" unicode="h" horiz-adv-x="459" 
d="M375 473.5q33 -34.5 33 -94.5q0 -9 -2 -31l-41 -338q-2 -10 -11 -10h-10q-4 0 -6.5 3t-1.5 7l41 334q2 16 2 24q0 52 -27.5 82t-76.5 30q-56 0 -95 -37.5t-46 -101.5l-41 -331q0 -4 -3 -7t-8 -3h-9q-9 0 -9 10l84 680q2 10 11 10h9q5 0 7.5 -3t1.5 -7l-31 -251q0 -6 4 -2
q22 34 57 52.5t77 18.5q58 0 91 -34.5z" />
    <glyph glyph-name="i" unicode="i" horiz-adv-x="222" 
d="M140.5 623q-9.5 10 -9.5 27q0 20 13.5 34t32.5 14q16 0 26 -10t10 -26q0 -21 -13.5 -35t-33.5 -14q-16 0 -25.5 10zM78.5 3q-2.5 3 -1.5 7l59 481q2 10 11 10h10q4 0 6.5 -3t1.5 -7l-59 -481q-2 -10 -11 -10h-10q-4 0 -6.5 3z" />
    <glyph glyph-name="j" unicode="j" horiz-adv-x="209" 
d="M127.5 623.5q-10.5 10.5 -10.5 26.5q0 20 13.5 34t33.5 14q16 0 26 -10t10 -26q0 -21 -13.5 -35t-32.5 -14q-16 0 -26.5 10.5zM-61 -201l1 8q2 10 11 10q43 4 70 33.5t34 80.5l68 560q2 10 11 10h10q10 0 8 -10l-68 -560q-8 -65 -43 -102t-93 -40q-9 0 -9 10z" />
    <glyph glyph-name="k" unicode="k" horiz-adv-x="417" 
d="M64 10l84 680q2 10 11 10h9q5 0 7.5 -3t1.5 -7l-55 -446q0 -2 2 -2.5t3 1.5l244 252q6 6 13 6h12q6 0 7 -3.5t-3 -8.5l-122 -127q-2 -3 -1 -5l88 -345l1 -3q0 -9 -10 -9h-12q-8 0 -9 8l-81 324q0 2 -2 2.5t-4 -1.5l-130 -135q-2 -4 -2 -5l-23 -183q0 -4 -3 -7t-8 -3h-9
q-9 0 -9 10z" />
    <glyph glyph-name="l" unicode="l" horiz-adv-x="188" 
d="M61 10l84 680q2 10 11 10h9q5 0 7.5 -3t1.5 -7l-84 -680q0 -4 -3 -7t-7 -3h-10q-9 0 -9 10z" />
    <glyph glyph-name="m" unicode="m" horiz-adv-x="708" 
d="M627 473q32 -35 32 -97q0 -9 -2 -29l-42 -337q0 -4 -3 -7t-8 -3h-9q-5 0 -7.5 3t-1.5 7l41 333q1 9 1 25q0 52 -26.5 82t-71.5 30q-54 0 -90.5 -36t-44.5 -99l-41 -335q0 -4 -3 -7t-8 -3h-9q-5 0 -7.5 3t-1.5 7l41 333q2 18 2 27q0 51 -26.5 80.5t-71.5 29.5
q-54 0 -91 -36t-44 -99l-42 -335q0 -4 -3 -7t-8 -3h-9q-9 0 -9 10l59 481q2 10 11 10h10q10 0 8 -10l-5 -48q-1 -3 0.5 -3.5t3.5 1.5q22 33 55.5 50t73.5 17q44 0 73.5 -23t39.5 -65q0 -3 1.5 -3t2.5 3q21 43 58.5 65.5t84.5 22.5q55 0 87 -35z" />
    <glyph glyph-name="n" unicode="n" horiz-adv-x="459" 
d="M375 473.5q33 -34.5 33 -94.5q0 -9 -2 -31l-41 -338q-2 -10 -11 -10h-10q-4 0 -6.5 3t-1.5 7l41 334q2 16 2 24q0 52 -27.5 82t-76.5 30q-56 0 -95 -37.5t-46 -101.5l-41 -331q0 -4 -3 -7t-8 -3h-9q-9 0 -9 10l59 481q2 10 11 10h10q10 0 8 -10l-6 -52q0 -6 4 -2
q22 34 57 52.5t77 18.5q58 0 91 -34.5z" />
    <glyph glyph-name="o" unicode="o" horiz-adv-x="450" 
d="M104.5 30q-36.5 38 -36.5 100q0 32 7 88l4 33q11 83 18 120q15 62 61.5 100t109.5 38q62 0 99.5 -36.5t37.5 -95.5q0 -27 -8 -105q0 -7 -2 -21q-10 -84 -19 -121q-14 -61 -61 -99.5t-110 -38.5q-64 0 -100.5 38zM299.5 52.5q38.5 32.5 50.5 85.5q2 11 11 83l3 29l5 40
q8 62 8 78q0 51 -30.5 82t-81.5 31q-53 0 -91.5 -32.5t-49.5 -85.5q-6 -31 -12 -82l-4 -31l-5 -43q-6 -58 -7 -69q-1 -53 29 -85.5t83 -32.5t91.5 32.5z" />
    <glyph glyph-name="p" unicode="p" horiz-adv-x="465" 
d="M422 318q0 -32 -3 -58q-3 -25 -10.5 -62.5t-15.5 -64.5q-24 -74 -68 -107t-111 -33q-45 0 -69 17.5t-34 49.5q0 3 -1.5 2.5t-2.5 -3.5l-30 -248q-2 -10 -11 -10h-10q-10 0 -8 10l83 680q2 10 11 10h10q10 0 8 -10l-6 -48q0 -3 1.5 -3t3.5 2q43 67 126 67q61 0 93 -29.5
t41 -100.5q3 -31 3 -61zM387 251q6 44 6 81q0 40 -7 67q-11 42 -35 63t-68 21q-40 0 -67 -21t-46 -61q-26 -54 -37 -150q-6 -43 -6 -82q0 -43 8 -71q11 -39 31 -59t58 -20q41 0 69.5 19.5t49.5 56.5q31 55 44 156z" />
    <glyph glyph-name="q" unicode="q" horiz-adv-x="465" 
d="M398 501h10q10 0 8 -10l-83 -680q-2 -10 -11 -10h-10q-10 0 -8 10l30 249q1 3 -1 3.5t-3 -2.5q-17 -33 -45 -50.5t-74 -17.5q-68 0 -103 33t-41 107q-1 11 -1 36q0 54 5 91q7 58 30 119q26 71 65.5 100.5t100.5 29.5q83 0 110 -68q1 -2 2.5 -2t1.5 3l6 49q2 10 11 10z
M356 251q6 45 6 83q0 40 -7 67q-9 40 -31.5 61t-62.5 21q-44 0 -73 -21t-50 -63q-25 -54 -37 -148q-5 -42 -5 -71q0 -49 11 -85q23 -76 99 -76q38 0 64 20t46 59q29 57 40 153z" />
    <glyph glyph-name="r" unicode="r" horiz-adv-x="304" 
d="M323 494q3 -1 4 -5t-1 -8l-6 -12q-3 -10 -13 -5q-16 8 -40 8q-51 -1 -89.5 -45.5t-46.5 -109.5l-38 -307q0 -4 -3 -7t-8 -3h-9q-9 0 -9 10l59 481q2 10 11 10h10q10 0 8 -10l-8 -71q-1 -3 0.5 -3t3.5 2q22 41 54.5 63.5t72.5 22.5q29 0 48 -11z" />
    <glyph glyph-name="s" unicode="s" horiz-adv-x="400" 
d="M89.5 27q-36.5 31 -36.5 78q0 10 1 15l1 10q0 4 3 7t8 3h8q5 0 7.5 -3t1.5 -7l-1 -9q-1 -4 -1 -11q0 -37 29.5 -62.5t79.5 -25.5q56 0 93 34t37 85q0 28 -15 46t-36 28.5t-61 25.5t-64.5 28t-41 35t-16.5 56q0 65 45.5 105t115.5 40q60 0 95 -30.5t35 -79.5q0 -11 -1 -17
v-3q-2 -10 -11 -10h-8q-10 0 -8 10v3q1 4 1 12q0 38 -29 63t-78 25q-56 0 -92 -31.5t-36 -81.5q0 -36 26 -56t79 -40q44 -17 68.5 -30t42.5 -35.5t18 -57.5q0 -66 -45.5 -108t-116.5 -42q-61 0 -97.5 31z" />
    <glyph glyph-name="t" unicode="t" horiz-adv-x="294" 
d="M281 477q-3 -3 -7 -3h-101q-3 0 -5 -4l-42 -343q-2 -20 -2 -27q0 -40 19 -56t60 -16h16q10 0 8 -10l-1 -8q0 -4 -3 -7t-8 -3h-18q-50 0 -76 20t-26 72q0 20 2 32l42 346q0 4 -3 4h-50q-4 0 -6.5 3t-1.5 7l1 7q0 4 3 7t8 3h49q4 0 4 4l14 112q2 10 11 10h10q10 0 8 -10
l-13 -112q-1 -1 0 -2.5t3 -1.5h101q10 0 8 -10l-1 -7q0 -4 -3 -7z" />
    <glyph glyph-name="u" unicode="u" horiz-adv-x="458" 
d="M398 501h10q10 0 8 -10l-59 -481q-2 -10 -11 -10h-9q-5 0 -7.5 3t-1.5 7l6 48q1 3 -1 3.5t-3 -2.5q-22 -32 -56 -49t-75 -17q-59 0 -93.5 33t-34.5 94q0 8 2 28l43 343q0 4 3 7t8 3h9q9 0 9 -10l-42 -337q-1 -9 -1 -24q0 -52 27.5 -80.5t75.5 -28.5q57 0 95.5 37.5
t46.5 101.5l40 331q2 10 11 10z" />
    <glyph glyph-name="v" unicode="v" horiz-adv-x="385" 
d="M156 8l-82 482v2q0 9 10 9h12q8 0 10 -8l71 -440q1 -2 3 -2t3 2l179 440q5 8 12 8h11q5 0 7.5 -3t0.5 -8l-200 -482q-5 -8 -13 -8h-13q-8 0 -11 8z" />
    <glyph glyph-name="w" unicode="w" horiz-adv-x="584" 
d="M133 9l-59 481v2q0 9 9 9h10q9 0 9 -9l50 -443q1 -3 2 -3t2 3l160 443q2 9 11 9h11q9 0 10 -9l52 -442q0 -3 1.5 -3t2.5 3l160 442q3 9 12 9h9q12 0 7 -11l-179 -481q-1 -9 -11 -9h-12q-8 0 -10 9l-53 430q0 2 -1 2.5t-2 -2.5l-158 -430q-3 -9 -12 -9h-11q-10 0 -10 9z
" />
    <glyph glyph-name="x" unicode="x" horiz-adv-x="378" 
d="M9.5 3.5q-1.5 3.5 2.5 8.5l172 235q2 3 0 6l-113 236q-1 2 -1 6q0 6 8 6h12q7 0 10 -7l101 -215q1 -1 3 -1t3 1l153 215q7 7 13 7h12q5 0 7 -3.5t-2 -8.5l-172 -236q-1 -3 0 -6l112 -235q1 -2 1 -6q0 -6 -8 -6h-12q-6 0 -10 7l-100 215q-1 2 -3 2t-3 -2l-154 -215
q-7 -7 -13 -7h-12q-5 0 -6.5 3.5z" />
    <glyph glyph-name="y" unicode="y" horiz-adv-x="374" 
d="M5 -197q-2 3 -1 7l1 7q0 4 3 7t8 3h3q32 1 50.5 14t36 46.5t47.5 109.5q1 2 1 6l-87 487v2q0 9 9 9h10q8 0 10 -8l76 -447q0 -2 2 -2t3 2l183 447q5 8 12 8h10q5 0 7 -3t0 -8l-230 -549q-26 -62 -46 -91.5t-41.5 -39.5t-56.5 -10h-6q-2 0 -4 3z" />
    <glyph glyph-name="z" unicode="z" horiz-adv-x="383" 
d="M22 10l1 11q0 3 5 13l319 434q2 1 1 3t-3 2h-255q-10 0 -8 10l1 8q0 4 3 7t8 3h284q10 0 8 -10l-1 -11q-2 -8 -6 -13l-320 -434q-1 -1 0 -3t3 -2h256q10 0 8 -10l-1 -8q-2 -10 -11 -10h-284q-10 0 -8 10z" />
    <glyph glyph-name="braceleft" unicode="{" horiz-adv-x="238" 
d="M76 -88.5q-17 17.5 -17 58.5q0 8 2 32l28 223q2 22 2 29q0 27 -9 41.5t-27 19.5q-8 3 -7 11l1 9q1 8 10 11q24 5 37.5 26.5t18.5 62.5l26 216q7 58 29.5 83t67.5 25h38q4 0 6.5 -3t1.5 -7l-1 -8q-2 -10 -11 -10h-36q-30 0 -45.5 -19t-20.5 -62l-26 -212q-5 -44 -18.5 -69
t-36.5 -36q-5 -2 0 -5q31 -19 31 -71q0 -15 -3 -35l-26 -219q-2 -20 -2 -28q0 -28 11.5 -40.5t36.5 -12.5h36q10 0 8 -10l-1 -8q0 -4 -3 -7t-8 -3h-37q-39 0 -56 17.5z" />
    <glyph glyph-name="bar" unicode="|" horiz-adv-x="128" 
d="M21 -70l101 820q2 10 11 10h10q10 0 8 -10l-100 -820q-1 -4 -4 -7t-7 -3h-10q-9 0 -9 10z" />
    <glyph glyph-name="braceright" unicode="}" horiz-adv-x="238" 
d="M4 -106q-4 0 -6.5 3t-1.5 7l1 8q2 10 11 10h35q30 0 45.5 19t20.5 62l27 219q5 43 18.5 68.5t36.5 37.5q5 3 0 5q-31 18 -31 72q0 9 2 33l26 212q2 20 2 28q0 28 -11.5 40.5t-36.5 12.5h-35q-10 0 -8 10l1 8q0 4 3 7t8 3h37q38 0 55 -17.5t17 -57.5q0 -9 -2 -33l-27 -216
q-2 -20 -2 -28q0 -27 9 -42t28 -20q8 -2 7 -10l-1 -9q-1 -9 -10 -10q-24 -6 -38 -27.5t-19 -63.5l-27 -223q-7 -58 -29.5 -83t-67.5 -25h-37z" />
    <glyph glyph-name="asciitilde" unicode="~" horiz-adv-x="449" 
d="M278 258.5q-20 8.5 -50 28.5q-17 11 -33 17t-36 6q-27 0 -46 -10.5t-35 -31.5q-6 -8 -12 -4l-3 2l-2 1q-8 5 -2 14q18 27 44.5 42.5t58.5 15.5q24 0 41.5 -7t38.5 -20q26 -18 44.5 -26t46.5 -8q21 0 36 10t35 31q7 7 12 3l4 -2l1 -1q7 -6 1 -14q-21 -27 -43 -41t-51 -14
q-30 0 -50 8.5z" />
    <glyph glyph-name="uni00A0" unicode="&#xa0;" horiz-adv-x="194" 
 />
    <glyph glyph-name="exclamdown" unicode="&#xa1;" horiz-adv-x="262" 
d="M224 698q10 -10 10 -27q0 -20 -13.5 -34t-32.5 -14q-18 0 -28.5 12t-8.5 30q3 19 16 31t31 12q16 0 26 -10zM170 491h7q9 0 8 -10l-54 -458q-2 -10 -11 -10h-10q-10 0 -8 10l57 458q1 10 11 10z" />
    <glyph glyph-name="cent" unicode="&#xa2;" 
d="M360 217q3 9 12 9h10q10 0 7 -11l-2 -7q-1 -1 -1 -4q-11 -48 -55.5 -83t-102.5 -39q-4 0 -4 -4l-8 -68q-1 -4 -4 -7t-7 -3h-9q-9 0 -9 10l9 69q0 4 -3 4q-53 8 -83 45t-30 92q1 51 9 121q5 40 21 120q13 55 52 92t94 45q4 0 4 4l9 69q0 4 3 7t8 3h8q9 0 9 -10l-10 -68
q0 -4 4 -4q57 -4 92 -38.5t36 -83.5q0 -3 1 -4v-12q0 -4 -3 -7t-8 -3h-8q-10 0 -10 7v10q1 43 -30.5 73t-83.5 30q-53 0 -91 -32.5t-49 -85.5q-8 -39 -18 -112l-3 -28q-7 -61 -7 -88q0 -52 29.5 -83.5t81.5 -31.5t91.5 30.5t48.5 72.5v4z" />
    <glyph glyph-name="sterling" unicode="&#xa3;" horiz-adv-x="532" 
d="M149 28.5q1 -1.5 3 -1.5h317q10 0 8 -10v-7q-1 -4 -4 -7t-7 -3h-353q-4 0 -6.5 3t-1.5 7l1 9q2 8 8 12q24 15 42.5 52t23.5 83l19 151q0 4 -3 4h-68q-5 0 -7.5 3t-1.5 7l1 6q2 10 11 10h68q4 0 4 4l21 173q10 86 59.5 135t126.5 49q53 0 85 -30t40 -87v-2q0 -7 -8 -10
l-8 -2l-4 -1q-7 0 -7 8q-16 97 -102 97q-65 0 -105 -41t-48 -115l-22 -174q0 -4 4 -4h167q5 0 7.5 -3t1.5 -7l-1 -6q-2 -10 -11 -10h-168q-1 0 -2.5 -1t-1.5 -3l-18 -148q-5 -43 -21 -79.5t-38 -57.5q-2 -2 -1 -3.5z" />
    <glyph glyph-name="currency" unicode="&#xa4;" horiz-adv-x="470" 
d="M375 183q-4 -3 -1 -6l54 -64q2 -4 2 -5q0 -5 -5 -9l-6 -5q-3 -3 -7 -3q-3 0 -7 4l-53 62q-3 3 -6 1q-26 -20 -57 -31t-63 -11q-63 0 -105 39q-2 1 -6 -1l-66 -59q-9 -8 -14 -1l-5 5q-7 7 0 14l67 60q3 3 1 6q-32 43 -32 97q0 41 15.5 77.5t42.5 65.5q2 5 0 6l-54 63
q-2 2 -2 5q0 5 4 9l7 5q7 7 13 0l54 -63q2 -2 5 -1q56 43 120 43q33 0 62.5 -12t51.5 -33q3 -3 6 0l72 66q7 7 13 0l6 -5q3 -3 3 -6q0 -4 -4 -8l-74 -67q-2 -1 -2.5 -2.5t0.5 -3.5q26 -40 26 -93q0 -78 -56 -139zM132.5 182.5q38.5 -39.5 96.5 -39.5q44 0 84.5 24t65 65
t24.5 87q0 59 -38.5 99t-96.5 40q-45 0 -85.5 -24.5t-64.5 -65.5t-24 -88q0 -58 38.5 -97.5z" />
    <glyph glyph-name="yen" unicode="&#xa5;" horiz-adv-x="586" 
d="M539.5 696.5q1.5 -3.5 -1.5 -8.5l-203 -340q-3 -5 2 -5h133q10 0 8 -10v-4q-2 -10 -11 -10h-138q-4 0 -4 -4l-11 -91q-1 -1 0 -2.5t3 -1.5h138q10 0 8 -10v-4q-2 -10 -11 -10h-138q-4 0 -4 -4l-23 -182q0 -4 -3 -7t-8 -3h-9q-9 0 -9 10l23 182q0 4 -4 4h-137q-4 0 -6.5 3
t-1.5 7v4q1 4 4 7t7 3h137q3 0 5 4l11 91q0 4 -4 4h-136q-5 0 -7.5 3t-1.5 7l1 4q0 4 3 7t8 3h131q6 0 4 5l-120 340l-1 4q0 8 9 8h10q9 0 10 -7l112 -324q1 -2 3 -2t3 2l191 324q3 7 12 7h10q5 0 6.5 -3.5z" />
    <glyph glyph-name="brokenbar" unicode="&#xa6;" horiz-adv-x="128" 
d="M80.5 393q-2.5 3 -1.5 7l43 350q2 10 11 10h10q10 0 8 -10l-43 -350q0 -4 -3 -7t-8 -3h-9q-5 0 -7.5 3zM21 -70l43 345q2 10 11 10h9q5 0 7.5 -3t1.5 -7l-42 -345q-1 -4 -4 -7t-7 -3h-10q-9 0 -9 10z" />
    <glyph glyph-name="section" unicode="&#xa7;" horiz-adv-x="382" 
d="M65.5 -173q-29.5 34 -29.5 93q0 9 2 29l1 13q2 10 11 10h10q4 0 6.5 -3t1.5 -7l-1 -12q-1 -9 -1 -25q0 -49 22 -77t62 -28q44 0 76 36t39 89q1 7 1 19q0 51 -28 74.5t-73 40.5q-36 13 -59 29.5t-34 48.5q-9 24 -9 61q0 65 36 122q33 50 83 63q3 0 3 1t-1 2
q-34 15 -54.5 49.5t-20.5 79.5q0 46 19.5 85.5t53.5 63.5t76 24q50 0 79.5 -35t29.5 -92q0 -17 -1 -25l-1 -12q-1 -4 -4 -7t-7 -3h-10q-9 0 -9 10l2 11q1 8 1 23q0 46 -23 74t-60 28q-50 0 -83.5 -43.5t-33.5 -103.5q0 -44 25 -70.5t75 -46.5q30 -12 50.5 -24.5t35.5 -39.5
q16 -32 16 -72q0 -73 -36 -128q-31 -50 -81 -61q-5 -2 -1 -3q33 -15 53 -46t20 -76q0 -47 -20 -86.5t-54 -63t-76 -23.5q-50 0 -79.5 34zM283 168q12 21 19.5 48t7.5 55q0 38 -15 66q-27 45 -78 45q-30 0 -56.5 -18t-41.5 -44q-20 -33 -25 -76q-2 -18 -2 -28q0 -28 8 -48
q22 -56 84 -56q64 0 99 56z" />
    <glyph glyph-name="dieresis" unicode="&#xa8;" horiz-adv-x="281" 
d="M239 623q-10 10 -10 27q0 20 13.5 34t33.5 14q18 0 28.5 -12t8.5 -30q-3 -19 -16 -31t-31 -12q-17 0 -27 10zM101 623q-10 10 -10 27q0 20 13.5 34t33.5 14q18 0 28.5 -12t8.5 -30q-3 -19 -16 -31t-31 -12q-17 0 -27 10z" />
    <glyph glyph-name="copyright" unicode="&#xa9;" horiz-adv-x="853" 
d="M244 32q-71 40 -110 110t-39 157q0 24 3 48q12 101 68 183.5t142 130t185 47.5q92 0 162.5 -40t109.5 -111t39 -160q0 -24 -3 -50q-12 -98 -67.5 -179.5t-142 -128.5t-186.5 -47q-90 0 -161 40zM580.5 61q79.5 44 131.5 119.5t63 166.5q3 24 3 46q0 83 -36 149
t-101.5 103.5t-150.5 37.5q-92 0 -171.5 -44t-131.5 -121t-63 -171q-3 -22 -3 -45q0 -81 36 -146t101.5 -102t150.5 -37q92 0 171.5 44zM371.5 194.5q-20.5 19.5 -20.5 52.5q0 8 1 12l22 178q5 38 31 60.5t66 22.5q37 0 58 -19.5t21 -51.5l-1 -12v-5q-2 -10 -11 -10h-6
q-4 0 -6.5 3t-1.5 8v6l1 9q0 22 -15.5 35t-41.5 13q-28 0 -47.5 -15.5t-22.5 -41.5l-22 -183q-3 -26 12.5 -41.5t43.5 -15.5t47.5 15.5t22.5 41.5l1 7q0 4 3 7t8 3h5q11 0 9 -9l-1 -5q-4 -37 -31.5 -60.5t-66.5 -23.5q-37 0 -57.5 19.5z" />
    <glyph glyph-name="ordfeminine" unicode="&#xaa;" horiz-adv-x="285" 
d="M259 561q4 0 4 4l4 33q1 7 1 19q0 31 -16.5 49t-49.5 18q-28 0 -50 -14t-30 -37q-1 -5 -4 -7.5t-7 -1.5l-7 1q-10 2 -7 11q11 32 40.5 52t68.5 20q44 0 66.5 -23.5t22.5 -65.5q0 -14 -1 -21l-27 -217q-2 -10 -11 -10h-7q-10 0 -8 10l3 23q0 2 -1.5 3t-3.5 -1
q-31 -40 -92 -40q-36 0 -60 17.5t-24 56.5q0 59 36 90t96 31h64zM218 410.5q29 20.5 34 59.5l7 63q1 1 0 2.5t-3 1.5h-64q-45 0 -74 -23.5t-29 -66.5q0 -29 17 -43t46 -14q37 0 66 20.5zM46 298q3 3 7 3h205q9 0 9 -10l-1 -6q-2 -10 -11 -10h-205q-10 0 -8 10l1 6q0 4 3 7z
" />
    <glyph glyph-name="guillemotleft" unicode="&#xab;" horiz-adv-x="503" 
d="M252 113q0 -6 -8 -6h-9q-7 0 -11 6l-108 161q-2 4 -2 6q0 5 4 8l148 161q5 6 12 6h8q6 0 7 -3.5t-3 -8.5l-146 -159q-3 -3 -1 -6l107 -159q2 -4 2 -6zM394 113q0 -6 -8 -6h-9q-8 0 -11 6l-108 161q-3 3 -3 6q0 4 4 8l148 161q6 6 13 6h7q6 0 7.5 -3.5t-2.5 -8.5
l-147 -159q-1 -2 -1 -6l108 -159q2 -4 2 -6z" />
    <glyph glyph-name="logicalnot" unicode="&#xac;" horiz-adv-x="462" 
d="M442 324l-1 -10l-1 -6l-1 -2l-14 -113q0 -4 -3 -7t-8 -3h-7q-5 0 -7.5 3t-1.5 7l14 111q0 4 -4 4h-340q-9 0 -9 10l1 6q2 10 11 10h363q10 0 8 -10z" />
    <glyph glyph-name="uni00AD" unicode="&#xad;" horiz-adv-x="334" 
d="M60.5 309q-2.5 3 -1.5 7l1 8q2 10 11 10h235q10 0 8 -10l-1 -8q0 -4 -3 -7t-8 -3h-234q-5 0 -7.5 3z" />
    <glyph glyph-name="registered" unicode="&#xae;" horiz-adv-x="434" 
d="M370.5 694q37.5 -22 58.5 -60t21 -85q0 -57 -29.5 -106.5t-78 -79t-103.5 -29.5q-47 0 -85 22t-59 60t-21 85q0 57 29.5 106.5t78.5 79t104 29.5q47 0 84.5 -22zM332.5 384q42.5 26 68 69.5t25.5 93.5q0 62 -40.5 103.5t-102.5 41.5q-48 0 -91 -25.5t-69 -69t-26 -92.5
q0 -41 19 -74.5t52 -53t74 -19.5q48 0 90.5 26zM315.5 536q-9.5 -14 -24.5 -20q-3 -1 -2 -5l19 -63l1 -4q0 -8 -9 -8h-4q-7 0 -10 8l-21 66q0 3 -3 3h-22q-1 0 -2.5 -1t-1.5 -3l-8 -63q0 -4 -3 -7t-8 -3h-1q-5 0 -7.5 3t-1.5 7l19 155q2 10 11 10h46q19 0 30.5 -11.5
t11.5 -30.5t-9.5 -33zM246 588l-7 -54q0 -4 4 -4h28q13 0 22.5 10t9.5 26q0 12 -6.5 19t-18.5 7h-28q-4 0 -4 -4z" />
    <glyph glyph-name="macron" unicode="&#xaf;" horiz-adv-x="406" 
d="M151.5 606q-2.5 3 -1.5 7l1 6q0 4 3 7t8 3h197q4 0 6.5 -3t1.5 -7l-1 -6q0 -4 -3 -7t-8 -3h-197q-4 0 -6.5 3z" />
    <glyph glyph-name="degree" unicode="&#xb0;" horiz-adv-x="360" 
d="M127 536q-37 38 -37 96q0 47 23.5 87.5t62.5 64.5t83 24q58 0 95.5 -38.5t37.5 -97.5q0 -47 -24 -87t-63.5 -63.5t-83.5 -23.5q-57 0 -94 38zM293.5 544q32.5 20 52 54t19.5 73q0 48 -30.5 79.5t-78.5 31.5q-37 0 -69 -19.5t-51.5 -53t-19.5 -73.5q0 -48 31 -80t77 -32
q37 0 69.5 20z" />
    <glyph glyph-name="plusminus" unicode="&#xb1;" horiz-adv-x="462" 
d="M443 331v-6q-2 -10 -11 -10h-165q-4 0 -4 -4l-21 -168q-2 -10 -11 -10h-6q-10 0 -8 10l20 168q1 1 0 2.5t-3 1.5h-165q-10 0 -8 10v6q2 10 11 10h165q4 0 4 4l22 172q0 4 3 7t8 3h5q5 0 7.5 -3t1.5 -7l-21 -172q-1 -1 0 -2.5t3 -1.5h165q10 0 8 -10zM24 29l1 6
q2 10 11 10h363q10 0 8 -10v-6q-1 -4 -4 -7t-7 -3h-363q-9 0 -9 10z" />
    <glyph glyph-name="uni00B2" unicode="&#xb2;" horiz-adv-x="266" 
d="M70.5 460q-2.5 3 -1.5 7l1 7q0 5 5 13q48 59 138 175q62 82 62 131q0 29 -17 46.5t-46 17.5q-31 0 -52.5 -21t-25.5 -56l-2 -17q0 -4 -3 -7t-8 -3h-7q-5 0 -7.5 3t-1.5 7l2 18q6 45 36.5 73t72.5 28q39 0 62 -23t23 -62q0 -60 -64 -146l-33 -42l-96 -123q-3 -5 2 -5h158
q5 0 7.5 -3t1.5 -7l-1 -4q0 -4 -3 -7t-7 -3h-189q-4 0 -6.5 3z" />
    <glyph glyph-name="uni00B3" unicode="&#xb3;" horiz-adv-x="278" 
d="M286 612q0 -9 -2 -31q-4 -39 -21 -73q-15 -28 -39.5 -42.5t-55.5 -14.5q-37 0 -59 22.5t-25 59.5q-1 5 -1 16q0 15 1 21q1 10 11 10h7q8 0 8 -8q0 -6 -1 -15.5t0 -14.5q2 -30 18.5 -48t43.5 -18q45 0 68 42q15 28 19 65q2 10 2 27q0 15 -4 37q-12 47 -59 47q-7 0 -10 -1
h-4q-6 0 -10 4l-1 2q-2 4 -2 7t3 7l107 134q2 2 1 3.5t-3 1.5h-149q-4 0 -6.5 3t-1.5 7v4q1 4 4 7t7 3h176q10 0 8 -10v-7q-2 -9 -6 -13l-100 -125q-2 -2 -1 -3.5t3 -1.5q53 -4 69 -61q5 -22 5 -43z" />
    <glyph glyph-name="acute" unicode="&#xb4;" horiz-adv-x="160" 
d="M86.5 572.5q-1.5 3.5 1.5 8.5l74 112q5 7 13 7h8q6 0 8 -3.5t-2 -8.5l-77 -112q-5 -7 -12 -7h-6q-6 0 -7.5 3.5z" />
    <glyph glyph-name="uni00B5" unicode="&#xb5;" horiz-adv-x="466" 
d="M406 501h10q4 0 6.5 -3t1.5 -7l-59 -481q-2 -10 -11 -10h-10q-4 0 -6.5 3t-1.5 7l6 49q0 3 -1.5 3.5t-2.5 -2.5q-22 -33 -56 -50t-76 -17q-72 0 -104 47q-2 2 -3.5 1t-1.5 -3l-28 -228q-2 -10 -11 -10h-10q-10 0 -8 10l83 681q2 10 11 10h10q10 0 8 -10l-41 -337
q-2 -18 -2 -25q0 -51 27.5 -79.5t76.5 -28.5q57 0 95.5 37.5t45.5 101.5l41 331q2 10 11 10z" />
    <glyph glyph-name="paragraph" unicode="&#xb6;" horiz-adv-x="481" 
d="M441 700q10 0 8 -10l-108 -880q0 -4 -3 -7t-8 -3h-5q-5 0 -7.5 3t-1.5 7l106 859q0 4 -4 4h-117q-4 0 -4 -4l-106 -859q-2 -10 -11 -10h-8q-4 0 -6.5 3t-1.5 7l53 436q2 4 -3 4q-61 3 -98.5 55.5t-37.5 130.5q0 26 2 39q7 62 36 113.5t72.5 81.5t92.5 30h160z" />
    <glyph glyph-name="periodcentered" unicode="&#xb7;" horiz-adv-x="181" 
d="M73 238q-10 10 -10 27q0 20 13.5 34t33.5 14q18 0 28.5 -12t8.5 -30q-3 -19 -16 -31t-31 -12q-17 0 -27 10z" />
    <glyph glyph-name="cedilla" unicode="&#xb8;" horiz-adv-x="110" 
d="M-37 -168v1l2 4q3 7 12 6q12 -2 18 -2q42 0 54 43q3 12 3 23q0 40 -34 81q-4 4 -3.5 8t5.5 4h6q8 0 12 -4q40 -39 40 -86q0 -20 -5 -34q-10 -31 -32 -45t-49 -14q-12 0 -24 3q-9 2 -5 12z" />
    <glyph glyph-name="uni00B9" unicode="&#xb9;" horiz-adv-x="154" 
d="M176 877h12q9 0 9 -10l-50 -400q0 -4 -3 -7t-7 -3h-8q-9 0 -9 10l46 375q1 2 -0.5 3.5t-2.5 0.5l-46 -12l-3 -1q-4 0 -6 2.5t-1 6.5l1 3q0 7 9 11l48 19q4 2 11 2z" />
    <glyph glyph-name="ordmasculine" unicode="&#xba;" horiz-adv-x="294" 
d="M107 392q-24 25 -24 67q-2 19 1 44.5t4 33.5q7 58 13 79q9 41 40.5 66.5t73.5 25.5t67 -25.5t25 -66.5q0 -14 -4 -54l-3 -25q-8 -61 -12 -78q-10 -41 -41.5 -66.5t-73.5 -25.5t-66 25zM232 410.5q24 20.5 32 54.5q7 43 10 72q2 11 8 73q0 33 -19 53.5t-51 20.5
t-55.5 -20.5t-31.5 -53.5q-1 -4 -8 -52l-3 -21q-6 -60 -6 -74q0 -33 18.5 -53t49.5 -20q32 0 56 20.5zM50 285v6q2 10 11 10h206q10 0 8 -10v-6q-1 -4 -4 -7t-7 -3h-206q-10 0 -8 10z" />
    <glyph glyph-name="guillemotright" unicode="&#xbb;" horiz-adv-x="503" 
d="M99 111q0 4 4 8l146 159q3 3 1 6l-107 159q-2 4 -2 6q0 6 8 6h8q7 0 11 -6l108 -161q2 -4 2 -6q0 -5 -4 -8l-148 -161q-4 -6 -12 -6h-8q-7 0 -7 4zM241 111q0 4 4 8l146 159q3 3 1 6l-107 159q-2 4 -2 6q0 6 8 6h8q7 0 11 -6l108 -161q2 -4 2 -6q0 -5 -4 -8l-148 -161
q-4 -6 -12 -6h-8q-7 0 -7 4z" />
    <glyph glyph-name="onequarter" unicode="&#xbc;" horiz-adv-x="691" 
d="M154 700h12q9 0 9 -10l-50 -400q0 -4 -3 -7t-7 -3h-8q-9 0 -9 10l46 375q1 2 -0.5 3.5t-2.5 0.5l-46 -12l-3 -1q-4 0 -6 2.5t-1 6.5l1 3q0 7 9 11l48 19q4 2 11 2zM69 12l514 681q5 7 12 7h6q6 0 7 -3.5t-3 -8.5l-512 -681q-5 -7 -12 -7h-7q-12 0 -5 12zM655 133l-1 -5
q-2 -10 -11 -10h-15q-2 0 -3.5 -1t-1.5 -3l-13 -104q0 -4 -3 -7t-8 -3h-6q-5 0 -7.5 3t-1.5 7l13 104q0 4 -3 4h-145q-10 0 -8 10v6q2 9 4 12l138 266q4 8 12 8h8q5 0 7 -3.5t-1 -8.5l-135 -260q-1 -2 -0.5 -3.5t2.5 -1.5h121q4 0 4 4l12 98q2 10 11 10h7q10 0 8 -10
l-12 -98q0 -4 4 -4h15q9 0 9 -10z" />
    <glyph glyph-name="onehalf" unicode="&#xbd;" horiz-adv-x="699" 
d="M154 700h12q9 0 9 -10l-50 -400q0 -4 -3 -7t-7 -3h-8q-9 0 -9 10l46 375q1 2 -0.5 3.5t-2.5 0.5l-46 -12l-3 -1q-4 0 -6 2.5t-1 6.5l1 3q0 7 9 11l48 19q4 2 11 2zM69 12l514 681q5 7 12 7h6q6 0 7 -3.5t-3 -8.5l-512 -681q-5 -7 -12 -7h-7q-12 0 -5 12zM439.5 3
q-2.5 3 -1.5 7l1 7q0 5 5 13q48 59 138 175q62 82 62 131q0 29 -17 46.5t-46 17.5q-31 0 -52.5 -21t-25.5 -56l-2 -17q0 -4 -3 -7t-8 -3h-7q-5 0 -7.5 3t-1.5 7l2 18q6 45 36.5 73t72.5 28q39 0 62 -23t23 -62q0 -60 -64 -146l-33 -42l-96 -123q-3 -5 2 -5h158q5 0 7.5 -3
t1.5 -7l-1 -4q0 -4 -3 -7t-7 -3h-189q-4 0 -6.5 3z" />
    <glyph glyph-name="threequarters" unicode="&#xbe;" horiz-adv-x="771" 
d="M265 439q0 -9 -2 -31q-4 -39 -21 -73q-15 -28 -39.5 -42.5t-55.5 -14.5q-37 0 -59 22.5t-25 59.5q-1 5 -1 16q0 15 1 21q1 10 11 10h7q8 0 8 -8q0 -6 -1 -15.5t0 -14.5q2 -30 18.5 -48t43.5 -18q45 0 68 42q15 28 19 65q2 10 2 27q0 15 -4 37q-12 47 -59 47q-7 0 -10 -1
h-4q-6 0 -10 4l-1 2q-2 4 -2 7t3 7l107 134q2 2 1 3.5t-3 1.5h-149q-4 0 -6.5 3t-1.5 7v4q1 4 4 7t7 3h176q10 0 8 -10v-7q-2 -9 -6 -13l-100 -125q-2 -2 -1 -3.5t3 -1.5q53 -4 69 -61q5 -22 5 -43zM151 12l514 681q5 7 12 7h6q6 0 7 -3.5t-3 -8.5l-512 -681q-5 -7 -12 -7
h-7q-12 0 -5 12zM737 133l-1 -5q-2 -10 -11 -10h-15q-2 0 -3.5 -1t-1.5 -3l-13 -104q0 -4 -3 -7t-8 -3h-6q-5 0 -7.5 3t-1.5 7l13 104q0 4 -3 4h-145q-10 0 -8 10v6q2 9 4 12l138 266q4 8 12 8h8q5 0 7 -3.5t-1 -8.5l-135 -260q-1 -2 -0.5 -3.5t2.5 -1.5h121q4 0 4 4l12 98
q2 10 11 10h7q10 0 8 -10l-12 -98q0 -4 4 -4h15q9 0 9 -10z" />
    <glyph glyph-name="questiondown" unicode="&#xbf;" horiz-adv-x="366" 
d="M265 485q10 -10 10 -26q0 -21 -13.5 -35t-32.5 -14q-16 0 -26.5 10.5t-10.5 26.5q0 20 13.5 34t33.5 14q16 0 26 -10zM232 303l-9 -74q-5 -39 -24.5 -64.5t-57.5 -58.5q-43 -37 -66 -68.5t-29 -83.5q-2 -18 -2 -25q0 -50 26.5 -80t71.5 -30q51 0 87.5 37t43.5 97l4 38
q2 10 11 10h10q10 0 8 -10l-4 -38q-9 -73 -54 -117.5t-110 -44.5q-57 0 -90 36.5t-33 99.5q0 9 2 29q6 44 21.5 76t35 53t49.5 47q33 28 49.5 48.5t19.5 49.5l9 73q2 10 11 10h12q10 0 8 -10z" />
    <glyph glyph-name="Agrave" unicode="&#xc0;" horiz-adv-x="454" 
d="M381 8l-20 141q-1 3 -5 3h-261q-4 0 -5 -3l-54 -140q-4 -9 -12 -9h-8q-5 0 -7.5 3t-0.5 8l266 681q3 8 12 8h13q10 0 10 -8l102 -681v-2q0 -4 -3 -6.5t-7 -2.5h-10q-8 0 -10 8zM104 180.5q1 -1.5 3 -1.5h245q2 0 3.5 1.5t0.5 2.5l-67 465q-2 5 -5 0l-180 -465
q-1 -1 0 -2.5zM313 775q0 -7 -8 -7h-6q-7 0 -11 7l-49 112q-1 2 -1 5q0 7 9 7h8q7 0 11 -7l46 -112q1 -2 1 -5z" />
    <glyph glyph-name="Aacute" unicode="&#xc1;" horiz-adv-x="454" 
d="M381 8l-20 141q-1 3 -5 3h-261q-4 0 -5 -3l-54 -140q-4 -9 -12 -9h-8q-5 0 -7.5 3t-0.5 8l266 681q3 8 12 8h13q10 0 10 -8l102 -681v-2q0 -4 -3 -6.5t-7 -2.5h-10q-8 0 -10 8zM104 180.5q1 -1.5 3 -1.5h245q2 0 3.5 1.5t0.5 2.5l-67 465q-2 5 -5 0l-180 -465
q-1 -1 0 -2.5zM274.5 771.5q-1.5 3.5 1.5 8.5l74 112q5 7 13 7h8q6 0 8 -3.5t-2 -8.5l-77 -112q-5 -7 -12 -7h-6q-6 0 -7.5 3.5z" />
    <glyph glyph-name="Acircumflex" unicode="&#xc2;" horiz-adv-x="454" 
d="M381 8l-20 141q-1 3 -5 3h-261q-4 0 -5 -3l-54 -140q-4 -9 -12 -9h-8q-5 0 -7.5 3t-0.5 8l266 681q3 8 12 8h13q10 0 10 -8l102 -681v-2q0 -4 -3 -6.5t-7 -2.5h-10q-8 0 -10 8zM104 180.5q1 -1.5 3 -1.5h245q2 0 3.5 1.5t0.5 2.5l-67 465q-2 5 -5 0l-180 -465
q-1 -1 0 -2.5zM208.5 781q-1.5 4 3.5 8l84 104q5 6 13 6h15q9 0 11 -6l60 -104l2 -5q0 -7 -9 -7h-12q-7 0 -11 6l-48 87q-1 2 -3 2t-3 -2l-72 -87q-4 -6 -12 -6h-11q-6 0 -7.5 4z" />
    <glyph glyph-name="Atilde" unicode="&#xc3;" horiz-adv-x="454" 
d="M381 8l-20 141q-1 3 -5 3h-261q-4 0 -5 -3l-54 -140q-4 -9 -12 -9h-8q-5 0 -7.5 3t-0.5 8l266 681q3 8 12 8h13q10 0 10 -8l102 -681v-2q0 -4 -3 -6.5t-7 -2.5h-10q-8 0 -10 8zM104 180.5q1 -1.5 3 -1.5h245q2 0 3.5 1.5t0.5 2.5l-67 465q-2 5 -5 0l-180 -465
q-1 -1 0 -2.5zM339.5 826.5q-11.5 6.5 -24.5 17.5t-22 16t-22 5q-16 0 -27.5 -5.5t-26.5 -22.5q-6 -8 -14 -2l-2 2q-4 3 -4 6q0 4 3 8q33 41 74 41q15 0 26 -5.5t27 -17.5q15 -12 24 -17t20 -5q29 0 53 31q3 4 7 5t7 -1l4 -2q3 -1 3 -6t-6 -14q-16 -20 -36 -30t-37 -10
q-15 0 -26.5 6.5z" />
    <glyph glyph-name="Adieresis" unicode="&#xc4;" horiz-adv-x="454" 
d="M381 8l-20 141q-1 3 -5 3h-261q-4 0 -5 -3l-54 -140q-4 -9 -12 -9h-8q-5 0 -7.5 3t-0.5 8l266 681q3 8 12 8h13q10 0 10 -8l102 -681v-2q0 -4 -3 -6.5t-7 -2.5h-10q-8 0 -10 8zM104 180.5q1 -1.5 3 -1.5h245q2 0 3.5 1.5t0.5 2.5l-67 465q-2 5 -5 0l-180 -465
q-1 -1 0 -2.5zM349 822q-10 10 -10 27q0 20 13.5 34t33.5 14q18 0 28.5 -12t8.5 -30q-3 -19 -16 -31t-31 -12q-17 0 -27 10zM211 822q-10 10 -10 27q0 20 13.5 34t33.5 14q18 0 28.5 -12t8.5 -30q-3 -19 -16 -31t-31 -12q-17 0 -27 10z" />
    <glyph glyph-name="Aring" unicode="&#xc5;" horiz-adv-x="454" 
d="M381 8l-20 141q-1 3 -5 3h-261q-4 0 -5 -3l-54 -140q-4 -9 -12 -9h-8q-5 0 -7.5 3t-0.5 8l266 681q3 8 12 8h13q10 0 10 -8l102 -681v-2q0 -4 -3 -6.5t-7 -2.5h-10q-8 0 -10 8zM104 180.5q1 -1.5 3 -1.5h245q2 0 3.5 1.5t0.5 2.5l-67 465q-2 5 -5 0l-180 -465
q-1 -1 0 -2.5zM244 811.5q-24 24.5 -24 61.5q0 30 15 55.5t40 41t53 15.5q37 0 61 -24.5t24 -61.5q0 -30 -15.5 -55.5t-40.5 -41t-53 -15.5q-36 0 -60 24.5zM364 836.5q25 24.5 25 58.5q0 28 -18.5 46.5t-45.5 18.5q-32 0 -56.5 -24.5t-24.5 -59.5q0 -28 18 -46t45 -18
q32 0 57 24.5z" />
    <glyph glyph-name="AE" unicode="&#xc6;" horiz-adv-x="759" 
d="M755 672h-289q-3 0 -5 -4l-37 -300q0 -4 4 -4h196q10 0 8 -10l-1 -7q0 -4 -3 -7t-8 -3h-195q-2 0 -3.5 -1t-1.5 -3l-37 -301q0 -4 4 -4h289q4 0 6.5 -3t1.5 -7l-1 -8q-2 -10 -11 -10h-312q-9 0 -9 10l17 138q1 1 0 2.5t-3 1.5h-236q-2 0 -4 -3l-85 -142q-4 -7 -13 -7h-11
q-5 0 -6.5 3.5t1.5 8.5l409 681q3 7 12 7h326q9 0 9 -10l-1 -8q-2 -10 -11 -10zM147 179h221q3 0 5 4l57 469q1 3 -1 3t-4 -2l-280 -469q-3 -5 2 -5z" />
    <glyph glyph-name="Ccedilla" unicode="&#xc7;" horiz-adv-x="505" 
d="M478 508q-3 -3 -8 -3h-9q-10 0 -9 9l2 13q1 8 1 23q0 59 -36.5 94.5t-98.5 35.5q-68 0 -115.5 -42t-55.5 -111l-43 -353q-2 -18 -2 -25q0 -59 36.5 -94.5t98.5 -35.5q68 0 115.5 42.5t55.5 112.5l2 11q0 4 3 7t8 3l9 -1q9 0 9 -10l-1 -9q-10 -82 -66.5 -132.5
t-137.5 -50.5q-4 0 -1 -5q37 -37 37 -82q0 -15 -5 -33q-10 -31 -32 -45t-49 -14q-12 0 -24 3q-9 1 -7 12l2 4q4 10 13 7q12 -2 18 -2q42 0 54 43q3 12 3 23q0 47 -43 90q-1 2 -4 2q-57 10 -90 50.5t-33 101.5q0 9 2 29l43 349q10 83 66 133t138 50q74 0 117.5 -41.5
t43.5 -112.5q0 -10 -2 -28l-2 -11q0 -4 -3 -7z" />
    <glyph glyph-name="Egrave" unicode="&#xc8;" horiz-adv-x="505" 
d="M509 675q-3 -3 -7 -3h-308q-4 0 -4 -4l-37 -300q0 -4 3 -4h214q4 0 6.5 -3t1.5 -7l-1 -7q0 -4 -3 -7t-8 -3h-213q-4 0 -4 -4l-37 -301q-1 -1 0 -2.5t3 -1.5h307q5 0 7.5 -3t1.5 -7l-1 -8q-2 -10 -11 -10h-331q-10 0 -8 10l83 680q2 10 11 10h331q10 0 8 -10l-1 -8
q0 -4 -3 -7zM356 775q0 -7 -8 -7h-6q-7 0 -11 7l-49 112q-1 2 -1 5q0 7 9 7h8q7 0 11 -7l46 -112q1 -2 1 -5z" />
    <glyph glyph-name="Eacute" unicode="&#xc9;" horiz-adv-x="505" 
d="M509 675q-3 -3 -7 -3h-308q-4 0 -4 -4l-37 -300q0 -4 3 -4h214q4 0 6.5 -3t1.5 -7l-1 -7q0 -4 -3 -7t-8 -3h-213q-4 0 -4 -4l-37 -301q-1 -1 0 -2.5t3 -1.5h307q5 0 7.5 -3t1.5 -7l-1 -8q-2 -10 -11 -10h-331q-10 0 -8 10l83 680q2 10 11 10h331q10 0 8 -10l-1 -8
q0 -4 -3 -7zM318.5 771.5q-1.5 3.5 1.5 8.5l74 112q5 7 13 7h8q6 0 8 -3.5t-2 -8.5l-77 -112q-5 -7 -12 -7h-6q-6 0 -7.5 3.5z" />
    <glyph glyph-name="Ecircumflex" unicode="&#xca;" horiz-adv-x="505" 
d="M509 675q-3 -3 -7 -3h-308q-4 0 -4 -4l-37 -300q0 -4 3 -4h214q4 0 6.5 -3t1.5 -7l-1 -7q0 -4 -3 -7t-8 -3h-213q-4 0 -4 -4l-37 -301q-1 -1 0 -2.5t3 -1.5h307q5 0 7.5 -3t1.5 -7l-1 -8q-2 -10 -11 -10h-331q-10 0 -8 10l83 680q2 10 11 10h331q10 0 8 -10l-1 -8
q0 -4 -3 -7zM252.5 781q-1.5 4 3.5 8l84 104q5 6 13 6h15q9 0 11 -6l60 -104l2 -5q0 -7 -9 -7h-12q-7 0 -11 6l-48 87q-1 2 -3 2t-3 -2l-72 -87q-4 -6 -12 -6h-11q-6 0 -7.5 4z" />
    <glyph glyph-name="Edieresis" unicode="&#xcb;" horiz-adv-x="505" 
d="M509 675q-3 -3 -7 -3h-308q-4 0 -4 -4l-37 -300q0 -4 3 -4h214q4 0 6.5 -3t1.5 -7l-1 -7q0 -4 -3 -7t-8 -3h-213q-4 0 -4 -4l-37 -301q-1 -1 0 -2.5t3 -1.5h307q5 0 7.5 -3t1.5 -7l-1 -8q-2 -10 -11 -10h-331q-10 0 -8 10l83 680q2 10 11 10h331q10 0 8 -10l-1 -8
q0 -4 -3 -7zM393 822q-10 10 -10 27q0 20 13.5 34t33.5 14q18 0 28.5 -12t8.5 -30q-3 -19 -16 -31t-31 -12q-17 0 -27 10zM255 822q-10 10 -10 27q0 20 13.5 34t33.5 14q18 0 28.5 -12t8.5 -30q-3 -19 -16 -31t-31 -12q-17 0 -27 10z" />
    <glyph glyph-name="Igrave" unicode="&#xcc;" horiz-adv-x="224" 
d="M80 10l83 680q2 10 11 10h10q10 0 8 -10l-83 -680q-2 -10 -11 -10h-10q-10 0 -8 10zM198 775q0 -7 -8 -7h-6q-7 0 -11 7l-49 112q-1 2 -1 5q0 7 9 7h8q7 0 11 -7l46 -112q1 -2 1 -5z" />
    <glyph glyph-name="Iacute" unicode="&#xcd;" horiz-adv-x="224" 
d="M80 10l83 680q2 10 11 10h10q10 0 8 -10l-83 -680q-2 -10 -11 -10h-10q-10 0 -8 10zM160.5 771.5q-1.5 3.5 1.5 8.5l74 112q5 7 13 7h8q6 0 8 -3.5t-2 -8.5l-77 -112q-5 -7 -12 -7h-6q-6 0 -7.5 3.5z" />
    <glyph glyph-name="Icircumflex" unicode="&#xce;" horiz-adv-x="224" 
d="M80 10l83 680q2 10 11 10h10q10 0 8 -10l-83 -680q-2 -10 -11 -10h-10q-10 0 -8 10zM94.5 781q-1.5 4 3.5 8l84 104q5 6 13 6h15q9 0 11 -6l60 -104l2 -5q0 -7 -9 -7h-12q-7 0 -11 6l-48 87q-1 2 -3 2t-3 -2l-72 -87q-4 -6 -12 -6h-11q-6 0 -7.5 4z" />
    <glyph glyph-name="Idieresis" unicode="&#xcf;" horiz-adv-x="224" 
d="M80 10l83 680q2 10 11 10h10q10 0 8 -10l-83 -680q-2 -10 -11 -10h-10q-10 0 -8 10zM235 822q-10 10 -10 27q0 20 13.5 34t33.5 14q18 0 28.5 -12t8.5 -30q-3 -19 -16 -31t-31 -12q-17 0 -27 10zM97 822q-10 10 -10 27q0 20 13.5 34t33.5 14q18 0 28.5 -12t8.5 -30
q-3 -19 -16 -31t-31 -12q-17 0 -27 10z" />
    <glyph glyph-name="Eth" unicode="&#xd0;" horiz-adv-x="583" 
d="M518.5 660.5q38.5 -39.5 38.5 -108.5q0 -10 -2 -34l-41 -336q-10 -85 -61 -133.5t-128 -48.5h-177q-4 0 -6.5 3t-1.5 7l42 339q0 4 -4 4h-46q-5 0 -7.5 3t-1.5 7l1 6q2 10 11 10h46q3 0 5 4l37 307q1 4 4 7t7 3h177q69 0 107.5 -39.5zM526 517q2 20 2 30q0 59 -31.5 92
t-88.5 33h-154q-4 0 -4 -4l-35 -285q0 -4 3 -4h114q10 0 8 -10l-1 -6q0 -4 -3 -7t-7 -3h-114q-4 0 -4 -4l-39 -317q-1 -1 0 -2.5t3 -1.5h154q64 0 105.5 41t50.5 113z" />
    <glyph glyph-name="Ntilde" unicode="&#xd1;" horiz-adv-x="565" 
d="M507 697q3 3 8 3h9q5 0 7.5 -3t1.5 -7l-84 -680q0 -4 -3 -7t-8 -3h-12q-10 0 -11 7l-226 621q-2 2 -3.5 1.5t-1.5 -3.5l-75 -616q-2 -10 -11 -10h-10q-10 0 -8 10l83 680q2 10 11 10h12q8 0 11 -7l226 -621q2 -2 3.5 -1.5t1.5 3.5l76 616q0 4 3 7zM396.5 831.5
q-11.5 6.5 -24.5 17.5t-22 16t-22 5q-16 0 -27.5 -5.5t-26.5 -22.5q-6 -8 -14 -2l-2 2q-4 3 -4 6q0 4 3 8q33 41 74 41q15 0 26 -5.5t27 -17.5q15 -12 24 -17t20 -5q29 0 53 31q3 4 7 5t7 -1l4 -2q3 -1 3 -6t-6 -14q-16 -20 -36 -30t-37 -10q-15 0 -26.5 6.5z" />
    <glyph glyph-name="Ograve" unicode="&#xd2;" horiz-adv-x="518" 
d="M120 36q-44 44 -44 116q0 10 2 30l41 335q10 85 67.5 138t139.5 53q74 0 118.5 -44t44.5 -117q0 -10 -2 -30l-41 -335q-10 -85 -68 -137.5t-140 -52.5q-74 0 -118 44zM359.5 64.5q48.5 44.5 57.5 116.5l41 337q2 18 2 26q0 62 -37.5 99t-100.5 37q-69 0 -117 -44.5
t-57 -117.5l-41 -337q-2 -18 -2 -26q0 -61 37 -98t99 -37q70 0 118.5 44.5zM344 775q0 -7 -8 -7h-6q-7 0 -11 7l-49 112q-1 2 -1 5q0 7 9 7h8q7 0 11 -7l46 -112q1 -2 1 -5z" />
    <glyph glyph-name="Oacute" unicode="&#xd3;" horiz-adv-x="518" 
d="M120 36q-44 44 -44 116q0 10 2 30l41 335q10 85 67.5 138t139.5 53q74 0 118.5 -44t44.5 -117q0 -10 -2 -30l-41 -335q-10 -85 -68 -137.5t-140 -52.5q-74 0 -118 44zM359.5 64.5q48.5 44.5 57.5 116.5l41 337q2 18 2 26q0 62 -37.5 99t-100.5 37q-69 0 -117 -44.5
t-57 -117.5l-41 -337q-2 -18 -2 -26q0 -61 37 -98t99 -37q70 0 118.5 44.5zM306.5 771.5q-1.5 3.5 1.5 8.5l74 112q5 7 13 7h8q6 0 8 -3.5t-2 -8.5l-77 -112q-5 -7 -12 -7h-6q-6 0 -7.5 3.5z" />
    <glyph glyph-name="Ocircumflex" unicode="&#xd4;" horiz-adv-x="518" 
d="M120 36q-44 44 -44 116q0 10 2 30l41 335q10 85 67.5 138t139.5 53q74 0 118.5 -44t44.5 -117q0 -10 -2 -30l-41 -335q-10 -85 -68 -137.5t-140 -52.5q-74 0 -118 44zM359.5 64.5q48.5 44.5 57.5 116.5l41 337q2 18 2 26q0 62 -37.5 99t-100.5 37q-69 0 -117 -44.5
t-57 -117.5l-41 -337q-2 -18 -2 -26q0 -61 37 -98t99 -37q70 0 118.5 44.5zM240.5 781q-1.5 4 3.5 8l84 104q5 6 13 6h15q9 0 11 -6l60 -104l2 -5q0 -7 -9 -7h-12q-7 0 -11 6l-48 87q-1 2 -3 2t-3 -2l-72 -87q-4 -6 -12 -6h-11q-6 0 -7.5 4z" />
    <glyph glyph-name="Otilde" unicode="&#xd5;" horiz-adv-x="518" 
d="M120 36q-44 44 -44 116q0 10 2 30l41 335q10 85 67.5 138t139.5 53q74 0 118.5 -44t44.5 -117q0 -10 -2 -30l-41 -335q-10 -85 -68 -137.5t-140 -52.5q-74 0 -118 44zM359.5 64.5q48.5 44.5 57.5 116.5l41 337q2 18 2 26q0 62 -37.5 99t-100.5 37q-69 0 -117 -44.5
t-57 -117.5l-41 -337q-2 -18 -2 -26q0 -61 37 -98t99 -37q70 0 118.5 44.5zM371.5 826.5q-11.5 6.5 -24.5 17.5t-22 16t-22 5q-16 0 -27.5 -5.5t-26.5 -22.5q-6 -8 -14 -2l-2 2q-4 3 -4 6q0 4 3 8q33 41 74 41q15 0 26 -5.5t27 -17.5q15 -12 24 -17t20 -5q29 0 53 31
q3 4 7 5t7 -1l4 -2q3 -1 3 -6t-6 -14q-16 -20 -36 -30t-37 -10q-15 0 -26.5 6.5z" />
    <glyph glyph-name="Odieresis" unicode="&#xd6;" horiz-adv-x="518" 
d="M120 36q-44 44 -44 116q0 10 2 30l41 335q10 85 67.5 138t139.5 53q74 0 118.5 -44t44.5 -117q0 -10 -2 -30l-41 -335q-10 -85 -68 -137.5t-140 -52.5q-74 0 -118 44zM359.5 64.5q48.5 44.5 57.5 116.5l41 337q2 18 2 26q0 62 -37.5 99t-100.5 37q-69 0 -117 -44.5
t-57 -117.5l-41 -337q-2 -18 -2 -26q0 -61 37 -98t99 -37q70 0 118.5 44.5zM381 822q-10 10 -10 27q0 20 13.5 34t33.5 14q18 0 28.5 -12t8.5 -30q-3 -19 -16 -31t-31 -12q-17 0 -27 10zM243 822q-10 10 -10 27q0 20 13.5 34t33.5 14q18 0 28.5 -12t8.5 -30q-3 -19 -16 -31
t-31 -12q-17 0 -27 10z" />
    <glyph glyph-name="multiply" unicode="&#xd7;" horiz-adv-x="369" 
d="M362 448q0 -4 -4 -8l-131 -120q-4 -3 -1 -6l100 -119q2 -4 2 -5q0 -5 -4 -9l-4 -4q-4 -3 -8 -3t-6 3l-101 118q-3 3 -6 0l-131 -120q-3 -3 -7 -3t-7 3l-3 5q-2 4 -2 6q0 4 4 8l131 120q3 3 1 6l-104 121q-2 4 -2 5q0 3 4 9l4 4q4 4 8 4t6 -3l103 -122q3 -3 6 0l131 120
q9 7 14 0l4 -4q3 -3 3 -6z" />
    <glyph glyph-name="Oslash" unicode="&#xd8;" horiz-adv-x="523" 
d="M515 697l-42 -66q-1 -2 -0.5 -3.5t0.5 -2.5q16 -35 16 -77q0 -9 -2 -31l-41 -335q-11 -85 -68.5 -137.5t-139.5 -52.5t-126 52q-3 4 -5 -1l-35 -56q-7 -10 -14 -4l-6 4q-4 2 -4.5 6t2.5 8l43 67q1 2 0.5 3.5t-0.5 2.5q-17 36 -17 78q0 10 2 30l41 335q10 85 67.5 138
t139.5 53q41 0 73.5 -13.5t53.5 -38.5q3 -5 5 0l35 56q5 8 14 3l6 -4q8 -6 2 -14zM105 153q0 -24 6 -44q1 -3 3 -3t3 2l319 513q2 4 1 6q-17 25 -47 39t-68 14q-69 0 -117 -44.5t-57 -117.5l-41 -337q-2 -20 -2 -28zM460 546q0 25 -6 44q-1 3 -3 3t-3 -2l-319 -513
q-2 -4 -1 -6q17 -25 46.5 -38.5t66.5 -13.5q70 0 118.5 44.5t57.5 116.5l41 337q2 20 2 28z" />
    <glyph glyph-name="Ugrave" unicode="&#xd9;" horiz-adv-x="550" 
d="M135.5 37.5q-43.5 45.5 -43.5 122.5q0 10 2 32l62 498q0 4 3 7t7 3h10q9 0 9 -10l-62 -502q-2 -18 -2 -27q0 -64 37 -102.5t100 -38.5q70 0 118.5 46.5t57.5 121.5l62 502q2 10 11 10h10q4 0 6.5 -3t1.5 -7l-61 -498q-11 -90 -69 -145t-141 -55q-75 0 -118.5 45.5z
M360 775q0 -7 -8 -7h-6q-7 0 -11 7l-49 112q-1 2 -1 5q0 7 9 7h8q7 0 11 -7l46 -112q1 -2 1 -5z" />
    <glyph glyph-name="Uacute" unicode="&#xda;" horiz-adv-x="550" 
d="M135.5 37.5q-43.5 45.5 -43.5 122.5q0 10 2 32l62 498q0 4 3 7t7 3h10q9 0 9 -10l-62 -502q-2 -18 -2 -27q0 -64 37 -102.5t100 -38.5q70 0 118.5 46.5t57.5 121.5l62 502q2 10 11 10h10q4 0 6.5 -3t1.5 -7l-61 -498q-11 -90 -69 -145t-141 -55q-75 0 -118.5 45.5z
M322.5 771.5q-1.5 3.5 1.5 8.5l74 112q5 7 13 7h8q6 0 8 -3.5t-2 -8.5l-77 -112q-5 -7 -12 -7h-6q-6 0 -7.5 3.5z" />
    <glyph glyph-name="Ucircumflex" unicode="&#xdb;" horiz-adv-x="550" 
d="M135.5 37.5q-43.5 45.5 -43.5 122.5q0 10 2 32l62 498q0 4 3 7t7 3h10q9 0 9 -10l-62 -502q-2 -18 -2 -27q0 -64 37 -102.5t100 -38.5q70 0 118.5 46.5t57.5 121.5l62 502q2 10 11 10h10q4 0 6.5 -3t1.5 -7l-61 -498q-11 -90 -69 -145t-141 -55q-75 0 -118.5 45.5z
M256.5 781q-1.5 4 3.5 8l84 104q5 6 13 6h15q9 0 11 -6l60 -104l2 -5q0 -7 -9 -7h-12q-7 0 -11 6l-48 87q-1 2 -3 2t-3 -2l-72 -87q-4 -6 -12 -6h-11q-6 0 -7.5 4z" />
    <glyph glyph-name="Udieresis" unicode="&#xdc;" horiz-adv-x="550" 
d="M135.5 37.5q-43.5 45.5 -43.5 122.5q0 10 2 32l62 498q0 4 3 7t7 3h10q9 0 9 -10l-62 -502q-2 -18 -2 -27q0 -64 37 -102.5t100 -38.5q70 0 118.5 46.5t57.5 121.5l62 502q2 10 11 10h10q4 0 6.5 -3t1.5 -7l-61 -498q-11 -90 -69 -145t-141 -55q-75 0 -118.5 45.5z
M397 822q-10 10 -10 27q0 20 13.5 34t33.5 14q18 0 28.5 -12t8.5 -30q-3 -19 -16 -31t-31 -12q-17 0 -27 10zM259 822q-10 10 -10 27q0 20 13.5 34t33.5 14q18 0 28.5 -12t8.5 -30q-3 -19 -16 -31t-31 -12q-17 0 -27 10z" />
    <glyph glyph-name="Yacute" unicode="&#xdd;" horiz-adv-x="452" 
d="M193 10l40 322q0 4 -1 5l-123 351l-1 4q0 8 9 8h10q9 0 10 -7l112 -324q1 -2 3 -2t3 2l191 324q3 7 12 7h10q5 0 6.5 -3.5t-1.5 -8.5l-209 -351q-2 -1 -2 -5l-40 -322q0 -4 -3 -7t-8 -3h-9q-9 0 -9 10zM274.5 771.5q-1.5 3.5 1.5 8.5l74 112q5 7 13 7h8q6 0 8 -3.5
t-2 -8.5l-77 -112q-5 -7 -12 -7h-6q-6 0 -7.5 3.5z" />
    <glyph glyph-name="Thorn" unicode="&#xde;" horiz-adv-x="479" 
d="M427 493q37 -41 37 -110q0 -9 -2 -33q-10 -82 -59.5 -132t-121.5 -50h-154q-4 0 -4 -4l-19 -154q-2 -10 -11 -10h-10q-4 0 -6.5 3t-1.5 7l83 680q1 4 4 7t7 3h10q9 0 9 -10l-19 -152q0 -4 3 -4h154q64 0 101 -41zM383 237.5q41 42.5 50 112.5q2 20 2 28q0 59 -30.5 93.5
t-83.5 34.5h-152q-3 0 -5 -4l-37 -303q0 -4 4 -4h152q59 0 100 42.5z" />
    <glyph glyph-name="germandbls" unicode="&#xdf;" horiz-adv-x="465" 
d="M64 10l64 515q11 86 58 135t117 49q65 0 101 -39.5t36 -109.5q0 -9 -2 -31q-6 -60 -32.5 -101.5t-67.5 -57.5q-2 -1 -2 -2t2 -2q32 -16 49 -52t17 -87q0 -11 -2 -37q-11 -89 -62 -139.5t-132 -50.5h-59q-4 0 -6.5 3t-1.5 7l1 7q2 10 11 10h59q68 1 109.5 43t51.5 121
q2 13 2 37q0 60 -26.5 93t-77.5 34h-54q-10 0 -8 10l1 7q0 4 3 7t8 3h54q64 0 100 46t36 129q0 60 -29 92.5t-82 32.5q-57 0 -95 -41t-48 -115l-64 -516q0 -4 -3 -7t-8 -3h-9q-9 0 -9 10z" />
    <glyph glyph-name="agrave" unicode="&#xe0;" 
d="M398 501h10q10 0 8 -10l-59 -481q-2 -10 -11 -10h-9q-5 0 -7.5 3t-1.5 7l7 54q0 3 -1.5 3t-3.5 -2q-22 -34 -56 -53.5t-75 -19.5q-61 0 -96.5 37.5t-35.5 98.5q0 34 11 122q12 88 19 121q14 61 59 99.5t107 38.5q41 0 70 -19.5t43 -53.5q1 -2 2.5 -2t2.5 3l6 54
q2 10 11 10zM358 250q8 71 11 114q2 51 -26 84t-79 33q-52 0 -90.5 -33t-49.5 -84q-5 -29 -16 -113l-3 -30q-6 -48 -9 -84q-2 -51 28.5 -84t82.5 -33q51 0 87.5 33t46.5 84q9 53 17 113zM278 576q0 -7 -8 -7h-6q-7 0 -11 7l-49 112q-1 2 -1 5q0 7 9 7h8q7 0 11 -7l46 -112
q1 -2 1 -5z" />
    <glyph glyph-name="aacute" unicode="&#xe1;" 
d="M398 501h10q10 0 8 -10l-59 -481q-2 -10 -11 -10h-9q-5 0 -7.5 3t-1.5 7l7 54q0 3 -1.5 3t-3.5 -2q-22 -34 -56 -53.5t-75 -19.5q-61 0 -96.5 37.5t-35.5 98.5q0 34 11 122q12 88 19 121q14 61 59 99.5t107 38.5q41 0 70 -19.5t43 -53.5q1 -2 2.5 -2t2.5 3l6 54
q2 10 11 10zM358 250q8 71 11 114q2 51 -26 84t-79 33q-52 0 -90.5 -33t-49.5 -84q-5 -29 -16 -113l-3 -30q-6 -48 -9 -84q-2 -51 28.5 -84t82.5 -33q51 0 87.5 33t46.5 84q9 53 17 113zM240.5 572.5q-1.5 3.5 1.5 8.5l74 112q5 7 13 7h8q6 0 8 -3.5t-2 -8.5l-77 -112
q-5 -7 -12 -7h-6q-6 0 -7.5 3.5z" />
    <glyph glyph-name="acircumflex" unicode="&#xe2;" 
d="M398 501h10q10 0 8 -10l-59 -481q-2 -10 -11 -10h-9q-5 0 -7.5 3t-1.5 7l7 54q0 3 -1.5 3t-3.5 -2q-22 -34 -56 -53.5t-75 -19.5q-61 0 -96.5 37.5t-35.5 98.5q0 34 11 122q12 88 19 121q14 61 59 99.5t107 38.5q41 0 70 -19.5t43 -53.5q1 -2 2.5 -2t2.5 3l6 54
q2 10 11 10zM358 250q8 71 11 114q2 51 -26 84t-79 33q-52 0 -90.5 -33t-49.5 -84q-5 -29 -16 -113l-3 -30q-6 -48 -9 -84q-2 -51 28.5 -84t82.5 -33q51 0 87.5 33t46.5 84q9 53 17 113zM173.5 582q-1.5 4 3.5 8l84 104q5 6 13 6h15q9 0 11 -6l60 -104l2 -5q0 -7 -9 -7h-12
q-7 0 -11 6l-48 87q-1 2 -3 2t-3 -2l-72 -87q-4 -6 -12 -6h-11q-6 0 -7.5 4z" />
    <glyph glyph-name="atilde" unicode="&#xe3;" 
d="M398 501h10q10 0 8 -10l-59 -481q-2 -10 -11 -10h-9q-5 0 -7.5 3t-1.5 7l7 54q0 3 -1.5 3t-3.5 -2q-22 -34 -56 -53.5t-75 -19.5q-61 0 -96.5 37.5t-35.5 98.5q0 34 11 122q12 88 19 121q14 61 59 99.5t107 38.5q41 0 70 -19.5t43 -53.5q1 -2 2.5 -2t2.5 3l6 54
q2 10 11 10zM358 250q8 71 11 114q2 51 -26 84t-79 33q-52 0 -90.5 -33t-49.5 -84q-5 -29 -16 -113l-3 -30q-6 -48 -9 -84q-2 -51 28.5 -84t82.5 -33q51 0 87.5 33t46.5 84q9 53 17 113zM304.5 627.5q-11.5 6.5 -24.5 17.5t-22 16t-22 5q-16 0 -27.5 -5.5t-26.5 -22.5
q-6 -8 -14 -2l-2 2q-4 3 -4 6q0 4 3 8q33 41 74 41q15 0 26 -5.5t27 -17.5q15 -12 24 -17t20 -5q29 0 53 31q3 4 7 5t7 -1l4 -2q3 -1 3 -6t-6 -14q-16 -20 -36 -30t-37 -10q-15 0 -26.5 6.5z" />
    <glyph glyph-name="adieresis" unicode="&#xe4;" 
d="M398 501h10q10 0 8 -10l-59 -481q-2 -10 -11 -10h-9q-5 0 -7.5 3t-1.5 7l7 54q0 3 -1.5 3t-3.5 -2q-22 -34 -56 -53.5t-75 -19.5q-61 0 -96.5 37.5t-35.5 98.5q0 34 11 122q12 88 19 121q14 61 59 99.5t107 38.5q41 0 70 -19.5t43 -53.5q1 -2 2.5 -2t2.5 3l6 54
q2 10 11 10zM358 250q8 71 11 114q2 51 -26 84t-79 33q-52 0 -90.5 -33t-49.5 -84q-5 -29 -16 -113l-3 -30q-6 -48 -9 -84q-2 -51 28.5 -84t82.5 -33q51 0 87.5 33t46.5 84q9 53 17 113zM315 623q-10 10 -10 27q0 20 13.5 34t33.5 14q18 0 28.5 -12t8.5 -30q-3 -19 -16 -31
t-31 -12q-17 0 -27 10zM177 623q-10 10 -10 27q0 20 13.5 34t33.5 14q18 0 28.5 -12t8.5 -30q-3 -19 -16 -31t-31 -12q-17 0 -27 10z" />
    <glyph glyph-name="aring" unicode="&#xe5;" 
d="M398 501h10q10 0 8 -10l-59 -481q-2 -10 -11 -10h-9q-5 0 -7.5 3t-1.5 7l7 54q0 3 -1.5 3t-3.5 -2q-22 -34 -56 -53.5t-75 -19.5q-61 0 -96.5 37.5t-35.5 98.5q0 34 11 122q12 88 19 121q14 61 59 99.5t107 38.5q41 0 70 -19.5t43 -53.5q1 -2 2.5 -2t2.5 3l6 54
q2 10 11 10zM358 250q8 71 11 114q2 51 -26 84t-79 33q-52 0 -90.5 -33t-49.5 -84q-5 -29 -16 -113l-3 -30q-6 -48 -9 -84q-2 -51 28.5 -84t82.5 -33q51 0 87.5 33t46.5 84q9 53 17 113zM209 612.5q-24 24.5 -24 61.5q0 30 15 55.5t40 41t53 15.5q37 0 61 -24.5t24 -61.5
q0 -30 -15.5 -55.5t-40.5 -41t-53 -15.5q-36 0 -60 24.5zM329 637.5q25 24.5 25 58.5q0 28 -18.5 46.5t-45.5 18.5q-32 0 -56.5 -24.5t-24.5 -59.5q0 -28 18 -46t45 -18q32 0 57 24.5z" />
    <glyph glyph-name="ae" unicode="&#xe6;" horiz-adv-x="709" 
d="M83 18q-36 26 -36 85q0 88 53 131t143 43h103q3 0 5 4l7 63q2 20 2 29q0 50 -25.5 79t-78.5 29q-46 0 -82 -24t-47 -63q-3 -10 -12 -9l-9 2q-9 2 -8 11q14 50 59.5 80.5t102.5 30.5q101 0 122 -88q2 -5 5 0q22 40 61 64t86 24q61 0 98 -38t37 -98q0 -22 -2.5 -49
t-6.5 -64q-1 -4 -4 -7t-7 -3h-268q-3 0 -5 -4l-12 -105q-1 -6 -1 -19q0 -47 31.5 -74.5t80.5 -27.5q43 0 77.5 23.5t52.5 62.5l2 4q2 6 11 6h8q10 0 7 -12q-20 -50 -63.5 -81t-98.5 -31q-51 0 -85.5 24t-43.5 67q-1 2 -2 2t-2 -2q-21 -44 -67 -67.5t-99 -23.5t-89 26z
M384 277h245q4 0 4 4q2 14 8 82q2 52 -28.5 85t-82.5 33q-51 0 -88.5 -33t-48.5 -85q-4 -17 -12 -82q-1 -4 3 -4zM280.5 51q45.5 32 53.5 93l12 102q1 1 0 2.5t-3 1.5h-103q-74 0 -118.5 -35.5t-44.5 -105.5q0 -45 27.5 -67.5t72.5 -22.5q58 0 103.5 32z" />
    <glyph glyph-name="ccedilla" unicode="&#xe7;" 
d="M349 127q3 9 12 9h10q10 0 7 -11l-2 -7q-1 -1 -1 -4q-12 -48 -55.5 -83t-100.5 -39q-6 0 -2 -4q36 -36 36 -81q0 -17 -5 -35q-9 -30 -30.5 -44t-48.5 -14q-14 0 -26 3q-9 2 -5 12v1l2 4q3 7 12 6q12 -2 18 -2q42 0 54 43q3 12 3 23q0 44 -41 87q-1 2 -4 2
q-52 7 -82.5 44.5t-30.5 92.5q1 51 9 121q5 40 21 120q15 62 61.5 100t108.5 38q61 0 99.5 -35.5t39.5 -86.5v-4q1 -4 1 -12q0 -4 -3 -7t-8 -3h-8q-10 0 -10 7v10q1 43 -31 73t-83 30q-53 0 -91 -32.5t-49 -85.5q-8 -39 -18 -112l-3 -28q-7 -61 -7 -88q0 -52 29.5 -83.5
t81.5 -31.5t91.5 30.5t48.5 72.5v4z" />
    <glyph glyph-name="egrave" unicode="&#xe8;" horiz-adv-x="445" 
d="M288 44q35 24 53 64q4 8 13 7l8 -1q9 -2 6 -12q-20 -50 -64 -80t-100 -30q-62 0 -98.5 37.5t-36.5 97.5q-1 26 7 95l3 29q10 82 19 119q14 61 60.5 100t108.5 39q64 0 101 -38t37 -100q0 -21 -3.5 -53.5t-8.5 -71.5q-2 -10 -11 -10h-272q-4 0 -4 -4q-2 -24 -4 -33
q-1 -16 -3 -31.5t-3 -29.5q-2 -53 28.5 -85.5t83.5 -32.5q45 0 80 24zM173.5 449.5q-38.5 -32.5 -50.5 -85.5l-6 -41l-6 -47q0 -4 4 -4h248q4 0 5 4l3 26l5 62q1 53 -29 85.5t-82 32.5q-53 0 -91.5 -32.5zM284 576q0 -7 -8 -7h-6q-7 0 -11 7l-49 112q-1 2 -1 5q0 7 9 7h8
q7 0 11 -7l46 -112q1 -2 1 -5z" />
    <glyph glyph-name="eacute" unicode="&#xe9;" horiz-adv-x="445" 
d="M288 44q35 24 53 64q4 8 13 7l8 -1q9 -2 6 -12q-20 -50 -64 -80t-100 -30q-62 0 -98.5 37.5t-36.5 97.5q-1 26 7 95l3 29q10 82 19 119q14 61 60.5 100t108.5 39q64 0 101 -38t37 -100q0 -21 -3.5 -53.5t-8.5 -71.5q-2 -10 -11 -10h-272q-4 0 -4 -4q-2 -24 -4 -33
q-1 -16 -3 -31.5t-3 -29.5q-2 -53 28.5 -85.5t83.5 -32.5q45 0 80 24zM173.5 449.5q-38.5 -32.5 -50.5 -85.5l-6 -41l-6 -47q0 -4 4 -4h248q4 0 5 4l3 26l5 62q1 53 -29 85.5t-82 32.5q-53 0 -91.5 -32.5zM246.5 572.5q-1.5 3.5 1.5 8.5l74 112q5 7 13 7h8q6 0 8 -3.5
t-2 -8.5l-77 -112q-5 -7 -12 -7h-6q-6 0 -7.5 3.5z" />
    <glyph glyph-name="ecircumflex" unicode="&#xea;" horiz-adv-x="445" 
d="M288 44q35 24 53 64q4 8 13 7l8 -1q9 -2 6 -12q-20 -50 -64 -80t-100 -30q-62 0 -98.5 37.5t-36.5 97.5q-1 26 7 95l3 29q10 82 19 119q14 61 60.5 100t108.5 39q64 0 101 -38t37 -100q0 -21 -3.5 -53.5t-8.5 -71.5q-2 -10 -11 -10h-272q-4 0 -4 -4q-2 -24 -4 -33
q-1 -16 -3 -31.5t-3 -29.5q-2 -53 28.5 -85.5t83.5 -32.5q45 0 80 24zM173.5 449.5q-38.5 -32.5 -50.5 -85.5l-6 -41l-6 -47q0 -4 4 -4h248q4 0 5 4l3 26l5 62q1 53 -29 85.5t-82 32.5q-53 0 -91.5 -32.5zM179.5 582q-1.5 4 3.5 8l84 104q5 6 13 6h15q9 0 11 -6l60 -104
l2 -5q0 -7 -9 -7h-12q-7 0 -11 6l-48 87q-1 2 -3 2t-3 -2l-72 -87q-4 -6 -12 -6h-11q-6 0 -7.5 4z" />
    <glyph glyph-name="edieresis" unicode="&#xeb;" horiz-adv-x="445" 
d="M288 44q35 24 53 64q4 8 13 7l8 -1q9 -2 6 -12q-20 -50 -64 -80t-100 -30q-62 0 -98.5 37.5t-36.5 97.5q-1 26 7 95l3 29q10 82 19 119q14 61 60.5 100t108.5 39q64 0 101 -38t37 -100q0 -21 -3.5 -53.5t-8.5 -71.5q-2 -10 -11 -10h-272q-4 0 -4 -4q-2 -24 -4 -33
q-1 -16 -3 -31.5t-3 -29.5q-2 -53 28.5 -85.5t83.5 -32.5q45 0 80 24zM173.5 449.5q-38.5 -32.5 -50.5 -85.5l-6 -41l-6 -47q0 -4 4 -4h248q4 0 5 4l3 26l5 62q1 53 -29 85.5t-82 32.5q-53 0 -91.5 -32.5zM321 623q-10 10 -10 27q0 20 13.5 34t33.5 14q18 0 28.5 -12
t8.5 -30q-3 -19 -16 -31t-31 -12q-17 0 -27 10zM183 623q-10 10 -10 27q0 20 13.5 34t33.5 14q18 0 28.5 -12t8.5 -30q-3 -19 -16 -31t-31 -12q-17 0 -27 10z" />
    <glyph glyph-name="igrave" unicode="&#xec;" horiz-adv-x="171" 
d="M53 10l59 481q0 4 3 7t8 3h9q5 0 7.5 -3t1.5 -7l-59 -481q-2 -10 -11 -10h-10q-10 0 -8 10zM148 576q0 -7 -8 -7h-6q-7 0 -11 7l-49 112q-1 2 -1 5q0 7 9 7h8q7 0 11 -7l46 -112q1 -2 1 -5z" />
    <glyph glyph-name="iacute" unicode="&#xed;" horiz-adv-x="171" 
d="M53 10l59 481q0 4 3 7t8 3h9q5 0 7.5 -3t1.5 -7l-59 -481q-2 -10 -11 -10h-10q-10 0 -8 10zM109.5 572.5q-1.5 3.5 1.5 8.5l74 112q5 7 13 7h8q6 0 8 -3.5t-2 -8.5l-77 -112q-5 -7 -12 -7h-6q-6 0 -7.5 3.5z" />
    <glyph glyph-name="icircumflex" unicode="&#xee;" horiz-adv-x="171" 
d="M53 10l59 481q0 4 3 7t8 3h9q5 0 7.5 -3t1.5 -7l-59 -481q-2 -10 -11 -10h-10q-10 0 -8 10zM43.5 582q-1.5 4 3.5 8l84 104q5 6 13 6h15q9 0 11 -6l60 -104l2 -5q0 -7 -9 -7h-12q-7 0 -11 6l-48 87q-1 2 -3 2t-3 -2l-72 -87q-4 -6 -12 -6h-11q-6 0 -7.5 4z" />
    <glyph glyph-name="idieresis" unicode="&#xef;" horiz-adv-x="171" 
d="M53 10l59 481q0 4 3 7t8 3h9q5 0 7.5 -3t1.5 -7l-59 -481q-2 -10 -11 -10h-10q-10 0 -8 10zM184 623q-10 10 -10 27q0 20 13.5 34t33.5 14q18 0 28.5 -12t8.5 -30q-3 -19 -16 -31t-31 -12q-17 0 -27 10zM46 623q-10 10 -10 27q0 20 13.5 34t33.5 14q18 0 28.5 -12
t8.5 -30q-3 -19 -16 -31t-31 -12q-17 0 -27 10z" />
    <glyph glyph-name="eth" unicode="&#xf0;" horiz-adv-x="456" 
d="M394 290q-2 -11 -3 -21.5t-2 -19.5l-3 -22q-7 -65 -15 -97q-14 -61 -60.5 -99.5t-108.5 -38.5q-63 0 -99 38t-36 100q1 35 8 96l3 24q12 87 19 118q14 61 58.5 99t104.5 38q36 1 64 -12t45 -36q4 -4 4 1q-4 70 -47 137q0 1 -1.5 2t-2.5 0l-78 -26l-4 -1q-6 0 -8 8l-1 3
q0 9 9 12l67 22q2 1 3 3t0 3q-19 24 -59 67q-4 3 -4 6q0 6 9 6h10q7 0 10 -3q2 -1 2 -2t1 -2q36 -34 58 -64q2 -4 5 -2l75 25l4 1q5 0 7 -8l1 -3q0 -9 -8 -12l-64 -21q-4 -2 -4 -4q50 -83 50 -204q0 -13 -2 -45q-1 -16 -7 -66zM359 249q12 83 12 119q0 49 -29.5 80t-79.5 31
q-52 0 -89.5 -33t-48.5 -85q-6 -27 -16 -112l-6 -49q-6 -52 -6 -68q0 -51 29.5 -82t79.5 -31q52 0 90 33t49 85q7 39 15 112z" />
    <glyph glyph-name="ntilde" unicode="&#xf1;" horiz-adv-x="459" 
d="M229.5 660.5q-10.5 -5.5 -23.5 -21.5q-7 -9 -13 -4l-2 2h-1q-7 6 -1 14q31 42 69 42q13 0 23.5 -6t23.5 -17q2 -2 10.5 -8.5t16 -10t14.5 -3.5q13 0 24.5 6.5t24.5 24.5q2 4 6 5t8 -1v0l3 -3q6 -6 1 -13q-16 -24 -35.5 -35t-36.5 -11q-13 0 -23 6t-23 18
q-14 12 -21.5 16.5t-18.5 4.5q-15 0 -25.5 -5.5zM375 473.5q33 -34.5 33 -94.5q0 -9 -2 -31l-41 -338q-2 -10 -11 -10h-10q-4 0 -6.5 3t-1.5 7l41 334q2 16 2 24q0 52 -27.5 82t-76.5 30q-56 0 -95 -37.5t-46 -101.5l-41 -331q0 -4 -3 -7t-8 -3h-9q-9 0 -9 10l59 481
q2 10 11 10h10q10 0 8 -10l-6 -52q0 -6 4 -2q22 34 57 52.5t77 18.5q58 0 91 -34.5z" />
    <glyph glyph-name="ograve" unicode="&#xf2;" horiz-adv-x="449" 
d="M104.5 30q-36.5 38 -36.5 100q0 32 7 88l4 33q11 83 18 120q15 62 61.5 100t109.5 38q62 0 99.5 -36.5t37.5 -95.5q0 -27 -8 -105q0 -7 -2 -21q-10 -84 -19 -121q-14 -61 -61 -99.5t-110 -38.5q-64 0 -100.5 38zM299.5 52.5q38.5 32.5 50.5 85.5q2 11 11 83l3 29l5 40
q8 62 8 78q0 51 -30.5 82t-81.5 31q-53 0 -91.5 -32.5t-49.5 -85.5q-6 -31 -12 -82l-4 -31l-5 -43q-6 -58 -7 -69q-1 -53 29 -85.5t83 -32.5t91.5 32.5zM286 576q0 -7 -8 -7h-6q-7 0 -11 7l-49 112q-1 2 -1 5q0 7 9 7h8q7 0 11 -7l46 -112q1 -2 1 -5z" />
    <glyph glyph-name="oacute" unicode="&#xf3;" horiz-adv-x="449" 
d="M104.5 30q-36.5 38 -36.5 100q0 32 7 88l4 33q11 83 18 120q15 62 61.5 100t109.5 38q62 0 99.5 -36.5t37.5 -95.5q0 -27 -8 -105q0 -7 -2 -21q-10 -84 -19 -121q-14 -61 -61 -99.5t-110 -38.5q-64 0 -100.5 38zM299.5 52.5q38.5 32.5 50.5 85.5q2 11 11 83l3 29l5 40
q8 62 8 78q0 51 -30.5 82t-81.5 31q-53 0 -91.5 -32.5t-49.5 -85.5q-6 -31 -12 -82l-4 -31l-5 -43q-6 -58 -7 -69q-1 -53 29 -85.5t83 -32.5t91.5 32.5zM248.5 572.5q-1.5 3.5 1.5 8.5l74 112q5 7 13 7h8q6 0 8 -3.5t-2 -8.5l-77 -112q-5 -7 -12 -7h-6q-6 0 -7.5 3.5z" />
    <glyph glyph-name="ocircumflex" unicode="&#xf4;" horiz-adv-x="449" 
d="M104.5 30q-36.5 38 -36.5 100q0 32 7 88l4 33q11 83 18 120q15 62 61.5 100t109.5 38q62 0 99.5 -36.5t37.5 -95.5q0 -27 -8 -105q0 -7 -2 -21q-10 -84 -19 -121q-14 -61 -61 -99.5t-110 -38.5q-64 0 -100.5 38zM299.5 52.5q38.5 32.5 50.5 85.5q2 11 11 83l3 29l5 40
q8 62 8 78q0 51 -30.5 82t-81.5 31q-53 0 -91.5 -32.5t-49.5 -85.5q-6 -31 -12 -82l-4 -31l-5 -43q-6 -58 -7 -69q-1 -53 29 -85.5t83 -32.5t91.5 32.5zM181.5 582q-1.5 4 3.5 8l84 104q5 6 13 6h15q9 0 11 -6l60 -104l2 -5q0 -7 -9 -7h-12q-7 0 -11 6l-48 87q-1 2 -3 2
t-3 -2l-72 -87q-4 -6 -12 -6h-11q-6 0 -7.5 4z" />
    <glyph glyph-name="otilde" unicode="&#xf5;" horiz-adv-x="449" 
d="M104.5 30q-36.5 38 -36.5 100q0 32 7 88l4 33q11 83 18 120q15 62 61.5 100t109.5 38q62 0 99.5 -36.5t37.5 -95.5q0 -27 -8 -105q0 -7 -2 -21q-10 -84 -19 -121q-14 -61 -61 -99.5t-110 -38.5q-64 0 -100.5 38zM299.5 52.5q38.5 32.5 50.5 85.5q2 11 11 83l3 29l5 40
q8 62 8 78q0 51 -30.5 82t-81.5 31q-53 0 -91.5 -32.5t-49.5 -85.5q-6 -31 -12 -82l-4 -31l-5 -43q-6 -58 -7 -69q-1 -53 29 -85.5t83 -32.5t91.5 32.5zM312.5 627.5q-11.5 6.5 -24.5 17.5t-22 16t-22 5q-16 0 -27.5 -5.5t-26.5 -22.5q-6 -8 -14 -2l-2 2q-4 3 -4 6q0 4 3 8
q33 41 74 41q15 0 26 -5.5t27 -17.5q15 -12 24 -17t20 -5q29 0 53 31q3 4 7 5t7 -1l4 -2q3 -1 3 -6t-6 -14q-16 -20 -36 -30t-37 -10q-15 0 -26.5 6.5z" />
    <glyph glyph-name="odieresis" unicode="&#xf6;" horiz-adv-x="449" 
d="M104.5 30q-36.5 38 -36.5 100q0 32 7 88l4 33q11 83 18 120q15 62 61.5 100t109.5 38q62 0 99.5 -36.5t37.5 -95.5q0 -27 -8 -105q0 -7 -2 -21q-10 -84 -19 -121q-14 -61 -61 -99.5t-110 -38.5q-64 0 -100.5 38zM299.5 52.5q38.5 32.5 50.5 85.5q2 11 11 83l3 29l5 40
q8 62 8 78q0 51 -30.5 82t-81.5 31q-53 0 -91.5 -32.5t-49.5 -85.5q-6 -31 -12 -82l-4 -31l-5 -43q-6 -58 -7 -69q-1 -53 29 -85.5t83 -32.5t91.5 32.5zM323 623q-10 10 -10 27q0 20 13.5 34t33.5 14q18 0 28.5 -12t8.5 -30q-3 -19 -16 -31t-31 -12q-17 0 -27 10zM185 623
q-10 10 -10 27q0 20 13.5 34t33.5 14q18 0 28.5 -12t8.5 -30q-3 -19 -16 -31t-31 -12q-17 0 -27 10z" />
    <glyph glyph-name="divide" unicode="&#xf7;" horiz-adv-x="462" 
d="M239 454.5q-10 10.5 -10 26.5q0 19 14 33.5t32 14.5q16 0 27 -10.5t11 -26.5q0 -19 -15 -33.5t-33 -14.5q-16 0 -26 10.5zM62.5 323q-2.5 3 -1.5 7l1 7q0 4 3 7t8 3h362q5 0 7.5 -3t1.5 -7l-1 -7q-2 -10 -11 -10h-363q-4 0 -6.5 3zM202.5 160q-10.5 11 -10.5 27
q0 19 14.5 33t32.5 14q16 0 27 -10.5t11 -26.5q0 -19 -15 -33.5t-33 -14.5q-16 0 -26.5 11z" />
    <glyph glyph-name="oslash" unicode="&#xf8;" horiz-adv-x="449" 
d="M402 325.5q-3 -29.5 -4 -42.5q-2 -10 -4 -32l-3 -21q-7 -65 -15 -100q-14 -61 -61.5 -99.5t-110.5 -38.5q-55 0 -94 31q-1 1 -2 1t-2 -2l-29 -46q-7 -9 -14 -4l-7 4q-3 2 -3.5 6t1.5 8l34 54q1 2 1 6q-22 35 -22 80q1 36 8 97l3 24q11 84 19 120q15 62 61.5 100t108.5 38
q55 0 91 -28q3 -3 5 1l31 50q3 4 7 5t7 -1l7 -4q3 -2 3.5 -6t-1.5 -8l-35 -57q-3 -3 -1 -5q24 -35 24 -80q0 -21 -3 -50.5zM106 81q3 -4 6 0l230 368q3 4 0 5q-32 27 -78 27q-53 0 -91 -32.5t-49 -85.5q-3 -16 -14 -93l-3 -20q-2 -22 -4 -33q-6 -66 -7 -79q0 -34 10 -57z
M364 250l4 32q8 70 8 87q0 29 -12 56q-1 2 -3 2t-3 -2l-231 -369q-2 -3 0 -5q29 -31 80 -31q53 0 92 32.5t50 85.5q6 35 15 112z" />
    <glyph glyph-name="ugrave" unicode="&#xf9;" horiz-adv-x="458" 
d="M398 501h10q10 0 8 -10l-59 -481q-2 -10 -11 -10h-9q-5 0 -7.5 3t-1.5 7l6 48q1 3 -1 3.5t-3 -2.5q-22 -32 -56 -49t-75 -17q-59 0 -93.5 33t-34.5 94q0 8 2 28l43 343q0 4 3 7t8 3h9q9 0 9 -10l-42 -337q-1 -9 -1 -24q0 -52 27.5 -80.5t75.5 -28.5q57 0 95.5 37.5
t46.5 101.5l40 331q2 10 11 10zM289 576q0 -7 -8 -7h-6q-7 0 -11 7l-49 112q-1 2 -1 5q0 7 9 7h8q7 0 11 -7l46 -112q1 -2 1 -5z" />
    <glyph glyph-name="uacute" unicode="&#xfa;" horiz-adv-x="458" 
d="M398 501h10q10 0 8 -10l-59 -481q-2 -10 -11 -10h-9q-5 0 -7.5 3t-1.5 7l6 48q1 3 -1 3.5t-3 -2.5q-22 -32 -56 -49t-75 -17q-59 0 -93.5 33t-34.5 94q0 8 2 28l43 343q0 4 3 7t8 3h9q9 0 9 -10l-42 -337q-1 -9 -1 -24q0 -52 27.5 -80.5t75.5 -28.5q57 0 95.5 37.5
t46.5 101.5l40 331q2 10 11 10zM251.5 572.5q-1.5 3.5 1.5 8.5l74 112q5 7 13 7h8q6 0 8 -3.5t-2 -8.5l-77 -112q-5 -7 -12 -7h-6q-6 0 -7.5 3.5z" />
    <glyph glyph-name="ucircumflex" unicode="&#xfb;" horiz-adv-x="458" 
d="M398 501h10q10 0 8 -10l-59 -481q-2 -10 -11 -10h-9q-5 0 -7.5 3t-1.5 7l6 48q1 3 -1 3.5t-3 -2.5q-22 -32 -56 -49t-75 -17q-59 0 -93.5 33t-34.5 94q0 8 2 28l43 343q0 4 3 7t8 3h9q9 0 9 -10l-42 -337q-1 -9 -1 -24q0 -52 27.5 -80.5t75.5 -28.5q57 0 95.5 37.5
t46.5 101.5l40 331q2 10 11 10zM184.5 582q-1.5 4 3.5 8l84 104q5 6 13 6h15q9 0 11 -6l60 -104l2 -5q0 -7 -9 -7h-12q-7 0 -11 6l-48 87q-1 2 -3 2t-3 -2l-72 -87q-4 -6 -12 -6h-11q-6 0 -7.5 4z" />
    <glyph glyph-name="udieresis" unicode="&#xfc;" horiz-adv-x="458" 
d="M398 501h10q10 0 8 -10l-59 -481q-2 -10 -11 -10h-9q-5 0 -7.5 3t-1.5 7l6 48q1 3 -1 3.5t-3 -2.5q-22 -32 -56 -49t-75 -17q-59 0 -93.5 33t-34.5 94q0 8 2 28l43 343q0 4 3 7t8 3h9q9 0 9 -10l-42 -337q-1 -9 -1 -24q0 -52 27.5 -80.5t75.5 -28.5q57 0 95.5 37.5
t46.5 101.5l40 331q2 10 11 10zM326 623q-10 10 -10 27q0 20 13.5 34t33.5 14q18 0 28.5 -12t8.5 -30q-3 -19 -16 -31t-31 -12q-17 0 -27 10zM188 623q-10 10 -10 27q0 20 13.5 34t33.5 14q18 0 28.5 -12t8.5 -30q-3 -19 -16 -31t-31 -12q-17 0 -27 10z" />
    <glyph glyph-name="yacute" unicode="&#xfd;" horiz-adv-x="374" 
d="M5 -197q-2 3 -1 7l1 7q0 4 3 7t8 3h3q32 1 50.5 14t36 46.5t47.5 109.5q1 2 1 6l-87 487v2q0 9 9 9h10q8 0 10 -8l76 -447q0 -2 2 -2t3 2l183 447q5 8 12 8h10q5 0 7 -3t0 -8l-230 -549q-26 -62 -46 -91.5t-41.5 -39.5t-56.5 -10h-6q-2 0 -4 3zM210.5 572.5
q-1.5 3.5 1.5 8.5l74 112q5 7 13 7h8q6 0 8 -3.5t-2 -8.5l-77 -112q-5 -7 -12 -7h-6q-6 0 -7.5 3.5z" />
    <glyph glyph-name="thorn" unicode="&#xfe;" horiz-adv-x="454" 
d="M398 250q-8 -77 -18 -120q-14 -61 -59 -99.5t-107 -38.5q-41 0 -69.5 18.5t-42.5 52.5q-1 3 -3 2.5t-2 -3.5l-31 -252q-2 -10 -11 -10h-10q-10 0 -8 10l108 880q2 10 11 10h9q5 0 7.5 -3t1.5 -7l-31 -251q0 -3 1.5 -3.5t2.5 2.5q22 34 55.5 52.5t74.5 18.5q60 0 96 -37
t36 -96q0 -38 -11 -126zM368 251q6 41 9 69t3 50q0 49 -30 80t-80 31q-51 0 -87.5 -33t-46.5 -84q-4 -18 -7 -38l-18 -152q-3 -25 -3 -44q0 -49 28 -79.5t77 -30.5q52 0 90.5 33t48.5 84q7 34 16 114z" />
    <glyph glyph-name="ydieresis" unicode="&#xff;" horiz-adv-x="374" 
d="M5 -197q-2 3 -1 7l1 7q0 4 3 7t8 3h3q32 1 50.5 14t36 46.5t47.5 109.5q1 2 1 6l-87 487v2q0 9 9 9h10q8 0 10 -8l76 -447q0 -2 2 -2t3 2l183 447q5 8 12 8h10q5 0 7 -3t0 -8l-230 -549q-26 -62 -46 -91.5t-41.5 -39.5t-56.5 -10h-6q-2 0 -4 3zM286 623q-10 10 -10 27
q0 20 13.5 34t33.5 14q18 0 28.5 -12t8.5 -30q-3 -19 -16 -31t-31 -12q-17 0 -27 10zM148 623q-10 10 -10 27q0 20 13.5 34t33.5 14q18 0 28.5 -12t8.5 -30q-3 -19 -16 -31t-31 -12q-17 0 -27 10z" />
    <glyph glyph-name="Amacron" unicode="&#x100;" horiz-adv-x="454" 
d="M381 8l-20 141q-1 3 -5 3h-261q-4 0 -5 -3l-54 -140q-4 -9 -12 -9h-8q-5 0 -7.5 3t-0.5 8l266 681q3 8 12 8h13q10 0 10 -8l102 -681v-2q0 -4 -3 -6.5t-7 -2.5h-10q-8 0 -10 8zM104 180.5q1 -1.5 3 -1.5h245q2 0 3.5 1.5t0.5 2.5l-67 465q-2 5 -5 0l-180 -465
q-1 -1 0 -2.5zM200.5 805q-2.5 3 -1.5 7l1 6q0 4 3 7t8 3h197q4 0 6.5 -3t1.5 -7l-1 -6q0 -4 -3 -7t-8 -3h-197q-4 0 -6.5 3z" />
    <glyph glyph-name="amacron" unicode="&#x101;" 
d="M398 501h10q10 0 8 -10l-59 -481q-2 -10 -11 -10h-9q-5 0 -7.5 3t-1.5 7l7 54q0 3 -1.5 3t-3.5 -2q-22 -34 -56 -53.5t-75 -19.5q-61 0 -96.5 37.5t-35.5 98.5q0 34 11 122q12 88 19 121q14 61 59 99.5t107 38.5q41 0 70 -19.5t43 -53.5q1 -2 2.5 -2t2.5 3l6 54
q2 10 11 10zM358 250q8 71 11 114q2 51 -26 84t-79 33q-52 0 -90.5 -33t-49.5 -84q-5 -29 -16 -113l-3 -30q-6 -48 -9 -84q-2 -51 28.5 -84t82.5 -33q51 0 87.5 33t46.5 84q9 53 17 113zM166.5 606q-2.5 3 -1.5 7l1 6q0 4 3 7t8 3h197q4 0 6.5 -3t1.5 -7l-1 -6q0 -4 -3 -7
t-8 -3h-197q-4 0 -6.5 3z" />
    <glyph glyph-name="Abreve" unicode="&#x102;" horiz-adv-x="454" 
d="M381 8l-20 141q-1 3 -5 3h-261q-4 0 -5 -3l-54 -140q-4 -9 -12 -9h-8q-5 0 -7.5 3t-0.5 8l266 681q3 8 12 8h13q10 0 10 -8l102 -681v-2q0 -4 -3 -6.5t-7 -2.5h-10q-8 0 -10 8zM104 180.5q1 -1.5 3 -1.5h245q2 0 3.5 1.5t0.5 2.5l-67 465q-2 5 -5 0l-180 -465
q-1 -1 0 -2.5zM238.5 787.5q-24.5 25.5 -22.5 63.5v2q0 4 3 6t7 2h5q10 0 10 -12q0 -27 18 -45t44 -18q27 0 49.5 18.5t29.5 46.5q1 10 11 10h6q10 0 8 -10q-8 -38 -38.5 -63.5t-68.5 -25.5q-37 0 -61.5 25.5z" />
    <glyph glyph-name="abreve" unicode="&#x103;" 
d="M398 501h10q10 0 8 -10l-59 -481q-2 -10 -11 -10h-9q-5 0 -7.5 3t-1.5 7l7 54q0 3 -1.5 3t-3.5 -2q-22 -34 -56 -53.5t-75 -19.5q-61 0 -96.5 37.5t-35.5 98.5q0 34 11 122q12 88 19 121q14 61 59 99.5t107 38.5q41 0 70 -19.5t43 -53.5q1 -2 2.5 -2t2.5 3l6 54
q2 10 11 10zM358 250q8 71 11 114q2 51 -26 84t-79 33q-52 0 -90.5 -33t-49.5 -84q-5 -29 -16 -113l-3 -30q-6 -48 -9 -84q-2 -51 28.5 -84t82.5 -33q51 0 87.5 33t46.5 84q9 53 17 113zM204.5 588.5q-24.5 25.5 -22.5 63.5v2q0 4 3 6t7 2h5q10 0 10 -12q0 -27 18 -45
t44 -18q27 0 49.5 18.5t29.5 46.5q1 10 11 10h6q10 0 8 -10q-8 -38 -38.5 -63.5t-68.5 -25.5q-37 0 -61.5 25.5z" />
    <glyph glyph-name="Aogonek" unicode="&#x104;" horiz-adv-x="454" 
d="M381 8l-20 141q-1 3 -5 3h-261q-4 0 -5 -3l-54 -140q-4 -9 -12 -9h-8q-5 0 -7.5 3t-0.5 8l266 681q3 8 12 8h13q10 0 10 -8l102 -681v-2q0 -4 -3 -6.5t-7 -2.5h-10q-8 0 -10 8zM104 180.5q1 -1.5 3 -1.5h245q2 0 3.5 1.5t0.5 2.5l-67 465q-2 5 -5 0l-180 -465
q-1 -1 0 -2.5zM415 -170q0 -9 -9 -10q-12 -3 -25 -3q-29 0 -47.5 16t-18.5 51q0 61 65 112q5 4 13 4h2q7 0 7 -5q0 -3 -4 -7q-56 -52 -56 -100q0 -24 12 -35.5t31 -11.5q6 0 18 2h3q7 0 7 -6l2 -4v-1v-2z" />
    <glyph glyph-name="aogonek" unicode="&#x105;" horiz-adv-x="483" 
d="M365 -157q7 0 7 -6q1 -1 1 -4v-3q0 -9 -9 -10q-12 -3 -25 -3q-29 0 -47.5 15.5t-18.5 49.5q0 65 68 116q2 1 2 4q-2 3 0 8l6 52q1 3 -1 3.5t-3 -2.5q-22 -34 -56 -52.5t-75 -18.5q-60 0 -96 37.5t-36 98.5q0 30 9 98l3 24q9 81 18 121q14 61 59 99.5t107 38.5
q41 0 70 -19t42 -53q2 -2 3.5 -2t1.5 3l7 53q0 4 3 7t8 3h9q5 0 7.5 -3t1.5 -7l-60 -484q0 -4 -6 -12q-29 -24 -47.5 -52t-18.5 -57q0 -45 44 -45q5 0 19 2h3zM372 247l1 6q8 69 11 111q3 51 -25.5 84t-79.5 33q-52 0 -90 -33t-49 -84q-9 -44 -17 -113q-7 -53 -11 -114
q-3 -51 28 -84t83 -33q51 0 87 33t46 84q7 33 16 110z" />
    <glyph glyph-name="Cacute" unicode="&#x106;" horiz-adv-x="505" 
d="M118.5 34q-43.5 42 -43.5 113q0 9 2 29l43 349q10 83 66 133t138 50q74 0 117.5 -41.5t43.5 -112.5q0 -10 -2 -28l-2 -11q0 -4 -3 -7t-8 -3h-9q-10 0 -9 9l2 13q1 8 1 23q0 59 -36.5 94.5t-98.5 35.5q-68 0 -115.5 -42t-55.5 -111l-43 -353q-2 -18 -2 -25
q0 -59 36.5 -94.5t98.5 -35.5q68 0 115.5 42.5t55.5 112.5l2 11q0 4 3 7t8 3l9 -1q9 0 9 -10l-1 -9q-10 -82 -66.5 -132.5t-137.5 -50.5q-74 0 -117.5 42zM304.5 771.5q-1.5 3.5 1.5 8.5l74 112q5 7 13 7h8q6 0 8 -3.5t-2 -8.5l-77 -112q-5 -7 -12 -7h-6q-6 0 -7.5 3.5z" />
    <glyph glyph-name="cacute" unicode="&#x107;" 
d="M106 30q-37 38 -37 100q1 51 9 121q5 40 21 120q15 62 61.5 100t108.5 38q61 0 99.5 -35.5t39.5 -86.5v-4q1 -4 1 -12q0 -4 -3 -7t-8 -3h-8q-10 0 -10 7v10q1 43 -31 73t-83 30q-53 0 -91 -32.5t-49 -85.5q-8 -39 -18 -112l-3 -28q-7 -61 -7 -88q0 -52 29.5 -83.5
t81.5 -31.5t91.5 30.5t48.5 72.5v4q3 9 12 9h10q10 0 7 -11l-2 -7q-1 -1 -1 -4q-12 -51 -59.5 -86.5t-109.5 -35.5q-63 0 -100 38zM249.5 572.5q-1.5 3.5 1.5 8.5l74 112q5 7 13 7h8q6 0 8 -3.5t-2 -8.5l-77 -112q-5 -7 -12 -7h-6q-6 0 -7.5 3.5z" />
    <glyph glyph-name="Ccircumflex" unicode="&#x108;" horiz-adv-x="505" 
d="M118.5 34q-43.5 42 -43.5 113q0 9 2 29l43 349q10 83 66 133t138 50q74 0 117.5 -41.5t43.5 -112.5q0 -10 -2 -28l-2 -11q0 -4 -3 -7t-8 -3h-9q-10 0 -9 9l2 13q1 8 1 23q0 59 -36.5 94.5t-98.5 35.5q-68 0 -115.5 -42t-55.5 -111l-43 -353q-2 -18 -2 -25
q0 -59 36.5 -94.5t98.5 -35.5q68 0 115.5 42.5t55.5 112.5l2 11q0 4 3 7t8 3l9 -1q9 0 9 -10l-1 -9q-10 -82 -66.5 -132.5t-137.5 -50.5q-74 0 -117.5 42zM238.5 781q-1.5 4 3.5 8l84 104q5 6 13 6h15q9 0 11 -6l60 -104l2 -5q0 -7 -9 -7h-12q-7 0 -11 6l-48 87q-1 2 -3 2
t-3 -2l-72 -87q-4 -6 -12 -6h-11q-6 0 -7.5 4z" />
    <glyph glyph-name="ccircumflex" unicode="&#x109;" 
d="M106 30q-37 38 -37 100q1 51 9 121q5 40 21 120q15 62 61.5 100t108.5 38q61 0 99.5 -35.5t39.5 -86.5v-4q1 -4 1 -12q0 -4 -3 -7t-8 -3h-8q-10 0 -10 7v10q1 43 -31 73t-83 30q-53 0 -91 -32.5t-49 -85.5q-8 -39 -18 -112l-3 -28q-7 -61 -7 -88q0 -52 29.5 -83.5
t81.5 -31.5t91.5 30.5t48.5 72.5v4q3 9 12 9h10q10 0 7 -11l-2 -7q-1 -1 -1 -4q-12 -51 -59.5 -86.5t-109.5 -35.5q-63 0 -100 38zM183.5 582q-1.5 4 3.5 8l84 104q5 6 13 6h15q9 0 11 -6l60 -104l2 -5q0 -7 -9 -7h-12q-7 0 -11 6l-48 87q-1 2 -3 2t-3 -2l-72 -87
q-4 -6 -12 -6h-11q-6 0 -7.5 4z" />
    <glyph glyph-name="Cdotaccent" unicode="&#x10a;" horiz-adv-x="505" 
d="M118.5 34q-43.5 42 -43.5 113q0 9 2 29l43 349q10 83 66 133t138 50q74 0 117.5 -41.5t43.5 -112.5q0 -10 -2 -28l-2 -11q0 -4 -3 -7t-8 -3h-9q-10 0 -9 9l2 13q1 8 1 23q0 59 -36.5 94.5t-98.5 35.5q-68 0 -115.5 -42t-55.5 -111l-43 -353q-2 -18 -2 -25
q0 -59 36.5 -94.5t98.5 -35.5q68 0 115.5 42.5t55.5 112.5l2 11q0 4 3 7t8 3l9 -1q9 0 9 -10l-1 -9q-10 -82 -66.5 -132.5t-137.5 -50.5q-74 0 -117.5 42zM309 822q-10 10 -10 27q0 20 13.5 34t33.5 14q18 0 28.5 -12t8.5 -30q-3 -19 -16 -31t-31 -12q-17 0 -27 10z" />
    <glyph glyph-name="cdotaccent" unicode="&#x10b;" 
d="M106 30q-37 38 -37 100q1 51 9 121q5 40 21 120q15 62 61.5 100t108.5 38q61 0 99.5 -35.5t39.5 -86.5v-4q1 -4 1 -12q0 -4 -3 -7t-8 -3h-8q-10 0 -10 7v10q1 43 -31 73t-83 30q-53 0 -91 -32.5t-49 -85.5q-8 -39 -18 -112l-3 -28q-7 -61 -7 -88q0 -52 29.5 -83.5
t81.5 -31.5t91.5 30.5t48.5 72.5v4q3 9 12 9h10q10 0 7 -11l-2 -7q-1 -1 -1 -4q-12 -51 -59.5 -86.5t-109.5 -35.5q-63 0 -100 38zM255 623q-10 10 -10 27q0 20 13.5 34t33.5 14q18 0 28.5 -12t8.5 -30q-3 -19 -16 -31t-31 -12q-17 0 -27 10z" />
    <glyph glyph-name="Ccaron" unicode="&#x10c;" horiz-adv-x="505" 
d="M118.5 34q-43.5 42 -43.5 113q0 9 2 29l43 349q10 83 66 133t138 50q74 0 117.5 -41.5t43.5 -112.5q0 -10 -2 -28l-2 -11q0 -4 -3 -7t-8 -3h-9q-10 0 -9 9l2 13q1 8 1 23q0 59 -36.5 94.5t-98.5 35.5q-68 0 -115.5 -42t-55.5 -111l-43 -353q-2 -18 -2 -25
q0 -59 36.5 -94.5t98.5 -35.5q68 0 115.5 42.5t55.5 112.5l2 11q0 4 3 7t8 3l9 -1q9 0 9 -10l-1 -9q-10 -82 -66.5 -132.5t-137.5 -50.5q-74 0 -117.5 42zM252 892q0 7 9 7h11q7 0 11 -6l50 -88q1 -1 3 -1t3 1l70 88q4 6 12 6h12q6 0 7.5 -3.5t-3.5 -8.5l-85 -104
q-5 -6 -13 -6h-15q-9 0 -11 6l-59 104z" />
    <glyph glyph-name="ccaron" unicode="&#x10d;" 
d="M106 30q-37 38 -37 100q1 51 9 121q5 40 21 120q15 62 61.5 100t108.5 38q61 0 99.5 -35.5t39.5 -86.5v-4q1 -4 1 -12q0 -4 -3 -7t-8 -3h-8q-10 0 -10 7v10q1 43 -31 73t-83 30q-53 0 -91 -32.5t-49 -85.5q-8 -39 -18 -112l-3 -28q-7 -61 -7 -88q0 -52 29.5 -83.5
t81.5 -31.5t91.5 30.5t48.5 72.5v4q3 9 12 9h10q10 0 7 -11l-2 -7q-1 -1 -1 -4q-12 -51 -59.5 -86.5t-109.5 -35.5q-63 0 -100 38zM198 693q0 7 9 7h11q7 0 11 -6l50 -88q1 -1 3 -1t3 1l70 88q4 6 12 6h12q6 0 7.5 -3.5t-3.5 -8.5l-85 -104q-5 -6 -13 -6h-15q-9 0 -11 6
l-59 104z" />
    <glyph glyph-name="Dcaron" unicode="&#x10e;" horiz-adv-x="522" 
d="M80 10l83 680q2 10 11 10h177q69 0 107.5 -39.5t38.5 -108.5q0 -10 -2 -34l-41 -336q-10 -85 -61 -133.5t-128 -48.5h-177q-10 0 -8 10zM112 29.5q1 -1.5 3 -1.5h154q64 0 105.5 41t50.5 113l41 335q2 20 2 30q0 59 -31.5 92t-88.5 33h-154q-4 0 -4 -4l-78 -636
q-1 -1 0 -2.5zM260 889q0 7 9 7h11q7 0 11 -6l50 -88q1 -1 3 -1t3 1l70 88q4 6 12 6h12q6 0 7.5 -3.5t-3.5 -8.5l-85 -104q-5 -6 -13 -6h-15q-9 0 -11 6l-59 104z" />
    <glyph glyph-name="dcaron" unicode="&#x10f;" horiz-adv-x="458" 
d="M415 697q3 3 8 3h9q9 0 9 -10l-84 -680q-2 -10 -11 -10h-9q-5 0 -7.5 3t-1.5 7l6 49q1 3 -0.5 3t-3.5 -2q-42 -68 -126 -68q-62 0 -93.5 29t-41.5 101q-4 31 -4 64q0 30 3 54q3 27 11 64.5t17 63.5q23 74 67 107t111 33q46 0 69.5 -17.5t33.5 -50.5q1 -3 2.5 -2.5
t1.5 3.5l31 249q0 4 3 7zM356 250q5 47 5 79q0 46 -8 74q-10 39 -31 59t-59 20q-40 0 -69 -19.5t-49 -56.5q-34 -62 -44 -156q-5 -47 -5 -81q0 -38 6 -67q11 -42 34.5 -63t67.5 -21q40 0 67 20.5t47 61.5q25 52 38 150zM491.5 572.5q-1.5 3.5 1.5 8.5l74 112q5 7 13 7h8
q6 0 8 -3.5t-2 -8.5l-77 -112q-5 -7 -12 -7h-6q-6 0 -7.5 3.5z" />
    <glyph glyph-name="Dcroat" unicode="&#x110;" horiz-adv-x="583" 
d="M518.5 660.5q38.5 -39.5 38.5 -108.5q0 -10 -2 -34l-41 -336q-10 -85 -61 -133.5t-128 -48.5h-177q-4 0 -6.5 3t-1.5 7l42 339q0 4 -4 4h-46q-5 0 -7.5 3t-1.5 7l1 6q2 10 11 10h46q3 0 5 4l37 307q1 4 4 7t7 3h177q69 0 107.5 -39.5zM526 517q2 20 2 30q0 59 -31.5 92
t-88.5 33h-154q-4 0 -4 -4l-35 -285q0 -4 3 -4h114q10 0 8 -10l-1 -6q0 -4 -3 -7t-7 -3h-114q-4 0 -4 -4l-39 -317q-1 -1 0 -2.5t3 -1.5h154q64 0 105.5 41t50.5 113z" />
    <glyph glyph-name="dcroat" unicode="&#x111;" horiz-adv-x="458" 
d="M496 593l-1 -5q-2 -10 -11 -10h-53q-3 0 -5 -4l-69 -564q-2 -10 -11 -10h-9q-5 0 -7.5 3t-1.5 7l6 49q1 3 -0.5 3t-3.5 -2q-42 -68 -126 -68q-62 0 -93.5 29t-41.5 101q-4 31 -4 64q0 30 3 54q3 27 11 64.5t17 63.5q23 74 67 107t111 33q46 0 69.5 -17.5t33.5 -50.5
q1 -3 2.5 -2.5t1.5 3.5l16 133q1 1 0 2.5t-3 1.5h-158q-9 0 -9 10l1 5q2 10 11 10h158q4 0 4 4l11 83q0 4 3 7t8 3h9q9 0 9 -10l-10 -83q-1 -1 0 -2.5t3 -1.5h53q9 0 9 -10zM356 250q5 47 5 79q0 46 -8 74q-10 39 -31 59t-59 20q-40 0 -69 -19.5t-49 -56.5q-34 -62 -44 -156
q-5 -47 -5 -81q0 -38 6 -67q11 -42 34.5 -63t67.5 -21q40 0 67 20.5t47 61.5q25 52 38 150z" />
    <glyph glyph-name="Emacron" unicode="&#x112;" horiz-adv-x="505" 
d="M509 675q-3 -3 -7 -3h-308q-4 0 -4 -4l-37 -300q0 -4 3 -4h214q4 0 6.5 -3t1.5 -7l-1 -7q0 -4 -3 -7t-8 -3h-213q-4 0 -4 -4l-37 -301q-1 -1 0 -2.5t3 -1.5h307q5 0 7.5 -3t1.5 -7l-1 -8q-2 -10 -11 -10h-331q-10 0 -8 10l83 680q2 10 11 10h331q10 0 8 -10l-1 -8
q0 -4 -3 -7zM244.5 805q-2.5 3 -1.5 7l1 6q0 4 3 7t8 3h197q4 0 6.5 -3t1.5 -7l-1 -6q0 -4 -3 -7t-8 -3h-197q-4 0 -6.5 3z" />
    <glyph glyph-name="emacron" unicode="&#x113;" horiz-adv-x="445" 
d="M288 44q35 24 53 64q4 8 13 7l8 -1q9 -2 6 -12q-20 -50 -64 -80t-100 -30q-62 0 -98.5 37.5t-36.5 97.5q-1 26 7 95l3 29q10 82 19 119q14 61 60.5 100t108.5 39q64 0 101 -38t37 -100q0 -21 -3.5 -53.5t-8.5 -71.5q-2 -10 -11 -10h-272q-4 0 -4 -4q-2 -24 -4 -33
q-1 -16 -3 -31.5t-3 -29.5q-2 -53 28.5 -85.5t83.5 -32.5q45 0 80 24zM173.5 449.5q-38.5 -32.5 -50.5 -85.5l-6 -41l-6 -47q0 -4 4 -4h248q4 0 5 4l3 26l5 62q1 53 -29 85.5t-82 32.5q-53 0 -91.5 -32.5zM175.5 640q-2.5 3 -1.5 7l1 6q2 10 11 10h197q4 0 6.5 -3t1.5 -7
l-1 -6q0 -4 -3 -7t-8 -3h-196q-5 0 -7.5 3z" />
    <glyph glyph-name="Edotaccent" unicode="&#x116;" horiz-adv-x="505" 
d="M509 675q-3 -3 -7 -3h-308q-4 0 -4 -4l-37 -300q0 -4 3 -4h214q4 0 6.5 -3t1.5 -7l-1 -7q0 -4 -3 -7t-8 -3h-213q-4 0 -4 -4l-37 -301q-1 -1 0 -2.5t3 -1.5h307q5 0 7.5 -3t1.5 -7l-1 -8q-2 -10 -11 -10h-331q-10 0 -8 10l83 680q2 10 11 10h331q10 0 8 -10l-1 -8
q0 -4 -3 -7zM323 822q-10 10 -10 27q0 20 13.5 34t33.5 14q18 0 28.5 -12t8.5 -30q-3 -19 -16 -31t-31 -12q-17 0 -27 10z" />
    <glyph glyph-name="edotaccent" unicode="&#x117;" horiz-adv-x="445" 
d="M288 44q35 24 53 64q4 8 13 7l8 -1q9 -2 6 -12q-20 -50 -64 -80t-100 -30q-62 0 -98.5 37.5t-36.5 97.5q-1 26 7 95l3 29q10 82 19 119q14 61 60.5 100t108.5 39q64 0 101 -38t37 -100q0 -21 -3.5 -53.5t-8.5 -71.5q-2 -10 -11 -10h-272q-4 0 -4 -4q-2 -24 -4 -33
q-1 -16 -3 -31.5t-3 -29.5q-2 -53 28.5 -85.5t83.5 -32.5q45 0 80 24zM173.5 449.5q-38.5 -32.5 -50.5 -85.5l-6 -41l-6 -47q0 -4 4 -4h248q4 0 5 4l3 26l5 62q1 53 -29 85.5t-82 32.5q-53 0 -91.5 -32.5zM251 623q-10 10 -10 27q0 20 13.5 34t33.5 14q18 0 28.5 -12
t8.5 -30q-3 -19 -16 -31t-31 -12q-17 0 -27 10z" />
    <glyph glyph-name="Eogonek" unicode="&#x118;" horiz-adv-x="505" 
d="M509 675q-3 -3 -7 -3h-308q-4 0 -4 -4l-37 -300q0 -4 3 -4h214q4 0 6.5 -3t1.5 -7l-1 -7q0 -4 -3 -7t-8 -3h-213q-4 0 -4 -4l-37 -301q-1 -1 0 -2.5t3 -1.5h307q5 0 7.5 -3t1.5 -7l-1 -8q-2 -10 -11 -10h-151q-3 0 -5 -2q-63 -55 -63 -105q0 -24 12 -35.5t32 -11.5
q7 0 19 2h3q6 0 7 -6l1 -4v-3q-2 -9 -9 -10q-12 -3 -25 -3q-29 0 -47.5 16t-18.5 52q0 57 58 105q5 5 0 5h-144q-10 0 -8 10l83 680q2 10 11 10h331q10 0 8 -10l-1 -8q0 -4 -3 -7z" />
    <glyph glyph-name="eogonek" unicode="&#x119;" horiz-adv-x="445" 
d="M288 44q35 24 53 64q4 8 13 7l8 -1q9 -2 6 -12q-19 -48 -60.5 -77.5t-94.5 -32.5q-3 0 -5 -2q-57 -53 -57 -103q0 -23 12 -34t31 -11q5 0 19 2h3q4 0 5.5 -2t1.5 -6l1 -3v-3q0 -7 -8 -9q-12 -3 -25 -3q-29 0 -48 16t-19 52q0 54 55 103q5 3 0 5q-51 7 -80.5 43.5
t-29.5 89.5q-1 26 7 95l3 29q10 82 19 119q14 61 60.5 100t108.5 39q64 0 101 -38t37 -100q0 -21 -3.5 -53.5t-8.5 -71.5q-2 -10 -11 -10h-272q-4 0 -4 -4q-2 -24 -4 -33q-1 -16 -3 -31.5t-3 -29.5q-2 -53 28.5 -85.5t83.5 -32.5q45 0 80 24zM173.5 449.5
q-38.5 -32.5 -50.5 -85.5l-6 -41l-6 -47q0 -4 4 -4h248q4 0 5 4l3 26l5 62q1 53 -29 85.5t-82 32.5q-53 0 -91.5 -32.5z" />
    <glyph glyph-name="Ecaron" unicode="&#x11a;" horiz-adv-x="505" 
d="M509 675q-3 -3 -7 -3h-308q-4 0 -4 -4l-37 -300q0 -4 3 -4h214q4 0 6.5 -3t1.5 -7l-1 -7q0 -4 -3 -7t-8 -3h-213q-4 0 -4 -4l-37 -301q-1 -1 0 -2.5t3 -1.5h307q5 0 7.5 -3t1.5 -7l-1 -8q-2 -10 -11 -10h-331q-10 0 -8 10l83 680q2 10 11 10h331q10 0 8 -10l-1 -8
q0 -4 -3 -7zM267 892q0 7 9 7h11q7 0 11 -6l50 -88q1 -1 3 -1t3 1l70 88q4 6 12 6h12q6 0 7.5 -3.5t-3.5 -8.5l-85 -104q-5 -6 -13 -6h-15q-9 0 -11 6l-59 104z" />
    <glyph glyph-name="ecaron" unicode="&#x11b;" horiz-adv-x="445" 
d="M288 44q35 24 53 64q4 8 13 7l8 -1q9 -2 6 -12q-20 -50 -64 -80t-100 -30q-62 0 -98.5 37.5t-36.5 97.5q-1 26 7 95l3 29q10 82 19 119q14 61 60.5 100t108.5 39q64 0 101 -38t37 -100q0 -21 -3.5 -53.5t-8.5 -71.5q-2 -10 -11 -10h-272q-4 0 -4 -4q-2 -24 -4 -33
q-1 -16 -3 -31.5t-3 -29.5q-2 -53 28.5 -85.5t83.5 -32.5q45 0 80 24zM173.5 449.5q-38.5 -32.5 -50.5 -85.5l-6 -41l-6 -47q0 -4 4 -4h248q4 0 5 4l3 26l5 62q1 53 -29 85.5t-82 32.5q-53 0 -91.5 -32.5zM194 690q0 7 9 7h11q7 0 11 -6l50 -88q1 -1 3 -1t3 1l70 88
q4 6 12 6h12q6 0 7.5 -3.5t-3.5 -8.5l-85 -104q-5 -6 -13 -6h-15q-9 0 -11 6l-59 104z" />
    <glyph glyph-name="Gcircumflex" unicode="&#x11c;" horiz-adv-x="512" 
d="M117.5 33.5q-43.5 41.5 -43.5 111.5q0 9 2 27l44 356q10 81 66 130.5t138 49.5q74 0 117 -41.5t43 -110.5q0 -9 -2 -27l-4 -31q0 -4 -3 -7t-8 -3h-9q-5 0 -7.5 3t-1.5 7l4 32q1 8 1 23q0 58 -36 92.5t-98 34.5q-68 0 -115 -41.5t-56 -109.5l-44 -358q-1 -8 -1 -23
q0 -59 36.5 -93.5t98.5 -34.5q68 0 115 41.5t55 108.5l17 136q0 4 -4 4h-131q-10 0 -8 10l1 8q0 4 3 7t8 3h154q10 0 8 -10l-19 -156q-10 -82 -65.5 -131t-136.5 -49q-75 0 -118.5 41.5zM237.5 781q-1.5 4 3.5 8l84 104q5 6 13 6h15q9 0 11 -6l60 -104l2 -5q0 -7 -9 -7h-12
q-7 0 -11 6l-48 87q-1 2 -3 2t-3 -2l-72 -87q-4 -6 -12 -6h-11q-6 0 -7.5 4z" />
    <glyph glyph-name="gcircumflex" unicode="&#x11d;" horiz-adv-x="446" 
d="M398 501h10q10 0 8 -10l-60 -489q-12 -101 -68 -152.5t-157 -49.5q-11 0 -9 10l1 8q2 10 11 10q88 -1 135 43.5t58 131.5l8 60q0 3 -2 3.5t-3 -2.5q-21 -34 -55 -52.5t-75 -18.5q-62 0 -97.5 38t-35.5 100q2 54 10 119q11 81 20 121q15 61 60 99.5t106 38.5
q41 0 70 -18.5t43 -52.5q1 -3 2.5 -2.5t2.5 3.5l6 52q2 10 11 10zM358 250q8 70 11 113q2 52 -26 85t-79 33q-52 0 -90 -33t-50 -85q-7 -34 -18 -112q-4 -32 -10 -113q-1 -51 29.5 -84.5t81.5 -33.5t87.5 33.5t46.5 84.5q9 49 17 112zM183.5 582q-1.5 4 3.5 8l84 104
q5 6 13 6h15q9 0 11 -6l60 -104l2 -5q0 -7 -9 -7h-12q-7 0 -11 6l-48 87q-1 2 -3 2t-3 -2l-72 -87q-4 -6 -12 -6h-11q-6 0 -7.5 4z" />
    <glyph glyph-name="Gbreve" unicode="&#x11e;" horiz-adv-x="512" 
d="M117.5 33.5q-43.5 41.5 -43.5 111.5q0 9 2 27l44 356q10 81 66 130.5t138 49.5q74 0 117 -41.5t43 -110.5q0 -9 -2 -27l-4 -31q0 -4 -3 -7t-8 -3h-9q-5 0 -7.5 3t-1.5 7l4 32q1 8 1 23q0 58 -36 92.5t-98 34.5q-68 0 -115 -41.5t-56 -109.5l-44 -358q-1 -8 -1 -23
q0 -59 36.5 -93.5t98.5 -34.5q68 0 115 41.5t55 108.5l17 136q0 4 -4 4h-131q-10 0 -8 10l1 8q0 4 3 7t8 3h154q10 0 8 -10l-19 -156q-10 -82 -65.5 -131t-136.5 -49q-75 0 -118.5 41.5zM267.5 787.5q-24.5 25.5 -22.5 63.5v2q0 4 3 6t7 2h5q10 0 10 -12q0 -27 18 -45
t44 -18q27 0 49.5 18.5t29.5 46.5q1 10 11 10h6q10 0 8 -10q-8 -38 -38.5 -63.5t-68.5 -25.5q-37 0 -61.5 25.5z" />
    <glyph glyph-name="gbreve" unicode="&#x11f;" horiz-adv-x="446" 
d="M398 501h10q10 0 8 -10l-60 -489q-12 -101 -68 -152.5t-157 -49.5q-11 0 -9 10l1 8q2 10 11 10q88 -1 135 43.5t58 131.5l8 60q0 3 -2 3.5t-3 -2.5q-21 -34 -55 -52.5t-75 -18.5q-62 0 -97.5 38t-35.5 100q2 54 10 119q11 81 20 121q15 61 60 99.5t106 38.5
q41 0 70 -18.5t43 -52.5q1 -3 2.5 -2.5t2.5 3.5l6 52q2 10 11 10zM358 250q8 70 11 113q2 52 -26 85t-79 33q-52 0 -90 -33t-50 -85q-7 -34 -18 -112q-4 -32 -10 -113q-1 -51 29.5 -84.5t81.5 -33.5t87.5 33.5t46.5 84.5q9 49 17 112zM214.5 588.5q-24.5 25.5 -22.5 63.5v2
q0 4 3 6t7 2h5q10 0 10 -12q0 -27 18 -45t44 -18q27 0 49.5 18.5t29.5 46.5q1 10 11 10h6q10 0 8 -10q-8 -38 -38.5 -63.5t-68.5 -25.5q-37 0 -61.5 25.5z" />
    <glyph glyph-name="Gdotaccent" unicode="&#x120;" horiz-adv-x="512" 
d="M117.5 33.5q-43.5 41.5 -43.5 111.5q0 9 2 27l44 356q10 81 66 130.5t138 49.5q74 0 117 -41.5t43 -110.5q0 -9 -2 -27l-4 -31q0 -4 -3 -7t-8 -3h-9q-5 0 -7.5 3t-1.5 7l4 32q1 8 1 23q0 58 -36 92.5t-98 34.5q-68 0 -115 -41.5t-56 -109.5l-44 -358q-1 -8 -1 -23
q0 -59 36.5 -93.5t98.5 -34.5q68 0 115 41.5t55 108.5l17 136q0 4 -4 4h-131q-10 0 -8 10l1 8q0 4 3 7t8 3h154q10 0 8 -10l-19 -156q-10 -82 -65.5 -131t-136.5 -49q-75 0 -118.5 41.5zM308 822q-10 10 -10 27q0 20 13.5 34t33.5 14q18 0 28.5 -12t8.5 -30q-3 -19 -16 -31
t-31 -12q-17 0 -27 10z" />
    <glyph glyph-name="gdotaccent" unicode="&#x121;" horiz-adv-x="446" 
d="M398 501h10q10 0 8 -10l-60 -489q-12 -101 -68 -152.5t-157 -49.5q-11 0 -9 10l1 8q2 10 11 10q88 -1 135 43.5t58 131.5l8 60q0 3 -2 3.5t-3 -2.5q-21 -34 -55 -52.5t-75 -18.5q-62 0 -97.5 38t-35.5 100q2 54 10 119q11 81 20 121q15 61 60 99.5t106 38.5
q41 0 70 -18.5t43 -52.5q1 -3 2.5 -2.5t2.5 3.5l6 52q2 10 11 10zM358 250q8 70 11 113q2 52 -26 85t-79 33q-52 0 -90 -33t-50 -85q-7 -34 -18 -112q-4 -32 -10 -113q-1 -51 29.5 -84.5t81.5 -33.5t87.5 33.5t46.5 84.5q9 49 17 112zM255 623q-10 10 -10 27q0 20 13.5 34
t33.5 14q18 0 28.5 -12t8.5 -30q-3 -19 -16 -31t-31 -12q-17 0 -27 10z" />
    <glyph glyph-name="uni0122" unicode="&#x122;" horiz-adv-x="512" 
d="M117.5 33.5q-43.5 41.5 -43.5 111.5q0 9 2 27l44 356q10 81 66 130.5t138 49.5q74 0 117 -41.5t43 -110.5q0 -9 -2 -27l-4 -31q0 -4 -3 -7t-8 -3h-9q-5 0 -7.5 3t-1.5 7l4 32q1 8 1 23q0 58 -36 92.5t-98 34.5q-68 0 -115 -41.5t-56 -109.5l-44 -358q-1 -8 -1 -23
q0 -59 36.5 -93.5t98.5 -34.5q68 0 115 41.5t55 108.5l17 136q0 4 -4 4h-131q-10 0 -8 10l1 8q0 4 3 7t8 3h154q10 0 8 -10l-19 -156q-10 -82 -65.5 -131t-136.5 -49q-75 0 -118.5 41.5zM175.5 -204.5q-1.5 3.5 1.5 8.5l74 112q5 7 13 7h8q6 0 8 -3.5t-2 -8.5l-77 -112
q-5 -7 -12 -7h-6q-6 0 -7.5 3.5z" />
    <glyph glyph-name="uni0123" unicode="&#x123;" horiz-adv-x="446" 
d="M327.5 697.5q1.5 -3.5 -2.5 -8.5l-74 -112q-3 -7 -12 -7h-8q-6 0 -7.5 3.5t2.5 8.5l76 112q7 7 13 7h6q5 0 6.5 -3.5zM398 501h10q10 0 8 -10l-60 -489q-12 -101 -68 -152.5t-157 -49.5q-11 0 -9 10l1 8q2 10 11 10q88 -1 135 43.5t58 131.5l8 60q0 3 -2 3.5t-3 -2.5
q-21 -34 -55 -52.5t-75 -18.5q-62 0 -97.5 38t-35.5 100q2 54 10 119q11 81 20 121q15 61 60 99.5t106 38.5q41 0 70 -18.5t43 -52.5q1 -3 2.5 -2.5t2.5 3.5l6 52q2 10 11 10zM358 250q8 70 11 113q2 52 -26 85t-79 33q-52 0 -90 -33t-50 -85q-7 -34 -18 -112
q-4 -32 -10 -113q-1 -51 29.5 -84.5t81.5 -33.5t87.5 33.5t46.5 84.5q9 49 17 112z" />
    <glyph glyph-name="Hcircumflex" unicode="&#x124;" horiz-adv-x="551" 
d="M501 700h10q10 0 8 -10l-83 -680q-2 -10 -11 -10h-10q-10 0 -8 10l39 323q1 1 0 2.5t-3 1.5h-290q-4 0 -4 -4l-40 -323q-2 -10 -11 -10h-10q-10 0 -8 10l83 680q2 10 11 10h10q10 0 8 -10l-39 -322q0 -4 3 -4h290q3 0 5 4l39 322q2 10 11 10zM256.5 782q-1.5 4 3.5 8
l84 104q5 6 13 6h15q9 0 11 -6l60 -104l2 -5q0 -7 -9 -7h-12q-7 0 -11 6l-48 87q-1 2 -3 2t-3 -2l-72 -87q-4 -6 -12 -6h-11q-6 0 -7.5 4z" />
    <glyph glyph-name="hcircumflex" unicode="&#x125;" horiz-adv-x="459" 
d="M375 473.5q33 -34.5 33 -94.5q0 -9 -2 -31l-41 -338q-2 -10 -11 -10h-10q-4 0 -6.5 3t-1.5 7l41 334q2 16 2 24q0 52 -27.5 82t-76.5 30q-56 0 -95 -37.5t-46 -101.5l-41 -331q0 -4 -3 -7t-8 -3h-9q-9 0 -9 10l84 680q2 10 11 10h9q5 0 7.5 -3t1.5 -7l-31 -251q0 -6 4 -2
q22 34 57 52.5t77 18.5q58 0 91 -34.5zM212.5 755q-1.5 4 3.5 8l84 104q5 6 13 6h15q9 0 11 -6l60 -104l2 -5q0 -7 -9 -7h-12q-7 0 -11 6l-48 87q-1 2 -3 2t-3 -2l-72 -87q-4 -6 -12 -6h-11q-6 0 -7.5 4z" />
    <glyph glyph-name="Hbar" unicode="&#x126;" horiz-adv-x="551" 
d="M552 524v-6q-1 -4 -4 -7t-7 -3h-40q-3 0 -5 -4l-60 -494q-2 -10 -11 -10h-10q-10 0 -8 10l39 323q1 1 0 2.5t-3 1.5h-290q-4 0 -4 -4l-40 -323q-2 -10 -11 -10h-10q-10 0 -8 10l60 494q1 1 0 2.5t-3 1.5h-41q-4 0 -6.5 3t-1.5 7l1 6q0 4 3 7t8 3h40q3 0 5 4l18 152
q2 10 11 10h10q10 0 8 -10l-18 -152q-1 -1 0 -2.5t3 -1.5h290q3 0 5 4l18 152q2 10 11 10h10q10 0 8 -10l-18 -152q-1 -1 0 -2.5t3 -1.5h40q10 0 8 -10zM451 368l16 136q1 1 0 2.5t-3 1.5h-290q-4 0 -4 -4l-17 -136q0 -4 3 -4h290q3 0 5 4z" />
    <glyph glyph-name="hbar" unicode="&#x127;" horiz-adv-x="459" 
d="M375 473.5q33 -34.5 33 -94.5q0 -9 -2 -31l-41 -338q-2 -10 -11 -10h-10q-4 0 -6.5 3t-1.5 7l41 334q2 16 2 24q0 52 -27.5 82t-76.5 30q-56 0 -95 -37.5t-46 -101.5l-41 -331q0 -4 -3 -7t-8 -3h-9q-9 0 -9 10l67 546q1 1 0 2.5t-3 1.5h-51q-5 0 -7.5 3t-1.5 7l1 5
q0 4 3 7t8 3h51q4 0 4 4l13 101q2 10 11 10h9q5 0 7.5 -3t1.5 -7l-13 -101q0 -4 4 -4h159q10 0 8 -10v-5q-2 -10 -11 -10h-159q-3 0 -5 -4l-14 -117q0 -6 4 -2q22 34 57 52.5t77 18.5q58 0 91 -34.5z" />
    <glyph glyph-name="Itilde" unicode="&#x128;" horiz-adv-x="224" 
d="M80 10l83 680q2 10 11 10h10q10 0 8 -10l-83 -680q-2 -10 -11 -10h-10q-10 0 -8 10zM225.5 826.5q-11.5 6.5 -24.5 17.5t-22 16t-22 5q-16 0 -27.5 -5.5t-26.5 -22.5q-6 -8 -14 -2l-2 2q-4 3 -4 6q0 4 3 8q33 41 74 41q15 0 26 -5.5t27 -17.5q15 -12 24 -17t20 -5
q29 0 53 31q3 4 7 5t7 -1l4 -2q3 -1 3 -6t-6 -14q-16 -20 -36 -30t-37 -10q-15 0 -26.5 6.5z" />
    <glyph glyph-name="itilde" unicode="&#x129;" horiz-adv-x="171" 
d="M53 10l59 481q0 4 3 7t8 3h9q5 0 7.5 -3t1.5 -7l-59 -481q-2 -10 -11 -10h-10q-10 0 -8 10zM174.5 627.5q-11.5 6.5 -24.5 17.5t-22 16t-22 5q-16 0 -27.5 -5.5t-26.5 -22.5q-6 -8 -14 -2l-2 2q-4 3 -4 6q0 4 3 8q33 41 74 41q15 0 26 -5.5t27 -17.5q15 -12 24 -17t20 -5
q29 0 53 31q3 4 7 5t7 -1l4 -2q3 -1 3 -6t-6 -14q-16 -20 -36 -30t-37 -10q-15 0 -26.5 6.5z" />
    <glyph glyph-name="Imacron" unicode="&#x12a;" horiz-adv-x="224" 
d="M80 10l83 680q2 10 11 10h10q10 0 8 -10l-83 -680q-2 -10 -11 -10h-10q-10 0 -8 10zM86.5 805q-2.5 3 -1.5 7l1 6q0 4 3 7t8 3h197q4 0 6.5 -3t1.5 -7l-1 -6q0 -4 -3 -7t-8 -3h-197q-4 0 -6.5 3z" />
    <glyph glyph-name="imacron" unicode="&#x12b;" horiz-adv-x="171" 
d="M53 10l59 481q0 4 3 7t8 3h9q5 0 7.5 -3t1.5 -7l-59 -481q-2 -10 -11 -10h-10q-10 0 -8 10zM35.5 606q-2.5 3 -1.5 7l1 6q0 4 3 7t8 3h197q4 0 6.5 -3t1.5 -7l-1 -6q0 -4 -3 -7t-8 -3h-197q-4 0 -6.5 3z" />
    <glyph glyph-name="ibreve" unicode="&#x12d;" horiz-adv-x="171" 
d="M53 10l59 481q0 4 3 7t8 3h9q5 0 7.5 -3t1.5 -7l-59 -481q-2 -10 -11 -10h-10q-10 0 -8 10zM76.5 615q-24.5 25 -22.5 63q0 10 10 10h5q9 0 9 -10q0 -28 18 -46t45 -18q28 0 50 18t29 46q3 10 12 10h5q5 0 7 -3t1 -7q-8 -38 -38.5 -63t-68.5 -25q-37 0 -61.5 25z" />
    <glyph glyph-name="Iogonek" unicode="&#x12e;" horiz-adv-x="190" 
d="M64 10l83 680q2 10 11 10h10q10 0 8 -10l-83 -680q-2 -10 -11 -10h-10q-10 0 -8 10zM94 -170q0 -9 -9 -10q-12 -3 -25 -3q-29 0 -47.5 16t-18.5 52q0 61 65 111q5 4 13 4h2q7 0 7 -5q0 -3 -4 -7q-56 -51 -56 -100q0 -24 12 -35.5t31 -11.5q6 0 18 2h3q7 0 7 -6l2 -4v-1
v-2z" />
    <glyph glyph-name="iogonek" unicode="&#x12f;" horiz-adv-x="251" 
d="M106 10l59 481q0 4 3 7t8 3h9q5 0 7.5 -3t1.5 -7l-59 -481q-2 -10 -11 -10h-10q-10 0 -8 10zM168 623q-10 10 -10 27q0 20 13.5 34t33.5 14q18 0 28.5 -12t8.5 -30q-3 -19 -16 -31t-31 -12q-17 0 -27 10zM137 -170q0 -9 -9 -10q-12 -3 -25 -3q-29 0 -47.5 16t-18.5 52
q0 61 65 111q5 4 13 4h2q7 0 7 -5q0 -3 -4 -7q-56 -51 -56 -100q0 -24 12 -35.5t31 -11.5q6 0 18 2h3q7 0 7 -6l2 -4v-1v-2z" />
    <glyph glyph-name="Idotaccent" unicode="&#x130;" horiz-adv-x="224" 
d="M80 10l83 680q2 10 11 10h10q10 0 8 -10l-83 -680q-2 -10 -11 -10h-10q-10 0 -8 10zM165 822q-10 10 -10 27q0 20 13.5 34t33.5 14q18 0 28.5 -12t8.5 -30q-3 -19 -16 -31t-31 -12q-17 0 -27 10z" />
    <glyph glyph-name="dotlessi" unicode="&#x131;" horiz-adv-x="171" 
d="M53 10l59 481q0 4 3 7t8 3h9q5 0 7.5 -3t1.5 -7l-59 -481q-2 -10 -11 -10h-10q-10 0 -8 10z" />
    <glyph glyph-name="ij" unicode="&#x133;" horiz-adv-x="429" 
d="M140.5 623q-9.5 10 -9.5 27q0 20 13.5 34t32.5 14q16 0 26 -10t10 -26q0 -21 -13.5 -35t-33.5 -14q-16 0 -25.5 10zM78.5 3q-2.5 3 -1.5 7l59 481q2 10 11 10h10q4 0 6.5 -3t1.5 -7l-59 -481q-2 -10 -11 -10h-10q-4 0 -6.5 3zM348.5 623.5q-10.5 10.5 -10.5 26.5
q0 20 13.5 34t33.5 14q16 0 26 -10t10 -26q0 -21 -13.5 -35t-32.5 -14q-16 0 -26.5 10.5zM160 -201l1 8q2 10 11 10q43 4 70 33.5t34 80.5l68 560q2 10 11 10h10q10 0 8 -10l-68 -560q-8 -65 -43 -102t-93 -40q-9 0 -9 10z" />
    <glyph glyph-name="Jcircumflex" unicode="&#x134;" horiz-adv-x="477" 
d="M71.5 32.5q-41.5 40.5 -41.5 108.5q0 9 2 29l10 87q2 10 11 10h10q10 0 8 -10l-10 -88q-2 -16 -2 -24q0 -57 34.5 -91t94.5 -34q65 0 110.5 41t53.5 108l63 521q1 4 4 7t7 3h10q9 0 9 -10l-64 -520q-10 -80 -64 -129t-133 -49q-71 0 -112.5 40.5zM347.5 782q-1.5 4 3.5 8
l84 104q5 6 13 6h15q9 0 11 -6l60 -104l2 -5q0 -7 -9 -7h-12q-7 0 -11 6l-48 87q-1 2 -3 2t-3 -2l-72 -87q-4 -6 -12 -6h-11q-6 0 -7.5 4z" />
    <glyph glyph-name="jcircumflex" unicode="&#x135;" horiz-adv-x="203" 
d="M-61 -201l1 8q2 10 11 10q43 4 70 33.5t34 80.5l68 560q2 10 11 10h10q10 0 8 -10l-68 -560q-8 -65 -43 -102t-93 -40q-9 0 -9 10zM54.5 582q-1.5 4 3.5 8l84 104q5 6 13 6h15q9 0 11 -6l60 -104l2 -5q0 -7 -9 -7h-12q-7 0 -11 6l-48 87q-1 2 -3 2t-3 -2l-72 -87
q-4 -6 -12 -6h-11q-6 0 -7.5 4z" />
    <glyph glyph-name="uni0136" unicode="&#x136;" horiz-adv-x="500" 
d="M80 10l83 680q2 10 11 10h10q10 0 8 -10l-45 -368q0 -2 2 -3t3 1l333 374q5 6 13 6h12q6 0 7.5 -3.5t-3.5 -8.5l-234 -266q-2 -4 -1 -6l174 -404l2 -5q0 -7 -10 -7h-14q-7 0 -11 7l-165 383q0 2 -1.5 2t-2.5 -2l-108 -116q-2 -4 -2 -5l-32 -259q-2 -10 -11 -10h-10
q-10 0 -8 10zM194.5 -196.5q-1.5 3.5 1.5 8.5l74 112q5 7 13 7h8q6 0 8 -3.5t-2 -8.5l-77 -112q-5 -7 -12 -7h-6q-6 0 -7.5 3.5z" />
    <glyph glyph-name="uni0137" unicode="&#x137;" horiz-adv-x="417" 
d="M64 10l84 680q2 10 11 10h9q5 0 7.5 -3t1.5 -7l-55 -446q0 -2 2 -2.5t3 1.5l244 252q6 6 13 6h12q6 0 7 -3.5t-3 -8.5l-122 -127q-2 -3 -1 -5l88 -345l1 -3q0 -9 -10 -9h-12q-8 0 -9 8l-81 324q0 2 -2 2.5t-4 -1.5l-130 -135q-2 -4 -2 -5l-23 -183q0 -4 -3 -7t-8 -3h-9
q-9 0 -9 10zM148.5 -196.5q-1.5 3.5 1.5 8.5l74 112q5 7 13 7h8q6 0 8 -3.5t-2 -8.5l-77 -112q-5 -7 -12 -7h-6q-6 0 -7.5 3.5z" />
    <glyph glyph-name="Lacute" unicode="&#x139;" horiz-adv-x="458" 
d="M80 10l83 680q2 10 11 10h10q10 0 8 -10l-80 -658q-1 -1 0 -2.5t3 -1.5h293q10 0 8 -10l-1 -8q0 -4 -3 -7t-8 -3h-316q-10 0 -8 10zM159.5 771.5q-1.5 3.5 1.5 8.5l74 112q5 7 13 7h8q6 0 8 -3.5t-2 -8.5l-77 -112q-5 -7 -12 -7h-6q-6 0 -7.5 3.5z" />
    <glyph glyph-name="lacute" unicode="&#x13a;" horiz-adv-x="188" 
d="M61 10l84 680q2 10 11 10h9q5 0 7.5 -3t1.5 -7l-84 -680q0 -4 -3 -7t-7 -3h-10q-9 0 -9 10zM142.5 771.5q-1.5 3.5 1.5 8.5l74 112q5 7 13 7h8q6 0 8 -3.5t-2 -8.5l-77 -112q-5 -7 -12 -7h-6q-6 0 -7.5 3.5z" />
    <glyph glyph-name="uni013B" unicode="&#x13b;" horiz-adv-x="458" 
d="M80 10l83 680q2 10 11 10h10q10 0 8 -10l-80 -658q-1 -1 0 -2.5t3 -1.5h293q10 0 8 -10l-1 -8q0 -4 -3 -7t-8 -3h-316q-10 0 -8 10zM157.5 -196.5q-1.5 3.5 1.5 8.5l74 112q5 7 13 7h8q6 0 8 -3.5t-2 -8.5l-77 -112q-5 -7 -12 -7h-6q-6 0 -7.5 3.5z" />
    <glyph glyph-name="uni013C" unicode="&#x13c;" horiz-adv-x="188" 
d="M61 10l84 680q2 10 11 10h9q5 0 7.5 -3t1.5 -7l-84 -680q0 -4 -3 -7t-7 -3h-10q-9 0 -9 10zM-30.5 -196.5q-1.5 3.5 1.5 8.5l74 112q5 7 13 7h8q6 0 8 -3.5t-2 -8.5l-77 -112q-5 -7 -12 -7h-6q-6 0 -7.5 3.5z" />
    <glyph glyph-name="Lcaron" unicode="&#x13d;" horiz-adv-x="458" 
d="M80 10l83 680q2 10 11 10h10q10 0 8 -10l-80 -658q-1 -1 0 -2.5t3 -1.5h293q10 0 8 -10l-1 -8q0 -4 -3 -7t-8 -3h-316q-10 0 -8 10zM261.5 572.5q-1.5 3.5 1.5 8.5l74 112q5 7 13 7h8q6 0 8 -3.5t-2 -8.5l-77 -112q-5 -7 -12 -7h-6q-6 0 -7.5 3.5z" />
    <glyph glyph-name="lcaron" unicode="&#x13e;" horiz-adv-x="293" 
d="M61 10l84 680q2 10 11 10h9q5 0 7.5 -3t1.5 -7l-84 -680q0 -4 -3 -7t-7 -3h-10q-9 0 -9 10zM211.5 572.5q-1.5 3.5 1.5 8.5l74 112q5 7 13 7h8q6 0 8 -3.5t-2 -8.5l-77 -112q-5 -7 -12 -7h-6q-6 0 -7.5 3.5z" />
    <glyph glyph-name="ldot" unicode="&#x140;" horiz-adv-x="241" 
d="M88 10l84 680q2 10 11 10h9q5 0 7.5 -3t1.5 -7l-84 -680q0 -4 -3 -7t-7 -3h-10q-9 0 -9 10zM175 821q-10 10 -10 27q0 20 13.5 34t33.5 14q18 0 28.5 -12t8.5 -30q-3 -19 -16 -31t-31 -12q-17 0 -27 10z" />
    <glyph glyph-name="Lslash" unicode="&#x141;" horiz-adv-x="463" 
d="M119 28h294q10 0 8 -10l-1 -8q0 -4 -3 -7t-8 -3h-317q-10 0 -8 10l32 263q0 2 -1.5 3t-3.5 0l-103 -67q-3 -3 -7 -3q-3 0 -6 5l-3 6q-2 4 -2 6q0 5 5 8l123 79q3 3 3 5l46 375q2 10 11 10h10q10 0 8 -10l-43 -351q0 -2 1.5 -3t3.5 0l227 148q3 2 7 2t7 -4l3 -7q1 -2 1 -5
t-6 -8l-245 -160q-4 -2 -4 -5l-33 -265q0 -4 4 -4z" />
    <glyph glyph-name="lslash" unicode="&#x142;" horiz-adv-x="254" 
d="M258 398q0 -5 -7 -9l-88 -53q-4 -1 -4 -5l-39 -321q-1 -4 -4 -7t-7 -3h-10q-9 0 -9 10l37 299q1 2 -0.5 3t-3.5 0l-64 -38q-4 -2 -6 -2q-4 0 -6 5l-3 7q-2 4 -2 5q0 4 6 8l81 49q3 2 3 5l42 339q2 10 11 10h10q4 0 6.5 -3t1.5 -7l-39 -317q0 -2 1.5 -3t3.5 0l72 43
q4 2 6 2q4 0 6 -5l4 -7q1 -2 1 -5z" />
    <glyph glyph-name="Nacute" unicode="&#x143;" horiz-adv-x="565" 
d="M507 697q3 3 8 3h9q5 0 7.5 -3t1.5 -7l-84 -680q0 -4 -3 -7t-8 -3h-12q-10 0 -11 7l-226 621q-2 2 -3.5 1.5t-1.5 -3.5l-75 -616q-2 -10 -11 -10h-10q-10 0 -8 10l83 680q2 10 11 10h12q8 0 11 -7l226 -621q2 -2 3.5 -1.5t1.5 3.5l76 616q0 4 3 7zM332.5 776.5
q-1.5 3.5 1.5 8.5l74 112q5 7 13 7h8q6 0 8 -3.5t-2 -8.5l-77 -112q-5 -7 -12 -7h-6q-6 0 -7.5 3.5z" />
    <glyph glyph-name="nacute" unicode="&#x144;" horiz-adv-x="459" 
d="M375 473.5q33 -34.5 33 -94.5q0 -9 -2 -31l-41 -338q-2 -10 -11 -10h-10q-4 0 -6.5 3t-1.5 7l41 334q2 16 2 24q0 52 -27.5 82t-76.5 30q-56 0 -95 -37.5t-46 -101.5l-41 -331q0 -4 -3 -7t-8 -3h-9q-9 0 -9 10l59 481q2 10 11 10h10q10 0 8 -10l-6 -52q0 -6 4 -2
q22 34 57 52.5t77 18.5q58 0 91 -34.5zM255.5 572.5q-1.5 3.5 1.5 8.5l74 112q5 7 13 7h8q6 0 8 -3.5t-2 -8.5l-77 -112q-5 -7 -12 -7h-6q-6 0 -7.5 3.5z" />
    <glyph glyph-name="uni0145" unicode="&#x145;" horiz-adv-x="565" 
d="M507 697q3 3 8 3h9q5 0 7.5 -3t1.5 -7l-84 -680q0 -4 -3 -7t-8 -3h-12q-10 0 -11 7l-226 621q-2 2 -3.5 1.5t-1.5 -3.5l-75 -616q-2 -10 -11 -10h-10q-10 0 -8 10l83 680q2 10 11 10h12q8 0 11 -7l226 -621q2 -2 3.5 -1.5t1.5 3.5l76 616q0 4 3 7zM204.5 -196.5
q-1.5 3.5 1.5 8.5l74 112q5 7 13 7h8q6 0 8 -3.5t-2 -8.5l-77 -112q-5 -7 -12 -7h-6q-6 0 -7.5 3.5z" />
    <glyph glyph-name="uni0146" unicode="&#x146;" horiz-adv-x="459" 
d="M375 473.5q33 -34.5 33 -94.5q0 -9 -2 -31l-41 -338q-2 -10 -11 -10h-10q-4 0 -6.5 3t-1.5 7l41 334q2 16 2 24q0 52 -27.5 82t-76.5 30q-56 0 -95 -37.5t-46 -101.5l-41 -331q0 -4 -3 -7t-8 -3h-9q-9 0 -9 10l59 481q2 10 11 10h10q10 0 8 -10l-6 -52q0 -6 4 -2
q22 34 57 52.5t77 18.5q58 0 91 -34.5zM159.5 -196.5q-1.5 3.5 1.5 8.5l74 112q5 7 13 7h8q6 0 8 -3.5t-2 -8.5l-77 -112q-5 -7 -12 -7h-6q-6 0 -7.5 3.5z" />
    <glyph glyph-name="Ncaron" unicode="&#x147;" horiz-adv-x="565" 
d="M507 697q3 3 8 3h9q5 0 7.5 -3t1.5 -7l-84 -680q0 -4 -3 -7t-8 -3h-12q-10 0 -11 7l-226 621q-2 2 -3.5 1.5t-1.5 -3.5l-75 -616q-2 -10 -11 -10h-10q-10 0 -8 10l83 680q2 10 11 10h12q8 0 11 -7l226 -621q2 -2 3.5 -1.5t1.5 3.5l76 616q0 4 3 7zM280 897q0 7 9 7h11
q7 0 11 -6l50 -88q1 -1 3 -1t3 1l70 88q4 6 12 6h12q6 0 7.5 -3.5t-3.5 -8.5l-85 -104q-5 -6 -13 -6h-15q-9 0 -11 6l-59 104z" />
    <glyph glyph-name="ncaron" unicode="&#x148;" horiz-adv-x="459" 
d="M375 473.5q33 -34.5 33 -94.5q0 -9 -2 -31l-41 -338q-2 -10 -11 -10h-10q-4 0 -6.5 3t-1.5 7l41 334q2 16 2 24q0 52 -27.5 82t-76.5 30q-56 0 -95 -37.5t-46 -101.5l-41 -331q0 -4 -3 -7t-8 -3h-9q-9 0 -9 10l59 481q2 10 11 10h10q10 0 8 -10l-6 -52q0 -6 4 -2
q22 34 57 52.5t77 18.5q58 0 91 -34.5zM203 693q0 7 9 7h11q7 0 11 -6l50 -88q1 -1 3 -1t3 1l70 88q4 6 12 6h12q6 0 7.5 -3.5t-3.5 -8.5l-85 -104q-5 -6 -13 -6h-15q-9 0 -11 6l-59 104z" />
    <glyph glyph-name="Eng" unicode="&#x14a;" horiz-adv-x="565" 
d="M507 697q3 3 8 3h9q5 0 7.5 -3t1.5 -7l-85 -690q-8 -69 -33.5 -103t-84.5 -36q-10 0 -8 10l1 7q0 10 11 10q43 3 59.5 28.5t24.5 80.5q0 4 -1 5l-228 626q-2 2 -3.5 1.5t-1.5 -3.5l-75 -616q-2 -10 -11 -10h-10q-10 0 -8 10l83 680q2 10 11 10h12q8 0 11 -7l225 -619
q2 -2 3.5 -1.5t1.5 3.5l60 483v4q2 2 2 5l15 122q0 4 3 7z" />
    <glyph glyph-name="eng" unicode="&#x14b;" horiz-adv-x="459" 
d="M375 473.5q33 -34.5 33 -94.5q0 -9 -2 -31l-45 -369q-7 -62 -36.5 -97.5t-83.5 -39.5q-5 0 -7.5 3t-1.5 7l1 7q2 10 11 10q38 4 60.5 33t27.5 76l45 366q2 16 2 24q0 52 -27.5 82t-76.5 30q-56 0 -95 -37.5t-46 -101.5l-41 -331q0 -4 -3 -7t-8 -3h-9q-9 0 -9 10l59 481
q2 10 11 10h10q10 0 8 -10l-6 -52q0 -6 4 -2q22 34 57 52.5t77 18.5q58 0 91 -34.5z" />
    <glyph glyph-name="Omacron" unicode="&#x14c;" horiz-adv-x="518" 
d="M120 36q-44 44 -44 116q0 10 2 30l41 335q10 85 67.5 138t139.5 53q74 0 118.5 -44t44.5 -117q0 -10 -2 -30l-41 -335q-10 -85 -68 -137.5t-140 -52.5q-74 0 -118 44zM359.5 64.5q48.5 44.5 57.5 116.5l41 337q2 18 2 26q0 62 -37.5 99t-100.5 37q-69 0 -117 -44.5
t-57 -117.5l-41 -337q-2 -18 -2 -26q0 -61 37 -98t99 -37q70 0 118.5 44.5zM232.5 805q-2.5 3 -1.5 7l1 6q0 4 3 7t8 3h197q4 0 6.5 -3t1.5 -7l-1 -6q0 -4 -3 -7t-8 -3h-197q-4 0 -6.5 3z" />
    <glyph glyph-name="omacron" unicode="&#x14d;" horiz-adv-x="449" 
d="M104.5 30q-36.5 38 -36.5 100q0 32 7 88l4 33q11 83 18 120q15 62 61.5 100t109.5 38q62 0 99.5 -36.5t37.5 -95.5q0 -27 -8 -105q0 -7 -2 -21q-10 -84 -19 -121q-14 -61 -61 -99.5t-110 -38.5q-64 0 -100.5 38zM299.5 52.5q38.5 32.5 50.5 85.5q2 11 11 83l3 29l5 40
q8 62 8 78q0 51 -30.5 82t-81.5 31q-53 0 -91.5 -32.5t-49.5 -85.5q-6 -31 -12 -82l-4 -31l-5 -43q-6 -58 -7 -69q-1 -53 29 -85.5t83 -32.5t91.5 32.5zM174.5 606q-2.5 3 -1.5 7l1 6q0 4 3 7t8 3h197q4 0 6.5 -3t1.5 -7l-1 -6q0 -4 -3 -7t-8 -3h-197q-4 0 -6.5 3z" />
    <glyph glyph-name="obreve" unicode="&#x14f;" horiz-adv-x="449" 
d="M104.5 30q-36.5 38 -36.5 100q0 32 7 88l4 33q11 83 18 120q15 62 61.5 100t109.5 38q62 0 99.5 -36.5t37.5 -95.5q0 -27 -8 -105q0 -7 -2 -21q-10 -84 -19 -121q-14 -61 -61 -99.5t-110 -38.5q-64 0 -100.5 38zM299.5 52.5q38.5 32.5 50.5 85.5q2 11 11 83l3 29l5 40
q8 62 8 78q0 51 -30.5 82t-81.5 31q-53 0 -91.5 -32.5t-49.5 -85.5q-6 -31 -12 -82l-4 -31l-5 -43q-6 -58 -7 -69q-1 -53 29 -85.5t83 -32.5t91.5 32.5zM215.5 615q-24.5 25 -22.5 63q0 10 10 10h5q9 0 9 -10q0 -28 18 -46t45 -18q28 0 50 18t29 46q3 10 12 10h5q5 0 7 -3
t1 -7q-8 -38 -38.5 -63t-68.5 -25q-37 0 -61.5 25z" />
    <glyph glyph-name="Ohungarumlaut" unicode="&#x150;" horiz-adv-x="518" 
d="M120 36q-44 44 -44 116q0 10 2 30l41 335q10 85 67.5 138t139.5 53q74 0 118.5 -44t44.5 -117q0 -10 -2 -30l-41 -335q-10 -85 -68 -137.5t-140 -52.5q-74 0 -118 44zM359.5 64.5q48.5 44.5 57.5 116.5l41 337q2 18 2 26q0 62 -37.5 99t-100.5 37q-69 0 -117 -44.5
t-57 -117.5l-41 -337q-2 -18 -2 -26q0 -61 37 -98t99 -37q70 0 118.5 44.5zM256.5 771.5q-1.5 3.5 2.5 8.5l73 112q3 7 12 7h9q6 0 7.5 -3.5t-2.5 -8.5l-76 -112q-5 -7 -12 -7h-6q-6 0 -7.5 3.5zM382.5 771.5q-1.5 3.5 2.5 8.5l73 112q3 7 12 7h9q6 0 7.5 -3.5t-2.5 -8.5
l-75 -112q-7 -7 -13 -7h-6q-6 0 -7.5 3.5z" />
    <glyph glyph-name="ohungarumlaut" unicode="&#x151;" horiz-adv-x="449" 
d="M104.5 30q-36.5 38 -36.5 100q0 32 7 88l4 33q11 83 18 120q15 62 61.5 100t109.5 38q62 0 99.5 -36.5t37.5 -95.5q0 -27 -8 -105q0 -7 -2 -21q-10 -84 -19 -121q-14 -61 -61 -99.5t-110 -38.5q-64 0 -100.5 38zM299.5 52.5q38.5 32.5 50.5 85.5q2 11 11 83l3 29l5 40
q8 62 8 78q0 51 -30.5 82t-81.5 31q-53 0 -91.5 -32.5t-49.5 -85.5q-6 -31 -12 -82l-4 -31l-5 -43q-6 -58 -7 -69q-1 -53 29 -85.5t83 -32.5t91.5 32.5zM197.5 572.5q-1.5 3.5 2.5 8.5l73 112q3 7 12 7h9q6 0 7.5 -3.5t-2.5 -8.5l-76 -112q-5 -7 -12 -7h-6q-6 0 -7.5 3.5z
M323.5 572.5q-1.5 3.5 2.5 8.5l73 112q3 7 12 7h9q6 0 7.5 -3.5t-2.5 -8.5l-75 -112q-7 -7 -13 -7h-6q-6 0 -7.5 3.5z" />
    <glyph glyph-name="OE" unicode="&#x152;" horiz-adv-x="775" 
d="M771 672h-279q-3 0 -5 -4l-36 -300q-1 -1 0 -2.5t3 -1.5h186q9 0 9 -10l-1 -7q-2 -10 -11 -10h-186q-3 0 -5 -4l-37 -301q0 -4 4 -4h279q9 0 9 -10l-1 -8q-2 -10 -11 -10h-303q-10 0 -8 10l7 58q0 3 -1.5 3t-3.5 -2q-27 -36 -67 -56.5t-87 -20.5q-69 0 -110 42t-41 111
q0 8 2 28l43 353q10 80 64 131t130 51q47 0 82 -20.5t53 -57.5q1 -2 2.5 -2t2.5 3l7 59q2 10 11 10h303q4 0 6.5 -3t1.5 -7l-1 -8q-2 -10 -11 -10zM343 63q46 43 54 109l44 355q1 8 1 23q0 58 -35.5 94t-94.5 36q-64 0 -109.5 -43t-53.5 -110l-43 -355q-1 -8 -1 -23
q0 -58 34.5 -93.5t91.5 -35.5q66 0 112 43z" />
    <glyph glyph-name="oe" unicode="&#x153;" horiz-adv-x="722" 
d="M565 43q34 23 52 62l2 4q2 6 11 6h8q10 0 7 -12q-20 -50 -63 -80.5t-99 -30.5q-48 0 -80.5 25t-44.5 67q-3 5 -6 0q-23 -42 -62.5 -67t-87.5 -25q-63 0 -99 38t-36 100q1 36 8 97l3 24q10 81 19 120q14 61 60 99.5t108 38.5q48 0 81 -24.5t47 -67.5q2 -5 5 0
q22 42 61.5 67t87.5 25q61 0 98 -38t37 -98q0 -30 -6 -83l-4 -34q-2 -10 -11 -10h-268q-4 0 -4 -4q-11 -74 -11 -111q0 -50 29.5 -80.5t79.5 -30.5q44 0 78 23zM360 251l5 44q6 58 6 75q0 50 -29.5 80.5t-79.5 30.5q-52 0 -89.5 -33t-48.5 -85q-1 -8 -13 -87l-3 -25l-6 -51
q-6 -52 -6 -67q0 -51 29.5 -82t79.5 -31q52 0 90 32.5t49 85.5q4 24 16 113zM454 448q-38 -33 -49 -85q-5 -31 -12 -89q-1 -4 3 -4h244q4 0 5 4l3 31q5 38 5 63q0 50 -30 81.5t-80 31.5q-51 0 -89 -33z" />
    <glyph glyph-name="Racute" unicode="&#x154;" horiz-adv-x="504" 
d="M411 8l-96 327q-1 3 -4 3h-158q-4 0 -4 -4l-40 -324q-2 -10 -11 -10h-10q-10 0 -8 10l83 680q2 10 11 10h185q65 0 102.5 -40.5t37.5 -108.5q0 -11 -2 -33q-8 -71 -49 -118.5t-101 -58.5q-4 -2 -2 -5l94 -324l1 -3q0 -9 -10 -9h-9q-9 0 -10 8zM190 668l-37 -299
q0 -4 3 -4h162q43 0 77.5 23t54.5 64t20 93q0 58 -30.5 92.5t-83.5 34.5h-162q-4 0 -4 -4zM303.5 771.5q-1.5 3.5 1.5 8.5l74 112q5 7 13 7h8q6 0 8 -3.5t-2 -8.5l-77 -112q-5 -7 -12 -7h-6q-6 0 -7.5 3.5z" />
    <glyph glyph-name="racute" unicode="&#x155;" horiz-adv-x="304" 
d="M323 494q3 -1 4 -5t-1 -8l-6 -12q-3 -10 -13 -5q-16 8 -40 8q-51 -1 -89.5 -45.5t-46.5 -109.5l-38 -307q0 -4 -3 -7t-8 -3h-9q-9 0 -9 10l59 481q2 10 11 10h10q10 0 8 -10l-8 -71q-1 -3 0.5 -3t3.5 2q22 41 54.5 63.5t72.5 22.5q29 0 48 -11zM211.5 572.5
q-1.5 3.5 1.5 8.5l74 112q5 7 13 7h8q6 0 8 -3.5t-2 -8.5l-77 -112q-5 -7 -12 -7h-6q-6 0 -7.5 3.5z" />
    <glyph glyph-name="uni0156" unicode="&#x156;" horiz-adv-x="504" 
d="M411 8l-96 327q-1 3 -4 3h-158q-4 0 -4 -4l-40 -324q-2 -10 -11 -10h-10q-10 0 -8 10l83 680q2 10 11 10h185q65 0 102.5 -40.5t37.5 -108.5q0 -11 -2 -33q-8 -71 -49 -118.5t-101 -58.5q-4 -2 -2 -5l94 -324l1 -3q0 -9 -10 -9h-9q-9 0 -10 8zM190 668l-37 -299
q0 -4 3 -4h162q43 0 77.5 23t54.5 64t20 93q0 58 -30.5 92.5t-83.5 34.5h-162q-4 0 -4 -4zM188.5 -196.5q-1.5 3.5 1.5 8.5l74 112q5 7 13 7h8q6 0 8 -3.5t-2 -8.5l-77 -112q-5 -7 -12 -7h-6q-6 0 -7.5 3.5z" />
    <glyph glyph-name="uni0157" unicode="&#x157;" horiz-adv-x="304" 
d="M323 494q3 -1 4 -5t-1 -8l-6 -12q-3 -10 -13 -5q-16 8 -40 8q-51 -1 -89.5 -45.5t-46.5 -109.5l-38 -307q0 -4 -3 -7t-8 -3h-9q-9 0 -9 10l59 481q2 10 11 10h10q10 0 8 -10l-8 -71q-1 -3 0.5 -3t3.5 2q22 41 54.5 63.5t72.5 22.5q29 0 48 -11zM-26.5 -196.5
q-1.5 3.5 1.5 8.5l74 112q5 7 13 7h8q6 0 8 -3.5t-2 -8.5l-77 -112q-5 -7 -12 -7h-6q-6 0 -7.5 3.5z" />
    <glyph glyph-name="Rcaron" unicode="&#x158;" horiz-adv-x="504" 
d="M411 8l-96 327q-1 3 -4 3h-158q-4 0 -4 -4l-40 -324q-2 -10 -11 -10h-10q-10 0 -8 10l83 680q2 10 11 10h185q65 0 102.5 -40.5t37.5 -108.5q0 -11 -2 -33q-8 -71 -49 -118.5t-101 -58.5q-4 -2 -2 -5l94 -324l1 -3q0 -9 -10 -9h-9q-9 0 -10 8zM190 668l-37 -299
q0 -4 3 -4h162q43 0 77.5 23t54.5 64t20 93q0 58 -30.5 92.5t-83.5 34.5h-162q-4 0 -4 -4zM252 892q0 7 9 7h11q7 0 11 -6l50 -88q1 -1 3 -1t3 1l70 88q4 6 12 6h12q6 0 7.5 -3.5t-3.5 -8.5l-85 -104q-5 -6 -13 -6h-15q-9 0 -11 6l-59 104z" />
    <glyph glyph-name="rcaron" unicode="&#x159;" horiz-adv-x="304" 
d="M323 494q3 -1 4 -5t-1 -8l-6 -12q-3 -10 -13 -5q-16 8 -40 8q-51 -1 -89.5 -45.5t-46.5 -109.5l-38 -307q0 -4 -3 -7t-8 -3h-9q-9 0 -9 10l59 481q2 10 11 10h10q10 0 8 -10l-8 -71q-1 -3 0.5 -3t3.5 2q22 41 54.5 63.5t72.5 22.5q29 0 48 -11zM159 693q0 7 9 7h11
q7 0 11 -6l50 -88q1 -1 3 -1t3 1l70 88q4 6 12 6h12q6 0 7.5 -3.5t-3.5 -8.5l-85 -104q-5 -6 -13 -6h-15q-9 0 -11 6l-59 104z" />
    <glyph glyph-name="Sacute" unicode="&#x15a;" horiz-adv-x="475" 
d="M96.5 32q-44.5 40 -44.5 108q0 8 2 26l4 27q0 4 3 7t8 3h8q5 0 7.5 -3t1.5 -7l-3 -26q-1 -8 -1 -22q0 -58 37.5 -92t103.5 -34q76 0 122 45.5t46 119.5q0 48 -32.5 83t-109.5 81q-53 33 -80.5 54.5t-44.5 49.5t-17 67q0 9 2 27q10 78 60.5 120t128.5 42t120.5 -39.5
t42.5 -107.5q0 -8 -2 -28l-3 -25q-2 -10 -11 -10h-9q-5 0 -7.5 3t-1.5 7l3 23q1 8 1 24q0 58 -36 92t-101 34t-107 -35t-50 -100q-1 -7 -1 -21q0 -33 14.5 -56.5t40.5 -42.5t79 -52q82 -51 117 -89.5t35 -93.5q0 -7 -2 -25q-10 -79 -64 -126.5t-138 -47.5q-77 0 -121.5 40z
M278.5 771.5q-1.5 3.5 1.5 8.5l74 112q5 7 13 7h8q6 0 8 -3.5t-2 -8.5l-77 -112q-5 -7 -12 -7h-6q-6 0 -7.5 3.5z" />
    <glyph glyph-name="sacute" unicode="&#x15b;" horiz-adv-x="400" 
d="M89.5 27q-36.5 31 -36.5 78q0 10 1 15l1 10q0 4 3 7t8 3h8q5 0 7.5 -3t1.5 -7l-1 -9q-1 -4 -1 -11q0 -37 29.5 -62.5t79.5 -25.5q56 0 93 34t37 85q0 28 -15 46t-36 28.5t-61 25.5t-64.5 28t-41 35t-16.5 56q0 65 45.5 105t115.5 40q60 0 95 -30.5t35 -79.5q0 -11 -1 -17
v-3q-2 -10 -11 -10h-8q-10 0 -8 10v3q1 4 1 12q0 38 -29 63t-78 25q-56 0 -92 -31.5t-36 -81.5q0 -36 26 -56t79 -40q44 -17 68.5 -30t42.5 -35.5t18 -57.5q0 -66 -45.5 -108t-116.5 -42q-61 0 -97.5 31zM227.5 572.5q-1.5 3.5 1.5 8.5l74 112q5 7 13 7h8q6 0 8 -3.5
t-2 -8.5l-77 -112q-5 -7 -12 -7h-6q-6 0 -7.5 3.5z" />
    <glyph glyph-name="Scircumflex" unicode="&#x15c;" horiz-adv-x="475" 
d="M96.5 32q-44.5 40 -44.5 108q0 8 2 26l4 27q0 4 3 7t8 3h8q5 0 7.5 -3t1.5 -7l-3 -26q-1 -8 -1 -22q0 -58 37.5 -92t103.5 -34q76 0 122 45.5t46 119.5q0 48 -32.5 83t-109.5 81q-53 33 -80.5 54.5t-44.5 49.5t-17 67q0 9 2 27q10 78 60.5 120t128.5 42t120.5 -39.5
t42.5 -107.5q0 -8 -2 -28l-3 -25q-2 -10 -11 -10h-9q-5 0 -7.5 3t-1.5 7l3 23q1 8 1 24q0 58 -36 92t-101 34t-107 -35t-50 -100q-1 -7 -1 -21q0 -33 14.5 -56.5t40.5 -42.5t79 -52q82 -51 117 -89.5t35 -93.5q0 -7 -2 -25q-10 -79 -64 -126.5t-138 -47.5q-77 0 -121.5 40z
M212.5 781q-1.5 4 3.5 8l84 104q5 6 13 6h15q9 0 11 -6l60 -104l2 -5q0 -7 -9 -7h-12q-7 0 -11 6l-48 87q-1 2 -3 2t-3 -2l-72 -87q-4 -6 -12 -6h-11q-6 0 -7.5 4z" />
    <glyph glyph-name="scircumflex" unicode="&#x15d;" horiz-adv-x="400" 
d="M89.5 27q-36.5 31 -36.5 78q0 10 1 15l1 10q0 4 3 7t8 3h8q5 0 7.5 -3t1.5 -7l-1 -9q-1 -4 -1 -11q0 -37 29.5 -62.5t79.5 -25.5q56 0 93 34t37 85q0 28 -15 46t-36 28.5t-61 25.5t-64.5 28t-41 35t-16.5 56q0 65 45.5 105t115.5 40q60 0 95 -30.5t35 -79.5q0 -11 -1 -17
v-3q-2 -10 -11 -10h-8q-10 0 -8 10v3q1 4 1 12q0 38 -29 63t-78 25q-56 0 -92 -31.5t-36 -81.5q0 -36 26 -56t79 -40q44 -17 68.5 -30t42.5 -35.5t18 -57.5q0 -66 -45.5 -108t-116.5 -42q-61 0 -97.5 31zM161.5 582q-1.5 4 3.5 8l84 104q5 6 13 6h15q9 0 11 -6l60 -104l2 -5
q0 -7 -9 -7h-12q-7 0 -11 6l-48 87q-1 2 -3 2t-3 -2l-72 -87q-4 -6 -12 -6h-11q-6 0 -7.5 4z" />
    <glyph glyph-name="Scedilla" unicode="&#x15e;" horiz-adv-x="475" 
d="M361.5 44q-49.5 -47 -126.5 -52q-5 0 -2 -5q36 -36 36 -81q0 -16 -5 -34q-10 -30 -31.5 -44t-48.5 -14q-14 0 -26 3q-8 1 -5 12v1l2 4q3 8 11 6q12 -2 19 -2q19 0 34 10.5t21 32.5q3 10 3 22q0 40 -40 88q-2 2 -5 2q-68 4 -107 44t-39 103q0 8 2 26l4 27q0 4 3 7t8 3h8
q5 0 7.5 -3t1.5 -7l-3 -26q-1 -8 -1 -22q0 -58 37.5 -92t103.5 -34q76 0 122 45.5t46 119.5q0 48 -32.5 83t-109.5 81q-53 33 -80.5 54.5t-44.5 49.5t-17 67q0 9 2 27q10 78 60.5 120t128.5 42t120.5 -39.5t42.5 -107.5q0 -8 -2 -28l-3 -25q-2 -10 -11 -10h-9q-5 0 -7.5 3
t-1.5 7l3 23q1 8 1 24q0 58 -36 92t-101 34t-107 -35t-50 -100q-1 -7 -1 -21q0 -33 14.5 -56.5t40.5 -42.5t79 -52q82 -51 117 -89.5t35 -93.5q0 -7 -2 -25q-9 -75 -58.5 -122z" />
    <glyph glyph-name="scedilla" unicode="&#x15f;" horiz-adv-x="400" 
d="M309.5 45q-39.5 -41 -102.5 -48q-7 -2 -2 -5q36 -36 36 -81q0 -19 -6 -35q-10 -31 -32 -45t-49 -14q-12 0 -24 3q-9 2 -6 12l1 5q4 9 13 7q12 -2 19 -2q41 0 54 42q3 12 3 23q0 42 -39 87q-2 2 -5 2q-54 4 -85.5 35t-31.5 75q0 9 1 14l1 10q0 4 3 7t8 3h8q5 0 7.5 -3
t1.5 -7l-1 -9q-1 -4 -1 -11q0 -37 29.5 -62.5t79.5 -25.5q56 0 93 34t37 85q0 28 -15 46t-36 28.5t-61 25.5t-64.5 28t-41 35t-16.5 56q0 65 45.5 105t115.5 40q60 0 95 -30.5t35 -79.5q0 -11 -1 -17v-3q-2 -10 -11 -10h-8q-10 0 -8 10v3q1 4 1 12q0 38 -29 63t-78 25
q-56 0 -92 -31.5t-36 -81.5q0 -36 26 -56t79 -40q44 -17 68.5 -30t42.5 -35.5t18 -57.5q0 -60 -39.5 -101z" />
    <glyph glyph-name="Scaron" unicode="&#x160;" horiz-adv-x="475" 
d="M96.5 32q-44.5 40 -44.5 108q0 8 2 26l4 27q0 4 3 7t8 3h8q5 0 7.5 -3t1.5 -7l-3 -26q-1 -8 -1 -22q0 -58 37.5 -92t103.5 -34q76 0 122 45.5t46 119.5q0 48 -32.5 83t-109.5 81q-53 33 -80.5 54.5t-44.5 49.5t-17 67q0 9 2 27q10 78 60.5 120t128.5 42t120.5 -39.5
t42.5 -107.5q0 -8 -2 -28l-3 -25q-2 -10 -11 -10h-9q-5 0 -7.5 3t-1.5 7l3 23q1 8 1 24q0 58 -36 92t-101 34t-107 -35t-50 -100q-1 -7 -1 -21q0 -33 14.5 -56.5t40.5 -42.5t79 -52q82 -51 117 -89.5t35 -93.5q0 -7 -2 -25q-10 -79 -64 -126.5t-138 -47.5q-77 0 -121.5 40z
M227 892q0 7 9 7h11q7 0 11 -6l50 -88q1 -1 3 -1t3 1l70 88q4 6 12 6h12q6 0 7.5 -3.5t-3.5 -8.5l-85 -104q-5 -6 -13 -6h-15q-9 0 -11 6l-59 104z" />
    <glyph glyph-name="scaron" unicode="&#x161;" horiz-adv-x="400" 
d="M89.5 27q-36.5 31 -36.5 78q0 10 1 15l1 10q0 4 3 7t8 3h8q5 0 7.5 -3t1.5 -7l-1 -9q-1 -4 -1 -11q0 -37 29.5 -62.5t79.5 -25.5q56 0 93 34t37 85q0 28 -15 46t-36 28.5t-61 25.5t-64.5 28t-41 35t-16.5 56q0 65 45.5 105t115.5 40q60 0 95 -30.5t35 -79.5q0 -11 -1 -17
v-3q-2 -10 -11 -10h-8q-10 0 -8 10v3q1 4 1 12q0 38 -29 63t-78 25q-56 0 -92 -31.5t-36 -81.5q0 -36 26 -56t79 -40q44 -17 68.5 -30t42.5 -35.5t18 -57.5q0 -66 -45.5 -108t-116.5 -42q-61 0 -97.5 31zM176 693q0 7 9 7h11q7 0 11 -6l50 -88q1 -1 3 -1t3 1l70 88q4 6 12 6
h12q6 0 7.5 -3.5t-3.5 -8.5l-85 -104q-5 -6 -13 -6h-15q-9 0 -11 6l-59 104z" />
    <glyph glyph-name="uni0162" unicode="&#x162;" horiz-adv-x="464" 
d="M484 690l-1 -8q0 -4 -3 -7t-8 -3h-163q-2 0 -3.5 -1t-1.5 -3l-81 -658q0 -4 -3 -7t-8 -3h-9q-9 0 -9 10l81 658q0 4 -3 4h-155q-4 0 -6.5 3t-1.5 7l1 8q2 10 11 10h355q10 0 8 -10zM153 -168v1l2 4q3 7 12 6q12 -2 18 -2q42 0 54 43q3 12 3 23q0 40 -34 81q-4 4 -3.5 8
t5.5 4h6q8 0 12 -4q40 -39 40 -86q0 -20 -5 -34q-10 -31 -32 -45t-49 -14q-12 0 -24 3q-9 2 -5 12z" />
    <glyph glyph-name="uni0163" unicode="&#x163;" horiz-adv-x="294" 
d="M192 -1.5q-1 -1.5 0 -3.5q26 -31 26 -69q0 -16 -5 -34q-9 -30 -30.5 -44t-48.5 -14q-14 0 -26 3q-10 1 -5 12v1l2 4q3 8 11 6q12 -2 19 -2q42 0 54 43q3 10 3 22q0 39 -32 78l-4 3q-30 7 -45.5 27.5t-15.5 60.5q0 8 2 32l42 346q0 4 -3 4h-50q-4 0 -6.5 3t-1.5 7l1 7
q0 4 3 7t8 3h49q4 0 4 4l14 112q2 10 11 10h10q10 0 8 -10l-13 -112q-1 -1 0 -2.5t3 -1.5h101q10 0 8 -10l-1 -7q0 -4 -3 -7t-7 -3h-101q-3 0 -5 -4l-42 -343q-2 -20 -2 -27q0 -40 19 -56t60 -16h16q10 0 8 -10l-1 -8q0 -4 -3 -7t-8 -3h-20q-2 0 -3 -1.5z" />
    <glyph glyph-name="Tcaron" unicode="&#x164;" horiz-adv-x="464" 
d="M484 690l-1 -8q0 -4 -3 -7t-8 -3h-163q-2 0 -3.5 -1t-1.5 -3l-81 -658q0 -4 -3 -7t-8 -3h-9q-9 0 -9 10l81 658q0 4 -3 4h-155q-4 0 -6.5 3t-1.5 7l1 8q2 10 11 10h355q10 0 8 -10zM224 889q0 7 9 7h11q7 0 11 -6l50 -88q1 -1 3 -1t3 1l70 88q4 6 12 6h12q6 0 7.5 -3.5
t-3.5 -8.5l-85 -104q-5 -6 -13 -6h-15q-9 0 -11 6l-59 104z" />
    <glyph glyph-name="tcaron" unicode="&#x165;" horiz-adv-x="294" 
d="M281 477q-3 -3 -7 -3h-101q-3 0 -5 -4l-42 -343q-2 -20 -2 -27q0 -40 19 -56t60 -16h16q10 0 8 -10l-1 -8q0 -4 -3 -7t-8 -3h-18q-50 0 -76 20t-26 72q0 20 2 32l42 346q0 4 -3 4h-50q-4 0 -6.5 3t-1.5 7l1 7q0 4 3 7t8 3h49q4 0 4 4l14 112q2 10 11 10h10q10 0 8 -10
l-13 -112q-1 -1 0 -2.5t3 -1.5h101q10 0 8 -10l-1 -7q0 -4 -3 -7zM228.5 572.5q-1.5 3.5 1.5 8.5l74 112q5 7 13 7h8q6 0 8 -3.5t-2 -8.5l-77 -112q-5 -7 -12 -7h-6q-6 0 -7.5 3.5z" />
    <glyph glyph-name="Tbar" unicode="&#x166;" horiz-adv-x="464" 
d="M480 675q-3 -3 -8 -3h-163q-2 0 -3.5 -1t-1.5 -3l-29 -241q-1 -1 0 -2.5t3 -1.5h103q10 0 8 -10v-5q-2 -10 -11 -10h-103q-4 0 -4 -4l-48 -384q0 -4 -3 -7t-8 -3h-9q-9 0 -9 10l47 384q1 1 0 2.5t-3 1.5h-109q-4 0 -6.5 3t-1.5 7l1 5q0 4 3 7t7 3h109q4 0 4 4l30 241
q0 4 -3 4h-155q-4 0 -6.5 3t-1.5 7l1 8q2 10 11 10h355q10 0 8 -10l-1 -8q0 -4 -3 -7z" />
    <glyph glyph-name="tbar" unicode="&#x167;" horiz-adv-x="294" 
d="M281 477q-3 -3 -7 -3h-101q-3 0 -5 -4l-14 -119q-1 -1 0 -2.5t3 -1.5h99q10 0 8 -10v-5q-2 -10 -11 -10h-99q-4 0 -4 -4l-24 -191q-2 -20 -2 -27q0 -40 19 -56t60 -16h16q10 0 8 -10l-1 -8q0 -4 -3 -7t-8 -3h-18q-50 0 -76 20t-26 72q0 20 2 32l24 194q0 4 -4 4h-44
q-5 0 -7.5 3t-1.5 7l1 5q0 4 3 7t8 3h44q3 0 5 4l14 119q0 4 -3 4h-50q-4 0 -6.5 3t-1.5 7l1 7q0 4 3 7t8 3h49q4 0 4 4l14 112q2 10 11 10h10q10 0 8 -10l-13 -112q-1 -1 0 -2.5t3 -1.5h101q10 0 8 -10l-1 -7q0 -4 -3 -7z" />
    <glyph glyph-name="Utilde" unicode="&#x168;" horiz-adv-x="550" 
d="M135.5 37.5q-43.5 45.5 -43.5 122.5q0 10 2 32l62 498q0 4 3 7t7 3h10q9 0 9 -10l-62 -502q-2 -18 -2 -27q0 -64 37 -102.5t100 -38.5q70 0 118.5 46.5t57.5 121.5l62 502q2 10 11 10h10q4 0 6.5 -3t1.5 -7l-61 -498q-11 -90 -69 -145t-141 -55q-75 0 -118.5 45.5z
M387.5 826.5q-11.5 6.5 -24.5 17.5t-22 16t-22 5q-16 0 -27.5 -5.5t-26.5 -22.5q-6 -8 -14 -2l-2 2q-4 3 -4 6q0 4 3 8q33 41 74 41q15 0 26 -5.5t27 -17.5q15 -12 24 -17t20 -5q29 0 53 31q3 4 7 5t7 -1l4 -2q3 -1 3 -6t-6 -14q-16 -20 -36 -30t-37 -10q-15 0 -26.5 6.5z
" />
    <glyph glyph-name="utilde" unicode="&#x169;" horiz-adv-x="458" 
d="M398 501h10q10 0 8 -10l-59 -481q-2 -10 -11 -10h-9q-5 0 -7.5 3t-1.5 7l6 48q1 3 -1 3.5t-3 -2.5q-22 -32 -56 -49t-75 -17q-59 0 -93.5 33t-34.5 94q0 8 2 28l43 343q0 4 3 7t8 3h9q9 0 9 -10l-42 -337q-1 -9 -1 -24q0 -52 27.5 -80.5t75.5 -28.5q57 0 95.5 37.5
t46.5 101.5l40 331q2 10 11 10zM316.5 627.5q-11.5 6.5 -24.5 17.5t-22 16t-22 5q-16 0 -27.5 -5.5t-26.5 -22.5q-6 -8 -14 -2l-2 2q-4 3 -4 6q0 4 3 8q33 41 74 41q15 0 26 -5.5t27 -17.5q15 -12 24 -17t20 -5q29 0 53 31q3 4 7 5t7 -1l4 -2q3 -1 3 -6t-6 -14
q-16 -20 -36 -30t-37 -10q-15 0 -26.5 6.5z" />
    <glyph glyph-name="Umacron" unicode="&#x16a;" horiz-adv-x="550" 
d="M135.5 37.5q-43.5 45.5 -43.5 122.5q0 10 2 32l62 498q0 4 3 7t7 3h10q9 0 9 -10l-62 -502q-2 -18 -2 -27q0 -64 37 -102.5t100 -38.5q70 0 118.5 46.5t57.5 121.5l62 502q2 10 11 10h10q4 0 6.5 -3t1.5 -7l-61 -498q-11 -90 -69 -145t-141 -55q-75 0 -118.5 45.5z
M248.5 805q-2.5 3 -1.5 7l1 6q0 4 3 7t8 3h197q4 0 6.5 -3t1.5 -7l-1 -6q0 -4 -3 -7t-8 -3h-197q-4 0 -6.5 3z" />
    <glyph glyph-name="umacron" unicode="&#x16b;" horiz-adv-x="458" 
d="M398 501h10q10 0 8 -10l-59 -481q-2 -10 -11 -10h-9q-5 0 -7.5 3t-1.5 7l6 48q1 3 -1 3.5t-3 -2.5q-22 -32 -56 -49t-75 -17q-59 0 -93.5 33t-34.5 94q0 8 2 28l43 343q0 4 3 7t8 3h9q9 0 9 -10l-42 -337q-1 -9 -1 -24q0 -52 27.5 -80.5t75.5 -28.5q57 0 95.5 37.5
t46.5 101.5l40 331q2 10 11 10zM177.5 606q-2.5 3 -1.5 7l1 6q0 4 3 7t8 3h197q4 0 6.5 -3t1.5 -7l-1 -6q0 -4 -3 -7t-8 -3h-197q-4 0 -6.5 3z" />
    <glyph glyph-name="Ubreve" unicode="&#x16c;" horiz-adv-x="550" 
d="M135.5 37.5q-43.5 45.5 -43.5 122.5q0 10 2 32l62 498q0 4 3 7t7 3h10q9 0 9 -10l-62 -502q-2 -18 -2 -27q0 -64 37 -102.5t100 -38.5q70 0 118.5 46.5t57.5 121.5l62 502q2 10 11 10h10q4 0 6.5 -3t1.5 -7l-61 -498q-11 -90 -69 -145t-141 -55q-75 0 -118.5 45.5z
M289.5 814q-24.5 25 -22.5 63q0 10 10 10h5q9 0 9 -10q0 -28 18 -46t45 -18q28 0 50 18t29 46q3 10 12 10h5q5 0 7 -3t1 -7q-8 -38 -38.5 -63t-68.5 -25q-37 0 -61.5 25z" />
    <glyph glyph-name="ubreve" unicode="&#x16d;" horiz-adv-x="458" 
d="M398 501h10q10 0 8 -10l-59 -481q-2 -10 -11 -10h-9q-5 0 -7.5 3t-1.5 7l6 48q1 3 -1 3.5t-3 -2.5q-22 -32 -56 -49t-75 -17q-59 0 -93.5 33t-34.5 94q0 8 2 28l43 343q0 4 3 7t8 3h9q9 0 9 -10l-42 -337q-1 -9 -1 -24q0 -52 27.5 -80.5t75.5 -28.5q57 0 95.5 37.5
t46.5 101.5l40 331q2 10 11 10zM218.5 615q-24.5 25 -22.5 63q0 10 10 10h5q9 0 9 -10q0 -28 18 -46t45 -18q28 0 50 18t29 46q3 10 12 10h5q5 0 7 -3t1 -7q-8 -38 -38.5 -63t-68.5 -25q-37 0 -61.5 25z" />
    <glyph glyph-name="Uring" unicode="&#x16e;" horiz-adv-x="550" 
d="M135.5 37.5q-43.5 45.5 -43.5 122.5q0 10 2 32l62 498q0 4 3 7t7 3h10q9 0 9 -10l-62 -502q-2 -18 -2 -27q0 -64 37 -102.5t100 -38.5q70 0 118.5 46.5t57.5 121.5l62 502q2 10 11 10h10q4 0 6.5 -3t1.5 -7l-61 -498q-11 -90 -69 -145t-141 -55q-75 0 -118.5 45.5z
M291 811.5q-24 24.5 -24 61.5q0 30 15 55.5t40 41t53 15.5q37 0 61 -24.5t24 -61.5q0 -30 -15.5 -55.5t-40.5 -41t-53 -15.5q-36 0 -60 24.5zM411 836.5q25 24.5 25 58.5q0 28 -18.5 46.5t-45.5 18.5q-32 0 -56.5 -24.5t-24.5 -59.5q0 -28 18 -46t45 -18q32 0 57 24.5z" />
    <glyph glyph-name="uring" unicode="&#x16f;" horiz-adv-x="458" 
d="M398 501h10q10 0 8 -10l-59 -481q-2 -10 -11 -10h-9q-5 0 -7.5 3t-1.5 7l6 48q1 3 -1 3.5t-3 -2.5q-22 -32 -56 -49t-75 -17q-59 0 -93.5 33t-34.5 94q0 8 2 28l43 343q0 4 3 7t8 3h9q9 0 9 -10l-42 -337q-1 -9 -1 -24q0 -52 27.5 -80.5t75.5 -28.5q57 0 95.5 37.5
t46.5 101.5l40 331q2 10 11 10zM220 612.5q-24 24.5 -24 61.5q0 30 15 55.5t40 41t53 15.5q37 0 61 -24.5t24 -61.5q0 -30 -15.5 -55.5t-40.5 -41t-53 -15.5q-36 0 -60 24.5zM340 637.5q25 24.5 25 58.5q0 28 -18.5 46.5t-45.5 18.5q-32 0 -56.5 -24.5t-24.5 -59.5
q0 -28 18 -46t45 -18q32 0 57 24.5z" />
    <glyph glyph-name="Uhungarumlaut" unicode="&#x170;" horiz-adv-x="550" 
d="M135.5 37.5q-43.5 45.5 -43.5 122.5q0 10 2 32l62 498q0 4 3 7t7 3h10q9 0 9 -10l-62 -502q-2 -18 -2 -27q0 -64 37 -102.5t100 -38.5q70 0 118.5 46.5t57.5 121.5l62 502q2 10 11 10h10q4 0 6.5 -3t1.5 -7l-61 -498q-11 -90 -69 -145t-141 -55q-75 0 -118.5 45.5z
M272.5 771.5q-1.5 3.5 2.5 8.5l73 112q3 7 12 7h9q6 0 7.5 -3.5t-2.5 -8.5l-76 -112q-5 -7 -12 -7h-6q-6 0 -7.5 3.5zM398.5 771.5q-1.5 3.5 2.5 8.5l73 112q3 7 12 7h9q6 0 7.5 -3.5t-2.5 -8.5l-75 -112q-7 -7 -13 -7h-6q-6 0 -7.5 3.5z" />
    <glyph glyph-name="uhungarumlaut" unicode="&#x171;" horiz-adv-x="458" 
d="M398 501h10q10 0 8 -10l-59 -481q-2 -10 -11 -10h-9q-5 0 -7.5 3t-1.5 7l6 48q1 3 -1 3.5t-3 -2.5q-22 -32 -56 -49t-75 -17q-59 0 -93.5 33t-34.5 94q0 8 2 28l43 343q0 4 3 7t8 3h9q9 0 9 -10l-42 -337q-1 -9 -1 -24q0 -52 27.5 -80.5t75.5 -28.5q57 0 95.5 37.5
t46.5 101.5l40 331q2 10 11 10zM200.5 572.5q-1.5 3.5 2.5 8.5l73 112q3 7 12 7h9q6 0 7.5 -3.5t-2.5 -8.5l-76 -112q-5 -7 -12 -7h-6q-6 0 -7.5 3.5zM326.5 572.5q-1.5 3.5 2.5 8.5l73 112q3 7 12 7h9q6 0 7.5 -3.5t-2.5 -8.5l-75 -112q-7 -7 -13 -7h-6q-6 0 -7.5 3.5z" />
    <glyph glyph-name="Uogonek" unicode="&#x172;" horiz-adv-x="550" 
d="M507 700h10q4 0 6.5 -3t1.5 -7l-61 -498q-10 -87 -65.5 -142t-134.5 -58q-3 0 -5 -2q-53 -49 -53 -97q0 -24 12 -35.5t31 -11.5q6 0 18 2h3q7 0 8 -8l1 -3v-2q0 -8 -9 -10q-12 -3 -25 -3q-28 0 -47 15t-19 48q0 57 51 104q5 3 -1 5q-64 8 -100.5 52t-36.5 114q0 10 2 32
l62 498q0 4 3 7t7 3h10q9 0 9 -10l-62 -502q-2 -18 -2 -27q0 -64 37 -102.5t100 -38.5q70 0 118.5 46.5t57.5 121.5l62 502q2 10 11 10z" />
    <glyph glyph-name="uogonek" unicode="&#x173;" horiz-adv-x="458" 
d="M350 -157q7 0 8 -8l1 -3v-2q0 -8 -9 -10q-12 -3 -25 -3q-28 0 -47 15.5t-19 49.5q0 64 68 116q2 1 1 4v8l6 48q1 3 -1 3.5t-3 -2.5q-22 -32 -56 -49t-75 -17q-59 0 -93.5 33t-34.5 94q0 8 2 28l43 343q0 4 3 7t8 3h9q9 0 9 -10l-42 -337q-1 -9 -1 -24q0 -52 27.5 -80.5
t75.5 -28.5q57 0 95.5 37.5t46.5 101.5l40 331q2 10 11 10h10q10 0 8 -10l-59 -484q-1 -6 -7 -12q-65 -59 -65 -109q0 -23 12 -34t31 -11q7 0 19 2h3z" />
    <glyph glyph-name="Wcircumflex" unicode="&#x174;" horiz-adv-x="711" 
d="M173 9l-76 680v2q0 9 9 9h11q8 0 10 -9l67 -623q0 -3 1.5 -3t2.5 3l206 623q3 9 12 9h11q10 0 10 -9l55 -623q1 -3 2.5 -3t2.5 3l217 623q4 9 12 9h11q5 0 6.5 -3t-0.5 -8l-240 -680q-4 -9 -12 -9h-12q-9 0 -9 9l-55 625q0 3 -1 3t-2 -3l-207 -625q-3 -9 -12 -9h-11
q-9 0 -9 9zM338.5 781q-1.5 4 3.5 8l84 104q5 6 13 6h15q9 0 11 -6l60 -104l2 -5q0 -7 -9 -7h-12q-7 0 -11 6l-48 87q-1 2 -3 2t-3 -2l-72 -87q-4 -6 -12 -6h-11q-6 0 -7.5 4z" />
    <glyph glyph-name="wcircumflex" unicode="&#x175;" horiz-adv-x="584" 
d="M133 9l-59 481v2q0 9 9 9h10q9 0 9 -9l50 -443q1 -3 2 -3t2 3l160 443q2 9 11 9h11q9 0 10 -9l52 -442q0 -3 1.5 -3t2.5 3l160 442q3 9 12 9h9q12 0 7 -11l-179 -481q-1 -9 -11 -9h-12q-8 0 -10 9l-53 430q0 2 -1 2.5t-2 -2.5l-158 -430q-3 -9 -12 -9h-11q-10 0 -10 9z
M248.5 582q-1.5 4 3.5 8l84 104q5 6 13 6h15q9 0 11 -6l60 -104l2 -5q0 -7 -9 -7h-12q-7 0 -11 6l-48 87q-1 2 -3 2t-3 -2l-72 -87q-4 -6 -12 -6h-11q-6 0 -7.5 4z" />
    <glyph glyph-name="Ycircumflex" unicode="&#x176;" horiz-adv-x="452" 
d="M193 10l40 322q0 4 -1 5l-123 351l-1 4q0 8 9 8h10q9 0 10 -7l112 -324q1 -2 3 -2t3 2l191 324q3 7 12 7h10q5 0 6.5 -3.5t-1.5 -8.5l-209 -351q-2 -1 -2 -5l-40 -322q0 -4 -3 -7t-8 -3h-9q-9 0 -9 10zM208.5 781q-1.5 4 3.5 8l84 104q5 6 13 6h15q9 0 11 -6l60 -104
l2 -5q0 -7 -9 -7h-12q-7 0 -11 6l-48 87q-1 2 -3 2t-3 -2l-72 -87q-4 -6 -12 -6h-11q-6 0 -7.5 4z" />
    <glyph glyph-name="ycircumflex" unicode="&#x177;" horiz-adv-x="374" 
d="M5 -197q-2 3 -1 7l1 7q0 4 3 7t8 3h3q32 1 50.5 14t36 46.5t47.5 109.5q1 2 1 6l-87 487v2q0 9 9 9h10q8 0 10 -8l76 -447q0 -2 2 -2t3 2l183 447q5 8 12 8h10q5 0 7 -3t0 -8l-230 -549q-26 -62 -46 -91.5t-41.5 -39.5t-56.5 -10h-6q-2 0 -4 3zM144.5 582q-1.5 4 3.5 8
l84 104q5 6 13 6h15q9 0 11 -6l60 -104l2 -5q0 -7 -9 -7h-12q-7 0 -11 6l-48 87q-1 2 -3 2t-3 -2l-72 -87q-4 -6 -12 -6h-11q-6 0 -7.5 4z" />
    <glyph glyph-name="Ydieresis" unicode="&#x178;" horiz-adv-x="452" 
d="M193 10l40 322q0 4 -1 5l-123 351l-1 4q0 8 9 8h10q9 0 10 -7l112 -324q1 -2 3 -2t3 2l191 324q3 7 12 7h10q5 0 6.5 -3.5t-1.5 -8.5l-209 -351q-2 -1 -2 -5l-40 -322q0 -4 -3 -7t-8 -3h-9q-9 0 -9 10zM349 822q-10 10 -10 27q0 20 13.5 34t33.5 14q18 0 28.5 -12
t8.5 -30q-3 -19 -16 -31t-31 -12q-17 0 -27 10zM211 822q-10 10 -10 27q0 20 13.5 34t33.5 14q18 0 28.5 -12t8.5 -30q-3 -19 -16 -31t-31 -12q-17 0 -27 10z" />
    <glyph glyph-name="Zacute" unicode="&#x179;" horiz-adv-x="451" 
d="M27 10l2 11q0 3 4 13l394 633q3 5 -2 5h-307q-4 0 -6.5 3t-1.5 7l1 8q2 10 11 10h333q4 0 6.5 -3t1.5 -7l-1 -11q-2 -8 -5 -13l-393 -633q-2 -5 2 -5h306q9 0 9 -10l-1 -8q-1 -4 -4 -7t-7 -3h-333q-9 0 -9 10zM268.5 771.5q-1.5 3.5 1.5 8.5l74 112q5 7 13 7h8
q6 0 8 -3.5t-2 -8.5l-77 -112q-5 -7 -12 -7h-6q-6 0 -7.5 3.5z" />
    <glyph glyph-name="zacute" unicode="&#x17a;" horiz-adv-x="383" 
d="M22 10l1 11q0 3 5 13l319 434q2 1 1 3t-3 2h-255q-10 0 -8 10l1 8q0 4 3 7t8 3h284q10 0 8 -10l-1 -11q-2 -8 -6 -13l-320 -434q-1 -1 0 -3t3 -2h256q10 0 8 -10l-1 -8q-2 -10 -11 -10h-284q-10 0 -8 10zM216.5 572.5q-1.5 3.5 1.5 8.5l74 112q5 7 13 7h8q6 0 8 -3.5
t-2 -8.5l-77 -112q-5 -7 -12 -7h-6q-6 0 -7.5 3.5z" />
    <glyph glyph-name="Zdotaccent" unicode="&#x17b;" horiz-adv-x="451" 
d="M27 10l2 11q0 3 4 13l394 633q3 5 -2 5h-307q-4 0 -6.5 3t-1.5 7l1 8q2 10 11 10h333q4 0 6.5 -3t1.5 -7l-1 -11q-2 -8 -5 -13l-393 -633q-2 -5 2 -5h306q9 0 9 -10l-1 -8q-1 -4 -4 -7t-7 -3h-333q-9 0 -9 10zM273 822q-10 10 -10 27q0 20 13.5 34t33.5 14q18 0 28.5 -12
t8.5 -30q-3 -19 -16 -31t-31 -12q-17 0 -27 10z" />
    <glyph glyph-name="zdotaccent" unicode="&#x17c;" horiz-adv-x="383" 
d="M22 10l1 11q0 3 5 13l319 434q2 1 1 3t-3 2h-255q-10 0 -8 10l1 8q0 4 3 7t8 3h284q10 0 8 -10l-1 -11q-2 -8 -6 -13l-320 -434q-1 -1 0 -3t3 -2h256q10 0 8 -10l-1 -8q-2 -10 -11 -10h-284q-10 0 -8 10zM221 623q-10 10 -10 27q0 20 13.5 34t33.5 14q18 0 28.5 -12
t8.5 -30q-3 -19 -16 -31t-31 -12q-17 0 -27 10z" />
    <glyph glyph-name="Zcaron" unicode="&#x17d;" horiz-adv-x="451" 
d="M27 10l2 11q0 3 4 13l394 633q3 5 -2 5h-307q-4 0 -6.5 3t-1.5 7l1 8q2 10 11 10h333q4 0 6.5 -3t1.5 -7l-1 -11q-2 -8 -5 -13l-393 -633q-2 -5 2 -5h306q9 0 9 -10l-1 -8q-1 -4 -4 -7t-7 -3h-333q-9 0 -9 10zM217 892q0 7 9 7h11q7 0 11 -6l50 -88q1 -1 3 -1t3 1l70 88
q4 6 12 6h12q6 0 7.5 -3.5t-3.5 -8.5l-85 -104q-5 -6 -13 -6h-15q-9 0 -11 6l-59 104z" />
    <glyph glyph-name="zcaron" unicode="&#x17e;" horiz-adv-x="383" 
d="M22 10l1 11q0 3 5 13l319 434q2 1 1 3t-3 2h-255q-10 0 -8 10l1 8q0 4 3 7t8 3h284q10 0 8 -10l-1 -11q-2 -8 -6 -13l-320 -434q-1 -1 0 -3t3 -2h256q10 0 8 -10l-1 -8q-2 -10 -11 -10h-284q-10 0 -8 10zM165 693q0 7 9 7h11q7 0 11 -6l50 -88q1 -1 3 -1t3 1l70 88
q4 6 12 6h12q6 0 7.5 -3.5t-3.5 -8.5l-85 -104q-5 -6 -13 -6h-15q-9 0 -11 6l-59 104z" />
    <glyph glyph-name="uni018F" unicode="&#x18f;" horiz-adv-x="509" 
d="M455 328l-3 -26q-12 -95 -21 -144q-17 -74 -71.5 -121t-128.5 -47q-76 0 -119.5 47.5t-40.5 122.5q1 25 4 54t10 82q2 11 11 11h324q4 0 4 4q13 89 13 137q0 61 -36 99t-98 38q-55 0 -97.5 -30t-63.5 -80q-3 -9 -12 -8l-9 1q-4 1 -6 4t0 7q23 61 74.5 97.5t117.5 36.5
q73 0 116 -45.5t43 -119.5q0 -37 -11 -120zM344.5 59q46.5 41 58.5 106q8 35 17 111q0 4 -3 4h-301q-4 0 -5 -4l-4 -41q-7 -68 -7 -79q0 -61 36.5 -99.5t97.5 -38.5q64 0 110.5 41z" />
    <glyph glyph-name="florin" unicode="&#x192;" horiz-adv-x="486" 
d="M357 643q22 34 55.5 47.5t88.5 14.5q9 0 8 -10l-1 -8q-1 -10 -12 -10h-19q-55 0 -83 -32.5t-48 -101.5l-45 -165q-1 -1 0 -2.5t2 -1.5h89q9 0 9 -10l-1 -7q-2 -10 -11 -10h-93q-5 0 -6 -4l-106 -388q-18 -64 -40 -98t-55.5 -47.5t-88.5 -14.5q-10 0 -8 10l1 8
q0 5 3.5 7.5t7.5 2.5h21q54 0 82.5 32.5t47.5 101.5l106 386q1 1 0 2.5t-2 1.5h-68q-10 0 -8 10v7q1 4 4 7t7 3h73q5 0 5 4l46 167q17 64 39 98z" />
    <glyph glyph-name="Ohorn" unicode="&#x1a0;" horiz-adv-x="518" 
d="M120 36q-44 44 -44 116q0 10 2 30l41 335q10 85 67.5 138t139.5 53q74 0 118.5 -44t44.5 -117q0 -10 -2 -30l-41 -335q-10 -85 -68 -137.5t-140 -52.5q-74 0 -118 44zM359.5 64.5q48.5 44.5 57.5 116.5l41 337q2 18 2 26q0 62 -37.5 99t-100.5 37q-69 0 -117 -44.5
t-57 -117.5l-41 -337q-2 -18 -2 -26q0 -61 37 -98t99 -37q70 0 118.5 44.5zM467 677q-7 0 -7 9l1 4q2 10 11 11q24 3 43.5 21t25.5 45q3 10 12 10h6q10 0 8 -11q-8 -36 -35.5 -61t-62.5 -28h-2z" />
    <glyph glyph-name="ohorn" unicode="&#x1a1;" horiz-adv-x="449" 
d="M400.5 303q-4.5 -42 -5.5 -52q-10 -84 -19 -121q-14 -61 -61 -99.5t-110 -38.5q-64 0 -100.5 38t-36.5 100q0 32 7 88l4 33q11 83 18 120q15 62 61.5 100t109.5 38q24 0 50 -7q1 -1 4 -1q27 2 47.5 20.5t27.5 46.5q1 10 12 10h5q5 0 7 -3t1 -7q-5 -27 -22.5 -48.5
t-41.5 -32.5q-5 -2 -2 -5q49 -38 49 -104q0 -33 -4.5 -75zM361 221l3 29l5 40q8 62 8 78q0 51 -30.5 82t-81.5 31q-53 0 -91.5 -32.5t-49.5 -85.5q-6 -31 -12 -82l-4 -31l-5 -43q-6 -58 -7 -69q-1 -53 29 -85.5t83 -32.5t91.5 32.5t50.5 85.5q2 11 11 83z" />
    <glyph glyph-name="Uhorn" unicode="&#x1af;" horiz-adv-x="550" 
d="M135.5 37.5q-43.5 45.5 -43.5 122.5q0 10 2 32l62 498q0 4 3 7t7 3h10q9 0 9 -10l-62 -502q-2 -18 -2 -27q0 -64 37 -102.5t100 -38.5q70 0 118.5 46.5t57.5 121.5l62 502q2 10 11 10h10q4 0 6.5 -3t1.5 -7l-61 -498q-11 -90 -69 -145t-141 -55q-75 0 -118.5 45.5z
M538 677q-7 0 -7 9l1 4q2 10 11 11q24 3 43.5 21t25.5 45q3 10 12 10h6q10 0 8 -11q-8 -36 -35.5 -61t-62.5 -28h-2z" />
    <glyph glyph-name="uhorn" unicode="&#x1b0;" horiz-adv-x="458" 
d="M504 568q-7 -34 -30.5 -58t-54.5 -30q-3 -1 -5 -5l-57 -465q-2 -10 -11 -10h-9q-5 0 -7.5 3t-1.5 7l6 48q1 3 -1 3.5t-3 -2.5q-22 -32 -56 -49t-75 -17q-59 0 -93.5 33t-34.5 94q0 8 2 28l43 343q0 4 3 7t8 3h9q9 0 9 -10l-42 -337q-1 -9 -1 -24q0 -52 27.5 -80.5
t75.5 -28.5q57 0 95.5 37.5t46.5 101.5l40 331q2 10 11 10h1q27 0 50 18.5t30 48.5q3 10 12 10h5q10 0 8 -10z" />
    <glyph glyph-name="uni01CD" unicode="&#x1cd;" horiz-adv-x="454" 
d="M381 8l-20 141q-1 3 -5 3h-261q-4 0 -5 -3l-54 -140q-4 -9 -12 -9h-8q-5 0 -7.5 3t-0.5 8l266 681q3 8 12 8h13q10 0 10 -8l102 -681v-2q0 -4 -3 -6.5t-7 -2.5h-10q-8 0 -10 8zM104 180.5q1 -1.5 3 -1.5h245q2 0 3.5 1.5t0.5 2.5l-67 465q-2 5 -5 0l-180 -465
q-1 -1 0 -2.5zM222 889q0 7 9 7h11q7 0 11 -6l50 -88q1 -1 3 -1t3 1l70 88q4 6 12 6h12q6 0 7.5 -3.5t-3.5 -8.5l-85 -104q-5 -6 -13 -6h-15q-9 0 -11 6l-59 104z" />
    <glyph glyph-name="uni01CE" unicode="&#x1ce;" 
d="M398 501h10q10 0 8 -10l-59 -481q-2 -10 -11 -10h-9q-5 0 -7.5 3t-1.5 7l7 54q0 3 -1.5 3t-3.5 -2q-22 -34 -56 -53.5t-75 -19.5q-61 0 -96.5 37.5t-35.5 98.5q0 34 11 122q12 88 19 121q14 61 59 99.5t107 38.5q41 0 70 -19.5t43 -53.5q1 -2 2.5 -2t2.5 3l6 54
q2 10 11 10zM358 250q8 71 11 114q2 51 -26 84t-79 33q-52 0 -90.5 -33t-49.5 -84q-5 -29 -16 -113l-3 -30q-6 -48 -9 -84q-2 -51 28.5 -84t82.5 -33q51 0 87.5 33t46.5 84q9 53 17 113zM188 690q0 7 9 7h11q7 0 11 -6l50 -88q1 -1 3 -1t3 1l70 88q4 6 12 6h12q6 0 7.5 -3.5
t-3.5 -8.5l-85 -104q-5 -6 -13 -6h-15q-9 0 -11 6l-59 104z" />
    <glyph glyph-name="uni01D4" unicode="&#x1d4;" horiz-adv-x="458" 
d="M398 501h10q10 0 8 -10l-59 -481q-2 -10 -11 -10h-9q-5 0 -7.5 3t-1.5 7l6 48q1 3 -1 3.5t-3 -2.5q-22 -32 -56 -49t-75 -17q-59 0 -93.5 33t-34.5 94q0 8 2 28l43 343q0 4 3 7t8 3h9q9 0 9 -10l-42 -337q-1 -9 -1 -24q0 -52 27.5 -80.5t75.5 -28.5q57 0 95.5 37.5
t46.5 101.5l40 331q2 10 11 10zM199 690q0 7 9 7h11q7 0 11 -6l50 -88q1 -1 3 -1t3 1l70 88q4 6 12 6h12q6 0 7.5 -3.5t-3.5 -8.5l-85 -104q-5 -6 -13 -6h-15q-9 0 -11 6l-59 104z" />
    <glyph glyph-name="uni01E5" unicode="&#x1e5;" horiz-adv-x="460" 
d="M470 253v-5q-2 -10 -11 -10h-70q-4 0 -4 -4l-29 -232q-12 -101 -68 -152.5t-157 -49.5q-11 0 -9 10l1 8q2 10 11 10q88 -1 135 43.5t58 131.5l8 60q0 3 -2 3.5t-3 -2.5q-21 -34 -55 -52.5t-75 -18.5q-62 0 -97.5 38t-35.5 100q2 54 10 119q11 81 20 121q15 61 60 99.5
t106 38.5q41 0 70 -18.5t43 -52.5q1 -3 2.5 -2.5t2.5 3.5l6 52q2 10 11 10h10q10 0 8 -10l-27 -224q0 -4 3 -4h70q10 0 8 -10zM294.5 53.5q36.5 33.5 46.5 84.5q8 42 15 96q0 4 -4 4h-120q-9 0 -9 10l1 5q2 10 11 10h120q4 0 5 4q4 34 9 96q2 52 -26 85t-79 33
q-52 0 -90 -33t-50 -85q-7 -34 -18 -112q-4 -32 -10 -113q-1 -51 29.5 -84.5t81.5 -33.5t87.5 33.5z" />
    <glyph glyph-name="gcaron" unicode="&#x1e7;" horiz-adv-x="446" 
d="M398 501h10q10 0 8 -10l-60 -489q-12 -101 -68 -152.5t-157 -49.5q-11 0 -9 10l1 8q2 10 11 10q88 -1 135 43.5t58 131.5l8 60q0 3 -2 3.5t-3 -2.5q-21 -34 -55 -52.5t-75 -18.5q-62 0 -97.5 38t-35.5 100q2 54 10 119q11 81 20 121q15 61 60 99.5t106 38.5
q41 0 70 -18.5t43 -52.5q1 -3 2.5 -2.5t2.5 3.5l6 52q2 10 11 10zM358 250q8 70 11 113q2 52 -26 85t-79 33q-52 0 -90 -33t-50 -85q-7 -34 -18 -112q-4 -32 -10 -113q-1 -51 29.5 -84.5t81.5 -33.5t87.5 33.5t46.5 84.5q9 49 17 112zM198 690q0 7 9 7h11q7 0 11 -6l50 -88
q1 -1 3 -1t3 1l70 88q4 6 12 6h12q6 0 7.5 -3.5t-3.5 -8.5l-85 -104q-5 -6 -13 -6h-15q-9 0 -11 6l-59 104z" />
    <glyph glyph-name="uni01E9" unicode="&#x1e9;" horiz-adv-x="417" 
d="M64 10l84 680q2 10 11 10h9q5 0 7.5 -3t1.5 -7l-55 -446q0 -2 2 -2.5t3 1.5l244 252q6 6 13 6h12q6 0 7 -3.5t-3 -8.5l-122 -127q-2 -3 -1 -5l88 -345l1 -3q0 -9 -10 -9h-12q-8 0 -9 8l-81 324q0 2 -2 2.5t-4 -1.5l-130 -135q-2 -4 -2 -5l-23 -183q0 -4 -3 -7t-8 -3h-9
q-9 0 -9 10zM213 889q0 7 9 7h11q7 0 11 -6l50 -88q1 -1 3 -1t3 1l70 88q4 6 12 6h12q6 0 7.5 -3.5t-3.5 -8.5l-85 -104q-5 -6 -13 -6h-15q-9 0 -11 6l-59 104z" />
    <glyph glyph-name="uni01EF" unicode="&#x1ef;" horiz-adv-x="491" 
d="M154 242q1 -2 3 -2q26 3 49 3q104 0 156.5 -50t52.5 -134q0 -24 -2 -36q-9 -75 -48 -126t-97 -75.5t-125 -24.5q-55 0 -111 17q-7 3 -6 12l1 7q2 11 13 8q51 -16 104 -16q92 0 159.5 48t80.5 149q2 20 2 31q0 72 -46 118.5t-151 46.5q-35 0 -79 -6h-2q-5 0 -7 6v4l-1 1
q0 9 7 13l274 232q3 2 2.5 3.5t-3.5 1.5h-247q-9 0 -9 10l1 8q2 10 11 10h283q5 0 7.5 -3t1.5 -7l-1 -11q-2 -8 -7 -12l-265 -223q-2 -1 -1 -3zM219 690q0 7 9 7h11q7 0 11 -6l50 -88q1 -1 3 -1t3 1l70 88q4 6 12 6h12q6 0 7.5 -3.5t-3.5 -8.5l-85 -104q-5 -6 -13 -6h-15
q-9 0 -11 6l-59 104z" />
    <glyph glyph-name="oslashacute" unicode="&#x1ff;" horiz-adv-x="448" 
d="M402 325.5q-3 -29.5 -4 -42.5q-2 -10 -4 -32l-3 -21q-7 -65 -15 -100q-14 -61 -61.5 -99.5t-110.5 -38.5q-55 0 -94 31q-1 1 -2 1t-2 -2l-29 -46q-7 -9 -14 -4l-7 4q-3 2 -3.5 6t1.5 8l34 54q1 2 1 6q-22 35 -22 80q1 36 8 97l3 24q11 84 19 120q15 62 61.5 100t108.5 38
q55 0 91 -28q3 -3 5 1l31 50q3 4 7 5t7 -1l7 -4q3 -2 3.5 -6t-1.5 -8l-35 -57q-3 -3 -1 -5q24 -35 24 -80q0 -21 -3 -50.5zM106 81q3 -4 6 0l230 368q3 4 0 5q-32 27 -78 27q-53 0 -91 -32.5t-49 -85.5q-3 -16 -14 -93l-3 -20q-2 -22 -4 -33q-6 -66 -7 -79q0 -34 10 -57z
M364 250l4 32q8 70 8 87q0 29 -12 56q-1 2 -3 2t-3 -2l-231 -369q-2 -3 0 -5q29 -31 80 -31q53 0 92 32.5t50 85.5q6 35 15 112zM247.5 572.5q-1.5 3.5 1.5 8.5l74 112q5 7 13 7h8q6 0 8 -3.5t-2 -8.5l-77 -112q-5 -7 -12 -7h-6q-6 0 -7.5 3.5z" />
    <glyph glyph-name="uni0218" unicode="&#x218;" horiz-adv-x="475" 
d="M96.5 32q-44.5 40 -44.5 108q0 8 2 26l4 27q0 4 3 7t8 3h8q5 0 7.5 -3t1.5 -7l-3 -26q-1 -8 -1 -22q0 -58 37.5 -92t103.5 -34q76 0 122 45.5t46 119.5q0 48 -32.5 83t-109.5 81q-53 33 -80.5 54.5t-44.5 49.5t-17 67q0 9 2 27q10 78 60.5 120t128.5 42t120.5 -39.5
t42.5 -107.5q0 -8 -2 -28l-3 -25q-2 -10 -11 -10h-9q-5 0 -7.5 3t-1.5 7l3 23q1 8 1 24q0 58 -36 92t-101 34t-107 -35t-50 -100q-1 -7 -1 -21q0 -33 14.5 -56.5t40.5 -42.5t79 -52q82 -51 117 -89.5t35 -93.5q0 -7 -2 -25q-10 -79 -64 -126.5t-138 -47.5q-77 0 -121.5 40z
M156.5 -204.5q-1.5 3.5 1.5 8.5l74 112q5 7 13 7h8q6 0 8 -3.5t-2 -8.5l-77 -112q-5 -7 -12 -7h-6q-6 0 -7.5 3.5z" />
    <glyph glyph-name="uni0219" unicode="&#x219;" horiz-adv-x="400" 
d="M89.5 27q-36.5 31 -36.5 78q0 10 1 15l1 10q0 4 3 7t8 3h8q5 0 7.5 -3t1.5 -7l-1 -9q-1 -4 -1 -11q0 -37 29.5 -62.5t79.5 -25.5q56 0 93 34t37 85q0 28 -15 46t-36 28.5t-61 25.5t-64.5 28t-41 35t-16.5 56q0 65 45.5 105t115.5 40q60 0 95 -30.5t35 -79.5q0 -11 -1 -17
v-3q-2 -10 -11 -10h-8q-10 0 -8 10v3q1 4 1 12q0 38 -29 63t-78 25q-56 0 -92 -31.5t-36 -81.5q0 -36 26 -56t79 -40q44 -17 68.5 -30t42.5 -35.5t18 -57.5q0 -66 -45.5 -108t-116.5 -42q-61 0 -97.5 31zM128.5 -200.5q-1.5 3.5 1.5 8.5l74 112q5 7 13 7h8q6 0 8 -3.5
t-2 -8.5l-77 -112q-5 -7 -12 -7h-6q-6 0 -7.5 3.5z" />
    <glyph glyph-name="uni021A" unicode="&#x21a;" horiz-adv-x="464" 
d="M484 690l-1 -8q0 -4 -3 -7t-8 -3h-163q-2 0 -3.5 -1t-1.5 -3l-81 -658q0 -4 -3 -7t-8 -3h-9q-9 0 -9 10l81 658q0 4 -3 4h-155q-4 0 -6.5 3t-1.5 7l1 8q2 10 11 10h355q10 0 8 -10zM100.5 -198.5q-1.5 3.5 1.5 8.5l74 112q5 7 13 7h8q6 0 8 -3.5t-2 -8.5l-77 -112
q-5 -7 -12 -7h-6q-6 0 -7.5 3.5z" />
    <glyph glyph-name="uni021B" unicode="&#x21b;" horiz-adv-x="294" 
d="M281 477q-3 -3 -7 -3h-101q-3 0 -5 -4l-42 -343q-2 -20 -2 -27q0 -40 19 -56t60 -16h16q10 0 8 -10l-1 -8q0 -4 -3 -7t-8 -3h-18q-50 0 -76 20t-26 72q0 20 2 32l42 346q0 4 -3 4h-50q-4 0 -6.5 3t-1.5 7l1 7q0 4 3 7t8 3h49q4 0 4 4l14 112q2 10 11 10h10q10 0 8 -10
l-13 -112q-1 -1 0 -2.5t3 -1.5h101q10 0 8 -10l-1 -7q0 -4 -3 -7zM105.5 -184.5q-1.5 3.5 1.5 8.5l74 112q5 7 13 7h8q6 0 8 -3.5t-2 -8.5l-77 -112q-5 -7 -12 -7h-6q-6 0 -7.5 3.5z" />
    <glyph glyph-name="uni021F" unicode="&#x21f;" horiz-adv-x="459" 
d="M375 473.5q33 -34.5 33 -94.5q0 -9 -2 -31l-41 -338q-2 -10 -11 -10h-10q-4 0 -6.5 3t-1.5 7l41 334q2 16 2 24q0 52 -27.5 82t-76.5 30q-56 0 -95 -37.5t-46 -101.5l-41 -331q0 -4 -3 -7t-8 -3h-9q-9 0 -9 10l84 680q2 10 11 10h9q5 0 7.5 -3t1.5 -7l-31 -251q0 -6 4 -2
q22 34 57 52.5t77 18.5q58 0 91 -34.5zM230 889q0 7 9 7h11q7 0 11 -6l50 -88q1 -1 3 -1t3 1l70 88q4 6 12 6h12q6 0 7.5 -3.5t-3.5 -8.5l-85 -104q-5 -6 -13 -6h-15q-9 0 -11 6l-59 104z" />
    <glyph glyph-name="uni0228" unicode="&#x228;" horiz-adv-x="505" 
d="M509 675q-3 -3 -7 -3h-308q-4 0 -4 -4l-37 -300q0 -4 3 -4h214q4 0 6.5 -3t1.5 -7l-1 -7q0 -4 -3 -7t-8 -3h-213q-4 0 -4 -4l-37 -301q-1 -1 0 -2.5t3 -1.5h307q5 0 7.5 -3t1.5 -7l-1 -8q-2 -10 -11 -10h-148q-5 0 -2 -5q36 -37 36 -82q0 -15 -5 -33q-9 -30 -30.5 -44
t-48.5 -14q-14 0 -26 3q-9 1 -6 12v1l2 4q3 8 11 6q12 -2 19 -2q42 0 54 43q3 12 3 24q0 42 -39 85q-2 2 -4 2h-147q-10 0 -8 10l83 680q2 10 11 10h331q10 0 8 -10l-1 -8q0 -4 -3 -7z" />
    <glyph glyph-name="uni0229" unicode="&#x229;" horiz-adv-x="445" 
d="M288 44q35 24 53 64q4 8 13 7l8 -1q9 -2 6 -12q-18 -45 -56 -74t-89 -34q-6 -2 -1 -5q33 -36 33 -78q0 -17 -5 -35q-9 -30 -30.5 -44t-48.5 -14q-14 0 -26 3q-10 1 -5 12v1l2 4q3 8 11 6q12 -2 18 -2q19 0 33.5 10.5t20.5 32.5q3 12 3 23q0 41 -36 82q-2 2 -5 2
q-54 5 -86 42.5t-32 92.5q-1 26 7 95l3 29q10 82 19 119q14 61 60.5 100t108.5 39q64 0 101 -38t37 -100q0 -21 -3.5 -53.5t-8.5 -71.5q-2 -10 -11 -10h-272q-4 0 -4 -4q-2 -24 -4 -33q-1 -16 -3 -31.5t-3 -29.5q-2 -53 28.5 -85.5t83.5 -32.5q45 0 80 24zM173.5 449.5
q-38.5 -32.5 -50.5 -85.5l-6 -41l-6 -47q0 -4 4 -4h248q4 0 5 4l3 26l5 62q1 53 -29 85.5t-82 32.5q-53 0 -91.5 -32.5z" />
    <glyph glyph-name="uni0237" unicode="&#x237;" horiz-adv-x="203" 
d="M-61 -201l1 8q2 10 11 10q43 4 70 33.5t34 80.5l68 560q2 10 11 10h10q10 0 8 -10l-68 -560q-8 -65 -43 -102t-93 -40q-9 0 -9 10z" />
    <glyph glyph-name="uni0259" unicode="&#x259;" horiz-adv-x="445" 
d="M394.5 301q-4.5 -41 -5.5 -51q-10 -82 -19 -119q-14 -62 -60.5 -100.5t-108.5 -38.5q-65 0 -101.5 38t-36.5 100q0 24 7 90l4 35q2 10 11 10h272q4 0 5 4q2 24 4 33q1 16 3 31.5t3 29.5q2 53 -28.5 85.5t-83.5 32.5q-45 0 -80 -24t-53 -64q-4 -8 -13 -7l-8 1q-9 2 -6 12
q20 50 64 80t100 30q61 0 98 -38t37 -97q0 -32 -4.5 -73zM294 51.5q38 32.5 50 85.5q3 17 12 88q1 4 -3 4h-249q-4 0 -5 -4q-6 -58 -7 -88q-1 -53 29 -85.5t82 -32.5q53 0 91 32.5z" />
    <glyph glyph-name="uni0292" unicode="&#x292;" horiz-adv-x="491" 
d="M154 242q1 -2 3 -2q26 3 49 3q104 0 156.5 -50t52.5 -134q0 -24 -2 -36q-9 -75 -48 -126t-97 -75.5t-125 -24.5q-55 0 -111 17q-7 3 -6 12l1 7q2 11 13 8q51 -16 104 -16q92 0 159.5 48t80.5 149q2 20 2 31q0 72 -46 118.5t-151 46.5q-35 0 -79 -6h-2q-5 0 -7 6v4l-1 1
q0 9 7 13l274 232q3 2 2.5 3.5t-3.5 1.5h-247q-9 0 -9 10l1 8q2 10 11 10h283q5 0 7.5 -3t1.5 -7l-1 -11q-2 -8 -7 -12l-265 -223q-2 -1 -1 -3z" />
    <glyph glyph-name="uni02BB" unicode="&#x2bb;" horiz-adv-x="91" 
d="M69 691q0 9 9 9h12q8 0 10 -8l32 -173v-2q0 -9 -9 -9h-4q-10 0 -11 8l-39 173v2z" />
    <glyph glyph-name="uni02BC" unicode="&#x2bc;" horiz-adv-x="91" 
d="M152 689l-80 -173q-4 -8 -13 -8h-4q-12 0 -7 11l74 173q1 4 5 6t7 2h12q11 0 6 -11z" />
    <glyph glyph-name="circumflex" unicode="&#x2c6;" horiz-adv-x="200" 
d="M88.5 582q-1.5 4 3.5 8l84 104q5 6 13 6h15q9 0 11 -6l60 -104l2 -5q0 -7 -9 -7h-12q-7 0 -11 6l-48 87q-1 2 -3 2t-3 -2l-72 -87q-4 -6 -12 -6h-11q-6 0 -7.5 4z" />
    <glyph glyph-name="caron" unicode="&#x2c7;" horiz-adv-x="261" 
d="M102 693q0 7 9 7h11q7 0 11 -6l50 -88q1 -1 3 -1t3 1l70 88q4 6 12 6h12q6 0 7.5 -3.5t-3.5 -8.5l-85 -104q-5 -6 -13 -6h-15q-9 0 -11 6l-59 104z" />
    <glyph glyph-name="uni02C9" unicode="&#x2c9;" horiz-adv-x="217" 
d="M65 684v6q2 10 11 10h197q9 0 9 -10l-1 -6q-2 -10 -11 -10h-197q-10 0 -8 10z" />
    <glyph glyph-name="breve" unicode="&#x2d8;" horiz-adv-x="253" 
d="M114.5 588.5q-24.5 25.5 -22.5 63.5v2q0 4 3 6t7 2h5q10 0 10 -12q0 -27 18 -45t44 -18q27 0 49.5 18.5t29.5 46.5q1 10 11 10h6q10 0 8 -10q-8 -38 -38.5 -63.5t-68.5 -25.5q-37 0 -61.5 25.5z" />
    <glyph glyph-name="dotaccent" unicode="&#x2d9;" horiz-adv-x="143" 
d="M101 623q-10 10 -10 27q0 20 13.5 34t33.5 14q18 0 28.5 -12t8.5 -30q-3 -19 -16 -31t-31 -12q-17 0 -27 10z" />
    <glyph glyph-name="ring" unicode="&#x2da;" horiz-adv-x="251" 
d="M118 612.5q-24 24.5 -24 61.5q0 30 15 55.5t40 41t53 15.5q37 0 61 -24.5t24 -61.5q0 -30 -15.5 -55.5t-40.5 -41t-53 -15.5q-36 0 -60 24.5zM238 637.5q25 24.5 25 58.5q0 28 -18.5 46.5t-45.5 18.5q-32 0 -56.5 -24.5t-24.5 -59.5q0 -28 18 -46t45 -18q32 0 57 24.5z
" />
    <glyph glyph-name="ogonek" unicode="&#x2db;" horiz-adv-x="110" 
d="M67 -170q0 -9 -9 -10q-12 -3 -25 -3q-29 0 -47.5 16t-18.5 51q0 61 65 112q5 4 13 4h2q7 0 7 -5q0 -3 -4 -7q-56 -52 -56 -100q0 -24 12 -35.5t31 -11.5q6 0 18 2h3q7 0 7 -6l2 -4v-1v-2z" />
    <glyph glyph-name="tilde" unicode="&#x2dc;" horiz-adv-x="311" 
d="M235.5 627.5q-11.5 6.5 -24.5 17.5t-22 16t-22 5q-16 0 -27.5 -5.5t-26.5 -22.5q-6 -8 -14 -2l-2 2q-4 3 -4 6q0 4 3 8q33 41 74 41q15 0 26 -5.5t27 -17.5q15 -12 24 -17t20 -5q29 0 53 31q3 4 7 5t7 -1l4 -2q3 -1 3 -6t-6 -14q-16 -20 -36 -30t-37 -10q-15 0 -26.5 6.5
z" />
    <glyph glyph-name="hungarumlaut" unicode="&#x2dd;" horiz-adv-x="287" 
d="M87.5 580.5q-1.5 3.5 1.5 8.5l74 112q5 7 13 7h8q6 0 8 -3.5t-2 -8.5l-77 -112q-5 -7 -12 -7h-6q-6 0 -7.5 3.5zM214.5 580.5q-1.5 3.5 1.5 8.5l74 112q5 7 13 7h8q6 0 8 -3.5t-2 -8.5l-77 -112q-5 -7 -12 -7h-6q-6 0 -7.5 3.5z" />
    <glyph glyph-name="gravecomb" unicode="&#x300;" horiz-adv-x="0" 
d="M50 576q0 -7 -8 -7h-6q-7 0 -11 7l-49 112q-1 2 -1 5q0 7 9 7h8q7 0 11 -7l46 -112q1 -2 1 -5z" />
    <glyph glyph-name="acutecomb" unicode="&#x301;" horiz-adv-x="0" 
d="M-78.5 572.5q-1.5 3.5 1.5 8.5l74 112q5 7 13 7h8q6 0 8 -3.5t-2 -8.5l-77 -112q-5 -7 -12 -7h-6q-6 0 -7.5 3.5z" />
    <glyph glyph-name="uni0302" unicode="&#x302;" horiz-adv-x="0" 
d="M-172.5 582q-1.5 4 3.5 8l84 104q5 6 13 6h15q9 0 11 -6l60 -104l2 -5q0 -7 -9 -7h-12q-7 0 -11 6l-48 87q-1 2 -3 2t-3 -2l-72 -87q-4 -6 -12 -6h-11q-6 0 -7.5 4z" />
    <glyph glyph-name="tildecomb" unicode="&#x303;" horiz-adv-x="0" 
d="M-45.5 627.5q-11.5 6.5 -24.5 17.5t-22 16t-22 5q-16 0 -27.5 -5.5t-26.5 -22.5q-6 -8 -14 -2l-2 2q-4 3 -4 6q0 4 3 8q33 41 74 41q15 0 26 -5.5t27 -17.5q15 -12 24 -17t20 -5q29 0 53 31q3 4 7 5t7 -1l4 -2q3 -1 3 -6t-6 -14q-16 -20 -36 -30t-37 -10q-15 0 -26.5 6.5
z" />
    <glyph glyph-name="uni0304" unicode="&#x304;" horiz-adv-x="0" 
d="M-155.5 640q-2.5 3 -1.5 7l1 6q2 10 11 10h197q4 0 6.5 -3t1.5 -7l-1 -6q0 -4 -3 -7t-8 -3h-196q-5 0 -7.5 3z" />
    <glyph glyph-name="uni0306" unicode="&#x306;" horiz-adv-x="0" 
d="M-135.5 615q-24.5 25 -22.5 63q0 10 10 10h5q9 0 9 -10q0 -28 18 -46t45 -18q28 0 50 18t29 46q3 10 12 10h5q5 0 7 -3t1 -7q-8 -38 -38.5 -63t-68.5 -25q-37 0 -61.5 25z" />
    <glyph glyph-name="uni0307" unicode="&#x307;" horiz-adv-x="0" 
d="M-14 623q-10 10 -10 27q0 20 13.5 34t33.5 14q18 0 28.5 -12t8.5 -30q-3 -19 -16 -31t-31 -12q-17 0 -27 10z" />
    <glyph glyph-name="uni0308" unicode="&#x308;" horiz-adv-x="0" 
d="M-12 623q-10 10 -10 27q0 20 13.5 34t33.5 14q18 0 28.5 -12t8.5 -30q-3 -19 -16 -31t-31 -12q-17 0 -27 10zM-150 623q-10 10 -10 27q0 20 13.5 34t33.5 14q18 0 28.5 -12t8.5 -30q-3 -19 -16 -31t-31 -12q-17 0 -27 10z" />
    <glyph glyph-name="hookabovecomb" unicode="&#x309;" horiz-adv-x="0" 
d="M-269 560q7 14 18 25.5t21 20.5q16 14 23.5 24t9.5 25q2 17 -10.5 30t-31.5 13q-20 0 -32.5 -8.5t-28.5 -29.5q-8 -10 -14 -4l-4 3q-6 6 -1 13q20 27 37 38.5t46 11.5q28 0 46.5 -17t18.5 -42t-11.5 -41t-34.5 -37q-24 -20 -31 -32q-4 -8 -13 -7l-4 1q-9 4 -4 13z" />
    <glyph glyph-name="uni030A" unicode="&#x30a;" horiz-adv-x="0" 
d="M-102 612.5q-24 24.5 -24 61.5q0 30 15 55.5t40 41t53 15.5q37 0 61 -24.5t24 -61.5q0 -30 -15.5 -55.5t-40.5 -41t-53 -15.5q-36 0 -60 24.5zM18 637.5q25 24.5 25 58.5q0 28 -18.5 46.5t-45.5 18.5q-32 0 -56.5 -24.5t-24.5 -59.5q0 -28 18 -46t45 -18q32 0 57 24.5z
" />
    <glyph glyph-name="uni030B" unicode="&#x30b;" horiz-adv-x="0" 
d="M-199.5 572.5q-1.5 3.5 2.5 8.5l73 112q3 7 12 7h9q6 0 7.5 -3.5t-2.5 -8.5l-76 -112q-5 -7 -12 -7h-6q-6 0 -7.5 3.5zM-73.5 572.5q-1.5 3.5 2.5 8.5l73 112q3 7 12 7h9q6 0 7.5 -3.5t-2.5 -8.5l-75 -112q-7 -7 -13 -7h-6q-6 0 -7.5 3.5z" />
    <glyph glyph-name="uni030C" unicode="&#x30c;" horiz-adv-x="0" 
d="M-159 693q0 7 9 7h11q7 0 11 -6l50 -88q1 -1 3 -1t3 1l70 88q4 6 12 6h12q6 0 7.5 -3.5t-3.5 -8.5l-85 -104q-5 -6 -13 -6h-15q-9 0 -11 6l-59 104z" />
    <glyph glyph-name="uni0312" unicode="&#x312;" horiz-adv-x="0" 
d="M30.5 696.5q1.5 -3.5 -2.5 -8.5l-73 -112q-3 -7 -12 -7h-9q-6 0 -7.5 3.5t2.5 8.5l77 112q5 7 12 7h6q5 0 6.5 -3.5z" />
    <glyph glyph-name="uni0313" unicode="&#x313;" horiz-adv-x="0" 
d="M-43.5 572.5q-1.5 3.5 1.5 8.5l74 112q5 7 13 7h8q6 0 8 -3.5t-2 -8.5l-77 -112q-5 -7 -12 -7h-6q-6 0 -7.5 3.5z" />
    <glyph glyph-name="uni031B" unicode="&#x31b;" horiz-adv-x="0" 
d="M-79 478q-7 0 -7 9l1 4q2 10 11 11q24 3 43.5 21t25.5 45q3 10 12 10h6q10 0 8 -11q-8 -36 -35.5 -61t-62.5 -28h-2z" />
    <glyph glyph-name="dotbelowcomb" unicode="&#x323;" horiz-adv-x="0" 
d="M-107.5 -154.5q-9.5 9.5 -9.5 25.5q0 19 13 32.5t31 13.5q15 0 24.5 -9.5t9.5 -24.5q0 -20 -13 -33.5t-31 -13.5q-15 0 -24.5 9.5z" />
    <glyph glyph-name="uni0326" unicode="&#x326;" horiz-adv-x="0" 
d="M-168.5 -196.5q-1.5 3.5 1.5 8.5l74 112q5 7 13 7h8q6 0 8 -3.5t-2 -8.5l-77 -112q-5 -7 -12 -7h-6q-6 0 -7.5 3.5z" />
    <glyph glyph-name="uni0327" unicode="&#x327;" horiz-adv-x="0" 
d="M-147 -168v1l2 4q3 7 12 6q12 -2 18 -2q42 0 54 43q3 12 3 23q0 40 -34 81q-4 4 -3.5 8t5.5 4h6q8 0 12 -4q40 -39 40 -86q0 -20 -5 -34q-10 -31 -32 -45t-49 -14q-12 0 -24 3q-9 2 -5 12z" />
    <glyph glyph-name="uni0328" unicode="&#x328;" horiz-adv-x="0" 
d="M-43 -170q0 -9 -9 -10q-12 -3 -25 -3q-29 0 -47.5 16t-18.5 52q0 61 65 111q5 4 13 4h2q7 0 7 -5q0 -3 -4 -7q-56 -51 -56 -100q0 -24 12 -35.5t31 -11.5q6 0 18 2h3q7 0 7 -6l2 -4v-1v-2z" />
    <glyph glyph-name="uni0335" unicode="&#x335;" horiz-adv-x="0" 
d="M-211 600q3 3 7 3h249q4 0 6.5 -3t1.5 -7v-5q-1 -4 -4 -7t-7 -3h-249q-10 0 -8 10v5q1 4 4 7z" />
    <glyph glyph-name="uni0336" unicode="&#x336;" horiz-adv-x="0" 
d="M-417 529v6q2 10 11 10h444q5 0 7.5 -3t1.5 -7l-1 -6q-2 -10 -11 -10h-444q-10 0 -8 10z" />
    <glyph glyph-name="uni0337" unicode="&#x337;" horiz-adv-x="0" 
d="M-313 111q-4 0 -7 5l-3 6q-2 4 -2 6q0 4 6 8l390 253q4 3 7.5 2.5t5.5 -4.5l3 -7q1 -2 1 -5q0 -5 -5 -9l-389 -252q-5 -3 -7 -3z" />
    <glyph glyph-name="uni0338" unicode="&#x338;" horiz-adv-x="0" 
d="M-360 -27.5q-2 3.5 1 8.5l398 751q4 8 12 8h7q5 0 7 -3.5t0 -8.5l-398 -751q-4 -8 -12 -8h-8q-5 0 -7 3.5z" />
    <glyph glyph-name="uni0394" unicode="&#x394;" horiz-adv-x="533" 
d="M6.5 3q-2.5 3 -1.5 7l2 12q0 4 1 7t2 5l306 658q4 8 12 8h10q10 0 11 -8l144 -659q0 -2 0.5 -5t-0.5 -7l-1 -11q-2 -10 -11 -10h-467q-5 0 -7.5 3zM37.5 28.5q0.5 -1.5 2.5 -1.5h420q4 0 4 5l-133 624q-1 2 -3 2t-3 -2l-287 -624q-1 -2 -0.5 -3.5z" />
    <glyph glyph-name="uni03A9" unicode="&#x3a9;" horiz-adv-x="542" 
d="M57 10l1 8q0 4 3 7t7 3h83q3 0 3.5 1.5t-1.5 3.5q-31 19 -47 53t-16 78q0 8 2 28l40 325q10 85 67.5 138t138.5 53q75 0 119.5 -44t44.5 -117q0 -10 -2 -30l-40 -325q-7 -53 -33.5 -94.5t-67.5 -64.5q-2 -1 -1.5 -3t2.5 -2h82q10 0 8 -10l-1 -8q0 -4 -3 -7t-8 -3h-139
q-9 0 -9 10l1 9q1 9 10 10q45 10 83.5 54.5t46.5 105.5l40 329q2 18 2 26q0 62 -37.5 99t-100.5 37q-69 0 -117 -45t-56 -117l-41 -329q-1 -8 -1 -24q0 -53 25.5 -89.5t62.5 -45.5q8 -3 8 -11l-1 -9q-2 -10 -11 -10h-139q-10 0 -8 10z" />
    <glyph glyph-name="uni03BC" unicode="&#x3bc;" horiz-adv-x="466" 
d="M406 501h10q4 0 6.5 -3t1.5 -7l-59 -481q-2 -10 -11 -10h-10q-4 0 -6.5 3t-1.5 7l6 49q0 3 -1.5 3.5t-2.5 -2.5q-22 -33 -56 -50t-76 -17q-72 0 -104 47q-2 2 -3.5 1t-1.5 -3l-28 -228q-2 -10 -11 -10h-10q-10 0 -8 10l83 681q2 10 11 10h10q10 0 8 -10l-41 -337
q-2 -18 -2 -25q0 -51 27.5 -79.5t76.5 -28.5q57 0 95.5 37.5t45.5 101.5l41 331q2 10 11 10z" />
    <glyph glyph-name="pi" unicode="&#x3c0;" horiz-adv-x="546" 
d="M543 477q-3 -3 -8 -3h-63q-4 0 -4 -4l-46 -373q-1 -7 -1 -20q0 -26 11.5 -36t39.5 -11q9 0 9 -10l-2 -10q0 -4 -3 -7t-8 -3q-38 2 -57.5 16.5t-19.5 51.5q0 7 2 25l46 377q0 2 -1 3t-2 1h-239q-4 0 -4 -4l-57 -460q-2 -10 -11 -10h-10q-4 0 -6.5 3t-1.5 7l56 460
q1 1 0 2.5t-3 1.5h-72q-10 0 -8 10l1 7q0 4 3 7t8 3h447q10 0 8 -10l-1 -7q0 -4 -3 -7z" />
    <glyph glyph-name="Wgrave" unicode="&#x1e80;" horiz-adv-x="711" 
d="M173 9l-76 680v2q0 9 9 9h11q8 0 10 -9l67 -623q0 -3 1.5 -3t2.5 3l206 623q3 9 12 9h11q10 0 10 -9l55 -623q1 -3 2.5 -3t2.5 3l217 623q4 9 12 9h11q5 0 6.5 -3t-0.5 -8l-240 -680q-4 -9 -12 -9h-12q-9 0 -9 9l-55 625q0 3 -1 3t-2 -3l-207 -625q-3 -9 -12 -9h-11
q-9 0 -9 9zM443 775q0 -7 -8 -7h-6q-7 0 -11 7l-49 112q-1 2 -1 5q0 7 9 7h8q7 0 11 -7l46 -112q1 -2 1 -5z" />
    <glyph glyph-name="wgrave" unicode="&#x1e81;" horiz-adv-x="584" 
d="M133 9l-59 481v2q0 9 9 9h10q9 0 9 -9l50 -443q1 -3 2 -3t2 3l160 443q2 9 11 9h11q9 0 10 -9l52 -442q0 -3 1.5 -3t2.5 3l160 442q3 9 12 9h9q12 0 7 -11l-179 -481q-1 -9 -11 -9h-12q-8 0 -10 9l-53 430q0 2 -1 2.5t-2 -2.5l-158 -430q-3 -9 -12 -9h-11q-10 0 -10 9z
M353 576q0 -7 -8 -7h-6q-7 0 -11 7l-49 112q-1 2 -1 5q0 7 9 7h8q7 0 11 -7l46 -112q1 -2 1 -5z" />
    <glyph glyph-name="Wacute" unicode="&#x1e82;" horiz-adv-x="711" 
d="M173 9l-76 680v2q0 9 9 9h11q8 0 10 -9l67 -623q0 -3 1.5 -3t2.5 3l206 623q3 9 12 9h11q10 0 10 -9l55 -623q1 -3 2.5 -3t2.5 3l217 623q4 9 12 9h11q5 0 6.5 -3t-0.5 -8l-240 -680q-4 -9 -12 -9h-12q-9 0 -9 9l-55 625q0 3 -1 3t-2 -3l-207 -625q-3 -9 -12 -9h-11
q-9 0 -9 9zM404.5 771.5q-1.5 3.5 1.5 8.5l74 112q5 7 13 7h8q6 0 8 -3.5t-2 -8.5l-77 -112q-5 -7 -12 -7h-6q-6 0 -7.5 3.5z" />
    <glyph glyph-name="wacute" unicode="&#x1e83;" horiz-adv-x="584" 
d="M133 9l-59 481v2q0 9 9 9h10q9 0 9 -9l50 -443q1 -3 2 -3t2 3l160 443q2 9 11 9h11q9 0 10 -9l52 -442q0 -3 1.5 -3t2.5 3l160 442q3 9 12 9h9q12 0 7 -11l-179 -481q-1 -9 -11 -9h-12q-8 0 -10 9l-53 430q0 2 -1 2.5t-2 -2.5l-158 -430q-3 -9 -12 -9h-11q-10 0 -10 9z
M314.5 572.5q-1.5 3.5 1.5 8.5l74 112q5 7 13 7h8q6 0 8 -3.5t-2 -8.5l-77 -112q-5 -7 -12 -7h-6q-6 0 -7.5 3.5z" />
    <glyph glyph-name="Wdieresis" unicode="&#x1e84;" horiz-adv-x="711" 
d="M173 9l-76 680v2q0 9 9 9h11q8 0 10 -9l67 -623q0 -3 1.5 -3t2.5 3l206 623q3 9 12 9h11q10 0 10 -9l55 -623q1 -3 2.5 -3t2.5 3l217 623q4 9 12 9h11q5 0 6.5 -3t-0.5 -8l-240 -680q-4 -9 -12 -9h-12q-9 0 -9 9l-55 625q0 3 -1 3t-2 -3l-207 -625q-3 -9 -12 -9h-11
q-9 0 -9 9zM479 822q-10 10 -10 27q0 20 13.5 34t33.5 14q18 0 28.5 -12t8.5 -30q-3 -19 -16 -31t-31 -12q-17 0 -27 10zM341 822q-10 10 -10 27q0 20 13.5 34t33.5 14q18 0 28.5 -12t8.5 -30q-3 -19 -16 -31t-31 -12q-17 0 -27 10z" />
    <glyph glyph-name="wdieresis" unicode="&#x1e85;" horiz-adv-x="584" 
d="M133 9l-59 481v2q0 9 9 9h10q9 0 9 -9l50 -443q1 -3 2 -3t2 3l160 443q2 9 11 9h11q9 0 10 -9l52 -442q0 -3 1.5 -3t2.5 3l160 442q3 9 12 9h9q12 0 7 -11l-179 -481q-1 -9 -11 -9h-12q-8 0 -10 9l-53 430q0 2 -1 2.5t-2 -2.5l-158 -430q-3 -9 -12 -9h-11q-10 0 -10 9z
M389 623q-10 10 -10 27q0 20 13.5 34t33.5 14q18 0 28.5 -12t8.5 -30q-3 -19 -16 -31t-31 -12q-17 0 -27 10zM251 623q-10 10 -10 27q0 20 13.5 34t33.5 14q18 0 28.5 -12t8.5 -30q-3 -19 -16 -31t-31 -12q-17 0 -27 10z" />
    <glyph glyph-name="uni1EA0" unicode="&#x1ea0;" horiz-adv-x="454" 
d="M381 8l-20 141q-1 3 -5 3h-261q-4 0 -5 -3l-54 -140q-4 -9 -12 -9h-8q-5 0 -7.5 3t-0.5 8l266 681q3 8 12 8h13q10 0 10 -8l102 -681v-2q0 -4 -3 -6.5t-7 -2.5h-10q-8 0 -10 8zM104 180.5q1 -1.5 3 -1.5h245q2 0 3.5 1.5t0.5 2.5l-67 465q-2 5 -5 0l-180 -465
q-1 -1 0 -2.5zM164.5 -154.5q-9.5 9.5 -9.5 25.5q0 19 13 32.5t31 13.5q15 0 24.5 -9.5t9.5 -24.5q0 -20 -13 -33.5t-31 -13.5q-15 0 -24.5 9.5z" />
    <glyph glyph-name="uni1EA1" unicode="&#x1ea1;" 
d="M398 501h10q10 0 8 -10l-59 -481q-2 -10 -11 -10h-9q-5 0 -7.5 3t-1.5 7l7 54q0 3 -1.5 3t-3.5 -2q-22 -34 -56 -53.5t-75 -19.5q-61 0 -96.5 37.5t-35.5 98.5q0 34 11 122q12 88 19 121q14 61 59 99.5t107 38.5q41 0 70 -19.5t43 -53.5q1 -2 2.5 -2t2.5 3l6 54
q2 10 11 10zM358 250q8 71 11 114q2 51 -26 84t-79 33q-52 0 -90.5 -33t-49.5 -84q-5 -29 -16 -113l-3 -30q-6 -48 -9 -84q-2 -51 28.5 -84t82.5 -33q51 0 87.5 33t46.5 84q9 53 17 113zM152.5 -154.5q-9.5 9.5 -9.5 25.5q0 19 13 32.5t31 13.5q15 0 24.5 -9.5t9.5 -24.5
q0 -20 -13 -33.5t-31 -13.5q-15 0 -24.5 9.5z" />
    <glyph glyph-name="uni1EA2" unicode="&#x1ea2;" horiz-adv-x="454" 
d="M381 8l-20 141q-1 3 -5 3h-261q-4 0 -5 -3l-54 -140q-4 -9 -12 -9h-8q-5 0 -7.5 3t-0.5 8l266 681q3 8 12 8h13q10 0 10 -8l102 -681v-2q0 -4 -3 -6.5t-7 -2.5h-10q-8 0 -10 8zM104 180.5q1 -1.5 3 -1.5h245q2 0 3.5 1.5t0.5 2.5l-67 465q-2 5 -5 0l-180 -465
q-1 -1 0 -2.5zM291 759q7 14 18 25.5t21 20.5q16 14 23.5 24t9.5 25q2 17 -10.5 30t-31.5 13q-20 0 -32.5 -8.5t-28.5 -29.5q-8 -10 -14 -4l-4 3q-6 6 -1 13q20 27 37 38.5t46 11.5q28 0 46.5 -17t18.5 -42t-11.5 -41t-34.5 -37q-24 -20 -31 -32q-4 -8 -13 -7l-4 1
q-9 4 -4 13z" />
    <glyph glyph-name="uni1EA3" unicode="&#x1ea3;" 
d="M398 501h10q10 0 8 -10l-59 -481q-2 -10 -11 -10h-9q-5 0 -7.5 3t-1.5 7l7 54q0 3 -1.5 3t-3.5 -2q-22 -34 -56 -53.5t-75 -19.5q-61 0 -96.5 37.5t-35.5 98.5q0 34 11 122q12 88 19 121q14 61 59 99.5t107 38.5q41 0 70 -19.5t43 -53.5q1 -2 2.5 -2t2.5 3l6 54
q2 10 11 10zM358 250q8 71 11 114q2 51 -26 84t-79 33q-52 0 -90.5 -33t-49.5 -84q-5 -29 -16 -113l-3 -30q-6 -48 -9 -84q-2 -51 28.5 -84t82.5 -33q51 0 87.5 33t46.5 84q9 53 17 113zM257 560q7 14 18 25.5t21 20.5q16 14 23.5 24t9.5 25q2 17 -10.5 30t-31.5 13
q-20 0 -32.5 -8.5t-28.5 -29.5q-8 -10 -14 -4l-4 3q-6 6 -1 13q20 27 37 38.5t46 11.5q28 0 46.5 -17t18.5 -42t-11.5 -41t-34.5 -37q-24 -20 -31 -32q-4 -8 -13 -7l-4 1q-9 4 -4 13z" />
    <glyph glyph-name="uni1EA4" unicode="&#x1ea4;" horiz-adv-x="454" 
d="M381 8l-20 141q-1 3 -5 3h-261q-4 0 -5 -3l-54 -140q-4 -9 -12 -9h-8q-5 0 -7.5 3t-0.5 8l266 681q3 8 12 8h13q10 0 10 -8l102 -681v-2q0 -4 -3 -6.5t-7 -2.5h-10q-8 0 -10 8zM104 180.5q1 -1.5 3 -1.5h245q2 0 3.5 1.5t0.5 2.5l-67 465q-2 5 -5 0l-180 -465
q-1 -1 0 -2.5zM208.5 781q-1.5 4 3.5 8l84 104q5 6 13 6h15q9 0 11 -6l60 -104l2 -5q0 -7 -9 -7h-12q-7 0 -11 6l-48 87q-1 2 -3 2t-3 -2l-72 -87q-4 -6 -12 -6h-11q-6 0 -7.5 4zM411.5 847.5q-1.5 3.5 1.5 8.5l74 112q5 7 13 7h8q6 0 8 -3.5t-2 -8.5l-77 -112q-5 -7 -12 -7
h-6q-6 0 -7.5 3.5z" />
    <glyph glyph-name="uni1EA5" unicode="&#x1ea5;" 
d="M398 501h10q10 0 8 -10l-59 -481q-2 -10 -11 -10h-9q-5 0 -7.5 3t-1.5 7l7 54q0 3 -1.5 3t-3.5 -2q-22 -34 -56 -53.5t-75 -19.5q-61 0 -96.5 37.5t-35.5 98.5q0 34 11 122q12 88 19 121q14 61 59 99.5t107 38.5q41 0 70 -19.5t43 -53.5q1 -2 2.5 -2t2.5 3l6 54
q2 10 11 10zM358 250q8 71 11 114q2 51 -26 84t-79 33q-52 0 -90.5 -33t-49.5 -84q-5 -29 -16 -113l-3 -30q-6 -48 -9 -84q-2 -51 28.5 -84t82.5 -33q51 0 87.5 33t46.5 84q9 53 17 113zM173.5 582q-1.5 4 3.5 8l84 104q5 6 13 6h15q9 0 11 -6l60 -104l2 -5q0 -7 -9 -7h-12
q-7 0 -11 6l-48 87q-1 2 -3 2t-3 -2l-72 -87q-4 -6 -12 -6h-11q-6 0 -7.5 4zM376.5 648.5q-1.5 3.5 1.5 8.5l74 112q5 7 13 7h8q6 0 8 -3.5t-2 -8.5l-77 -112q-5 -7 -12 -7h-6q-6 0 -7.5 3.5z" />
    <glyph glyph-name="uni1EA6" unicode="&#x1ea6;" horiz-adv-x="454" 
d="M381 8l-20 141q-1 3 -5 3h-261q-4 0 -5 -3l-54 -140q-4 -9 -12 -9h-8q-5 0 -7.5 3t-0.5 8l266 681q3 8 12 8h13q10 0 10 -8l102 -681v-2q0 -4 -3 -6.5t-7 -2.5h-10q-8 0 -10 8zM104 180.5q1 -1.5 3 -1.5h245q2 0 3.5 1.5t0.5 2.5l-67 465q-2 5 -5 0l-180 -465
q-1 -1 0 -2.5zM208.5 781q-1.5 4 3.5 8l84 104q5 6 13 6h15q9 0 11 -6l60 -104l2 -5q0 -7 -9 -7h-12q-7 0 -11 6l-48 87q-1 2 -3 2t-3 -2l-72 -87q-4 -6 -12 -6h-11q-6 0 -7.5 4zM443 893q0 -7 -8 -7h-6q-7 0 -11 7l-49 112q-1 2 -1 5q0 7 9 7h8q7 0 11 -7l46 -112
q1 -2 1 -5z" />
    <glyph glyph-name="uni1EA7" unicode="&#x1ea7;" 
d="M398 501h10q10 0 8 -10l-59 -481q-2 -10 -11 -10h-9q-5 0 -7.5 3t-1.5 7l7 54q0 3 -1.5 3t-3.5 -2q-22 -34 -56 -53.5t-75 -19.5q-61 0 -96.5 37.5t-35.5 98.5q0 34 11 122q12 88 19 121q14 61 59 99.5t107 38.5q41 0 70 -19.5t43 -53.5q1 -2 2.5 -2t2.5 3l6 54
q2 10 11 10zM358 250q8 71 11 114q2 51 -26 84t-79 33q-52 0 -90.5 -33t-49.5 -84q-5 -29 -16 -113l-3 -30q-6 -48 -9 -84q-2 -51 28.5 -84t82.5 -33q51 0 87.5 33t46.5 84q9 53 17 113zM173.5 582q-1.5 4 3.5 8l84 104q5 6 13 6h15q9 0 11 -6l60 -104l2 -5q0 -7 -9 -7h-12
q-7 0 -11 6l-48 87q-1 2 -3 2t-3 -2l-72 -87q-4 -6 -12 -6h-11q-6 0 -7.5 4zM408 694q0 -7 -8 -7h-6q-7 0 -11 7l-49 112q-1 2 -1 5q0 7 9 7h8q7 0 11 -7l46 -112q1 -2 1 -5z" />
    <glyph glyph-name="uni1EA8" unicode="&#x1ea8;" horiz-adv-x="454" 
d="M381 8l-20 141q-1 3 -5 3h-261q-4 0 -5 -3l-54 -140q-4 -9 -12 -9h-8q-5 0 -7.5 3t-0.5 8l266 681q3 8 12 8h13q10 0 10 -8l102 -681v-2q0 -4 -3 -6.5t-7 -2.5h-10q-8 0 -10 8zM104 180.5q1 -1.5 3 -1.5h245q2 0 3.5 1.5t0.5 2.5l-67 465q-2 5 -5 0l-180 -465
q-1 -1 0 -2.5zM402 881q11 21 39 44q15 13 23 23.5t10 26.5q2 18 -10 30.5t-32 12.5t-32.5 -8.5t-28.5 -29.5q-7 -9 -14 -3l-3 2q-4 3 -4 6q0 4 3 8q19 26 36 37.5t46 11.5t47 -16t18 -42q0 -25 -11.5 -41.5t-34.5 -37.5q-20 -17 -30 -30l-2 -4q-5 -7 -11 -4l-4 1
q-10 3 -5 13zM208.5 781q-1.5 4 3.5 8l84 104q5 6 13 6h15q9 0 11 -6l60 -104l2 -5q0 -7 -9 -7h-12q-7 0 -11 6l-48 87q-1 2 -3 2t-3 -2l-72 -87q-4 -6 -12 -6h-11q-6 0 -7.5 4z" />
    <glyph glyph-name="uni1EA9" unicode="&#x1ea9;" 
d="M398 501h10q10 0 8 -10l-59 -481q-2 -10 -11 -10h-9q-5 0 -7.5 3t-1.5 7l7 54q0 3 -1.5 3t-3.5 -2q-22 -34 -56 -53.5t-75 -19.5q-61 0 -96.5 37.5t-35.5 98.5q0 34 11 122q12 88 19 121q14 61 59 99.5t107 38.5q41 0 70 -19.5t43 -53.5q1 -2 2.5 -2t2.5 3l6 54
q2 10 11 10zM358 250q8 71 11 114q2 51 -26 84t-79 33q-52 0 -90.5 -33t-49.5 -84q-5 -29 -16 -113l-3 -30q-6 -48 -9 -84q-2 -51 28.5 -84t82.5 -33q51 0 87.5 33t46.5 84q9 53 17 113zM367 682q11 21 39 44q15 13 23 23.5t10 26.5q2 18 -10 30.5t-32 12.5t-32.5 -8.5
t-28.5 -29.5q-7 -9 -14 -3l-3 2q-4 3 -4 6q0 4 3 8q19 26 36 37.5t46 11.5t47 -16t18 -42q0 -25 -11.5 -41.5t-34.5 -37.5q-20 -17 -30 -30l-2 -4q-5 -7 -11 -4l-4 1q-10 3 -5 13zM173.5 582q-1.5 4 3.5 8l84 104q5 6 13 6h15q9 0 11 -6l60 -104l2 -5q0 -7 -9 -7h-12
q-7 0 -11 6l-48 87q-1 2 -3 2t-3 -2l-72 -87q-4 -6 -12 -6h-11q-6 0 -7.5 4z" />
    <glyph glyph-name="uni1EAA" unicode="&#x1eaa;" horiz-adv-x="454" 
d="M381 8l-20 141q-1 3 -5 3h-261q-4 0 -5 -3l-54 -140q-4 -9 -12 -9h-8q-5 0 -7.5 3t-0.5 8l266 681q3 8 12 8h13q10 0 10 -8l102 -681v-2q0 -4 -3 -6.5t-7 -2.5h-10q-8 0 -10 8zM104 180.5q1 -1.5 3 -1.5h245q2 0 3.5 1.5t0.5 2.5l-67 465q-2 5 -5 0l-180 -465
q-1 -1 0 -2.5zM208.5 781q-1.5 4 3.5 8l84 104q5 6 13 6h15q9 0 11 -6l60 -104l2 -5q0 -7 -9 -7h-12q-7 0 -11 6l-48 87q-1 2 -3 2t-3 -2l-72 -87q-4 -6 -12 -6h-11q-6 0 -7.5 4zM351.5 934.5q-11.5 6.5 -24.5 17.5t-22 16t-22 5q-16 0 -27.5 -5.5t-26.5 -22.5q-6 -8 -14 -2
l-2 2q-4 3 -4 6q0 4 3 8q33 41 74 41q15 0 26 -5.5t27 -17.5q15 -12 24 -17t20 -5q29 0 53 31q3 4 7 5t7 -1l4 -2q3 -1 3 -6t-6 -14q-16 -20 -36 -30t-37 -10q-15 0 -26.5 6.5z" />
    <glyph glyph-name="uni1EAB" unicode="&#x1eab;" 
d="M398 501h10q10 0 8 -10l-59 -481q-2 -10 -11 -10h-9q-5 0 -7.5 3t-1.5 7l7 54q0 3 -1.5 3t-3.5 -2q-22 -34 -56 -53.5t-75 -19.5q-61 0 -96.5 37.5t-35.5 98.5q0 34 11 122q12 88 19 121q14 61 59 99.5t107 38.5q41 0 70 -19.5t43 -53.5q1 -2 2.5 -2t2.5 3l6 54
q2 10 11 10zM358 250q8 71 11 114q2 51 -26 84t-79 33q-52 0 -90.5 -33t-49.5 -84q-5 -29 -16 -113l-3 -30q-6 -48 -9 -84q-2 -51 28.5 -84t82.5 -33q51 0 87.5 33t46.5 84q9 53 17 113zM173.5 582q-1.5 4 3.5 8l84 104q5 6 13 6h15q9 0 11 -6l60 -104l2 -5q0 -7 -9 -7h-12
q-7 0 -11 6l-48 87q-1 2 -3 2t-3 -2l-72 -87q-4 -6 -12 -6h-11q-6 0 -7.5 4zM316.5 735.5q-11.5 6.5 -24.5 17.5t-22 16t-22 5q-16 0 -27.5 -5.5t-26.5 -22.5q-6 -8 -14 -2l-2 2q-4 3 -4 6q0 4 3 8q33 41 74 41q15 0 26 -5.5t27 -17.5q15 -12 24 -17t20 -5q29 0 53 31
q3 4 7 5t7 -1l4 -2q3 -1 3 -6t-6 -14q-16 -20 -36 -30t-37 -10q-15 0 -26.5 6.5z" />
    <glyph glyph-name="uni1EAC" unicode="&#x1eac;" horiz-adv-x="454" 
d="M381 8l-20 141q-1 3 -5 3h-261q-4 0 -5 -3l-54 -140q-4 -9 -12 -9h-8q-5 0 -7.5 3t-0.5 8l266 681q3 8 12 8h13q10 0 10 -8l102 -681v-2q0 -4 -3 -6.5t-7 -2.5h-10q-8 0 -10 8zM104 180.5q1 -1.5 3 -1.5h245q2 0 3.5 1.5t0.5 2.5l-67 465q-2 5 -5 0l-180 -465
q-1 -1 0 -2.5zM164.5 -154.5q-9.5 9.5 -9.5 25.5q0 19 13 32.5t31 13.5q15 0 24.5 -9.5t9.5 -24.5q0 -20 -13 -33.5t-31 -13.5q-15 0 -24.5 9.5zM208.5 781q-1.5 4 3.5 8l84 104q5 6 13 6h15q9 0 11 -6l60 -104l2 -5q0 -7 -9 -7h-12q-7 0 -11 6l-48 87q-1 2 -3 2t-3 -2
l-72 -87q-4 -6 -12 -6h-11q-6 0 -7.5 4z" />
    <glyph glyph-name="uni1EAD" unicode="&#x1ead;" 
d="M398 501h10q10 0 8 -10l-59 -481q-2 -10 -11 -10h-9q-5 0 -7.5 3t-1.5 7l7 54q0 3 -1.5 3t-3.5 -2q-22 -34 -56 -53.5t-75 -19.5q-61 0 -96.5 37.5t-35.5 98.5q0 34 11 122q12 88 19 121q14 61 59 99.5t107 38.5q41 0 70 -19.5t43 -53.5q1 -2 2.5 -2t2.5 3l6 54
q2 10 11 10zM358 250q8 71 11 114q2 51 -26 84t-79 33q-52 0 -90.5 -33t-49.5 -84q-5 -29 -16 -113l-3 -30q-6 -48 -9 -84q-2 -51 28.5 -84t82.5 -33q51 0 87.5 33t46.5 84q9 53 17 113zM152.5 -154.5q-9.5 9.5 -9.5 25.5q0 19 13 32.5t31 13.5q15 0 24.5 -9.5t9.5 -24.5
q0 -20 -13 -33.5t-31 -13.5q-15 0 -24.5 9.5zM173.5 582q-1.5 4 3.5 8l84 104q5 6 13 6h15q9 0 11 -6l60 -104l2 -5q0 -7 -9 -7h-12q-7 0 -11 6l-48 87q-1 2 -3 2t-3 -2l-72 -87q-4 -6 -12 -6h-11q-6 0 -7.5 4z" />
    <glyph glyph-name="uni1EAE" unicode="&#x1eae;" horiz-adv-x="454" 
d="M381 8l-20 141q-1 3 -5 3h-261q-4 0 -5 -3l-54 -140q-4 -9 -12 -9h-8q-5 0 -7.5 3t-0.5 8l266 681q3 8 12 8h13q10 0 10 -8l102 -681v-2q0 -4 -3 -6.5t-7 -2.5h-10q-8 0 -10 8zM104 180.5q1 -1.5 3 -1.5h245q2 0 3.5 1.5t0.5 2.5l-67 465q-2 5 -5 0l-180 -465
q-1 -1 0 -2.5zM241.5 814q-24.5 25 -22.5 63q0 10 10 10h5q9 0 9 -10q0 -28 18 -46t45 -18q28 0 50 18t29 46q3 10 12 10h5q5 0 7 -3t1 -7q-8 -38 -38.5 -63t-68.5 -25q-37 0 -61.5 25zM301.5 921.5q-1.5 3.5 1.5 8.5l74 112q5 7 13 7h8q6 0 8 -3.5t-2 -8.5l-77 -112
q-5 -7 -12 -7h-6q-6 0 -7.5 3.5z" />
    <glyph glyph-name="uni1EAF" unicode="&#x1eaf;" 
d="M398 501h10q10 0 8 -10l-59 -481q-2 -10 -11 -10h-9q-5 0 -7.5 3t-1.5 7l7 54q0 3 -1.5 3t-3.5 -2q-22 -34 -56 -53.5t-75 -19.5q-61 0 -96.5 37.5t-35.5 98.5q0 34 11 122q12 88 19 121q14 61 59 99.5t107 38.5q41 0 70 -19.5t43 -53.5q1 -2 2.5 -2t2.5 3l6 54
q2 10 11 10zM358 250q8 71 11 114q2 51 -26 84t-79 33q-52 0 -90.5 -33t-49.5 -84q-5 -29 -16 -113l-3 -30q-6 -48 -9 -84q-2 -51 28.5 -84t82.5 -33q51 0 87.5 33t46.5 84q9 53 17 113zM207.5 615q-24.5 25 -22.5 63q0 10 10 10h5q9 0 9 -10q0 -28 18 -46t45 -18
q28 0 50 18t29 46q3 10 12 10h5q5 0 7 -3t1 -7q-8 -38 -38.5 -63t-68.5 -25q-37 0 -61.5 25zM267.5 722.5q-1.5 3.5 1.5 8.5l74 112q5 7 13 7h8q6 0 8 -3.5t-2 -8.5l-77 -112q-5 -7 -12 -7h-6q-6 0 -7.5 3.5z" />
    <glyph glyph-name="uni1EB0" unicode="&#x1eb0;" horiz-adv-x="454" 
d="M381 8l-20 141q-1 3 -5 3h-261q-4 0 -5 -3l-54 -140q-4 -9 -12 -9h-8q-5 0 -7.5 3t-0.5 8l266 681q3 8 12 8h13q10 0 10 -8l102 -681v-2q0 -4 -3 -6.5t-7 -2.5h-10q-8 0 -10 8zM104 180.5q1 -1.5 3 -1.5h245q2 0 3.5 1.5t0.5 2.5l-67 465q-2 5 -5 0l-180 -465
q-1 -1 0 -2.5zM241.5 814q-24.5 25 -22.5 63q0 10 10 10h5q9 0 9 -10q0 -28 18 -46t45 -18q28 0 50 18t29 46q3 10 12 10h5q5 0 7 -3t1 -7q-8 -38 -38.5 -63t-68.5 -25q-37 0 -61.5 25zM331 925q0 -7 -8 -7h-6q-7 0 -11 7l-49 112q-1 2 -1 5q0 7 9 7h8q7 0 11 -7l46 -112
q1 -2 1 -5z" />
    <glyph glyph-name="uni1EB1" unicode="&#x1eb1;" 
d="M398 501h10q10 0 8 -10l-59 -481q-2 -10 -11 -10h-9q-5 0 -7.5 3t-1.5 7l7 54q0 3 -1.5 3t-3.5 -2q-22 -34 -56 -53.5t-75 -19.5q-61 0 -96.5 37.5t-35.5 98.5q0 34 11 122q12 88 19 121q14 61 59 99.5t107 38.5q41 0 70 -19.5t43 -53.5q1 -2 2.5 -2t2.5 3l6 54
q2 10 11 10zM358 250q8 71 11 114q2 51 -26 84t-79 33q-52 0 -90.5 -33t-49.5 -84q-5 -29 -16 -113l-3 -30q-6 -48 -9 -84q-2 -51 28.5 -84t82.5 -33q51 0 87.5 33t46.5 84q9 53 17 113zM207.5 615q-24.5 25 -22.5 63q0 10 10 10h5q9 0 9 -10q0 -28 18 -46t45 -18
q28 0 50 18t29 46q3 10 12 10h5q5 0 7 -3t1 -7q-8 -38 -38.5 -63t-68.5 -25q-37 0 -61.5 25zM297 726q0 -7 -8 -7h-6q-7 0 -11 7l-49 112q-1 2 -1 5q0 7 9 7h8q7 0 11 -7l46 -112q1 -2 1 -5z" />
    <glyph glyph-name="uni1EB2" unicode="&#x1eb2;" horiz-adv-x="454" 
d="M381 8l-20 141q-1 3 -5 3h-261q-4 0 -5 -3l-54 -140q-4 -9 -12 -9h-8q-5 0 -7.5 3t-0.5 8l266 681q3 8 12 8h13q10 0 10 -8l102 -681v-2q0 -4 -3 -6.5t-7 -2.5h-10q-8 0 -10 8zM104 180.5q1 -1.5 3 -1.5h245q2 0 3.5 1.5t0.5 2.5l-67 465q-2 5 -5 0l-180 -465
q-1 -1 0 -2.5zM308 905.5q-1 3.5 2 7.5q12 22 38 44q15 13 23 23.5t10 26.5q2 17 -10.5 30t-31.5 13q-20 0 -32.5 -8.5t-28.5 -29.5q-6 -9 -14 -3l-2 2q-4 3 -4.5 6t2.5 8q19 26 36 37.5t46 11.5q31 0 49.5 -19t15.5 -48q-3 -22 -15 -37t-32 -33q-18 -15 -29 -30l-2 -4
q-5 -7 -11 -4l-4 1q-5 2 -6 5.5zM241.5 814q-24.5 25 -22.5 63q0 10 10 10h5q9 0 9 -10q0 -28 18 -46t45 -18q28 0 50 18t29 46q3 10 12 10h5q5 0 7 -3t1 -7q-8 -38 -38.5 -63t-68.5 -25q-37 0 -61.5 25z" />
    <glyph glyph-name="uni1EB3" unicode="&#x1eb3;" 
d="M398 501h10q10 0 8 -10l-59 -481q-2 -10 -11 -10h-9q-5 0 -7.5 3t-1.5 7l7 54q0 3 -1.5 3t-3.5 -2q-22 -34 -56 -53.5t-75 -19.5q-61 0 -96.5 37.5t-35.5 98.5q0 34 11 122q12 88 19 121q14 61 59 99.5t107 38.5q41 0 70 -19.5t43 -53.5q1 -2 2.5 -2t2.5 3l6 54
q2 10 11 10zM358 250q8 71 11 114q2 51 -26 84t-79 33q-52 0 -90.5 -33t-49.5 -84q-5 -29 -16 -113l-3 -30q-6 -48 -9 -84q-2 -51 28.5 -84t82.5 -33q51 0 87.5 33t46.5 84q9 53 17 113zM274 706.5q-1 3.5 2 7.5q12 22 38 44q15 13 23 23.5t10 26.5q2 17 -10.5 30t-31.5 13
q-20 0 -32.5 -8.5t-28.5 -29.5q-6 -9 -14 -3l-2 2q-4 3 -4.5 6t2.5 8q19 26 36 37.5t46 11.5q31 0 49.5 -19t15.5 -48q-3 -22 -15 -37t-32 -33q-18 -15 -29 -30l-2 -4q-5 -7 -11 -4l-4 1q-5 2 -6 5.5zM207.5 615q-24.5 25 -22.5 63q0 10 10 10h5q9 0 9 -10q0 -28 18 -46
t45 -18q28 0 50 18t29 46q3 10 12 10h5q5 0 7 -3t1 -7q-8 -38 -38.5 -63t-68.5 -25q-37 0 -61.5 25z" />
    <glyph glyph-name="uni1EB4" unicode="&#x1eb4;" horiz-adv-x="454" 
d="M381 8l-20 141q-1 3 -5 3h-261q-4 0 -5 -3l-54 -140q-4 -9 -12 -9h-8q-5 0 -7.5 3t-0.5 8l266 681q3 8 12 8h13q10 0 10 -8l102 -681v-2q0 -4 -3 -6.5t-7 -2.5h-10q-8 0 -10 8zM104 180.5q1 -1.5 3 -1.5h245q2 0 3.5 1.5t0.5 2.5l-67 465q-2 5 -5 0l-180 -465
q-1 -1 0 -2.5zM348.5 936.5q-10.5 5.5 -27.5 17.5q-14 12 -22 17t-20 5q-16 0 -28 -5.5t-26 -22.5q-8 -8 -14 -2l-3 2q-7 5 -1 14q33 41 75 41q14 0 24 -5.5t27 -17.5q5 -3 14 -9.5t16 -10t15 -3.5q14 0 26.5 7t26.5 25q2 4 6 5t8 -1l3 -2q4 -2 4 -7t-6 -13
q-16 -20 -36.5 -30t-36.5 -10q-14 0 -24.5 5.5zM241.5 814q-24.5 25 -22.5 63q0 10 10 10h5q9 0 9 -10q0 -28 18 -46t45 -18q28 0 50 18t29 46q3 10 12 10h5q5 0 7 -3t1 -7q-8 -38 -38.5 -63t-68.5 -25q-37 0 -61.5 25z" />
    <glyph glyph-name="uni1EB5" unicode="&#x1eb5;" 
d="M398 501h10q10 0 8 -10l-59 -481q-2 -10 -11 -10h-9q-5 0 -7.5 3t-1.5 7l7 54q0 3 -1.5 3t-3.5 -2q-22 -34 -56 -53.5t-75 -19.5q-61 0 -96.5 37.5t-35.5 98.5q0 34 11 122q12 88 19 121q14 61 59 99.5t107 38.5q41 0 70 -19.5t43 -53.5q1 -2 2.5 -2t2.5 3l6 54
q2 10 11 10zM358 250q8 71 11 114q2 51 -26 84t-79 33q-52 0 -90.5 -33t-49.5 -84q-5 -29 -16 -113l-3 -30q-6 -48 -9 -84q-2 -51 28.5 -84t82.5 -33q51 0 87.5 33t46.5 84q9 53 17 113zM314.5 737.5q-10.5 5.5 -27.5 17.5q-14 12 -22 17t-20 5q-16 0 -28 -5.5t-26 -22.5
q-8 -8 -14 -2l-3 2q-7 5 -1 14q33 41 75 41q14 0 24 -5.5t27 -17.5q5 -3 14 -9.5t16 -10t15 -3.5q14 0 26.5 7t26.5 25q2 4 6 5t8 -1l3 -2q4 -2 4 -7t-6 -13q-16 -20 -36.5 -30t-36.5 -10q-14 0 -24.5 5.5zM207.5 615q-24.5 25 -22.5 63q0 10 10 10h5q9 0 9 -10
q0 -28 18 -46t45 -18q28 0 50 18t29 46q3 10 12 10h5q5 0 7 -3t1 -7q-8 -38 -38.5 -63t-68.5 -25q-37 0 -61.5 25z" />
    <glyph glyph-name="uni1EB6" unicode="&#x1eb6;" horiz-adv-x="454" 
d="M381 8l-20 141q-1 3 -5 3h-261q-4 0 -5 -3l-54 -140q-4 -9 -12 -9h-8q-5 0 -7.5 3t-0.5 8l266 681q3 8 12 8h13q10 0 10 -8l102 -681v-2q0 -4 -3 -6.5t-7 -2.5h-10q-8 0 -10 8zM104 180.5q1 -1.5 3 -1.5h245q2 0 3.5 1.5t0.5 2.5l-67 465q-2 5 -5 0l-180 -465
q-1 -1 0 -2.5zM164.5 -154.5q-9.5 9.5 -9.5 25.5q0 19 13 32.5t31 13.5q15 0 24.5 -9.5t9.5 -24.5q0 -20 -13 -33.5t-31 -13.5q-15 0 -24.5 9.5zM241.5 814q-24.5 25 -22.5 63q0 10 10 10h5q9 0 9 -10q0 -28 18 -46t45 -18q28 0 50 18t29 46q3 10 12 10h5q5 0 7 -3t1 -7
q-8 -38 -38.5 -63t-68.5 -25q-37 0 -61.5 25z" />
    <glyph glyph-name="uni1EB7" unicode="&#x1eb7;" 
d="M398 501h10q10 0 8 -10l-59 -481q-2 -10 -11 -10h-9q-5 0 -7.5 3t-1.5 7l7 54q0 3 -1.5 3t-3.5 -2q-22 -34 -56 -53.5t-75 -19.5q-61 0 -96.5 37.5t-35.5 98.5q0 34 11 122q12 88 19 121q14 61 59 99.5t107 38.5q41 0 70 -19.5t43 -53.5q1 -2 2.5 -2t2.5 3l6 54
q2 10 11 10zM358 250q8 71 11 114q2 51 -26 84t-79 33q-52 0 -90.5 -33t-49.5 -84q-5 -29 -16 -113l-3 -30q-6 -48 -9 -84q-2 -51 28.5 -84t82.5 -33q51 0 87.5 33t46.5 84q9 53 17 113zM152.5 -154.5q-9.5 9.5 -9.5 25.5q0 19 13 32.5t31 13.5q15 0 24.5 -9.5t9.5 -24.5
q0 -20 -13 -33.5t-31 -13.5q-15 0 -24.5 9.5zM207.5 615q-24.5 25 -22.5 63q0 10 10 10h5q9 0 9 -10q0 -28 18 -46t45 -18q28 0 50 18t29 46q3 10 12 10h5q5 0 7 -3t1 -7q-8 -38 -38.5 -63t-68.5 -25q-37 0 -61.5 25z" />
    <glyph glyph-name="uni1EB8" unicode="&#x1eb8;" horiz-adv-x="505" 
d="M509 675q-3 -3 -7 -3h-308q-4 0 -4 -4l-37 -300q0 -4 3 -4h214q4 0 6.5 -3t1.5 -7l-1 -7q0 -4 -3 -7t-8 -3h-213q-4 0 -4 -4l-37 -301q-1 -1 0 -2.5t3 -1.5h307q5 0 7.5 -3t1.5 -7l-1 -8q-2 -10 -11 -10h-331q-10 0 -8 10l83 680q2 10 11 10h331q10 0 8 -10l-1 -8
q0 -4 -3 -7zM207.5 -154.5q-9.5 9.5 -9.5 25.5q0 19 13 32.5t31 13.5q15 0 24.5 -9.5t9.5 -24.5q0 -20 -13 -33.5t-31 -13.5q-15 0 -24.5 9.5z" />
    <glyph glyph-name="uni1EB9" unicode="&#x1eb9;" horiz-adv-x="445" 
d="M288 44q35 24 53 64q4 8 13 7l8 -1q9 -2 6 -12q-20 -50 -64 -80t-100 -30q-62 0 -98.5 37.5t-36.5 97.5q-1 26 7 95l3 29q10 82 19 119q14 61 60.5 100t108.5 39q64 0 101 -38t37 -100q0 -21 -3.5 -53.5t-8.5 -71.5q-2 -10 -11 -10h-272q-4 0 -4 -4q-2 -24 -4 -33
q-1 -16 -3 -31.5t-3 -29.5q-2 -53 28.5 -85.5t83.5 -32.5q45 0 80 24zM173.5 449.5q-38.5 -32.5 -50.5 -85.5l-6 -41l-6 -47q0 -4 4 -4h248q4 0 5 4l3 26l5 62q1 53 -29 85.5t-82 32.5q-53 0 -91.5 -32.5zM157.5 -158.5q-9.5 9.5 -9.5 25.5q0 19 13 32.5t31 13.5
q15 0 24.5 -9.5t9.5 -24.5q0 -20 -13 -33.5t-31 -13.5q-15 0 -24.5 9.5z" />
    <glyph glyph-name="uni1EBA" unicode="&#x1eba;" horiz-adv-x="505" 
d="M509 675q-3 -3 -7 -3h-308q-4 0 -4 -4l-37 -300q0 -4 3 -4h214q4 0 6.5 -3t1.5 -7l-1 -7q0 -4 -3 -7t-8 -3h-213q-4 0 -4 -4l-37 -301q-1 -1 0 -2.5t3 -1.5h307q5 0 7.5 -3t1.5 -7l-1 -8q-2 -10 -11 -10h-331q-10 0 -8 10l83 680q2 10 11 10h331q10 0 8 -10l-1 -8
q0 -4 -3 -7zM335 759q7 14 18 25.5t21 20.5q16 14 23.5 24t9.5 25q2 17 -10.5 30t-31.5 13q-20 0 -32.5 -8.5t-28.5 -29.5q-8 -10 -14 -4l-4 3q-6 6 -1 13q20 27 37 38.5t46 11.5q28 0 46.5 -17t18.5 -42t-11.5 -41t-34.5 -37q-24 -20 -31 -32q-4 -8 -13 -7l-4 1q-9 4 -4 13
z" />
    <glyph glyph-name="uni1EBB" unicode="&#x1ebb;" horiz-adv-x="445" 
d="M288 44q35 24 53 64q4 8 13 7l8 -1q9 -2 6 -12q-20 -50 -64 -80t-100 -30q-62 0 -98.5 37.5t-36.5 97.5q-1 26 7 95l3 29q10 82 19 119q14 61 60.5 100t108.5 39q64 0 101 -38t37 -100q0 -21 -3.5 -53.5t-8.5 -71.5q-2 -10 -11 -10h-272q-4 0 -4 -4q-2 -24 -4 -33
q-1 -16 -3 -31.5t-3 -29.5q-2 -53 28.5 -85.5t83.5 -32.5q45 0 80 24zM173.5 449.5q-38.5 -32.5 -50.5 -85.5l-6 -41l-6 -47q0 -4 4 -4h248q4 0 5 4l3 26l5 62q1 53 -29 85.5t-82 32.5q-53 0 -91.5 -32.5zM263 560q7 14 18 25.5t21 20.5q16 14 23.5 24t9.5 25q2 17 -10.5 30
t-31.5 13q-20 0 -32.5 -8.5t-28.5 -29.5q-8 -10 -14 -4l-4 3q-6 6 -1 13q20 27 37 38.5t46 11.5q28 0 46.5 -17t18.5 -42t-11.5 -41t-34.5 -37q-24 -20 -31 -32q-4 -8 -13 -7l-4 1q-9 4 -4 13z" />
    <glyph glyph-name="uni1EBC" unicode="&#x1ebc;" horiz-adv-x="505" 
d="M509 675q-3 -3 -7 -3h-308q-4 0 -4 -4l-37 -300q0 -4 3 -4h214q4 0 6.5 -3t1.5 -7l-1 -7q0 -4 -3 -7t-8 -3h-213q-4 0 -4 -4l-37 -301q-1 -1 0 -2.5t3 -1.5h307q5 0 7.5 -3t1.5 -7l-1 -8q-2 -10 -11 -10h-331q-10 0 -8 10l83 680q2 10 11 10h331q10 0 8 -10l-1 -8
q0 -4 -3 -7zM383.5 826.5q-11.5 6.5 -24.5 17.5t-22 16t-22 5q-16 0 -27.5 -5.5t-26.5 -22.5q-6 -8 -14 -2l-2 2q-4 3 -4 6q0 4 3 8q33 41 74 41q15 0 26 -5.5t27 -17.5q15 -12 24 -17t20 -5q29 0 53 31q3 4 7 5t7 -1l4 -2q3 -1 3 -6t-6 -14q-16 -20 -36 -30t-37 -10
q-15 0 -26.5 6.5z" />
    <glyph glyph-name="uni1EBD" unicode="&#x1ebd;" horiz-adv-x="445" 
d="M288 44q35 24 53 64q4 8 13 7l8 -1q9 -2 6 -12q-20 -50 -64 -80t-100 -30q-62 0 -98.5 37.5t-36.5 97.5q-1 26 7 95l3 29q10 82 19 119q14 61 60.5 100t108.5 39q64 0 101 -38t37 -100q0 -21 -3.5 -53.5t-8.5 -71.5q-2 -10 -11 -10h-272q-4 0 -4 -4q-2 -24 -4 -33
q-1 -16 -3 -31.5t-3 -29.5q-2 -53 28.5 -85.5t83.5 -32.5q45 0 80 24zM173.5 449.5q-38.5 -32.5 -50.5 -85.5l-6 -41l-6 -47q0 -4 4 -4h248q4 0 5 4l3 26l5 62q1 53 -29 85.5t-82 32.5q-53 0 -91.5 -32.5zM310.5 627.5q-11.5 6.5 -24.5 17.5t-22 16t-22 5q-16 0 -27.5 -5.5
t-26.5 -22.5q-6 -8 -14 -2l-2 2q-4 3 -4 6q0 4 3 8q33 41 74 41q15 0 26 -5.5t27 -17.5q15 -12 24 -17t20 -5q29 0 53 31q3 4 7 5t7 -1l4 -2q3 -1 3 -6t-6 -14q-16 -20 -36 -30t-37 -10q-15 0 -26.5 6.5z" />
    <glyph glyph-name="uni1EBE" unicode="&#x1ebe;" horiz-adv-x="505" 
d="M509 675q-3 -3 -7 -3h-308q-4 0 -4 -4l-37 -300q0 -4 3 -4h214q4 0 6.5 -3t1.5 -7l-1 -7q0 -4 -3 -7t-8 -3h-213q-4 0 -4 -4l-37 -301q-1 -1 0 -2.5t3 -1.5h307q5 0 7.5 -3t1.5 -7l-1 -8q-2 -10 -11 -10h-331q-10 0 -8 10l83 680q2 10 11 10h331q10 0 8 -10l-1 -8
q0 -4 -3 -7zM252.5 781q-1.5 4 3.5 8l84 104q5 6 13 6h15q9 0 11 -6l60 -104l2 -5q0 -7 -9 -7h-12q-7 0 -11 6l-48 87q-1 2 -3 2t-3 -2l-72 -87q-4 -6 -12 -6h-11q-6 0 -7.5 4zM455.5 847.5q-1.5 3.5 1.5 8.5l74 112q5 7 13 7h8q6 0 8 -3.5t-2 -8.5l-77 -112q-5 -7 -12 -7
h-6q-6 0 -7.5 3.5z" />
    <glyph glyph-name="uni1EBF" unicode="&#x1ebf;" horiz-adv-x="445" 
d="M288 44q35 24 53 64q4 8 13 7l8 -1q9 -2 6 -12q-20 -50 -64 -80t-100 -30q-62 0 -98.5 37.5t-36.5 97.5q-1 26 7 95l3 29q10 82 19 119q14 61 60.5 100t108.5 39q64 0 101 -38t37 -100q0 -21 -3.5 -53.5t-8.5 -71.5q-2 -10 -11 -10h-272q-4 0 -4 -4q-2 -24 -4 -33
q-1 -16 -3 -31.5t-3 -29.5q-2 -53 28.5 -85.5t83.5 -32.5q45 0 80 24zM173.5 449.5q-38.5 -32.5 -50.5 -85.5l-6 -41l-6 -47q0 -4 4 -4h248q4 0 5 4l3 26l5 62q1 53 -29 85.5t-82 32.5q-53 0 -91.5 -32.5zM179.5 582q-1.5 4 3.5 8l84 104q5 6 13 6h15q9 0 11 -6l60 -104
l2 -5q0 -7 -9 -7h-12q-7 0 -11 6l-48 87q-1 2 -3 2t-3 -2l-72 -87q-4 -6 -12 -6h-11q-6 0 -7.5 4zM382.5 648.5q-1.5 3.5 1.5 8.5l74 112q5 7 13 7h8q6 0 8 -3.5t-2 -8.5l-77 -112q-5 -7 -12 -7h-6q-6 0 -7.5 3.5z" />
    <glyph glyph-name="uni1EC0" unicode="&#x1ec0;" horiz-adv-x="505" 
d="M509 675q-3 -3 -7 -3h-308q-4 0 -4 -4l-37 -300q0 -4 3 -4h214q4 0 6.5 -3t1.5 -7l-1 -7q0 -4 -3 -7t-8 -3h-213q-4 0 -4 -4l-37 -301q-1 -1 0 -2.5t3 -1.5h307q5 0 7.5 -3t1.5 -7l-1 -8q-2 -10 -11 -10h-331q-10 0 -8 10l83 680q2 10 11 10h331q10 0 8 -10l-1 -8
q0 -4 -3 -7zM252.5 781q-1.5 4 3.5 8l84 104q5 6 13 6h15q9 0 11 -6l60 -104l2 -5q0 -7 -9 -7h-12q-7 0 -11 6l-48 87q-1 2 -3 2t-3 -2l-72 -87q-4 -6 -12 -6h-11q-6 0 -7.5 4zM487 893q0 -7 -8 -7h-6q-7 0 -11 7l-49 112q-1 2 -1 5q0 7 9 7h8q7 0 11 -7l46 -112q1 -2 1 -5z
" />
    <glyph glyph-name="uni1EC1" unicode="&#x1ec1;" horiz-adv-x="445" 
d="M288 44q35 24 53 64q4 8 13 7l8 -1q9 -2 6 -12q-20 -50 -64 -80t-100 -30q-62 0 -98.5 37.5t-36.5 97.5q-1 26 7 95l3 29q10 82 19 119q14 61 60.5 100t108.5 39q64 0 101 -38t37 -100q0 -21 -3.5 -53.5t-8.5 -71.5q-2 -10 -11 -10h-272q-4 0 -4 -4q-2 -24 -4 -33
q-1 -16 -3 -31.5t-3 -29.5q-2 -53 28.5 -85.5t83.5 -32.5q45 0 80 24zM173.5 449.5q-38.5 -32.5 -50.5 -85.5l-6 -41l-6 -47q0 -4 4 -4h248q4 0 5 4l3 26l5 62q1 53 -29 85.5t-82 32.5q-53 0 -91.5 -32.5zM179.5 582q-1.5 4 3.5 8l84 104q5 6 13 6h15q9 0 11 -6l60 -104
l2 -5q0 -7 -9 -7h-12q-7 0 -11 6l-48 87q-1 2 -3 2t-3 -2l-72 -87q-4 -6 -12 -6h-11q-6 0 -7.5 4zM414 694q0 -7 -8 -7h-6q-7 0 -11 7l-49 112q-1 2 -1 5q0 7 9 7h8q7 0 11 -7l46 -112q1 -2 1 -5z" />
    <glyph glyph-name="uni1EC2" unicode="&#x1ec2;" horiz-adv-x="505" 
d="M509 675q-3 -3 -7 -3h-308q-4 0 -4 -4l-37 -300q0 -4 3 -4h214q4 0 6.5 -3t1.5 -7l-1 -7q0 -4 -3 -7t-8 -3h-213q-4 0 -4 -4l-37 -301q-1 -1 0 -2.5t3 -1.5h307q5 0 7.5 -3t1.5 -7l-1 -8q-2 -10 -11 -10h-331q-10 0 -8 10l83 680q2 10 11 10h331q10 0 8 -10l-1 -8
q0 -4 -3 -7zM446 881q11 21 39 44q15 13 23 23.5t10 26.5q2 18 -10 30.5t-32 12.5t-32.5 -8.5t-28.5 -29.5q-7 -9 -14 -3l-3 2q-4 3 -4 6q0 4 3 8q19 26 36 37.5t46 11.5t47 -16t18 -42q0 -25 -11.5 -41.5t-34.5 -37.5q-20 -17 -30 -30l-2 -4q-5 -7 -11 -4l-4 1q-10 3 -5 13
zM252.5 781q-1.5 4 3.5 8l84 104q5 6 13 6h15q9 0 11 -6l60 -104l2 -5q0 -7 -9 -7h-12q-7 0 -11 6l-48 87q-1 2 -3 2t-3 -2l-72 -87q-4 -6 -12 -6h-11q-6 0 -7.5 4z" />
    <glyph glyph-name="uni1EC3" unicode="&#x1ec3;" horiz-adv-x="445" 
d="M288 44q35 24 53 64q4 8 13 7l8 -1q9 -2 6 -12q-20 -50 -64 -80t-100 -30q-62 0 -98.5 37.5t-36.5 97.5q-1 26 7 95l3 29q10 82 19 119q14 61 60.5 100t108.5 39q64 0 101 -38t37 -100q0 -21 -3.5 -53.5t-8.5 -71.5q-2 -10 -11 -10h-272q-4 0 -4 -4q-2 -24 -4 -33
q-1 -16 -3 -31.5t-3 -29.5q-2 -53 28.5 -85.5t83.5 -32.5q45 0 80 24zM173.5 449.5q-38.5 -32.5 -50.5 -85.5l-6 -41l-6 -47q0 -4 4 -4h248q4 0 5 4l3 26l5 62q1 53 -29 85.5t-82 32.5q-53 0 -91.5 -32.5zM373 682q11 21 39 44q15 13 23 23.5t10 26.5q2 18 -10 30.5
t-32 12.5t-32.5 -8.5t-28.5 -29.5q-7 -9 -14 -3l-3 2q-4 3 -4 6q0 4 3 8q19 26 36 37.5t46 11.5t47 -16t18 -42q0 -25 -11.5 -41.5t-34.5 -37.5q-20 -17 -30 -30l-2 -4q-5 -7 -11 -4l-4 1q-10 3 -5 13zM179.5 582q-1.5 4 3.5 8l84 104q5 6 13 6h15q9 0 11 -6l60 -104l2 -5
q0 -7 -9 -7h-12q-7 0 -11 6l-48 87q-1 2 -3 2t-3 -2l-72 -87q-4 -6 -12 -6h-11q-6 0 -7.5 4z" />
    <glyph glyph-name="uni1EC4" unicode="&#x1ec4;" horiz-adv-x="505" 
d="M509 675q-3 -3 -7 -3h-308q-4 0 -4 -4l-37 -300q0 -4 3 -4h214q4 0 6.5 -3t1.5 -7l-1 -7q0 -4 -3 -7t-8 -3h-213q-4 0 -4 -4l-37 -301q-1 -1 0 -2.5t3 -1.5h307q5 0 7.5 -3t1.5 -7l-1 -8q-2 -10 -11 -10h-331q-10 0 -8 10l83 680q2 10 11 10h331q10 0 8 -10l-1 -8
q0 -4 -3 -7zM252.5 781q-1.5 4 3.5 8l84 104q5 6 13 6h15q9 0 11 -6l60 -104l2 -5q0 -7 -9 -7h-12q-7 0 -11 6l-48 87q-1 2 -3 2t-3 -2l-72 -87q-4 -6 -12 -6h-11q-6 0 -7.5 4zM395.5 934.5q-11.5 6.5 -24.5 17.5t-22 16t-22 5q-16 0 -27.5 -5.5t-26.5 -22.5q-6 -8 -14 -2
l-2 2q-4 3 -4 6q0 4 3 8q33 41 74 41q15 0 26 -5.5t27 -17.5q15 -12 24 -17t20 -5q29 0 53 31q3 4 7 5t7 -1l4 -2q3 -1 3 -6t-6 -14q-16 -20 -36 -30t-37 -10q-15 0 -26.5 6.5z" />
    <glyph glyph-name="uni1EC5" unicode="&#x1ec5;" horiz-adv-x="445" 
d="M288 44q35 24 53 64q4 8 13 7l8 -1q9 -2 6 -12q-20 -50 -64 -80t-100 -30q-62 0 -98.5 37.5t-36.5 97.5q-1 26 7 95l3 29q10 82 19 119q14 61 60.5 100t108.5 39q64 0 101 -38t37 -100q0 -21 -3.5 -53.5t-8.5 -71.5q-2 -10 -11 -10h-272q-4 0 -4 -4q-2 -24 -4 -33
q-1 -16 -3 -31.5t-3 -29.5q-2 -53 28.5 -85.5t83.5 -32.5q45 0 80 24zM173.5 449.5q-38.5 -32.5 -50.5 -85.5l-6 -41l-6 -47q0 -4 4 -4h248q4 0 5 4l3 26l5 62q1 53 -29 85.5t-82 32.5q-53 0 -91.5 -32.5zM179.5 582q-1.5 4 3.5 8l84 104q5 6 13 6h15q9 0 11 -6l60 -104
l2 -5q0 -7 -9 -7h-12q-7 0 -11 6l-48 87q-1 2 -3 2t-3 -2l-72 -87q-4 -6 -12 -6h-11q-6 0 -7.5 4zM322.5 735.5q-11.5 6.5 -24.5 17.5t-22 16t-22 5q-16 0 -27.5 -5.5t-26.5 -22.5q-6 -8 -14 -2l-2 2q-4 3 -4 6q0 4 3 8q33 41 74 41q15 0 26 -5.5t27 -17.5q15 -12 24 -17
t20 -5q29 0 53 31q3 4 7 5t7 -1l4 -2q3 -1 3 -6t-6 -14q-16 -20 -36 -30t-37 -10q-15 0 -26.5 6.5z" />
    </font>
</defs>
</svg>
