<svg width="248" height="297" viewBox="0 0 248 297" fill="none" xmlns="http://www.w3.org/2000/svg">
<path d="M230.924 9.18939C231.942 9.18939 232.951 9.38945 233.891 9.77815C234.832 10.1669 235.687 10.7366 236.408 11.4548C237.128 12.173 237.699 13.0257 238.089 13.9641C238.478 14.9025 238.679 15.9083 238.679 16.924V132.517C238.679 198.154 194.031 255.596 127.291 287.102C126.245 287.592 125.103 287.847 123.947 287.847C122.791 287.847 121.649 287.592 120.602 287.102C53.862 255.596 9.21417 198.154 9.21417 132.517V16.924C9.22352 14.8755 10.0436 12.9136 11.4961 11.4651C12.9485 10.0166 14.9157 9.19873 16.9697 9.18939H230.924ZM230.924 0.000148619H16.9697C12.472 0.00952294 8.16111 1.79557 4.9807 4.96737C1.80029 8.13918 0.00939975 12.4384 0 16.924V132.517C0.293501 166.974 11.6661 200.427 32.4453 227.957C54.5054 257.015 83.4353 280.174 116.654 295.369C118.934 296.443 121.425 297 123.947 297C126.469 297 128.959 296.443 131.24 295.369C164.458 280.174 193.388 257.015 215.448 227.957C236.265 200.44 247.676 166.986 248 132.517V16.924C247.995 14.6938 247.55 12.4865 246.689 10.4284C245.827 8.37027 244.568 6.50172 242.982 4.92973C241.395 3.35774 239.514 2.11318 237.445 1.2673C235.376 0.421411 233.16 -0.0091873 230.924 0.000148619Z" fill="#ED324A"/>
</svg>
