<svg width="75" height="75" viewBox="0 0 75 75" fill="none" xmlns="http://www.w3.org/2000/svg">
<path d="M27.4597 38.0002L27.4597 38.0003L27.4709 37.9995C27.8502 37.9711 28.2272 38.2924 28.2492 38.7096L29.4992 62.4594L29.4992 62.4596C29.5104 62.6709 29.4302 62.8793 29.2799 63.0296L25.53 66.7795C25.3835 66.926 25.1923 66.9993 24.9998 66.9993C24.8074 66.9993 24.6167 66.9261 24.4705 66.7792L24.4696 66.7783L20.7196 63.0283C20.5693 62.878 20.4892 62.6697 20.5004 62.4583L20.5004 62.4582L21.7503 38.7093C21.7503 38.7092 21.7503 38.709 21.7504 38.7089C21.7739 38.2807 22.1106 37.9699 22.5322 37.9985L22.5322 37.9985L22.5389 37.9989C22.9522 38.0214 23.2701 38.3738 23.2492 38.7889C23.2492 38.789 23.2492 38.7892 23.2492 38.7893L22.028 61.9818L22.0163 62.2041L22.1737 62.3616L24.6461 64.8353L24.9997 65.1891L25.3533 64.8354L27.8258 62.3629L27.9833 62.2055L27.9716 61.9831L26.7503 38.7896C26.7285 38.3747 27.0462 38.0219 27.4597 38.0002Z" fill="#ED324A" stroke="#ED324A"/>
<path d="M1.99998 65.4994V64.9994V44.6833C1.99998 43.6781 2.39936 42.6018 2.99339 41.6958C3.58739 40.7897 4.41509 39.9944 5.33731 39.5946L20.1351 33.16L1.99998 65.4994ZM1.99998 65.4994H2.49998M1.99998 65.4994H2.49998M2.49998 65.4994H6.24994C6.66504 65.4994 6.99993 65.8343 6.99993 66.2494C6.99993 66.6645 6.66504 66.9993 6.24994 66.9993H1.24999C0.834887 66.9993 0.5 66.6645 0.5 66.2494V44.6833C0.5 43.4094 0.95989 42.0488 1.73369 40.8692C2.5075 39.6895 3.57193 38.7263 4.73909 38.2195L4.73936 38.2194L18.7855 32.1107L19.0861 31.98V31.6522V28.7797V28.5303L18.8868 28.3803C17.9296 27.6595 16.0845 25.7766 14.8076 21.3694L14.7792 21.2713L14.7145 21.1922C14.2818 20.6626 13.3068 19.3139 12.9754 17.6402L12.975 17.6386C12.8711 17.1225 12.8068 16.3853 12.8869 15.6572C12.9679 14.9208 13.189 14.2602 13.5947 13.8242L13.7498 13.6574L13.7258 13.4309C13.6347 12.571 13.5369 11.0973 13.6854 9.5075C13.8346 7.90977 14.2282 6.24509 15.0821 4.96489L15.0821 4.96487C17.2534 1.70911 21.7445 0.5 24.9998 0.5C28.2548 0.5 32.746 1.70897 34.9212 4.96239C35.775 6.24255 36.1684 7.90718 36.3174 9.50495C36.4658 11.0948 36.3679 12.5685 36.2774 13.4288L36.2535 13.6553L36.4088 13.8219C36.8149 14.2579 37.0363 14.9187 37.1171 15.6556C37.1971 16.3844 37.1322 17.1226 37.0271 17.6404L37.0267 17.6425C36.6953 19.3125 35.7203 20.6612 35.2886 21.1898L35.2241 21.2688L35.1957 21.3669C33.9188 25.7727 32.0737 27.6558 31.1161 28.378L30.9172 28.528V28.7772V31.6497V31.9775L31.2178 32.1082L45.2639 38.2169L45.2642 38.217C45.7669 38.4353 46.2618 38.7429 46.7324 39.1341L46.7331 39.1347C47.0512 39.3982 47.0958 39.8709 46.8317 40.1895C46.6814 40.3688 46.468 40.4608 46.252 40.4608C46.0825 40.4608 45.9141 40.4048 45.7736 40.2884C45.4202 39.9951 45.0488 39.7576 44.6637 39.5917C44.6637 39.5917 44.6636 39.5917 44.6636 39.5916L29.8679 33.1574L29.8677 33.1573C29.5926 33.0378 29.416 32.7679 29.416 32.4697V28.096C29.416 27.8008 29.5911 27.5313 29.8603 27.4116L29.751 26.8966C29.7961 26.8667 29.8564 26.8243 29.9297 26.7675C30.0505 27.0372 29.9887 27.3279 29.9554 27.3561C29.9437 27.3645 29.9265 27.376 29.9213 27.3793C29.9139 27.3839 29.908 27.3873 29.9078 27.3874L29.9113 27.3854C29.9142 27.3838 29.9175 27.3819 29.9211 27.3797C29.9263 27.3767 29.9324 27.3732 29.9392 27.3691C29.9625 27.3551 29.9941 27.3355 30.033 27.3095C30.1109 27.2576 30.2178 27.1806 30.3477 27.073C30.6076 26.8578 30.9579 26.5212 31.3506 26.0195C32.1367 25.0153 33.0859 23.3581 33.8239 20.7037L33.8246 20.7014C33.8554 20.5884 33.9148 20.4824 33.9956 20.3955L34.0137 20.3761L34.0297 20.3548C34.0048 20.3879 35.217 19.0456 35.5524 17.3494M2.49998 65.4994L33.6694 5.79621M16.0032 20.3943L16.0032 20.3943L16.0013 20.3922L15.9972 20.3876L15.9842 20.3728C15.9735 20.3607 15.9589 20.3438 15.9409 20.3225C15.9049 20.2799 15.855 20.2195 15.7952 20.1429C15.6757 19.9901 15.5154 19.7717 15.3454 19.5021C15.0083 18.9677 14.6191 18.2099 14.4483 17.3468C14.3512 16.8682 14.3358 16.3804 14.3673 15.974C14.3831 15.7701 14.4113 15.579 14.4501 15.4138C14.4864 15.2599 14.541 15.0881 14.6293 14.9507L14.7132 14.8202L14.8563 14.7601C15.1742 14.6266 15.3623 14.2915 15.3053 13.9465L16.0032 20.3943ZM16.0032 20.3943L16.0073 20.3988M16.0032 20.3943L16.0073 20.3988M16.0073 20.3988C16.0863 20.4844 16.1469 20.593 16.1798 20.708C17.6547 26.0093 19.9717 27.3269 20.1484 27.4162C20.4132 27.5497 20.5873 27.8292 20.5873 28.0985V32.4722C20.5873 32.7696 20.4101 33.0401 20.1354 33.1599L16.0073 20.3988ZM33.6694 5.79621L33.6694 5.79629C34.4778 7.00852 34.7785 8.71214 34.8633 10.2305C34.9489 11.7652 34.8178 13.2003 34.6969 13.9438L34.6969 13.9442C34.6406 14.2887 34.8291 14.6243 35.1461 14.7577L35.2889 14.8179L35.3727 14.9482C35.4611 15.0856 35.5156 15.2574 35.5519 15.4116C35.5907 15.5769 35.6189 15.7682 35.6346 15.9724C35.6659 16.3795 35.6501 16.8685 35.5524 17.3494M33.6694 5.79621C32.6456 4.26155 31.0146 3.31748 29.4028 2.75708C27.7873 2.19538 26.1378 1.99998 24.9998 1.99998C23.8617 1.99998 22.2121 2.19538 20.5969 2.75743C18.9853 3.31819 17.3549 4.263 16.3324 5.79914M33.6694 5.79621L16.3324 5.79914M35.5524 17.3494C35.5525 17.3489 35.5526 17.3484 35.5527 17.3479L35.0622 17.2511L35.5521 17.3508C35.5522 17.3503 35.5523 17.3498 35.5524 17.3494ZM16.3324 5.79914C15.5212 7.01551 15.2194 8.71897 15.135 10.2367M16.3324 5.79914L15.135 10.2367M15.135 10.2367C15.0497 11.7704 15.1823 13.2033 15.3053 13.9464L15.135 10.2367Z" fill="#ED324A" stroke="#ED324A"/>
<path d="M10.4999 66.2494C10.4999 66.0617 10.58 65.861 10.7174 65.7142C10.9974 65.4488 11.5018 65.4486 11.782 65.7138C11.9215 65.8635 11.9999 66.0522 11.9999 66.2494C11.9999 66.4339 11.9209 66.6332 11.7836 66.7831C11.6337 66.9204 11.4344 66.9994 11.2499 66.9994C11.0535 66.9994 10.8656 66.9216 10.7162 66.7832C10.5787 66.6345 10.4999 66.4354 10.4999 66.2494Z" fill="#ED324A" stroke="#ED324A"/>
<path d="M60.6834 47.1925L60.5688 46.9761L54.4131 35.3558C54.4129 35.3556 54.4128 35.3553 54.4127 35.3551C54.301 35.1461 54.0529 35.0078 53.7495 35.0078C53.4458 35.0078 53.1975 35.1463 53.086 35.3556C53.086 35.3557 53.0859 35.3557 53.0859 35.3558L46.9301 46.9761L46.8155 47.1925L46.5743 47.2346L33.621 49.497C33.6209 49.497 33.6208 49.4971 33.6207 49.4971C33.3465 49.5453 33.122 49.7404 33.0367 50.0044L33.0366 50.0048C32.9513 50.2683 33.0183 50.5583 33.2107 50.7585C33.2109 50.7587 33.211 50.7589 33.2112 50.7591L42.36 60.2053L42.5303 60.3812L42.4959 60.6235L40.6459 73.6446C40.6069 73.9189 40.7234 74.1936 40.947 74.3559L40.9475 74.3562C41.1739 74.5209 41.4719 74.5448 41.7162 74.4245L41.7172 74.424L53.5296 68.6391L53.7495 68.5314L53.9694 68.6391L65.7803 74.4239C65.8831 74.4742 65.9951 74.4993 66.1106 74.4993C66.2668 74.4993 66.4216 74.451 66.5508 74.3567L66.5526 74.3554C66.7762 74.1937 66.8922 73.9198 66.8531 73.6446L65.0031 60.6235L64.9687 60.3812L65.139 60.2053L74.2884 50.7584L60.6834 47.1925ZM60.6834 47.1925L60.9246 47.2346M60.6834 47.1925L60.9246 47.2346M60.9246 47.2346L73.8766 49.4968C73.8769 49.4968 73.8771 49.4969 73.8773 49.4969C74.1533 49.5464 74.3773 49.7414 74.4622 50.0044L74.4627 50.0061M60.9246 47.2346L74.4627 50.0061M74.4627 50.0061C74.5486 50.2688 74.4819 50.5578 74.2889 50.7579L74.4627 50.0061ZM65.1684 72.4523L64.3207 72.0371L54.0824 67.0223C54.0819 67.0221 54.0815 67.0218 54.081 67.0216C53.9729 66.9698 53.8599 66.9444 53.7507 66.9444C53.6382 66.9444 53.5253 66.97 53.423 67.0204L53.4219 67.0209L43.1808 72.0371L42.333 72.4523L42.4658 71.5178L44.0694 60.2286C44.0695 60.2285 44.0695 60.2284 44.0695 60.2283C44.1017 59.9982 44.0266 59.7672 43.8662 59.6005C43.8661 59.6004 43.866 59.6003 43.8658 59.6002L35.9318 51.4086L35.275 50.7306L36.2049 50.5682L47.4361 48.6072C47.4363 48.6072 47.4364 48.6071 47.4366 48.6071C47.6667 48.5662 47.8626 48.4236 47.9713 48.2182L47.9714 48.218L53.3076 38.1419L53.7494 37.3077L54.1913 38.1418L59.5298 48.2188C59.5298 48.2188 59.5298 48.2189 59.5299 48.2189C59.639 48.4243 59.8357 48.5676 60.0649 48.6084C60.065 48.6084 60.0652 48.6084 60.0653 48.6084L71.2966 50.5695L72.2265 50.7319L71.5697 51.4099L63.6348 59.601C63.6348 59.6011 63.6348 59.6011 63.6348 59.6011C63.4745 59.7666 63.3997 59.9968 63.4319 60.2279L65.1684 72.4523ZM65.1684 72.4523L65.0357 71.5178L63.432 60.2286L65.1684 72.4523Z" fill="#ED324A" stroke="#ED324A"/>
<path d="M53.5345 19.7836C53.0782 19.8636 52.7032 20.1886 52.5607 20.6298C52.4182 21.0698 52.5307 21.5523 52.8507 21.8848M53.5345 19.7836L53.6205 20.2761M53.5345 19.7836L59.7094 18.7048L53.5345 19.7836ZM53.6205 20.2761C53.3463 20.3243 53.1218 20.5194 53.0365 20.7835L53.0364 20.7839C52.9511 21.0473 53.0181 21.3373 53.2104 21.5375L53.2099 21.5369L52.8507 21.8848M53.6205 20.2761C53.6206 20.2761 53.6207 20.2761 53.6208 20.276L59.7955 19.1974L60.0366 19.1552L60.1512 18.9389L63.0858 13.3998C63.0858 13.3997 63.0859 13.3996 63.0859 13.3995C63.1974 13.1902 63.4457 13.0518 63.7494 13.0518C64.053 13.0518 64.3013 13.1902 64.4128 13.3994C64.4129 13.3995 64.4129 13.3996 64.413 13.3998L67.3475 18.9389L67.4621 19.1552L67.7033 19.1974L73.8766 20.2758C73.8769 20.2759 73.8771 20.2759 73.8774 20.276C74.1535 20.3254 74.3768 20.5204 74.4606 20.7822L74.4615 20.7851C74.5474 21.048 74.4805 21.3373 74.2872 21.5374L69.9252 26.0406L69.7549 26.2164L69.7893 26.4588L70.6705 32.6673C70.6705 32.6674 70.6705 32.6674 70.6705 32.6674C70.7096 32.9435 70.5939 33.2167 70.3693 33.38C70.2396 33.4739 70.0842 33.5222 69.9281 33.5222C69.8168 33.5222 69.7042 33.4971 69.5972 33.4452C69.597 33.4451 69.5967 33.445 69.5965 33.4449L63.9694 30.687L63.7494 30.5791L63.5293 30.687L57.9002 33.4466C57.9001 33.4466 57.9 33.4466 57.9 33.4467C57.6512 33.568 57.3536 33.5427 57.1283 33.3801C56.9039 33.2161 56.788 32.9423 56.827 32.6673M53.6205 20.2761L56.827 32.6673M52.8507 21.8848L53.211 21.5381M52.8507 21.8848L57.2132 26.3885L53.211 21.5381M53.211 21.5381L57.5723 26.0406L57.7426 26.2164L57.7082 26.4588L56.827 32.6673M53.211 21.5381L56.827 32.6673M68.9885 31.4755L68.1405 31.0599L64.0848 29.072C64.0841 29.0717 64.0835 29.0714 64.0829 29.0711C63.9727 29.0187 63.8594 28.9935 63.7506 28.9935C63.6385 28.9935 63.5251 29.0189 63.4207 29.0699L68.9885 31.4755ZM68.9885 31.4755L68.8556 30.5406L68.2195 26.0639C68.2195 26.0637 68.2194 26.0636 68.2194 26.0634C68.1871 25.8322 68.2619 25.6019 68.4222 25.4364C68.4222 25.4364 68.4222 25.4364 68.4223 25.4364L71.5684 22.189L72.2252 21.5111L71.2954 21.3485L66.8428 20.57C66.8427 20.5699 66.8426 20.5699 66.8425 20.5699C66.6133 20.5292 66.4166 20.386 66.3074 20.1808C66.3074 20.1807 66.3074 20.1807 66.3074 20.1807C66.3073 20.1806 66.3073 20.1804 66.3072 20.1803L64.1912 16.1858L63.7493 15.3516L63.3075 16.1858L61.1925 20.1796L61.1925 20.1797C61.0837 20.3852 60.8877 20.5278 60.6575 20.5687C60.6574 20.5687 60.6573 20.5687 60.6572 20.5687L56.2046 21.3473L55.2749 21.5098L55.9316 22.1877L59.0782 25.4355C59.0783 25.4357 59.0785 25.4358 59.0786 25.4359C59.239 25.6026 59.3141 25.8336 59.2818 26.0637C59.2818 26.0638 59.2818 26.0638 59.2818 26.0639L58.6456 30.5406L58.5128 31.4755L59.3607 31.0599L63.4204 29.0701L68.9885 31.4755Z" fill="#ED324A" stroke="#ED324A"/>
<path d="M51.6561 5.13416L51.5414 4.91782L49.4119 0.898638C49.4118 0.898544 49.4118 0.898451 49.4117 0.898357C49.3003 0.689279 49.0523 0.551056 48.7486 0.55127C48.445 0.551484 48.1966 0.69007 48.0849 0.899456C48.0848 0.8996 48.0848 0.899743 48.0847 0.899887L45.9564 4.91896L45.8418 5.13546L45.6005 5.17754L41.1205 5.95878L41.1196 5.95893C40.8471 6.00597 40.6222 6.2012 40.5366 6.465C40.451 6.73023 40.5185 7.0202 40.7106 7.22019C40.7108 7.22037 40.7109 7.22055 40.7111 7.22073L43.875 10.487L44.0453 10.6629L44.0109 10.9052L43.3709 15.41C43.3709 15.4101 43.3709 15.4101 43.3709 15.4102C43.332 15.6851 43.4479 15.9589 43.6722 16.1228C43.8976 16.2854 44.1961 16.3104 44.4432 16.1897L51.6561 5.13416ZM51.6561 5.13416L51.8972 5.17627M51.6561 5.13416L51.8972 5.17627M51.8972 5.17627L56.3781 5.9587C56.6527 6.00685 56.8773 6.20225 56.9625 6.46526C57.0481 6.72963 56.9813 7.02005 56.7868 7.22056L56.7866 7.22082L53.6216 10.4883L53.4513 10.6641M51.8972 5.17627L53.4513 10.6641M53.4513 10.6641L53.4857 10.9065M53.4513 10.6641L53.4857 10.9065M53.4857 10.9065L54.1257 15.4113C54.1257 15.4113 54.1257 15.4114 54.1257 15.4114C54.1647 15.6874 54.0491 15.9605 53.8246 16.1239C53.6948 16.2178 53.5394 16.2661 53.3832 16.2661C53.2716 16.2661 53.1594 16.2409 53.0545 16.1896L53.4857 10.9065ZM48.5269 14.1872L44.4435 16.1895L53.0542 16.1895L48.967 14.1871L48.7469 14.0793L48.5269 14.1872ZM51.596 13.8053L52.4433 14.2199L52.3108 13.2859L51.9171 10.5116C51.8846 10.2803 51.9595 10.0498 52.1198 9.88411C52.1199 9.88408 52.1199 9.88405 52.1199 9.88402L54.0698 7.87163L54.727 7.19336L53.7966 7.03113L51.0379 6.55011C51.0378 6.55008 51.0376 6.55005 51.0374 6.55002C50.8081 6.50926 50.6114 6.36581 50.5023 6.16151C50.5022 6.16134 50.5021 6.16117 50.502 6.161L49.1901 3.68582L48.7482 2.85214L48.3065 3.6859L46.9952 6.16088L46.9951 6.16109C46.8864 6.36646 46.6905 6.5091 46.4605 6.55C46.4603 6.55004 46.4601 6.55007 46.4599 6.55011L43.7024 7.03113L42.7721 7.19342L43.4292 7.87163L45.3783 9.88318C45.3785 9.88334 45.3786 9.8835 45.3788 9.88365C45.5391 10.0502 45.6142 10.2812 45.582 10.5112C45.582 10.5113 45.5819 10.5114 45.5819 10.5116L45.1883 13.2859L45.0557 14.2205L45.9033 13.8051L48.418 12.5728C48.4181 12.5727 48.4182 12.5727 48.4183 12.5727C48.4183 12.5727 48.4183 12.5726 48.4183 12.5726C48.5228 12.5216 48.6361 12.4962 48.7483 12.4962C48.8575 12.4962 48.9706 12.5216 49.0787 12.5735C49.0791 12.5737 49.0795 12.5739 49.0799 12.5741L51.596 13.8053Z" fill="#ED324A" stroke="#ED324A"/>
</svg>
