<svg width="88" height="75" viewBox="0 0 88 75" fill="none" xmlns="http://www.w3.org/2000/svg">
<path fill-rule="evenodd" clip-rule="evenodd" d="M14.7699 57.7676H32.2359V53.5488L29.8365 51.6653C28.7042 52.4916 27.3201 52.899 25.9207 52.818C24.5213 52.737 23.1935 52.1725 22.164 51.2211L22.0826 51.1493C21.535 50.6257 21.0992 49.9966 20.8015 49.2999C20.5038 48.6033 20.3503 47.8535 20.3503 47.0959C20.3503 46.3382 20.5038 45.5885 20.8015 44.8918C21.0992 44.1951 21.535 43.566 22.0826 43.0424C23.1928 41.9764 24.6683 41.3749 26.2074 41.3609C27.7464 41.3468 29.2327 41.9212 30.3622 42.9667L30.4446 43.0404C30.9928 43.5649 31.4291 44.1949 31.7274 44.8924C32.0258 45.5899 32.18 46.3406 32.1807 47.0993C32.1808 48.0098 31.957 48.9064 31.5289 49.7101L34.3066 51.8884C34.4824 52.0035 34.627 52.1604 34.7274 52.345C34.8277 52.5297 34.8808 52.7363 34.8817 52.9465V57.7676H42.5018V43.5874C41.4591 43.3407 40.5022 42.8174 39.7319 42.0725C39.1837 41.5495 38.7473 40.9207 38.4491 40.2241C38.1509 39.5275 37.9972 38.7777 37.9972 38.02C37.9972 37.2623 38.1509 36.5125 38.4491 35.8159C38.7473 35.1193 39.1837 34.4905 39.7319 33.9675C40.8434 32.9029 42.3193 32.3026 43.8583 32.289C45.3973 32.2755 46.8835 32.8498 48.0135 33.8947L48.0969 33.9684C48.6444 34.492 49.0802 35.121 49.3779 35.8176C49.6756 36.5142 49.8291 37.2639 49.8291 38.0214C49.8291 38.779 49.6756 39.5287 49.3779 40.2253C49.0802 40.9219 48.6444 41.5509 48.0969 42.0745C47.2828 42.8609 46.2614 43.3992 45.1524 43.6262V57.7589H52.7725V52.9426C52.7729 52.733 52.825 52.5267 52.9243 52.3421C53.0237 52.1575 53.1671 52.0003 53.3419 51.8845L56.2446 49.6073C55.8516 48.8283 55.6473 47.9679 55.6482 47.0954C55.6492 46.338 55.8031 45.5886 56.1007 44.8921C56.3984 44.1957 56.8336 43.5665 57.3803 43.0424C58.5052 41.9641 60.0032 41.3622 61.5613 41.3622C63.1195 41.3622 64.6175 41.9641 65.7424 43.0424C66.2899 43.5655 66.7257 44.1942 67.0235 44.8905C67.3212 45.5868 67.4747 46.3362 67.4747 47.0934C67.4747 47.8507 67.3212 48.6001 67.0235 49.2964C66.7257 49.9927 66.2899 50.6214 65.7424 51.1445C64.702 52.1401 63.3406 52.732 61.9029 52.8136C60.4652 52.8952 59.0455 52.4612 57.8992 51.5897L55.4115 53.5488V57.754L72.8068 57.7472C75.8218 57.5714 78.6774 56.3347 80.8682 54.2558C83.0255 52.2267 84.3548 49.4704 84.5992 46.5189C84.8437 43.5674 83.9861 40.63 82.192 38.2736C80.3689 35.8817 77.7527 34.2181 74.8134 33.5815C74.5673 33.5367 74.3401 33.4198 74.1607 33.2456C73.9812 33.0714 73.8576 32.8477 73.8056 32.6031C73.7537 32.3584 73.7756 32.1038 73.8687 31.8717C73.9618 31.6395 74.1218 31.4403 74.3285 31.2994C76.1503 29.9035 77.5399 28.0206 78.3369 25.8682C79.1294 23.7146 79.2776 21.3769 78.7636 19.1404C78.2433 16.8791 77.0854 14.8145 75.4273 13.1913C73.7454 11.5442 71.6398 10.3958 69.3444 9.87345C67.0327 9.33657 64.6183 9.44086 62.3615 10.1751C60.1369 10.8974 58.1586 12.2273 56.65 14.0147C56.4243 14.2789 56.1053 14.4457 55.7596 14.4802C55.4138 14.5147 55.0681 14.4143 54.7947 14.2C54.6616 14.0965 54.5507 13.9674 54.4684 13.8203C54.3861 13.6732 54.3341 13.5111 54.3156 13.3436C54.1383 11.7718 53.6507 10.2509 52.881 8.86908C52.1113 7.48724 51.075 6.27199 49.832 5.29381C47.2817 3.27333 44.0529 2.30922 40.8123 2.60054C37.5833 2.8683 34.5832 4.37531 32.4406 6.80581C31.3958 7.98561 30.5979 9.36269 30.0938 10.8558C29.5898 12.349 29.3898 13.9279 29.5058 15.4996C29.5156 15.6699 29.4917 15.8405 29.4354 16.0015C29.3791 16.1625 29.2915 16.3109 29.1776 16.4379C29.0638 16.565 28.926 16.6683 28.7721 16.742C28.6182 16.8156 28.4513 16.8581 28.2809 16.867C28.1342 16.8767 27.9869 16.863 27.8445 16.8263C25.8556 16.4372 23.799 16.5841 21.8857 17.2521C20.0069 17.9049 18.3525 19.0789 17.116 20.6369C15.8797 22.1917 15.1222 24.0726 14.9359 26.0503C14.7496 28.028 15.1424 30.0172 16.0666 31.7756C16.1441 31.926 16.1906 32.0905 16.2032 32.2593C16.2158 32.428 16.1944 32.5976 16.1401 32.7579C16.0858 32.9181 15.9997 33.0659 15.8872 33.1922C15.7746 33.3185 15.6377 33.4209 15.4847 33.4932C15.2861 33.5904 15.0665 33.637 14.8455 33.629C11.6172 33.681 8.5319 34.9696 6.22551 37.2291C5.09656 38.3334 4.19878 39.6515 3.58452 41.1064C2.97026 42.5613 2.65181 44.124 2.64775 45.7032C2.64369 47.2825 2.95409 48.8467 3.56086 50.3048C4.16763 51.7629 5.05861 53.0855 6.18187 54.1957C8.47192 56.4566 11.5519 57.7377 14.7699 57.7676ZM72.8892 60.298L55.4115 60.3047V73.7129C55.4022 74.0575 55.2588 74.3847 55.0118 74.6251C54.7648 74.8655 54.4338 75 54.0891 75C53.7445 75 53.4134 74.8655 53.1665 74.6251C52.9195 74.3847 52.7761 74.0575 52.7667 73.7129V60.3086H45.1466V73.7129C45.1373 74.0575 44.9939 74.3847 44.7469 74.6251C44.4999 74.8655 44.1689 75 43.8242 75C43.4796 75 43.1485 74.8655 42.9016 74.6251C42.6546 74.3847 42.5112 74.0575 42.5018 73.7129V60.3135H34.8817V73.7129C34.8686 74.055 34.7235 74.3787 34.4768 74.6161C34.2302 74.8535 33.9012 74.9861 33.5588 74.9861C33.2165 74.9861 32.8875 74.8535 32.6408 74.6161C32.3942 74.3787 32.249 74.055 32.2359 73.7129V60.3174L14.7398 60.3241C10.8234 60.2876 7.07503 58.7278 4.28872 55.9753C2.92584 54.6329 1.84453 53.032 1.10811 51.2665C0.371702 49.5009 -0.00500765 47.6062 5.02645e-05 45.6932C0.00510818 43.7802 0.391832 41.8875 1.13757 40.1258C1.88331 38.3642 2.97307 36.7691 4.34303 35.4339C6.68986 33.1333 9.71773 31.6534 12.9747 31.215C12.2664 29.1853 12.0831 27.0094 12.4417 24.8897C12.8003 22.7701 13.6893 20.7756 15.0259 19.0919C16.5739 17.1426 18.6437 15.6732 20.9944 14.8546C22.8714 14.1979 24.8662 13.9464 26.8475 14.1165C26.9725 10.806 28.2406 7.64105 30.4359 5.15997C33.0351 2.21326 36.6735 0.386259 40.5893 0.0614652C44.5135 -0.2904 48.423 0.877836 51.5108 3.32502C53.8586 5.17864 55.5793 7.70965 56.4396 10.5747C57.9399 9.31703 59.6678 8.35925 61.5293 7.75336C64.2519 6.86518 67.1651 6.73641 69.9554 7.38093C72.7323 8.01482 75.2789 9.40679 77.3117 11.4019C79.314 13.3649 80.7118 15.8606 81.3395 18.5934C81.9621 21.2952 81.7852 24.1197 80.8304 26.7227C80.1357 28.6072 79.0586 30.3276 77.6667 31.7756C80.3054 32.7876 82.6097 34.5153 84.3208 36.7645C86.4931 39.6121 87.5317 43.1643 87.2356 46.7336C86.9394 50.3028 85.3296 53.6353 82.7177 56.0859C80.0687 58.5983 76.6164 60.0927 72.9716 60.3047H72.8892V60.298ZM43.2438 6.46248C43.416 6.4596 43.5871 6.49156 43.7467 6.55645C43.9063 6.62135 44.0511 6.71783 44.1725 6.84011C44.2938 6.96239 44.3892 7.10794 44.4529 7.26802C44.5166 7.4281 44.5473 7.5994 44.5431 7.77163C44.5389 7.94386 44.4999 8.11347 44.4285 8.27026C44.3571 8.42706 44.2548 8.5678 44.1276 8.68404C44.0005 8.80028 43.8511 8.88962 43.6886 8.94668C43.526 9.00374 43.3536 9.02735 43.1817 9.0161C42.3714 8.99429 41.5645 9.12795 40.8046 9.40986C40.0537 9.68954 39.3643 10.1125 38.7747 10.6552C38.1916 11.1912 37.7211 11.8381 37.3907 12.558C37.062 13.2728 36.8812 14.0468 36.8592 14.8333C36.8409 15.1753 36.6901 15.4967 36.4388 15.7295C36.1875 15.9623 35.8555 16.0881 35.513 16.0803C35.1706 16.0724 34.8446 15.9316 34.6042 15.6876C34.3638 15.4436 34.2279 15.1157 34.2251 14.7731C34.2524 13.6514 34.5068 12.5468 34.9729 11.5261C35.4463 10.4954 36.1206 9.56959 36.9562 8.80273C37.8019 8.02772 38.7901 7.4243 39.8658 7.02597C40.9455 6.62444 42.0921 6.43317 43.2438 6.46248ZM75.9278 22.1236C75.901 22.4679 75.7403 22.788 75.4802 23.0153C75.2201 23.2425 74.8814 23.3587 74.5366 23.339C74.1918 23.3194 73.8684 23.1654 73.6359 22.91C73.4034 22.6547 73.2801 22.3184 73.2927 21.9733C73.345 21.1409 73.2173 20.3069 72.9183 19.5283C72.615 18.7441 72.1489 18.0331 71.5508 17.4422C70.9483 16.8449 70.2288 16.3786 69.4375 16.0727C68.6355 15.7631 67.7789 15.6196 66.9198 15.6509C66.7492 15.6623 66.578 15.6394 66.4165 15.5835C66.2549 15.5276 66.1061 15.4398 65.9791 15.3254C65.852 15.211 65.7492 15.0723 65.6767 14.9175C65.6042 14.7626 65.5635 14.5948 65.557 14.424C65.5505 14.2531 65.5784 14.0827 65.6389 13.9228C65.6995 13.7629 65.7915 13.6168 65.9095 13.4931C66.0275 13.3694 66.1692 13.2706 66.326 13.2026C66.4829 13.1346 66.6518 13.0988 66.8228 13.0972C68.0448 13.0534 69.263 13.2583 70.4035 13.6995C71.5392 14.1365 72.5721 14.8038 73.4372 15.6596C74.2889 16.5035 74.9523 17.5183 75.3837 18.637C75.8123 19.7486 75.9962 20.9394 75.9229 22.1285L75.9278 22.1236ZM47.1843 38.0195C47.1835 38.4383 47.0983 38.8527 46.9336 39.2378C46.769 39.623 46.5283 39.9709 46.2261 40.2608C45.6025 40.8553 44.774 41.187 43.9125 41.187C43.0509 41.187 42.2224 40.8553 41.5989 40.2608C41.2967 39.9708 41.0564 39.6226 40.8924 39.2372C40.7284 38.8519 40.644 38.4373 40.6445 38.0185C40.6449 37.5996 40.7302 37.1852 40.895 36.8002C41.0599 36.4152 41.301 36.0676 41.6037 35.7782C42.217 35.1933 43.0289 34.8622 43.8763 34.8514C44.7237 34.8406 45.5438 35.1509 46.1717 35.72L46.228 35.7782C46.5304 36.068 46.7711 36.416 46.9357 36.8011C47.1004 37.1862 47.1856 37.6006 47.1862 38.0195H47.1843ZM64.8356 47.0954C64.8348 47.5142 64.7496 47.9286 64.5849 48.3137C64.4203 48.6988 64.1796 49.0468 63.8773 49.3367C63.264 49.922 62.4517 50.2532 61.6039 50.2637C60.7562 50.2741 59.9359 49.963 59.3084 49.3929L59.2531 49.3367C58.9508 49.047 58.7102 48.6991 58.5458 48.314C58.3815 47.9289 58.2968 47.5146 58.2968 47.0959C58.2968 46.6772 58.3815 46.2628 58.5458 45.8777C58.7102 45.4926 58.9508 45.1447 59.2531 44.855C59.8771 44.262 60.7053 43.9318 61.5662 43.9327C62.427 43.9336 63.2546 44.2656 63.8773 44.8599C64.1791 45.1505 64.4192 45.4989 64.5833 45.8843C64.7474 46.2697 64.8322 46.6842 64.8327 47.1031L64.8356 47.0954ZM29.5378 47.0954C29.5387 47.9138 29.2163 48.6995 28.6407 49.2814L28.5806 49.3367C27.9671 49.9221 27.1546 50.2533 26.3067 50.2638C25.4588 50.2742 24.6384 49.9631 24.0106 49.3929L23.9563 49.3367C23.654 49.047 23.4134 48.6991 23.2491 48.314C23.0847 47.9289 23 47.5146 23 47.0959C23 46.6772 23.0847 46.2628 23.2491 45.8777C23.4134 45.4926 23.654 45.1447 23.9563 44.855C24.5709 44.2721 25.3829 43.9427 26.2299 43.9328C27.0769 43.9229 27.8963 44.2332 28.5243 44.8017L28.5806 44.8608C28.8819 45.1506 29.1218 45.4982 29.2857 45.8828C29.4497 46.2674 29.5345 46.6812 29.5349 47.0993L29.5378 47.0954Z" fill="#ED324A"/>
</svg>
