<svg width="86" height="75" viewBox="0 0 86 75" fill="none" xmlns="http://www.w3.org/2000/svg">
<path d="M85.5261 43.0397C85.7111 43.2497 85.7801 43.5147 85.7161 43.7689C84.7621 47.5994 83.0831 51.2631 80.7321 54.6652C79.9451 55.792 79.0831 56.9021 78.1671 57.9647C77.9501 58.2139 77.6141 58.3456 77.2711 58.3456C77.0481 58.3456 76.8231 58.2906 76.6281 58.1731C76.1341 57.8772 76.0221 57.3022 76.3771 56.8921C77.2521 55.8778 78.0751 54.8185 78.8241 53.7442C80.8661 50.7931 82.3741 47.6286 83.3111 44.329C79.8611 43.6598 77.0491 41.4295 76.1201 38.5258C75.4481 36.4456 75.7921 34.2629 77.0891 32.391C78.3871 30.5158 80.4841 29.1764 82.9911 28.6164C83.1001 28.5972 83.2061 28.5755 83.3091 28.558C81.4241 21.9165 77.201 15.8108 71.2911 11.1894C68.8771 13.3413 65.1561 14.2614 61.6701 13.4847C56.4981 12.3254 53.4151 7.87986 54.7971 3.57437C54.8291 3.48352 54.8601 3.39685 54.8931 3.311C47.1181 1.34661 38.6611 1.34661 30.8361 3.31434C31.8631 6.14049 30.9631 9.27835 28.4291 11.3894C24.6421 14.5473 18.4781 14.5473 14.6881 11.3894C14.6111 11.3277 14.5361 11.2611 14.4591 11.1927C11.5121 13.4947 8.97606 16.1641 6.91606 19.1411C4.86906 22.0815 3.36306 25.2443 2.42706 28.5597C5.87406 29.2273 8.68706 31.4492 9.61806 34.3404C10.2901 36.4356 9.94406 38.6167 8.64906 40.4852C7.35206 42.3554 5.25506 43.6956 2.74706 44.2523C2.64606 44.2782 2.54606 44.3015 2.44206 44.3223C3.70106 48.8195 6.08006 53.1483 9.35706 56.8871C9.71406 57.2955 9.60806 57.8705 9.11606 58.1681C8.62706 58.4673 7.93506 58.3798 7.57806 57.9697C3.89006 53.7617 1.28606 48.8529 0.0420574 43.7639C-0.0189426 43.5164 0.0470577 43.2606 0.223058 43.0522C0.397058 42.8472 0.667057 42.7088 0.967057 42.673C1.39106 42.6221 1.79206 42.5738 2.14606 42.4871C4.11906 42.0462 5.74006 41.0111 6.74106 39.5668C7.74406 38.1233 8.00906 36.4364 7.48906 34.8171C6.68706 32.3251 4.07606 30.4741 0.992058 30.2182C0.680058 30.1924 0.398057 30.059 0.214057 29.8474C0.0300574 29.639 -0.0409426 29.374 0.0230574 29.1181C0.978057 25.2718 2.65606 21.6039 5.00806 18.2219C7.38206 14.7906 10.3591 11.7461 13.8541 9.17167C14.0871 8.99915 14.4011 8.91581 14.7101 8.94831C15.0221 8.97748 15.3021 9.11916 15.4821 9.33085C15.7151 9.60589 15.9791 9.86925 16.2481 10.0943C19.1741 12.5362 23.9431 12.5362 26.8721 10.0926C29.0551 8.27407 29.6671 5.46458 28.3961 3.10598C28.2671 2.87179 28.2661 2.60009 28.3921 2.36006C28.5171 2.1242 28.7561 1.94001 29.0531 1.85834C37.9941 -0.619445 47.8111 -0.619445 56.6891 1.85834C56.9891 1.94335 57.2301 2.13003 57.3531 2.36923C57.4771 2.61176 57.4691 2.88512 57.3341 3.12265C57.1831 3.38768 57.0481 3.69605 56.9231 4.06025C55.8601 7.37647 58.2421 10.8127 62.2401 11.7078C65.2951 12.3862 68.4511 11.4519 70.2851 9.32335C70.4671 9.11166 70.7471 8.97498 71.0571 8.94748C71.3651 8.91997 71.6771 8.99998 71.9111 9.17084C78.8961 14.3323 83.8021 21.4147 85.7181 29.1181C85.7811 29.374 85.7111 29.6407 85.5261 29.8474C85.3381 30.0607 85.0551 30.1941 84.7451 30.2199C84.3861 30.2457 83.9921 30.3066 83.5351 30.3958C81.6241 30.8225 80.0021 31.8593 78.9991 33.3078C77.9971 34.7562 77.7301 36.4414 78.2501 38.0491C79.0531 40.5544 81.6641 42.4096 84.7491 42.6672C85.0591 42.693 85.3411 42.8297 85.5261 43.0397ZM80.8901 62.6719C81.8391 65.1005 82.3671 67.83 82.4551 70.7829C82.5101 71.9121 82.0241 72.9481 81.0531 73.7565C80.1401 74.5658 78.9231 75 77.5521 75H8.18706C6.81506 75 5.59706 74.5658 4.66306 73.7382C3.72506 72.9581 3.25406 71.9588 3.28206 70.7854C3.37206 67.8292 3.89906 65.0997 4.84706 62.6711C4.87206 62.6044 4.90606 62.5478 4.94606 62.4886C7.13006 59.3874 14.2931 56.352 26.7551 53.2392C20.6411 49.1646 17.0431 43.0147 17.0431 36.4339C17.0431 31.6251 19.0071 26.9029 22.5721 23.1349C22.9491 22.739 23.6421 22.6674 24.1201 22.9832C24.5991 23.2974 24.6791 23.875 24.3031 24.2726C21.0421 27.7188 19.2461 32.0351 19.2461 36.4339C19.2461 42.8963 23.0361 48.9029 29.3981 52.5983C29.9681 52.4633 30.5301 52.3299 31.1191 52.1932C31.7421 51.6248 32.5011 50.3897 32.9691 47.7152C28.3141 44.9933 25.5561 40.6161 25.5561 35.8939V25.0926C25.5561 17.1392 33.3281 10.6702 42.8801 10.6702C52.4221 10.6702 60.1831 17.1392 60.1831 25.0926V35.8947C60.1831 40.6169 57.4261 44.9941 52.7701 47.7161C53.2381 50.3905 53.9971 51.6257 54.6211 52.1941C55.2111 52.3307 55.7711 52.4641 56.3411 52.5991C62.7031 48.917 66.4931 42.9088 66.4931 36.4348C66.4931 32.0368 64.6981 27.7196 61.4371 24.2734C61.0601 23.8758 61.1411 23.2983 61.6201 22.9841C62.0991 22.6699 62.7901 22.7399 63.1671 23.1358C66.7341 26.9037 68.6961 31.6267 68.6961 36.4348C68.6961 43.0272 65.1001 49.1721 58.9891 53.2417C71.4471 56.352 78.6121 59.3882 80.7941 62.4894C80.8341 62.5486 80.8651 62.6053 80.8901 62.6719ZM80.2541 70.842C80.1711 68.0942 79.6931 65.5748 78.8331 63.3378C77.3741 61.3776 72.2171 58.3131 56.3601 54.5118C56.2731 54.4985 56.1901 54.481 56.1081 54.4518C55.3471 54.271 54.5691 54.0868 53.7571 53.9018C53.5891 53.8626 53.4341 53.7926 53.3081 53.6951C51.8851 52.6158 50.9641 50.5522 50.4931 47.386C50.4391 47.036 50.6351 46.6926 50.9891 46.5018C55.3671 44.1515 57.9791 40.1877 57.9791 35.8947V25.0926C57.9791 18.1535 51.2071 12.5079 42.8791 12.5079C34.5411 12.5079 27.7581 18.1527 27.7581 25.0926V35.8947C27.7581 40.1869 30.3711 44.1507 34.7491 46.5018C35.1041 46.6926 35.2981 47.036 35.2451 47.386C34.7731 50.5522 33.8531 52.6158 32.4301 53.6951C32.3031 53.7926 32.1481 53.8626 31.9811 53.9018C31.1691 54.0876 30.3911 54.271 29.6291 54.4518C29.5471 54.481 29.4651 54.4993 29.3781 54.5118C13.5211 58.3148 8.36606 61.3776 6.90506 63.3378C6.04606 65.5748 5.56806 68.0942 5.48506 70.8287C5.46806 71.4963 5.71106 72.0138 6.24406 72.4597C6.78806 72.9398 7.41606 73.1648 8.18706 73.1648H77.5521C78.3231 73.1648 78.9501 72.9398 79.4731 72.4797C80.0371 72.0088 80.2851 71.4804 80.2541 70.842ZM50.8641 31.9393C50.6351 32.1084 50.3291 32.1918 50.0241 32.1626C49.7181 32.1368 49.4411 32.0034 49.2571 31.8009C49.2201 31.7601 49.1701 31.7226 49.1211 31.6834C48.7021 31.3317 47.9881 31.3317 47.5691 31.6834C47.2361 31.9584 47.1491 32.3526 47.3421 32.7102C47.4671 32.9477 47.4681 33.2177 47.3441 33.4561C47.2181 33.6936 46.9781 33.8745 46.6831 33.9578C45.4431 34.3012 44.1531 34.4771 42.8491 34.4771C41.5491 34.4771 40.2701 34.3012 39.0471 33.9562C38.7601 33.8745 38.5271 33.6986 38.4001 33.4694C38.2741 33.2419 38.2661 32.9777 38.3791 32.7435L38.4751 32.5418C38.5951 32.0451 38.2481 31.5667 37.6631 31.4334C37.2731 31.3484 36.7541 31.4867 36.4891 31.7901C36.3061 31.9984 36.0271 32.1351 35.7181 32.1626C35.4111 32.1901 35.1021 32.1093 34.8681 31.9376C32.9191 30.5066 31.5661 28.5564 31.0601 26.442C30.9401 25.9436 31.3281 25.4619 31.9251 25.3593C32.0241 25.3443 32.1221 25.3285 32.2371 25.3118C32.8021 25.1602 33.1351 24.6693 32.9801 24.2017C32.8581 23.8075 32.4901 23.5391 32.0331 23.5016C31.7251 23.4791 31.4441 23.3449 31.2581 23.1366C31.0721 22.9316 31.0011 22.6674 31.0601 22.4157C31.3001 21.3756 31.7551 20.3579 32.4161 19.3962C33.0771 18.4502 33.9011 17.6185 34.8711 16.9109C35.1021 16.7417 35.4081 16.66 35.7131 16.6892C36.0181 16.715 36.2941 16.8459 36.4791 17.0509C36.5161 17.0901 36.5671 17.1292 36.6141 17.1667C37.0341 17.5268 37.7511 17.5135 38.1661 17.1667C38.4981 16.8917 38.5861 16.4975 38.3951 16.1416C38.2671 15.9041 38.2661 15.6341 38.3921 15.3957C38.5171 15.1582 38.7561 14.9757 39.0521 14.8957C41.5341 14.2022 44.2421 14.2022 46.6871 14.8957C47.0031 14.9848 47.2531 15.189 47.3691 15.4491C47.4851 15.7091 47.4501 15.9991 47.2781 16.2383C47.2741 16.2558 47.2681 16.2791 47.2601 16.3016C47.1171 16.7834 47.4701 17.2818 48.0541 17.4184C48.1311 17.4334 48.2301 17.4443 48.3281 17.4443C48.6911 17.4443 49.0351 17.3009 49.2451 17.0617C49.4281 16.8517 49.7081 16.7167 50.0161 16.6909C50.3251 16.66 50.6321 16.74 50.8651 16.9125C52.8141 18.3452 54.1671 20.2954 54.6731 22.4082C54.7931 22.9049 54.4061 23.39 53.8091 23.4891L53.4641 23.5441C52.9351 23.6658 52.5911 24.1675 52.7551 24.6693C52.8721 25.0435 53.2511 25.3118 53.7001 25.3493C54.0091 25.3718 54.2901 25.5044 54.4761 25.7111C54.6611 25.9194 54.7331 26.1803 54.6741 26.4353C54.4361 27.4738 53.9791 28.4897 53.3191 29.4531C52.6601 30.3983 51.8351 31.2333 50.8641 31.9393ZM51.4131 28.5355C51.7791 27.9996 52.0701 27.4413 52.2791 26.8737C51.4781 26.522 50.8661 25.9002 50.6291 25.1435C50.2161 23.8833 50.9361 22.5782 52.2751 21.984C51.8451 20.8247 51.1001 19.7504 50.1071 18.8569C49.3481 19.2528 48.3871 19.3862 47.4891 19.192C45.9581 18.8403 44.9721 17.6635 45.0301 16.4117C43.6201 16.145 42.1241 16.1466 40.6971 16.4167C40.7341 17.1651 40.3961 17.9077 39.7271 18.4677C39.1011 18.9886 38.2691 19.2753 37.3841 19.2753C36.7501 19.2753 36.1481 19.1286 35.6301 18.8536C35.1341 19.2962 34.6961 19.7845 34.3251 20.3154C33.9581 20.853 33.6681 21.4106 33.4581 21.9806C34.2621 22.334 34.8771 22.9641 35.1111 23.7292C35.5241 24.971 34.8031 26.272 33.4621 26.8679C33.8931 28.0272 34.6381 29.1014 35.6301 29.9932C36.3861 29.5973 37.3461 29.4656 38.2341 29.6598C39.7791 30.0099 40.7621 31.1708 40.7041 32.4418C42.1151 32.7085 43.6131 32.7069 45.0411 32.4368C45.0051 31.6851 45.3421 30.9425 46.0121 30.3858C46.6371 29.8615 47.4661 29.5765 48.3461 29.5765C48.9781 29.5765 49.5831 29.7248 50.1061 30.0015C50.6021 29.5565 51.0411 29.0681 51.4131 28.5355ZM49.1661 24.4259C49.1661 27.3154 46.3361 29.6657 42.8581 29.6657C39.3921 29.6657 36.5721 27.3154 36.5721 24.4259C36.5721 21.5364 39.3921 19.1895 42.8581 19.1895C46.3361 19.1886 49.1661 21.5364 49.1661 24.4259ZM46.9631 24.4259C46.9631 22.549 45.1211 21.0239 42.8591 21.0239C40.6081 21.0239 38.7751 22.549 38.7751 24.4259C38.7751 26.3011 40.6081 27.828 42.8591 27.828C45.1211 27.828 46.9631 26.3011 46.9631 24.4259Z" fill="#ED324A"/>
</svg>
