<svg width="88" height="75" viewBox="0 0 88 75" fill="none" xmlns="http://www.w3.org/2000/svg">
<path d="M45.6112 23.5962C43.5585 23.635 41.643 24.4703 40.2194 25.9488C38.7948 27.4273 38.0314 29.3721 38.0702 31.4248C38.1487 35.6143 41.5805 38.9686 45.753 38.9686C45.8013 38.9686 45.8495 38.9686 45.8987 38.9676C50.1365 38.8882 53.5191 35.3769 53.4406 31.1391C53.3612 26.9004 49.848 23.5092 45.6112 23.5962ZM45.8628 37.0578C42.6778 37.1183 40.0377 34.5738 39.9781 31.3888C39.9498 29.846 40.523 28.3845 41.5938 27.2731C42.6646 26.1616 44.1033 25.5335 45.6471 25.5051C45.684 25.5042 45.7199 25.5042 45.7559 25.5042C48.8916 25.5042 51.4721 28.0251 51.5308 31.1741C51.5904 34.359 49.0477 36.9991 45.8628 37.0578ZM63.0011 36.8629C64.7161 36.8336 66.1152 35.5774 66.328 33.8757C66.3961 33.3346 66.4396 32.786 66.4651 32.2364H79.0668C79.5048 34.22 81.2765 35.7089 83.3897 35.7089C85.8302 35.7089 87.8167 33.7234 87.8167 31.2819C87.8167 28.8405 85.8312 26.855 83.3897 26.855C81.2765 26.855 79.5039 28.3439 79.0668 30.3275H66.4632C66.4264 29.5197 66.345 28.7137 66.2154 27.9229C65.9392 26.2307 64.4919 25.0265 62.7798 25.0615C62.7533 25.0624 62.7268 25.0624 62.7003 25.0624C61.306 25.0624 60.0016 24.3284 59.2808 23.1327C59.0197 22.6986 58.8495 22.2246 58.7681 21.7384H72.87C73.1084 21.7384 73.3383 21.6486 73.5152 21.4878L80.8471 14.7735C81.5669 15.2806 82.4438 15.5776 83.3888 15.5776C85.8293 15.5776 87.8157 13.5921 87.8157 11.1506C87.8157 8.71013 85.8302 6.72367 83.3888 6.72367C80.9473 6.72367 78.9618 8.70918 78.9618 11.1506C78.9618 11.9566 79.1785 12.7133 79.5568 13.3651L72.4992 19.8286H58.9109C58.9885 19.5921 59.0878 19.3604 59.2108 19.1381C60.0404 17.6416 59.6535 15.8046 58.2914 14.7688C56.6965 13.5561 54.9418 12.5837 53.0746 11.879C51.4712 11.2736 49.707 11.9235 48.8803 13.4256C48.1935 14.6742 46.8825 15.466 45.4598 15.4925C44.0352 15.5227 42.6977 14.7764 41.9646 13.5542C41.083 12.0843 39.2952 11.5006 37.7155 12.1656C37.1337 12.4106 36.5662 12.684 36.0109 12.981V0.954444C36.0109 0.427561 35.5833 0 35.0565 0H21.3386C20.8117 0 20.3841 0.427561 20.3841 0.954444V42.2992L1.63957 62.9309C0.0248626 64.7083 -0.4254 67.3484 0.414586 69.8163C0.49026 70.0386 0.572556 70.2609 0.669987 70.4794C0.82039 70.8199 0.99255 71.1434 1.18363 71.4518C1.18836 71.4594 1.19214 71.4669 1.19687 71.4745C1.25079 71.5615 1.31038 71.6438 1.36808 71.728C1.41443 71.7961 1.45795 71.8661 1.50619 71.9324C1.64997 72.1291 1.80416 72.3145 1.96402 72.4952C3.24386 73.9406 5.02127 74.8373 6.99637 74.9801C7.18177 74.9934 7.36812 75 7.55636 75H48.8406C49.9709 75 51.0484 74.756 52.0179 74.3047C53.6355 73.5518 54.9551 72.2218 55.726 70.4794C56.5319 68.6594 56.6029 66.69 55.9975 65.0072C55.7222 64.2419 55.3069 63.5363 54.7564 62.9309L46.768 54.1384L42.465 49.4031C42.5227 49.318 42.5776 49.23 42.6286 49.1383C43.3154 47.8896 44.6264 47.0979 46.0491 47.0714C47.4756 47.0478 48.8112 47.7875 49.5443 49.0096C50.4269 50.4796 52.2138 51.0632 53.7935 50.3992C55.6323 49.6254 57.3502 48.5877 58.8986 47.3164C60.2211 46.2314 60.5389 44.3802 59.6544 42.9159C59.6185 42.8563 59.5863 42.7967 59.5532 42.7362H72.4992L79.5568 49.1988C79.1785 49.8505 78.9618 50.6073 78.9618 51.4132C78.9618 53.8537 80.9473 55.8402 83.3888 55.8402C85.8302 55.8402 87.8157 53.8547 87.8157 51.4132C87.8157 48.9718 85.8302 46.9863 83.3888 46.9863C82.4438 46.9863 81.5669 47.2842 80.8471 47.7903L73.5152 41.0761C73.3392 40.9153 73.1094 40.8254 72.87 40.8254H59.0822C59.0859 40.1689 59.2486 39.5125 59.5759 38.9213C60.2646 37.6764 61.5766 36.8875 63.0011 36.8629ZM83.3888 28.7639C84.7765 28.7639 85.9059 29.8933 85.9059 31.281C85.9059 32.6687 84.7765 33.7981 83.3888 33.7981C82.0002 33.7981 80.8717 32.6687 80.8717 31.281C80.8707 29.8933 82.0002 28.7639 83.3888 28.7639ZM83.3888 8.63351C84.7765 8.63351 85.9059 9.76295 85.9059 11.1516C85.9059 12.5393 84.7765 13.6687 83.3888 13.6687C82.0002 13.6687 80.8717 12.5393 80.8717 11.1516C80.8707 9.76295 82.0002 8.63351 83.3888 8.63351ZM83.3888 48.8952C84.7765 48.8952 85.9059 50.0246 85.9059 51.4123C85.9059 52.8 84.7765 53.9294 83.3888 53.9294C82.0002 53.9294 80.8717 52.8 80.8717 51.4123C80.8717 50.0246 82.0002 48.8952 83.3888 48.8952ZM22.0452 43.3094C22.205 43.1335 22.293 42.9046 22.293 42.6672V1.90889H34.102V14.136C33.5903 14.4841 33.0918 14.8539 32.6112 15.2484C31.2888 16.3334 30.971 18.1846 31.8554 19.6489C32.5914 20.8682 32.6216 22.3977 31.9339 23.6426C31.2463 24.8874 29.9333 25.6763 28.5087 25.7009C26.7938 25.7303 25.3947 26.9865 25.1819 28.6882C25.0589 29.6701 25.0059 30.6727 25.0249 31.6688C25.0438 32.6639 25.1336 33.6647 25.2935 34.6419C25.5697 36.3341 27.0075 37.5393 28.7291 37.5033C30.1546 37.4759 31.4941 38.2137 32.2281 39.4321C32.9622 40.6504 32.9887 42.18 32.2991 43.4258C31.4704 44.9222 31.8564 46.7592 33.2185 47.795C34.8134 49.0077 36.5681 49.9801 38.4353 50.6849C38.8383 50.8372 39.2517 50.91 39.6575 50.91C40.1238 50.91 40.5807 50.8126 41.0016 50.63L44.2774 54.2359C37.287 55.8175 33.6016 54.7892 29.7167 53.7033C25.5045 52.5256 21.1607 51.3158 12.7032 53.5945L22.0452 43.3094ZM48.8396 73.0902H7.55542C7.41258 73.0902 7.27164 73.0854 7.13164 73.075C5.03735 72.9284 3.294 71.6921 2.41523 69.7056C1.81551 68.3511 1.75213 66.9019 2.18442 65.6797C2.37645 65.1368 2.66685 64.6373 3.05279 64.2126L10.2116 56.333C20.2063 53.0241 24.5765 54.2463 29.2021 55.5384C33.3311 56.6925 37.5982 57.8843 45.7426 55.8458L53.3441 64.2126C54.5975 65.5918 54.8472 67.7476 53.9807 69.7047C53.0424 71.8255 51.1212 73.0902 48.8396 73.0902ZM57.6869 45.8398C56.2813 46.9938 54.7214 47.936 53.0528 48.6388C52.3575 48.932 51.5705 48.6748 51.1817 48.0268C50.0977 46.221 48.1198 45.1237 46.0141 45.1625C43.9104 45.2013 41.9722 46.3724 40.9562 48.2179C40.592 48.8791 39.8154 49.1657 39.1088 48.8989C37.4147 48.2585 35.8208 47.376 34.3735 46.2749C33.7738 45.819 33.6035 45.0102 33.9686 44.3509C34.9884 42.5101 34.9486 40.2475 33.8636 38.4464C32.7985 36.6785 30.8698 35.5925 28.8086 35.5925C28.7698 35.5925 28.7301 35.5925 28.6903 35.5935C27.9317 35.6162 27.2989 35.0789 27.1769 34.3335C27.0321 33.4462 26.9498 32.5372 26.9328 31.6329C26.9158 30.7276 26.964 29.8167 27.0756 28.9247C27.1693 28.1755 27.7851 27.6221 28.5409 27.6089C30.6465 27.5729 32.5857 26.4066 33.6035 24.5658C34.6204 22.726 34.5769 20.4633 33.4891 18.6613C33.0993 18.0162 33.2393 17.2017 33.822 16.7231C35.2277 15.5691 36.7875 14.6279 38.4561 13.925C39.1514 13.6318 39.9384 13.8891 40.3272 14.5371C41.4112 16.3428 43.3911 17.442 45.4948 17.4013C47.5986 17.3626 49.5368 16.1915 50.5527 14.346C50.9169 13.6848 51.6925 13.3982 52.4001 13.6649C54.0943 14.3053 55.6872 15.1879 57.1354 16.2889C57.7351 16.7449 57.9054 17.5536 57.5403 18.2129C56.5196 20.0537 56.5603 22.3164 57.6453 24.1174C58.7312 25.9194 60.7186 27.011 62.8176 26.9704C63.581 26.9552 64.2091 27.485 64.3311 28.2304C64.4759 29.1167 64.5581 30.0257 64.5752 30.931C64.5922 31.8362 64.544 32.7472 64.4323 33.6392C64.3387 34.3884 63.7229 34.9417 62.9671 34.955C60.8615 34.9909 58.9213 36.1573 57.9045 37.998C56.8876 39.8379 56.9311 42.1005 58.0189 43.9025C58.4096 44.5467 58.2696 45.3621 57.6869 45.8398Z" fill="#ED324A"/>
</svg>
