<svg width="142" height="14" viewBox="0 0 142 14" fill="none" xmlns="http://www.w3.org/2000/svg">
<path d="M138.371 14C137.439 14 136.506 13.7209 135.801 13.1628L130.383 8.87738C129.022 7.7811 126.779 7.7811 125.393 8.87738C123.352 10.4919 120.656 11.3689 117.758 11.3689C114.86 11.3689 112.164 10.472 110.148 8.87738L109.87 8.65813C108.535 7.60172 106.216 7.60172 104.881 8.65813L104.604 8.87738C102.588 10.472 99.8662 11.3689 96.9934 11.3689C94.1207 11.3689 91.3991 10.472 89.3831 8.87738L89.1059 8.65813C87.7704 7.60172 85.452 7.60172 84.1164 8.65813L83.7384 8.95712C81.6972 10.5716 79.0009 11.4487 76.1281 11.4487C73.2554 11.4487 70.5338 10.5517 68.4926 8.95712L68.2154 8.73786C66.8799 7.68144 64.5615 7.68144 63.2259 8.73786L62.9487 8.95712C60.9075 10.5716 58.2112 11.4487 55.3384 11.4487C52.4657 11.4487 49.7441 10.5517 47.7281 8.95712L47.2745 8.59833C45.939 7.54192 43.6206 7.54192 42.285 8.59833L41.907 8.89732C39.8658 10.5118 37.1695 11.3889 34.2967 11.3889C31.424 11.3889 28.7024 10.4919 26.6864 8.89732L26.51 8.75779C25.124 7.68144 22.9065 7.66151 21.5205 8.75779L21.3441 8.89732C19.3029 10.5118 16.6066 11.3889 13.7086 11.3889C10.8106 11.3889 8.11429 10.4919 6.09831 8.89732L1.05839 4.91085C-0.352795 3.79464 -0.352795 1.98079 1.05839 0.84465C2.46957 -0.291494 4.76273 -0.271562 6.19911 0.84465L11.239 4.83112C12.5746 5.88753 14.893 5.88753 16.2286 4.83112L16.405 4.69159C18.4461 3.07707 21.1425 2.20005 24.0153 2.20005C26.888 2.20005 29.6096 3.09701 31.6256 4.69159L31.802 4.83112C33.1375 5.88753 35.4559 5.88753 36.7915 4.83112L37.1695 4.53213C39.2106 2.91761 41.907 2.04059 44.7798 2.04059C47.6525 2.04059 50.3741 2.93755 52.4153 4.53213L52.8689 4.89091C54.2044 5.94733 56.5228 5.94733 57.8584 4.89091L58.1356 4.67166C62.3439 1.34296 69.173 1.34296 73.3814 4.67166L73.6586 4.89091C74.9941 5.94733 77.3125 5.94733 78.6481 4.89091L79.0261 4.59193C81.0421 2.97741 83.7636 2.10039 86.6364 2.10039C89.5091 2.10039 92.2307 2.99734 94.2467 4.59193L94.5239 4.81119C95.8594 5.8676 98.1778 5.8676 99.5134 4.81119L99.7906 4.59193C101.807 2.99734 104.528 2.10039 107.401 2.10039C110.274 2.10039 112.995 2.99734 115.036 4.59193L115.288 4.81119C116.649 5.88753 118.942 5.8676 120.278 4.81119C124.486 1.48248 131.315 1.48248 135.524 4.81119L140.942 9.09664C142.353 10.2129 142.353 12.0267 140.942 13.1628C140.236 13.7209 139.304 14 138.371 14Z" fill="#EFCC62"/>
</svg>
