<?xml version="1.0" standalone="no"?>
<!DOCTYPE svg PUBLIC "-//W3C//DTD SVG 1.1//EN" "http://www.w3.org/Graphics/SVG/1.1/DTD/svg11.dtd" >
<svg xmlns="http://www.w3.org/2000/svg" xmlns:xlink="http://www.w3.org/1999/xlink" version="1.1">
<metadata>
Created by FontForge 20170731 at Wed Nov  7 06:08:33 2018
 By Aleksey,,,
Copyright 2017 The Barlow Project Authors (https://github.com/jpt/barlow)
</metadata>
<defs>
<font id="BarlowSemiCondensed-Light" horiz-adv-x="454" >
  <font-face 
    font-family="Barlow Semi Condensed Light"
    font-weight="300"
    font-stretch="semi-condensed"
    units-per-em="1000"
    panose-1="0 0 4 6 0 0 0 0 0 0"
    ascent="800"
    descent="-200"
    x-height="504"
    cap-height="700"
    bbox="-591.571 -209 1038 1077"
    underline-thickness="50"
    underline-position="-150"
    unicode-range="U+000D-FB02"
  />
<missing-glyph horiz-adv-x="365" 
d="M4 0h357q4 0 4 4v692q0 4 -4 4h-357q-4 0 -4 -4v-692q0 -4 4 -4zM157 238v44q0 29 13 48t39 43q28 26 41.5 46.5t13.5 54.5q0 39 -21 63t-56 24t-56.5 -24t-21.5 -63v-22q0 -10 -10 -10l-18 1q-10 0 -10 10v21q0 54 32.5 88t84.5 34t83 -33.5t31 -89.5q0 -45 -17 -71.5
t-47 -52.5q-22 -20 -32.5 -34.5t-10.5 -34.5v-42q0 -10 -10 -10h-18q-10 0 -10 10zM150 101.5q-10 10.5 -10 25.5q0 16 10 26t26 10t26 -10t10 -26q0 -15 -10 -25.5t-26 -10.5t-26 10.5z" />
    <glyph glyph-name="fi" unicode="fi" horiz-adv-x="540" 
d="M172.5 629q-18.5 -28 -18.5 -90v-31q0 -4 4 -4h99q10 0 10 -10v-25q0 -10 -10 -10h-99q-4 0 -4 -4v-445q0 -10 -10 -10h-33q-10 0 -10 10v445q0 4 -4 4h-54q-10 0 -10 10v25q0 10 10 10h54q4 0 4 4v33q0 85 31 124t108 39h20q10 0 10 -10v-27q0 -10 -10 -10h-18
q-51 0 -69.5 -28zM389 619q-14 14 -14 36t14 36t36 14t36 -14t14 -36t-14 -36t-36 -14t-36 14zM397 10v484q0 10 10 10h33q10 0 10 -10v-484q0 -10 -10 -10h-33q-10 0 -10 10z" />
    <glyph glyph-name="fl" unicode="fl" horiz-adv-x="510" 
d="M172.5 629q-18.5 -28 -18.5 -90v-31q0 -4 4 -4h99q10 0 10 -10v-25q0 -10 -10 -10h-99q-4 0 -4 -4v-445q0 -10 -10 -10h-33q-10 0 -10 10v445q0 4 -4 4h-54q-10 0 -10 10v25q0 10 10 10h54q4 0 4 4v33q0 85 31 124t108 39h20q10 0 10 -10v-27q0 -10 -10 -10h-18
q-51 0 -69.5 -28zM384 10v680q0 10 10 10h33q10 0 10 -10v-680q0 -10 -10 -10h-33q-10 0 -10 10z" />
    <glyph glyph-name="I_J.liga" unicode="IJ" horiz-adv-x="731" 
d="M91 10v680q0 10 10 10h33q10 0 10 -10v-680q0 -10 -10 -10h-33q-10 0 -10 10zM313.5 42.5q-51.5 50.5 -51.5 133.5v83q0 10 10 10h33q10 0 10 -10v-84q0 -61 37.5 -98.5t98.5 -37.5t99 37.5t38 98.5v515q0 10 10 10h33q10 0 10 -10v-514q0 -83 -52.5 -133.5t-137.5 -50.5
q-86 0 -137.5 50.5z" />
    <glyph glyph-name="f_f_i.liga" unicode="ffi" horiz-adv-x="833" 
d="M753.5 691q14.5 -14 14.5 -36t-14.5 -36t-36.5 -14t-36 14t-14 36t14 36t36 14t36.5 -14zM153 508q0 -4 4 -4h113q10 0 10 -10v-23q0 -10 -10 -10h-113q-4 0 -4 -4v-447q0 -10 -10 -10h-33q-10 0 -10 10v447q0 4 -4 4h-53q-10 0 -10 10v23q0 10 10 10h53q4 0 4 4v39
q0 81 31.5 119.5t107.5 37.5h19q10 0 10 -10v-20q0 -10 -10 -10h-18q-51 -1 -69 -30t-18 -90v-36zM430.5 666.5q31.5 38.5 107.5 37.5h19q10 0 10 -10v-20q0 -10 -10 -10h-18q-51 -1 -69 -30t-18 -90v-36q0 -4 4 -4h100q10 0 10 -10v-23q0 -10 -10 -10h-100q-4 0 -4 -4v-447
q0 -10 -10 -10h-33q-10 0 -10 10v447q0 4 -4 4h-72q-10 0 -10 10v23q0 10 10 10h72q4 0 4 4v39q0 81 31.5 119.5zM690 10v484q0 10 10 10h33q10 0 10 -10v-484q0 -10 -10 -10h-33q-10 0 -10 10z" />
    <glyph glyph-name="f_f_l.liga" unicode="ffl" horiz-adv-x="809" 
d="M153 508q0 -4 4 -4h119q10 0 10 -10v-23q0 -10 -10 -10h-119q-4 0 -4 -4v-447q0 -10 -10 -10h-33q-10 0 -10 10v447q0 4 -4 4h-53q-10 0 -10 10v23q0 10 10 10h53q4 0 4 4v39q0 81 31.5 119.5t107.5 37.5h19q10 0 10 -10v-20q0 -10 -10 -10h-18q-51 -1 -69 -30t-18 -90
v-36zM431 666.5q31 38.5 108 37.5h19q10 0 10 -10v-20q0 -10 -10 -10h-19q-50 -1 -68.5 -30.5t-18.5 -89.5v-36q0 -4 4 -4h101q10 0 10 -10v-23q0 -10 -10 -10h-101q-4 0 -4 -4v-447q0 -10 -10 -10h-32q-10 0 -10 10v447q0 4 -4 4h-72q-10 0 -10 10v23q0 10 10 10h72
q4 0 4 4v39q0 81 31 119.5zM692 700h33q10 0 10 -10v-680q0 -10 -10 -10h-33q-10 0 -10 10v680q0 10 10 10z" />
    <glyph glyph-name="g_j.liga" unicode="gj" horiz-adv-x="688" 
d="M609 691q14 -14 14 -36t-14 -36t-36 -14t-36 14t-14 36t14 36t36 14t36 -14zM346 448.5q2 0.5 2 3.5v42q0 10 10 10h33q10 0 10 -10v-485q0 -218 -229 -209q-10 0 -10 10l1 29q0 10 10 10q92 -3 133.5 37.5t41.5 124.5v44q0 3 -2 3.5t-3 -2.5q-18 -29 -49 -45t-70 -16
q-64 0 -106.5 38t-51.5 103q-5 39 -5 116q0 81 6 119q8 63 49.5 102t105.5 39q40 0 71 -16t50 -45q1 -3 3 -2.5zM547 494q0 10 10 10h33q10 0 10 -10v-549q0 -151 -143 -154q-10 0 -10 10v26q0 10 9 10q43 2 67 30.5t24 77.5v549zM348 252q0 51 -2 107q-4 46 -34.5 76
t-77.5 30t-78 -30t-38 -76q-4 -56 -4 -106q0 -56 4 -106q5 -46 37 -75.5t80 -29.5q47 0 77 30t34 75q2 54 2 105z" />
    <glyph glyph-name="i_j.liga" unicode="ij" horiz-adv-x="447" 
d="M79 619q-14 14 -14 36t14 36t36 14t36 -14t14 -36t-14 -36t-36 -14t-36 14zM296 619q-14 14 -14 36t14 36t36 14t36 -14t14 -36t-14 -36t-36 -14t-36 14zM89 10v484q0 10 10 10h33q10 0 10 -10v-484q0 -10 -10 -10h-33q-10 0 -10 10zM202 -199v27q0 10 10 10
q46 1 69.5 29t23.5 78v549q0 10 10 10h33q10 0 10 -10v-549q0 -76 -34.5 -114.5t-111.5 -39.5q-10 0 -10 10z" />
    <glyph glyph-name="hyphen_hyphen.liga" unicode="&#x2d;&#x2d;" horiz-adv-x="642" 
d="M38 293v27q0 10 10 10h546q10 0 10 -10v-27q0 -10 -10 -10h-546q-10 0 -10 10z" />
    <glyph glyph-name=".notdef" horiz-adv-x="365" 
d="M4 0h357q4 0 4 4v692q0 4 -4 4h-357q-4 0 -4 -4v-692q0 -4 4 -4zM157 238v44q0 29 13 48t39 43q28 26 41.5 46.5t13.5 54.5q0 39 -21 63t-56 24t-56.5 -24t-21.5 -63v-22q0 -10 -10 -10l-18 1q-10 0 -10 10v21q0 54 32.5 88t84.5 34t83 -33.5t31 -89.5q0 -45 -17 -71.5
t-47 -52.5q-22 -20 -32.5 -34.5t-10.5 -34.5v-42q0 -10 -10 -10h-18q-10 0 -10 10zM150 101.5q-10 10.5 -10 25.5q0 16 10 26t26 10t26 -10t10 -26q0 -15 -10 -25.5t-26 -10.5t-26 10.5z" />
    <glyph glyph-name=".null" horiz-adv-x="0" 
 />
    <glyph glyph-name="nonmarkingreturn" unicode="&#xd;" horiz-adv-x="200" 
 />
    <glyph glyph-name="NULL" horiz-adv-x="0" 
 />
    <glyph glyph-name="NULL" horiz-adv-x="0" 
 />
    <glyph glyph-name="space" unicode=" " horiz-adv-x="200" 
 />
    <glyph glyph-name="exclam" unicode="!" horiz-adv-x="279" 
d="M118 235l-4 455q0 10 10 10h33q10 0 10 -10l-4 -455q0 -10 -10 -10h-25q-10 0 -10 10zM103 18q-14 14 -14 36t14 36t36 14t36 -14t14 -36t-14.5 -36t-35.5 -14q-22 0 -36 14z" />
    <glyph glyph-name="quotedbl" unicode="&#x22;" horiz-adv-x="222" 
d="M35 503l-6 180q0 10 10 10h34q10 0 10 -10l-6 -180q0 -10 -10 -10h-22q-10 0 -10 10zM145 503l-6 180q0 10 10 10h34q10 0 10 -10l-6 -180q0 -10 -10 -10h-22q-10 0 -10 10z" />
    <glyph glyph-name="numbersign" unicode="#" horiz-adv-x="617" 
d="M537 436h-69q-5 0 -5 -4l-26 -175q0 -4 3 -4h63q10 0 10 -10v-27q0 -10 -10 -10h-71q-5 0 -5 -4l-27 -179q-1 -9 -10 -9l-33 1q-4 0 -7 3t-2 8l26 176q0 4 -3 4h-168q-5 0 -5 -4l-27 -179q-1 -9 -10 -9l-33 1q-4 0 -7 3t-2 8l26 176q0 4 -3 4h-62q-10 0 -10 10v27
q0 10 10 10h69q5 0 5 4l26 175q0 4 -3 4h-63q-10 0 -10 10v27q0 10 10 10h71q5 0 5 4l27 180q1 9 10 9l33 -2q5 0 7.5 -3t1.5 -7l-26 -177q0 -4 3 -4h168q5 0 5 4l27 180q1 9 10 9l33 -2q5 0 7.5 -3t1.5 -7l-26 -177q0 -4 3 -4h62q10 0 10 -10v-27q0 -10 -10 -10zM383 257
l26 175q0 4 -3 4h-167q-5 0 -5 -4l-26 -175q0 -4 3 -4h167q5 0 5 4z" />
    <glyph glyph-name="dollar" unicode="$" horiz-adv-x="482" 
d="M390 48.5q-43 -47.5 -118 -55.5q-4 0 -4 -4l1 -73q0 -10 -10 -10h-25q-10 0 -10 10v73q0 4 -4 4q-78 7 -123.5 54.5t-45.5 122.5v27q0 10 10 10h30q10 0 10 -10v-24q0 -60 39.5 -97t105.5 -37q63 0 99.5 34.5t36.5 92.5q0 37 -16.5 64.5t-48.5 50.5t-90 55
q-62 35 -95 59.5t-53.5 59t-20.5 85.5q0 75 42 118.5t116 49.5q4 0 4 4l-1 77q0 10 10 10h25q10 0 10 -10l-1 -78q0 -4 4 -4q75 -10 117.5 -57.5t42.5 -122.5v-24q0 -10 -10 -10h-31q-10 0 -10 10v22q0 62 -37.5 99t-103.5 37q-59 0 -93 -31.5t-34 -89.5q0 -37 15 -62
t44 -45t88 -53q66 -37 102 -64t56 -61.5t20 -83.5q0 -75 -43 -122.5z" />
    <glyph glyph-name="percent" unicode="%" horiz-adv-x="820" 
d="M159.5 451.5q-31.5 18.5 -50 50.5t-18.5 70q0 37 18.5 69t50 50.5t69.5 18.5q37 0 68 -18.5t49.5 -50.5t18.5 -69q0 -38 -18.5 -70t-49.5 -50.5t-68 -18.5q-38 0 -69.5 18.5zM202.5 3.5q-2.5 3.5 0.5 8.5l372 681q3 7 12 7h21q5 0 7.5 -3.5t-0.5 -8.5l-372 -681
q-3 -7 -12 -7h-21q-5 0 -7.5 3.5zM299 499q29 30 29 73q0 42 -29 72t-70 30q-42 0 -71.5 -30t-29.5 -72q0 -44 29 -73.5t72 -29.5q41 0 70 30zM523.5 8.5q-31.5 18.5 -50 50.5t-18.5 70t18.5 69.5t50 50t69.5 18.5q37 0 68.5 -18.5t50 -50.5t18.5 -69q0 -38 -18.5 -70
t-50 -50.5t-68.5 -18.5q-38 0 -69.5 18.5zM663.5 56q29.5 30 29.5 73t-29.5 72.5t-70.5 29.5q-43 0 -72 -29.5t-29 -72.5t29 -73t72 -30q41 0 70.5 30z" />
    <glyph glyph-name="ampersand" unicode="&#x26;" horiz-adv-x="587" 
d="M528 6q0 -6 -8 -6h-37q-7 0 -13 6q-35 43 -56 72q-3 4 -6 1q-43 -46 -85.5 -66.5t-96.5 -20.5q-81 0 -128.5 41.5t-47.5 117.5q0 70 36.5 119.5t102.5 100.5q3 1 1 5q-57 77 -74 112t-17 73q0 66 40.5 106.5t105.5 40.5q66 0 108.5 -40t42.5 -105q0 -60 -34 -104.5
t-98 -94.5q-3 -1 -1 -5l87 -114l61 -79q3 -4 6 0q20 27 57 83q5 8 13 3l25 -14q9 -5 3 -14q-29 -46 -68 -99q-1 -3 0 -6l37 -51q28 -35 42 -56q2 -2 2 -6zM178 632q-26 -27 -26 -73q0 -29 14 -58t62 -95q3 -3 6 0q53 42 81 77.5t28 79.5q0 43 -27 69.5t-69 26.5
q-43 0 -69 -27zM307 57.5q35 18.5 72 60.5q2 3 0 6l-64 86l-38 50l-53 69q-2 3 -5 0q-55 -44 -85 -84.5t-30 -92.5q0 -53 33.5 -83t90.5 -30q44 0 79 18.5z" />
    <glyph glyph-name="quotesingle" unicode="'" horiz-adv-x="114" 
d="M35 508l-6 180q0 10 10 10h36q10 0 10 -10l-7 -180q0 -10 -10 -10h-23q-10 0 -10 10z" />
    <glyph glyph-name="parenleft" unicode="(" horiz-adv-x="218" 
d="M88 -100q-42 74 -67.5 187.5t-25.5 235.5q0 125 26.5 241.5t68.5 192.5q4 7 12 7h31q5 0 7.5 -3.5t-0.5 -8.5q-37 -77 -60.5 -191.5t-23.5 -235.5q0 -119 23.5 -232t60.5 -188q1 -2 1 -5q0 -7 -8 -7h-33q-8 0 -12 7z" />
    <glyph glyph-name="parenright" unicode=")" horiz-adv-x="218" 
d="M131 757q41 -74 66.5 -188t25.5 -235q0 -126 -26 -242.5t-69 -191.5q-4 -7 -12 -7h-31q-5 0 -7 3.5t0 8.5q37 76 61 191t24 236q0 119 -24 232t-61 188q-1 2 -1 5q0 7 8 7h34q8 0 12 -7z" />
    <glyph glyph-name="asterisk" unicode="*" horiz-adv-x="379" 
d="M171 403v129q0 2 -1.5 3t-3.5 0l-111 -66l-5 -2q-5 0 -9 6l-8 14q-1 2 -1 5q0 6 5 9l111 66q2 1 2 3t-2 3l-111 66q-4 2 -5 6t1 8l8 14q6 10 14 4l111 -66q2 -1 3.5 0t1.5 3v129q0 10 10 10h17q10 0 10 -10v-129q0 -2 1.5 -3t3.5 0l111 66l5 2q5 0 9 -6l8 -14q1 -2 1 -5
q0 -6 -5 -9l-112 -66q-1 -1 -1 -3t1 -3l112 -66q4 -2 5 -6t-1 -8l-8 -14q-6 -10 -14 -4l-111 66q-2 1 -3.5 0t-1.5 -3v-129q0 -10 -10 -10h-17q-10 0 -10 10z" />
    <glyph glyph-name="plus" unicode="+" horiz-adv-x="473" 
d="M435 331v-25q0 -10 -10 -10h-162q-4 0 -4 -4v-160q0 -10 -10 -10h-25q-10 0 -10 10v160q0 4 -4 4h-162q-10 0 -10 10v25q0 10 10 10h162q4 0 4 4v164q0 10 10 10h25q10 0 10 -10v-164q0 -4 4 -4h162q10 0 10 -10z" />
    <glyph glyph-name="comma" unicode="," horiz-adv-x="216" 
d="M58.5 -71q-2.5 3 -1.5 8l40 208q2 9 11 9h29q5 0 7.5 -3t0.5 -8l-48 -208q-2 -9 -11 -9h-20q-5 0 -7.5 3z" />
    <glyph glyph-name="hyphen" unicode="-" horiz-adv-x="350" 
d="M38 301v27q0 10 10 10h254q10 0 10 -10v-27q0 -10 -10 -10h-254q-10 0 -10 10z" />
    <glyph glyph-name="period" unicode="." horiz-adv-x="231" 
d="M78 18q-14 14 -14 36t14 36t36 14t36 -14t14 -36t-14 -36t-36 -14t-36 14z" />
    <glyph glyph-name="slash" unicode="/" horiz-adv-x="347" 
d="M32.5 3q-2.5 3 -1.5 8l192 681q3 8 11 8h32q5 0 7.5 -3t1.5 -8l-192 -681q-3 -8 -11 -8h-32q-5 0 -7.5 3z" />
    <glyph glyph-name="zero" unicode="0" horiz-adv-x="503" 
d="M117 40.5q-50 50.5 -50 134.5v350q0 83 50 133.5t133 50.5t134 -50.5t51 -133.5v-350q0 -84 -51 -134.5t-134 -50.5t-133 50.5zM346 74.5q36 36.5 36 96.5v358q0 60 -36 96.5t-96 36.5q-59 0 -94.5 -36.5t-35.5 -96.5v-358q0 -60 35.5 -96.5t94.5 -36.5q60 0 96 36.5z
" />
    <glyph glyph-name="one" unicode="1" horiz-adv-x="299" 
d="M169 700h36q10 0 10 -10v-680q0 -10 -10 -10h-33q-10 0 -10 10v624q0 2 -1.5 3t-3.5 0l-103 -44l-4 -1q-6 0 -8 8l-4 23v2q0 8 6 11l112 61q6 3 13 3z" />
    <glyph glyph-name="two" unicode="2" horiz-adv-x="461" 
d="M120 48.5q1 -1.5 3 -1.5h282q10 0 10 -10v-27q0 -10 -10 -10h-342q-10 0 -10 10v29q0 6 4 13q104 147 201 291q80 118 80 193q0 56 -32.5 90.5t-85.5 34.5q-52 0 -83.5 -34.5t-30.5 -90.5v-34q0 -10 -10 -10h-34q-10 0 -10 10v38q1 76 48 122t121 46q77 0 124 -47.5
t47 -124.5q0 -88 -84 -213q-54 -80 -166 -240l-22 -31q-1 -2 0 -3.5z" />
    <glyph glyph-name="three" unicode="3" horiz-adv-x="455" 
d="M390 210q0 -61 -13 -101q-34 -117 -158 -117q-65 0 -108 35.5t-56 96.5q-7 34 -7 74q0 10 10 10h33q10 0 10 -10q0 -33 5 -61q10 -46 39.5 -72t73.5 -26q85 0 109 84q11 39 11 90q0 65 -16 107q-27 74 -104 74q-16 0 -25 -4q-2 -1 -6 -1q-5 0 -8 4l-16 17q-5 7 -1 14
l159 224q1 1 0 3t-3 2h-258q-10 0 -10 10v27q0 10 10 10h318q10 0 10 -10v-30q0 -8 -4 -13l-150 -214q-1 -1 0 -3t3 -2q48 -1 82 -26t51 -70q19 -48 19 -122z" />
    <glyph glyph-name="four" unicode="4" horiz-adv-x="467" 
d="M423 234v-28q0 -10 -10 -10h-36q-4 0 -4 -4v-182q0 -10 -10 -10h-33q-10 0 -10 10v182q0 4 -4 4h-267q-10 0 -10 10v25q0 7 2 12l182 449q3 8 11 8h35q5 0 7.5 -3.5t0.5 -8.5l-177 -439q-1 -2 0 -3.5t3 -1.5h213q4 0 4 4v168q0 10 10 10h33q10 0 10 -10v-168q0 -4 4 -4
h36q10 0 10 -10z" />
    <glyph glyph-name="five" unicode="5" 
d="M407 213q0 -54 -8 -88q-14 -64 -57 -98.5t-107 -34.5q-65 0 -107.5 35.5t-56.5 98.5q-1 6 -3 15t-3 20q0 10 10 10h33q10 0 11 -10q2 -16 4 -23q9 -47 38 -73t74 -26q44 0 73.5 26.5t38.5 73.5q7 26 7 74q0 40 -8 83q-9 44 -38 66.5t-73 22.5q-43 0 -73 -20t-42 -57
q-1 -9 -11 -9h-34q-10 0 -10 10v381q0 10 10 10h298q10 0 10 -10v-27q0 -10 -10 -10h-251q-4 0 -4 -4l-1 -267q0 -2 1.5 -2.5t3.5 1.5q20 25 51.5 38.5t70.5 13.5q58 0 97.5 -29t53.5 -84q12 -49 12 -107z" />
    <glyph glyph-name="six" unicode="6" horiz-adv-x="456" 
d="M408 213q0 -56 -8 -87q-15 -65 -56 -99.5t-106 -34.5q-62 0 -103.5 32.5t-57.5 92.5q-12 40 -12 95v323q0 79 46.5 126t122.5 47q72 0 116.5 -46.5t44.5 -122.5v-11q0 -10 -10 -10h-33q-10 0 -10 10v9q0 55 -30 89t-78 34q-51 0 -83.5 -34.5t-32.5 -92.5v-161
q0 -3 1.5 -3t3.5 2q20 31 50.5 46.5t68.5 15.5q119 0 154 -120q12 -36 12 -100zM355 214q0 54 -9 84q-10 42 -38.5 66t-71.5 24t-71.5 -24.5t-38.5 -68.5q-8 -29 -8 -82q0 -44 6 -76q10 -46 38.5 -72t73.5 -26q43 0 73 26t40 75q6 27 6 74z" />
    <glyph glyph-name="seven" unicode="7" horiz-adv-x="411" 
d="M130 11l203 637q1 2 -0.5 3.5t-3.5 1.5h-246q-4 0 -4 -4v-43q0 -10 -10 -10h-26q-10 0 -10 10v84q0 10 10 10h337q10 0 10 -10v-31q0 -4 -2 -12l-202 -639q-3 -8 -12 -8h-36q-11 0 -8 11z" />
    <glyph glyph-name="eight" unicode="8" horiz-adv-x="467" 
d="M405 194q0 -63 -22 -109q-20 -45 -58.5 -69t-91.5 -24q-52 0 -91 25t-59 71q-21 45 -21 106q0 59 19 105q22 49 69 72q5 3 0 6q-37 19 -57 52q-27 44 -27 103q0 57 25 99q20 37 57.5 57.5t84.5 20.5q49 0 85.5 -20t57.5 -57q25 -42 25 -101q0 -60 -27 -101
q-21 -34 -57 -52q-5 -3 0 -5q46 -23 68 -71q20 -46 20 -108zM139 449q14 -26 38.5 -39.5t55.5 -13.5q33 0 58 14.5t39 41.5q18 33 18 78t-18 75q-14 27 -39 42t-59 15q-32 0 -57 -16t-40 -44q-17 -31 -17 -73q0 -46 21 -80zM352 196q0 50 -15 88q-28 69 -104 69
q-75 0 -103 -69q-15 -36 -15 -88t17 -89q14 -33 39.5 -50.5t61.5 -17.5t62 17.5t40 50.5q17 37 17 89z" />
    <glyph glyph-name="nine" unicode="9" horiz-adv-x="456" 
d="M392 165q0 -79 -47 -126t-123 -47q-71 0 -116 46.5t-45 122.5v11q0 10 10 10h33q10 0 10 -10v-9q0 -55 30.5 -89t77.5 -34q52 0 84 34.5t32 92.5v161q0 3 -1.5 3t-3.5 -2q-20 -31 -50.5 -46.5t-68.5 -15.5q-119 0 -154 120q-12 36 -12 100q0 53 9 87q15 65 56 99.5
t106 34.5q62 0 103.5 -32.5t56.5 -92.5q12 -36 12 -95zM292 336.5q28 24.5 39 68.5q7 31 7 82q0 45 -6 76q-9 45 -38 71.5t-74 26.5q-43 0 -72.5 -26t-39.5 -75q-7 -31 -7 -74q0 -51 10 -84q10 -42 38.5 -66t71.5 -24t71 24.5z" />
    <glyph glyph-name="colon" unicode=":" horiz-adv-x="263" 
d="M95 363q-14 14 -14 36t14 36t36 14t36 -14t14 -36t-14 -36t-36 -14t-36 14zM95 25q-14 14 -14 36t14 36t36 14t36 -14t14 -36t-14 -36t-36 -14t-36 14z" />
    <glyph glyph-name="semicolon" unicode=";" horiz-adv-x="246" 
d="M88.5 370.5q-14.5 15.5 -14.5 37.5t15.5 37t35.5 15t35.5 -15.5t15.5 -36.5q0 -22 -15 -37.5t-36 -15.5q-22 0 -36.5 15.5zM78 -66.5q-3 3.5 -2 7.5l26 199q1 9 10 9h30q5 0 7.5 -3t1.5 -8l-34 -199q-1 -9 -11 -9h-20q-5 0 -8 3.5z" />
    <glyph glyph-name="less" unicode="&#x3c;" horiz-adv-x="473" 
d="M431.5 58.5q-3.5 -2.5 -8.5 0.5l-378 183q-7 4 -7 12v33q0 8 7 12l378 183l5 2q3 0 5 -2.5t2 -6.5v-32q0 -8 -7 -12l-333 -157q-5 -3 0 -6l333 -157q7 -4 7 -12v-33q0 -5 -3.5 -7.5z" />
    <glyph glyph-name="equal" unicode="=" horiz-adv-x="473" 
d="M38 421v25q0 10 10 10h377q10 0 10 -10v-25q0 -10 -10 -10h-377q-10 0 -10 10zM38 209v25q0 10 10 10h377q10 0 10 -10v-25q0 -10 -10 -10h-377q-10 0 -10 10z" />
    <glyph glyph-name="greater" unicode="&#x3e;" horiz-adv-x="473" 
d="M45 57q-3 0 -5 2.5t-2 6.5v33q0 8 7 12l333 157q5 3 0 6l-333 157q-7 4 -7 12v32q0 5 3.5 7.5t8.5 -0.5l378 -183q7 -4 7 -12v-33q0 -8 -7 -12l-378 -183z" />
    <glyph glyph-name="question" unicode="?" horiz-adv-x="398" 
d="M156 205v65q0 41 18 67.5t54 59.5q39 35 58.5 64.5t19.5 77.5q0 55 -29.5 88t-77.5 33q-49 0 -79 -33.5t-30 -88.5v-34q0 -10 -10 -10l-33 2q-10 0 -10 10v32q0 76 45 123.5t118 47.5q72 0 115.5 -46.5t43.5 -124.5q0 -44 -12.5 -75.5t-30 -52.5t-45.5 -46
q-31 -28 -45.5 -48t-14.5 -49v-62q0 -10 -10 -10h-35q-10 0 -10 10zM147.5 17q-14.5 14 -14.5 36t14.5 36t36.5 14t36 -14t14 -36t-14.5 -36t-35.5 -14q-22 0 -36.5 14z" />
    <glyph glyph-name="at" unicode="@" horiz-adv-x="796" 
d="M593.5 570.5q66.5 -35.5 103.5 -99.5t37 -148q0 -17 -4 -53q-12 -91 -57 -142.5t-111 -51.5q-34 0 -59.5 13.5t-38.5 39.5q-2 5 -5 0q-15 -26 -42 -39.5t-59 -13.5q-48 0 -76 27t-28 72q0 27 7 83q7 55 14 81q11 46 43 73t78 27q24 0 44 -9.5t33 -27.5q1 -2 3 -1.5t2 2.5
l3 22q1 9 10 9h21q5 0 8 -3.5t2 -7.5l-28 -212q-1 -6 -1 -16q0 -37 20 -59t54 -22q46 0 78 40.5t42 113.5q4 24 4 52q0 75 -32.5 131.5t-90.5 86.5t-134 30q-80 0 -153 -38.5t-121 -112t-55 -172.5q-1 -11 -1 -32q0 -79 31 -139t87.5 -93t131.5 -33q50 0 95.5 12.5
t70.5 31.5q3 3 7 3t7 -5l10 -14q3 -3 3 -7t-4 -7q-32 -24 -85 -38.5t-111 -14.5q-85 0 -149.5 38t-99.5 107t-35 158q0 25 1 37q8 109 62.5 190t137.5 124t175 43q88 0 154.5 -35.5zM418 132q22 20 30 52q6 26 12 73q1 13 2 21.5t2 14.5q3 26 3 43q0 30 -18 48.5t-48 18.5
q-32 0 -56 -19.5t-32 -51.5q-6 -25 -12 -75q-6 -57 -6 -73q-1 -32 18 -52t51 -20t54 20z" />
    <glyph glyph-name="A" unicode="A" horiz-adv-x="491" 
d="M412 9l-36 132q-1 3 -5 3h-252q-4 0 -5 -3l-35 -132q-2 -9 -11 -9h-34q-5 0 -7.5 3t-1.5 8l188 681q2 8 11 8h42q9 0 11 -8l188 -681l1 -3q0 -8 -10 -8h-33q-9 0 -11 9zM128.5 189.5q1.5 -1.5 3.5 -1.5h226q2 0 3.5 1.5t0.5 2.5l-115 430q-1 2 -2.5 2t-2.5 -2l-114 -430
q-1 -1 0.5 -2.5z" />
    <glyph glyph-name="B" unicode="B" horiz-adv-x="536" 
d="M378 359q48 -21 74 -64.5t27 -105.5q0 -89 -51.5 -139t-136.5 -50h-190q-10 0 -10 10v680q0 10 10 10h183q88 0 138.5 -47.5t50.5 -133.5q0 -56 -24.5 -95t-70.5 -59q-4 -3 0 -6zM144 649v-262q0 -4 4 -4h137q63 0 99.5 35.5t36.5 97.5q0 64 -36.5 100.5t-99.5 36.5h-137
q-4 0 -4 -4zM389 87q37 39 37 106t-37.5 106.5t-101.5 39.5h-139q-4 0 -4 -4v-283q0 -4 4 -4h141q63 0 100 39z" />
    <glyph glyph-name="C" unicode="C" horiz-adv-x="524" 
d="M123.5 44.5q-53.5 52.5 -53.5 138.5v335q0 86 53.5 138t141.5 52q89 0 142.5 -52t53.5 -137v-9q0 -5 -3 -8t-7 -3l-33 -2q-10 0 -10 10v14q0 63 -39.5 101.5t-103.5 38.5t-103 -38.5t-39 -101.5v-341q0 -64 39 -102.5t103 -38.5q65 0 104 38.5t39 102.5v12q0 10 10 10
l33 -2q10 0 10 -10v-8q0 -86 -53.5 -138t-142.5 -52q-88 0 -141.5 52.5z" />
    <glyph glyph-name="D" unicode="D" horiz-adv-x="540" 
d="M91 10v680q0 10 10 10h189q85 0 134.5 -50t49.5 -136v-328q0 -86 -49.5 -136t-134.5 -50h-189q-10 0 -10 10zM148 47h143q59 0 94 38.5t35 103.5v321q0 67 -34.5 105t-94.5 38h-143q-4 0 -4 -4v-598q0 -4 4 -4z" />
    <glyph glyph-name="E" unicode="E" horiz-adv-x="519" 
d="M455 653h-307q-4 0 -4 -4v-271q0 -4 4 -4h210q10 0 10 -10v-27q0 -10 -10 -10h-210q-4 0 -4 -4v-272q0 -4 4 -4h307q10 0 10 -10v-27q0 -10 -10 -10h-354q-10 0 -10 10v680q0 10 10 10h354q10 0 10 -10v-27q0 -10 -10 -10z" />
    <glyph glyph-name="F" unicode="F" horiz-adv-x="485" 
d="M454 653h-306q-4 0 -4 -4v-271q0 -4 4 -4h209q10 0 10 -10v-27q0 -10 -10 -10h-209q-4 0 -4 -4v-313q0 -10 -10 -10h-33q-10 0 -10 10v680q0 10 10 10h353q10 0 10 -10v-27q0 -10 -10 -10z" />
    <glyph glyph-name="G" unicode="G" horiz-adv-x="530" 
d="M123.5 43.5q-53.5 51.5 -53.5 136.5v340q0 85 53.5 136.5t141.5 51.5q58 0 102 -23.5t68.5 -65.5t24.5 -96v-29q0 -10 -10 -10h-33q-10 0 -10 10v29q0 62 -39 100t-103 38t-103 -38.5t-39 -100.5v-344q0 -62 39.5 -100.5t103.5 -38.5t102.5 37.5t38.5 98.5v122q0 4 -4 4
h-125q-10 0 -10 10v26q0 10 10 10h172q10 0 10 -10v-155q0 -87 -53.5 -138.5t-141.5 -51.5t-141.5 51.5z" />
    <glyph glyph-name="H" unicode="H" horiz-adv-x="565" 
d="M432 700h33q10 0 10 -10v-680q0 -10 -10 -10h-33q-10 0 -10 10v313q0 4 -4 4h-270q-4 0 -4 -4v-313q0 -10 -10 -10h-33q-10 0 -10 10v680q0 10 10 10h33q10 0 10 -10v-312q0 -4 4 -4h270q4 0 4 4v312q0 10 10 10z" />
    <glyph glyph-name="I" unicode="I" horiz-adv-x="234" 
d="M91 10v680q0 10 10 10h33q10 0 10 -10v-680q0 -10 -10 -10h-33q-10 0 -10 10z" />
    <glyph glyph-name="J" unicode="J" horiz-adv-x="497" 
d="M79.5 42.5q-51.5 50.5 -51.5 133.5v83q0 10 10 10h33q10 0 10 -10v-84q0 -61 37.5 -98.5t98.5 -37.5t99 37.5t38 98.5v515q0 10 10 10h33q10 0 10 -10v-514q0 -83 -52.5 -133.5t-137.5 -50.5q-86 0 -137.5 50.5z" />
    <glyph glyph-name="K" unicode="K" horiz-adv-x="524" 
d="M91 10v680q0 10 10 10h33q10 0 10 -10v-348q0 -2 2 -3t3 1l272 354q4 6 13 6h38q6 0 8 -3.5t-2 -8.5l-204 -270q-1 -3 0 -6l223 -400q2 -4 2 -6q0 -6 -9 -6h-38q-7 0 -12 7l-203 362q-2 5 -5 0l-86 -107q-2 -4 -2 -5v-247q0 -10 -10 -10h-33q-10 0 -10 10z" />
    <glyph glyph-name="L" unicode="L" horiz-adv-x="478" 
d="M91 10v680q0 10 10 10h33q10 0 10 -10v-639q0 -4 4 -4h296q10 0 10 -10v-27q0 -10 -10 -10h-343q-10 0 -10 10z" />
    <glyph glyph-name="M" unicode="M" horiz-adv-x="615" 
d="M480 700h35q10 0 10 -10v-680q0 -10 -10 -10h-33q-10 0 -10 10v577q0 3 -2 3.5t-3 -2.5l-143 -258q-3 -7 -12 -7h-8q-7 0 -12 7l-144 256q-1 3 -3 2.5t-2 -3.5v-575q0 -10 -10 -10h-33q-10 0 -10 10v680q0 10 10 10h34q7 0 12 -7l159 -282q1 -1 3 -1t3 1l157 282
q5 7 12 7z" />
    <glyph glyph-name="N" unicode="N" horiz-adv-x="584" 
d="M450 700h33q10 0 10 -10v-680q0 -10 -10 -10h-36q-9 0 -12 7l-287 574q-2 2 -3.5 1.5t-1.5 -3.5v-569q0 -10 -10 -10h-33q-10 0 -10 10v680q0 10 10 10h36q9 0 12 -7l287 -572q2 -2 3.5 -1.5t1.5 3.5v567q0 10 10 10z" />
    <glyph glyph-name="O" unicode="O" horiz-adv-x="537" 
d="M124 46.5q-54 54.5 -54 143.5v320q0 58 24.5 103t69.5 70t103 25q59 0 104.5 -25t70.5 -70t25 -103v-320q0 -59 -25 -104t-70.5 -69.5t-104.5 -24.5q-89 0 -143 54.5zM373.5 80q40.5 41 40.5 107v324q0 67 -40.5 108.5t-106.5 41.5q-65 0 -104.5 -41.5t-39.5 -108.5v-324
q0 -66 40 -107t104 -41q66 0 106.5 41z" />
    <glyph glyph-name="P" unicode="P" horiz-adv-x="513" 
d="M427.5 649.5q47.5 -52.5 47.5 -138.5q0 -85 -47.5 -136t-124.5 -51h-159q-4 0 -4 -4v-310q0 -10 -10 -10h-33q-10 0 -10 10v682q0 10 10 10h206q77 0 124.5 -52.5zM388.5 407q34.5 39 34.5 103q0 66 -34.5 105t-90.5 39h-154q-4 0 -4 -4v-278q0 -4 4 -4h154q56 0 90.5 39
z" />
    <glyph glyph-name="Q" unicode="Q" horiz-adv-x="505" 
d="M352.5 683.5q43.5 -24.5 67.5 -69t24 -101.5v-327q0 -79 -43.5 -131t-117.5 -62q-4 0 -4 -4v-99q0 -10 -10 -10h-33q-10 0 -10 10v100q0 4 -4 4q-73 10 -116.5 61.5t-43.5 130.5v327q0 57 24 101.5t67.5 69t99.5 24.5t99.5 -24.5zM391 516q0 65 -38.5 105t-99.5 40
q-62 0 -100 -40t-38 -105v-332q0 -65 38 -105t100 -40q61 0 99.5 40t38.5 105v332z" />
    <glyph glyph-name="R" unicode="R" horiz-adv-x="524" 
d="M427 8l-131 317q-1 3 -4 3h-144q-4 0 -4 -4v-314q0 -10 -10 -10h-33q-10 0 -10 10v680q0 10 10 10h203q77 0 124.5 -52t47.5 -136q0 -70 -34 -117.5t-93 -61.5q-4 -2 -2 -5l133 -316l1 -4q0 -8 -9 -8h-34q-8 0 -11 8zM144 649v-273q0 -4 4 -4h151q56 0 90 38.5t34 101.5
t-34.5 102t-89.5 39h-151q-4 0 -4 -4z" />
    <glyph glyph-name="S" unicode="S" horiz-adv-x="495" 
d="M105 41q-54 49 -54 129v27q0 10 10 10h31q10 0 10 -10v-24q0 -60 40.5 -97t108.5 -37q65 0 102.5 34.5t37.5 92.5q0 37 -17 64.5t-49.5 50.5t-92.5 55q-64 35 -98 59.5t-55 59t-21 85.5q0 79 49.5 123.5t133.5 44.5q91 0 144 -49.5t53 -131.5v-24q0 -10 -10 -10h-33
q-10 0 -10 10v22q0 62 -39 99t-106 37q-61 0 -95.5 -31.5t-34.5 -89.5q0 -37 15.5 -62t45 -45t90.5 -53q67 -37 104.5 -64t58 -61.5t20.5 -83.5q0 -81 -52.5 -130t-141.5 -49q-91 0 -145 49z" />
    <glyph glyph-name="T" unicode="T" horiz-adv-x="488" 
d="M446 690v-27q0 -10 -10 -10h-166q-4 0 -4 -4v-639q0 -10 -10 -10h-33q-10 0 -10 10v639q0 4 -4 4h-157q-10 0 -10 10v27q0 10 10 10h384q10 0 10 -10z" />
    <glyph glyph-name="U" unicode="U" horiz-adv-x="564" 
d="M178 17.5q-45 25.5 -69.5 72t-24.5 107.5v493q0 10 10 10h33q10 0 10 -10v-497q0 -69 39.5 -111.5t105.5 -42.5q65 0 105 42.5t40 111.5v497q0 10 10 10h33q10 0 10 -10v-493q0 -61 -24.5 -107.5t-69.5 -72t-104 -25.5t-104 25.5z" />
    <glyph glyph-name="V" unicode="V" horiz-adv-x="503" 
d="M222 9l-184 680l-1 3q0 8 10 8h35q9 0 11 -9l157 -599q1 -2 2 -2t2 2l158 599q2 9 11 9h33q5 0 7.5 -3t1.5 -8l-184 -680q-2 -9 -11 -9h-37q-9 0 -11 9z" />
    <glyph glyph-name="W" unicode="W" horiz-adv-x="742" 
d="M193 9l-162 680l-1 4q0 7 9 7h35q9 0 11 -9l133 -575q1 -3 2.5 -3t2.5 3l121 575q2 9 11 9h33q10 0 11 -9l125 -575q1 -3 2 -3t2 3l130 575q2 9 11 9h35q5 0 7.5 -3t0.5 -8l-159 -680q-2 -9 -11 -9h-34q-9 0 -11 9l-123 580q-1 3 -2 3t-2 -3l-122 -580q-1 -9 -11 -9h-33
q-9 0 -11 9z" />
    <glyph glyph-name="X" unicode="X" horiz-adv-x="500" 
d="M41 3.5q-2 3.5 0 8.5l179 335q2 3 0 6l-179 335q-1 2 -1 5q0 7 8 7h37q9 0 12 -7l151 -293q1 -2 3 -2t3 2l150 293q3 7 12 7h36q5 0 7 -3.5t0 -8.5l-179 -336q-1 -3 0 -6l179 -334l2 -5q0 -3 -2.5 -5t-6.5 -2h-36q-9 0 -12 7l-150 292q-1 2 -3 2t-3 -2l-151 -292
q-3 -7 -12 -7h-37q-5 0 -7 3.5z" />
    <glyph glyph-name="Y" unicode="Y" horiz-adv-x="483" 
d="M215 10v309q0 4 -1 5l-173 364q-1 2 -1 5q0 7 8 7h35q8 0 11 -7l145 -311q1 -2 3 -2t3 2l143 311q3 7 11 7h35q5 0 7 -3.5t0 -8.5l-172 -364q-1 -1 -1 -5v-309q0 -10 -10 -10h-33q-10 0 -10 10z" />
    <glyph glyph-name="Z" unicode="Z" horiz-adv-x="469" 
d="M42 10v31q0 6 3 13l314 594q2 5 -2 5h-305q-10 0 -10 10v27q0 10 10 10h357q10 0 10 -10v-31q0 -5 -3 -13l-313 -594q-2 -5 2 -5h304q10 0 10 -10v-27q0 -10 -10 -10h-357q-10 0 -10 10z" />
    <glyph glyph-name="bracketleft" unicode="[" horiz-adv-x="331" 
d="M29 -104v862q0 10 10 10h161q10 0 10 -10v-28q0 -10 -10 -10h-114q-4 0 -4 -4v-779q0 -4 4 -4h114q10 0 10 -10v-27q0 -10 -10 -10h-161q-10 0 -10 10z" />
    <glyph glyph-name="backslash" unicode="\" horiz-adv-x="347" 
d="M318 8q0 -8 -10 -8h-32q-8 0 -11 8l-192 681l-1 3q0 8 10 8h32q8 0 11 -8l192 -681z" />
    <glyph glyph-name="bracketright" unicode="]" horiz-adv-x="331" 
d="M292 -114h-161q-10 0 -10 10v27q0 10 10 10h114q4 0 4 4v779q0 4 -4 4h-114q-10 0 -10 10v28q0 10 10 10h161q10 0 10 -10v-862q0 -10 -10 -10z" />
    <glyph glyph-name="asciicircum" unicode="^" horiz-adv-x="417" 
d="M42.5 313.5q-2.5 3.5 -0.5 8.5l139 370q3 8 11 8h32q8 0 11 -8l140 -370l1 -4q0 -8 -9 -8h-26q-9 0 -12 8l-118 322q-1 3 -3 3t-3 -3l-117 -322q-3 -8 -12 -8h-26q-5 0 -7.5 3.5z" />
    <glyph glyph-name="underscore" unicode="_" horiz-adv-x="419" 
d="M28 10v24q0 10 10 10h344q10 0 10 -10v-24q0 -10 -10 -10h-344q-10 0 -10 10z" />
    <glyph glyph-name="grave" unicode="`" horiz-adv-x="178" 
d="M144 577q0 -6 -9 -6h-21q-7 0 -12 7l-68 110q-2 4 -2 6q0 6 9 6h28q8 0 12 -7l61 -110q2 -4 2 -6z" />
    <glyph glyph-name="a" unicode="a" horiz-adv-x="455" 
d="M348.5 467q42.5 -45 42.5 -122v-335q0 -10 -10 -10h-33q-10 0 -10 10v41q0 2 -1.5 2.5t-3.5 -1.5q-22 -30 -58 -45t-79 -15q-62 0 -105 33t-43 108q0 79 50 119.5t137 40.5h99q4 0 4 4v46q0 56 -28 89t-82 33q-43 0 -72 -21.5t-35 -56.5q-1 -9 -11 -9l-36 2q-5 0 -7.5 3
t-1.5 7q7 55 52.5 88.5t111.5 33.5q77 0 119.5 -45zM298.5 68.5q39.5 29.5 39.5 83.5v94q0 4 -4 4h-96q-62 0 -99.5 -29.5t-37.5 -84.5q0 -49 29 -73t75 -24q54 0 93.5 29.5z" />
    <glyph glyph-name="b" unicode="b" horiz-adv-x="479" 
d="M420 306q3 -35 3 -61q0 -57 -14 -117q-18 -72 -55.5 -104t-100.5 -32q-84 0 -118 62q-1 3 -3 2.5t-2 -3.5v-43q0 -10 -10 -10h-33q-10 0 -10 10v680q0 10 10 10h33q10 0 10 -10v-239q0 -3 1.5 -3.5t2.5 2.5q16 30 42.5 45.5t70.5 15.5q68 0 109 -34.5t56 -108.5
q5 -27 8 -62zM368 252q0 88 -22 142q-15 35 -39.5 53t-62.5 18q-36 0 -58 -19t-35 -55q-19 -47 -19 -139q0 -87 17 -137q13 -38 36 -57.5t61 -19.5q42 0 66 19.5t39 59.5q17 46 17 135z" />
    <glyph glyph-name="c" unicode="c" horiz-adv-x="455" 
d="M122.5 31.5q-45.5 39.5 -53.5 103.5q-7 48 -7 118q0 58 7 117q8 63 53.5 102.5t113.5 39.5t114.5 -37t54.5 -92l3 -18v-2q0 -7 -9 -9l-33 -2q-9 0 -11 9v5q0 4 -2 12q-7 36 -39 61.5t-78 25.5q-48 0 -79.5 -29.5t-36.5 -76.5t-5 -107q0 -62 5 -107q5 -48 36.5 -77
t79.5 -29q49 0 81.5 27.5t36.5 66.5v6q2 10 11 9l33 -2q4 0 6.5 -2.5t2.5 -6.5v-4l-1 -8q-1 -1 -1 -4q-7 -56 -53.5 -92.5t-115.5 -36.5q-68 0 -113.5 39.5z" />
    <glyph glyph-name="d" unicode="d" horiz-adv-x="479" 
d="M359 700h33q10 0 10 -10v-680q0 -10 -10 -10h-33q-10 0 -10 10v43q0 3 -2 3.5t-3 -2.5q-34 -62 -118 -62q-63 0 -100 31.5t-56 104.5q-14 60 -14 117q0 26 3 61t8 62q16 75 56 109t109 34q44 0 70.5 -15.5t42.5 -45.5q1 -3 2.5 -2.5t1.5 3.5v239q0 10 10 10zM347 252
q0 92 -19 139q-14 36 -35.5 55t-57.5 19q-73 0 -102 -71q-22 -54 -22 -142q0 -89 17 -135q14 -39 38.5 -59t66.5 -20q38 0 61 19.5t36 57.5q17 50 17 137z" />
    <glyph glyph-name="e" unicode="e" horiz-adv-x="465" 
d="M308.5 60.5q30.5 21.5 42.5 57.5q3 9 12 7l30 -5q5 -1 6.5 -4.5t0.5 -7.5q-16 -53 -59.5 -84.5t-104.5 -31.5q-69 0 -113.5 38.5t-53.5 101.5q-4 24 -5 55.5t-1 64.5q0 82 4 115q8 64 53.5 104.5t113.5 40.5q73 0 119 -42t52 -110q3 -33 3 -118q0 -10 -10 -10h-278
q-4 0 -4 -4q0 -61 2 -83q5 -48 37 -77t82 -29q41 0 71.5 21.5zM154.5 435.5q-31.5 -29.5 -36.5 -76.5q-2 -22 -2 -78q0 -4 4 -4h231q4 0 4 4q0 45 -3 78q-5 47 -37 76.5t-80 29.5q-49 0 -80.5 -29.5z" />
    <glyph glyph-name="f" unicode="f" horiz-adv-x="310" 
d="M172.5 629q-18.5 -28 -18.5 -90v-31q0 -4 4 -4h99q10 0 10 -10v-25q0 -10 -10 -10h-99q-4 0 -4 -4v-445q0 -10 -10 -10h-33q-10 0 -10 10v445q0 4 -4 4h-54q-10 0 -10 10v25q0 10 10 10h54q4 0 4 4v33q0 85 31 124t108 39h20q10 0 10 -10v-27q0 -10 -10 -10h-18
q-51 0 -69.5 -28z" />
    <glyph glyph-name="g" unicode="g" horiz-adv-x="468" 
d="M358 504h33q10 0 10 -10v-485q0 -218 -229 -209q-10 0 -10 10l1 29q0 10 10 10q92 -3 133.5 37.5t41.5 124.5v44q0 3 -2 3.5t-3 -2.5q-18 -29 -49 -45t-70 -16q-64 0 -106.5 38t-51.5 103q-5 39 -5 116q0 81 6 119q8 63 49.5 102t105.5 39q40 0 71 -16t50 -45
q1 -3 3 -2.5t2 3.5v42q0 10 10 10zM348 252q0 51 -2 107q-4 46 -34.5 76t-77.5 30t-78 -30t-38 -76q-4 -56 -4 -106q0 -56 4 -106q5 -46 37 -75.5t80 -29.5q47 0 77 30t34 75q2 54 2 105z" />
    <glyph glyph-name="h" unicode="h" horiz-adv-x="478" 
d="M367 467q40 -44 40 -119v-338q0 -10 -10 -10h-33q-10 0 -10 10v330q0 57 -30 90.5t-80 33.5q-52 0 -83 -34.5t-31 -91.5v-328q0 -10 -10 -10h-33q-10 0 -10 10v680q0 10 10 10h33q10 0 10 -10v-239q0 -3 1.5 -3.5t2.5 1.5q20 30 52 46t72 16q69 0 109 -44z" />
    <glyph glyph-name="i" unicode="i" horiz-adv-x="230" 
d="M79 619q-14 14 -14 36t14 36t36 14t36 -14t14 -36t-14 -36t-36 -14t-36 14zM87 10v484q0 10 10 10h33q10 0 10 -10v-484q0 -10 -10 -10h-33q-10 0 -10 10z" />
    <glyph glyph-name="j" unicode="j" horiz-adv-x="219" 
d="M68 619q-14 14 -14 36t14 36t36 14t36 -14t14 -36t-14 -36t-36 -14t-36 14zM-26 -199v27q0 10 10 10q46 1 70 29t24 78l-1 549q0 10 10 10h33q10 0 10 -10v-549q0 -76 -34.5 -114.5t-111.5 -39.5q-10 0 -10 10z" />
    <glyph glyph-name="k" unicode="k" horiz-adv-x="443" 
d="M77 10v680q0 10 10 10h33q10 0 10 -10v-423q0 -2 2 -3t3 1l197 233q5 6 12 6h38q6 0 8 -3.5t-2 -8.5l-112 -136q-2 -3 -1 -5l135 -339q1 -2 1 -5q0 -7 -8 -7h-36q-8 0 -11 8l-115 303q-1 2 -3 2.5t-3 -1.5l-103 -122q-2 -4 -2 -5v-175q0 -10 -10 -10h-33q-10 0 -10 10z
" />
    <glyph glyph-name="l" unicode="l" horiz-adv-x="200" 
d="M74 10v680q0 10 10 10h33q10 0 10 -10v-680q0 -10 -10 -10h-33q-10 0 -10 10z" />
    <glyph glyph-name="m" unicode="m" horiz-adv-x="734" 
d="M625.5 467q38.5 -44 38.5 -121v-336q0 -10 -10 -10h-32q-10 0 -10 10v329q0 58 -29 91.5t-77 33.5q-50 0 -80 -33t-30 -90v-331q0 -10 -10 -10h-32q-10 0 -10 10v329q0 58 -29 91.5t-76 33.5q-50 0 -80 -33t-30 -90v-331q0 -10 -10 -10h-32q-10 0 -10 10v484q0 10 10 10
h32q10 0 10 -10v-42q0 -3 2 -3.5t3 2.5q20 30 51.5 45t69.5 15q45 0 77.5 -21.5t48.5 -60.5q2 -5 5 1q19 41 55 61t81 20q65 0 103.5 -44z" />
    <glyph glyph-name="n" unicode="n" horiz-adv-x="478" 
d="M367 467q40 -44 40 -119v-338q0 -10 -10 -10h-33q-10 0 -10 10v330q0 57 -30 90.5t-80 33.5q-52 0 -83 -34.5t-31 -91.5v-328q0 -10 -10 -10h-33q-10 0 -10 10v484q0 10 10 10h33q10 0 10 -10v-43q0 -3 1.5 -3.5t2.5 1.5q20 30 52 46t72 16q69 0 109 -44z" />
    <glyph glyph-name="o" unicode="o" horiz-adv-x="473" 
d="M121.5 31q-45.5 39 -53.5 104q-6 41 -6 117q0 77 6 117q8 65 53.5 104t115.5 39q69 0 114.5 -39.5t53.5 -103.5q5 -34 5 -117t-5 -117q-8 -65 -54 -104t-115 -39t-114.5 39zM316.5 68q32.5 29 37.5 77q3 29 3 107t-3 107q-5 48 -37.5 77t-80.5 29t-80 -29t-37 -77
q-3 -29 -3 -107t3 -107q5 -48 37 -77t80 -29t80.5 29z" />
    <glyph glyph-name="p" unicode="p" horiz-adv-x="486" 
d="M429 259q0 -72 -11 -123q-15 -74 -55.5 -108.5t-108.5 -34.5q-44 0 -70.5 15.5t-42.5 45.5q-1 2 -2.5 2t-1.5 -3v-239q0 -10 -10 -10h-33q-10 0 -10 10v680q0 10 10 10h33q10 0 10 -10v-42q0 -3 1.5 -3.5t3.5 1.5q36 62 118 62q63 0 100 -32t55 -104q14 -55 14 -117z
M375 252q0 87 -18 135q-14 39 -38.5 59t-65.5 20q-38 0 -61 -19.5t-36 -57.5q-18 -54 -18 -137q0 -89 19 -139q14 -37 35.5 -55.5t58.5 -18.5q71 0 102 71q22 54 22 142z" />
    <glyph glyph-name="q" unicode="q" horiz-adv-x="486" 
d="M359 504h33q10 0 10 -10v-680q0 -10 -10 -10h-33q-10 0 -10 10v239q0 3 -1.5 3.5t-2.5 -2.5q-16 -30 -42.5 -45.5t-70.5 -15.5q-69 0 -109 34t-56 109q-5 27 -8 62t-3 61q0 57 14 117q19 73 56 104.5t100 31.5q84 0 118 -62q1 -3 3 -2.5t2 3.5v43q0 10 10 10zM347 252
q0 86 -17 137q-13 38 -36 57.5t-61 19.5q-42 0 -66.5 -20t-38.5 -59q-17 -46 -17 -135q0 -88 22 -142q29 -71 102 -71q36 0 57.5 18.5t35.5 55.5q19 47 19 139z" />
    <glyph glyph-name="r" unicode="r" horiz-adv-x="322" 
d="M301 497q7 -3 5 -12l-9 -34q-3 -10 -13 -6q-16 7 -33 7l-11 -1q-48 -1 -79 -41t-31 -99v-301q0 -10 -10 -10h-33q-10 0 -10 10v484q0 10 10 10h33q10 0 10 -10v-67q0 -3 2 -3t3 3q17 38 46.5 59.5t68.5 21.5q31 0 51 -11z" />
    <glyph glyph-name="s" unicode="s" horiz-adv-x="421" 
d="M98.5 31.5q-45.5 36.5 -45.5 92.5v9q0 10 10 10h32q10 0 10 -10v-8q0 -36 31 -61.5t80 -25.5t78.5 25.5t29.5 65.5q0 29 -16 47t-39 29t-65 26q-46 16 -76.5 31t-51 42.5t-20.5 69.5q0 62 43.5 98t114.5 36q72 0 115.5 -37.5t43.5 -95.5v-3q0 -10 -10 -10h-30
q-10 0 -10 10v4q0 38 -30.5 63t-79.5 25q-48 0 -76.5 -24t-28.5 -63q0 -27 15 -45t37.5 -29t62.5 -25q49 -17 79.5 -32t52.5 -43t22 -71q0 -62 -43.5 -99.5t-116.5 -37.5t-118.5 36.5z" />
    <glyph glyph-name="t" unicode="t" horiz-adv-x="310" 
d="M254 461h-99q-4 0 -4 -4v-320q0 -51 20 -70.5t64 -19.5h17q10 0 10 -10v-27q0 -10 -10 -10h-26q-63 0 -95 26.5t-32 97.5v333q0 4 -4 4h-51q-10 0 -10 10v23q0 10 10 10h51q4 0 4 4v113q0 10 10 10h32q10 0 10 -10v-113q0 -4 4 -4h99q10 0 10 -10v-23q0 -10 -10 -10z" />
    <glyph glyph-name="u" unicode="u" horiz-adv-x="476" 
d="M357 504h33q10 0 10 -10v-484q0 -10 -10 -10h-33q-10 0 -10 10v43q0 3 -1.5 3t-3.5 -2q-18 -30 -49 -45.5t-72 -15.5q-68 0 -109.5 40.5t-41.5 115.5v345q0 10 10 10h33q10 0 10 -10v-332q0 -58 29 -90t80 -32q53 0 84 34t31 92v328q0 10 10 10z" />
    <glyph glyph-name="v" unicode="v" horiz-adv-x="414" 
d="M176 8l-145 485l-1 3q0 8 10 8h37q8 0 11 -8l116 -413q1 -2 3 -2t3 2l116 412q4 9 11 9l37 -1q5 0 8 -3t1 -8l-145 -484q-3 -8 -11 -8h-39q-9 0 -12 8z" />
    <glyph glyph-name="w" unicode="w" horiz-adv-x="622" 
d="M154 9l-123 484l-1 4q0 7 9 7h33q9 0 11 -9l98 -410q1 -3 2 -3t2 3l98 410q2 9 11 9h31q10 0 11 -9l100 -409q1 -3 2 -3t2 3l99 409q2 9 11 9l33 -1q5 0 7.5 -3t0.5 -8l-124 -483q-1 -9 -11 -9h-34q-9 0 -11 9l-100 397q-1 3 -2 3t-2 -3l-97 -397q-1 -9 -11 -9h-34
q-9 0 -11 9z" />
    <glyph glyph-name="x" unicode="x" horiz-adv-x="410" 
d="M27 3.5q-2 3.5 1 8.5l146 237q2 3 0 6l-146 237q-2 4 -2 6q0 6 9 6h36q7 0 12 -7l119 -197q1 -1 3 -1t3 1l118 197q5 7 12 7h38q6 0 8 -3.5t-1 -8.5l-146 -237q-1 -3 0 -6l146 -237q2 -4 2 -6q0 -6 -9 -6h-37q-7 0 -12 7l-118 197q-1 2 -3 2t-3 -2l-119 -197
q-5 -7 -12 -7h-37q-6 0 -8 3.5z" />
    <glyph glyph-name="y" unicode="y" horiz-adv-x="401" 
d="M46 -190v26q0 10 10 10h2q34 1 53 12.5t32.5 42.5t30.5 96q1 1 0.5 3.5l-0.5 2.5l-150 490l-1 3q0 8 10 8h35q8 0 11 -8l120 -421q1 -2 2.5 -2t2.5 2l119 421q2 8 11 8h35q5 0 7.5 -3t1.5 -8l-166 -544q-20 -65 -38 -96t-43.5 -42t-71.5 -11h-6q-7 0 -7 10z" />
    <glyph glyph-name="z" unicode="z" horiz-adv-x="399" 
d="M37 10v32q0 5 4 13l257 395q1 1 0 3t-3 2h-245q-10 0 -10 10v29q0 10 10 10h303q10 0 10 -10v-32q0 -5 -4 -13l-260 -395q-1 -1 0 -3t3 -2h250q10 0 10 -10v-29q0 -10 -10 -10h-305q-10 0 -10 10z" />
    <glyph glyph-name="braceleft" unicode="{" horiz-adv-x="269" 
d="M109.5 -87.5q-22.5 26.5 -22.5 84.5v219q0 42 -12 64t-37 27q-9 2 -9 10v26q0 9 9 10q25 5 37 26.5t12 63.5v213q0 58 22.5 85t71.5 27h50q10 0 10 -10v-28q0 -10 -10 -10h-34q-29 0 -43 -18.5t-14 -58.5v-201q0 -45 -11 -71t-35 -38q-5 -2 0 -5q24 -13 35 -39.5
t11 -70.5v-208q0 -40 14 -58.5t43 -18.5h34q10 0 10 -10v-27q0 -10 -10 -10h-50q-49 0 -71.5 26.5z" />
    <glyph glyph-name="bar" unicode="|" horiz-adv-x="145" 
d="M46 -70v820q0 10 10 10h33q10 0 10 -10v-820q0 -10 -10 -10h-33q-10 0 -10 10z" />
    <glyph glyph-name="braceright" unicode="}" horiz-adv-x="269" 
d="M39 -114q-10 0 -10 10v27q0 10 10 10h33q29 0 43 18.5t14 58.5v208q0 44 11 70.5t35 39.5q5 3 0 5q-24 12 -35 38t-11 71v201q0 40 -14 58.5t-43 18.5h-33q-10 0 -10 10v28q0 10 10 10h49q49 0 71.5 -26.5t22.5 -85.5v-213q0 -42 12 -63.5t38 -26.5q9 -1 9 -10v-26
q0 -8 -9 -10q-26 -5 -38 -27t-12 -64v-219q0 -58 -22 -84.5t-72 -26.5h-49z" />
    <glyph glyph-name="asciitilde" unicode="~" horiz-adv-x="473" 
d="M278.5 248.5q-21.5 8.5 -51.5 26.5q-23 13 -39 19t-36 6q-49 0 -76 -42q-4 -9 -14 -3l-16 11q-8 6 -4 13q15 32 43 50.5t65 18.5q24 0 43.5 -7t41.5 -20q27 -16 47 -24.5t47 -8.5q21 0 34.5 10t30.5 30q6 8 14 3l19 -13q7 -6 3 -13q-40 -65 -100 -65q-30 0 -51.5 8.5z
" />
    <glyph glyph-name="uni00A0" unicode="&#xa0;" horiz-adv-x="200" 
 />
    <glyph glyph-name="exclamdown" unicode="&#xa1;" horiz-adv-x="279" 
d="M174.5 694q14.5 -14 14.5 -36t-14 -36t-36 -14t-36 14t-14 36t14 36t36 14q21 0 35.5 -14zM128 487h25q10 0 10 -10l4 -455q0 -10 -10 -10h-33q-10 0 -10 10l4 455q0 10 10 10z" />
    <glyph glyph-name="cent" unicode="&#xa2;" horiz-adv-x="455" 
d="M354 229q2 10 11 9l33 -2q4 0 6.5 -2.5t2.5 -6.5v-4l-1 -8q-1 -1 -1 -4q-7 -51 -47 -86.5t-101 -41.5q-4 0 -4 -4l1 -70q0 -10 -10 -10h-27q-10 0 -10 10v71q0 4 -4 5q-55 9 -90.5 46.5t-43.5 93.5q-7 48 -7 118q0 58 7 117q7 55 42.5 92.5t91.5 46.5q4 1 4 5l-1 70
q0 10 10 10h28q10 0 10 -10l-1 -69q0 -4 4 -4q60 -6 100.5 -42t47.5 -86l3 -18v-2q0 -7 -9 -9l-33 -2q-9 0 -11 9v5q0 4 -2 12q-7 36 -39 61.5t-78 25.5q-48 0 -79.5 -29.5t-36.5 -76.5t-5 -107q0 -62 5 -107q5 -48 36.5 -77t79.5 -29q49 0 81.5 27.5t36.5 66.5v6z" />
    <glyph glyph-name="sterling" unicode="&#xa3;" horiz-adv-x="552" 
d="M184 47.5q1 -1.5 3 -1.5h319q10 0 10 -10v-26q0 -10 -10 -10h-378q-10 0 -10 10v28q0 8 7 12q22 15 35 49t13 79v132q0 4 -4 4h-68q-10 0 -10 10v24q0 10 10 10h68q4 0 4 4v155q0 90 47.5 140.5t129.5 50.5q59 0 98.5 -32.5t56.5 -94.5l1 -4q0 -6 -8 -8l-31 -5h-3
q-6 0 -9 7q-25 91 -107 91q-59 0 -91 -37.5t-32 -105.5v-157q0 -4 4 -4h170q10 0 10 -10v-24q0 -10 -10 -10h-170q-4 0 -4 -4v-130q0 -41 -10.5 -74.5t-29.5 -54.5q-2 -2 -1 -3.5z" />
    <glyph glyph-name="currency" unicode="&#xa4;" horiz-adv-x="502" 
d="M402 186q-2 -3 1 -6l64 -64q3 -3 3 -6q0 -4 -4 -8l-20 -18q-3 -3 -6 -3q-4 0 -8 4l-63 62q-3 3 -6 1q-50 -39 -116 -39q-62 0 -112 36q-3 2 -6 -1l-59 -59q-3 -3 -7 -3.5t-7 2.5l-20 18q-7 8 -1 14l60 60q3 3 1 6q-42 53 -42 119q0 64 39 116q2 3 -1 6l-64 64q-3 3 -3 6
q0 4 4 8l20 18q3 3 6 3q4 0 8 -4l63 -63q3 -3 6 -1q50 39 115 39q67 0 120 -42q3 -2 6 1l66 66q3 3 7 3.5t7 -2.5l20 -18q8 -7 1 -14l-69 -69q-3 -3 -1 -6q37 -48 37 -111q0 -65 -39 -115zM121 228.5q20 -33.5 53.5 -53t72.5 -19.5q40 0 73.5 19.5t53 52.5t19.5 73
q0 39 -20 72.5t-53.5 53.5t-72.5 20t-72.5 -20t-53.5 -53.5t-20 -72.5t20 -72.5z" />
    <glyph glyph-name="yen" unicode="&#xa5;" horiz-adv-x="605" 
d="M501 696.5q2 -3.5 0 -8.5l-162 -342q-1 -2 0 -3.5t3 -1.5h128q10 0 10 -10v-15q0 -10 -10 -10h-138q-4 0 -4 -4v-81q0 -4 4 -4h138q10 0 10 -10v-15q0 -10 -10 -10h-138q-4 0 -4 -4v-168q0 -10 -10 -10h-33q-10 0 -10 10v168q0 4 -4 4h-138q-10 0 -10 10v15q0 10 10 10
h138q4 0 4 4v81q0 4 -4 4h-138q-10 0 -10 10v15q0 10 10 10h128q2 0 3 1.5t0 3.5l-163 342q-1 2 -1 5q0 7 8 7h35q8 0 11 -7l144 -311q1 -2 3 -2t3 2l144 311q3 7 11 7h35q5 0 7 -3.5z" />
    <glyph glyph-name="brokenbar" unicode="&#xa6;" horiz-adv-x="145" 
d="M46 401v349q0 10 10 10h33q10 0 10 -10v-349q0 -10 -10 -10h-33q-10 0 -10 10zM46 -70v345q0 10 10 10h33q10 0 10 -10v-345q0 -10 -10 -10h-33q-10 0 -10 10z" />
    <glyph glyph-name="section" unicode="&#xa7;" horiz-adv-x="409" 
d="M99 -163.5q-39 43.5 -39 115.5l-1 15q0 10 10 10h33q10 0 10 -10v-11q1 -52 26 -84t66 -32t67.5 32t26.5 79q0 38 -18 62.5t-41.5 37t-60.5 26.5q-40 14 -66 32t-42 49q-19 37 -19 87q0 54 25 95q27 46 73 59q6 2 1 5q-41 18 -67 58t-26 91q0 66 41 110.5t106 44.5
q63 0 103 -43.5t41 -112.5v-14q0 -10 -10 -10h-33q-10 0 -10 10v11q0 49 -25.5 80.5t-65.5 31.5q-42 0 -68 -32.5t-26 -80.5q0 -49 29 -78t87 -50q34 -13 58 -26.5t43 -39.5q30 -41 30 -101q0 -56 -23 -97q-25 -49 -73 -61q-3 0 -3 -1.5t2 -2.5q42 -19 66.5 -55.5
t24.5 -88.5q0 -67 -41.5 -110.5t-106.5 -43.5t-104 43.5zM288 177q16 32 16 72q0 49 -23 80q-31 40 -78 40q-28 0 -50 -15.5t-34 -39.5q-15 -31 -15 -69q0 -39 15 -68q27 -50 84 -50q59 0 85 50z" />
    <glyph glyph-name="dieresis" unicode="&#xa8;" horiz-adv-x="309" 
d="M195 620q-14 14 -14 36t14 36t36 14t36 -14t14 -36t-14 -36t-36 -14t-36 14zM42 620q-14 14 -14 36t14 36t36 14t36 -14t14 -36t-14 -36t-36 -14t-36 14z" />
    <glyph glyph-name="copyright" unicode="&#xa9;" horiz-adv-x="864" 
d="M246.5 39q-82.5 47 -129.5 129t-47 181q0 101 47 183t129.5 129t184.5 47q103 0 186 -47t130 -129t47 -183q0 -99 -47 -181t-130 -129t-186 -47q-102 0 -184.5 47zM596 72q74 42 116 115t42 162q0 90 -42 163.5t-115.5 115.5t-165.5 42q-91 0 -164.5 -42t-115.5 -115.5
t-42 -163.5q0 -89 42 -162t115.5 -115t164.5 -42t165 42zM363.5 200q-25.5 24 -25.5 64v169q0 40 25.5 64t68.5 24t69.5 -23.5t26.5 -63.5v-4q0 -10 -10 -10h-16q-10 0 -10 10v6q0 23 -16.5 38t-43.5 15t-43 -15t-16 -38v-175q0 -24 16.5 -38.5t42.5 -14.5q27 0 43.5 14.5
t16.5 38.5v6q0 10 10 10h16q10 0 10 -10v-4q0 -40 -26.5 -63.5t-69.5 -23.5t-68.5 24z" />
    <glyph glyph-name="ordfeminine" unicode="&#xaa;" horiz-adv-x="297" 
d="M212 562q4 0 4 4v29q0 36 -18 57.5t-54 21.5q-26 0 -45 -13t-24 -33q-1 -10 -11 -9l-19 1q-4 0 -7 3t-2 8q6 35 35.5 56t72.5 21q53 0 82 -30t29 -80v-218q0 -10 -10 -10h-19q-10 0 -10 10v20q0 2 -1.5 2.5t-3.5 -1.5q-27 -36 -86 -36q-43 0 -71.5 21.5t-28.5 71.5
q0 52 33.5 78t91.5 26h62zM191 416.5q25 19.5 25 54.5v55q0 4 -4 4h-61q-39 0 -63 -18.5t-24 -52.5q0 -31 18 -46.5t48 -15.5q36 0 61 19.5zM34 305h221q10 0 10 -10v-20q0 -10 -10 -10h-221q-10 0 -10 10v20q0 10 10 10z" />
    <glyph glyph-name="guillemotleft" unicode="&#xab;" horiz-adv-x="512" 
d="M265 113q0 -2 -2 -4t-6 -2h-30q-9 0 -13 6l-123 161q-2 3 -2 7t2 7l123 161q4 6 13 6h30q6 0 8 -3.5t-2 -8.5l-124 -159q-1 -3 0 -6l124 -159q2 -2 2 -6zM415 113q0 -2 -2 -4t-6 -2h-29q-9 0 -13 6l-124 161q-2 3 -2 7t2 7l124 161q4 6 13 6h29q6 0 8 -3.5t-2 -8.5
l-123 -159q-1 -3 0 -6l123 -159q2 -2 2 -6z" />
    <glyph glyph-name="logicalnot" unicode="&#xac;" horiz-adv-x="473" 
d="M435 330v-29v-6l-1 -2v-107q0 -10 -10 -10h-26q-10 0 -10 10v105q0 4 -4 4h-336q-10 0 -10 10v25q0 10 10 10h377q10 0 10 -10z" />
    <glyph glyph-name="uni00AD" unicode="&#xad;" horiz-adv-x="350" 
d="M38 301v27q0 10 10 10h254q10 0 10 -10v-27q0 -10 -10 -10h-254q-10 0 -10 10z" />
    <glyph glyph-name="registered" unicode="&#xae;" horiz-adv-x="446" 
d="M321 689q45 -26 71 -70t26 -97t-26 -97.5t-71 -70t-98 -25.5q-54 0 -98.5 25.5t-70.5 70t-26 97.5t26 97t70.5 70t98.5 26q53 0 98 -26zM305.5 381q37.5 22 59 59.5t21.5 81.5t-21.5 81.5t-59 59t-82.5 21.5t-82.5 -21.5t-59 -59t-21.5 -81.5t21.5 -81.5t59 -59.5
t82.5 -22t82.5 22zM277 529q-7 -12 -20 -17q-3 -1 -2 -5l27 -63l1 -4q0 -8 -9 -8h-9q-8 0 -11 8l-27 65q-1 3 -4 3h-19q-4 0 -4 -4v-62q0 -10 -10 -10h-7q-10 0 -10 10v158q0 10 10 10h50q23 0 37 -15t14 -38q0 -16 -7 -28zM200 582v-49q0 -4 4 -4h26q12 0 19.5 7.5
t7.5 20.5t-7.5 21t-19.5 8h-26q-4 0 -4 -4z" />
    <glyph glyph-name="macron" unicode="&#xaf;" horiz-adv-x="397" 
d="M83 608v21q0 10 10 10h210q10 0 10 -10v-21q0 -10 -10 -10h-210q-10 0 -10 10z" />
    <glyph glyph-name="degree" unicode="&#xb0;" horiz-adv-x="370" 
d="M106 514q-36 21 -57 57t-21 79q0 44 21 80t57 57t79 21t79 -21t57 -57t21 -80q0 -43 -21 -79t-57 -57t-79 -21t-79 21zM268 566q34 34 34 84t-34 84.5t-83 34.5t-83 -34.5t-34 -84.5q0 -49 34 -83.5t83 -34.5t83 34z" />
    <glyph glyph-name="plusminus" unicode="&#xb1;" horiz-adv-x="473" 
d="M435 353v-25q0 -10 -10 -10h-162q-4 0 -4 -4v-160q0 -10 -10 -10h-25q-10 0 -10 10v160q0 4 -4 4h-162q-10 0 -10 10v25q0 10 10 10h162q4 0 4 4v164q0 10 10 10h25q10 0 10 -10v-164q0 -4 4 -4h162q10 0 10 -10zM38 26v25q0 10 10 10h377q10 0 10 -10v-25q0 -10 -10 -10
h-377q-10 0 -10 10z" />
    <glyph glyph-name="uni00B2" unicode="&#xb2;" horiz-adv-x="280" 
d="M30 459v18q0 6 4 13q55 73 120 167q47 67 47 111q0 32 -18 51t-48 19q-29 0 -47 -19t-17 -51v-17q0 -10 -10 -10h-21q-10 0 -10 10v20q1 47 30 75t75 28q48 0 77.5 -29t29.5 -77q0 -52 -47 -124q-47 -70 -109 -155q-2 -5 3 -5h155q10 0 10 -10v-15q0 -10 -10 -10h-204
q-10 0 -10 10z" />
    <glyph glyph-name="uni00B3" unicode="&#xb3;" horiz-adv-x="290" 
d="M249 575q0 -41 -12 -68q-24 -64 -97 -64q-40 0 -67 23t-36 61q-4 16 -4 37q0 10 10 10h20q10 0 10 -10l3 -27q5 -27 22 -42.5t42 -15.5q41 0 59 38q10 27 10 60q0 38 -10 61q-15 42 -59 42q-5 0 -13 -2q-2 -1 -6 -1q-5 0 -8 4l-9 10q-6 6 -1 14l91 123q2 2 1 3.5t-3 1.5
h-147q-10 0 -10 10v15q0 10 10 10h191q10 0 10 -10v-18q0 -8 -4 -13l-83 -113q-2 -2 -1 -3.5t3 -1.5q53 -4 76 -63q12 -28 12 -71z" />
    <glyph glyph-name="acute" unicode="&#xb4;" horiz-adv-x="178" 
d="M34 574.5q-2 3.5 1 8.5l61 110q3 7 12 7h28q6 0 8 -3.5t-1 -8.5l-67 -110q-5 -7 -12 -7h-22q-6 0 -8 3.5z" />
    <glyph glyph-name="uni00B5" unicode="&#xb5;" horiz-adv-x="484" 
d="M364 504h33q10 0 10 -10v-484q0 -10 -10 -10h-33q-10 0 -10 10v43q0 3 -1.5 3t-3.5 -2q-18 -30 -49 -45.5t-72 -15.5q-55 0 -93 27q-5 3 -5 -2v-208q0 -10 -10 -10h-33q-10 0 -10 10v684q0 10 10 10h33q10 0 10 -10v-332q0 -58 29 -90t80 -32q53 0 84 34t31 92v328
q0 10 10 10z" />
    <glyph glyph-name="paragraph" unicode="&#xb6;" horiz-adv-x="511" 
d="M412 700q10 0 10 -10v-880q0 -10 -10 -10h-24q-10 0 -10 10v843q0 4 -4 4h-111q-4 0 -4 -4v-843q0 -10 -10 -10h-25q-10 0 -10 10v436q0 4 -4 4q-50 3 -89 33.5t-61 81t-22 110.5q0 63 24 114t67 81t97 30h186z" />
    <glyph glyph-name="periodcentered" unicode="&#xb7;" horiz-adv-x="196" 
d="M61 240q-14 14 -14 36t14 36t36 14t36 -14t14 -36t-14 -36t-36 -14t-36 14z" />
    <glyph glyph-name="cedilla" unicode="&#xb8;" horiz-adv-x="123" 
d="M3 -169l2 14q1 5 4.5 6.5t7.5 0.5q12 -2 17 -2q22 0 35.5 12t13.5 38q0 44 -46 88q-4 3 -4 7q0 5 8 5h16q8 0 13 -4q53 -46 53 -99q0 -44 -22.5 -62.5t-57.5 -18.5q-13 0 -33 4q-8 1 -7 11z" />
    <glyph glyph-name="uni00B9" unicode="&#xb9;" horiz-adv-x="162" 
d="M86 869h25q10 0 10 -10v-400q0 -10 -10 -10h-21q-10 0 -10 10v365q0 2 -1.5 3.5t-2.5 0.5l-42 -10l-4 -1q-7 0 -7 9v12q0 8 8 11l43 18q4 2 12 2z" />
    <glyph glyph-name="ordmasculine" unicode="&#xba;" horiz-adv-x="309" 
d="M80.5 391.5q-29.5 25.5 -36.5 68.5q-4 31 -4 77q0 44 3 77q6 43 36 68.5t76 25.5q45 0 75 -25.5t36 -68.5q4 -29 4 -77q0 -46 -4 -77q-5 -42 -35.5 -68t-75.5 -26t-74.5 25.5zM204 419.5q20 18.5 24 48.5q2 19 2 69t-2 69q-4 30 -23.5 48.5t-49.5 18.5t-49.5 -18.5
t-23.5 -48.5q-2 -19 -2 -69t2 -69q4 -30 23.5 -48.5t49.5 -18.5q29 0 49 18.5zM31 276v20q0 10 10 10h226q10 0 10 -10v-20q0 -10 -10 -10h-226q-10 0 -10 10z" />
    <glyph glyph-name="guillemotright" unicode="&#xbb;" horiz-adv-x="512" 
d="M97 110.5q-2 3.5 2 8.5l124 159q2 3 0 6l-124 159q-2 2 -2 6q0 2 2 4t6 2h30q9 0 13 -6l124 -161q2 -3 2 -7t-2 -7l-124 -161q-4 -6 -13 -6h-30q-6 0 -8 3.5zM247 110.5q-2 3.5 2 8.5l124 159q2 3 0 6l-124 159q-2 2 -2 6q0 2 2 4t6 2h30q9 0 13 -6l124 -161q2 -3 2 -7
t-2 -7l-124 -161q-4 -6 -13 -6h-30q-6 0 -8 3.5z" />
    <glyph glyph-name="onequarter" unicode="&#xbc;" horiz-adv-x="725" 
d="M86 700h25q10 0 10 -10v-400q0 -10 -10 -10h-21q-10 0 -10 10v365q0 2 -1.5 3.5t-2.5 0.5l-42 -10l-4 -1q-7 0 -7 9v12q0 8 8 11l43 18q4 2 12 2zM88.5 3.5q-1.5 3.5 1.5 8.5l434 681q5 7 12 7h21q6 0 7.5 -3.5t-1.5 -8.5l-434 -681q-5 -7 -12 -7h-21q-6 0 -7.5 3.5z
M693 142v-17q0 -10 -10 -10h-16q-4 0 -4 -4v-101q0 -10 -10 -10h-20q-10 0 -10 10v101q0 4 -4 4h-152q-10 0 -10 10v16q0 7 2 12l105 259q3 8 11 8h22q5 0 7.5 -3.5t0.5 -8.5l-101 -251q-1 -2 0 -3.5t3 -1.5h112q4 0 4 4v90q0 10 10 10h20q10 0 10 -10v-90q0 -4 4 -4h16
q10 0 10 -10z" />
    <glyph glyph-name="onehalf" unicode="&#xbd;" horiz-adv-x="726" 
d="M86 700h25q10 0 10 -10v-400q0 -10 -10 -10h-21q-10 0 -10 10v365q0 2 -1.5 3.5t-2.5 0.5l-42 -10l-4 -1q-7 0 -7 9v12q0 8 8 11l43 18q4 2 12 2zM88.5 3.5q-1.5 3.5 1.5 8.5l434 681q5 7 12 7h21q6 0 7.5 -3.5t-1.5 -8.5l-434 -681q-5 -7 -12 -7h-21q-6 0 -7.5 3.5z
M469 10v18q0 6 4 13q55 73 120 167q47 67 47 111q0 32 -18 51t-48 19q-29 0 -47 -19t-17 -51v-17q0 -10 -10 -10h-21q-10 0 -10 10v20q1 47 30 75t75 28q48 0 77.5 -29t29.5 -77q0 -52 -47 -124q-47 -70 -109 -155q-2 -5 3 -5h155q10 0 10 -10v-15q0 -10 -10 -10h-204
q-10 0 -10 10z" />
    <glyph glyph-name="threequarters" unicode="&#xbe;" horiz-adv-x="807" 
d="M249 410q0 -41 -12 -68q-24 -64 -97 -64q-40 0 -67 23t-36 61q-4 16 -4 37q0 10 10 10h20q10 0 10 -10l3 -27q5 -27 22 -42.5t42 -15.5q41 0 59 38q10 27 10 60q0 38 -10 61q-15 42 -59 42q-5 0 -13 -2q-2 -1 -6 -1q-5 0 -8 4l-9 10q-6 6 -1 14l91 123q2 2 1 3.5t-3 1.5
h-147q-10 0 -10 10v15q0 10 10 10h191q10 0 10 -10v-18q0 -8 -4 -13l-83 -113q-2 -2 -1 -3.5t3 -1.5q53 -4 76 -63q12 -28 12 -71zM172.5 3.5q-1.5 3.5 1.5 8.5l434 681q5 7 12 7h21q6 0 7.5 -3.5t-1.5 -8.5l-434 -681q-5 -7 -12 -7h-21q-6 0 -7.5 3.5zM777 142v-17
q0 -10 -10 -10h-16q-4 0 -4 -4v-101q0 -10 -10 -10h-20q-10 0 -10 10v101q0 4 -4 4h-152q-10 0 -10 10v16q0 7 2 12l105 259q3 8 11 8h22q5 0 7.5 -3.5t0.5 -8.5l-101 -251q-1 -2 0 -3.5t3 -1.5h112q4 0 4 4v90q0 10 10 10h20q10 0 10 -10v-90q0 -4 4 -4h16q10 0 10 -10z
" />
    <glyph glyph-name="questiondown" unicode="&#xbf;" horiz-adv-x="398" 
d="M251 483q14 -14 14 -36t-14 -36t-36 -14t-36 14t-14 36t14 36t36 14t36 -14zM242 295v-65q0 -41 -18 -67.5t-54 -59.5q-39 -35 -58.5 -64.5t-19.5 -77.5q0 -55 29.5 -88t77.5 -33q49 0 79.5 33.5t30.5 88.5v34q0 10 10 10l33 -2q10 0 10 -10v-32q0 -77 -45.5 -124
t-118.5 -47q-72 0 -115.5 46.5t-43.5 124.5q0 44 12.5 75.5t30.5 52.5t46 46q31 28 45.5 48t14.5 49v62q0 10 10 10h34q10 0 10 -10z" />
    <glyph glyph-name="Agrave" unicode="&#xc0;" horiz-adv-x="491" 
d="M412 9l-36 132q-1 3 -5 3h-252q-4 0 -5 -3l-35 -132q-2 -9 -11 -9h-34q-5 0 -7.5 3t-1.5 8l188 681q2 8 11 8h42q9 0 11 -8l188 -681l1 -3q0 -8 -10 -8h-33q-9 0 -11 9zM128.5 189.5q1.5 -1.5 3.5 -1.5h226q2 0 3.5 1.5t0.5 2.5l-115 430q-1 2 -2.5 2t-2.5 -2l-114 -430
q-1 -1 0.5 -2.5zM263 773q0 -6 -9 -6h-21q-7 0 -12 7l-68 110q-2 4 -2 6q0 6 9 6h28q8 0 12 -7l61 -110q2 -4 2 -6z" />
    <glyph glyph-name="Aacute" unicode="&#xc1;" horiz-adv-x="491" 
d="M412 9l-36 132q-1 3 -5 3h-252q-4 0 -5 -3l-35 -132q-2 -9 -11 -9h-34q-5 0 -7.5 3t-1.5 8l188 681q2 8 11 8h42q9 0 11 -8l188 -681l1 -3q0 -8 -10 -8h-33q-9 0 -11 9zM128.5 189.5q1.5 -1.5 3.5 -1.5h226q2 0 3.5 1.5t0.5 2.5l-115 430q-1 2 -2.5 2t-2.5 -2l-114 -430
q-1 -1 0.5 -2.5zM209 770.5q-2 3.5 1 8.5l61 110q3 7 12 7h28q6 0 8 -3.5t-1 -8.5l-67 -110q-5 -7 -12 -7h-22q-6 0 -8 3.5z" />
    <glyph glyph-name="Acircumflex" unicode="&#xc2;" horiz-adv-x="491" 
d="M412 9l-36 132q-1 3 -5 3h-252q-4 0 -5 -3l-35 -132q-2 -9 -11 -9h-34q-5 0 -7.5 3t-1.5 8l188 681q2 8 11 8h42q9 0 11 -8l188 -681l1 -3q0 -8 -10 -8h-33q-9 0 -11 9zM128.5 189.5q1.5 -1.5 3.5 -1.5h226q2 0 3.5 1.5t0.5 2.5l-115 430q-1 2 -2.5 2t-2.5 -2l-114 -430
q-1 -1 0.5 -2.5zM135.5 777q-2.5 4 1.5 8l74 105q4 6 12 6h40q8 0 12 -6l75 -105q2 -2 2 -6q0 -2 -2 -4t-6 -2h-29q-8 0 -12 6l-56 82q-1 2 -3 2t-3 -2l-57 -82q-4 -6 -12 -6h-28q-6 0 -8.5 4z" />
    <glyph glyph-name="Atilde" unicode="&#xc3;" horiz-adv-x="491" 
d="M412 9l-36 132q-1 3 -5 3h-252q-4 0 -5 -3l-35 -132q-2 -9 -11 -9h-34q-5 0 -7.5 3t-1.5 8l188 681q2 8 11 8h42q9 0 11 -8l188 -681l1 -3q0 -8 -10 -8h-33q-9 0 -11 9zM128.5 189.5q1.5 -1.5 3.5 -1.5h226q2 0 3.5 1.5t0.5 2.5l-115 430q-1 2 -2.5 2t-2.5 -2l-114 -430
q-1 -1 0.5 -2.5zM249 831q-3 2 -13 8.5t-18 9.5t-16 3q-16 0 -27.5 -6t-23.5 -21q-6 -9 -14 -3l-12 9q-8 6 -2 14q28 47 76 47q16 0 29 -5.5t30 -16.5q3 -2 13 -8.5t18.5 -10t16.5 -3.5q15 0 27 6.5t23 23.5q2 4 6 5t8 -2l12 -9q4 -3 4 -7q0 -5 -3 -11q-15 -23 -36 -34
t-42 -11q-26 0 -56 22z" />
    <glyph glyph-name="Adieresis" unicode="&#xc4;" horiz-adv-x="491" 
d="M412 9l-36 132q-1 3 -5 3h-252q-4 0 -5 -3l-35 -132q-2 -9 -11 -9h-34q-5 0 -7.5 3t-1.5 8l188 681q2 8 11 8h42q9 0 11 -8l188 -681l1 -3q0 -8 -10 -8h-33q-9 0 -11 9zM128.5 189.5q1.5 -1.5 3.5 -1.5h226q2 0 3.5 1.5t0.5 2.5l-115 430q-1 2 -2.5 2t-2.5 -2l-114 -430
q-1 -1 0.5 -2.5zM285 816q-14 14 -14 36t14 36t36 14t36 -14t14 -36t-14 -36t-36 -14t-36 14zM132 816q-14 14 -14 36t14 36t36 14t36 -14t14 -36t-14 -36t-36 -14t-36 14z" />
    <glyph glyph-name="Aring" unicode="&#xc5;" horiz-adv-x="491" 
d="M412 9l-36 132q-1 3 -5 3h-252q-4 0 -5 -3l-35 -132q-2 -9 -11 -9h-34q-5 0 -7.5 3t-1.5 8l188 681q2 8 11 8h42q9 0 11 -8l188 -681l1 -3q0 -8 -10 -8h-33q-9 0 -11 9zM128.5 189.5q1.5 -1.5 3.5 -1.5h226q2 0 3.5 1.5t0.5 2.5l-115 430q-1 2 -2.5 2t-2.5 -2l-114 -430
q-1 -1 0.5 -2.5zM172 809q-30 30 -30 74t30 74t73 30q44 0 74 -30t30 -74t-30 -74t-74 -30q-43 0 -73 30zM294 834q20 20 20 49t-20 49t-49 20q-28 0 -48 -20t-20 -49t20 -49t48 -20q29 0 49 20z" />
    <glyph glyph-name="AE" unicode="&#xc6;" horiz-adv-x="798" 
d="M734 653h-291q-4 0 -4 -4v-271q0 -4 4 -4h194q10 0 10 -10v-27q0 -10 -10 -10h-194q-4 0 -4 -4v-272q0 -4 4 -4h291q10 0 10 -10v-27q0 -10 -10 -10h-339q-10 0 -10 10v130q0 4 -4 4h-229q-2 0 -4 -3l-65 -134q-3 -7 -12 -7h-36q-5 0 -7 3.5t0 8.5l331 681q3 7 12 7h363
q10 0 10 -10v-27q0 -10 -10 -10zM175 188h206q4 0 4 4l1 432q0 3 -1.5 3t-3.5 -2l-209 -432q-2 -5 3 -5z" />
    <glyph glyph-name="Ccedilla" unicode="&#xc7;" horiz-adv-x="524" 
d="M458 502q-3 -3 -7 -3l-33 -2q-10 0 -10 10v14q0 63 -39.5 101.5t-103.5 38.5t-103 -38.5t-39 -101.5v-341q0 -64 39 -102.5t103 -38.5q65 0 104 38.5t39 102.5v12q0 10 10 10l33 -2q10 0 10 -10v-8q0 -84 -50.5 -135t-134.5 -55q-5 0 -2 -5q47 -41 47 -92q0 -15 -2 -22
q-7 -31 -28.5 -45t-50.5 -14q-12 0 -32 4q-8 1 -7 11l2 14q1 5 4.5 6.5t7.5 0.5q12 -2 17 -2q19 0 31.5 9.5t15.5 30.5q1 4 1 13q0 45 -54 92q-1 2 -5 2q-69 13 -110 63t-41 125v335q0 86 53.5 138t141.5 52q89 0 142.5 -52t53.5 -137v-9q0 -5 -3 -8z" />
    <glyph glyph-name="Egrave" unicode="&#xc8;" horiz-adv-x="519" 
d="M455 653h-307q-4 0 -4 -4v-271q0 -4 4 -4h210q10 0 10 -10v-27q0 -10 -10 -10h-210q-4 0 -4 -4v-272q0 -4 4 -4h307q10 0 10 -10v-27q0 -10 -10 -10h-354q-10 0 -10 10v680q0 10 10 10h354q10 0 10 -10v-27q0 -10 -10 -10zM294 773q0 -6 -9 -6h-21q-7 0 -12 7l-68 110
q-2 4 -2 6q0 6 9 6h28q8 0 12 -7l61 -110q2 -4 2 -6z" />
    <glyph glyph-name="Eacute" unicode="&#xc9;" horiz-adv-x="519" 
d="M455 653h-307q-4 0 -4 -4v-271q0 -4 4 -4h210q10 0 10 -10v-27q0 -10 -10 -10h-210q-4 0 -4 -4v-272q0 -4 4 -4h307q10 0 10 -10v-27q0 -10 -10 -10h-354q-10 0 -10 10v680q0 10 10 10h354q10 0 10 -10v-27q0 -10 -10 -10zM240 770.5q-2 3.5 1 8.5l61 110q3 7 12 7h28
q6 0 8 -3.5t-1 -8.5l-67 -110q-5 -7 -12 -7h-22q-6 0 -8 3.5z" />
    <glyph glyph-name="Ecircumflex" unicode="&#xca;" horiz-adv-x="519" 
d="M455 653h-307q-4 0 -4 -4v-271q0 -4 4 -4h210q10 0 10 -10v-27q0 -10 -10 -10h-210q-4 0 -4 -4v-272q0 -4 4 -4h307q10 0 10 -10v-27q0 -10 -10 -10h-354q-10 0 -10 10v680q0 10 10 10h354q10 0 10 -10v-27q0 -10 -10 -10zM166.5 777q-2.5 4 1.5 8l74 105q4 6 12 6h40
q8 0 12 -6l75 -105q2 -2 2 -6q0 -2 -2 -4t-6 -2h-29q-8 0 -12 6l-56 82q-1 2 -3 2t-3 -2l-57 -82q-4 -6 -12 -6h-28q-6 0 -8.5 4z" />
    <glyph glyph-name="Edieresis" unicode="&#xcb;" horiz-adv-x="519" 
d="M455 653h-307q-4 0 -4 -4v-271q0 -4 4 -4h210q10 0 10 -10v-27q0 -10 -10 -10h-210q-4 0 -4 -4v-272q0 -4 4 -4h307q10 0 10 -10v-27q0 -10 -10 -10h-354q-10 0 -10 10v680q0 10 10 10h354q10 0 10 -10v-27q0 -10 -10 -10zM316 816q-14 14 -14 36t14 36t36 14t36 -14
t14 -36t-14 -36t-36 -14t-36 14zM163 816q-14 14 -14 36t14 36t36 14t36 -14t14 -36t-14 -36t-36 -14t-36 14z" />
    <glyph glyph-name="Igrave" unicode="&#xcc;" horiz-adv-x="234" 
d="M91 10v680q0 10 10 10h33q10 0 10 -10v-680q0 -10 -10 -10h-33q-10 0 -10 10zM136 773q0 -6 -9 -6h-21q-7 0 -12 7l-68 110q-2 4 -2 6q0 6 9 6h28q8 0 12 -7l61 -110q2 -4 2 -6z" />
    <glyph glyph-name="Iacute" unicode="&#xcd;" horiz-adv-x="234" 
d="M91 10v680q0 10 10 10h33q10 0 10 -10v-680q0 -10 -10 -10h-33q-10 0 -10 10zM82 770.5q-2 3.5 1 8.5l61 110q3 7 12 7h28q6 0 8 -3.5t-1 -8.5l-67 -110q-5 -7 -12 -7h-22q-6 0 -8 3.5z" />
    <glyph glyph-name="Icircumflex" unicode="&#xce;" horiz-adv-x="234" 
d="M91 10v680q0 10 10 10h33q10 0 10 -10v-680q0 -10 -10 -10h-33q-10 0 -10 10zM7.5 777q-2.5 4 1.5 8l74 105q4 6 12 6h40q8 0 12 -6l75 -105q2 -2 2 -6q0 -2 -2 -4t-6 -2h-29q-8 0 -12 6l-56 82q-1 2 -3 2t-3 -2l-57 -82q-4 -6 -12 -6h-28q-6 0 -8.5 4z" />
    <glyph glyph-name="Idieresis" unicode="&#xcf;" horiz-adv-x="234" 
d="M91 10v680q0 10 10 10h33q10 0 10 -10v-680q0 -10 -10 -10h-33q-10 0 -10 10zM158 816q-14 14 -14 36t14 36t36 14t36 -14t14 -36t-14 -36t-36 -14t-36 14zM5 816q-14 14 -14 36t14 36t36 14t36 -14t14 -36t-14 -36t-36 -14t-36 14z" />
    <glyph glyph-name="Eth" unicode="&#xd0;" horiz-adv-x="598" 
d="M481.5 650q49.5 -50 49.5 -136v-328q0 -86 -49.5 -136t-133.5 -50h-190q-10 0 -10 10v332q0 4 -4 4h-43q-10 0 -10 10v19q0 10 10 10h43q4 0 4 4v301q0 10 10 10h190q84 0 133.5 -50zM478 510q0 67 -34.5 105t-94.5 38h-144q-4 0 -4 -4v-260q0 -4 4 -4h106q10 0 10 -10
v-19q0 -10 -10 -10h-106q-4 0 -4 -4v-291q0 -4 4 -4h144q59 0 94 38.5t35 103.5v321z" />
    <glyph glyph-name="Ntilde" unicode="&#xd1;" horiz-adv-x="584" 
d="M450 700h33q10 0 10 -10v-680q0 -10 -10 -10h-36q-9 0 -12 7l-287 574q-2 2 -3.5 1.5t-1.5 -3.5v-569q0 -10 -10 -10h-33q-10 0 -10 10v680q0 10 10 10h36q9 0 12 -7l287 -572q2 -2 3.5 -1.5t1.5 3.5v567q0 10 10 10zM296 835q-3 2 -13 8.5t-18 9.5t-16 3q-16 0 -27.5 -6
t-23.5 -21q-6 -9 -14 -3l-12 9q-8 6 -2 14q28 47 76 47q16 0 29 -5.5t30 -16.5q3 -2 13 -8.5t18.5 -10t16.5 -3.5q15 0 27 6.5t23 23.5q2 4 6 5t8 -2l12 -9q4 -3 4 -7q0 -5 -3 -11q-15 -23 -36 -34t-42 -11q-26 0 -56 22z" />
    <glyph glyph-name="Ograve" unicode="&#xd2;" horiz-adv-x="537" 
d="M124 46.5q-54 54.5 -54 143.5v320q0 58 24.5 103t69.5 70t103 25q59 0 104.5 -25t70.5 -70t25 -103v-320q0 -59 -25 -104t-70.5 -69.5t-104.5 -24.5q-89 0 -143 54.5zM373.5 80q40.5 41 40.5 107v324q0 67 -40.5 108.5t-106.5 41.5q-65 0 -104.5 -41.5t-39.5 -108.5v-324
q0 -66 40 -107t104 -41q66 0 106.5 41zM286 773q0 -6 -9 -6h-21q-7 0 -12 7l-68 110q-2 4 -2 6q0 6 9 6h28q8 0 12 -7l61 -110q2 -4 2 -6z" />
    <glyph glyph-name="Oacute" unicode="&#xd3;" horiz-adv-x="537" 
d="M124 46.5q-54 54.5 -54 143.5v320q0 58 24.5 103t69.5 70t103 25q59 0 104.5 -25t70.5 -70t25 -103v-320q0 -59 -25 -104t-70.5 -69.5t-104.5 -24.5q-89 0 -143 54.5zM373.5 80q40.5 41 40.5 107v324q0 67 -40.5 108.5t-106.5 41.5q-65 0 -104.5 -41.5t-39.5 -108.5v-324
q0 -66 40 -107t104 -41q66 0 106.5 41zM232 770.5q-2 3.5 1 8.5l61 110q3 7 12 7h28q6 0 8 -3.5t-1 -8.5l-67 -110q-5 -7 -12 -7h-22q-6 0 -8 3.5z" />
    <glyph glyph-name="Ocircumflex" unicode="&#xd4;" horiz-adv-x="537" 
d="M124 46.5q-54 54.5 -54 143.5v320q0 58 24.5 103t69.5 70t103 25q59 0 104.5 -25t70.5 -70t25 -103v-320q0 -59 -25 -104t-70.5 -69.5t-104.5 -24.5q-89 0 -143 54.5zM373.5 80q40.5 41 40.5 107v324q0 67 -40.5 108.5t-106.5 41.5q-65 0 -104.5 -41.5t-39.5 -108.5v-324
q0 -66 40 -107t104 -41q66 0 106.5 41zM158.5 777q-2.5 4 1.5 8l74 105q4 6 12 6h40q8 0 12 -6l75 -105q2 -2 2 -6q0 -2 -2 -4t-6 -2h-29q-8 0 -12 6l-56 82q-1 2 -3 2t-3 -2l-57 -82q-4 -6 -12 -6h-28q-6 0 -8.5 4z" />
    <glyph glyph-name="Otilde" unicode="&#xd5;" horiz-adv-x="537" 
d="M124 46.5q-54 54.5 -54 143.5v320q0 58 24.5 103t69.5 70t103 25q59 0 104.5 -25t70.5 -70t25 -103v-320q0 -59 -25 -104t-70.5 -69.5t-104.5 -24.5q-89 0 -143 54.5zM373.5 80q40.5 41 40.5 107v324q0 67 -40.5 108.5t-106.5 41.5q-65 0 -104.5 -41.5t-39.5 -108.5v-324
q0 -66 40 -107t104 -41q66 0 106.5 41zM272 831q-3 2 -13 8.5t-18 9.5t-16 3q-16 0 -27.5 -6t-23.5 -21q-6 -9 -14 -3l-12 9q-8 6 -2 14q28 47 76 47q16 0 29 -5.5t30 -16.5q3 -2 13 -8.5t18.5 -10t16.5 -3.5q15 0 27 6.5t23 23.5q2 4 6 5t8 -2l12 -9q4 -3 4 -7q0 -5 -3 -11
q-15 -23 -36 -34t-42 -11q-26 0 -56 22z" />
    <glyph glyph-name="Odieresis" unicode="&#xd6;" horiz-adv-x="537" 
d="M124 46.5q-54 54.5 -54 143.5v320q0 58 24.5 103t69.5 70t103 25q59 0 104.5 -25t70.5 -70t25 -103v-320q0 -59 -25 -104t-70.5 -69.5t-104.5 -24.5q-89 0 -143 54.5zM373.5 80q40.5 41 40.5 107v324q0 67 -40.5 108.5t-106.5 41.5q-65 0 -104.5 -41.5t-39.5 -108.5v-324
q0 -66 40 -107t104 -41q66 0 106.5 41zM308 816q-14 14 -14 36t14 36t36 14t36 -14t14 -36t-14 -36t-36 -14t-36 14zM155 816q-14 14 -14 36t14 36t36 14t36 -14t14 -36t-14 -36t-36 -14t-36 14z" />
    <glyph glyph-name="multiply" unicode="&#xd7;" horiz-adv-x="389" 
d="M347 441q0 -4 -3 -7l-115 -115q-3 -3 0 -6l114 -114q3 -3 3 -7t-3 -7l-17 -17q-3 -3 -7 -3t-7 3l-114 114q-3 3 -6 0l-114 -115q-3 -3 -7 -3t-7 3l-18 17q-3 3 -3 7t3 7l115 115q3 3 0 6l-116 116q-3 3 -3 7t3 7l17 17q3 3 7 3t7 -3l116 -116q3 -3 6 0l115 115q3 3 7 3
t7 -3l17 -17q3 -3 3 -7z" />
    <glyph glyph-name="Oslash" unicode="&#xd8;" horiz-adv-x="558" 
d="M476 694l-37 -70q-1 -2 1 -6q27 -45 27 -108v-320q0 -89 -55 -143.5t-144 -54.5q-80 0 -133 45q-3 4 -5 -1l-29 -55q-2 -4 -6 -5t-8 1l-23 13q-4 2 -4.5 6t1.5 8l38 71q1 2 -1 6q-28 47 -28 109v320q0 58 25 103t70 70t103 25q81 0 135 -46q4 -3 5 1l29 55q2 4 6 5t8 -2
l21 -14q8 -6 4 -13zM128 143q1 -2 3 -2.5t3 2.5l245 465q2 3 0 6q-41 47 -111 47q-65 0 -105 -41.5t-40 -108.5v-324q0 -21 5 -44zM409 556q-1 2 -3 2.5t-3 -2.5l-244 -466q-1 -3 0 -6q19 -21 47 -33t62 -12q65 0 105.5 41t40.5 107v324q0 22 -5 45z" />
    <glyph glyph-name="Ugrave" unicode="&#xd9;" horiz-adv-x="564" 
d="M178 17.5q-45 25.5 -69.5 72t-24.5 107.5v493q0 10 10 10h33q10 0 10 -10v-497q0 -69 39.5 -111.5t105.5 -42.5q65 0 105 42.5t40 111.5v497q0 10 10 10h33q10 0 10 -10v-493q0 -61 -24.5 -107.5t-69.5 -72t-104 -25.5t-104 25.5zM300 773q0 -6 -9 -6h-21q-7 0 -12 7
l-68 110q-2 4 -2 6q0 6 9 6h28q8 0 12 -7l61 -110q2 -4 2 -6z" />
    <glyph glyph-name="Uacute" unicode="&#xda;" horiz-adv-x="564" 
d="M178 17.5q-45 25.5 -69.5 72t-24.5 107.5v493q0 10 10 10h33q10 0 10 -10v-497q0 -69 39.5 -111.5t105.5 -42.5q65 0 105 42.5t40 111.5v497q0 10 10 10h33q10 0 10 -10v-493q0 -61 -24.5 -107.5t-69.5 -72t-104 -25.5t-104 25.5zM246 770.5q-2 3.5 1 8.5l61 110
q3 7 12 7h28q6 0 8 -3.5t-1 -8.5l-67 -110q-5 -7 -12 -7h-22q-6 0 -8 3.5z" />
    <glyph glyph-name="Ucircumflex" unicode="&#xdb;" horiz-adv-x="564" 
d="M178 17.5q-45 25.5 -69.5 72t-24.5 107.5v493q0 10 10 10h33q10 0 10 -10v-497q0 -69 39.5 -111.5t105.5 -42.5q65 0 105 42.5t40 111.5v497q0 10 10 10h33q10 0 10 -10v-493q0 -61 -24.5 -107.5t-69.5 -72t-104 -25.5t-104 25.5zM172.5 777q-2.5 4 1.5 8l74 105
q4 6 12 6h40q8 0 12 -6l75 -105q2 -2 2 -6q0 -2 -2 -4t-6 -2h-29q-8 0 -12 6l-56 82q-1 2 -3 2t-3 -2l-57 -82q-4 -6 -12 -6h-28q-6 0 -8.5 4z" />
    <glyph glyph-name="Udieresis" unicode="&#xdc;" horiz-adv-x="564" 
d="M178 17.5q-45 25.5 -69.5 72t-24.5 107.5v493q0 10 10 10h33q10 0 10 -10v-497q0 -69 39.5 -111.5t105.5 -42.5q65 0 105 42.5t40 111.5v497q0 10 10 10h33q10 0 10 -10v-493q0 -61 -24.5 -107.5t-69.5 -72t-104 -25.5t-104 25.5zM322 816q-14 14 -14 36t14 36t36 14
t36 -14t14 -36t-14 -36t-36 -14t-36 14zM169 816q-14 14 -14 36t14 36t36 14t36 -14t14 -36t-14 -36t-36 -14t-36 14z" />
    <glyph glyph-name="Yacute" unicode="&#xdd;" horiz-adv-x="483" 
d="M215 10v309q0 4 -1 5l-173 364q-1 2 -1 5q0 7 8 7h35q8 0 11 -7l145 -311q1 -2 3 -2t3 2l143 311q3 7 11 7h35q5 0 7 -3.5t0 -8.5l-172 -364q-1 -1 -1 -5v-309q0 -10 -10 -10h-33q-10 0 -10 10zM206 770.5q-2 3.5 1 8.5l61 110q3 7 12 7h28q6 0 8 -3.5t-1 -8.5l-67 -110
q-5 -7 -12 -7h-22q-6 0 -8 3.5z" />
    <glyph glyph-name="Thorn" unicode="&#xde;" horiz-adv-x="500" 
d="M414.5 486.5q47.5 -52.5 47.5 -137.5q0 -84 -47.5 -135.5t-124.5 -51.5h-146q-4 0 -4 -4v-148q0 -10 -10 -10h-33q-10 0 -10 10v680q0 10 10 10h33q10 0 10 -10v-147q0 -4 4 -4h146q77 0 124.5 -52.5zM374.5 246q34.5 39 34.5 103q0 65 -34.5 104t-90.5 39h-140
q-4 0 -4 -4v-277q0 -4 4 -4h140q56 0 90.5 39z" />
    <glyph glyph-name="germandbls" unicode="&#xdf;" horiz-adv-x="488" 
d="M77 10v507q0 90 45.5 141t123.5 51q80 0 126.5 -51.5t46.5 -138.5q0 -53 -21.5 -91.5t-58.5 -55.5q-2 -1 -2 -2t2 -2q40 -19 63 -65t23 -110q0 -91 -49 -142t-138 -51h-52q-10 0 -10 10v26q0 10 10 10l55 1q63 0 97.5 39t34.5 111q0 71 -30.5 110t-86.5 41h-49
q-10 0 -10 10v24q0 10 10 10h50q52 0 80.5 33.5t28.5 93.5q0 68 -31.5 105.5t-87.5 37.5q-54 0 -85.5 -37t-31.5 -104v-511q0 -10 -10 -10h-33q-10 0 -10 10z" />
    <glyph glyph-name="agrave" unicode="&#xe0;" 
d="M348.5 467q42.5 -45 42.5 -122v-335q0 -10 -10 -10h-33q-10 0 -10 10v41q0 2 -1.5 2.5t-3.5 -1.5q-22 -30 -58 -45t-79 -15q-62 0 -105 33t-43 108q0 79 50 119.5t137 40.5h99q4 0 4 4v46q0 56 -28 89t-82 33q-43 0 -72 -21.5t-35 -56.5q-1 -9 -11 -9l-36 2q-5 0 -7.5 3
t-1.5 7q7 55 52.5 88.5t111.5 33.5q77 0 119.5 -45zM298.5 68.5q39.5 29.5 39.5 83.5v94q0 4 -4 4h-96q-62 0 -99.5 -29.5t-37.5 -84.5q0 -49 29 -73t75 -24q54 0 93.5 29.5zM246 577q0 -6 -9 -6h-21q-7 0 -12 7l-68 110q-2 4 -2 6q0 6 9 6h28q8 0 12 -7l61 -110q2 -4 2 -6z
" />
    <glyph glyph-name="aacute" unicode="&#xe1;" 
d="M348.5 467q42.5 -45 42.5 -122v-335q0 -10 -10 -10h-33q-10 0 -10 10v41q0 2 -1.5 2.5t-3.5 -1.5q-22 -30 -58 -45t-79 -15q-62 0 -105 33t-43 108q0 79 50 119.5t137 40.5h99q4 0 4 4v46q0 56 -28 89t-82 33q-43 0 -72 -21.5t-35 -56.5q-1 -9 -11 -9l-36 2q-5 0 -7.5 3
t-1.5 7q7 55 52.5 88.5t111.5 33.5q77 0 119.5 -45zM298.5 68.5q39.5 29.5 39.5 83.5v94q0 4 -4 4h-96q-62 0 -99.5 -29.5t-37.5 -84.5q0 -49 29 -73t75 -24q54 0 93.5 29.5zM192 574.5q-2 3.5 1 8.5l61 110q3 7 12 7h28q6 0 8 -3.5t-1 -8.5l-67 -110q-5 -7 -12 -7h-22
q-6 0 -8 3.5z" />
    <glyph glyph-name="acircumflex" unicode="&#xe2;" 
d="M348.5 467q42.5 -45 42.5 -122v-335q0 -10 -10 -10h-33q-10 0 -10 10v41q0 2 -1.5 2.5t-3.5 -1.5q-22 -30 -58 -45t-79 -15q-62 0 -105 33t-43 108q0 79 50 119.5t137 40.5h99q4 0 4 4v46q0 56 -28 89t-82 33q-43 0 -72 -21.5t-35 -56.5q-1 -9 -11 -9l-36 2q-5 0 -7.5 3
t-1.5 7q7 55 52.5 88.5t111.5 33.5q77 0 119.5 -45zM298.5 68.5q39.5 29.5 39.5 83.5v94q0 4 -4 4h-96q-62 0 -99.5 -29.5t-37.5 -84.5q0 -49 29 -73t75 -24q54 0 93.5 29.5zM117.5 581q-2.5 4 1.5 8l74 105q4 6 12 6h40q8 0 12 -6l75 -105q2 -2 2 -6q0 -2 -2 -4t-6 -2h-29
q-8 0 -12 6l-56 82q-1 2 -3 2t-3 -2l-57 -82q-4 -6 -12 -6h-28q-6 0 -8.5 4z" />
    <glyph glyph-name="atilde" unicode="&#xe3;" 
d="M348.5 467q42.5 -45 42.5 -122v-335q0 -10 -10 -10h-33q-10 0 -10 10v41q0 2 -1.5 2.5t-3.5 -1.5q-22 -30 -58 -45t-79 -15q-62 0 -105 33t-43 108q0 79 50 119.5t137 40.5h99q4 0 4 4v46q0 56 -28 89t-82 33q-43 0 -72 -21.5t-35 -56.5q-1 -9 -11 -9l-36 2q-5 0 -7.5 3
t-1.5 7q7 55 52.5 88.5t111.5 33.5q77 0 119.5 -45zM298.5 68.5q39.5 29.5 39.5 83.5v94q0 4 -4 4h-96q-62 0 -99.5 -29.5t-37.5 -84.5q0 -49 29 -73t75 -24q54 0 93.5 29.5zM232 635q-3 2 -13 8.5t-18 9.5t-16 3q-16 0 -27.5 -6t-23.5 -21q-6 -9 -14 -3l-12 9q-8 6 -2 14
q28 47 76 47q16 0 29 -5.5t30 -16.5q3 -2 13 -8.5t18.5 -10t16.5 -3.5q15 0 27 6.5t23 23.5q2 4 6 5t8 -2l12 -9q4 -3 4 -7q0 -5 -3 -11q-15 -23 -36 -34t-42 -11q-26 0 -56 22z" />
    <glyph glyph-name="adieresis" unicode="&#xe4;" 
d="M348.5 467q42.5 -45 42.5 -122v-335q0 -10 -10 -10h-33q-10 0 -10 10v41q0 2 -1.5 2.5t-3.5 -1.5q-22 -30 -58 -45t-79 -15q-62 0 -105 33t-43 108q0 79 50 119.5t137 40.5h99q4 0 4 4v46q0 56 -28 89t-82 33q-43 0 -72 -21.5t-35 -56.5q-1 -9 -11 -9l-36 2q-5 0 -7.5 3
t-1.5 7q7 55 52.5 88.5t111.5 33.5q77 0 119.5 -45zM298.5 68.5q39.5 29.5 39.5 83.5v94q0 4 -4 4h-96q-62 0 -99.5 -29.5t-37.5 -84.5q0 -49 29 -73t75 -24q54 0 93.5 29.5zM268 620q-14 14 -14 36t14 36t36 14t36 -14t14 -36t-14 -36t-36 -14t-36 14zM115 620
q-14 14 -14 36t14 36t36 14t36 -14t14 -36t-14 -36t-36 -14t-36 14z" />
    <glyph glyph-name="aring" unicode="&#xe5;" 
d="M348.5 467q42.5 -45 42.5 -122v-335q0 -10 -10 -10h-33q-10 0 -10 10v41q0 2 -1.5 2.5t-3.5 -1.5q-22 -30 -58 -45t-79 -15q-62 0 -105 33t-43 108q0 79 50 119.5t137 40.5h99q4 0 4 4v46q0 56 -28 89t-82 33q-43 0 -72 -21.5t-35 -56.5q-1 -9 -11 -9l-36 2q-5 0 -7.5 3
t-1.5 7q7 55 52.5 88.5t111.5 33.5q77 0 119.5 -45zM298.5 68.5q39.5 29.5 39.5 83.5v94q0 4 -4 4h-96q-62 0 -99.5 -29.5t-37.5 -84.5q0 -49 29 -73t75 -24q54 0 93.5 29.5zM154 613q-30 30 -30 74t30 74t73 30q44 0 74 -30t30 -74t-30 -74t-74 -30q-43 0 -73 30zM276 638
q20 20 20 49t-20 49t-49 20q-28 0 -48 -20t-20 -49t20 -49t48 -20q29 0 49 20z" />
    <glyph glyph-name="ae" unicode="&#xe6;" horiz-adv-x="737" 
d="M91 24q-43 32 -43 107q0 77 48.5 115t136.5 38h101q4 0 4 4v54q0 56 -28 89.5t-84 33.5q-43 0 -73.5 -21.5t-36.5 -56.5q-2 -11 -11 -9l-33 3q-11 2 -9 11q7 54 53 87t110 33q51 0 86.5 -21.5t52.5 -60.5q2 -5 5 0q18 36 55.5 59t84.5 23q67 0 112 -39.5t53 -103.5
q5 -39 5 -120q0 -10 -10 -10h-273q-4 0 -4 -4v-85q1 -50 35 -79t85 -29q41 0 71 21t41 57q3 10 12 7l28 -7q5 -1 7 -4t1 -8q-15 -52 -57.5 -84t-104.5 -32q-52 0 -91.5 23t-53.5 61q-1 2 -2 2.5t-2 -1.5q-17 -40 -62 -62.5t-102 -22.5q-64 0 -107 32zM396 284h227q4 0 4 4
q0 31 -2 71q-5 47 -36.5 76.5t-79.5 29.5t-79 -29.5t-35 -76.5q-2 -30 -2 -48q-1 -7 -1 -23q0 -4 4 -4zM299 65q39 29 39 84v85q0 4 -4 4h-97q-63 0 -99.5 -26t-36.5 -78q0 -48 29 -73t76 -25q54 0 93 29z" />
    <glyph glyph-name="ccedilla" unicode="&#xe7;" horiz-adv-x="455" 
d="M354 139q2 10 11 9l33 -2q4 0 6.5 -2.5t2.5 -6.5v-4l-1 -8q-1 -1 -1 -4q-7 -51 -47 -86t-100 -41q-6 -2 -1 -5q46 -43 46 -94q0 -43 -23.5 -62t-57.5 -19q-12 0 -32 4q-9 1 -7 12l3 14q2 10 12 7q12 -2 17 -2q21 0 34.5 12.5t13.5 38.5q0 42 -52 92q-1 2 -5 2
q-56 8 -92.5 46t-44.5 95q-7 48 -7 118q0 58 7 117q8 63 53.5 102.5t113.5 39.5t114.5 -37t54.5 -92l3 -18v-2q0 -7 -9 -9l-33 -2q-9 0 -11 9v5q0 4 -2 12q-7 36 -39 61.5t-78 25.5q-48 0 -79.5 -29.5t-36.5 -76.5t-5 -107q0 -62 5 -107q5 -48 36.5 -77t79.5 -29
q49 0 81.5 27.5t36.5 66.5v6z" />
    <glyph glyph-name="egrave" unicode="&#xe8;" horiz-adv-x="465" 
d="M308.5 60.5q30.5 21.5 42.5 57.5q3 9 12 7l30 -5q5 -1 6.5 -4.5t0.5 -7.5q-16 -53 -59.5 -84.5t-104.5 -31.5q-69 0 -113.5 38.5t-53.5 101.5q-4 24 -5 55.5t-1 64.5q0 82 4 115q8 64 53.5 104.5t113.5 40.5q73 0 119 -42t52 -110q3 -33 3 -118q0 -10 -10 -10h-278
q-4 0 -4 -4q0 -61 2 -83q5 -48 37 -77t82 -29q41 0 71.5 21.5zM154.5 435.5q-31.5 -29.5 -36.5 -76.5q-2 -22 -2 -78q0 -4 4 -4h231q4 0 4 4q0 45 -3 78q-5 47 -37 76.5t-80 29.5q-49 0 -80.5 -29.5zM251 577q0 -6 -9 -6h-21q-7 0 -12 7l-68 110q-2 4 -2 6q0 6 9 6h28
q8 0 12 -7l61 -110q2 -4 2 -6z" />
    <glyph glyph-name="eacute" unicode="&#xe9;" horiz-adv-x="465" 
d="M308.5 60.5q30.5 21.5 42.5 57.5q3 9 12 7l30 -5q5 -1 6.5 -4.5t0.5 -7.5q-16 -53 -59.5 -84.5t-104.5 -31.5q-69 0 -113.5 38.5t-53.5 101.5q-4 24 -5 55.5t-1 64.5q0 82 4 115q8 64 53.5 104.5t113.5 40.5q73 0 119 -42t52 -110q3 -33 3 -118q0 -10 -10 -10h-278
q-4 0 -4 -4q0 -61 2 -83q5 -48 37 -77t82 -29q41 0 71.5 21.5zM154.5 435.5q-31.5 -29.5 -36.5 -76.5q-2 -22 -2 -78q0 -4 4 -4h231q4 0 4 4q0 45 -3 78q-5 47 -37 76.5t-80 29.5q-49 0 -80.5 -29.5zM197 574.5q-2 3.5 1 8.5l61 110q3 7 12 7h28q6 0 8 -3.5t-1 -8.5
l-67 -110q-5 -7 -12 -7h-22q-6 0 -8 3.5z" />
    <glyph glyph-name="ecircumflex" unicode="&#xea;" horiz-adv-x="465" 
d="M308.5 60.5q30.5 21.5 42.5 57.5q3 9 12 7l30 -5q5 -1 6.5 -4.5t0.5 -7.5q-16 -53 -59.5 -84.5t-104.5 -31.5q-69 0 -113.5 38.5t-53.5 101.5q-4 24 -5 55.5t-1 64.5q0 82 4 115q8 64 53.5 104.5t113.5 40.5q73 0 119 -42t52 -110q3 -33 3 -118q0 -10 -10 -10h-278
q-4 0 -4 -4q0 -61 2 -83q5 -48 37 -77t82 -29q41 0 71.5 21.5zM154.5 435.5q-31.5 -29.5 -36.5 -76.5q-2 -22 -2 -78q0 -4 4 -4h231q4 0 4 4q0 45 -3 78q-5 47 -37 76.5t-80 29.5q-49 0 -80.5 -29.5zM123.5 581q-2.5 4 1.5 8l74 105q4 6 12 6h40q8 0 12 -6l75 -105
q2 -2 2 -6q0 -2 -2 -4t-6 -2h-29q-8 0 -12 6l-56 82q-1 2 -3 2t-3 -2l-57 -82q-4 -6 -12 -6h-28q-6 0 -8.5 4z" />
    <glyph glyph-name="edieresis" unicode="&#xeb;" horiz-adv-x="465" 
d="M308.5 60.5q30.5 21.5 42.5 57.5q3 9 12 7l30 -5q5 -1 6.5 -4.5t0.5 -7.5q-16 -53 -59.5 -84.5t-104.5 -31.5q-69 0 -113.5 38.5t-53.5 101.5q-4 24 -5 55.5t-1 64.5q0 82 4 115q8 64 53.5 104.5t113.5 40.5q73 0 119 -42t52 -110q3 -33 3 -118q0 -10 -10 -10h-278
q-4 0 -4 -4q0 -61 2 -83q5 -48 37 -77t82 -29q41 0 71.5 21.5zM154.5 435.5q-31.5 -29.5 -36.5 -76.5q-2 -22 -2 -78q0 -4 4 -4h231q4 0 4 4q0 45 -3 78q-5 47 -37 76.5t-80 29.5q-49 0 -80.5 -29.5zM273 620q-14 14 -14 36t14 36t36 14t36 -14t14 -36t-14 -36t-36 -14
t-36 14zM120 620q-14 14 -14 36t14 36t36 14t36 -14t14 -36t-14 -36t-36 -14t-36 14z" />
    <glyph glyph-name="igrave" unicode="&#xec;" horiz-adv-x="184" 
d="M66 10v484q0 10 10 10h33q10 0 10 -10v-484q0 -10 -10 -10h-33q-10 0 -10 10zM111 577q0 -6 -9 -6h-21q-7 0 -12 7l-68 110q-2 4 -2 6q0 6 9 6h28q8 0 12 -7l61 -110q2 -4 2 -6z" />
    <glyph glyph-name="iacute" unicode="&#xed;" horiz-adv-x="184" 
d="M66 10v484q0 10 10 10h33q10 0 10 -10v-484q0 -10 -10 -10h-33q-10 0 -10 10zM57 574.5q-2 3.5 1 8.5l61 110q3 7 12 7h28q6 0 8 -3.5t-1 -8.5l-67 -110q-5 -7 -12 -7h-22q-6 0 -8 3.5z" />
    <glyph glyph-name="icircumflex" unicode="&#xee;" horiz-adv-x="184" 
d="M66 10v484q0 10 10 10h33q10 0 10 -10v-484q0 -10 -10 -10h-33q-10 0 -10 10zM-17.5 581q-2.5 4 1.5 8l74 105q4 6 12 6h40q8 0 12 -6l75 -105q2 -2 2 -6q0 -2 -2 -4t-6 -2h-29q-8 0 -12 6l-56 82q-1 2 -3 2t-3 -2l-57 -82q-4 -6 -12 -6h-28q-6 0 -8.5 4z" />
    <glyph glyph-name="idieresis" unicode="&#xef;" horiz-adv-x="184" 
d="M66 10v484q0 10 10 10h33q10 0 10 -10v-484q0 -10 -10 -10h-33q-10 0 -10 10zM133 620q-14 14 -14 36t14 36t36 14t36 -14t14 -36t-14 -36t-36 -14t-36 14zM-20 620q-14 14 -14 36t14 36t36 14t36 -14t14 -36t-14 -36t-36 -14t-36 14z" />
    <glyph glyph-name="eth" unicode="&#xf0;" horiz-adv-x="477" 
d="M403 247q0 -81 -4 -114q-8 -63 -53.5 -102t-113.5 -39t-112.5 38.5t-52.5 102.5q-5 34 -5 114q0 73 5 114q7 59 47.5 97t100.5 39q35 2 66 -8.5t51 -30.5q5 -3 3 2q-14 63 -58 123q-2 4 -5 2l-80 -25l-4 -1q-6 0 -9 8l-3 13l-1 5q0 5 7 7l66 21q5 2 2 5q-29 34 -68 70
q-3 3 -3 7q0 5 8 5h34q7 0 12 -5q42 -40 62 -64q2 -4 5 -2l77 24l4 1q6 0 9 -8l3 -13q1 -2 1 -5q0 -4 -7 -7l-63 -20q-4 -2 -3 -3q72 -100 80 -244q2 -33 2 -107zM350 246q0 76 -2 104q-5 47 -36.5 76t-79.5 29q-47 0 -78 -29t-36 -76q-3 -42 -3 -104t3 -103q5 -48 36 -77
t78 -29t79 29.5t37 76.5q2 28 2 103z" />
    <glyph glyph-name="ntilde" unicode="&#xf1;" horiz-adv-x="478" 
d="M175.5 650.5q-10.5 -5.5 -21.5 -21.5q-6 -10 -14 -2l-10 8q-7 7 -3 14q26 47 71 47q15 0 27 -5.5t28 -16.5q3 -2 12.5 -9t17.5 -10t15 -3q27 0 46 29q5 10 14 3l9 -7q3 -2 4 -6t-1 -8q-12 -26 -32.5 -38t-40.5 -12q-15 0 -26.5 5.5t-26.5 16.5q-17 12 -24.5 16.5
t-18.5 4.5q-15 0 -25.5 -5.5zM367 467q40 -44 40 -119v-338q0 -10 -10 -10h-33q-10 0 -10 10v330q0 57 -30 90.5t-80 33.5q-52 0 -83 -34.5t-31 -91.5v-328q0 -10 -10 -10h-33q-10 0 -10 10v484q0 10 10 10h33q10 0 10 -10v-43q0 -3 1.5 -3.5t2.5 1.5q20 30 52 46t72 16
q69 0 109 -44z" />
    <glyph glyph-name="ograve" unicode="&#xf2;" horiz-adv-x="470" 
d="M121.5 31q-45.5 39 -53.5 104q-6 41 -6 117q0 77 6 117q8 65 53.5 104t115.5 39q69 0 114.5 -39.5t53.5 -103.5q5 -34 5 -117t-5 -117q-8 -65 -54 -104t-115 -39t-114.5 39zM316.5 68q32.5 29 37.5 77q3 29 3 107t-3 107q-5 48 -37.5 77t-80.5 29t-80 -29t-37 -77
q-3 -29 -3 -107t3 -107q5 -48 37 -77t80 -29t80.5 29zM253 577q0 -6 -9 -6h-21q-7 0 -12 7l-68 110q-2 4 -2 6q0 6 9 6h28q8 0 12 -7l61 -110q2 -4 2 -6z" />
    <glyph glyph-name="oacute" unicode="&#xf3;" horiz-adv-x="470" 
d="M121.5 31q-45.5 39 -53.5 104q-6 41 -6 117q0 77 6 117q8 65 53.5 104t115.5 39q69 0 114.5 -39.5t53.5 -103.5q5 -34 5 -117t-5 -117q-8 -65 -54 -104t-115 -39t-114.5 39zM316.5 68q32.5 29 37.5 77q3 29 3 107t-3 107q-5 48 -37.5 77t-80.5 29t-80 -29t-37 -77
q-3 -29 -3 -107t3 -107q5 -48 37 -77t80 -29t80.5 29zM199 574.5q-2 3.5 1 8.5l61 110q3 7 12 7h28q6 0 8 -3.5t-1 -8.5l-67 -110q-5 -7 -12 -7h-22q-6 0 -8 3.5z" />
    <glyph glyph-name="ocircumflex" unicode="&#xf4;" horiz-adv-x="470" 
d="M121.5 31q-45.5 39 -53.5 104q-6 41 -6 117q0 77 6 117q8 65 53.5 104t115.5 39q69 0 114.5 -39.5t53.5 -103.5q5 -34 5 -117t-5 -117q-8 -65 -54 -104t-115 -39t-114.5 39zM316.5 68q32.5 29 37.5 77q3 29 3 107t-3 107q-5 48 -37.5 77t-80.5 29t-80 -29t-37 -77
q-3 -29 -3 -107t3 -107q5 -48 37 -77t80 -29t80.5 29zM125.5 581q-2.5 4 1.5 8l74 105q4 6 12 6h40q8 0 12 -6l75 -105q2 -2 2 -6q0 -2 -2 -4t-6 -2h-29q-8 0 -12 6l-56 82q-1 2 -3 2t-3 -2l-57 -82q-4 -6 -12 -6h-28q-6 0 -8.5 4z" />
    <glyph glyph-name="otilde" unicode="&#xf5;" horiz-adv-x="470" 
d="M121.5 31q-45.5 39 -53.5 104q-6 41 -6 117q0 77 6 117q8 65 53.5 104t115.5 39q69 0 114.5 -39.5t53.5 -103.5q5 -34 5 -117t-5 -117q-8 -65 -54 -104t-115 -39t-114.5 39zM316.5 68q32.5 29 37.5 77q3 29 3 107t-3 107q-5 48 -37.5 77t-80.5 29t-80 -29t-37 -77
q-3 -29 -3 -107t3 -107q5 -48 37 -77t80 -29t80.5 29zM239 635q-3 2 -13 8.5t-18 9.5t-16 3q-16 0 -27.5 -6t-23.5 -21q-6 -9 -14 -3l-12 9q-8 6 -2 14q28 47 76 47q16 0 29 -5.5t30 -16.5q3 -2 13 -8.5t18.5 -10t16.5 -3.5q15 0 27 6.5t23 23.5q2 4 6 5t8 -2l12 -9
q4 -3 4 -7q0 -5 -3 -11q-15 -23 -36 -34t-42 -11q-26 0 -56 22z" />
    <glyph glyph-name="odieresis" unicode="&#xf6;" horiz-adv-x="470" 
d="M121.5 31q-45.5 39 -53.5 104q-6 41 -6 117q0 77 6 117q8 65 53.5 104t115.5 39q69 0 114.5 -39.5t53.5 -103.5q5 -34 5 -117t-5 -117q-8 -65 -54 -104t-115 -39t-114.5 39zM316.5 68q32.5 29 37.5 77q3 29 3 107t-3 107q-5 48 -37.5 77t-80.5 29t-80 -29t-37 -77
q-3 -29 -3 -107t3 -107q5 -48 37 -77t80 -29t80.5 29zM275 620q-14 14 -14 36t14 36t36 14t36 -14t14 -36t-14 -36t-36 -14t-36 14zM122 620q-14 14 -14 36t14 36t36 14t36 -14t14 -36t-14 -36t-36 -14t-36 14z" />
    <glyph glyph-name="divide" unicode="&#xf7;" horiz-adv-x="473" 
d="M202 452q-14 14 -14 34q0 19 14 33t34 14t34.5 -14t14.5 -33q0 -20 -14.5 -34t-34.5 -14t-34 14zM38 317v24q0 10 10 10h377q10 0 10 -10v-24q0 -10 -10 -10h-377q-10 0 -10 10zM202 148q-14 14 -14 34t14.5 34t33.5 14q20 0 34.5 -14.5t14.5 -33.5t-14.5 -33.5
t-34.5 -14.5t-34 14z" />
    <glyph glyph-name="oslash" unicode="&#xf8;" horiz-adv-x="472" 
d="M409 252q0 -74 -5 -117q-8 -65 -54 -104t-115 -39q-57 0 -98 27q-4 2 -5 -2l-25 -46q-2 -4 -6 -5t-8 2l-22 15q-8 5 -3 13l29 55q2 3 0 6q-24 31 -30 78q-6 41 -6 117t5 117q9 65 54.5 104t114.5 39q55 0 94 -24q4 -2 5 2l27 49q4 9 14 3l23 -15q8 -5 3 -13l-30 -58
q-2 -3 0 -5q27 -35 33 -82q5 -42 5 -117zM125 113q1 -2 2.5 -2t2.5 2l176 326q1 4 -1 5q-29 21 -70 21q-48 0 -80 -29t-38 -77q-3 -43 -3 -107q0 -63 3 -107q3 -21 8 -32zM356 252q0 78 -3 107q-3 22 -10 37q-1 2 -2.5 2.5t-2.5 -1.5l-178 -329q-1 -4 1 -5q30 -24 74 -24
q48 0 80.5 29t37.5 77q3 29 3 107z" />
    <glyph glyph-name="ugrave" unicode="&#xf9;" horiz-adv-x="477" 
d="M357 504h33q10 0 10 -10v-484q0 -10 -10 -10h-33q-10 0 -10 10v43q0 3 -1.5 3t-3.5 -2q-18 -30 -49 -45.5t-72 -15.5q-68 0 -109.5 40.5t-41.5 115.5v345q0 10 10 10h33q10 0 10 -10v-332q0 -58 29 -90t80 -32q53 0 84 34t31 92v328q0 10 10 10zM255 577q0 -6 -9 -6h-21
q-7 0 -12 7l-68 110q-2 4 -2 6q0 6 9 6h28q8 0 12 -7l61 -110q2 -4 2 -6z" />
    <glyph glyph-name="uacute" unicode="&#xfa;" horiz-adv-x="477" 
d="M357 504h33q10 0 10 -10v-484q0 -10 -10 -10h-33q-10 0 -10 10v43q0 3 -1.5 3t-3.5 -2q-18 -30 -49 -45.5t-72 -15.5q-68 0 -109.5 40.5t-41.5 115.5v345q0 10 10 10h33q10 0 10 -10v-332q0 -58 29 -90t80 -32q53 0 84 34t31 92v328q0 10 10 10zM202 574.5q-2 3.5 1 8.5
l61 110q3 7 12 7h28q6 0 8 -3.5t-1 -8.5l-67 -110q-5 -7 -12 -7h-22q-6 0 -8 3.5z" />
    <glyph glyph-name="ucircumflex" unicode="&#xfb;" horiz-adv-x="477" 
d="M357 504h33q10 0 10 -10v-484q0 -10 -10 -10h-33q-10 0 -10 10v43q0 3 -1.5 3t-3.5 -2q-18 -30 -49 -45.5t-72 -15.5q-68 0 -109.5 40.5t-41.5 115.5v345q0 10 10 10h33q10 0 10 -10v-332q0 -58 29 -90t80 -32q53 0 84 34t31 92v328q0 10 10 10zM127.5 581q-2.5 4 1.5 8
l74 105q4 6 12 6h40q8 0 12 -6l75 -105q2 -2 2 -6q0 -2 -2 -4t-6 -2h-29q-8 0 -12 6l-56 82q-1 2 -3 2t-3 -2l-57 -82q-4 -6 -12 -6h-28q-6 0 -8.5 4z" />
    <glyph glyph-name="udieresis" unicode="&#xfc;" horiz-adv-x="477" 
d="M357 504h33q10 0 10 -10v-484q0 -10 -10 -10h-33q-10 0 -10 10v43q0 3 -1.5 3t-3.5 -2q-18 -30 -49 -45.5t-72 -15.5q-68 0 -109.5 40.5t-41.5 115.5v345q0 10 10 10h33q10 0 10 -10v-332q0 -58 29 -90t80 -32q53 0 84 34t31 92v328q0 10 10 10zM277 620q-14 14 -14 36
t14 36t36 14t36 -14t14 -36t-14 -36t-36 -14t-36 14zM124 620q-14 14 -14 36t14 36t36 14t36 -14t14 -36t-14 -36t-36 -14t-36 14z" />
    <glyph glyph-name="yacute" unicode="&#xfd;" horiz-adv-x="401" 
d="M46 -190v26q0 10 10 10h2q34 1 53 12.5t32.5 42.5t30.5 96q1 1 0.5 3.5l-0.5 2.5l-150 490l-1 3q0 8 10 8h35q8 0 11 -8l120 -421q1 -2 2.5 -2t2.5 2l119 421q2 8 11 8h35q5 0 7.5 -3t1.5 -8l-166 -544q-20 -65 -38 -96t-43.5 -42t-71.5 -11h-6q-7 0 -7 10zM165 575.5
q-2 3.5 1 8.5l61 110q3 7 12 7h28q6 0 8 -3.5t-1 -8.5l-67 -110q-5 -7 -12 -7h-22q-6 0 -8 3.5z" />
    <glyph glyph-name="thorn" unicode="&#xfe;" horiz-adv-x="474" 
d="M412 251q0 -85 -4 -116q-8 -65 -50 -104t-106 -39q-40 0 -71 17.5t-49 49.5q-2 2 -3.5 1.5t-1.5 -3.5v-247q0 -10 -10 -10h-33q-10 0 -10 10v880q0 10 10 10h33q10 0 10 -10v-243q0 -3 2 -3.5t3 2.5q18 32 49 49t71 17q64 0 106 -39t49 -102q5 -41 5 -120zM358 252
q0 67 -3 107q-5 46 -37 76t-79 30t-77 -29.5t-34 -76.5l-1 -15v-184l1 -15q5 -46 34.5 -76t76.5 -30q48 0 80 29.5t36 75.5q3 44 3 108z" />
    <glyph glyph-name="ydieresis" unicode="&#xff;" horiz-adv-x="401" 
d="M46 -190v26q0 10 10 10h2q34 1 53 12.5t32.5 42.5t30.5 96q1 1 0.5 3.5l-0.5 2.5l-150 490l-1 3q0 8 10 8h35q8 0 11 -8l120 -421q1 -2 2.5 -2t2.5 2l119 421q2 8 11 8h35q5 0 7.5 -3t1.5 -8l-166 -544q-20 -65 -38 -96t-43.5 -42t-71.5 -11h-6q-7 0 -7 10zM241 621
q-14 14 -14 36t14 36t36 14t36 -14t14 -36t-14 -36t-36 -14t-36 14zM88 621q-14 14 -14 36t14 36t36 14t36 -14t14 -36t-14 -36t-36 -14t-36 14z" />
    <glyph glyph-name="Amacron" unicode="&#x100;" horiz-adv-x="491" 
d="M412 9l-36 132q-1 3 -5 3h-252q-4 0 -5 -3l-35 -132q-2 -9 -11 -9h-34q-5 0 -7.5 3t-1.5 8l188 681q2 8 11 8h42q9 0 11 -8l188 -681l1 -3q0 -8 -10 -8h-33q-9 0 -11 9zM128.5 189.5q1.5 -1.5 3.5 -1.5h226q2 0 3.5 1.5t0.5 2.5l-115 430q-1 2 -2.5 2t-2.5 -2l-114 -430
q-1 -1 0.5 -2.5zM130 804v21q0 10 10 10h210q10 0 10 -10v-21q0 -10 -10 -10h-210q-10 0 -10 10z" />
    <glyph glyph-name="amacron" unicode="&#x101;" 
d="M348.5 467q42.5 -45 42.5 -122v-335q0 -10 -10 -10h-33q-10 0 -10 10v41q0 2 -1.5 2.5t-3.5 -1.5q-22 -30 -58 -45t-79 -15q-62 0 -105 33t-43 108q0 79 50 119.5t137 40.5h99q4 0 4 4v46q0 56 -28 89t-82 33q-43 0 -72 -21.5t-35 -56.5q-1 -9 -11 -9l-36 2q-5 0 -7.5 3
t-1.5 7q7 55 52.5 88.5t111.5 33.5q77 0 119.5 -45zM298.5 68.5q39.5 29.5 39.5 83.5v94q0 4 -4 4h-96q-62 0 -99.5 -29.5t-37.5 -84.5q0 -49 29 -73t75 -24q54 0 93.5 29.5zM112 608v21q0 10 10 10h210q10 0 10 -10v-21q0 -10 -10 -10h-210q-10 0 -10 10z" />
    <glyph glyph-name="Abreve" unicode="&#x102;" horiz-adv-x="491" 
d="M412 9l-36 132q-1 3 -5 3h-252q-4 0 -5 -3l-35 -132q-2 -9 -11 -9h-34q-5 0 -7.5 3t-1.5 8l188 681q2 8 11 8h42q9 0 11 -8l188 -681l1 -3q0 -8 -10 -8h-33q-9 0 -11 9zM128.5 189.5q1.5 -1.5 3.5 -1.5h226q2 0 3.5 1.5t0.5 2.5l-115 430q-1 2 -2.5 2t-2.5 -2l-114 -430
q-1 -1 0.5 -2.5zM172.5 784q-30.5 27 -35.5 67q0 10 10 10h17q10 0 11 -10q3 -26 23 -43.5t47 -17.5t46.5 17.5t22.5 43.5q1 10 11 10h17q10 0 10 -10q-4 -40 -34 -67t-73 -27q-42 0 -72.5 27z" />
    <glyph glyph-name="abreve" unicode="&#x103;" 
d="M348.5 467q42.5 -45 42.5 -122v-335q0 -10 -10 -10h-33q-10 0 -10 10v41q0 2 -1.5 2.5t-3.5 -1.5q-22 -30 -58 -45t-79 -15q-62 0 -105 33t-43 108q0 79 50 119.5t137 40.5h99q4 0 4 4v46q0 56 -28 89t-82 33q-43 0 -72 -21.5t-35 -56.5q-1 -9 -11 -9l-36 2q-5 0 -7.5 3
t-1.5 7q7 55 52.5 88.5t111.5 33.5q77 0 119.5 -45zM298.5 68.5q39.5 29.5 39.5 83.5v94q0 4 -4 4h-96q-62 0 -99.5 -29.5t-37.5 -84.5q0 -49 29 -73t75 -24q54 0 93.5 29.5zM155.5 588q-30.5 27 -35.5 67q0 10 10 10h17q10 0 11 -10q3 -26 23 -43.5t47 -17.5t46.5 17.5
t22.5 43.5q1 10 11 10h17q10 0 10 -10q-4 -40 -34 -67t-73 -27q-42 0 -72.5 27z" />
    <glyph glyph-name="Aogonek" unicode="&#x104;" horiz-adv-x="491" 
d="M412 9l-36 132q-1 3 -5 3h-252q-4 0 -5 -3l-35 -132q-2 -9 -11 -9h-34q-5 0 -7.5 3t-1.5 8l188 681q2 8 11 8h42q9 0 11 -8l188 -681l1 -3q0 -8 -10 -8h-33q-9 0 -11 9zM128.5 189.5q1.5 -1.5 3.5 -1.5h226q2 0 3.5 1.5t0.5 2.5l-115 430q-1 2 -2.5 2t-2.5 -2l-114 -430
q-1 -1 0.5 -2.5zM488 -171q0 -8 -7 -9q-13 -4 -33 -4q-34 0 -57 19t-23 62q0 53 53 99q5 4 13 4h16q8 0 8 -5q0 -4 -4 -7q-46 -44 -46 -87q0 -26 13.5 -38.5t34.5 -12.5q5 0 17 2l5 1q5 0 7 -8l3 -13v-3z" />
    <glyph glyph-name="aogonek" unicode="&#x105;" 
d="M401 -147q5 0 7 -8l3 -13v-3q0 -8 -7 -9q-13 -4 -33 -4q-34 0 -57 19t-23 62q0 52 53 98q2 1 3.5 2.5t0.5 2.5q-10 0 -10 10v41q0 2 -1.5 2.5t-3.5 -1.5q-22 -30 -58 -45t-79 -15q-62 0 -105 33t-43 108q0 79 50 119.5t137 40.5h99q4 0 4 4v46q0 56 -28 89t-82 33
q-43 0 -72 -21.5t-35 -56.5q-1 -9 -11 -9l-36 2q-4 0 -7 3t-2 8q7 54 52.5 87.5t111.5 33.5q77 0 119.5 -45t42.5 -122v-338q0 -6 -6 -12q-54 -48 -54 -93q0 -27 13.5 -39.5t34.5 -12.5q5 0 17 2zM298.5 68.5q39.5 29.5 39.5 83.5v94q0 4 -4 4h-96q-62 0 -99.5 -29.5
t-37.5 -84.5q0 -49 29 -73t75 -24q54 0 93.5 29.5z" />
    <glyph glyph-name="Cacute" unicode="&#x106;" horiz-adv-x="524" 
d="M123.5 44.5q-53.5 52.5 -53.5 138.5v335q0 86 53.5 138t141.5 52q89 0 142.5 -52t53.5 -137v-9q0 -5 -3 -8t-7 -3l-33 -2q-10 0 -10 10v14q0 63 -39.5 101.5t-103.5 38.5t-103 -38.5t-39 -101.5v-341q0 -64 39 -102.5t103 -38.5q65 0 104 38.5t39 102.5v12q0 10 10 10
l33 -2q10 0 10 -10v-8q0 -86 -53.5 -138t-142.5 -52q-88 0 -141.5 52.5zM230 770.5q-2 3.5 1 8.5l61 110q3 7 12 7h28q6 0 8 -3.5t-1 -8.5l-67 -110q-5 -7 -12 -7h-22q-6 0 -8 3.5z" />
    <glyph glyph-name="cacute" unicode="&#x107;" horiz-adv-x="455" 
d="M122.5 31.5q-45.5 39.5 -53.5 103.5q-7 48 -7 118q0 58 7 117q8 63 53.5 102.5t113.5 39.5t114.5 -37t54.5 -92l3 -18v-2q0 -7 -9 -9l-33 -2q-9 0 -11 9v5q0 4 -2 12q-7 36 -39 61.5t-78 25.5q-48 0 -79.5 -29.5t-36.5 -76.5t-5 -107q0 -62 5 -107q5 -48 36.5 -77
t79.5 -29q49 0 81.5 27.5t36.5 66.5v6q2 10 11 9l33 -2q4 0 6.5 -2.5t2.5 -6.5v-4l-1 -8q-1 -1 -1 -4q-7 -56 -53.5 -92.5t-115.5 -36.5q-68 0 -113.5 39.5zM201 574.5q-2 3.5 1 8.5l61 110q3 7 12 7h28q6 0 8 -3.5t-1 -8.5l-67 -110q-5 -7 -12 -7h-22q-6 0 -8 3.5z" />
    <glyph glyph-name="Ccircumflex" unicode="&#x108;" horiz-adv-x="524" 
d="M123.5 44.5q-53.5 52.5 -53.5 138.5v335q0 86 53.5 138t141.5 52q89 0 142.5 -52t53.5 -137v-9q0 -5 -3 -8t-7 -3l-33 -2q-10 0 -10 10v14q0 63 -39.5 101.5t-103.5 38.5t-103 -38.5t-39 -101.5v-341q0 -64 39 -102.5t103 -38.5q65 0 104 38.5t39 102.5v12q0 10 10 10
l33 -2q10 0 10 -10v-8q0 -86 -53.5 -138t-142.5 -52q-88 0 -141.5 52.5zM155.5 777q-2.5 4 1.5 8l74 105q4 6 12 6h40q8 0 12 -6l75 -105q2 -2 2 -6q0 -2 -2 -4t-6 -2h-29q-8 0 -12 6l-56 82q-1 2 -3 2t-3 -2l-57 -82q-4 -6 -12 -6h-28q-6 0 -8.5 4z" />
    <glyph glyph-name="ccircumflex" unicode="&#x109;" horiz-adv-x="455" 
d="M122.5 31.5q-45.5 39.5 -53.5 103.5q-7 48 -7 118q0 58 7 117q8 63 53.5 102.5t113.5 39.5t114.5 -37t54.5 -92l3 -18v-2q0 -7 -9 -9l-33 -2q-9 0 -11 9v5q0 4 -2 12q-7 36 -39 61.5t-78 25.5q-48 0 -79.5 -29.5t-36.5 -76.5t-5 -107q0 -62 5 -107q5 -48 36.5 -77
t79.5 -29q49 0 81.5 27.5t36.5 66.5v6q2 10 11 9l33 -2q4 0 6.5 -2.5t2.5 -6.5v-4l-1 -8q-1 -1 -1 -4q-7 -56 -53.5 -92.5t-115.5 -36.5q-68 0 -113.5 39.5zM126.5 581q-2.5 4 1.5 8l74 105q4 6 12 6h40q8 0 12 -6l75 -105q2 -2 2 -6q0 -2 -2 -4t-6 -2h-29q-8 0 -12 6
l-56 82q-1 2 -3 2t-3 -2l-57 -82q-4 -6 -12 -6h-28q-6 0 -8.5 4z" />
    <glyph glyph-name="Cdotaccent" unicode="&#x10a;" horiz-adv-x="524" 
d="M123.5 44.5q-53.5 52.5 -53.5 138.5v335q0 86 53.5 138t141.5 52q89 0 142.5 -52t53.5 -137v-9q0 -5 -3 -8t-7 -3l-33 -2q-10 0 -10 10v14q0 63 -39.5 101.5t-103.5 38.5t-103 -38.5t-39 -101.5v-341q0 -64 39 -102.5t103 -38.5q65 0 104 38.5t39 102.5v12q0 10 10 10
l33 -2q10 0 10 -10v-8q0 -86 -53.5 -138t-142.5 -52q-88 0 -141.5 52.5zM229 815q-14 14 -14 36t14 36t36 14t36 -14t14 -36t-14 -36t-36 -14t-36 14z" />
    <glyph glyph-name="cdotaccent" unicode="&#x10b;" horiz-adv-x="455" 
d="M122.5 31.5q-45.5 39.5 -53.5 103.5q-7 48 -7 118q0 58 7 117q8 63 53.5 102.5t113.5 39.5t114.5 -37t54.5 -92l3 -18v-2q0 -7 -9 -9l-33 -2q-9 0 -11 9v5q0 4 -2 12q-7 36 -39 61.5t-78 25.5q-48 0 -79.5 -29.5t-36.5 -76.5t-5 -107q0 -62 5 -107q5 -48 36.5 -77
t79.5 -29q49 0 81.5 27.5t36.5 66.5v6q2 10 11 9l33 -2q4 0 6.5 -2.5t2.5 -6.5v-4l-1 -8q-1 -1 -1 -4q-7 -56 -53.5 -92.5t-115.5 -36.5q-68 0 -113.5 39.5zM199 619q-14 14 -14 36t14 36t36 14t36 -14t14 -36t-14 -36t-36 -14t-36 14z" />
    <glyph glyph-name="Ccaron" unicode="&#x10c;" horiz-adv-x="524" 
d="M123.5 44.5q-53.5 52.5 -53.5 138.5v335q0 86 53.5 138t141.5 52q89 0 142.5 -52t53.5 -137v-9q0 -5 -3 -8t-7 -3l-33 -2q-10 0 -10 10v14q0 63 -39.5 101.5t-103.5 38.5t-103 -38.5t-39 -101.5v-341q0 -64 39 -102.5t103 -38.5q65 0 104 38.5t39 102.5v12q0 10 10 10
l33 -2q10 0 10 -10v-8q0 -86 -53.5 -138t-142.5 -52q-88 0 -141.5 52.5zM158 889q0 7 9 7h28q8 0 12 -6l57 -83q1 -1 3 -1t3 1l56 83q4 6 12 6h29q6 0 8 -3.5t-2 -8.5l-75 -105q-4 -6 -12 -6h-40q-8 0 -12 6l-74 105q-2 2 -2 5z" />
    <glyph glyph-name="ccaron" unicode="&#x10d;" horiz-adv-x="455" 
d="M122.5 31.5q-45.5 39.5 -53.5 103.5q-7 48 -7 118q0 58 7 117q8 63 53.5 102.5t113.5 39.5t114.5 -37t54.5 -92l3 -18v-2q0 -7 -9 -9l-33 -2q-9 0 -11 9v5q0 4 -2 12q-7 36 -39 61.5t-78 25.5q-48 0 -79.5 -29.5t-36.5 -76.5t-5 -107q0 -62 5 -107q5 -48 36.5 -77
t79.5 -29q49 0 81.5 27.5t36.5 66.5v6q2 10 11 9l33 -2q4 0 6.5 -2.5t2.5 -6.5v-4l-1 -8q-1 -1 -1 -4q-7 -56 -53.5 -92.5t-115.5 -36.5q-68 0 -113.5 39.5zM129 693q0 7 9 7h28q8 0 12 -6l57 -83q1 -1 3 -1t3 1l56 83q4 6 12 6h29q6 0 8 -3.5t-2 -8.5l-75 -105
q-4 -6 -12 -6h-40q-8 0 -12 6l-74 105q-2 2 -2 5z" />
    <glyph glyph-name="Dcaron" unicode="&#x10e;" horiz-adv-x="540" 
d="M91 10v680q0 10 10 10h189q85 0 134.5 -50t49.5 -136v-328q0 -86 -49.5 -136t-134.5 -50h-189q-10 0 -10 10zM148 47h143q59 0 94 38.5t35 103.5v321q0 67 -34.5 105t-94.5 38h-143q-4 0 -4 -4v-598q0 -4 4 -4zM163 887q0 7 9 7h28q8 0 12 -6l57 -83q1 -1 3 -1t3 1l56 83
q4 6 12 6h29q6 0 8 -3.5t-2 -8.5l-75 -105q-4 -6 -12 -6h-40q-8 0 -12 6l-74 105q-2 2 -2 5z" />
    <glyph glyph-name="dcaron" unicode="&#x10f;" horiz-adv-x="479" 
d="M359 700h33q10 0 10 -10v-680q0 -10 -10 -10h-33q-10 0 -10 10v43q0 3 -2 3.5t-3 -2.5q-34 -62 -118 -62q-63 0 -100 31.5t-56 104.5q-14 60 -14 117q0 26 3 61t8 62q16 75 56 109t109 34q44 0 70.5 -15.5t42.5 -45.5q1 -3 2.5 -2.5t1.5 3.5v239q0 10 10 10zM347 252
q0 92 -19 139q-14 36 -35.5 55t-57.5 19q-73 0 -102 -71q-22 -54 -22 -142q0 -89 17 -135q14 -39 38.5 -59t66.5 -20q38 0 61 19.5t36 57.5q17 50 17 137zM461 574.5q-2 3.5 1 8.5l61 110q3 7 12 7h28q6 0 8 -3.5t-1 -8.5l-67 -110q-5 -7 -12 -7h-22q-6 0 -8 3.5z" />
    <glyph glyph-name="Dcroat" unicode="&#x110;" horiz-adv-x="598" 
d="M481.5 650q49.5 -50 49.5 -136v-328q0 -86 -49.5 -136t-133.5 -50h-190q-10 0 -10 10v332q0 4 -4 4h-43q-10 0 -10 10v19q0 10 10 10h43q4 0 4 4v301q0 10 10 10h190q84 0 133.5 -50zM478 510q0 67 -34.5 105t-94.5 38h-144q-4 0 -4 -4v-260q0 -4 4 -4h106q10 0 10 -10
v-19q0 -10 -10 -10h-106q-4 0 -4 -4v-291q0 -4 4 -4h144q59 0 94 38.5t35 103.5v321z" />
    <glyph glyph-name="dcroat" unicode="&#x111;" horiz-adv-x="479" 
d="M466 601v-17q0 -10 -10 -10h-50q-4 0 -4 -4v-560q0 -10 -10 -10h-33q-10 0 -10 10v43q0 3 -2 3.5t-3 -2.5q-34 -62 -118 -62q-63 0 -100 31.5t-56 104.5q-14 60 -14 117q0 26 3 61t8 62q16 75 56 109t109 34q44 0 70.5 -15.5t42.5 -45.5q1 -3 2.5 -2.5t1.5 3.5v119
q0 4 -4 4h-154q-10 0 -10 10v17q0 10 10 10h154q4 0 4 4v75q0 10 10 10h33q10 0 10 -10v-75q0 -4 4 -4h50q10 0 10 -10zM347 252q0 92 -19 139q-14 36 -35.5 55t-57.5 19q-73 0 -102 -71q-22 -54 -22 -142q0 -89 17 -135q14 -39 38.5 -59t66.5 -20q38 0 61 19.5t36 57.5
q17 50 17 137z" />
    <glyph glyph-name="Emacron" unicode="&#x112;" horiz-adv-x="519" 
d="M455 653h-307q-4 0 -4 -4v-271q0 -4 4 -4h210q10 0 10 -10v-27q0 -10 -10 -10h-210q-4 0 -4 -4v-272q0 -4 4 -4h307q10 0 10 -10v-27q0 -10 -10 -10h-354q-10 0 -10 10v680q0 10 10 10h354q10 0 10 -10v-27q0 -10 -10 -10zM161 804v21q0 10 10 10h210q10 0 10 -10v-21
q0 -10 -10 -10h-210q-10 0 -10 10z" />
    <glyph glyph-name="emacron" unicode="&#x113;" horiz-adv-x="465" 
d="M308.5 60.5q30.5 21.5 42.5 57.5q3 9 12 7l30 -5q5 -1 6.5 -4.5t0.5 -7.5q-16 -53 -59.5 -84.5t-104.5 -31.5q-69 0 -113.5 38.5t-53.5 101.5q-4 24 -5 55.5t-1 64.5q0 82 4 115q8 64 53.5 104.5t113.5 40.5q73 0 119 -42t52 -110q3 -33 3 -118q0 -10 -10 -10h-278
q-4 0 -4 -4q0 -61 2 -83q5 -48 37 -77t82 -29q41 0 71.5 21.5zM154.5 435.5q-31.5 -29.5 -36.5 -76.5q-2 -22 -2 -78q0 -4 4 -4h231q4 0 4 4q0 45 -3 78q-5 47 -37 76.5t-80 29.5q-49 0 -80.5 -29.5zM117 638v20q0 10 10 10h210q10 0 10 -10v-20q0 -10 -10 -10h-210
q-10 0 -10 10z" />
    <glyph glyph-name="Edotaccent" unicode="&#x116;" horiz-adv-x="519" 
d="M455 653h-307q-4 0 -4 -4v-271q0 -4 4 -4h210q10 0 10 -10v-27q0 -10 -10 -10h-210q-4 0 -4 -4v-272q0 -4 4 -4h307q10 0 10 -10v-27q0 -10 -10 -10h-354q-10 0 -10 10v680q0 10 10 10h354q10 0 10 -10v-27q0 -10 -10 -10zM239 815q-14 14 -14 36t14 36t36 14t36 -14
t14 -36t-14 -36t-36 -14t-36 14z" />
    <glyph glyph-name="edotaccent" unicode="&#x117;" horiz-adv-x="465" 
d="M308.5 60.5q30.5 21.5 42.5 57.5q3 9 12 7l30 -5q5 -1 6.5 -4.5t0.5 -7.5q-16 -53 -59.5 -84.5t-104.5 -31.5q-69 0 -113.5 38.5t-53.5 101.5q-4 24 -5 55.5t-1 64.5q0 82 4 115q8 64 53.5 104.5t113.5 40.5q73 0 119 -42t52 -110q3 -33 3 -118q0 -10 -10 -10h-278
q-4 0 -4 -4q0 -61 2 -83q5 -48 37 -77t82 -29q41 0 71.5 21.5zM154.5 435.5q-31.5 -29.5 -36.5 -76.5q-2 -22 -2 -78q0 -4 4 -4h231q4 0 4 4q0 45 -3 78q-5 47 -37 76.5t-80 29.5q-49 0 -80.5 -29.5zM196 619q-14 14 -14 36t14 36t36 14t36 -14t14 -36t-14 -36t-36 -14
t-36 14z" />
    <glyph glyph-name="Eogonek" unicode="&#x118;" horiz-adv-x="519" 
d="M455 653h-307q-4 0 -4 -4v-271q0 -4 4 -4h210q10 0 10 -10v-27q0 -10 -10 -10h-210q-4 0 -4 -4v-272q0 -4 4 -4h307q10 0 10 -10v-27q0 -10 -10 -10h-155q-3 0 -5 -2q-51 -46 -51 -91q0 -26 13.5 -38.5t34.5 -12.5q6 0 18 2l4 1q6 0 8 -8l2 -14v-3q0 -7 -7 -8
q-20 -4 -32 -4q-35 0 -58 19t-23 62q0 50 46 92q2 2 1.5 3.5t-2.5 1.5h-148q-10 0 -10 10v680q0 10 10 10h354q10 0 10 -10v-27q0 -10 -10 -10z" />
    <glyph glyph-name="eogonek" unicode="&#x119;" horiz-adv-x="465" 
d="M308.5 60.5q30.5 21.5 42.5 57.5q3 9 12 7l30 -5q5 -1 6.5 -4.5t0.5 -7.5q-14 -49 -53 -80t-94 -36q-3 0 -5 -2q-47 -44 -47 -88l1 -11q7 -39 48 -39q5 0 17 2l4 1q6 0 8 -8l2 -14v-3q0 -7 -7 -8q-13 -4 -33 -4q-34 0 -57 19t-23 62q0 50 44 91q5 3 -1 5
q-56 8 -91.5 44.5t-43.5 92.5q-4 24 -5 55.5t-1 64.5q0 82 4 115q8 64 53.5 104.5t113.5 40.5q73 0 119 -42t52 -110q3 -33 3 -118q0 -10 -10 -10h-278q-4 0 -4 -4q0 -61 2 -83q5 -48 37 -77t82 -29q41 0 71.5 21.5zM154.5 435.5q-31.5 -29.5 -36.5 -76.5q-2 -22 -2 -78
q0 -4 4 -4h231q4 0 4 4q0 45 -3 78q-5 47 -37 76.5t-80 29.5q-49 0 -80.5 -29.5z" />
    <glyph glyph-name="Ecaron" unicode="&#x11a;" horiz-adv-x="519" 
d="M455 653h-307q-4 0 -4 -4v-271q0 -4 4 -4h210q10 0 10 -10v-27q0 -10 -10 -10h-210q-4 0 -4 -4v-272q0 -4 4 -4h307q10 0 10 -10v-27q0 -10 -10 -10h-354q-10 0 -10 10v680q0 10 10 10h354q10 0 10 -10v-27q0 -10 -10 -10zM168 889q0 7 9 7h28q8 0 12 -6l57 -83
q1 -1 3 -1t3 1l56 83q4 6 12 6h29q6 0 8 -3.5t-2 -8.5l-75 -105q-4 -6 -12 -6h-40q-8 0 -12 6l-74 105q-2 2 -2 5z" />
    <glyph glyph-name="ecaron" unicode="&#x11b;" horiz-adv-x="465" 
d="M308.5 60.5q30.5 21.5 42.5 57.5q3 9 12 7l30 -5q5 -1 6.5 -4.5t0.5 -7.5q-16 -53 -59.5 -84.5t-104.5 -31.5q-69 0 -113.5 38.5t-53.5 101.5q-4 24 -5 55.5t-1 64.5q0 82 4 115q8 64 53.5 104.5t113.5 40.5q73 0 119 -42t52 -110q3 -33 3 -118q0 -10 -10 -10h-278
q-4 0 -4 -4q0 -61 2 -83q5 -48 37 -77t82 -29q41 0 71.5 21.5zM154.5 435.5q-31.5 -29.5 -36.5 -76.5q-2 -22 -2 -78q0 -4 4 -4h231q4 0 4 4q0 45 -3 78q-5 47 -37 76.5t-80 29.5q-49 0 -80.5 -29.5zM124 691q0 7 9 7h28q8 0 12 -6l57 -83q1 -1 3 -1t3 1l56 83q4 6 12 6h29
q6 0 8 -3.5t-2 -8.5l-75 -105q-4 -6 -12 -6h-40q-8 0 -12 6l-74 105q-2 2 -2 5z" />
    <glyph glyph-name="Gcircumflex" unicode="&#x11c;" horiz-adv-x="530" 
d="M123.5 43.5q-53.5 51.5 -53.5 136.5v340q0 85 53.5 136.5t141.5 51.5q58 0 102 -23.5t68.5 -65.5t24.5 -96v-29q0 -10 -10 -10h-33q-10 0 -10 10v29q0 62 -39 100t-103 38t-103 -38.5t-39 -100.5v-344q0 -62 39.5 -100.5t103.5 -38.5t102.5 37.5t38.5 98.5v122q0 4 -4 4
h-125q-10 0 -10 10v26q0 10 10 10h172q10 0 10 -10v-155q0 -87 -53.5 -138.5t-141.5 -51.5t-141.5 51.5zM155.5 778q-2.5 4 1.5 8l74 105q4 6 12 6h40q8 0 12 -6l75 -105q2 -2 2 -6q0 -2 -2 -4t-6 -2h-29q-8 0 -12 6l-56 82q-1 2 -3 2t-3 -2l-57 -82q-4 -6 -12 -6h-28
q-6 0 -8.5 4z" />
    <glyph glyph-name="gcircumflex" unicode="&#x11d;" horiz-adv-x="468" 
d="M358 504h33q10 0 10 -10v-485q0 -218 -229 -209q-10 0 -10 10l1 29q0 10 10 10q92 -3 133.5 37.5t41.5 124.5v44q0 3 -2 3.5t-3 -2.5q-18 -29 -49 -45t-70 -16q-64 0 -106.5 38t-51.5 103q-5 39 -5 116q0 81 6 119q8 63 49.5 102t105.5 39q40 0 71 -16t50 -45
q1 -3 3 -2.5t2 3.5v42q0 10 10 10zM348 252q0 51 -2 107q-4 46 -34.5 76t-77.5 30t-78 -30t-38 -76q-4 -56 -4 -106q0 -56 4 -106q5 -46 37 -75.5t80 -29.5q47 0 77 30t34 75q2 54 2 105zM128.5 581q-2.5 4 1.5 8l74 105q4 6 12 6h40q8 0 12 -6l75 -105q2 -2 2 -6
q0 -2 -2 -4t-6 -2h-29q-8 0 -12 6l-56 82q-1 2 -3 2t-3 -2l-57 -82q-4 -6 -12 -6h-28q-6 0 -8.5 4z" />
    <glyph glyph-name="Gbreve" unicode="&#x11e;" horiz-adv-x="530" 
d="M123.5 43.5q-53.5 51.5 -53.5 136.5v340q0 85 53.5 136.5t141.5 51.5q58 0 102 -23.5t68.5 -65.5t24.5 -96v-29q0 -10 -10 -10h-33q-10 0 -10 10v29q0 62 -39 100t-103 38t-103 -38.5t-39 -100.5v-344q0 -62 39.5 -100.5t103.5 -38.5t102.5 37.5t38.5 98.5v122q0 4 -4 4
h-125q-10 0 -10 10v26q0 10 10 10h172q10 0 10 -10v-155q0 -87 -53.5 -138.5t-141.5 -51.5t-141.5 51.5zM192.5 785q-30.5 27 -35.5 67q0 10 10 10h17q10 0 11 -10q3 -26 23 -43.5t47 -17.5t46.5 17.5t22.5 43.5q1 10 11 10h17q10 0 10 -10q-4 -40 -34 -67t-73 -27
q-42 0 -72.5 27z" />
    <glyph glyph-name="gbreve" unicode="&#x11f;" horiz-adv-x="468" 
d="M358 504h33q10 0 10 -10v-485q0 -218 -229 -209q-10 0 -10 10l1 29q0 10 10 10q92 -3 133.5 37.5t41.5 124.5v44q0 3 -2 3.5t-3 -2.5q-18 -29 -49 -45t-70 -16q-64 0 -106.5 38t-51.5 103q-5 39 -5 116q0 81 6 119q8 63 49.5 102t105.5 39q40 0 71 -16t50 -45
q1 -3 3 -2.5t2 3.5v42q0 10 10 10zM348 252q0 51 -2 107q-4 46 -34.5 76t-77.5 30t-78 -30t-38 -76q-4 -56 -4 -106q0 -56 4 -106q5 -46 37 -75.5t80 -29.5q47 0 77 30t34 75q2 54 2 105zM165.5 588q-30.5 27 -35.5 67q0 10 10 10h17q10 0 11 -10q3 -26 23 -43.5t47 -17.5
t46.5 17.5t22.5 43.5q1 10 11 10h17q10 0 10 -10q-4 -40 -34 -67t-73 -27q-42 0 -72.5 27z" />
    <glyph glyph-name="Gdotaccent" unicode="&#x120;" horiz-adv-x="530" 
d="M123.5 43.5q-53.5 51.5 -53.5 136.5v340q0 85 53.5 136.5t141.5 51.5q58 0 102 -23.5t68.5 -65.5t24.5 -96v-29q0 -10 -10 -10h-33q-10 0 -10 10v29q0 62 -39 100t-103 38t-103 -38.5t-39 -100.5v-344q0 -62 39.5 -100.5t103.5 -38.5t102.5 37.5t38.5 98.5v122q0 4 -4 4
h-125q-10 0 -10 10v26q0 10 10 10h172q10 0 10 -10v-155q0 -87 -53.5 -138.5t-141.5 -51.5t-141.5 51.5zM228 816q-14 14 -14 36t14 36t36 14t36 -14t14 -36t-14 -36t-36 -14t-36 14z" />
    <glyph glyph-name="gdotaccent" unicode="&#x121;" horiz-adv-x="468" 
d="M358 504h33q10 0 10 -10v-485q0 -218 -229 -209q-10 0 -10 10l1 29q0 10 10 10q92 -3 133.5 37.5t41.5 124.5v44q0 3 -2 3.5t-3 -2.5q-18 -29 -49 -45t-70 -16q-64 0 -106.5 38t-51.5 103q-5 39 -5 116q0 81 6 119q8 63 49.5 102t105.5 39q40 0 71 -16t50 -45
q1 -3 3 -2.5t2 3.5v42q0 10 10 10zM348 252q0 51 -2 107q-4 46 -34.5 76t-77.5 30t-78 -30t-38 -76q-4 -56 -4 -106q0 -56 4 -106q5 -46 37 -75.5t80 -29.5q47 0 77 30t34 75q2 54 2 105zM201 619q-14 14 -14 36t14 36t36 14t36 -14t14 -36t-14 -36t-36 -14t-36 14z" />
    <glyph glyph-name="uni0122" unicode="&#x122;" horiz-adv-x="530" 
d="M123.5 43.5q-53.5 51.5 -53.5 136.5v340q0 85 53.5 136.5t141.5 51.5q58 0 102 -23.5t68.5 -65.5t24.5 -96v-29q0 -10 -10 -10h-33q-10 0 -10 10v29q0 62 -39 100t-103 38t-103 -38.5t-39 -100.5v-344q0 -62 39.5 -100.5t103.5 -38.5t102.5 37.5t38.5 98.5v122q0 4 -4 4
h-125q-10 0 -10 10v26q0 10 10 10h172q10 0 10 -10v-155q0 -87 -53.5 -138.5t-141.5 -51.5t-141.5 51.5zM215 -198.5q-2 3.5 1 8.5l61 110q3 7 12 7h28q6 0 8 -3.5t-1 -8.5l-67 -110q-5 -7 -12 -7h-22q-6 0 -8 3.5z" />
    <glyph glyph-name="uni0123" unicode="&#x123;" horiz-adv-x="468" 
d="M287 694.5q2 -3.5 -1 -8.5l-61 -110q-3 -7 -12 -7h-28q-6 0 -8 3.5t1 8.5l68 110q5 7 12 7h21q6 0 8 -3.5zM358 504h33q10 0 10 -10v-485q0 -218 -229 -209q-10 0 -10 10l1 29q0 10 10 10q92 -3 133.5 37.5t41.5 124.5v44q0 3 -2 3.5t-3 -2.5q-18 -29 -49 -45t-70 -16
q-64 0 -106.5 38t-51.5 103q-5 39 -5 116q0 81 6 119q8 63 49.5 102t105.5 39q40 0 71 -16t50 -45q1 -3 3 -2.5t2 3.5v42q0 10 10 10zM348 252q0 51 -2 107q-4 46 -34.5 76t-77.5 30t-78 -30t-38 -76q-4 -56 -4 -106q0 -56 4 -106q5 -46 37 -75.5t80 -29.5q47 0 77 30t34 75
q2 54 2 105z" />
    <glyph glyph-name="Hcircumflex" unicode="&#x124;" horiz-adv-x="565" 
d="M432 700h33q10 0 10 -10v-680q0 -10 -10 -10h-33q-10 0 -10 10v313q0 4 -4 4h-270q-4 0 -4 -4v-313q0 -10 -10 -10h-33q-10 0 -10 10v680q0 10 10 10h33q10 0 10 -10v-312q0 -4 4 -4h270q4 0 4 4v312q0 10 10 10zM172.5 778q-2.5 4 1.5 8l74 105q4 6 12 6h40q8 0 12 -6
l75 -105q2 -2 2 -6q0 -2 -2 -4t-6 -2h-29q-8 0 -12 6l-56 82q-1 2 -3 2t-3 -2l-57 -82q-4 -6 -12 -6h-28q-6 0 -8.5 4z" />
    <glyph glyph-name="hcircumflex" unicode="&#x125;" horiz-adv-x="478" 
d="M367 467q40 -44 40 -119v-338q0 -10 -10 -10h-33q-10 0 -10 10v330q0 57 -30 90.5t-80 33.5q-52 0 -83 -34.5t-31 -91.5v-328q0 -10 -10 -10h-33q-10 0 -10 10v680q0 10 10 10h33q10 0 10 -10v-239q0 -3 1.5 -3.5t2.5 1.5q20 30 52 46t72 16q69 0 109 -44zM135.5 755
q-2.5 4 1.5 8l74 105q4 6 12 6h40q8 0 12 -6l75 -105q2 -2 2 -6q0 -2 -2 -4t-6 -2h-29q-8 0 -12 6l-56 82q-1 2 -3 2t-3 -2l-57 -82q-4 -6 -12 -6h-28q-6 0 -8.5 4z" />
    <glyph glyph-name="Hbar" unicode="&#x126;" horiz-adv-x="565" 
d="M530 539v-21q0 -10 -10 -10h-41q-4 0 -4 -4v-494q0 -10 -10 -10h-33q-10 0 -10 10v313q0 4 -4 4h-270q-4 0 -4 -4v-313q0 -10 -10 -10h-33q-10 0 -10 10v494q0 4 -4 4h-41q-10 0 -10 10v21q0 10 10 10h41q4 0 4 4v137q0 10 10 10h33q10 0 10 -10v-137q0 -4 4 -4h270
q4 0 4 4v137q0 10 10 10h33q10 0 10 -10v-137q0 -4 4 -4h41q10 0 10 -10zM422 378v126q0 4 -4 4h-270q-4 0 -4 -4v-126q0 -4 4 -4h270q4 0 4 4z" />
    <glyph glyph-name="hbar" unicode="&#x127;" horiz-adv-x="478" 
d="M367 467q40 -44 40 -119v-338q0 -10 -10 -10h-33q-10 0 -10 10v330q0 57 -30 90.5t-80 33.5q-52 0 -83 -34.5t-31 -91.5v-328q0 -10 -10 -10h-33q-10 0 -10 10v544q0 4 -4 4h-51q-10 0 -10 10v17q0 10 10 10h51q4 0 4 4v91q0 10 10 10h33q10 0 10 -10v-91q0 -4 4 -4h153
q10 0 10 -10v-17q0 -10 -10 -10h-153q-4 0 -4 -4v-103q0 -3 1.5 -3.5t2.5 1.5q20 30 52 46t72 16q69 0 109 -44z" />
    <glyph glyph-name="Itilde" unicode="&#x128;" horiz-adv-x="234" 
d="M91 10v680q0 10 10 10h33q10 0 10 -10v-680q0 -10 -10 -10h-33q-10 0 -10 10zM122 831q-3 2 -13 8.5t-18 9.5t-16 3q-16 0 -27.5 -6t-23.5 -21q-6 -9 -14 -3l-12 9q-8 6 -2 14q28 47 76 47q16 0 29 -5.5t30 -16.5q3 -2 13 -8.5t18.5 -10t16.5 -3.5q15 0 27 6.5t23 23.5
q2 4 6 5t8 -2l12 -9q4 -3 4 -7q0 -5 -3 -11q-15 -23 -36 -34t-42 -11q-26 0 -56 22z" />
    <glyph glyph-name="itilde" unicode="&#x129;" horiz-adv-x="184" 
d="M66 10v484q0 10 10 10h33q10 0 10 -10v-484q0 -10 -10 -10h-33q-10 0 -10 10zM97 635q-3 2 -13 8.5t-18 9.5t-16 3q-16 0 -27.5 -6t-23.5 -21q-6 -9 -14 -3l-12 9q-8 6 -2 14q28 47 76 47q16 0 29 -5.5t30 -16.5q3 -2 13 -8.5t18.5 -10t16.5 -3.5q15 0 27 6.5t23 23.5
q2 4 6 5t8 -2l12 -9q4 -3 4 -7q0 -5 -3 -11q-15 -23 -36 -34t-42 -11q-26 0 -56 22z" />
    <glyph glyph-name="Imacron" unicode="&#x12a;" horiz-adv-x="234" 
d="M91 10v680q0 10 10 10h33q10 0 10 -10v-680q0 -10 -10 -10h-33q-10 0 -10 10zM2 804v21q0 10 10 10h210q10 0 10 -10v-21q0 -10 -10 -10h-210q-10 0 -10 10z" />
    <glyph glyph-name="imacron" unicode="&#x12b;" horiz-adv-x="184" 
d="M66 10v484q0 10 10 10h33q10 0 10 -10v-484q0 -10 -10 -10h-33q-10 0 -10 10zM-23 608v21q0 10 10 10h210q10 0 10 -10v-21q0 -10 -10 -10h-210q-10 0 -10 10z" />
    <glyph glyph-name="ibreve" unicode="&#x12d;" horiz-adv-x="184" 
d="M66 10v484q0 10 10 10h33q10 0 10 -10v-484q0 -10 -10 -10h-33q-10 0 -10 10zM19.5 610.5q-30.5 26.5 -34.5 67.5q0 10 10 10h16q10 0 11 -10q3 -27 23 -44t48 -17q27 0 47 17t23 44q1 10 11 10h16q5 0 7.5 -3t1.5 -7q-3 -41 -33 -67.5t-73 -26.5t-73.5 26.5z" />
    <glyph glyph-name="Iogonek" unicode="&#x12e;" horiz-adv-x="204" 
d="M77 10v680q0 10 10 10h33q10 0 10 -10v-680q0 -10 -10 -10h-33q-10 0 -10 10zM150 -171q0 -8 -7 -9q-13 -4 -33 -4q-34 0 -57 18.5t-23 61.5q0 55 53 100q5 4 13 4h16q7 0 8.5 -3.5t-3.5 -8.5q-47 -44 -47 -87v-1q0 -7 1 -11q4 -20 16.5 -29.5t30.5 -9.5q5 0 17 2l5 1
q5 0 7 -8l3 -13v-3z" />
    <glyph glyph-name="iogonek" unicode="&#x12f;" horiz-adv-x="256" 
d="M114 10v484q0 10 10 10h33q10 0 10 -10v-484q0 -10 -10 -10h-33q-10 0 -10 10zM104 619q-14 14 -14 36t14 36t36 14t36 -14t14 -36t-14 -36t-36 -14t-36 14zM187 -171q0 -8 -7 -9q-13 -4 -33 -4q-34 0 -57 18.5t-23 61.5q0 55 53 100q5 4 13 4h16q7 0 8.5 -3.5t-3.5 -8.5
q-47 -44 -47 -87v-1q0 -7 1 -11q4 -20 16.5 -29.5t30.5 -9.5q5 0 17 2l5 1q5 0 7 -8l3 -13v-3z" />
    <glyph glyph-name="Idotaccent" unicode="&#x130;" horiz-adv-x="234" 
d="M91 10v680q0 10 10 10h33q10 0 10 -10v-680q0 -10 -10 -10h-33q-10 0 -10 10zM81 815q-14 14 -14 36t14 36t36 14t36 -14t14 -36t-14 -36t-36 -14t-36 14z" />
    <glyph glyph-name="dotlessi" unicode="&#x131;" horiz-adv-x="184" 
d="M66 10v484q0 10 10 10h33q10 0 10 -10v-484q0 -10 -10 -10h-33q-10 0 -10 10z" />
    <glyph glyph-name="ij" unicode="&#x133;" horiz-adv-x="447" 
d="M79 619q-14 14 -14 36t14 36t36 14t36 -14t14 -36t-14 -36t-36 -14t-36 14zM87 10v484q0 10 10 10h33q10 0 10 -10v-484q0 -10 -10 -10h-33q-10 0 -10 10zM296 619q-14 14 -14 36t14 36t36 14t36 -14t14 -36t-14 -36t-36 -14t-36 14zM202 -199v27q0 10 10 10q46 1 70 29
t24 78l-1 549q0 10 10 10h33q10 0 10 -10v-549q0 -76 -34.5 -114.5t-111.5 -39.5q-10 0 -10 10z" />
    <glyph glyph-name="Jcircumflex" unicode="&#x134;" horiz-adv-x="497" 
d="M79.5 42.5q-51.5 50.5 -51.5 133.5v83q0 10 10 10h33q10 0 10 -10v-84q0 -61 37.5 -98.5t98.5 -37.5t99 37.5t38 98.5v515q0 10 10 10h33q10 0 10 -10v-514q0 -83 -52.5 -133.5t-137.5 -50.5q-86 0 -137.5 50.5zM270.5 778q-2.5 4 1.5 8l74 105q4 6 12 6h40q8 0 12 -6
l75 -105q2 -2 2 -6q0 -2 -2 -4t-6 -2h-29q-8 0 -12 6l-56 82q-1 2 -3 2t-3 -2l-57 -82q-4 -6 -12 -6h-28q-6 0 -8.5 4z" />
    <glyph glyph-name="jcircumflex" unicode="&#x135;" horiz-adv-x="215" 
d="M-26 -199v27q0 10 10 10q46 1 70 29t24 78l-1 549q0 10 10 10h34q10 0 10 -10v-549q0 -76 -35 -114.5t-112 -39.5q-10 0 -10 10zM-5.5 581q-2.5 4 1.5 8l74 105q4 6 12 6h40q8 0 12 -6l75 -105q2 -2 2 -6q0 -2 -2 -4t-6 -2h-29q-8 0 -12 6l-56 82q-1 2 -3 2t-3 -2
l-57 -82q-4 -6 -12 -6h-28q-6 0 -8.5 4z" />
    <glyph glyph-name="uni0136" unicode="&#x136;" horiz-adv-x="524" 
d="M91 10v680q0 10 10 10h33q10 0 10 -10v-348q0 -2 2 -3t3 1l272 354q4 6 13 6h38q6 0 8 -3.5t-2 -8.5l-204 -270q-1 -3 0 -6l223 -400q2 -4 2 -6q0 -6 -9 -6h-38q-7 0 -12 7l-203 362q-2 5 -5 0l-86 -107q-2 -4 -2 -5v-247q0 -10 -10 -10h-33q-10 0 -10 10zM234 -190.5
q-2 3.5 1 8.5l61 110q3 7 12 7h28q6 0 8 -3.5t-1 -8.5l-67 -110q-5 -7 -12 -7h-22q-6 0 -8 3.5z" />
    <glyph glyph-name="uni0137" unicode="&#x137;" horiz-adv-x="443" 
d="M77 10v680q0 10 10 10h33q10 0 10 -10v-423q0 -2 2 -3t3 1l197 233q5 6 12 6h38q6 0 8 -3.5t-2 -8.5l-112 -136q-2 -3 -1 -5l135 -339q1 -2 1 -5q0 -7 -8 -7h-36q-8 0 -11 8l-115 303q-1 2 -3 2.5t-3 -1.5l-103 -122q-2 -4 -2 -5v-175q0 -10 -10 -10h-33q-10 0 -10 10z
M189 -190.5q-2 3.5 1 8.5l61 110q3 7 12 7h28q6 0 8 -3.5t-1 -8.5l-67 -110q-5 -7 -12 -7h-22q-6 0 -8 3.5z" />
    <glyph glyph-name="Lacute" unicode="&#x139;" horiz-adv-x="478" 
d="M91 10v680q0 10 10 10h33q10 0 10 -10v-639q0 -4 4 -4h296q10 0 10 -10v-27q0 -10 -10 -10h-343q-10 0 -10 10zM81 770.5q-2 3.5 1 8.5l61 110q3 7 12 7h28q6 0 8 -3.5t-1 -8.5l-67 -110q-5 -7 -12 -7h-22q-6 0 -8 3.5z" />
    <glyph glyph-name="lacute" unicode="&#x13a;" horiz-adv-x="200" 
d="M74 10v680q0 10 10 10h33q10 0 10 -10v-680q0 -10 -10 -10h-33q-10 0 -10 10zM66 770.5q-2 3.5 1 8.5l61 110q3 7 12 7h28q6 0 8 -3.5t-1 -8.5l-67 -110q-5 -7 -12 -7h-22q-6 0 -8 3.5z" />
    <glyph glyph-name="uni013B" unicode="&#x13b;" horiz-adv-x="478" 
d="M91 10v680q0 10 10 10h33q10 0 10 -10v-639q0 -4 4 -4h296q10 0 10 -10v-27q0 -10 -10 -10h-343q-10 0 -10 10zM194 -190.5q-2 3.5 1 8.5l61 110q3 7 12 7h28q6 0 8 -3.5t-1 -8.5l-67 -110q-5 -7 -12 -7h-22q-6 0 -8 3.5z" />
    <glyph glyph-name="uni013C" unicode="&#x13c;" horiz-adv-x="200" 
d="M74 10v680q0 10 10 10h33q10 0 10 -10v-680q0 -10 -10 -10h-33q-10 0 -10 10zM7 -190.5q-2 3.5 1 8.5l61 110q3 7 12 7h28q6 0 8 -3.5t-1 -8.5l-67 -110q-5 -7 -12 -7h-22q-6 0 -8 3.5z" />
    <glyph glyph-name="Lcaron" unicode="&#x13d;" horiz-adv-x="478" 
d="M91 10v680q0 10 10 10h33q10 0 10 -10v-639q0 -4 4 -4h296q10 0 10 -10v-27q0 -10 -10 -10h-343q-10 0 -10 10zM221 574.5q-2 3.5 1 8.5l61 110q3 7 12 7h28q6 0 8 -3.5t-1 -8.5l-67 -110q-5 -7 -12 -7h-22q-6 0 -8 3.5z" />
    <glyph glyph-name="lcaron" unicode="&#x13e;" horiz-adv-x="327" 
d="M74 10v680q0 10 10 10h33q10 0 10 -10v-680q0 -10 -10 -10h-33q-10 0 -10 10zM175 574.5q-2 3.5 1 8.5l61 110q3 7 12 7h28q6 0 8 -3.5t-1 -8.5l-67 -110q-5 -7 -12 -7h-22q-6 0 -8 3.5z" />
    <glyph glyph-name="ldot" unicode="&#x140;" horiz-adv-x="248" 
d="M98 10v680q0 10 10 10h33q10 0 10 -10v-680q0 -10 -10 -10h-33q-10 0 -10 10zM87 816q-14 14 -14 36t14 36t36 14t36 -14t14 -36t-14 -36t-36 -14t-36 14z" />
    <glyph glyph-name="Lslash" unicode="&#x141;" horiz-adv-x="496" 
d="M166 47h296q10 0 10 -10v-27q0 -10 -10 -10h-343q-10 0 -10 10v248q0 2 -2 3t-3 0l-91 -66q-2 -2 -6 -2q-5 0 -8 4l-15 18q-2 2 -2 6q0 5 4 8l121 86q2 2 2 5v370q0 10 10 10h33q10 0 10 -10v-329q0 -2 1.5 -3t3.5 1l202 145q2 2 6 2q5 0 8 -4l15 -19q2 -3 2 -7t-4 -7
l-232 -165q-2 -2 -2 -5v-248q0 -4 4 -4z" />
    <glyph glyph-name="lslash" unicode="&#x142;" horiz-adv-x="293" 
d="M269 398q0 -4 -6 -9l-92 -55q-3 -1 -3 -5v-319q0 -10 -10 -10h-33q-10 0 -10 10v284q0 2 -1.5 3t-3.5 0l-59 -36l-5 -2q-5 0 -9 6l-11 19q-2 4 -2 6q0 6 5 8l83 50q3 2 3 5v337q0 10 10 10h33q10 0 10 -10v-302q0 -2 1.5 -3t3.5 0l68 42q4 2 6 2q5 0 8 -6l12 -20z" />
    <glyph glyph-name="Nacute" unicode="&#x143;" horiz-adv-x="584" 
d="M450 700h33q10 0 10 -10v-680q0 -10 -10 -10h-36q-9 0 -12 7l-287 574q-2 2 -3.5 1.5t-1.5 -3.5v-569q0 -10 -10 -10h-33q-10 0 -10 10v680q0 10 10 10h36q9 0 12 -7l287 -572q2 -2 3.5 -1.5t1.5 3.5v567q0 10 10 10zM256 774.5q-2 3.5 1 8.5l61 110q3 7 12 7h28
q6 0 8 -3.5t-1 -8.5l-67 -110q-5 -7 -12 -7h-22q-6 0 -8 3.5z" />
    <glyph glyph-name="nacute" unicode="&#x144;" horiz-adv-x="478" 
d="M367 467q40 -44 40 -119v-338q0 -10 -10 -10h-33q-10 0 -10 10v330q0 57 -30 90.5t-80 33.5q-52 0 -83 -34.5t-31 -91.5v-328q0 -10 -10 -10h-33q-10 0 -10 10v484q0 10 10 10h33q10 0 10 -10v-43q0 -3 1.5 -3.5t2.5 1.5q20 30 52 46t72 16q69 0 109 -44zM206 574.5
q-2 3.5 1 8.5l61 110q3 7 12 7h28q6 0 8 -3.5t-1 -8.5l-67 -110q-5 -7 -12 -7h-22q-6 0 -8 3.5z" />
    <glyph glyph-name="uni0145" unicode="&#x145;" horiz-adv-x="584" 
d="M450 700h33q10 0 10 -10v-680q0 -10 -10 -10h-36q-9 0 -12 7l-287 574q-2 2 -3.5 1.5t-1.5 -3.5v-569q0 -10 -10 -10h-33q-10 0 -10 10v680q0 10 10 10h36q9 0 12 -7l287 -572q2 -2 3.5 -1.5t1.5 3.5v567q0 10 10 10zM244 -190.5q-2 3.5 1 8.5l61 110q3 7 12 7h28
q6 0 8 -3.5t-1 -8.5l-67 -110q-5 -7 -12 -7h-22q-6 0 -8 3.5z" />
    <glyph glyph-name="uni0146" unicode="&#x146;" horiz-adv-x="478" 
d="M367 467q40 -44 40 -119v-338q0 -10 -10 -10h-33q-10 0 -10 10v330q0 57 -30 90.5t-80 33.5q-52 0 -83 -34.5t-31 -91.5v-328q0 -10 -10 -10h-33q-10 0 -10 10v484q0 10 10 10h33q10 0 10 -10v-43q0 -3 1.5 -3.5t2.5 1.5q20 30 52 46t72 16q69 0 109 -44zM198 -190.5
q-2 3.5 1 8.5l61 110q3 7 12 7h28q6 0 8 -3.5t-1 -8.5l-67 -110q-5 -7 -12 -7h-22q-6 0 -8 3.5z" />
    <glyph glyph-name="Ncaron" unicode="&#x147;" horiz-adv-x="584" 
d="M450 700h33q10 0 10 -10v-680q0 -10 -10 -10h-36q-9 0 -12 7l-287 574q-2 2 -3.5 1.5t-1.5 -3.5v-569q0 -10 -10 -10h-33q-10 0 -10 10v680q0 10 10 10h36q9 0 12 -7l287 -572q2 -2 3.5 -1.5t1.5 3.5v567q0 10 10 10zM184 893q0 7 9 7h28q8 0 12 -6l57 -83q1 -1 3 -1t3 1
l56 83q4 6 12 6h29q6 0 8 -3.5t-2 -8.5l-75 -105q-4 -6 -12 -6h-40q-8 0 -12 6l-74 105q-2 2 -2 5z" />
    <glyph glyph-name="ncaron" unicode="&#x148;" horiz-adv-x="478" 
d="M367 467q40 -44 40 -119v-338q0 -10 -10 -10h-33q-10 0 -10 10v330q0 57 -30 90.5t-80 33.5q-52 0 -83 -34.5t-31 -91.5v-328q0 -10 -10 -10h-33q-10 0 -10 10v484q0 10 10 10h33q10 0 10 -10v-43q0 -3 1.5 -3.5t2.5 1.5q20 30 52 46t72 16q69 0 109 -44zM134 693
q0 7 9 7h28q8 0 12 -6l57 -83q1 -1 3 -1t3 1l56 83q4 6 12 6h29q6 0 8 -3.5t-2 -8.5l-75 -105q-4 -6 -12 -6h-40q-8 0 -12 6l-74 105q-2 2 -2 5z" />
    <glyph glyph-name="Eng" unicode="&#x14a;" horiz-adv-x="584" 
d="M450 700h33q10 0 10 -10v-690q-1 -52 -11 -83.5t-38 -48.5t-80 -17q-10 0 -10 10v27q0 10 10 10q45 1 59.5 25t14.5 76q0 4 -1 5l-289 577q-2 2 -3.5 1.5t-1.5 -3.5v-569q0 -10 -10 -10h-33q-10 0 -10 10v680q0 10 10 10h36q9 0 12 -7l285 -568q2 -2 3.5 -1.5t1.5 3.5
v399l1 10h1v154q0 10 10 10z" />
    <glyph glyph-name="eng" unicode="&#x14b;" horiz-adv-x="478" 
d="M408 224v0v-238q0 -72 -29 -110t-101 -40q-10 0 -10 10v25q0 10 10 10q77 7 77 104v13v2h-1v340q0 57 -30 90.5t-80 33.5q-52 0 -83 -34.5t-31 -91.5v-328q0 -10 -10 -10h-33q-10 0 -10 10v484q0 10 10 10h33q10 0 10 -10v-43q0 -3 2 -3.5t3 2.5q19 30 51 45.5t72 15.5
q69 0 109 -44t40 -119v-122z" />
    <glyph glyph-name="Omacron" unicode="&#x14c;" horiz-adv-x="537" 
d="M124 46.5q-54 54.5 -54 143.5v320q0 58 24.5 103t69.5 70t103 25q59 0 104.5 -25t70.5 -70t25 -103v-320q0 -59 -25 -104t-70.5 -69.5t-104.5 -24.5q-89 0 -143 54.5zM373.5 80q40.5 41 40.5 107v324q0 67 -40.5 108.5t-106.5 41.5q-65 0 -104.5 -41.5t-39.5 -108.5v-324
q0 -66 40 -107t104 -41q66 0 106.5 41zM153 804v21q0 10 10 10h210q10 0 10 -10v-21q0 -10 -10 -10h-210q-10 0 -10 10z" />
    <glyph glyph-name="omacron" unicode="&#x14d;" horiz-adv-x="470" 
d="M121.5 31q-45.5 39 -53.5 104q-6 41 -6 117q0 77 6 117q8 65 53.5 104t115.5 39q69 0 114.5 -39.5t53.5 -103.5q5 -34 5 -117t-5 -117q-8 -65 -54 -104t-115 -39t-114.5 39zM316.5 68q32.5 29 37.5 77q3 29 3 107t-3 107q-5 48 -37.5 77t-80.5 29t-80 -29t-37 -77
q-3 -29 -3 -107t3 -107q5 -48 37 -77t80 -29t80.5 29zM120 608v21q0 10 10 10h210q10 0 10 -10v-21q0 -10 -10 -10h-210q-10 0 -10 10z" />
    <glyph glyph-name="obreve" unicode="&#x14f;" horiz-adv-x="470" 
d="M121.5 31q-45.5 39 -53.5 104q-6 41 -6 117q0 77 6 117q8 65 53.5 104t115.5 39q69 0 114.5 -39.5t53.5 -103.5q5 -34 5 -117t-5 -117q-8 -65 -54 -104t-115 -39t-114.5 39zM316.5 68q32.5 29 37.5 77q3 29 3 107t-3 107q-5 48 -37.5 77t-80.5 29t-80 -29t-37 -77
q-3 -29 -3 -107t3 -107q5 -48 37 -77t80 -29t80.5 29zM161.5 610.5q-30.5 26.5 -34.5 67.5q0 10 10 10h16q10 0 11 -10q3 -27 23 -44t48 -17q27 0 47 17t23 44q1 10 11 10h16q5 0 7.5 -3t1.5 -7q-3 -41 -33 -67.5t-73 -26.5t-73.5 26.5z" />
    <glyph glyph-name="Ohungarumlaut" unicode="&#x150;" horiz-adv-x="537" 
d="M124 46.5q-54 54.5 -54 143.5v320q0 58 24.5 103t69.5 70t103 25q59 0 104.5 -25t70.5 -70t25 -103v-320q0 -59 -25 -104t-70.5 -69.5t-104.5 -24.5q-89 0 -143 54.5zM373.5 80q40.5 41 40.5 107v324q0 67 -40.5 108.5t-106.5 41.5q-65 0 -104.5 -41.5t-39.5 -108.5v-324
q0 -66 40 -107t104 -41q66 0 106.5 41zM176.5 770.5q-2.5 3.5 0.5 8.5l59 110q3 7 12 7h28q6 0 8 -3.5t-1 -8.5l-61 -110q-4 -7 -12 -7h-26q-5 0 -7.5 3.5zM314.5 770.5q-2.5 3.5 0.5 8.5l60 110q3 7 12 7h27q6 0 8 -3.5t-1 -8.5l-61 -110q-4 -7 -12 -7h-25q-6 0 -8.5 3.5z
" />
    <glyph glyph-name="ohungarumlaut" unicode="&#x151;" horiz-adv-x="470" 
d="M121.5 31q-45.5 39 -53.5 104q-6 41 -6 117q0 77 6 117q8 65 53.5 104t115.5 39q69 0 114.5 -39.5t53.5 -103.5q5 -34 5 -117t-5 -117q-8 -65 -54 -104t-115 -39t-114.5 39zM316.5 68q32.5 29 37.5 77q3 29 3 107t-3 107q-5 48 -37.5 77t-80.5 29t-80 -29t-37 -77
q-3 -29 -3 -107t3 -107q5 -48 37 -77t80 -29t80.5 29zM143.5 574.5q-2.5 3.5 0.5 8.5l59 110q3 7 12 7h28q6 0 8 -3.5t-1 -8.5l-61 -110q-4 -7 -12 -7h-26q-5 0 -7.5 3.5zM281.5 574.5q-2.5 3.5 0.5 8.5l60 110q3 7 12 7h27q6 0 8 -3.5t-1 -8.5l-61 -110q-4 -7 -12 -7h-25
q-6 0 -8.5 3.5z" />
    <glyph glyph-name="OE" unicode="&#x152;" horiz-adv-x="802" 
d="M738 653h-283q-4 0 -4 -4v-271q0 -4 4 -4h186q10 0 10 -10v-27q0 -10 -10 -10h-186q-4 0 -4 -4v-272q0 -4 4 -4h283q10 0 10 -10v-27q0 -10 -10 -10h-330q-10 0 -10 10v47q0 2 -1.5 2.5t-3.5 -1.5q-24 -32 -61 -49t-82 -17q-52 0 -93 24t-64 67t-23 98v337q0 55 23 98
t64 67.5t93 24.5q45 0 82 -17.5t61 -49.5q2 -2 3.5 -1t1.5 3v47q0 10 10 10h330q10 0 10 -10v-27q0 -10 -10 -10zM359.5 78.5q38.5 39.5 38.5 100.5v341q0 61 -38.5 101t-100.5 40q-60 0 -98 -40t-38 -101v-341q0 -61 38 -100.5t98 -39.5q62 0 100.5 39.5z" />
    <glyph glyph-name="oe" unicode="&#x153;" horiz-adv-x="752" 
d="M597.5 60.5q30.5 21.5 41.5 57.5q3 9 12 7l27 -6q5 -1 6.5 -4.5t0.5 -7.5q-14 -53 -57 -84t-104 -31q-48 0 -84.5 22t-58.5 61q-3 5 -6 0q-21 -38 -58 -60.5t-85 -22.5q-68 0 -112.5 39.5t-52.5 103.5q-5 34 -5 117q0 76 5 117q8 64 52.5 103.5t112.5 39.5q48 0 85 -22.5
t59 -60.5q3 -4 6 0q21 38 57.5 60.5t83.5 22.5q68 0 113.5 -39.5t53.5 -103.5q4 -33 4 -121q0 -10 -10 -10h-274q-4 0 -4 -4q0 -53 3 -89q5 -48 36.5 -77t81.5 -29q40 0 70.5 21.5zM350 252q0 79 -3 107q-5 47 -36 76.5t-79 29.5q-47 0 -78 -29.5t-36 -76.5q-3 -43 -3 -107
q0 -65 3 -107q5 -48 36 -77t78 -29q48 0 79 29.5t36 76.5q3 28 3 107zM445 435.5q-31 -29.5 -36 -76.5q-3 -33 -3 -78q0 -4 4 -4h227q4 0 4 4q0 56 -2 78q-5 47 -36.5 76.5t-79.5 29.5q-47 0 -78 -29.5z" />
    <glyph glyph-name="Racute" unicode="&#x154;" horiz-adv-x="524" 
d="M427 8l-131 317q-1 3 -4 3h-144q-4 0 -4 -4v-314q0 -10 -10 -10h-33q-10 0 -10 10v680q0 10 10 10h203q77 0 124.5 -52t47.5 -136q0 -70 -34 -117.5t-93 -61.5q-4 -2 -2 -5l133 -316l1 -4q0 -8 -9 -8h-34q-8 0 -11 8zM144 649v-273q0 -4 4 -4h151q56 0 90 38.5t34 101.5
t-34.5 102t-89.5 39h-151q-4 0 -4 -4zM227 770.5q-2 3.5 1 8.5l61 110q3 7 12 7h28q6 0 8 -3.5t-1 -8.5l-67 -110q-5 -7 -12 -7h-22q-6 0 -8 3.5z" />
    <glyph glyph-name="racute" unicode="&#x155;" horiz-adv-x="322" 
d="M301 497q7 -3 5 -12l-9 -34q-3 -10 -13 -6q-16 7 -33 7l-11 -1q-48 -1 -79 -41t-31 -99v-301q0 -10 -10 -10h-33q-10 0 -10 10v484q0 10 10 10h33q10 0 10 -10v-67q0 -3 2 -3t3 3q17 38 46.5 59.5t68.5 21.5q31 0 51 -11zM159 574.5q-2 3.5 1 8.5l61 110q3 7 12 7h28
q6 0 8 -3.5t-1 -8.5l-67 -110q-5 -7 -12 -7h-22q-6 0 -8 3.5z" />
    <glyph glyph-name="uni0156" unicode="&#x156;" horiz-adv-x="524" 
d="M427 8l-131 317q-1 3 -4 3h-144q-4 0 -4 -4v-314q0 -10 -10 -10h-33q-10 0 -10 10v680q0 10 10 10h203q77 0 124.5 -52t47.5 -136q0 -70 -34 -117.5t-93 -61.5q-4 -2 -2 -5l133 -316l1 -4q0 -8 -9 -8h-34q-8 0 -11 8zM144 649v-273q0 -4 4 -4h151q56 0 90 38.5t34 101.5
t-34.5 102t-89.5 39h-151q-4 0 -4 -4zM226 -190.5q-2 3.5 1 8.5l61 110q3 7 12 7h28q6 0 8 -3.5t-1 -8.5l-67 -110q-5 -7 -12 -7h-22q-6 0 -8 3.5z" />
    <glyph glyph-name="uni0157" unicode="&#x157;" horiz-adv-x="322" 
d="M301 497q7 -3 5 -12l-9 -34q-3 -10 -13 -6q-16 7 -33 7l-11 -1q-48 -1 -79 -41t-31 -99v-301q0 -10 -10 -10h-33q-10 0 -10 10v484q0 10 10 10h33q10 0 10 -10v-67q0 -3 2 -3t3 3q17 38 46.5 59.5t68.5 21.5q31 0 51 -11zM10 -190.5q-2 3.5 1 8.5l61 110q3 7 12 7h28
q6 0 8 -3.5t-1 -8.5l-67 -110q-5 -7 -12 -7h-22q-6 0 -8 3.5z" />
    <glyph glyph-name="Rcaron" unicode="&#x158;" horiz-adv-x="524" 
d="M427 8l-131 317q-1 3 -4 3h-144q-4 0 -4 -4v-314q0 -10 -10 -10h-33q-10 0 -10 10v680q0 10 10 10h203q77 0 124.5 -52t47.5 -136q0 -70 -34 -117.5t-93 -61.5q-4 -2 -2 -5l133 -316l1 -4q0 -8 -9 -8h-34q-8 0 -11 8zM144 649v-273q0 -4 4 -4h151q56 0 90 38.5t34 101.5
t-34.5 102t-89.5 39h-151q-4 0 -4 -4zM155 889q0 7 9 7h28q8 0 12 -6l57 -83q1 -1 3 -1t3 1l56 83q4 6 12 6h29q6 0 8 -3.5t-2 -8.5l-75 -105q-4 -6 -12 -6h-40q-8 0 -12 6l-74 105q-2 2 -2 5z" />
    <glyph glyph-name="rcaron" unicode="&#x159;" horiz-adv-x="322" 
d="M301 497q7 -3 5 -12l-9 -34q-3 -10 -13 -6q-16 7 -33 7l-11 -1q-48 -1 -79 -41t-31 -99v-301q0 -10 -10 -10h-33q-10 0 -10 10v484q0 10 10 10h33q10 0 10 -10v-67q0 -3 2 -3t3 3q17 38 46.5 59.5t68.5 21.5q31 0 51 -11zM87 693q0 7 9 7h28q8 0 12 -6l57 -83q1 -1 3 -1
t3 1l56 83q4 6 12 6h29q6 0 8 -3.5t-2 -8.5l-75 -105q-4 -6 -12 -6h-40q-8 0 -12 6l-74 105q-2 2 -2 5z" />
    <glyph glyph-name="Sacute" unicode="&#x15a;" horiz-adv-x="495" 
d="M105 41q-54 49 -54 129v27q0 10 10 10h31q10 0 10 -10v-24q0 -60 40.5 -97t108.5 -37q65 0 102.5 34.5t37.5 92.5q0 37 -17 64.5t-49.5 50.5t-92.5 55q-64 35 -98 59.5t-55 59t-21 85.5q0 79 49.5 123.5t133.5 44.5q91 0 144 -49.5t53 -131.5v-24q0 -10 -10 -10h-33
q-10 0 -10 10v22q0 62 -39 99t-106 37q-61 0 -95.5 -31.5t-34.5 -89.5q0 -37 15.5 -62t45 -45t90.5 -53q67 -37 104.5 -64t58 -61.5t20.5 -83.5q0 -81 -52.5 -130t-141.5 -49q-91 0 -145 49zM206 770.5q-2 3.5 1 8.5l61 110q3 7 12 7h28q6 0 8 -3.5t-1 -8.5l-67 -110
q-5 -7 -12 -7h-22q-6 0 -8 3.5z" />
    <glyph glyph-name="sacute" unicode="&#x15b;" horiz-adv-x="422" 
d="M98.5 31.5q-45.5 36.5 -45.5 92.5v9q0 10 10 10h32q10 0 10 -10v-8q0 -36 31 -61.5t80 -25.5t78.5 25.5t29.5 65.5q0 29 -16 47t-39 29t-65 26q-46 16 -76.5 31t-51 42.5t-20.5 69.5q0 62 43.5 98t114.5 36q72 0 115.5 -37.5t43.5 -95.5v-3q0 -10 -10 -10h-30
q-10 0 -10 10v4q0 38 -30.5 63t-79.5 25q-48 0 -76.5 -24t-28.5 -63q0 -27 15 -45t37.5 -29t62.5 -25q49 -17 79.5 -32t52.5 -43t22 -71q0 -62 -43.5 -99.5t-116.5 -37.5t-118.5 36.5zM179 574.5q-2 3.5 1 8.5l61 110q3 7 12 7h28q6 0 8 -3.5t-1 -8.5l-67 -110q-5 -7 -12 -7
h-22q-6 0 -8 3.5z" />
    <glyph glyph-name="Scircumflex" unicode="&#x15c;" horiz-adv-x="495" 
d="M105 41q-54 49 -54 129v27q0 10 10 10h31q10 0 10 -10v-24q0 -60 40.5 -97t108.5 -37q65 0 102.5 34.5t37.5 92.5q0 37 -17 64.5t-49.5 50.5t-92.5 55q-64 35 -98 59.5t-55 59t-21 85.5q0 79 49.5 123.5t133.5 44.5q91 0 144 -49.5t53 -131.5v-24q0 -10 -10 -10h-33
q-10 0 -10 10v22q0 62 -39 99t-106 37q-61 0 -95.5 -31.5t-34.5 -89.5q0 -37 15.5 -62t45 -45t90.5 -53q67 -37 104.5 -64t58 -61.5t20.5 -83.5q0 -81 -52.5 -130t-141.5 -49q-91 0 -145 49zM132.5 777q-2.5 4 1.5 8l74 105q4 6 12 6h40q8 0 12 -6l75 -105q2 -2 2 -6
q0 -2 -2 -4t-6 -2h-29q-8 0 -12 6l-56 82q-1 2 -3 2t-3 -2l-57 -82q-4 -6 -12 -6h-28q-6 0 -8.5 4z" />
    <glyph glyph-name="scircumflex" unicode="&#x15d;" horiz-adv-x="422" 
d="M98.5 31.5q-45.5 36.5 -45.5 92.5v9q0 10 10 10h32q10 0 10 -10v-8q0 -36 31 -61.5t80 -25.5t78.5 25.5t29.5 65.5q0 29 -16 47t-39 29t-65 26q-46 16 -76.5 31t-51 42.5t-20.5 69.5q0 62 43.5 98t114.5 36q72 0 115.5 -37.5t43.5 -95.5v-3q0 -10 -10 -10h-30
q-10 0 -10 10v4q0 38 -30.5 63t-79.5 25q-48 0 -76.5 -24t-28.5 -63q0 -27 15 -45t37.5 -29t62.5 -25q49 -17 79.5 -32t52.5 -43t22 -71q0 -62 -43.5 -99.5t-116.5 -37.5t-118.5 36.5zM104.5 581q-2.5 4 1.5 8l74 105q4 6 12 6h40q8 0 12 -6l75 -105q2 -2 2 -6q0 -2 -2 -4
t-6 -2h-29q-8 0 -12 6l-56 82q-1 2 -3 2t-3 -2l-57 -82q-4 -6 -12 -6h-28q-6 0 -8.5 4z" />
    <glyph glyph-name="Scedilla" unicode="&#x15e;" horiz-adv-x="495" 
d="M399 47.5q-45 -47.5 -124 -54.5q-7 0 -2 -5q46 -42 46 -93q0 -15 -2 -22q-7 -31 -29 -45t-51 -14q-11 0 -31 4q-8 1 -7 11l2 15q1 5 4.5 6.5t7.5 0.5q12 -2 17 -2q19 0 31.5 9.5t15.5 29.5q1 4 1 13q0 44 -50 90q-1 2 -5 2q-79 8 -125.5 55.5t-46.5 121.5v27q0 10 10 10
h31q10 0 10 -10v-24q0 -60 40.5 -97t108.5 -37q65 0 102.5 34.5t37.5 92.5q0 37 -17 64.5t-49.5 50.5t-92.5 55q-64 35 -98 59.5t-55 59t-21 85.5q0 79 49.5 123.5t133.5 44.5q91 0 144 -49.5t53 -131.5v-24q0 -10 -10 -10h-33q-10 0 -10 10v22q0 62 -39 99t-106 37
q-61 0 -95.5 -31.5t-34.5 -89.5q0 -37 15.5 -62t45 -45t90.5 -53q67 -37 104.5 -64t58 -61.5t20.5 -83.5q0 -76 -45 -123.5z" />
    <glyph glyph-name="scedilla" unicode="&#x15f;" horiz-adv-x="422" 
d="M341.5 40.5q-35.5 -36.5 -96.5 -43.5q-7 -2 -2 -5q47 -41 47 -93q0 -44 -22.5 -62.5t-57.5 -18.5q-13 0 -33 4q-8 1 -7 11l2 14q1 5 4.5 6.5t7.5 0.5q12 -2 17 -2q22 0 35.5 12.5t13.5 39.5q0 43 -51 90q-1 2 -5 2q-64 6 -102.5 41.5t-38.5 86.5v9q0 10 10 10h32
q10 0 10 -10v-8q0 -36 31 -61.5t80 -25.5t78.5 25.5t29.5 65.5q0 29 -16 47t-39 29t-65 26q-46 16 -76.5 31t-51 42.5t-20.5 69.5q0 62 43.5 98t114.5 36q72 0 115.5 -37.5t43.5 -95.5v-3q0 -10 -10 -10h-30q-10 0 -10 10v4q0 38 -30.5 63t-79.5 25q-48 0 -76.5 -24
t-28.5 -63q0 -27 15 -45t37.5 -29t62.5 -25q49 -17 79.5 -32t52.5 -43t22 -71q0 -55 -35.5 -91.5z" />
    <glyph glyph-name="Scaron" unicode="&#x160;" horiz-adv-x="495" 
d="M105 41q-54 49 -54 129v27q0 10 10 10h31q10 0 10 -10v-24q0 -60 40.5 -97t108.5 -37q65 0 102.5 34.5t37.5 92.5q0 37 -17 64.5t-49.5 50.5t-92.5 55q-64 35 -98 59.5t-55 59t-21 85.5q0 79 49.5 123.5t133.5 44.5q91 0 144 -49.5t53 -131.5v-24q0 -10 -10 -10h-33
q-10 0 -10 10v22q0 62 -39 99t-106 37q-61 0 -95.5 -31.5t-34.5 -89.5q0 -37 15.5 -62t45 -45t90.5 -53q67 -37 104.5 -64t58 -61.5t20.5 -83.5q0 -81 -52.5 -130t-141.5 -49q-91 0 -145 49zM134 889q0 7 9 7h28q8 0 12 -6l57 -83q1 -1 3 -1t3 1l56 83q4 6 12 6h29
q6 0 8 -3.5t-2 -8.5l-75 -105q-4 -6 -12 -6h-40q-8 0 -12 6l-74 105q-2 2 -2 5z" />
    <glyph glyph-name="scaron" unicode="&#x161;" horiz-adv-x="422" 
d="M98.5 31.5q-45.5 36.5 -45.5 92.5v9q0 10 10 10h32q10 0 10 -10v-8q0 -36 31 -61.5t80 -25.5t78.5 25.5t29.5 65.5q0 29 -16 47t-39 29t-65 26q-46 16 -76.5 31t-51 42.5t-20.5 69.5q0 62 43.5 98t114.5 36q72 0 115.5 -37.5t43.5 -95.5v-3q0 -10 -10 -10h-30
q-10 0 -10 10v4q0 38 -30.5 63t-79.5 25q-48 0 -76.5 -24t-28.5 -63q0 -27 15 -45t37.5 -29t62.5 -25q49 -17 79.5 -32t52.5 -43t22 -71q0 -62 -43.5 -99.5t-116.5 -37.5t-118.5 36.5zM107 693q0 7 9 7h28q8 0 12 -6l57 -83q1 -1 3 -1t3 1l56 83q4 6 12 6h29q6 0 8 -3.5
t-2 -8.5l-75 -105q-4 -6 -12 -6h-40q-8 0 -12 6l-74 105q-2 2 -2 5z" />
    <glyph glyph-name="uni0162" unicode="&#x162;" horiz-adv-x="488" 
d="M446 690v-27q0 -10 -10 -10h-166q-4 0 -4 -4v-639q0 -10 -10 -10h-33q-10 0 -10 10v639q0 4 -4 4h-157q-10 0 -10 10v27q0 10 10 10h384q10 0 10 -10zM205 -169l2 14q1 5 4.5 6.5t7.5 0.5q12 -2 17 -2q22 0 35.5 12t13.5 38q0 44 -46 88q-4 3 -4 7q0 5 8 5h16q8 0 13 -4
q53 -46 53 -99q0 -44 -22.5 -62.5t-57.5 -18.5q-13 0 -33 4q-8 1 -7 11z" />
    <glyph glyph-name="uni0163" unicode="&#x163;" horiz-adv-x="310" 
d="M229 -1.5q-1 -1.5 1 -3.5q35 -39 35 -82q0 -7 -2 -21q-7 -31 -28.5 -45t-50.5 -14q-20 0 -33 4q-9 1 -7 12l3 13q1 10 12 7q12 -2 17 -2q21 0 34.5 12.5t13.5 38.5q0 41 -43 84q0 1 -5 3q-38 8 -57.5 35.5t-19.5 83.5v333q0 4 -4 4h-51q-10 0 -10 10v23q0 10 10 10h51
q4 0 4 4v113q0 10 10 10h32q10 0 10 -10v-113q0 -4 4 -4h99q10 0 10 -10v-23q0 -10 -10 -10h-99q-4 0 -4 -4v-320q0 -51 20 -70.5t64 -19.5h17q10 0 10 -10v-27q0 -10 -10 -10h-20q-2 0 -3 -1.5z" />
    <glyph glyph-name="Tcaron" unicode="&#x164;" horiz-adv-x="488" 
d="M446 690v-27q0 -10 -10 -10h-166q-4 0 -4 -4v-639q0 -10 -10 -10h-33q-10 0 -10 10v639q0 4 -4 4h-157q-10 0 -10 10v27q0 10 10 10h384q10 0 10 -10zM132 887q0 7 9 7h28q8 0 12 -6l57 -83q1 -1 3 -1t3 1l56 83q4 6 12 6h29q6 0 8 -3.5t-2 -8.5l-75 -105q-4 -6 -12 -6
h-40q-8 0 -12 6l-74 105q-2 2 -2 5z" />
    <glyph glyph-name="tcaron" unicode="&#x165;" horiz-adv-x="310" 
d="M254 461h-99q-4 0 -4 -4v-320q0 -51 20 -70.5t64 -19.5h17q10 0 10 -10v-27q0 -10 -10 -10h-26q-63 0 -95 26.5t-32 97.5v333q0 4 -4 4h-51q-10 0 -10 10v23q0 10 10 10h51q4 0 4 4v113q0 10 10 10h32q10 0 10 -10v-113q0 -4 4 -4h99q10 0 10 -10v-23q0 -10 -10 -10z
M194 574.5q-2 3.5 1 8.5l61 110q3 7 12 7h28q6 0 8 -3.5t-1 -8.5l-67 -110q-5 -7 -12 -7h-22q-6 0 -8 3.5z" />
    <glyph glyph-name="Tbar" unicode="&#x166;" horiz-adv-x="488" 
d="M436 653h-166q-4 0 -4 -4v-225q0 -4 4 -4h99q10 0 10 -10v-17q0 -10 -10 -10h-99q-4 0 -4 -4v-369q0 -10 -10 -10h-33q-10 0 -10 10v369q0 4 -4 4h-104q-10 0 -10 10v17q0 10 10 10h104q4 0 4 4v225q0 4 -4 4h-157q-10 0 -10 10v27q0 10 10 10h384q10 0 10 -10v-27
q0 -10 -10 -10z" />
    <glyph glyph-name="tbar" unicode="&#x167;" horiz-adv-x="310" 
d="M254 461h-99q-4 0 -4 -4v-105q0 -4 4 -4h96q10 0 10 -10v-18q0 -10 -10 -10h-96q-4 0 -4 -4v-169q0 -51 20 -70.5t64 -19.5h17q10 0 10 -10v-27q0 -10 -10 -10h-26q-63 0 -95 26.5t-32 97.5v182q0 4 -4 4h-46q-10 0 -10 10v18q0 10 10 10h46q4 0 4 4v105q0 4 -4 4h-51
q-10 0 -10 10v23q0 10 10 10h51q4 0 4 4v113q0 10 10 10h32q10 0 10 -10v-113q0 -4 4 -4h99q10 0 10 -10v-23q0 -10 -10 -10z" />
    <glyph glyph-name="Utilde" unicode="&#x168;" horiz-adv-x="564" 
d="M178 17.5q-45 25.5 -69.5 72t-24.5 107.5v493q0 10 10 10h33q10 0 10 -10v-497q0 -69 39.5 -111.5t105.5 -42.5q65 0 105 42.5t40 111.5v497q0 10 10 10h33q10 0 10 -10v-493q0 -61 -24.5 -107.5t-69.5 -72t-104 -25.5t-104 25.5zM286 831q-3 2 -13 8.5t-18 9.5t-16 3
q-16 0 -27.5 -6t-23.5 -21q-6 -9 -14 -3l-12 9q-8 6 -2 14q28 47 76 47q16 0 29 -5.5t30 -16.5q3 -2 13 -8.5t18.5 -10t16.5 -3.5q15 0 27 6.5t23 23.5q2 4 6 5t8 -2l12 -9q4 -3 4 -7q0 -5 -3 -11q-15 -23 -36 -34t-42 -11q-26 0 -56 22z" />
    <glyph glyph-name="utilde" unicode="&#x169;" horiz-adv-x="477" 
d="M357 504h33q10 0 10 -10v-484q0 -10 -10 -10h-33q-10 0 -10 10v43q0 3 -1.5 3t-3.5 -2q-18 -30 -49 -45.5t-72 -15.5q-68 0 -109.5 40.5t-41.5 115.5v345q0 10 10 10h33q10 0 10 -10v-332q0 -58 29 -90t80 -32q53 0 84 34t31 92v328q0 10 10 10zM241 635q-3 2 -13 8.5
t-18 9.5t-16 3q-16 0 -27.5 -6t-23.5 -21q-6 -9 -14 -3l-12 9q-8 6 -2 14q28 47 76 47q16 0 29 -5.5t30 -16.5q3 -2 13 -8.5t18.5 -10t16.5 -3.5q15 0 27 6.5t23 23.5q2 4 6 5t8 -2l12 -9q4 -3 4 -7q0 -5 -3 -11q-15 -23 -36 -34t-42 -11q-26 0 -56 22z" />
    <glyph glyph-name="Umacron" unicode="&#x16a;" horiz-adv-x="564" 
d="M178 17.5q-45 25.5 -69.5 72t-24.5 107.5v493q0 10 10 10h33q10 0 10 -10v-497q0 -69 39.5 -111.5t105.5 -42.5q65 0 105 42.5t40 111.5v497q0 10 10 10h33q10 0 10 -10v-493q0 -61 -24.5 -107.5t-69.5 -72t-104 -25.5t-104 25.5zM167 804v21q0 10 10 10h210q10 0 10 -10
v-21q0 -10 -10 -10h-210q-10 0 -10 10z" />
    <glyph glyph-name="umacron" unicode="&#x16b;" horiz-adv-x="477" 
d="M357 504h33q10 0 10 -10v-484q0 -10 -10 -10h-33q-10 0 -10 10v43q0 3 -1.5 3t-3.5 -2q-18 -30 -49 -45.5t-72 -15.5q-68 0 -109.5 40.5t-41.5 115.5v345q0 10 10 10h33q10 0 10 -10v-332q0 -58 29 -90t80 -32q53 0 84 34t31 92v328q0 10 10 10zM122 608v21q0 10 10 10
h210q10 0 10 -10v-21q0 -10 -10 -10h-210q-10 0 -10 10z" />
    <glyph glyph-name="Ubreve" unicode="&#x16c;" horiz-adv-x="564" 
d="M178 17.5q-45 25.5 -69.5 72t-24.5 107.5v493q0 10 10 10h33q10 0 10 -10v-497q0 -69 39.5 -111.5t105.5 -42.5q65 0 105 42.5t40 111.5v497q0 10 10 10h33q10 0 10 -10v-493q0 -61 -24.5 -107.5t-69.5 -72t-104 -25.5t-104 25.5zM208.5 807.5q-30.5 26.5 -34.5 67.5
q0 10 10 10h16q10 0 11 -10q3 -27 23 -44t48 -17q27 0 47 17t23 44q1 10 11 10h16q5 0 7.5 -3t1.5 -7q-3 -41 -33 -67.5t-73 -26.5t-73.5 26.5z" />
    <glyph glyph-name="ubreve" unicode="&#x16d;" horiz-adv-x="477" 
d="M357 504h33q10 0 10 -10v-484q0 -10 -10 -10h-33q-10 0 -10 10v43q0 3 -1.5 3t-3.5 -2q-18 -30 -49 -45.5t-72 -15.5q-68 0 -109.5 40.5t-41.5 115.5v345q0 10 10 10h33q10 0 10 -10v-332q0 -58 29 -90t80 -32q53 0 84 34t31 92v328q0 10 10 10zM163.5 610.5
q-30.5 26.5 -34.5 67.5q0 10 10 10h16q10 0 11 -10q3 -27 23 -44t48 -17q27 0 47 17t23 44q1 10 11 10h16q5 0 7.5 -3t1.5 -7q-3 -41 -33 -67.5t-73 -26.5t-73.5 26.5z" />
    <glyph glyph-name="Uring" unicode="&#x16e;" horiz-adv-x="564" 
d="M178 17.5q-45 25.5 -69.5 72t-24.5 107.5v493q0 10 10 10h33q10 0 10 -10v-497q0 -69 39.5 -111.5t105.5 -42.5q65 0 105 42.5t40 111.5v497q0 10 10 10h33q10 0 10 -10v-493q0 -61 -24.5 -107.5t-69.5 -72t-104 -25.5t-104 25.5zM209 809q-30 30 -30 74t30 74t73 30
q44 0 74 -30t30 -74t-30 -74t-74 -30q-43 0 -73 30zM331 834q20 20 20 49t-20 49t-49 20q-28 0 -48 -20t-20 -49t20 -49t48 -20q29 0 49 20z" />
    <glyph glyph-name="uring" unicode="&#x16f;" horiz-adv-x="477" 
d="M357 504h33q10 0 10 -10v-484q0 -10 -10 -10h-33q-10 0 -10 10v43q0 3 -1.5 3t-3.5 -2q-18 -30 -49 -45.5t-72 -15.5q-68 0 -109.5 40.5t-41.5 115.5v345q0 10 10 10h33q10 0 10 -10v-332q0 -58 29 -90t80 -32q53 0 84 34t31 92v328q0 10 10 10zM164 613q-30 30 -30 74
t30 74t73 30q44 0 74 -30t30 -74t-30 -74t-74 -30q-43 0 -73 30zM286 638q20 20 20 49t-20 49t-49 20q-28 0 -48 -20t-20 -49t20 -49t48 -20q29 0 49 20z" />
    <glyph glyph-name="Uhungarumlaut" unicode="&#x170;" horiz-adv-x="564" 
d="M178 17.5q-45 25.5 -69.5 72t-24.5 107.5v493q0 10 10 10h33q10 0 10 -10v-497q0 -69 39.5 -111.5t105.5 -42.5q65 0 105 42.5t40 111.5v497q0 10 10 10h33q10 0 10 -10v-493q0 -61 -24.5 -107.5t-69.5 -72t-104 -25.5t-104 25.5zM190.5 770.5q-2.5 3.5 0.5 8.5l59 110
q3 7 12 7h28q6 0 8 -3.5t-1 -8.5l-61 -110q-4 -7 -12 -7h-26q-5 0 -7.5 3.5zM328.5 770.5q-2.5 3.5 0.5 8.5l60 110q3 7 12 7h27q6 0 8 -3.5t-1 -8.5l-61 -110q-4 -7 -12 -7h-25q-6 0 -8.5 3.5z" />
    <glyph glyph-name="uhungarumlaut" unicode="&#x171;" horiz-adv-x="477" 
d="M357 504h33q10 0 10 -10v-484q0 -10 -10 -10h-33q-10 0 -10 10v43q0 3 -1.5 3t-3.5 -2q-18 -30 -49 -45.5t-72 -15.5q-68 0 -109.5 40.5t-41.5 115.5v345q0 10 10 10h33q10 0 10 -10v-332q0 -58 29 -90t80 -32q53 0 84 34t31 92v328q0 10 10 10zM145.5 574.5
q-2.5 3.5 0.5 8.5l59 110q3 7 12 7h28q6 0 8 -3.5t-1 -8.5l-61 -110q-4 -7 -12 -7h-26q-5 0 -7.5 3.5zM283.5 574.5q-2.5 3.5 0.5 8.5l60 110q3 7 12 7h27q6 0 8 -3.5t-1 -8.5l-61 -110q-4 -7 -12 -7h-25q-6 0 -8.5 3.5z" />
    <glyph glyph-name="Uogonek" unicode="&#x172;" horiz-adv-x="564" 
d="M437 700h33q10 0 10 -10v-493q0 -87 -49.5 -143t-131.5 -62q-3 0 -5 -2q-42 -44 -42 -82q0 -8 1 -12q3 -21 15.5 -30.5t31.5 -9.5q5 0 17 2l4 1q6 0 8 -8l2 -14v-3q0 -7 -7 -8q-20 -4 -32 -4q-29 0 -50.5 14t-28.5 45q-2 14 -2 22q0 46 40 86q3 3 -2 5q-76 11 -120.5 65
t-44.5 138v493q0 10 10 10h33q10 0 10 -10v-497q0 -69 39.5 -111.5t105.5 -42.5q65 0 105 42.5t40 111.5v497q0 10 10 10z" />
    <glyph glyph-name="uogonek" unicode="&#x173;" horiz-adv-x="477" 
d="M411 -147q6 0 8 -8l2 -14v-3q0 -7 -7 -8q-13 -4 -33 -4q-34 0 -57 19t-23 62q0 52 53 98q2 1 3 2.5t0 2.5q-10 0 -10 10v43q0 3 -1.5 3t-3.5 -2q-18 -30 -49 -45.5t-72 -15.5q-68 0 -109.5 40.5t-41.5 115.5v345q0 10 10 10h33q10 0 10 -10v-332q0 -58 29 -90t80 -32
q53 0 84 34t31 92v328q0 10 10 10h33q10 0 10 -10v-494l-5 -5q-54 -48 -54 -93q0 -27 13.5 -39.5t34.5 -12.5q6 0 18 2z" />
    <glyph glyph-name="Wcircumflex" unicode="&#x174;" horiz-adv-x="747" 
d="M193 9l-162 680l-1 4q0 7 9 7h35q9 0 11 -9l133 -575q1 -3 2.5 -3t2.5 3l121 575q2 9 11 9h33q10 0 11 -9l125 -575q1 -3 2 -3t2 3l130 575q2 9 11 9h35q5 0 7.5 -3t0.5 -8l-159 -680q-2 -9 -11 -9h-34q-9 0 -11 9l-123 580q-1 3 -2 3t-2 -3l-122 -580q-1 -9 -11 -9h-33
q-9 0 -11 9zM264.5 777q-2.5 4 1.5 8l74 105q4 6 12 6h40q8 0 12 -6l75 -105q2 -2 2 -6q0 -2 -2 -4t-6 -2h-29q-8 0 -12 6l-56 82q-1 2 -3 2t-3 -2l-57 -82q-4 -6 -12 -6h-28q-6 0 -8.5 4z" />
    <glyph glyph-name="wcircumflex" unicode="&#x175;" horiz-adv-x="622" 
d="M154 9l-123 484l-1 4q0 7 9 7h33q9 0 11 -9l98 -410q1 -3 2 -3t2 3l98 410q2 9 11 9h31q10 0 11 -9l100 -409q1 -3 2 -3t2 3l99 409q2 9 11 9l33 -1q5 0 7.5 -3t0.5 -8l-124 -483q-1 -9 -11 -9h-34q-9 0 -11 9l-100 397q-1 3 -2 3t-2 -3l-97 -397q-1 -9 -11 -9h-34
q-9 0 -11 9zM200.5 581q-2.5 4 1.5 8l74 105q4 6 12 6h40q8 0 12 -6l75 -105q2 -2 2 -6q0 -2 -2 -4t-6 -2h-29q-8 0 -12 6l-56 82q-1 2 -3 2t-3 -2l-57 -82q-4 -6 -12 -6h-28q-6 0 -8.5 4z" />
    <glyph glyph-name="Ycircumflex" unicode="&#x176;" horiz-adv-x="483" 
d="M215 10v309q0 4 -1 5l-173 364q-1 2 -1 5q0 7 8 7h35q8 0 11 -7l145 -311q1 -2 3 -2t3 2l143 311q3 7 11 7h35q5 0 7 -3.5t0 -8.5l-172 -364q-1 -1 -1 -5v-309q0 -10 -10 -10h-33q-10 0 -10 10zM132.5 777q-2.5 4 1.5 8l74 105q4 6 12 6h40q8 0 12 -6l75 -105q2 -2 2 -6
q0 -2 -2 -4t-6 -2h-29q-8 0 -12 6l-56 82q-1 2 -3 2t-3 -2l-57 -82q-4 -6 -12 -6h-28q-6 0 -8.5 4z" />
    <glyph glyph-name="ycircumflex" unicode="&#x177;" horiz-adv-x="401" 
d="M46 -190v26q0 10 10 10h2q34 1 53 12.5t32.5 42.5t30.5 96q1 1 0.5 3.5l-0.5 2.5l-150 490l-1 3q0 8 10 8h35q8 0 11 -8l120 -421q1 -2 2.5 -2t2.5 2l119 421q2 8 11 8h35q5 0 7.5 -3t1.5 -8l-166 -544q-20 -65 -38 -96t-43.5 -42t-71.5 -11h-6q-7 0 -7 10zM91.5 582
q-2.5 4 1.5 8l74 105q4 6 12 6h40q8 0 12 -6l75 -105q2 -2 2 -6q0 -2 -2 -4t-6 -2h-29q-8 0 -12 6l-56 82q-1 2 -3 2t-3 -2l-57 -82q-4 -6 -12 -6h-28q-6 0 -8.5 4z" />
    <glyph glyph-name="Ydieresis" unicode="&#x178;" horiz-adv-x="483" 
d="M215 10v309q0 4 -1 5l-173 364q-1 2 -1 5q0 7 8 7h35q8 0 11 -7l145 -311q1 -2 3 -2t3 2l143 311q3 7 11 7h35q5 0 7 -3.5t0 -8.5l-172 -364q-1 -1 -1 -5v-309q0 -10 -10 -10h-33q-10 0 -10 10zM282 816q-14 14 -14 36t14 36t36 14t36 -14t14 -36t-14 -36t-36 -14t-36 14
zM129 816q-14 14 -14 36t14 36t36 14t36 -14t14 -36t-14 -36t-36 -14t-36 14z" />
    <glyph glyph-name="Zacute" unicode="&#x179;" horiz-adv-x="469" 
d="M42 10v31q0 6 3 13l314 594q2 5 -2 5h-305q-10 0 -10 10v27q0 10 10 10h357q10 0 10 -10v-31q0 -5 -3 -13l-313 -594q-2 -5 2 -5h304q10 0 10 -10v-27q0 -10 -10 -10h-357q-10 0 -10 10zM195 770.5q-2 3.5 1 8.5l61 110q3 7 12 7h28q6 0 8 -3.5t-1 -8.5l-67 -110
q-5 -7 -12 -7h-22q-6 0 -8 3.5z" />
    <glyph glyph-name="zacute" unicode="&#x17a;" horiz-adv-x="399" 
d="M37 10v32q0 5 4 13l257 395q1 1 0 3t-3 2h-245q-10 0 -10 10v29q0 10 10 10h303q10 0 10 -10v-32q0 -5 -4 -13l-260 -395q-1 -1 0 -3t3 -2h250q10 0 10 -10v-29q0 -10 -10 -10h-305q-10 0 -10 10zM165 574.5q-2 3.5 1 8.5l61 110q3 7 12 7h28q6 0 8 -3.5t-1 -8.5
l-67 -110q-5 -7 -12 -7h-22q-6 0 -8 3.5z" />
    <glyph glyph-name="Zdotaccent" unicode="&#x17b;" horiz-adv-x="469" 
d="M42 10v31q0 6 3 13l314 594q2 5 -2 5h-305q-10 0 -10 10v27q0 10 10 10h357q10 0 10 -10v-31q0 -5 -3 -13l-313 -594q-2 -5 2 -5h304q10 0 10 -10v-27q0 -10 -10 -10h-357q-10 0 -10 10zM193 815q-14 14 -14 36t14 36t36 14t36 -14t14 -36t-14 -36t-36 -14t-36 14z" />
    <glyph glyph-name="zdotaccent" unicode="&#x17c;" horiz-adv-x="399" 
d="M37 10v32q0 5 4 13l257 395q1 1 0 3t-3 2h-245q-10 0 -10 10v29q0 10 10 10h303q10 0 10 -10v-32q0 -5 -4 -13l-260 -395q-1 -1 0 -3t3 -2h250q10 0 10 -10v-29q0 -10 -10 -10h-305q-10 0 -10 10zM164 619q-14 14 -14 36t14 36t36 14t36 -14t14 -36t-14 -36t-36 -14
t-36 14z" />
    <glyph glyph-name="Zcaron" unicode="&#x17d;" horiz-adv-x="469" 
d="M42 10v31q0 6 3 13l314 594q2 5 -2 5h-305q-10 0 -10 10v27q0 10 10 10h357q10 0 10 -10v-31q0 -5 -3 -13l-313 -594q-2 -5 2 -5h304q10 0 10 -10v-27q0 -10 -10 -10h-357q-10 0 -10 10zM123 889q0 7 9 7h28q8 0 12 -6l57 -83q1 -1 3 -1t3 1l56 83q4 6 12 6h29
q6 0 8 -3.5t-2 -8.5l-75 -105q-4 -6 -12 -6h-40q-8 0 -12 6l-74 105q-2 2 -2 5z" />
    <glyph glyph-name="zcaron" unicode="&#x17e;" horiz-adv-x="399" 
d="M37 10v32q0 5 4 13l257 395q1 1 0 3t-3 2h-245q-10 0 -10 10v29q0 10 10 10h303q10 0 10 -10v-32q0 -5 -4 -13l-260 -395q-1 -1 0 -3t3 -2h250q10 0 10 -10v-29q0 -10 -10 -10h-305q-10 0 -10 10zM93 693q0 7 9 7h28q8 0 12 -6l57 -83q1 -1 3 -1t3 1l56 83q4 6 12 6h29
q6 0 8 -3.5t-2 -8.5l-75 -105q-4 -6 -12 -6h-40q-8 0 -12 6l-74 105q-2 2 -2 5z" />
    <glyph glyph-name="uni018F" unicode="&#x18f;" horiz-adv-x="541" 
d="M471 310q0 -90 -5 -144q-9 -79 -62.5 -127.5t-135.5 -48.5q-86 0 -140 50.5t-62 133.5q-2 27 -2.5 58t-0.5 81q0 11 10 11h341q4 0 4 4q0 82 -4 116q-5 61 -46 99t-104 38q-53 -1 -91.5 -29.5t-52.5 -75.5q-3 -11 -13 -8l-28 7q-9 3 -8 13q17 64 69.5 102t125.5 38
q82 0 135.5 -48.5t63.5 -126.5q6 -53 6 -143zM369.5 75.5q40.5 38.5 45.5 99.5q3 39 3 101q0 4 -4 4h-294q-4 0 -4 -4q0 -59 3 -100q5 -62 46 -100.5t103 -38.5q61 0 101.5 38.5z" />
    <glyph glyph-name="florin" unicode="&#x192;" horiz-adv-x="504" 
d="M299 643.5q20 34.5 56 48t99 12.5q10 0 10 -10l-1 -28q0 -10 -10 -10h-25q-51 0 -74 -28.5t-33 -90.5l-23 -146q0 -4 3 -4h87q10 0 10 -10v-26q0 -10 -10 -10h-94q-5 0 -5 -4l-61 -381q-10 -64 -30 -98.5t-56 -48.5t-99 -13q-10 0 -10 10l1 28q0 10 11 10h24
q51 0 74 28.5t33 90.5l60 374q0 4 -3 4h-68q-10 0 -10 10v26q0 10 10 10h75q5 0 5 4l24 153q10 65 30 99.5z" />
    <glyph glyph-name="Ohorn" unicode="&#x1a0;" horiz-adv-x="537" 
d="M124 46.5q-54 54.5 -54 143.5v320q0 58 24.5 103t69.5 70t103 25q59 0 104.5 -25t70.5 -70t25 -103v-320q0 -59 -25 -104t-70.5 -69.5t-104.5 -24.5q-89 0 -143 54.5zM373.5 80q40.5 41 40.5 107v324q0 67 -40.5 108.5t-106.5 41.5q-65 0 -104.5 -41.5t-39.5 -108.5v-324
q0 -66 40 -107t104 -41q66 0 106.5 41zM398 677v13q0 9 9 11q25 3 43 20.5t22 46.5q0 10 10 10h17q10 0 9 -12q-4 -42 -32 -68.5t-68 -30.5q-10 0 -10 10z" />
    <glyph glyph-name="ohorn" unicode="&#x1a1;" horiz-adv-x="470" 
d="M410 252q0 -83 -5 -117q-8 -65 -54 -104t-115 -39t-114.5 39t-53.5 104q-6 41 -6 117q0 77 6 117q8 65 53.5 104t115.5 39q24 0 54 -7q1 -1 5 -1q25 2 44 20.5t23 47.5q0 10 10 10h17q10 0 10 -10q-3 -30 -18 -52.5t-38 -35.5q-4 -1 -1 -5q53 -38 62 -110q5 -34 5 -117z
M357 252q0 78 -3 107q-5 48 -37.5 77t-80.5 29t-80 -29t-37 -77q-3 -29 -3 -107t3 -107q5 -48 37 -77t80 -29t80.5 29t37.5 77q3 29 3 107z" />
    <glyph glyph-name="Uhorn" unicode="&#x1af;" horiz-adv-x="564" 
d="M586 769q-4 -44 -33 -71.5t-69 -30.5q-4 0 -4 -4v-466q0 -61 -24.5 -107.5t-69.5 -72t-104 -25.5t-104 25.5t-69.5 72t-24.5 107.5v493q0 10 10 10h33q10 0 10 -10v-497q0 -69 39.5 -111.5t105.5 -42.5q65 0 105 42.5t40 111.5v497q0 10 10 10h38q28 0 49 18.5t25 50.5
q0 10 10 10h17q10 0 10 -10z" />
    <glyph glyph-name="uhorn" unicode="&#x1b0;" horiz-adv-x="477" 
d="M484 572q-4 -38 -26 -63t-55 -34q-3 -1 -3 -5v-460q0 -10 -10 -10h-33q-10 0 -10 10v43q0 3 -1.5 3t-3.5 -2q-18 -30 -49 -45.5t-72 -15.5q-68 0 -109.5 40.5t-41.5 115.5v345q0 10 10 10h33q10 0 10 -10v-332q0 -58 29 -90t80 -32q53 0 84 34t31 92v328q0 10 10 10h16
q27 0 48.5 18.5t25.5 49.5q0 10 10 10h17q10 0 10 -10z" />
    <glyph glyph-name="uni01CD" unicode="&#x1cd;" horiz-adv-x="491" 
d="M412 9l-36 132q-1 3 -5 3h-252q-4 0 -5 -3l-35 -132q-2 -9 -11 -9h-34q-5 0 -7.5 3t-1.5 8l188 681q2 8 11 8h42q9 0 11 -8l188 -681l1 -3q0 -8 -10 -8h-33q-9 0 -11 9zM128.5 189.5q1.5 -1.5 3.5 -1.5h226q2 0 3.5 1.5t0.5 2.5l-115 430q-1 2 -2.5 2t-2.5 -2l-114 -430
q-1 -1 0.5 -2.5zM136 887q0 7 9 7h28q8 0 12 -6l57 -83q1 -1 3 -1t3 1l56 83q4 6 12 6h29q6 0 8 -3.5t-2 -8.5l-75 -105q-4 -6 -12 -6h-40q-8 0 -12 6l-74 105q-2 2 -2 5z" />
    <glyph glyph-name="uni01CE" unicode="&#x1ce;" 
d="M348.5 467q42.5 -45 42.5 -122v-335q0 -10 -10 -10h-33q-10 0 -10 10v41q0 2 -1.5 2.5t-3.5 -1.5q-22 -30 -58 -45t-79 -15q-62 0 -105 33t-43 108q0 79 50 119.5t137 40.5h99q4 0 4 4v46q0 56 -28 89t-82 33q-43 0 -72 -21.5t-35 -56.5q-1 -9 -11 -9l-36 2q-5 0 -7.5 3
t-1.5 7q7 55 52.5 88.5t111.5 33.5q77 0 119.5 -45zM298.5 68.5q39.5 29.5 39.5 83.5v94q0 4 -4 4h-96q-62 0 -99.5 -29.5t-37.5 -84.5q0 -49 29 -73t75 -24q54 0 93.5 29.5zM119 691q0 7 9 7h28q8 0 12 -6l57 -83q1 -1 3 -1t3 1l56 83q4 6 12 6h29q6 0 8 -3.5t-2 -8.5
l-75 -105q-4 -6 -12 -6h-40q-8 0 -12 6l-74 105q-2 2 -2 5z" />
    <glyph glyph-name="uni01D4" unicode="&#x1d4;" horiz-adv-x="477" 
d="M357 504h33q10 0 10 -10v-484q0 -10 -10 -10h-33q-10 0 -10 10v43q0 3 -1.5 3t-3.5 -2q-18 -30 -49 -45.5t-72 -15.5q-68 0 -109.5 40.5t-41.5 115.5v345q0 10 10 10h33q10 0 10 -10v-332q0 -58 29 -90t80 -32q53 0 84 34t31 92v328q0 10 10 10zM129 691q0 7 9 7h28
q8 0 12 -6l57 -83q1 -1 3 -1t3 1l56 83q4 6 12 6h29q6 0 8 -3.5t-2 -8.5l-75 -105q-4 -6 -12 -6h-40q-8 0 -12 6l-74 105q-2 2 -2 5z" />
    <glyph glyph-name="uni01E5" unicode="&#x1e5;" horiz-adv-x="483" 
d="M481 261v-17q0 -10 -10 -10h-66q-4 0 -4 -4v-221q0 -218 -229 -209q-10 0 -10 10l1 29q0 10 10 10q92 -3 133.5 37.5t41.5 124.5v44q0 3 -2 3.5t-3 -2.5q-18 -29 -49 -45t-70 -16q-64 0 -106.5 38t-51.5 103q-5 39 -5 116q0 81 6 119q8 63 49.5 102t105.5 39q40 0 71 -16
t50 -45q1 -3 3 -2.5t2 3.5v42q0 10 10 10h33q10 0 10 -10v-219q0 -4 4 -4h66q10 0 10 -10zM312 72q30 30 34 75q2 46 2 83q0 4 -4 4h-112q-10 0 -10 10v17q0 10 10 10h112q4 0 4 4q0 36 -2 84q-4 46 -34.5 76t-77.5 30t-78 -30t-38 -76q-4 -56 -4 -106q0 -56 4 -106
q5 -46 37 -75.5t80 -29.5q47 0 77 30z" />
    <glyph glyph-name="gcaron" unicode="&#x1e7;" horiz-adv-x="468" 
d="M358 504h33q10 0 10 -10v-485q0 -218 -229 -209q-10 0 -10 10l1 29q0 10 10 10q92 -3 133.5 37.5t41.5 124.5v44q0 3 -2 3.5t-3 -2.5q-18 -29 -49 -45t-70 -16q-64 0 -106.5 38t-51.5 103q-5 39 -5 116q0 81 6 119q8 63 49.5 102t105.5 39q40 0 71 -16t50 -45
q1 -3 3 -2.5t2 3.5v42q0 10 10 10zM348 252q0 51 -2 107q-4 46 -34.5 76t-77.5 30t-78 -30t-38 -76q-4 -56 -4 -106q0 -56 4 -106q5 -46 37 -75.5t80 -29.5q47 0 77 30t34 75q2 54 2 105zM130 691q0 7 9 7h28q8 0 12 -6l57 -83q1 -1 3 -1t3 1l56 83q4 6 12 6h29q6 0 8 -3.5
t-2 -8.5l-75 -105q-4 -6 -12 -6h-40q-8 0 -12 6l-74 105q-2 2 -2 5z" />
    <glyph glyph-name="uni01E9" unicode="&#x1e9;" horiz-adv-x="443" 
d="M77 10v680q0 10 10 10h33q10 0 10 -10v-423q0 -2 2 -3t3 1l197 233q5 6 12 6h38q6 0 8 -3.5t-2 -8.5l-112 -136q-2 -3 -1 -5l135 -339q1 -2 1 -5q0 -7 -8 -7h-36q-8 0 -11 8l-115 303q-1 2 -3 2.5t-3 -1.5l-103 -122q-2 -4 -2 -5v-175q0 -10 -10 -10h-33q-10 0 -10 10z
M119 887q0 7 9 7h28q8 0 12 -6l57 -83q1 -1 3 -1t3 1l56 83q4 6 12 6h29q6 0 8 -3.5t-2 -8.5l-75 -105q-4 -6 -12 -6h-40q-8 0 -12 6l-74 105q-2 2 -2 5z" />
    <glyph glyph-name="uni01EF" unicode="&#x1ef;" horiz-adv-x="496" 
d="M176.5 252q0.5 -2 3.5 -2q87 2 145 -26.5t86 -80t28 -116.5q0 -75 -34.5 -126.5t-92 -77t-127.5 -25.5q-56 0 -115 17q-8 3 -8 12l1 26q0 6 3.5 8t8.5 0q53 -16 106 -16q87 0 146 45t59 137q0 76 -47.5 128t-150.5 52q-34 0 -82 -8h-3q-6 0 -10 7l-6 18q-1 2 -1 5
q0 5 4 9l232 212q2 2 1 3.5t-3 1.5h-236q-10 0 -10 10v29q0 10 10 10h303q10 0 10 -10v-31q0 -8 -5 -12l-214 -196q-2 -1 -1.5 -3zM139 691q0 7 9 7h28q8 0 12 -6l57 -83q1 -1 3 -1t3 1l56 83q4 6 12 6h29q6 0 8 -3.5t-2 -8.5l-75 -105q-4 -6 -12 -6h-40q-8 0 -12 6l-74 105
q-2 2 -2 5z" />
    <glyph glyph-name="oslashacute" unicode="&#x1ff;" horiz-adv-x="467" 
d="M409 252q0 -74 -5 -117q-8 -65 -54 -104t-115 -39q-57 0 -98 27q-4 2 -5 -2l-25 -46q-2 -4 -6 -5t-8 2l-22 15q-8 5 -3 13l29 55q2 3 0 6q-24 31 -30 78q-6 41 -6 117t5 117q9 65 54.5 104t114.5 39q55 0 94 -24q4 -2 5 2l27 49q4 9 14 3l23 -15q8 -5 3 -13l-30 -58
q-2 -3 0 -5q27 -35 33 -82q5 -42 5 -117zM125 113q1 -2 2.5 -2t2.5 2l176 326q1 4 -1 5q-29 21 -70 21q-48 0 -80 -29t-38 -77q-3 -43 -3 -107q0 -63 3 -107q3 -21 8 -32zM356 252q0 78 -3 107q-3 22 -10 37q-1 2 -2.5 2.5t-2.5 -1.5l-178 -329q-1 -4 1 -5q30 -24 74 -24
q48 0 80.5 29t37.5 77q3 29 3 107zM198 574.5q-2 3.5 1 8.5l61 110q3 7 12 7h28q6 0 8 -3.5t-1 -8.5l-67 -110q-5 -7 -12 -7h-22q-6 0 -8 3.5z" />
    <glyph glyph-name="uni0218" unicode="&#x218;" horiz-adv-x="495" 
d="M105 41q-54 49 -54 129v27q0 10 10 10h31q10 0 10 -10v-24q0 -60 40.5 -97t108.5 -37q65 0 102.5 34.5t37.5 92.5q0 37 -17 64.5t-49.5 50.5t-92.5 55q-64 35 -98 59.5t-55 59t-21 85.5q0 79 49.5 123.5t133.5 44.5q91 0 144 -49.5t53 -131.5v-24q0 -10 -10 -10h-33
q-10 0 -10 10v22q0 62 -39 99t-106 37q-61 0 -95.5 -31.5t-34.5 -89.5q0 -37 15.5 -62t45 -45t90.5 -53q67 -37 104.5 -64t58 -61.5t20.5 -83.5q0 -81 -52.5 -130t-141.5 -49q-91 0 -145 49zM198 -198.5q-2 3.5 1 8.5l61 110q3 7 12 7h28q6 0 8 -3.5t-1 -8.5l-67 -110
q-5 -7 -12 -7h-22q-6 0 -8 3.5z" />
    <glyph glyph-name="uni0219" unicode="&#x219;" horiz-adv-x="422" 
d="M98.5 31.5q-45.5 36.5 -45.5 92.5v9q0 10 10 10h32q10 0 10 -10v-8q0 -36 31 -61.5t80 -25.5t78.5 25.5t29.5 65.5q0 29 -16 47t-39 29t-65 26q-46 16 -76.5 31t-51 42.5t-20.5 69.5q0 62 43.5 98t114.5 36q72 0 115.5 -37.5t43.5 -95.5v-3q0 -10 -10 -10h-30
q-10 0 -10 10v4q0 38 -30.5 63t-79.5 25q-48 0 -76.5 -24t-28.5 -63q0 -27 15 -45t37.5 -29t62.5 -25q49 -17 79.5 -32t52.5 -43t22 -71q0 -62 -43.5 -99.5t-116.5 -37.5t-118.5 36.5zM169 -195.5q-2 3.5 1 8.5l61 110q3 7 12 7h28q6 0 8 -3.5t-1 -8.5l-67 -110
q-5 -7 -12 -7h-22q-6 0 -8 3.5z" />
    <glyph glyph-name="uni021A" unicode="&#x21a;" horiz-adv-x="488" 
d="M446 690v-27q0 -10 -10 -10h-166q-4 0 -4 -4v-639q0 -10 -10 -10h-33q-10 0 -10 10v639q0 4 -4 4h-157q-10 0 -10 10v27q0 10 10 10h384q10 0 10 -10zM145 -192.5q-2 3.5 1 8.5l61 110q3 7 12 7h28q6 0 8 -3.5t-1 -8.5l-67 -110q-5 -7 -12 -7h-22q-6 0 -8 3.5z" />
    <glyph glyph-name="uni021B" unicode="&#x21b;" horiz-adv-x="310" 
d="M254 461h-99q-4 0 -4 -4v-320q0 -51 20 -70.5t64 -19.5h17q10 0 10 -10v-27q0 -10 -10 -10h-26q-63 0 -95 26.5t-32 97.5v333q0 4 -4 4h-51q-10 0 -10 10v23q0 10 10 10h51q4 0 4 4v113q0 10 10 10h32q10 0 10 -10v-113q0 -4 4 -4h99q10 0 10 -10v-23q0 -10 -10 -10z
M144 -180.5q-2 3.5 1 8.5l61 110q3 7 12 7h28q6 0 8 -3.5t-1 -8.5l-67 -110q-5 -7 -12 -7h-22q-6 0 -8 3.5z" />
    <glyph glyph-name="uni021F" unicode="&#x21f;" horiz-adv-x="478" 
d="M367 467q40 -44 40 -119v-338q0 -10 -10 -10h-33q-10 0 -10 10v330q0 57 -30 90.5t-80 33.5q-52 0 -83 -34.5t-31 -91.5v-328q0 -10 -10 -10h-33q-10 0 -10 10v680q0 10 10 10h33q10 0 10 -10v-239q0 -3 1.5 -3.5t2.5 1.5q20 30 52 46t72 16q69 0 109 -44zM133 887
q0 7 9 7h28q8 0 12 -6l57 -83q1 -1 3 -1t3 1l56 83q4 6 12 6h29q6 0 8 -3.5t-2 -8.5l-75 -105q-4 -6 -12 -6h-40q-8 0 -12 6l-74 105q-2 2 -2 5z" />
    <glyph glyph-name="uni0228" unicode="&#x228;" horiz-adv-x="519" 
d="M455 653h-307q-4 0 -4 -4v-271q0 -4 4 -4h210q10 0 10 -10v-27q0 -10 -10 -10h-210q-4 0 -4 -4v-272q0 -4 4 -4h307q10 0 10 -10v-27q0 -10 -10 -10h-151q-2 0 -2.5 -1.5t1.5 -3.5q45 -42 45 -92q0 -43 -23.5 -62t-57.5 -19q-12 0 -32 4q-9 1 -7 12l3 14q2 10 12 7
q12 -2 17 -2q21 0 34.5 12.5t13.5 37.5q0 45 -50 91q-2 2 -5 2h-152q-10 0 -10 10v680q0 10 10 10h354q10 0 10 -10v-27q0 -10 -10 -10z" />
    <glyph glyph-name="uni0229" unicode="&#x229;" horiz-adv-x="465" 
d="M308.5 60.5q30.5 21.5 42.5 57.5q3 9 12 7l30 -5q5 -1 6.5 -4.5t0.5 -7.5q-13 -47 -49 -77t-87 -37q-6 -2 -1 -5q42 -42 42 -90q0 -43 -23.5 -62t-57.5 -19q-12 0 -32 4q-9 1 -7 12l3 14q2 10 12 7q12 -2 17 -2q21 0 34.5 12.5t13.5 38.5q0 42 -47 87q-2 2 -5 2
q-59 6 -97.5 43.5t-46.5 95.5q-4 24 -5 55.5t-1 64.5q0 82 4 115q8 64 53.5 104.5t113.5 40.5q73 0 119 -42t52 -110q3 -33 3 -118q0 -10 -10 -10h-278q-4 0 -4 -4q0 -61 2 -83q5 -48 37 -77t82 -29q41 0 71.5 21.5zM154.5 435.5q-31.5 -29.5 -36.5 -76.5q-2 -22 -2 -78
q0 -4 4 -4h231q4 0 4 4q0 45 -3 78q-5 47 -37 76.5t-80 29.5q-49 0 -80.5 -29.5z" />
    <glyph glyph-name="uni0237" unicode="&#x237;" horiz-adv-x="215" 
d="M-26 -199v27q0 10 10 10q46 1 70 29t24 78l-1 549q0 10 10 10h34q10 0 10 -10v-549q0 -76 -35 -114.5t-112 -39.5q-10 0 -10 10z" />
    <glyph glyph-name="uni0259" unicode="&#x259;" horiz-adv-x="465" 
d="M401 316.5q1 -31.5 1 -64.5q0 -82 -4 -115q-8 -64 -53.5 -104.5t-113.5 -40.5q-73 0 -119 42t-52 110q-3 33 -3 118q0 10 10 10h278q4 0 4 4q0 61 -2 83q-5 48 -37 77t-82 29q-41 0 -71.5 -21.5t-42.5 -57.5q-3 -9 -12 -7l-30 5q-5 1 -6.5 4.5t-0.5 7.5q16 53 59.5 84.5
t104.5 31.5q69 0 113.5 -38.5t53.5 -101.5q4 -24 5 -55.5zM310.5 68.5q31.5 29.5 36.5 76.5q2 22 2 78q0 4 -4 4h-231q-4 0 -4 -4q0 -45 3 -78q5 -47 37 -76.5t80 -29.5q49 0 80.5 29.5z" />
    <glyph glyph-name="uni0292" unicode="&#x292;" horiz-adv-x="496" 
d="M176.5 252q0.5 -2 3.5 -2q87 2 145 -26.5t86 -80t28 -116.5q0 -75 -34.5 -126.5t-92 -77t-127.5 -25.5q-56 0 -115 17q-8 3 -8 12l1 26q0 6 3.5 8t8.5 0q53 -16 106 -16q87 0 146 45t59 137q0 76 -47.5 128t-150.5 52q-34 0 -82 -8h-3q-6 0 -10 7l-6 18q-1 2 -1 5
q0 5 4 9l232 212q2 2 1 3.5t-3 1.5h-236q-10 0 -10 10v29q0 10 10 10h303q10 0 10 -10v-31q0 -8 -5 -12l-214 -196q-2 -1 -1.5 -3z" />
    <glyph glyph-name="uni02BB" unicode="&#x2bb;" horiz-adv-x="115" 
d="M3 693q0 7 9 7h35q8 0 11 -8l54 -180l1 -3q0 -8 -10 -8h-22q-9 0 -12 8l-65 180z" />
    <glyph glyph-name="uni02BC" unicode="&#x2bc;" horiz-adv-x="115" 
d="M111 689l-65 -180q-3 -8 -12 -8h-22q-5 0 -7.5 3t-1.5 8l54 180q3 8 11 8h35q11 0 8 -11z" />
    <glyph glyph-name="circumflex" unicode="&#x2c6;" horiz-adv-x="229" 
d="M33.5 581q-2.5 4 1.5 8l74 105q4 6 12 6h40q8 0 12 -6l75 -105q2 -2 2 -6q0 -2 -2 -4t-6 -2h-29q-8 0 -12 6l-56 82q-1 2 -3 2t-3 -2l-57 -82q-4 -6 -12 -6h-28q-6 0 -8.5 4z" />
    <glyph glyph-name="caron" unicode="&#x2c7;" horiz-adv-x="286" 
d="M34 693q0 7 9 7h28q8 0 12 -6l57 -83q1 -1 3 -1t3 1l56 83q4 6 12 6h29q6 0 8 -3.5t-2 -8.5l-75 -105q-4 -6 -12 -6h-40q-8 0 -12 6l-74 105q-2 2 -2 5z" />
    <glyph glyph-name="uni02C9" unicode="&#x2c9;" horiz-adv-x="230" 
d="M0 669v21q0 10 10 10h210q10 0 10 -10v-21q0 -10 -10 -10h-210q-10 0 -10 10z" />
    <glyph glyph-name="breve" unicode="&#x2d8;" horiz-adv-x="271" 
d="M63.5 588q-30.5 27 -35.5 67q0 10 10 10h17q10 0 11 -10q3 -26 23 -43.5t47 -17.5t46.5 17.5t22.5 43.5q1 10 11 10h17q10 0 10 -10q-4 -40 -34 -67t-73 -27q-42 0 -72.5 27z" />
    <glyph glyph-name="dotaccent" unicode="&#x2d9;" horiz-adv-x="156" 
d="M42 619q-14 14 -14 36t14 36t36 14t36 -14t14 -36t-14 -36t-36 -14t-36 14z" />
    <glyph glyph-name="ring" unicode="&#x2da;" horiz-adv-x="263" 
d="M59 613q-30 30 -30 74t30 74t73 30q44 0 74 -30t30 -74t-30 -74t-74 -30q-43 0 -73 30zM181 638q20 20 20 49t-20 49t-49 20q-28 0 -48 -20t-20 -49t20 -49t48 -20q29 0 49 20z" />
    <glyph glyph-name="ogonek" unicode="&#x2db;" horiz-adv-x="123" 
d="M120 -171q0 -8 -7 -9q-13 -4 -33 -4q-34 0 -57 19t-23 62q0 53 53 99q5 4 13 4h16q8 0 8 -5q0 -4 -4 -7q-46 -44 -46 -87q0 -26 13.5 -38.5t34.5 -12.5q5 0 17 2l5 1q5 0 7 -8l3 -13v-3z" />
    <glyph glyph-name="tilde" unicode="&#x2dc;" horiz-adv-x="327" 
d="M159 635q-3 2 -13 8.5t-18 9.5t-16 3q-16 0 -27.5 -6t-23.5 -21q-6 -9 -14 -3l-12 9q-8 6 -2 14q28 47 76 47q16 0 29 -5.5t30 -16.5q3 -2 13 -8.5t18.5 -10t16.5 -3.5q15 0 27 6.5t23 23.5q2 4 6 5t8 -2l12 -9q4 -3 4 -7q0 -5 -3 -11q-15 -23 -36 -34t-42 -11
q-26 0 -56 22z" />
    <glyph glyph-name="hungarumlaut" unicode="&#x2dd;" horiz-adv-x="317" 
d="M34 582.5q-2 3.5 1 8.5l61 110q4 7 12 7h28q6 0 8 -3.5t-1 -8.5l-68 -110q-5 -7 -12 -7h-21q-6 0 -8 3.5zM173 582.5q-2 3.5 1 8.5l61 110q4 7 12 7h28q6 0 8 -3.5t-1 -8.5l-67 -110q-5 -7 -12 -7h-22q-6 0 -8 3.5z" />
    <glyph glyph-name="gravecomb" unicode="&#x300;" horiz-adv-x="0" 
d="M-4 577q0 -6 -9 -6h-21q-7 0 -12 7l-68 110q-2 4 -2 6q0 6 9 6h28q8 0 12 -7l61 -110q2 -4 2 -6z" />
    <glyph glyph-name="acutecomb" unicode="&#x301;" horiz-adv-x="0" 
d="M-149 574.5q-2 3.5 1 8.5l61 110q3 7 12 7h28q6 0 8 -3.5t-1 -8.5l-67 -110q-5 -7 -12 -7h-22q-6 0 -8 3.5z" />
    <glyph glyph-name="uni0302" unicode="&#x302;" horiz-adv-x="0" 
d="M-251.5 581q-2.5 4 1.5 8l74 105q4 6 12 6h40q8 0 12 -6l75 -105q2 -2 2 -6q0 -2 -2 -4t-6 -2h-29q-8 0 -12 6l-56 82q-1 2 -3 2t-3 -2l-57 -82q-4 -6 -12 -6h-28q-6 0 -8.5 4z" />
    <glyph glyph-name="tildecomb" unicode="&#x303;" horiz-adv-x="0" 
d="M-140 635q-3 2 -13 8.5t-18 9.5t-16 3q-16 0 -27.5 -6t-23.5 -21q-6 -9 -14 -3l-12 9q-8 6 -2 14q28 47 76 47q16 0 29 -5.5t30 -16.5q3 -2 13 -8.5t18.5 -10t16.5 -3.5q15 0 27 6.5t23 23.5q2 4 6 5t8 -2l12 -9q4 -3 4 -7q0 -5 -3 -11q-15 -23 -36 -34t-42 -11
q-26 0 -56 22z" />
    <glyph glyph-name="uni0304" unicode="&#x304;" horiz-adv-x="0" 
d="M-230 638v20q0 10 10 10h210q10 0 10 -10v-20q0 -10 -10 -10h-210q-10 0 -10 10z" />
    <glyph glyph-name="uni0306" unicode="&#x306;" horiz-adv-x="0" 
d="M-208.5 610.5q-30.5 26.5 -34.5 67.5q0 10 10 10h16q10 0 11 -10q3 -27 23 -44t48 -17q27 0 47 17t23 44q1 10 11 10h16q5 0 7.5 -3t1.5 -7q-3 -41 -33 -67.5t-73 -26.5t-73.5 26.5z" />
    <glyph glyph-name="uni0307" unicode="&#x307;" horiz-adv-x="0" 
d="M-90 619q-14 14 -14 36t14 36t36 14t36 -14t14 -36t-14 -36t-36 -14t-36 14z" />
    <glyph glyph-name="uni0308" unicode="&#x308;" horiz-adv-x="0" 
d="M-86 620q-14 14 -14 36t14 36t36 14t36 -14t14 -36t-14 -36t-36 -14t-36 14zM-239 620q-14 14 -14 36t14 36t36 14t36 -14t14 -36t-14 -36t-36 -14t-36 14z" />
    <glyph glyph-name="hookabovecomb" unicode="&#x309;" horiz-adv-x="0" 
d="M-331.5 554.5q-1.5 3.5 0.5 7.5q7 15 15 25t20 22q13 13 19.5 23t6.5 25q0 16 -13.5 27.5t-31.5 11.5q-19 0 -30.5 -8t-25.5 -28q-6 -9 -14 -3l-10 7q-9 6 -3 14q18 27 35.5 39t48.5 12q35 0 57 -20.5t22 -51.5q0 -22 -9.5 -36.5t-29.5 -34.5q-19 -17 -26 -30l-2 -4
q-3 -8 -11 -5l-12 3q-5 1 -6.5 4.5z" />
    <glyph glyph-name="uni030A" unicode="&#x30a;" horiz-adv-x="0" 
d="M-172 613q-30 30 -30 74t30 74t73 30q44 0 74 -30t30 -74t-30 -74t-74 -30q-43 0 -73 30zM-50 638q20 20 20 49t-20 49t-49 20q-28 0 -48 -20t-20 -49t20 -49t48 -20q29 0 49 20z" />
    <glyph glyph-name="uni030B" unicode="&#x30b;" horiz-adv-x="0" 
d="M-279.5 574.5q-2.5 3.5 0.5 8.5l59 110q3 7 12 7h28q6 0 8 -3.5t-1 -8.5l-61 -110q-4 -7 -12 -7h-26q-5 0 -7.5 3.5zM-141.5 574.5q-2.5 3.5 0.5 8.5l60 110q3 7 12 7h27q6 0 8 -3.5t-1 -8.5l-61 -110q-4 -7 -12 -7h-25q-6 0 -8.5 3.5z" />
    <glyph glyph-name="uni030C" unicode="&#x30c;" horiz-adv-x="0" 
d="M-252 693q0 7 9 7h28q8 0 12 -6l57 -83q1 -1 3 -1t3 1l56 83q4 6 12 6h29q6 0 8 -3.5t-2 -8.5l-75 -105q-4 -6 -12 -6h-40q-8 0 -12 6l-74 105q-2 2 -2 5z" />
    <glyph glyph-name="uni0312" unicode="&#x312;" horiz-adv-x="0" 
d="M-34 696.5q2 -3.5 -1 -8.5l-61 -110q-4 -7 -12 -7h-28q-6 0 -8 3.5t1 8.5l68 110q5 7 12 7h21q6 0 8 -3.5z" />
    <glyph glyph-name="uni0313" unicode="&#x313;" horiz-adv-x="0" 
d="M-118 574.5q-2 3.5 1 8.5l61 110q3 7 12 7h28q6 0 8 -3.5t-1 -8.5l-67 -110q-5 -7 -12 -7h-22q-6 0 -8 3.5z" />
    <glyph glyph-name="uni031B" unicode="&#x31b;" horiz-adv-x="0" 
d="M-133 481v13q0 9 9 11q25 3 43 20.5t22 46.5q0 10 10 10h17q10 0 9 -12q-4 -42 -32 -68.5t-68 -30.5q-10 0 -10 10z" />
    <glyph glyph-name="dotbelowcomb" unicode="&#x323;" horiz-adv-x="0" 
d="M-88.5 -163.5q-13.5 13.5 -13.5 33.5q0 21 13.5 34.5t34.5 13.5q20 0 33.5 -13.5t13.5 -34.5q0 -20 -13.5 -33.5t-33.5 -13.5q-21 0 -34.5 13.5z" />
    <glyph glyph-name="uni0326" unicode="&#x326;" horiz-adv-x="0" 
d="M-147 -190.5q-2 3.5 1 8.5l61 110q3 7 12 7h28q6 0 8 -3.5t-1 -8.5l-67 -110q-5 -7 -12 -7h-22q-6 0 -8 3.5z" />
    <glyph glyph-name="uni0327" unicode="&#x327;" horiz-adv-x="0" 
d="M-120 -169l2 14q1 5 4.5 6.5t7.5 0.5q12 -2 17 -2q22 0 35.5 12t13.5 38q0 44 -46 88q-4 3 -4 7q0 5 8 5h16q8 0 13 -4q53 -46 53 -99q0 -44 -22.5 -62.5t-57.5 -18.5q-13 0 -33 4q-8 1 -7 11z" />
    <glyph glyph-name="uni0328" unicode="&#x328;" horiz-adv-x="0" 
d="M-3 -171q0 -8 -7 -9q-13 -4 -33 -4q-34 0 -57 18.5t-23 61.5q0 55 53 100q5 4 13 4h16q7 0 8.5 -3.5t-3.5 -8.5q-47 -44 -47 -87v-1q0 -7 1 -11q4 -20 16.5 -29.5t30.5 -9.5q5 0 17 2l5 1q5 0 7 -8l3 -13v-3z" />
    <glyph glyph-name="uni0335" unicode="&#x335;" horiz-adv-x="0" 
d="M-276 611h265q10 0 10 -10v-17q0 -10 -10 -10h-265q-10 0 -10 10v17q0 10 10 10z" />
    <glyph glyph-name="uni0336" unicode="&#x336;" horiz-adv-x="0" 
d="M-494 527v21q0 10 10 10h474q10 0 10 -10v-21q0 -10 -10 -10h-474q-10 0 -10 10z" />
    <glyph glyph-name="uni0337" unicode="&#x337;" horiz-adv-x="0" 
d="M-330 98q-5 0 -8 4l-15 18q-2 2 -2 6q0 5 4 8l382 275q2 2 6 2q5 0 8 -4l15 -19q2 -3 2 -7t-4 -7l-382 -274q-2 -2 -6 -2z" />
    <glyph glyph-name="uni0338" unicode="&#x338;" horiz-adv-x="0" 
d="M-376.5 -32.5q-2.5 3.5 -0.5 8.5l330 759q3 8 11 8h23q5 0 7.5 -3.5t0.5 -8.5l-331 -759q-3 -8 -11 -8h-22q-5 0 -7.5 3.5z" />
    <glyph glyph-name="uni0394" unicode="&#x394;" horiz-adv-x="560" 
d="M22 10v31q0 4 2 12l231 639q3 8 12 8h26q9 0 12 -8l231 -640q2 -8 2 -12v-30q0 -10 -10 -10h-496q-10 0 -10 10zM76 48.5q1 -1.5 3 -1.5h402q2 0 3 1.5t0 3.5l-201 574q-1 2 -3 2t-3 -2l-201 -574q-1 -2 0 -3.5z" />
    <glyph glyph-name="uni03A9" unicode="&#x3a9;" horiz-adv-x="560" 
d="M70 10v27q0 10 10 10h76q3 0 3.5 1.5t-1.5 3.5q-36 24 -56 64t-20 90v304q0 58 25 103t70 70t103 25q59 0 104 -25t70 -70t25 -103v-304q0 -50 -20 -90t-56 -64q-2 -2 -1.5 -3.5t3.5 -1.5h76q10 0 10 -10v-27q0 -10 -10 -10h-155q-10 0 -10 10v28q0 8 9 11q41 9 71 49.5
t30 96.5v317q0 67 -40.5 108t-105.5 41t-105 -41t-40 -108v-317q0 -56 30 -96t70 -50q9 -3 9 -11v-28q0 -10 -10 -10h-154q-10 0 -10 10z" />
    <glyph glyph-name="uni03BC" unicode="&#x3bc;" horiz-adv-x="484" 
d="M364 504h33q10 0 10 -10v-484q0 -10 -10 -10h-33q-10 0 -10 10v43q0 3 -1.5 3t-3.5 -2q-18 -30 -49 -45.5t-72 -15.5q-55 0 -93 27q-5 3 -5 -2v-208q0 -10 -10 -10h-33q-10 0 -10 10v684q0 10 10 10h33q10 0 10 -10v-332q0 -58 29 -90t80 -32q53 0 84 34t31 92v328
q0 10 10 10z" />
    <glyph glyph-name="pi" unicode="&#x3c0;" horiz-adv-x="571" 
d="M523 458h-63q-4 0 -4 -4v-338q0 -39 13 -52.5t44 -15.5q10 0 10 -10v-28q0 -10 -10 -10q-53 1 -82 20t-28 76v358q0 4 -4 4h-220q-4 0 -4 -4v-444q0 -10 -10 -10h-33q-10 0 -10 10v444q0 4 -4 4h-70q-10 0 -10 10v26q0 10 10 10h475q10 0 10 -10v-26q0 -10 -10 -10z" />
    <glyph glyph-name="Wgrave" unicode="&#x1e80;" horiz-adv-x="747" 
d="M193 9l-162 680l-1 4q0 7 9 7h35q9 0 11 -9l133 -575q1 -3 2.5 -3t2.5 3l121 575q2 9 11 9h33q10 0 11 -9l125 -575q1 -3 2 -3t2 3l130 575q2 9 11 9h35q5 0 7.5 -3t0.5 -8l-159 -680q-2 -9 -11 -9h-34q-9 0 -11 9l-123 580q-1 3 -2 3t-2 -3l-122 -580q-1 -9 -11 -9h-33
q-9 0 -11 9zM392 773q0 -6 -9 -6h-21q-7 0 -12 7l-68 110q-2 4 -2 6q0 6 9 6h28q8 0 12 -7l61 -110q2 -4 2 -6z" />
    <glyph glyph-name="wgrave" unicode="&#x1e81;" horiz-adv-x="622" 
d="M154 9l-123 484l-1 4q0 7 9 7h33q9 0 11 -9l98 -410q1 -3 2 -3t2 3l98 410q2 9 11 9h31q10 0 11 -9l100 -409q1 -3 2 -3t2 3l99 409q2 9 11 9l33 -1q5 0 7.5 -3t0.5 -8l-124 -483q-1 -9 -11 -9h-34q-9 0 -11 9l-100 397q-1 3 -2 3t-2 -3l-97 -397q-1 -9 -11 -9h-34
q-9 0 -11 9zM328 577q0 -6 -9 -6h-21q-7 0 -12 7l-68 110q-2 4 -2 6q0 6 9 6h28q8 0 12 -7l61 -110q2 -4 2 -6z" />
    <glyph glyph-name="Wacute" unicode="&#x1e82;" horiz-adv-x="747" 
d="M193 9l-162 680l-1 4q0 7 9 7h35q9 0 11 -9l133 -575q1 -3 2.5 -3t2.5 3l121 575q2 9 11 9h33q10 0 11 -9l125 -575q1 -3 2 -3t2 3l130 575q2 9 11 9h35q5 0 7.5 -3t0.5 -8l-159 -680q-2 -9 -11 -9h-34q-9 0 -11 9l-123 580q-1 3 -2 3t-2 -3l-122 -580q-1 -9 -11 -9h-33
q-9 0 -11 9zM338 770.5q-2 3.5 1 8.5l61 110q3 7 12 7h28q6 0 8 -3.5t-1 -8.5l-67 -110q-5 -7 -12 -7h-22q-6 0 -8 3.5z" />
    <glyph glyph-name="wacute" unicode="&#x1e83;" horiz-adv-x="622" 
d="M154 9l-123 484l-1 4q0 7 9 7h33q9 0 11 -9l98 -410q1 -3 2 -3t2 3l98 410q2 9 11 9h31q10 0 11 -9l100 -409q1 -3 2 -3t2 3l99 409q2 9 11 9l33 -1q5 0 7.5 -3t0.5 -8l-124 -483q-1 -9 -11 -9h-34q-9 0 -11 9l-100 397q-1 3 -2 3t-2 -3l-97 -397q-1 -9 -11 -9h-34
q-9 0 -11 9zM274 574.5q-2 3.5 1 8.5l61 110q3 7 12 7h28q6 0 8 -3.5t-1 -8.5l-67 -110q-5 -7 -12 -7h-22q-6 0 -8 3.5z" />
    <glyph glyph-name="Wdieresis" unicode="&#x1e84;" horiz-adv-x="747" 
d="M193 9l-162 680l-1 4q0 7 9 7h35q9 0 11 -9l133 -575q1 -3 2.5 -3t2.5 3l121 575q2 9 11 9h33q10 0 11 -9l125 -575q1 -3 2 -3t2 3l130 575q2 9 11 9h35q5 0 7.5 -3t0.5 -8l-159 -680q-2 -9 -11 -9h-34q-9 0 -11 9l-123 580q-1 3 -2 3t-2 -3l-122 -580q-1 -9 -11 -9h-33
q-9 0 -11 9zM414 816q-14 14 -14 36t14 36t36 14t36 -14t14 -36t-14 -36t-36 -14t-36 14zM261 816q-14 14 -14 36t14 36t36 14t36 -14t14 -36t-14 -36t-36 -14t-36 14z" />
    <glyph glyph-name="wdieresis" unicode="&#x1e85;" horiz-adv-x="622" 
d="M154 9l-123 484l-1 4q0 7 9 7h33q9 0 11 -9l98 -410q1 -3 2 -3t2 3l98 410q2 9 11 9h31q10 0 11 -9l100 -409q1 -3 2 -3t2 3l99 409q2 9 11 9l33 -1q5 0 7.5 -3t0.5 -8l-124 -483q-1 -9 -11 -9h-34q-9 0 -11 9l-100 397q-1 3 -2 3t-2 -3l-97 -397q-1 -9 -11 -9h-34
q-9 0 -11 9zM350 620q-14 14 -14 36t14 36t36 14t36 -14t14 -36t-14 -36t-36 -14t-36 14zM197 620q-14 14 -14 36t14 36t36 14t36 -14t14 -36t-14 -36t-36 -14t-36 14z" />
    <glyph glyph-name="uni1EA0" unicode="&#x1ea0;" horiz-adv-x="491" 
d="M412 9l-36 132q-1 3 -5 3h-252q-4 0 -5 -3l-35 -132q-2 -9 -11 -9h-34q-5 0 -7.5 3t-1.5 8l188 681q2 8 11 8h42q9 0 11 -8l188 -681l1 -3q0 -8 -10 -8h-33q-9 0 -11 9zM128.5 189.5q1.5 -1.5 3.5 -1.5h226q2 0 3.5 1.5t0.5 2.5l-115 430q-1 2 -2.5 2t-2.5 -2l-114 -430
q-1 -1 0.5 -2.5zM211.5 -163.5q-13.5 13.5 -13.5 33.5q0 21 13.5 34.5t34.5 13.5q20 0 33.5 -13.5t13.5 -34.5q0 -20 -13.5 -33.5t-33.5 -13.5q-21 0 -34.5 13.5z" />
    <glyph glyph-name="uni1EA1" unicode="&#x1ea1;" 
d="M348.5 467q42.5 -45 42.5 -122v-335q0 -10 -10 -10h-33q-10 0 -10 10v41q0 2 -1.5 2.5t-3.5 -1.5q-22 -30 -58 -45t-79 -15q-62 0 -105 33t-43 108q0 79 50 119.5t137 40.5h99q4 0 4 4v46q0 56 -28 89t-82 33q-43 0 -72 -21.5t-35 -56.5q-1 -9 -11 -9l-36 2q-5 0 -7.5 3
t-1.5 7q7 55 52.5 88.5t111.5 33.5q77 0 119.5 -45zM298.5 68.5q39.5 29.5 39.5 83.5v94q0 4 -4 4h-96q-62 0 -99.5 -29.5t-37.5 -84.5q0 -49 29 -73t75 -24q54 0 93.5 29.5zM193.5 -163.5q-13.5 13.5 -13.5 33.5q0 21 13.5 34.5t34.5 13.5q20 0 33.5 -13.5t13.5 -34.5
q0 -20 -13.5 -33.5t-33.5 -13.5q-21 0 -34.5 13.5z" />
    <glyph glyph-name="uni1EA2" unicode="&#x1ea2;" horiz-adv-x="491" 
d="M412 9l-36 132q-1 3 -5 3h-252q-4 0 -5 -3l-35 -132q-2 -9 -11 -9h-34q-5 0 -7.5 3t-1.5 8l188 681q2 8 11 8h42q9 0 11 -8l188 -681l1 -3q0 -8 -10 -8h-33q-9 0 -11 9zM128.5 189.5q1.5 -1.5 3.5 -1.5h226q2 0 3.5 1.5t0.5 2.5l-115 430q-1 2 -2.5 2t-2.5 -2l-114 -430
q-1 -1 0.5 -2.5zM231.5 750.5q-1.5 3.5 0.5 7.5q7 15 15 25t20 22q13 13 19.5 23t6.5 25q0 16 -13.5 27.5t-31.5 11.5q-19 0 -30.5 -8t-25.5 -28q-6 -9 -14 -3l-10 7q-9 6 -3 14q18 27 35.5 39t48.5 12q35 0 57 -20.5t22 -51.5q0 -22 -9.5 -36.5t-29.5 -34.5
q-19 -17 -26 -30l-2 -4q-3 -8 -11 -5l-12 3q-5 1 -6.5 4.5z" />
    <glyph glyph-name="uni1EA3" unicode="&#x1ea3;" 
d="M348.5 467q42.5 -45 42.5 -122v-335q0 -10 -10 -10h-33q-10 0 -10 10v41q0 2 -1.5 2.5t-3.5 -1.5q-22 -30 -58 -45t-79 -15q-62 0 -105 33t-43 108q0 79 50 119.5t137 40.5h99q4 0 4 4v46q0 56 -28 89t-82 33q-43 0 -72 -21.5t-35 -56.5q-1 -9 -11 -9l-36 2q-5 0 -7.5 3
t-1.5 7q7 55 52.5 88.5t111.5 33.5q77 0 119.5 -45zM298.5 68.5q39.5 29.5 39.5 83.5v94q0 4 -4 4h-96q-62 0 -99.5 -29.5t-37.5 -84.5q0 -49 29 -73t75 -24q54 0 93.5 29.5zM214.5 554.5q-1.5 3.5 0.5 7.5q7 15 15 25t20 22q13 13 19.5 23t6.5 25q0 16 -13.5 27.5
t-31.5 11.5q-19 0 -30.5 -8t-25.5 -28q-6 -9 -14 -3l-10 7q-9 6 -3 14q18 27 35.5 39t48.5 12q35 0 57 -20.5t22 -51.5q0 -22 -9.5 -36.5t-29.5 -34.5q-19 -17 -26 -30l-2 -4q-3 -8 -11 -5l-12 3q-5 1 -6.5 4.5z" />
    <glyph glyph-name="uni1EA4" unicode="&#x1ea4;" horiz-adv-x="491" 
d="M412 9l-36 132q-1 3 -5 3h-252q-4 0 -5 -3l-35 -132q-2 -9 -11 -9h-34q-5 0 -7.5 3t-1.5 8l188 681q2 8 11 8h42q9 0 11 -8l188 -681l1 -3q0 -8 -10 -8h-33q-9 0 -11 9zM128.5 189.5q1.5 -1.5 3.5 -1.5h226q2 0 3.5 1.5t0.5 2.5l-115 430q-1 2 -2.5 2t-2.5 -2l-114 -430
q-1 -1 0.5 -2.5zM136.5 777q-2.5 4 1.5 8l74 105q4 6 12 6h40q8 0 12 -6l75 -105q2 -2 2 -6q0 -2 -2 -4t-6 -2h-29q-8 0 -12 6l-56 82q-1 2 -3 2t-3 -2l-57 -82q-4 -6 -12 -6h-28q-6 0 -8.5 4zM356 847.5q-2 3.5 1 8.5l61 110q3 7 12 7h28q6 0 8 -3.5t-1 -8.5l-67 -110
q-5 -7 -12 -7h-22q-6 0 -8 3.5z" />
    <glyph glyph-name="uni1EA5" unicode="&#x1ea5;" 
d="M348.5 467q42.5 -45 42.5 -122v-335q0 -10 -10 -10h-33q-10 0 -10 10v41q0 2 -1.5 2.5t-3.5 -1.5q-22 -30 -58 -45t-79 -15q-62 0 -105 33t-43 108q0 79 50 119.5t137 40.5h99q4 0 4 4v46q0 56 -28 89t-82 33q-43 0 -72 -21.5t-35 -56.5q-1 -9 -11 -9l-36 2q-5 0 -7.5 3
t-1.5 7q7 55 52.5 88.5t111.5 33.5q77 0 119.5 -45zM298.5 68.5q39.5 29.5 39.5 83.5v94q0 4 -4 4h-96q-62 0 -99.5 -29.5t-37.5 -84.5q0 -49 29 -73t75 -24q54 0 93.5 29.5zM118.5 581q-2.5 4 1.5 8l74 105q4 6 12 6h40q8 0 12 -6l75 -105q2 -2 2 -6q0 -2 -2 -4t-6 -2h-29
q-8 0 -12 6l-56 82q-1 2 -3 2t-3 -2l-57 -82q-4 -6 -12 -6h-28q-6 0 -8.5 4zM338 651.5q-2 3.5 1 8.5l61 110q3 7 12 7h28q6 0 8 -3.5t-1 -8.5l-67 -110q-5 -7 -12 -7h-22q-6 0 -8 3.5z" />
    <glyph glyph-name="uni1EA6" unicode="&#x1ea6;" horiz-adv-x="491" 
d="M412 9l-36 132q-1 3 -5 3h-252q-4 0 -5 -3l-35 -132q-2 -9 -11 -9h-34q-5 0 -7.5 3t-1.5 8l188 681q2 8 11 8h42q9 0 11 -8l188 -681l1 -3q0 -8 -10 -8h-33q-9 0 -11 9zM128.5 189.5q1.5 -1.5 3.5 -1.5h226q2 0 3.5 1.5t0.5 2.5l-115 430q-1 2 -2.5 2t-2.5 -2l-114 -430
q-1 -1 0.5 -2.5zM135.5 777q-2.5 4 1.5 8l74 105q4 6 12 6h40q8 0 12 -6l75 -105q2 -2 2 -6q0 -2 -2 -4t-6 -2h-29q-8 0 -12 6l-56 82q-1 2 -3 2t-3 -2l-57 -82q-4 -6 -12 -6h-28q-6 0 -8.5 4zM394 891q0 -6 -9 -6h-21q-7 0 -12 7l-68 110q-2 4 -2 6q0 6 9 6h28q8 0 12 -7
l61 -110q2 -4 2 -6z" />
    <glyph glyph-name="uni1EA7" unicode="&#x1ea7;" 
d="M348.5 467q42.5 -45 42.5 -122v-335q0 -10 -10 -10h-33q-10 0 -10 10v41q0 2 -1.5 2.5t-3.5 -1.5q-22 -30 -58 -45t-79 -15q-62 0 -105 33t-43 108q0 79 50 119.5t137 40.5h99q4 0 4 4v46q0 56 -28 89t-82 33q-43 0 -72 -21.5t-35 -56.5q-1 -9 -11 -9l-36 2q-5 0 -7.5 3
t-1.5 7q7 55 52.5 88.5t111.5 33.5q77 0 119.5 -45zM298.5 68.5q39.5 29.5 39.5 83.5v94q0 4 -4 4h-96q-62 0 -99.5 -29.5t-37.5 -84.5q0 -49 29 -73t75 -24q54 0 93.5 29.5zM118.5 581q-2.5 4 1.5 8l74 105q4 6 12 6h40q8 0 12 -6l75 -105q2 -2 2 -6q0 -2 -2 -4t-6 -2h-29
q-8 0 -12 6l-56 82q-1 2 -3 2t-3 -2l-57 -82q-4 -6 -12 -6h-28q-6 0 -8.5 4zM377 695q0 -6 -9 -6h-21q-7 0 -12 7l-68 110q-2 4 -2 6q0 6 9 6h28q8 0 12 -7l61 -110q2 -4 2 -6z" />
    <glyph glyph-name="uni1EA8" unicode="&#x1ea8;" horiz-adv-x="491" 
d="M412 9l-36 132q-1 3 -5 3h-252q-4 0 -5 -3l-35 -132q-2 -9 -11 -9h-34q-5 0 -7.5 3t-1.5 8l188 681q2 8 11 8h42q9 0 11 -8l188 -681l1 -3q0 -8 -10 -8h-33q-9 0 -11 9zM128.5 189.5q1.5 -1.5 3.5 -1.5h226q2 0 3.5 1.5t0.5 2.5l-115 430q-1 2 -2.5 2t-2.5 -2l-114 -430
q-1 -1 0.5 -2.5zM342.5 872.5q-1.5 3.5 0.5 7.5q8 18 19.5 30t13.5 15q14 13 20.5 23t6.5 26q0 15 -13.5 26.5t-31.5 11.5q-19 0 -30 -8t-25 -28q-6 -9 -14 -3l-10 7q-9 6 -3 14q18 27 35.5 39t47.5 12q34 0 56.5 -20t22.5 -51q0 -22 -9.5 -36.5t-28.5 -33.5
q-21 -21 -27 -33q-3 -10 -12 -7l-12 3q-5 2 -6.5 5.5zM135.5 777q-2.5 4 1.5 8l74 105q4 6 12 6h40q8 0 12 -6l75 -105q2 -2 2 -6q0 -2 -2 -4t-6 -2h-29q-8 0 -12 6l-56 82q-1 2 -3 2t-3 -2l-57 -82q-4 -6 -12 -6h-28q-6 0 -8.5 4z" />
    <glyph glyph-name="uni1EA9" unicode="&#x1ea9;" 
d="M348.5 467q42.5 -45 42.5 -122v-335q0 -10 -10 -10h-33q-10 0 -10 10v41q0 2 -1.5 2.5t-3.5 -1.5q-22 -30 -58 -45t-79 -15q-62 0 -105 33t-43 108q0 79 50 119.5t137 40.5h99q4 0 4 4v46q0 56 -28 89t-82 33q-43 0 -72 -21.5t-35 -56.5q-1 -9 -11 -9l-36 2q-5 0 -7.5 3
t-1.5 7q7 55 52.5 88.5t111.5 33.5q77 0 119.5 -45zM298.5 68.5q39.5 29.5 39.5 83.5v94q0 4 -4 4h-96q-62 0 -99.5 -29.5t-37.5 -84.5q0 -49 29 -73t75 -24q54 0 93.5 29.5zM325.5 676.5q-1.5 3.5 0.5 7.5q8 18 19.5 30t13.5 15q14 13 20.5 23t6.5 26q0 15 -13.5 26.5
t-31.5 11.5q-19 0 -30 -8t-25 -28q-6 -9 -14 -3l-10 7q-9 6 -3 14q18 27 35.5 39t47.5 12q34 0 56.5 -20t22.5 -51q0 -22 -9.5 -36.5t-28.5 -33.5q-21 -21 -27 -33q-3 -10 -12 -7l-12 3q-5 2 -6.5 5.5zM118.5 581q-2.5 4 1.5 8l74 105q4 6 12 6h40q8 0 12 -6l75 -105
q2 -2 2 -6q0 -2 -2 -4t-6 -2h-29q-8 0 -12 6l-56 82q-1 2 -3 2t-3 -2l-57 -82q-4 -6 -12 -6h-28q-6 0 -8.5 4z" />
    <glyph glyph-name="uni1EAA" unicode="&#x1eaa;" horiz-adv-x="491" 
d="M412 9l-36 132q-1 3 -5 3h-252q-4 0 -5 -3l-35 -132q-2 -9 -11 -9h-34q-5 0 -7.5 3t-1.5 8l188 681q2 8 11 8h42q9 0 11 -8l188 -681l1 -3q0 -8 -10 -8h-33q-9 0 -11 9zM128.5 189.5q1.5 -1.5 3.5 -1.5h226q2 0 3.5 1.5t0.5 2.5l-115 430q-1 2 -2.5 2t-2.5 -2l-114 -430
q-1 -1 0.5 -2.5zM135.5 777q-2.5 4 1.5 8l74 105q4 6 12 6h40q8 0 12 -6l75 -105q2 -2 2 -6q0 -2 -2 -4t-6 -2h-29q-8 0 -12 6l-56 82q-1 2 -3 2t-3 -2l-57 -82q-4 -6 -12 -6h-28q-6 0 -8.5 4zM246 949q-3 2 -13 8.5t-18 9.5t-16 3q-16 0 -27.5 -6t-23.5 -21q-6 -9 -14 -3
l-12 9q-8 6 -2 14q28 47 76 47q16 0 29 -5.5t30 -16.5q3 -2 13 -8.5t18.5 -10t16.5 -3.5q15 0 27 6.5t23 23.5q2 4 6 5t8 -2l12 -9q4 -3 4 -7q0 -5 -3 -11q-15 -23 -36 -34t-42 -11q-26 0 -56 22z" />
    <glyph glyph-name="uni1EAB" unicode="&#x1eab;" 
d="M348.5 467q42.5 -45 42.5 -122v-335q0 -10 -10 -10h-33q-10 0 -10 10v41q0 2 -1.5 2.5t-3.5 -1.5q-22 -30 -58 -45t-79 -15q-62 0 -105 33t-43 108q0 79 50 119.5t137 40.5h99q4 0 4 4v46q0 56 -28 89t-82 33q-43 0 -72 -21.5t-35 -56.5q-1 -9 -11 -9l-36 2q-5 0 -7.5 3
t-1.5 7q7 55 52.5 88.5t111.5 33.5q77 0 119.5 -45zM298.5 68.5q39.5 29.5 39.5 83.5v94q0 4 -4 4h-96q-62 0 -99.5 -29.5t-37.5 -84.5q0 -49 29 -73t75 -24q54 0 93.5 29.5zM118.5 581q-2.5 4 1.5 8l74 105q4 6 12 6h40q8 0 12 -6l75 -105q2 -2 2 -6q0 -2 -2 -4t-6 -2h-29
q-8 0 -12 6l-56 82q-1 2 -3 2t-3 -2l-57 -82q-4 -6 -12 -6h-28q-6 0 -8.5 4zM229 753q-3 2 -13 8.5t-18 9.5t-16 3q-16 0 -27.5 -6t-23.5 -21q-6 -9 -14 -3l-12 9q-8 6 -2 14q28 47 76 47q16 0 29 -5.5t30 -16.5q3 -2 13 -8.5t18.5 -10t16.5 -3.5q15 0 27 6.5t23 23.5
q2 4 6 5t8 -2l12 -9q4 -3 4 -7q0 -5 -3 -11q-15 -23 -36 -34t-42 -11q-26 0 -56 22z" />
    <glyph glyph-name="uni1EAC" unicode="&#x1eac;" horiz-adv-x="491" 
d="M412 9l-36 132q-1 3 -5 3h-252q-4 0 -5 -3l-35 -132q-2 -9 -11 -9h-34q-5 0 -7.5 3t-1.5 8l188 681q2 8 11 8h42q9 0 11 -8l188 -681l1 -3q0 -8 -10 -8h-33q-9 0 -11 9zM128.5 189.5q1.5 -1.5 3.5 -1.5h226q2 0 3.5 1.5t0.5 2.5l-115 430q-1 2 -2.5 2t-2.5 -2l-114 -430
q-1 -1 0.5 -2.5zM211.5 -163.5q-13.5 13.5 -13.5 33.5q0 21 13.5 34.5t34.5 13.5q20 0 33.5 -13.5t13.5 -34.5q0 -20 -13.5 -33.5t-33.5 -13.5q-21 0 -34.5 13.5zM135.5 777q-2.5 4 1.5 8l74 105q4 6 12 6h40q8 0 12 -6l75 -105q2 -2 2 -6q0 -2 -2 -4t-6 -2h-29q-8 0 -12 6
l-56 82q-1 2 -3 2t-3 -2l-57 -82q-4 -6 -12 -6h-28q-6 0 -8.5 4z" />
    <glyph glyph-name="uni1EAD" unicode="&#x1ead;" 
d="M348.5 467q42.5 -45 42.5 -122v-335q0 -10 -10 -10h-33q-10 0 -10 10v41q0 2 -1.5 2.5t-3.5 -1.5q-22 -30 -58 -45t-79 -15q-62 0 -105 33t-43 108q0 79 50 119.5t137 40.5h99q4 0 4 4v46q0 56 -28 89t-82 33q-43 0 -72 -21.5t-35 -56.5q-1 -9 -11 -9l-36 2q-5 0 -7.5 3
t-1.5 7q7 55 52.5 88.5t111.5 33.5q77 0 119.5 -45zM298.5 68.5q39.5 29.5 39.5 83.5v94q0 4 -4 4h-96q-62 0 -99.5 -29.5t-37.5 -84.5q0 -49 29 -73t75 -24q54 0 93.5 29.5zM193.5 -163.5q-13.5 13.5 -13.5 33.5q0 21 13.5 34.5t34.5 13.5q20 0 33.5 -13.5t13.5 -34.5
q0 -20 -13.5 -33.5t-33.5 -13.5q-21 0 -34.5 13.5zM117.5 581q-2.5 4 1.5 8l74 105q4 6 12 6h40q8 0 12 -6l75 -105q2 -2 2 -6q0 -2 -2 -4t-6 -2h-29q-8 0 -12 6l-56 82q-1 2 -3 2t-3 -2l-57 -82q-4 -6 -12 -6h-28q-6 0 -8.5 4z" />
    <glyph glyph-name="uni1EAE" unicode="&#x1eae;" horiz-adv-x="491" 
d="M412 9l-36 132q-1 3 -5 3h-252q-4 0 -5 -3l-35 -132q-2 -9 -11 -9h-34q-5 0 -7.5 3t-1.5 8l188 681q2 8 11 8h42q9 0 11 -8l188 -681l1 -3q0 -8 -10 -8h-33q-9 0 -11 9zM128.5 189.5q1.5 -1.5 3.5 -1.5h226q2 0 3.5 1.5t0.5 2.5l-115 430q-1 2 -2.5 2t-2.5 -2l-114 -430
q-1 -1 0.5 -2.5zM171.5 807.5q-30.5 26.5 -34.5 67.5q0 10 10 10h16q10 0 11 -10q3 -27 23 -44t48 -17q27 0 47 17t23 44q1 10 11 10h16q5 0 7.5 -3t1.5 -7q-3 -41 -33 -67.5t-73 -26.5t-73.5 26.5zM216 922.5q-2 3.5 1 8.5l61 110q3 7 12 7h28q6 0 8 -3.5t-1 -8.5l-67 -110
q-5 -7 -12 -7h-22q-6 0 -8 3.5z" />
    <glyph glyph-name="uni1EAF" unicode="&#x1eaf;" 
d="M348.5 467q42.5 -45 42.5 -122v-335q0 -10 -10 -10h-33q-10 0 -10 10v41q0 2 -1.5 2.5t-3.5 -1.5q-22 -30 -58 -45t-79 -15q-62 0 -105 33t-43 108q0 79 50 119.5t137 40.5h99q4 0 4 4v46q0 56 -28 89t-82 33q-43 0 -72 -21.5t-35 -56.5q-1 -9 -11 -9l-36 2q-5 0 -7.5 3
t-1.5 7q7 55 52.5 88.5t111.5 33.5q77 0 119.5 -45zM298.5 68.5q39.5 29.5 39.5 83.5v94q0 4 -4 4h-96q-62 0 -99.5 -29.5t-37.5 -84.5q0 -49 29 -73t75 -24q54 0 93.5 29.5zM154.5 610.5q-30.5 26.5 -34.5 67.5q0 10 10 10h16q10 0 11 -10q3 -27 23 -44t48 -17q27 0 47 17
t23 44q1 10 11 10h16q5 0 7.5 -3t1.5 -7q-3 -41 -33 -67.5t-73 -26.5t-73.5 26.5zM199 725.5q-2 3.5 1 8.5l61 110q3 7 12 7h28q6 0 8 -3.5t-1 -8.5l-67 -110q-5 -7 -12 -7h-22q-6 0 -8 3.5z" />
    <glyph glyph-name="uni1EB0" unicode="&#x1eb0;" horiz-adv-x="491" 
d="M412 9l-36 132q-1 3 -5 3h-252q-4 0 -5 -3l-35 -132q-2 -9 -11 -9h-34q-5 0 -7.5 3t-1.5 8l188 681q2 8 11 8h42q9 0 11 -8l188 -681l1 -3q0 -8 -10 -8h-33q-9 0 -11 9zM128.5 189.5q1.5 -1.5 3.5 -1.5h226q2 0 3.5 1.5t0.5 2.5l-115 430q-1 2 -2.5 2t-2.5 -2l-114 -430
q-1 -1 0.5 -2.5zM171.5 807.5q-30.5 26.5 -34.5 67.5q0 10 10 10h16q10 0 11 -10q3 -27 23 -44t48 -17q27 0 47 17t23 44q1 10 11 10h16q5 0 7.5 -3t1.5 -7q-3 -41 -33 -67.5t-73 -26.5t-73.5 26.5zM264 925q0 -6 -9 -6h-21q-7 0 -12 7l-68 110q-2 4 -2 6q0 6 9 6h28
q8 0 12 -7l61 -110q2 -4 2 -6z" />
    <glyph glyph-name="uni1EB1" unicode="&#x1eb1;" 
d="M348.5 467q42.5 -45 42.5 -122v-335q0 -10 -10 -10h-33q-10 0 -10 10v41q0 2 -1.5 2.5t-3.5 -1.5q-22 -30 -58 -45t-79 -15q-62 0 -105 33t-43 108q0 79 50 119.5t137 40.5h99q4 0 4 4v46q0 56 -28 89t-82 33q-43 0 -72 -21.5t-35 -56.5q-1 -9 -11 -9l-36 2q-5 0 -7.5 3
t-1.5 7q7 55 52.5 88.5t111.5 33.5q77 0 119.5 -45zM298.5 68.5q39.5 29.5 39.5 83.5v94q0 4 -4 4h-96q-62 0 -99.5 -29.5t-37.5 -84.5q0 -49 29 -73t75 -24q54 0 93.5 29.5zM154.5 610.5q-30.5 26.5 -34.5 67.5q0 10 10 10h16q10 0 11 -10q3 -27 23 -44t48 -17q27 0 47 17
t23 44q1 10 11 10h16q5 0 7.5 -3t1.5 -7q-3 -41 -33 -67.5t-73 -26.5t-73.5 26.5zM247 728q0 -6 -9 -6h-21q-7 0 -12 7l-68 110q-2 4 -2 6q0 6 9 6h28q8 0 12 -7l61 -110q2 -4 2 -6z" />
    <glyph glyph-name="uni1EB2" unicode="&#x1eb2;" horiz-adv-x="491" 
d="M412 9l-36 132q-1 3 -5 3h-252q-4 0 -5 -3l-35 -132q-2 -9 -11 -9h-34q-5 0 -7.5 3t-1.5 8l188 681q2 8 11 8h42q9 0 11 -8l188 -681l1 -3q0 -8 -10 -8h-33q-9 0 -11 9zM128.5 189.5q1.5 -1.5 3.5 -1.5h226q2 0 3.5 1.5t0.5 2.5l-115 430q-1 2 -2.5 2t-2.5 -2l-114 -430
q-1 -1 0.5 -2.5zM233 905.5q-2 3.5 0 7.5q9 21 33 45q14 14 20 23.5t6 24.5q0 16 -13 27t-31 11q-19 0 -30 -7.5t-25 -28.5q-6 -8 -14 -2l-10 7q-7 6 -3 13q18 27 35.5 39t47.5 12q34 0 56.5 -20t22.5 -51q0 -22 -10 -37t-29 -33q-20 -20 -25 -29l-2 -4q-3 -7 -11 -5l-11 3
q-5 1 -7 4.5zM172 807.5q-30 26.5 -35 67.5q0 10 10 10h16q10 0 11 -10q3 -27 23 -44t48 -17q27 0 47 17t23 44q1 10 11 10h16q10 0 10 -10q-4 -41 -34 -67.5t-73 -26.5t-73 26.5z" />
    <glyph glyph-name="uni1EB3" unicode="&#x1eb3;" 
d="M348.5 467q42.5 -45 42.5 -122v-335q0 -10 -10 -10h-33q-10 0 -10 10v41q0 2 -1.5 2.5t-3.5 -1.5q-22 -30 -58 -45t-79 -15q-62 0 -105 33t-43 108q0 79 50 119.5t137 40.5h99q4 0 4 4v46q0 56 -28 89t-82 33q-43 0 -72 -21.5t-35 -56.5q-1 -9 -11 -9l-36 2q-5 0 -7.5 3
t-1.5 7q7 55 52.5 88.5t111.5 33.5q77 0 119.5 -45zM298.5 68.5q39.5 29.5 39.5 83.5v94q0 4 -4 4h-96q-62 0 -99.5 -29.5t-37.5 -84.5q0 -49 29 -73t75 -24q54 0 93.5 29.5zM216 708.5q-2 3.5 0 7.5q9 21 33 45q14 14 20 23.5t6 24.5q0 16 -13 27t-31 11q-19 0 -30 -7.5
t-25 -28.5q-6 -8 -14 -2l-10 7q-7 6 -3 13q18 27 35.5 39t47.5 12q34 0 56.5 -20t22.5 -51q0 -22 -10 -37t-29 -33q-20 -20 -25 -29l-2 -4q-3 -7 -11 -5l-11 3q-5 1 -7 4.5zM155 610.5q-30 26.5 -35 67.5q0 10 10 10h16q10 0 11 -10q3 -27 23 -44t48 -17q27 0 47 17t23 44
q1 10 11 10h16q10 0 10 -10q-4 -41 -34 -67.5t-73 -26.5t-73 26.5z" />
    <glyph glyph-name="uni1EB4" unicode="&#x1eb4;" horiz-adv-x="491" 
d="M412 9l-36 132q-1 3 -5 3h-252q-4 0 -5 -3l-35 -132q-2 -9 -11 -9h-34q-5 0 -7.5 3t-1.5 8l188 681q2 8 11 8h42q9 0 11 -8l188 -681l1 -3q0 -8 -10 -8h-33q-9 0 -11 9zM128.5 189.5q1.5 -1.5 3.5 -1.5h226q2 0 3.5 1.5t0.5 2.5l-115 430q-1 2 -2.5 2t-2.5 -2l-114 -430
q-1 -1 0.5 -2.5zM273.5 931q-11.5 5 -29.5 17q-17 12 -25.5 16.5t-20.5 4.5q-16 0 -27 -6t-23 -21q-6 -8 -14 -2l-12 9q-8 6 -2 14q29 46 75 46q16 0 27.5 -5.5t31.5 -17.5q4 -2 13.5 -8.5t17.5 -9.5t16 -3q29 0 48 29q6 9 14 3l11 -8q4 -3 4 -8q0 -4 -3 -10
q-14 -23 -34.5 -34t-40.5 -11q-15 0 -26.5 5zM172 807.5q-30 26.5 -35 67.5q0 10 10 10h16q10 0 11 -10q3 -27 23 -44t48 -17q27 0 47 17t23 44q1 10 11 10h16q10 0 10 -10q-4 -41 -34 -67.5t-73 -26.5t-73 26.5z" />
    <glyph glyph-name="uni1EB5" unicode="&#x1eb5;" 
d="M348.5 467q42.5 -45 42.5 -122v-335q0 -10 -10 -10h-33q-10 0 -10 10v41q0 2 -1.5 2.5t-3.5 -1.5q-22 -30 -58 -45t-79 -15q-62 0 -105 33t-43 108q0 79 50 119.5t137 40.5h99q4 0 4 4v46q0 56 -28 89t-82 33q-43 0 -72 -21.5t-35 -56.5q-1 -9 -11 -9l-36 2q-5 0 -7.5 3
t-1.5 7q7 55 52.5 88.5t111.5 33.5q77 0 119.5 -45zM298.5 68.5q39.5 29.5 39.5 83.5v94q0 4 -4 4h-96q-62 0 -99.5 -29.5t-37.5 -84.5q0 -49 29 -73t75 -24q54 0 93.5 29.5zM256.5 734q-11.5 5 -29.5 17q-17 12 -25.5 16.5t-20.5 4.5q-16 0 -27 -6t-23 -21q-6 -8 -14 -2
l-12 9q-8 6 -2 14q29 46 75 46q16 0 27.5 -5.5t31.5 -17.5q4 -2 13.5 -8.5t17.5 -9.5t16 -3q29 0 48 29q6 9 14 3l11 -8q4 -3 4 -8q0 -4 -3 -10q-14 -23 -34.5 -34t-40.5 -11q-15 0 -26.5 5zM155 610.5q-30 26.5 -35 67.5q0 10 10 10h16q10 0 11 -10q3 -27 23 -44t48 -17
q27 0 47 17t23 44q1 10 11 10h16q10 0 10 -10q-4 -41 -34 -67.5t-73 -26.5t-73 26.5z" />
    <glyph glyph-name="uni1EB6" unicode="&#x1eb6;" horiz-adv-x="491" 
d="M412 9l-36 132q-1 3 -5 3h-252q-4 0 -5 -3l-35 -132q-2 -9 -11 -9h-34q-5 0 -7.5 3t-1.5 8l188 681q2 8 11 8h42q9 0 11 -8l188 -681l1 -3q0 -8 -10 -8h-33q-9 0 -11 9zM128.5 189.5q1.5 -1.5 3.5 -1.5h226q2 0 3.5 1.5t0.5 2.5l-115 430q-1 2 -2.5 2t-2.5 -2l-114 -430
q-1 -1 0.5 -2.5zM211.5 -163.5q-13.5 13.5 -13.5 33.5q0 21 13.5 34.5t34.5 13.5q20 0 33.5 -13.5t13.5 -34.5q0 -20 -13.5 -33.5t-33.5 -13.5q-21 0 -34.5 13.5zM171.5 807.5q-30.5 26.5 -34.5 67.5q0 10 10 10h16q10 0 11 -10q3 -27 23 -44t48 -17q27 0 47 17t23 44
q1 10 11 10h16q5 0 7.5 -3t1.5 -7q-3 -41 -33 -67.5t-73 -26.5t-73.5 26.5z" />
    <glyph glyph-name="uni1EB7" unicode="&#x1eb7;" 
d="M348.5 467q42.5 -45 42.5 -122v-335q0 -10 -10 -10h-33q-10 0 -10 10v41q0 2 -1.5 2.5t-3.5 -1.5q-22 -30 -58 -45t-79 -15q-62 0 -105 33t-43 108q0 79 50 119.5t137 40.5h99q4 0 4 4v46q0 56 -28 89t-82 33q-43 0 -72 -21.5t-35 -56.5q-1 -9 -11 -9l-36 2q-5 0 -7.5 3
t-1.5 7q7 55 52.5 88.5t111.5 33.5q77 0 119.5 -45zM298.5 68.5q39.5 29.5 39.5 83.5v94q0 4 -4 4h-96q-62 0 -99.5 -29.5t-37.5 -84.5q0 -49 29 -73t75 -24q54 0 93.5 29.5zM193.5 -163.5q-13.5 13.5 -13.5 33.5q0 21 13.5 34.5t34.5 13.5q20 0 33.5 -13.5t13.5 -34.5
q0 -20 -13.5 -33.5t-33.5 -13.5q-21 0 -34.5 13.5zM154.5 610.5q-30.5 26.5 -34.5 67.5q0 10 10 10h16q10 0 11 -10q3 -27 23 -44t48 -17q27 0 47 17t23 44q1 10 11 10h16q5 0 7.5 -3t1.5 -7q-3 -41 -33 -67.5t-73 -26.5t-73.5 26.5z" />
    <glyph glyph-name="uni1EB8" unicode="&#x1eb8;" horiz-adv-x="519" 
d="M455 653h-307q-4 0 -4 -4v-271q0 -4 4 -4h210q10 0 10 -10v-27q0 -10 -10 -10h-210q-4 0 -4 -4v-272q0 -4 4 -4h307q10 0 10 -10v-27q0 -10 -10 -10h-354q-10 0 -10 10v680q0 10 10 10h354q10 0 10 -10v-27q0 -10 -10 -10zM241.5 -163.5q-13.5 13.5 -13.5 33.5
q0 21 13.5 34.5t34.5 13.5q20 0 33.5 -13.5t13.5 -34.5q0 -20 -13.5 -33.5t-33.5 -13.5q-21 0 -34.5 13.5z" />
    <glyph glyph-name="uni1EB9" unicode="&#x1eb9;" horiz-adv-x="465" 
d="M308.5 60.5q30.5 21.5 42.5 57.5q3 9 12 7l30 -5q5 -1 6.5 -4.5t0.5 -7.5q-16 -53 -59.5 -84.5t-104.5 -31.5q-69 0 -113.5 38.5t-53.5 101.5q-4 24 -5 55.5t-1 64.5q0 82 4 115q8 64 53.5 104.5t113.5 40.5q73 0 119 -42t52 -110q3 -33 3 -118q0 -10 -10 -10h-278
q-4 0 -4 -4q0 -61 2 -83q5 -48 37 -77t82 -29q41 0 71.5 21.5zM154.5 435.5q-31.5 -29.5 -36.5 -76.5q-2 -22 -2 -78q0 -4 4 -4h231q4 0 4 4q0 45 -3 78q-5 47 -37 76.5t-80 29.5q-49 0 -80.5 -29.5zM199.5 -167.5q-13.5 13.5 -13.5 33.5q0 21 13.5 34.5t34.5 13.5
q20 0 33.5 -13.5t13.5 -34.5q0 -20 -13.5 -33.5t-33.5 -13.5q-21 0 -34.5 13.5z" />
    <glyph glyph-name="uni1EBA" unicode="&#x1eba;" horiz-adv-x="519" 
d="M455 653h-307q-4 0 -4 -4v-271q0 -4 4 -4h210q10 0 10 -10v-27q0 -10 -10 -10h-210q-4 0 -4 -4v-272q0 -4 4 -4h307q10 0 10 -10v-27q0 -10 -10 -10h-354q-10 0 -10 10v680q0 10 10 10h354q10 0 10 -10v-27q0 -10 -10 -10zM262.5 750.5q-1.5 3.5 0.5 7.5q7 15 15 25
t20 22q13 13 19.5 23t6.5 25q0 16 -13.5 27.5t-31.5 11.5q-19 0 -30.5 -8t-25.5 -28q-6 -9 -14 -3l-10 7q-9 6 -3 14q18 27 35.5 39t48.5 12q35 0 57 -20.5t22 -51.5q0 -22 -9.5 -36.5t-29.5 -34.5q-19 -17 -26 -30l-2 -4q-3 -8 -11 -5l-12 3q-5 1 -6.5 4.5z" />
    <glyph glyph-name="uni1EBB" unicode="&#x1ebb;" horiz-adv-x="465" 
d="M308.5 60.5q30.5 21.5 42.5 57.5q3 9 12 7l30 -5q5 -1 6.5 -4.5t0.5 -7.5q-16 -53 -59.5 -84.5t-104.5 -31.5q-69 0 -113.5 38.5t-53.5 101.5q-4 24 -5 55.5t-1 64.5q0 82 4 115q8 64 53.5 104.5t113.5 40.5q73 0 119 -42t52 -110q3 -33 3 -118q0 -10 -10 -10h-278
q-4 0 -4 -4q0 -61 2 -83q5 -48 37 -77t82 -29q41 0 71.5 21.5zM154.5 435.5q-31.5 -29.5 -36.5 -76.5q-2 -22 -2 -78q0 -4 4 -4h231q4 0 4 4q0 45 -3 78q-5 47 -37 76.5t-80 29.5q-49 0 -80.5 -29.5zM219.5 554.5q-1.5 3.5 0.5 7.5q7 15 15 25t20 22q13 13 19.5 23t6.5 25
q0 16 -13.5 27.5t-31.5 11.5q-19 0 -30.5 -8t-25.5 -28q-6 -9 -14 -3l-10 7q-9 6 -3 14q18 27 35.5 39t48.5 12q35 0 57 -20.5t22 -51.5q0 -22 -9.5 -36.5t-29.5 -34.5q-19 -17 -26 -30l-2 -4q-3 -8 -11 -5l-12 3q-5 1 -6.5 4.5z" />
    <glyph glyph-name="uni1EBC" unicode="&#x1ebc;" horiz-adv-x="519" 
d="M455 653h-307q-4 0 -4 -4v-271q0 -4 4 -4h210q10 0 10 -10v-27q0 -10 -10 -10h-210q-4 0 -4 -4v-272q0 -4 4 -4h307q10 0 10 -10v-27q0 -10 -10 -10h-354q-10 0 -10 10v680q0 10 10 10h354q10 0 10 -10v-27q0 -10 -10 -10zM280 831q-3 2 -13 8.5t-18 9.5t-16 3
q-16 0 -27.5 -6t-23.5 -21q-6 -9 -14 -3l-12 9q-8 6 -2 14q28 47 76 47q16 0 29 -5.5t30 -16.5q3 -2 13 -8.5t18.5 -10t16.5 -3.5q15 0 27 6.5t23 23.5q2 4 6 5t8 -2l12 -9q4 -3 4 -7q0 -5 -3 -11q-15 -23 -36 -34t-42 -11q-26 0 -56 22z" />
    <glyph glyph-name="uni1EBD" unicode="&#x1ebd;" horiz-adv-x="465" 
d="M308.5 60.5q30.5 21.5 42.5 57.5q3 9 12 7l30 -5q5 -1 6.5 -4.5t0.5 -7.5q-16 -53 -59.5 -84.5t-104.5 -31.5q-69 0 -113.5 38.5t-53.5 101.5q-4 24 -5 55.5t-1 64.5q0 82 4 115q8 64 53.5 104.5t113.5 40.5q73 0 119 -42t52 -110q3 -33 3 -118q0 -10 -10 -10h-278
q-4 0 -4 -4q0 -61 2 -83q5 -48 37 -77t82 -29q41 0 71.5 21.5zM154.5 435.5q-31.5 -29.5 -36.5 -76.5q-2 -22 -2 -78q0 -4 4 -4h231q4 0 4 4q0 45 -3 78q-5 47 -37 76.5t-80 29.5q-49 0 -80.5 -29.5zM237 635q-3 2 -13 8.5t-18 9.5t-16 3q-16 0 -27.5 -6t-23.5 -21
q-6 -9 -14 -3l-12 9q-8 6 -2 14q28 47 76 47q16 0 29 -5.5t30 -16.5q3 -2 13 -8.5t18.5 -10t16.5 -3.5q15 0 27 6.5t23 23.5q2 4 6 5t8 -2l12 -9q4 -3 4 -7q0 -5 -3 -11q-15 -23 -36 -34t-42 -11q-26 0 -56 22z" />
    <glyph glyph-name="uni1EBE" unicode="&#x1ebe;" horiz-adv-x="519" 
d="M455 653h-307q-4 0 -4 -4v-271q0 -4 4 -4h210q10 0 10 -10v-27q0 -10 -10 -10h-210q-4 0 -4 -4v-272q0 -4 4 -4h307q10 0 10 -10v-27q0 -10 -10 -10h-354q-10 0 -10 10v680q0 10 10 10h354q10 0 10 -10v-27q0 -10 -10 -10zM167.5 777q-2.5 4 1.5 8l74 105q4 6 12 6h40
q8 0 12 -6l75 -105q2 -2 2 -6q0 -2 -2 -4t-6 -2h-29q-8 0 -12 6l-56 82q-1 2 -3 2t-3 -2l-57 -82q-4 -6 -12 -6h-28q-6 0 -8.5 4zM387 847.5q-2 3.5 1 8.5l61 110q3 7 12 7h28q6 0 8 -3.5t-1 -8.5l-67 -110q-5 -7 -12 -7h-22q-6 0 -8 3.5z" />
    <glyph glyph-name="uni1EBF" unicode="&#x1ebf;" horiz-adv-x="465" 
d="M308.5 60.5q30.5 21.5 42.5 57.5q3 9 12 7l30 -5q5 -1 6.5 -4.5t0.5 -7.5q-16 -53 -59.5 -84.5t-104.5 -31.5q-69 0 -113.5 38.5t-53.5 101.5q-4 24 -5 55.5t-1 64.5q0 82 4 115q8 64 53.5 104.5t113.5 40.5q73 0 119 -42t52 -110q3 -33 3 -118q0 -10 -10 -10h-278
q-4 0 -4 -4q0 -61 2 -83q5 -48 37 -77t82 -29q41 0 71.5 21.5zM154.5 435.5q-31.5 -29.5 -36.5 -76.5q-2 -22 -2 -78q0 -4 4 -4h231q4 0 4 4q0 45 -3 78q-5 47 -37 76.5t-80 29.5q-49 0 -80.5 -29.5zM123.5 581q-2.5 4 1.5 8l74 105q4 6 12 6h40q8 0 12 -6l75 -105
q2 -2 2 -6q0 -2 -2 -4t-6 -2h-29q-8 0 -12 6l-56 82q-1 2 -3 2t-3 -2l-57 -82q-4 -6 -12 -6h-28q-6 0 -8.5 4zM343 651.5q-2 3.5 1 8.5l61 110q3 7 12 7h28q6 0 8 -3.5t-1 -8.5l-67 -110q-5 -7 -12 -7h-22q-6 0 -8 3.5z" />
    <glyph glyph-name="uni1EC0" unicode="&#x1ec0;" horiz-adv-x="519" 
d="M455 653h-307q-4 0 -4 -4v-271q0 -4 4 -4h210q10 0 10 -10v-27q0 -10 -10 -10h-210q-4 0 -4 -4v-272q0 -4 4 -4h307q10 0 10 -10v-27q0 -10 -10 -10h-354q-10 0 -10 10v680q0 10 10 10h354q10 0 10 -10v-27q0 -10 -10 -10zM166.5 777q-2.5 4 1.5 8l74 105q4 6 12 6h40
q8 0 12 -6l75 -105q2 -2 2 -6q0 -2 -2 -4t-6 -2h-29q-8 0 -12 6l-56 82q-1 2 -3 2t-3 -2l-57 -82q-4 -6 -12 -6h-28q-6 0 -8.5 4zM425 891q0 -6 -9 -6h-21q-7 0 -12 7l-68 110q-2 4 -2 6q0 6 9 6h28q8 0 12 -7l61 -110q2 -4 2 -6z" />
    <glyph glyph-name="uni1EC1" unicode="&#x1ec1;" horiz-adv-x="465" 
d="M308.5 60.5q30.5 21.5 42.5 57.5q3 9 12 7l30 -5q5 -1 6.5 -4.5t0.5 -7.5q-16 -53 -59.5 -84.5t-104.5 -31.5q-69 0 -113.5 38.5t-53.5 101.5q-4 24 -5 55.5t-1 64.5q0 82 4 115q8 64 53.5 104.5t113.5 40.5q73 0 119 -42t52 -110q3 -33 3 -118q0 -10 -10 -10h-278
q-4 0 -4 -4q0 -61 2 -83q5 -48 37 -77t82 -29q41 0 71.5 21.5zM154.5 435.5q-31.5 -29.5 -36.5 -76.5q-2 -22 -2 -78q0 -4 4 -4h231q4 0 4 4q0 45 -3 78q-5 47 -37 76.5t-80 29.5q-49 0 -80.5 -29.5zM123.5 581q-2.5 4 1.5 8l74 105q4 6 12 6h40q8 0 12 -6l75 -105
q2 -2 2 -6q0 -2 -2 -4t-6 -2h-29q-8 0 -12 6l-56 82q-1 2 -3 2t-3 -2l-57 -82q-4 -6 -12 -6h-28q-6 0 -8.5 4zM382 695q0 -6 -9 -6h-21q-7 0 -12 7l-68 110q-2 4 -2 6q0 6 9 6h28q8 0 12 -7l61 -110q2 -4 2 -6z" />
    <glyph glyph-name="uni1EC2" unicode="&#x1ec2;" horiz-adv-x="519" 
d="M455 653h-307q-4 0 -4 -4v-271q0 -4 4 -4h210q10 0 10 -10v-27q0 -10 -10 -10h-210q-4 0 -4 -4v-272q0 -4 4 -4h307q10 0 10 -10v-27q0 -10 -10 -10h-354q-10 0 -10 10v680q0 10 10 10h354q10 0 10 -10v-27q0 -10 -10 -10zM373.5 872.5q-1.5 3.5 0.5 7.5q8 18 19.5 30
t13.5 15q14 13 20.5 23t6.5 26q0 15 -13.5 26.5t-31.5 11.5q-19 0 -30 -8t-25 -28q-6 -9 -14 -3l-10 7q-9 6 -3 14q18 27 35.5 39t47.5 12q34 0 56.5 -20t22.5 -51q0 -22 -9.5 -36.5t-28.5 -33.5q-21 -21 -27 -33q-3 -10 -12 -7l-12 3q-5 2 -6.5 5.5zM166.5 777
q-2.5 4 1.5 8l74 105q4 6 12 6h40q8 0 12 -6l75 -105q2 -2 2 -6q0 -2 -2 -4t-6 -2h-29q-8 0 -12 6l-56 82q-1 2 -3 2t-3 -2l-57 -82q-4 -6 -12 -6h-28q-6 0 -8.5 4z" />
    <glyph glyph-name="uni1EC3" unicode="&#x1ec3;" horiz-adv-x="465" 
d="M308.5 60.5q30.5 21.5 42.5 57.5q3 9 12 7l30 -5q5 -1 6.5 -4.5t0.5 -7.5q-16 -53 -59.5 -84.5t-104.5 -31.5q-69 0 -113.5 38.5t-53.5 101.5q-4 24 -5 55.5t-1 64.5q0 82 4 115q8 64 53.5 104.5t113.5 40.5q73 0 119 -42t52 -110q3 -33 3 -118q0 -10 -10 -10h-278
q-4 0 -4 -4q0 -61 2 -83q5 -48 37 -77t82 -29q41 0 71.5 21.5zM154.5 435.5q-31.5 -29.5 -36.5 -76.5q-2 -22 -2 -78q0 -4 4 -4h231q4 0 4 4q0 45 -3 78q-5 47 -37 76.5t-80 29.5q-49 0 -80.5 -29.5zM330.5 676.5q-1.5 3.5 0.5 7.5q8 18 19.5 30t13.5 15q14 13 20.5 23
t6.5 26q0 15 -13.5 26.5t-31.5 11.5q-19 0 -30 -8t-25 -28q-6 -9 -14 -3l-10 7q-9 6 -3 14q18 27 35.5 39t47.5 12q34 0 56.5 -20t22.5 -51q0 -22 -9.5 -36.5t-28.5 -33.5q-21 -21 -27 -33q-3 -10 -12 -7l-12 3q-5 2 -6.5 5.5zM123.5 581q-2.5 4 1.5 8l74 105q4 6 12 6h40
q8 0 12 -6l75 -105q2 -2 2 -6q0 -2 -2 -4t-6 -2h-29q-8 0 -12 6l-56 82q-1 2 -3 2t-3 -2l-57 -82q-4 -6 -12 -6h-28q-6 0 -8.5 4z" />
    <glyph glyph-name="uni1EC4" unicode="&#x1ec4;" horiz-adv-x="519" 
d="M455 653h-307q-4 0 -4 -4v-271q0 -4 4 -4h210q10 0 10 -10v-27q0 -10 -10 -10h-210q-4 0 -4 -4v-272q0 -4 4 -4h307q10 0 10 -10v-27q0 -10 -10 -10h-354q-10 0 -10 10v680q0 10 10 10h354q10 0 10 -10v-27q0 -10 -10 -10zM166.5 777q-2.5 4 1.5 8l74 105q4 6 12 6h40
q8 0 12 -6l75 -105q2 -2 2 -6q0 -2 -2 -4t-6 -2h-29q-8 0 -12 6l-56 82q-1 2 -3 2t-3 -2l-57 -82q-4 -6 -12 -6h-28q-6 0 -8.5 4zM277 949q-3 2 -13 8.5t-18 9.5t-16 3q-16 0 -27.5 -6t-23.5 -21q-6 -9 -14 -3l-12 9q-8 6 -2 14q28 47 76 47q16 0 29 -5.5t30 -16.5
q3 -2 13 -8.5t18.5 -10t16.5 -3.5q15 0 27 6.5t23 23.5q2 4 6 5t8 -2l12 -9q4 -3 4 -7q0 -5 -3 -11q-15 -23 -36 -34t-42 -11q-26 0 -56 22z" />
    <glyph glyph-name="uni1EC5" unicode="&#x1ec5;" horiz-adv-x="465" 
d="M308.5 60.5q30.5 21.5 42.5 57.5q3 9 12 7l30 -5q5 -1 6.5 -4.5t0.5 -7.5q-16 -53 -59.5 -84.5t-104.5 -31.5q-69 0 -113.5 38.5t-53.5 101.5q-4 24 -5 55.5t-1 64.5q0 82 4 115q8 64 53.5 104.5t113.5 40.5q73 0 119 -42t52 -110q3 -33 3 -118q0 -10 -10 -10h-278
q-4 0 -4 -4q0 -61 2 -83q5 -48 37 -77t82 -29q41 0 71.5 21.5zM154.5 435.5q-31.5 -29.5 -36.5 -76.5q-2 -22 -2 -78q0 -4 4 -4h231q4 0 4 4q0 45 -3 78q-5 47 -37 76.5t-80 29.5q-49 0 -80.5 -29.5zM123.5 581q-2.5 4 1.5 8l74 105q4 6 12 6h40q8 0 12 -6l75 -105
q2 -2 2 -6q0 -2 -2 -4t-6 -2h-29q-8 0 -12 6l-56 82q-1 2 -3 2t-3 -2l-57 -82q-4 -6 -12 -6h-28q-6 0 -8.5 4zM234 753q-3 2 -13 8.5t-18 9.5t-16 3q-16 0 -27.5 -6t-23.5 -21q-6 -9 -14 -3l-12 9q-8 6 -2 14q28 47 76 47q16 0 29 -5.5t30 -16.5q3 -2 13 -8.5t18.5 -10
t16.5 -3.5q15 0 27 6.5t23 23.5q2 4 6 5t8 -2l12 -9q4 -3 4 -7q0 -5 -3 -11q-15 -23 -36 -34t-42 -11q-26 0 -56 22z" />
    <glyph glyph-name="uni1EC6" unicode="&#x1ec6;" horiz-adv-x="519" 
d="M455 653h-307q-4 0 -4 -4v-271q0 -4 4 -4h210q10 0 10 -10v-27q0 -10 -10 -10h-210q-4 0 -4 -4v-272q0 -4 4 -4h307q10 0 10 -10v-27q0 -10 -10 -10h-354q-10 0 -10 10v680q0 10 10 10h354q10 0 10 -10v-27q0 -10 -10 -10zM241.5 -163.5q-13.5 13.5 -13.5 33.5
q0 21 13.5 34.5t34.5 13.5q20 0 33.5 -13.5t13.5 -34.5q0 -20 -13.5 -33.5t-33.5 -13.5q-21 0 -34.5 13.5zM166.5 777q-2.5 4 1.5 8l74 105q4 6 12 6h40q8 0 12 -6l75 -105q2 -2 2 -6q0 -2 -2 -4t-6 -2h-29q-8 0 -12 6l-56 82q-1 2 -3 2t-3 -2l-57 -82q-4 -6 -12 -6h-28
q-6 0 -8.5 4z" />
    <glyph glyph-name="uni1EC7" unicode="&#x1ec7;" horiz-adv-x="465" 
d="M308.5 60.5q30.5 21.5 42.5 57.5q3 9 12 7l30 -5q5 -1 6.5 -4.5t0.5 -7.5q-16 -53 -59.5 -84.5t-104.5 -31.5q-69 0 -113.5 38.5t-53.5 101.5q-4 24 -5 55.5t-1 64.5q0 82 4 115q8 64 53.5 104.5t113.5 40.5q73 0 119 -42t52 -110q3 -33 3 -118q0 -10 -10 -10h-278
q-4 0 -4 -4q0 -61 2 -83q5 -48 37 -77t82 -29q41 0 71.5 21.5zM154.5 435.5q-31.5 -29.5 -36.5 -76.5q-2 -22 -2 -78q0 -4 4 -4h231q4 0 4 4q0 45 -3 78q-5 47 -37 76.5t-80 29.5q-49 0 -80.5 -29.5zM199.5 -167.5q-13.5 13.5 -13.5 33.5q0 21 13.5 34.5t34.5 13.5
q20 0 33.5 -13.5t13.5 -34.5q0 -20 -13.5 -33.5t-33.5 -13.5q-21 0 -34.5 13.5zM123.5 581q-2.5 4 1.5 8l74 105q4 6 12 6h40q8 0 12 -6l75 -105q2 -2 2 -6q0 -2 -2 -4t-6 -2h-29q-8 0 -12 6l-56 82q-1 2 -3 2t-3 -2l-57 -82q-4 -6 -12 -6h-28q-6 0 -8.5 4z" />
    <glyph glyph-name="uni1EC8" unicode="&#x1ec8;" horiz-adv-x="234" 
d="M91 10v680q0 10 10 10h33q10 0 10 -10v-680q0 -10 -10 -10h-33q-10 0 -10 10zM104.5 750.5q-1.5 3.5 0.5 7.5q7 15 15 25t20 22q13 13 19.5 23t6.5 25q0 16 -13.5 27.5t-31.5 11.5q-19 0 -30.5 -8t-25.5 -28q-6 -9 -14 -3l-10 7q-9 6 -3 14q18 27 35.5 39t48.5 12
q35 0 57 -20.5t22 -51.5q0 -22 -9.5 -36.5t-29.5 -34.5q-19 -17 -26 -30l-2 -4q-3 -8 -11 -5l-12 3q-5 1 -6.5 4.5z" />
    <glyph glyph-name="uni1EC9" unicode="&#x1ec9;" horiz-adv-x="184" 
d="M66 10v484q0 10 10 10h33q10 0 10 -10v-484q0 -10 -10 -10h-33q-10 0 -10 10zM79.5 554.5q-1.5 3.5 0.5 7.5q7 15 15 25t20 22q13 13 19.5 23t6.5 25q0 16 -13.5 27.5t-31.5 11.5q-19 0 -30.5 -8t-25.5 -28q-6 -9 -14 -3l-10 7q-9 6 -3 14q18 27 35.5 39t48.5 12
q35 0 57 -20.5t22 -51.5q0 -22 -9.5 -36.5t-29.5 -34.5q-19 -17 -26 -30l-2 -4q-3 -8 -11 -5l-12 3q-5 1 -6.5 4.5z" />
    <glyph glyph-name="uni1ECA" unicode="&#x1eca;" horiz-adv-x="234" 
d="M91 10v680q0 10 10 10h33q10 0 10 -10v-680q0 -10 -10 -10h-33q-10 0 -10 10zM83.5 -163.5q-13.5 13.5 -13.5 33.5q0 21 13.5 34.5t34.5 13.5q20 0 33.5 -13.5t13.5 -34.5q0 -20 -13.5 -33.5t-33.5 -13.5q-21 0 -34.5 13.5z" />
    <glyph glyph-name="uni1ECB" unicode="&#x1ecb;" horiz-adv-x="230" 
d="M79 619q-14 14 -14 36t14 36t36 14t36 -14t14 -36t-14 -36t-36 -14t-36 14zM87 10v484q0 10 10 10h33q10 0 10 -10v-484q0 -10 -10 -10h-33q-10 0 -10 10zM81.5 -163.5q-13.5 13.5 -13.5 33.5q0 21 13.5 34.5t34.5 13.5q20 0 33.5 -13.5t13.5 -34.5q0 -20 -13.5 -33.5
t-33.5 -13.5q-21 0 -34.5 13.5z" />
    <glyph glyph-name="uni1ECC" unicode="&#x1ecc;" horiz-adv-x="537" 
d="M124 46.5q-54 54.5 -54 143.5v320q0 58 24.5 103t69.5 70t103 25q59 0 104.5 -25t70.5 -70t25 -103v-320q0 -59 -25 -104t-70.5 -69.5t-104.5 -24.5q-89 0 -143 54.5zM373.5 80q40.5 41 40.5 107v324q0 67 -40.5 108.5t-106.5 41.5q-65 0 -104.5 -41.5t-39.5 -108.5v-324
q0 -66 40 -107t104 -41q66 0 106.5 41zM234.5 -163.5q-13.5 13.5 -13.5 33.5q0 21 13.5 34.5t34.5 13.5q20 0 33.5 -13.5t13.5 -34.5q0 -20 -13.5 -33.5t-33.5 -13.5q-21 0 -34.5 13.5z" />
    <glyph glyph-name="uni1ECD" unicode="&#x1ecd;" horiz-adv-x="470" 
d="M121.5 31q-45.5 39 -53.5 104q-6 41 -6 117q0 77 6 117q8 65 53.5 104t115.5 39q69 0 114.5 -39.5t53.5 -103.5q5 -34 5 -117t-5 -117q-8 -65 -54 -104t-115 -39t-114.5 39zM316.5 68q32.5 29 37.5 77q3 29 3 107t-3 107q-5 48 -37.5 77t-80.5 29t-80 -29t-37 -77
q-3 -29 -3 -107t3 -107q5 -48 37 -77t80 -29t80.5 29zM201.5 -163.5q-13.5 13.5 -13.5 33.5q0 21 13.5 34.5t34.5 13.5q20 0 33.5 -13.5t13.5 -34.5q0 -20 -13.5 -33.5t-33.5 -13.5q-21 0 -34.5 13.5z" />
    <glyph glyph-name="uni1ECE" unicode="&#x1ece;" horiz-adv-x="537" 
d="M124 46.5q-54 54.5 -54 143.5v320q0 58 24.5 103t69.5 70t103 25q59 0 104.5 -25t70.5 -70t25 -103v-320q0 -59 -25 -104t-70.5 -69.5t-104.5 -24.5q-89 0 -143 54.5zM373.5 80q40.5 41 40.5 107v324q0 67 -40.5 108.5t-106.5 41.5q-65 0 -104.5 -41.5t-39.5 -108.5v-324
q0 -66 40 -107t104 -41q66 0 106.5 41zM254.5 750.5q-1.5 3.5 0.5 7.5q7 15 15 25t20 22q13 13 19.5 23t6.5 25q0 16 -13.5 27.5t-31.5 11.5q-19 0 -30.5 -8t-25.5 -28q-6 -9 -14 -3l-10 7q-9 6 -3 14q18 27 35.5 39t48.5 12q35 0 57 -20.5t22 -51.5q0 -22 -9.5 -36.5
t-29.5 -34.5q-19 -17 -26 -30l-2 -4q-3 -8 -11 -5l-12 3q-5 1 -6.5 4.5z" />
    <glyph glyph-name="uni1ECF" unicode="&#x1ecf;" horiz-adv-x="470" 
d="M121.5 31q-45.5 39 -53.5 104q-6 41 -6 117q0 77 6 117q8 65 53.5 104t115.5 39q69 0 114.5 -39.5t53.5 -103.5q5 -34 5 -117t-5 -117q-8 -65 -54 -104t-115 -39t-114.5 39zM316.5 68q32.5 29 37.5 77q3 29 3 107t-3 107q-5 48 -37.5 77t-80.5 29t-80 -29t-37 -77
q-3 -29 -3 -107t3 -107q5 -48 37 -77t80 -29t80.5 29zM221.5 554.5q-1.5 3.5 0.5 7.5q7 15 15 25t20 22q13 13 19.5 23t6.5 25q0 16 -13.5 27.5t-31.5 11.5q-19 0 -30.5 -8t-25.5 -28q-6 -9 -14 -3l-10 7q-9 6 -3 14q18 27 35.5 39t48.5 12q35 0 57 -20.5t22 -51.5
q0 -22 -9.5 -36.5t-29.5 -34.5q-19 -17 -26 -30l-2 -4q-3 -8 -11 -5l-12 3q-5 1 -6.5 4.5z" />
    <glyph glyph-name="uni1ED0" unicode="&#x1ed0;" horiz-adv-x="537" 
d="M124 46.5q-54 54.5 -54 143.5v320q0 58 24.5 103t69.5 70t103 25q59 0 104.5 -25t70.5 -70t25 -103v-320q0 -59 -25 -104t-70.5 -69.5t-104.5 -24.5q-89 0 -143 54.5zM373.5 80q40.5 41 40.5 107v324q0 67 -40.5 108.5t-106.5 41.5q-65 0 -104.5 -41.5t-39.5 -108.5v-324
q0 -66 40 -107t104 -41q66 0 106.5 41zM158.5 777q-2.5 4 1.5 8l74 105q4 6 12 6h40q8 0 12 -6l75 -105q2 -2 2 -6q0 -2 -2 -4t-6 -2h-29q-8 0 -12 6l-56 82q-1 2 -3 2t-3 -2l-57 -82q-4 -6 -12 -6h-28q-6 0 -8.5 4zM378 847.5q-2 3.5 1 8.5l61 110q3 7 12 7h28q6 0 8 -3.5
t-1 -8.5l-67 -110q-5 -7 -12 -7h-22q-6 0 -8 3.5z" />
    <glyph glyph-name="uni1ED1" unicode="&#x1ed1;" horiz-adv-x="470" 
d="M121.5 31q-45.5 39 -53.5 104q-6 41 -6 117q0 77 6 117q8 65 53.5 104t115.5 39q69 0 114.5 -39.5t53.5 -103.5q5 -34 5 -117t-5 -117q-8 -65 -54 -104t-115 -39t-114.5 39zM316.5 68q32.5 29 37.5 77q3 29 3 107t-3 107q-5 48 -37.5 77t-80.5 29t-80 -29t-37 -77
q-3 -29 -3 -107t3 -107q5 -48 37 -77t80 -29t80.5 29zM126.5 581q-2.5 4 1.5 8l74 105q4 6 12 6h40q8 0 12 -6l75 -105q2 -2 2 -6q0 -2 -2 -4t-6 -2h-29q-8 0 -12 6l-56 82q-1 2 -3 2t-3 -2l-57 -82q-4 -6 -12 -6h-28q-6 0 -8.5 4zM346 651.5q-2 3.5 1 8.5l61 110q3 7 12 7
h28q6 0 8 -3.5t-1 -8.5l-67 -110q-5 -7 -12 -7h-22q-6 0 -8 3.5z" />
    <glyph glyph-name="uni1ED2" unicode="&#x1ed2;" horiz-adv-x="537" 
d="M124 46.5q-54 54.5 -54 143.5v320q0 58 24.5 103t69.5 70t103 25q59 0 104.5 -25t70.5 -70t25 -103v-320q0 -59 -25 -104t-70.5 -69.5t-104.5 -24.5q-89 0 -143 54.5zM373.5 80q40.5 41 40.5 107v324q0 67 -40.5 108.5t-106.5 41.5q-65 0 -104.5 -41.5t-39.5 -108.5v-324
q0 -66 40 -107t104 -41q66 0 106.5 41zM158.5 777q-2.5 4 1.5 8l74 105q4 6 12 6h40q8 0 12 -6l75 -105q2 -2 2 -6q0 -2 -2 -4t-6 -2h-29q-8 0 -12 6l-56 82q-1 2 -3 2t-3 -2l-57 -82q-4 -6 -12 -6h-28q-6 0 -8.5 4zM417 891q0 -6 -9 -6h-21q-7 0 -12 7l-68 110q-2 4 -2 6
q0 6 9 6h28q8 0 12 -7l61 -110q2 -4 2 -6z" />
    <glyph glyph-name="uni1ED3" unicode="&#x1ed3;" horiz-adv-x="470" 
d="M121.5 31q-45.5 39 -53.5 104q-6 41 -6 117q0 77 6 117q8 65 53.5 104t115.5 39q69 0 114.5 -39.5t53.5 -103.5q5 -34 5 -117t-5 -117q-8 -65 -54 -104t-115 -39t-114.5 39zM316.5 68q32.5 29 37.5 77q3 29 3 107t-3 107q-5 48 -37.5 77t-80.5 29t-80 -29t-37 -77
q-3 -29 -3 -107t3 -107q5 -48 37 -77t80 -29t80.5 29zM125.5 581q-2.5 4 1.5 8l74 105q4 6 12 6h40q8 0 12 -6l75 -105q2 -2 2 -6q0 -2 -2 -4t-6 -2h-29q-8 0 -12 6l-56 82q-1 2 -3 2t-3 -2l-57 -82q-4 -6 -12 -6h-28q-6 0 -8.5 4zM384 695q0 -6 -9 -6h-21q-7 0 -12 7
l-68 110q-2 4 -2 6q0 6 9 6h28q8 0 12 -7l61 -110q2 -4 2 -6z" />
    <glyph glyph-name="uni1ED4" unicode="&#x1ed4;" horiz-adv-x="537" 
d="M124 46.5q-54 54.5 -54 143.5v320q0 58 24.5 103t69.5 70t103 25q59 0 104.5 -25t70.5 -70t25 -103v-320q0 -59 -25 -104t-70.5 -69.5t-104.5 -24.5q-89 0 -143 54.5zM373.5 80q40.5 41 40.5 107v324q0 67 -40.5 108.5t-106.5 41.5q-65 0 -104.5 -41.5t-39.5 -108.5v-324
q0 -66 40 -107t104 -41q66 0 106.5 41zM365.5 872.5q-1.5 3.5 0.5 7.5q8 18 19.5 30t13.5 15q14 13 20.5 23t6.5 26q0 15 -13.5 26.5t-31.5 11.5q-19 0 -30 -8t-25 -28q-6 -9 -14 -3l-10 7q-9 6 -3 14q18 27 35.5 39t47.5 12q34 0 56.5 -20t22.5 -51q0 -22 -9.5 -36.5
t-28.5 -33.5q-21 -21 -27 -33q-3 -10 -12 -7l-12 3q-5 2 -6.5 5.5zM158.5 777q-2.5 4 1.5 8l74 105q4 6 12 6h40q8 0 12 -6l75 -105q2 -2 2 -6q0 -2 -2 -4t-6 -2h-29q-8 0 -12 6l-56 82q-1 2 -3 2t-3 -2l-57 -82q-4 -6 -12 -6h-28q-6 0 -8.5 4z" />
    <glyph glyph-name="uni1ED5" unicode="&#x1ed5;" horiz-adv-x="470" 
d="M121.5 31q-45.5 39 -53.5 104q-6 41 -6 117q0 77 6 117q8 65 53.5 104t115.5 39q69 0 114.5 -39.5t53.5 -103.5q5 -34 5 -117t-5 -117q-8 -65 -54 -104t-115 -39t-114.5 39zM316.5 68q32.5 29 37.5 77q3 29 3 107t-3 107q-5 48 -37.5 77t-80.5 29t-80 -29t-37 -77
q-3 -29 -3 -107t3 -107q5 -48 37 -77t80 -29t80.5 29zM332.5 676.5q-1.5 3.5 0.5 7.5q8 18 19.5 30t13.5 15q14 13 20.5 23t6.5 26q0 15 -13.5 26.5t-31.5 11.5q-19 0 -30 -8t-25 -28q-6 -9 -14 -3l-10 7q-9 6 -3 14q18 27 35.5 39t47.5 12q34 0 56.5 -20t22.5 -51
q0 -22 -9.5 -36.5t-28.5 -33.5q-21 -21 -27 -33q-3 -10 -12 -7l-12 3q-5 2 -6.5 5.5zM125.5 581q-2.5 4 1.5 8l74 105q4 6 12 6h40q8 0 12 -6l75 -105q2 -2 2 -6q0 -2 -2 -4t-6 -2h-29q-8 0 -12 6l-56 82q-1 2 -3 2t-3 -2l-57 -82q-4 -6 -12 -6h-28q-6 0 -8.5 4z" />
    <glyph glyph-name="uni1ED6" unicode="&#x1ed6;" horiz-adv-x="537" 
d="M124 46.5q-54 54.5 -54 143.5v320q0 58 24.5 103t69.5 70t103 25q59 0 104.5 -25t70.5 -70t25 -103v-320q0 -59 -25 -104t-70.5 -69.5t-104.5 -24.5q-89 0 -143 54.5zM373.5 80q40.5 41 40.5 107v324q0 67 -40.5 108.5t-106.5 41.5q-65 0 -104.5 -41.5t-39.5 -108.5v-324
q0 -66 40 -107t104 -41q66 0 106.5 41zM158.5 777q-2.5 4 1.5 8l74 105q4 6 12 6h40q8 0 12 -6l75 -105q2 -2 2 -6q0 -2 -2 -4t-6 -2h-29q-8 0 -12 6l-56 82q-1 2 -3 2t-3 -2l-57 -82q-4 -6 -12 -6h-28q-6 0 -8.5 4zM269 949q-3 2 -13 8.5t-18 9.5t-16 3q-16 0 -27.5 -6
t-23.5 -21q-6 -9 -14 -3l-12 9q-8 6 -2 14q28 47 76 47q16 0 29 -5.5t30 -16.5q3 -2 13 -8.5t18.5 -10t16.5 -3.5q15 0 27 6.5t23 23.5q2 4 6 5t8 -2l12 -9q4 -3 4 -7q0 -5 -3 -11q-15 -23 -36 -34t-42 -11q-26 0 -56 22z" />
    <glyph glyph-name="uni1ED7" unicode="&#x1ed7;" horiz-adv-x="470" 
d="M121.5 31q-45.5 39 -53.5 104q-6 41 -6 117q0 77 6 117q8 65 53.5 104t115.5 39q69 0 114.5 -39.5t53.5 -103.5q5 -34 5 -117t-5 -117q-8 -65 -54 -104t-115 -39t-114.5 39zM316.5 68q32.5 29 37.5 77q3 29 3 107t-3 107q-5 48 -37.5 77t-80.5 29t-80 -29t-37 -77
q-3 -29 -3 -107t3 -107q5 -48 37 -77t80 -29t80.5 29zM125.5 581q-2.5 4 1.5 8l74 105q4 6 12 6h40q8 0 12 -6l75 -105q2 -2 2 -6q0 -2 -2 -4t-6 -2h-29q-8 0 -12 6l-56 82q-1 2 -3 2t-3 -2l-57 -82q-4 -6 -12 -6h-28q-6 0 -8.5 4zM236 753q-3 2 -13 8.5t-18 9.5t-16 3
q-16 0 -27.5 -6t-23.5 -21q-6 -9 -14 -3l-12 9q-8 6 -2 14q28 47 76 47q16 0 29 -5.5t30 -16.5q3 -2 13 -8.5t18.5 -10t16.5 -3.5q15 0 27 6.5t23 23.5q2 4 6 5t8 -2l12 -9q4 -3 4 -7q0 -5 -3 -11q-15 -23 -36 -34t-42 -11q-26 0 -56 22z" />
    <glyph glyph-name="uni1ED8" unicode="&#x1ed8;" horiz-adv-x="537" 
d="M124 46.5q-54 54.5 -54 143.5v320q0 58 24.5 103t69.5 70t103 25q59 0 104.5 -25t70.5 -70t25 -103v-320q0 -59 -25 -104t-70.5 -69.5t-104.5 -24.5q-89 0 -143 54.5zM373.5 80q40.5 41 40.5 107v324q0 67 -40.5 108.5t-106.5 41.5q-65 0 -104.5 -41.5t-39.5 -108.5v-324
q0 -66 40 -107t104 -41q66 0 106.5 41zM234.5 -163.5q-13.5 13.5 -13.5 33.5q0 21 13.5 34.5t34.5 13.5q20 0 33.5 -13.5t13.5 -34.5q0 -20 -13.5 -33.5t-33.5 -13.5q-21 0 -34.5 13.5zM158.5 777q-2.5 4 1.5 8l74 105q4 6 12 6h40q8 0 12 -6l75 -105q2 -2 2 -6q0 -2 -2 -4
t-6 -2h-29q-8 0 -12 6l-56 82q-1 2 -3 2t-3 -2l-57 -82q-4 -6 -12 -6h-28q-6 0 -8.5 4z" />
    <glyph glyph-name="uni1ED9" unicode="&#x1ed9;" horiz-adv-x="470" 
d="M121.5 31q-45.5 39 -53.5 104q-6 41 -6 117q0 77 6 117q8 65 53.5 104t115.5 39q69 0 114.5 -39.5t53.5 -103.5q5 -34 5 -117t-5 -117q-8 -65 -54 -104t-115 -39t-114.5 39zM316.5 68q32.5 29 37.5 77q3 29 3 107t-3 107q-5 48 -37.5 77t-80.5 29t-80 -29t-37 -77
q-3 -29 -3 -107t3 -107q5 -48 37 -77t80 -29t80.5 29zM201.5 -163.5q-13.5 13.5 -13.5 33.5q0 21 13.5 34.5t34.5 13.5q20 0 33.5 -13.5t13.5 -34.5q0 -20 -13.5 -33.5t-33.5 -13.5q-21 0 -34.5 13.5zM125.5 581q-2.5 4 1.5 8l74 105q4 6 12 6h40q8 0 12 -6l75 -105
q2 -2 2 -6q0 -2 -2 -4t-6 -2h-29q-8 0 -12 6l-56 82q-1 2 -3 2t-3 -2l-57 -82q-4 -6 -12 -6h-28q-6 0 -8.5 4z" />
    <glyph glyph-name="uni1EDA" unicode="&#x1eda;" horiz-adv-x="537" 
d="M124 46.5q-54 54.5 -54 143.5v320q0 58 24.5 103t69.5 70t103 25q59 0 104.5 -25t70.5 -70t25 -103v-320q0 -59 -25 -104t-70.5 -69.5t-104.5 -24.5q-89 0 -143 54.5zM373.5 80q40.5 41 40.5 107v324q0 67 -40.5 108.5t-106.5 41.5q-65 0 -104.5 -41.5t-39.5 -108.5v-324
q0 -66 40 -107t104 -41q66 0 106.5 41zM398 677v13q0 9 9 11q25 3 43 20.5t22 46.5q0 10 10 10h17q10 0 9 -12q-4 -42 -32 -68.5t-68 -30.5q-10 0 -10 10zM232 770.5q-2 3.5 1 8.5l61 110q3 7 12 7h28q6 0 8 -3.5t-1 -8.5l-67 -110q-5 -7 -12 -7h-22q-6 0 -8 3.5z" />
    <glyph glyph-name="uni1EDB" unicode="&#x1edb;" horiz-adv-x="470" 
d="M410 252q0 -83 -5 -117q-8 -65 -54 -104t-115 -39t-114.5 39t-53.5 104q-6 41 -6 117q0 77 6 117q8 65 53.5 104t115.5 39q24 0 54 -7q1 -1 5 -1q25 2 44 20.5t23 47.5q0 10 10 10h17q10 0 10 -10q-3 -30 -18 -52.5t-38 -35.5q-4 -1 -1 -5q53 -38 62 -110q5 -34 5 -117z
M357 252q0 78 -3 107q-5 48 -37.5 77t-80.5 29t-80 -29t-37 -77q-3 -29 -3 -107t3 -107q5 -48 37 -77t80 -29t80.5 29t37.5 77q3 29 3 107zM199 574.5q-2 3.5 1 8.5l61 110q3 7 12 7h28q6 0 8 -3.5t-1 -8.5l-67 -110q-5 -7 -12 -7h-22q-6 0 -8 3.5z" />
    <glyph glyph-name="uni1EDC" unicode="&#x1edc;" horiz-adv-x="537" 
d="M124 46.5q-54 54.5 -54 143.5v320q0 58 24.5 103t69.5 70t103 25q59 0 104.5 -25t70.5 -70t25 -103v-320q0 -59 -25 -104t-70.5 -69.5t-104.5 -24.5q-89 0 -143 54.5zM373.5 80q40.5 41 40.5 107v324q0 67 -40.5 108.5t-106.5 41.5q-65 0 -104.5 -41.5t-39.5 -108.5v-324
q0 -66 40 -107t104 -41q66 0 106.5 41zM398 677v13q0 9 9 11q25 3 43 20.5t22 46.5q0 10 10 10h17q10 0 9 -12q-4 -42 -32 -68.5t-68 -30.5q-10 0 -10 10zM286 773q0 -6 -9 -6h-21q-7 0 -12 7l-68 110q-2 4 -2 6q0 6 9 6h28q8 0 12 -7l61 -110q2 -4 2 -6z" />
    <glyph glyph-name="uni1EDD" unicode="&#x1edd;" horiz-adv-x="470" 
d="M410 252q0 -83 -5 -117q-8 -65 -54 -104t-115 -39t-114.5 39t-53.5 104q-6 41 -6 117q0 77 6 117q8 65 53.5 104t115.5 39q24 0 54 -7q1 -1 5 -1q25 2 44 20.5t23 47.5q0 10 10 10h17q10 0 10 -10q-3 -30 -18 -52.5t-38 -35.5q-4 -1 -1 -5q53 -38 62 -110q5 -34 5 -117z
M357 252q0 78 -3 107q-5 48 -37.5 77t-80.5 29t-80 -29t-37 -77q-3 -29 -3 -107t3 -107q5 -48 37 -77t80 -29t80.5 29t37.5 77q3 29 3 107zM253 577q0 -6 -9 -6h-21q-7 0 -12 7l-68 110q-2 4 -2 6q0 6 9 6h28q8 0 12 -7l61 -110q2 -4 2 -6z" />
    </font>
</defs>
</svg>
