<svg xmlns="http://www.w3.org/2000/svg" viewBox="0 0 39.71 29.67">
<defs><style>.cls-1{fill:#fff;}</style></defs>
<g id="Layer_2" data-name="Layer 2"><g id="Layer_1-2" data-name="Layer 1"><g id="Group_200" data-name="Group 200"><g id="Group_8-2" data-name="Group 8-2"><g id="Path_36-2" data-name="Path 36-2"><path class="cls-1" d="M1.48,13.24H38.23a1.48,1.48,0,1,1,0,3H1.48a1.48,1.48,0,0,1,0-3Z"/></g><g id="Path_37-2" data-name="Path 37-2"><path class="cls-1" d="M16,0a1.47,1.47,0,0,1,1.09.48A1.48,1.48,0,0,1,17,2.57L3.67,14.84,17,27.1a1.48,1.48,0,0,1,.09,2.09,1.47,1.47,0,0,1-2.09.09L.48,15.93A1.51,1.51,0,0,1,0,14.84a1.49,1.49,0,0,1,.48-1.09L15,.39A1.47,1.47,0,0,1,16,0Z"/></g></g></g></g></g></svg>