<svg xmlns="http://www.w3.org/2000/svg" viewBox="0 0 39.71 29.67"><defs><style>.cls-1{fill:#fff}</style></defs>
<g id="Layer_2" data-name="Layer 2"><g id="Layer_1-2" data-name="Layer 1"><g id="Group_200" data-name="Group 200"><g id="Group_8-2" data-name="Group 8-2"><path class="cls-1" d="M38.23 16.43H1.48a1.48 1.48 0 1 1 0-3h36.75a1.48 1.48 0 1 1 0 3Z" id="Path_36-2" data-name="Path 36-2"/><path class="cls-1" d="M23.69 29.67a1.47 1.47 0 0 1-1.09-.48 1.48 1.48 0 0 1 .09-2.09L36 14.84 22.69 2.57a1.48 1.48 0 1 1 2-2.18l14.53 13.36a1.46 1.46 0 0 1 .49 1.09 1.48 1.48 0 0 1-.49 1.09L24.69 29.28a1.47 1.47 0 0 1-1 .39Z" id="Path_37-2" data-name="Path 37-2"/></g></g></g></g></svg>