<svg xmlns="http://www.w3.org/2000/svg" viewBox="0 0 39.71 29.67"><defs><style>.cls-1{fill:#242425;}</style></defs><g id="Layer_2" data-name="Layer 2"><g id="Layer_1-2" data-name="Layer 1"><g id="Group_199" data-name="Group 199"><g id="Group_8" data-name="Group 8"><g id="Path_36" data-name="Path 36"><path class="cls-1" d="M38.23,16.43H1.48a1.48,1.48,0,1,1,0-3H38.23a1.48,1.48,0,1,1,0,3Z"/></g><g id="Path_37" data-name="Path 37"><path class="cls-1" d="M23.69,29.67a1.47,1.47,0,0,1-1.09-.48,1.48,1.48,0,0,1,.09-2.09L36,14.84,22.69,2.57a1.48,1.48,0,1,1,2-2.18L39.23,13.75a1.49,1.49,0,0,1,.48,1.09,1.51,1.51,0,0,1-.48,1.09L24.69,29.28A1.47,1.47,0,0,1,23.69,29.67Z"/></g></g></g></g></g></svg>